  0
SECTION
  2
HEADER
  9
$ACADVER
  1
AC1009
  9
$EXTMIN
 10
0.0
 20
0.0
 30
0.0
  9
$EXTMAX
 10
1000.0
 20
1000.0
 30
0.0
  9
$FILLMODE
 70
 0
  9
$SPLFRAME
 70
 1
  0
ENDSEC
  0
SECTION
  2
TABLES
  0
TABLE
  2
LAYER
 70
1
  0
LAYER
  2
0
 70
     0
 62
     7
  6
CONTINUOUS
  0
ENDTAB
  0
ENDSEC
  0
SECTION
  2
ENTITIES
  0
LINE
  8
0
 62
     0
 10
0.370692
 20
1.87138
 30
0.0
 11
0.402389
 21
1.87965
 31
0.0
  0
LINE
  8
0
 62
     0
 10
0.402389
 20
1.87965
 30
0.0
 11
0.551215
 21
2.13734
 31
0.0
  0
LINE
  8
0
 62
     0
 10
0.551215
 20
2.13734
 30
0.0
 11
0.563619
 21
2.16352
 31
0.0
  0
LINE
  8
0
 62
     0
 10
0.563619
 20
2.16352
 30
0.0
 11
0.593933
 21
2.23104
 31
0.0
  0
LINE
  8
0
 62
     0
 10
0.593933
 20
2.23104
 30
0.0
 11
0.903993
 21
2.79604
 31
0.0
  0
LINE
  8
0
 62
     0
 10
0.903993
 20
2.79604
 30
0.0
 11
1.2678
 21
3.39549
 31
0.0
  0
LINE
  8
0
 62
     0
 10
1.2678
 20
3.39549
 30
0.0
 11
1.3243
 21
3.48093
 31
0.0
  0
LINE
  8
0
 62
     0
 10
1.3243
 20
3.48093
 30
0.0
 11
1.43178
 21
3.64352
 31
0.0
  0
LINE
  8
0
 62
     0
 10
1.43178
 20
3.64352
 30
0.0
 11
2.02296
 21
4.40559
 31
0.0
  0
LINE
  8
0
 62
     0
 10
2.02296
 20
4.40559
 30
0.0
 11
2.56866
 21
4.95956
 31
0.0
  0
LINE
  8
0
 62
     0
 10
2.56866
 20
4.95956
 30
0.0
 11
2.65272
 21
5.01883
 31
0.0
  0
LINE
  8
0
 62
     0
 10
2.65272
 20
5.01883
 30
0.0
 11
2.72438
 21
5.07118
 31
0.0
  0
LINE
  8
0
 62
     0
 10
2.72438
 20
5.07118
 30
0.0
 11
3.17087
 21
5.33301
 31
0.0
  0
LINE
  8
0
 62
     0
 10
3.17087
 20
5.33301
 30
0.0
 11
3.3197
 21
5.33301
 31
0.0
  0
LINE
  8
0
 62
     0
 10
3.3197
 20
5.33301
 30
0.0
 11
3.34863
 21
5.33301
 31
0.0
  0
LINE
  8
0
 62
     0
 10
3.34863
 20
5.33301
 30
0.0
 11
3.4258
 21
5.30959
 31
0.0
  0
LINE
  8
0
 62
     0
 10
3.4258
 20
5.30959
 30
0.0
 11
3.43545
 21
5.30546
 31
0.0
  0
LINE
  8
0
 62
     0
 10
3.43545
 20
5.30546
 30
0.0
 11
3.45199
 21
5.29855
 31
0.0
  0
LINE
  8
0
 62
     0
 10
3.45199
 20
5.29855
 30
0.0
 11
3.51262
 21
5.12632
 31
0.0
  0
LINE
  8
0
 62
     0
 10
3.51262
 20
5.12632
 30
0.0
 11
3.51262
 21
5.06843
 31
0.0
  0
LINE
  8
0
 62
     0
 10
3.51262
 20
5.06843
 30
0.0
 11
3.51262
 21
4.95268
 31
0.0
  0
LINE
  8
0
 62
     0
 10
3.51262
 20
4.95268
 30
0.0
 11
3.41064
 21
4.60403
 31
0.0
  0
LINE
  8
0
 62
     0
 10
3.41064
 20
4.60403
 30
0.0
 11
3.11437
 21
3.86814
 31
0.0
  0
LINE
  8
0
 62
     0
 10
3.11437
 20
3.86814
 30
0.0
 11
3.01653
 21
3.64628
 31
0.0
  0
LINE
  8
0
 62
     0
 10
3.01653
 20
3.64628
 30
0.0
 11
2.98759
 21
3.58151
 31
0.0
  0
LINE
  8
0
 62
     0
 10
2.98759
 20
3.58151
 30
0.0
 11
2.84427
 21
3.2563
 31
0.0
  0
LINE
  8
0
 62
     0
 10
2.84427
 20
3.2563
 30
0.0
 11
2.73954
 21
2.99861
 31
0.0
  0
LINE
  8
0
 62
     0
 10
2.73954
 20
2.99861
 30
0.0
 11
2.72989
 21
2.96829
 31
0.0
  0
LINE
  8
0
 62
     0
 10
2.72989
 20
2.96829
 30
0.0
 11
2.66788
 21
2.80982
 31
0.0
  0
LINE
  8
0
 62
     0
 10
2.66788
 20
2.80982
 30
0.0
 11
2.44602
 21
2.07946
 31
0.0
  0
LINE
  8
0
 62
     0
 10
2.44602
 20
2.07946
 30
0.0
 11
2.34956
 21
1.52687
 31
0.0
  0
LINE
  8
0
 62
     0
 10
2.34956
 20
1.52687
 30
0.0
 11
2.34956
 21
1.34221
 31
0.0
  0
LINE
  8
0
 62
     0
 10
2.34956
 20
1.34221
 30
0.0
 11
2.34956
 21
1.22094
 31
0.0
  0
LINE
  8
0
 62
     0
 10
2.34956
 20
1.22094
 30
0.0
 11
2.35369
 21
1.12723
 31
0.0
  0
LINE
  8
0
 62
     0
 10
2.35369
 20
1.12723
 30
0.0
 11
2.52043
 21
0.689021
 31
0.0
  0
LINE
  8
0
 62
     0
 10
2.52043
 20
0.689021
 30
0.0
 11
2.87596
 21
0.438217
 31
0.0
  0
LINE
  8
0
 62
     0
 10
2.87596
 20
0.438217
 30
0.0
 11
2.99448
 21
0.438217
 31
0.0
  0
LINE
  8
0
 62
     0
 10
2.99448
 20
0.438217
 30
0.0
 11
3.03306
 21
0.438217
 31
0.0
  0
LINE
  8
0
 62
     0
 10
3.03306
 20
0.438217
 30
0.0
 11
3.08818
 21
0.442352
 31
0.0
  0
LINE
  8
0
 62
     0
 10
3.08818
 20
0.442352
 30
0.0
 11
3.5402
 21
0.700045
 31
0.0
  0
LINE
  8
0
 62
     0
 10
3.5402
 20
0.700045
 30
0.0
 11
3.57875
 21
0.735873
 31
0.0
  0
LINE
  8
0
 62
     0
 10
3.57875
 20
0.735873
 30
0.0
 11
3.64352
 21
0.799264
 31
0.0
  0
LINE
  8
0
 62
     0
 10
3.64352
 20
0.799264
 30
0.0
 11
3.95912
 21
1.22645
 31
0.0
  0
LINE
  8
0
 62
     0
 10
3.95912
 20
1.22645
 30
0.0
 11
4.38492
 21
1.98438
 31
0.0
  0
LINE
  8
0
 62
     0
 10
4.38492
 20
1.98438
 30
0.0
 11
4.5048
 21
2.21313
 31
0.0
  0
LINE
  8
0
 62
     0
 10
4.5048
 20
2.21313
 30
0.0
 11
4.55443
 21
2.30821
 31
0.0
  0
LINE
  8
0
 62
     0
 10
4.55443
 20
2.30821
 30
0.0
 11
5.0891
 21
3.24528
 31
0.0
  0
LINE
  8
0
 62
     0
 10
5.0891
 20
3.24528
 30
0.0
 11
5.14421
 21
3.33761
 31
0.0
  0
LINE
  8
0
 62
     0
 10
5.14421
 20
3.33761
 30
0.0
 11
5.16763
 21
3.37895
 31
0.0
  0
LINE
  8
0
 62
     0
 10
5.16763
 20
3.37895
 30
0.0
 11
5.40604
 21
3.76756
 31
0.0
  0
LINE
  8
0
 62
     0
 10
5.40604
 20
3.76756
 30
0.0
 11
5.43084
 21
3.80615
 31
0.0
  0
LINE
  8
0
 62
     0
 10
5.43084
 20
3.80615
 30
0.0
 11
5.4405
 21
3.82266
 31
0.0
  0
LINE
  8
0
 62
     0
 10
5.4405
 20
3.82266
 30
0.0
 11
5.55212
 21
3.97563
 31
0.0
  0
LINE
  8
0
 62
     0
 10
5.55212
 20
3.97563
 30
0.0
 11
5.55212
 21
4.02664
 31
0.0
  0
LINE
  8
0
 62
     0
 10
5.55212
 20
4.02664
 30
0.0
 11
5.55212
 21
4.04731
 31
0.0
  0
LINE
  8
0
 62
     0
 10
5.55212
 20
4.04731
 30
0.0
 11
5.4901
 21
4.10242
 31
0.0
  0
LINE
  8
0
 62
     0
 10
5.4901
 20
4.10242
 30
0.0
 11
5.47493
 21
4.1093
 31
0.0
  0
LINE
  8
0
 62
     0
 10
5.47493
 20
4.1093
 30
0.0
 11
5.4653
 21
4.11484
 31
0.0
  0
LINE
  8
0
 62
     0
 10
5.4653
 20
4.11484
 30
0.0
 11
5.41845
 21
4.14239
 31
0.0
  0
LINE
  8
0
 62
     0
 10
5.41845
 20
4.14239
 30
0.0
 11
5.40329
 21
4.14239
 31
0.0
  0
LINE
  8
0
 62
     0
 10
5.40329
 20
4.14239
 30
0.0
 11
5.35919
 21
4.14239
 31
0.0
  0
LINE
  8
0
 62
     0
 10
5.35919
 20
4.14239
 30
0.0
 11
5.24895
 21
4.00597
 31
0.0
  0
LINE
  8
0
 62
     0
 10
5.24895
 20
4.00597
 30
0.0
 11
5.2269
 21
3.97701
 31
0.0
  0
LINE
  8
0
 62
     0
 10
5.2269
 20
3.97701
 30
0.0
 11
5.19105
 21
3.92465
 31
0.0
  0
LINE
  8
0
 62
     0
 10
5.19105
 20
3.92465
 30
0.0
 11
5.05326
 21
3.70004
 31
0.0
  0
LINE
  8
0
 62
     0
 10
5.05326
 20
3.70004
 30
0.0
 11
4.7928
 21
3.25768
 31
0.0
  0
LINE
  8
0
 62
     0
 10
4.7928
 20
3.25768
 30
0.0
 11
4.51033
 21
2.76435
 31
0.0
  0
LINE
  8
0
 62
     0
 10
4.51033
 20
2.76435
 30
0.0
 11
4.33116
 21
2.44326
 31
0.0
  0
LINE
  8
0
 62
     0
 10
4.33116
 20
2.44326
 30
0.0
 11
4.2733
 21
2.3344
 31
0.0
  0
LINE
  8
0
 62
     0
 10
4.2733
 20
2.3344
 30
0.0
 11
4.24021
 21
2.27239
 31
0.0
  0
LINE
  8
0
 62
     0
 10
4.24021
 20
2.27239
 30
0.0
 11
4.07899
 21
1.97611
 31
0.0
  0
LINE
  8
0
 62
     0
 10
4.07899
 20
1.97611
 30
0.0
 11
3.96049
 21
1.76389
 31
0.0
  0
LINE
  8
0
 62
     0
 10
3.96049
 20
1.76389
 30
0.0
 11
3.94808
 21
1.7446
 31
0.0
  0
LINE
  8
0
 62
     0
 10
3.94808
 20
1.7446
 30
0.0
 11
3.91502
 21
1.68534
 31
0.0
  0
LINE
  8
0
 62
     0
 10
3.91502
 20
1.68534
 30
0.0
 11
3.78823
 21
1.47588
 31
0.0
  0
LINE
  8
0
 62
     0
 10
3.78823
 20
1.47588
 30
0.0
 11
3.53882
 21
1.11345
 31
0.0
  0
LINE
  8
0
 62
     0
 10
3.53882
 20
1.11345
 30
0.0
 11
3.23839
 21
0.795129
 31
0.0
  0
LINE
  8
0
 62
     0
 10
3.23839
 20
0.795129
 30
0.0
 11
3.0055
 21
0.658703
 31
0.0
  0
LINE
  8
0
 62
     0
 10
3.0055
 20
0.658703
 30
0.0
 11
2.92833
 21
0.658703
 31
0.0
  0
LINE
  8
0
 62
     0
 10
2.92833
 20
0.658703
 30
0.0
 11
2.88975
 21
0.658703
 31
0.0
  0
LINE
  8
0
 62
     0
 10
2.88975
 20
0.658703
 30
0.0
 11
2.87321
 21
0.662838
 31
0.0
  0
LINE
  8
0
 62
     0
 10
2.87321
 20
0.662838
 30
0.0
 11
2.76986
 21
0.813043
 31
0.0
  0
LINE
  8
0
 62
     0
 10
2.76986
 20
0.813043
 30
0.0
 11
2.76848
 21
0.829578
 31
0.0
  0
LINE
  8
0
 62
     0
 10
2.76848
 20
0.829578
 30
0.0
 11
2.76572
 21
0.841982
 31
0.0
  0
LINE
  8
0
 62
     0
 10
2.76572
 20
0.841982
 30
0.0
 11
2.75746
 21
0.941201
 31
0.0
  0
LINE
  8
0
 62
     0
 10
2.75746
 20
0.941201
 30
0.0
 11
2.75746
 21
0.972894
 31
0.0
  0
LINE
  8
0
 62
     0
 10
2.75746
 20
0.972894
 30
0.0
 11
2.75746
 21
1.21543
 31
0.0
  0
LINE
  8
0
 62
     0
 10
2.75746
 20
1.21543
 30
0.0
 11
2.97656
 21
1.87
 31
0.0
  0
LINE
  8
0
 62
     0
 10
2.97656
 20
1.87
 30
0.0
 11
3.0055
 21
1.94303
 31
0.0
  0
LINE
  8
0
 62
     0
 10
3.0055
 20
1.94303
 30
0.0
 11
3.03444
 21
2.0202
 31
0.0
  0
LINE
  8
0
 62
     0
 10
3.03444
 20
2.0202
 30
0.0
 11
3.34174
 21
2.78639
 31
0.0
  0
LINE
  8
0
 62
     0
 10
3.34174
 20
2.78639
 30
0.0
 11
3.37482
 21
2.86356
 31
0.0
  0
LINE
  8
0
 62
     0
 10
3.37482
 20
2.86356
 30
0.0
 11
3.45336
 21
3.04684
 31
0.0
  0
LINE
  8
0
 62
     0
 10
3.45336
 20
3.04684
 30
0.0
 11
3.68074
 21
3.6008
 31
0.0
  0
LINE
  8
0
 62
     0
 10
3.68074
 20
3.6008
 30
0.0
 11
3.86814
 21
4.11484
 31
0.0
  0
LINE
  8
0
 62
     0
 10
3.86814
 20
4.11484
 30
0.0
 11
3.96049
 21
4.4855
 31
0.0
  0
LINE
  8
0
 62
     0
 10
3.96049
 20
4.4855
 30
0.0
 11
3.98667
 21
4.7129
 31
0.0
  0
LINE
  8
0
 62
     0
 10
3.98667
 20
4.7129
 30
0.0
 11
3.98667
 21
4.7873
 31
0.0
  0
LINE
  8
0
 62
     0
 10
3.98667
 20
4.7873
 30
0.0
 11
3.98667
 21
4.80935
 31
0.0
  0
LINE
  8
0
 62
     0
 10
3.98667
 20
4.80935
 30
0.0
 11
3.98667
 21
4.94439
 31
0.0
  0
LINE
  8
0
 62
     0
 10
3.98667
 20
4.94439
 30
0.0
 11
3.78686
 21
5.34956
 31
0.0
  0
LINE
  8
0
 62
     0
 10
3.78686
 20
5.34956
 30
0.0
 11
3.39411
 21
5.5535
 31
0.0
  0
LINE
  8
0
 62
     0
 10
3.39411
 20
5.5535
 30
0.0
 11
3.26457
 21
5.5535
 31
0.0
  0
LINE
  8
0
 62
     0
 10
3.26457
 20
5.5535
 30
0.0
 11
3.15709
 21
5.5535
 31
0.0
  0
LINE
  8
0
 62
     0
 10
3.15709
 20
5.5535
 30
0.0
 11
2.87321
 21
5.48047
 31
0.0
  0
LINE
  8
0
 62
     0
 10
2.87321
 20
5.48047
 30
0.0
 11
2.83463
 21
5.4653
 31
0.0
  0
LINE
  8
0
 62
     0
 10
2.83463
 20
5.4653
 30
0.0
 11
2.75746
 21
5.435
 31
0.0
  0
LINE
  8
0
 62
     0
 10
2.75746
 20
5.435
 30
0.0
 11
2.10702
 21
4.92372
 31
0.0
  0
LINE
  8
0
 62
     0
 10
2.10702
 20
4.92372
 30
0.0
 11
2.0519
 21
4.86449
 31
0.0
  0
LINE
  8
0
 62
     0
 10
2.0519
 20
4.86449
 30
0.0
 11
1.96646
 21
4.77354
 31
0.0
  0
LINE
  8
0
 62
     0
 10
1.96646
 20
4.77354
 30
0.0
 11
1.51309
 21
4.22508
 31
0.0
  0
LINE
  8
0
 62
     0
 10
1.51309
 20
4.22508
 30
0.0
 11
1.0983
 21
3.6394
 31
0.0
  0
LINE
  8
0
 62
     0
 10
1.0983
 20
3.6394
 30
0.0
 11
1.03215
 21
3.53053
 31
0.0
  0
LINE
  8
0
 62
     0
 10
1.03215
 20
3.53053
 30
0.0
 11
1.0101
 21
3.49884
 31
0.0
  0
LINE
  8
0
 62
     0
 10
1.0101
 20
3.49884
 30
0.0
 11
0.87781
 21
3.34588
 31
0.0
  0
LINE
  8
0
 62
     0
 10
0.87781
 20
3.34588
 30
0.0
 11
0.87781
 21
3.29351
 31
0.0
  0
LINE
  8
0
 62
     0
 10
0.87781
 20
3.29351
 30
0.0
 11
0.87781
 21
3.41202
 31
0.0
  0
LINE
  8
0
 62
     0
 10
0.87781
 20
3.41202
 30
0.0
 11
1.00873
 21
3.76481
 31
0.0
  0
LINE
  8
0
 62
     0
 10
1.00873
 20
3.76481
 30
0.0
 11
1.24437
 21
4.48
 31
0.0
  0
LINE
  8
0
 62
     0
 10
1.24437
 20
4.48
 30
0.0
 11
1.29673
 21
4.62746
 31
0.0
  0
LINE
  8
0
 62
     0
 10
1.29673
 20
4.62746
 30
0.0
 11
1.53376
 21
5.33301
 31
0.0
  0
LINE
  8
0
 62
     0
 10
1.53376
 20
5.33301
 30
0.0
 11
1.67156
 21
5.38261
 31
0.0
  0
LINE
  8
0
 62
     0
 10
1.67156
 20
5.38261
 30
0.0
 11
1.757
 21
5.40879
 31
0.0
  0
LINE
  8
0
 62
     0
 10
1.757
 20
5.40879
 30
0.0
 11
2.41294
 21
5.72989
 31
0.0
  0
LINE
  8
0
 62
     0
 10
2.41294
 20
5.72989
 30
0.0
 11
3.14606
 21
6.18324
 31
0.0
  0
LINE
  8
0
 62
     0
 10
3.14606
 20
6.18324
 30
0.0
 11
3.27008
 21
6.2756
 31
0.0
  0
LINE
  8
0
 62
     0
 10
3.27008
 20
6.2756
 30
0.0
 11
3.38998
 21
6.36242
 31
0.0
  0
LINE
  8
0
 62
     0
 10
3.38998
 20
6.36242
 30
0.0
 11
4.57094
 21
7.44418
 31
0.0
  0
LINE
  8
0
 62
     0
 10
4.57094
 20
7.44418
 30
0.0
 11
4.67568
 21
7.56543
 31
0.0
  0
LINE
  8
0
 62
     0
 10
4.67568
 20
7.56543
 30
0.0
 11
4.78042
 21
7.68533
 31
0.0
  0
LINE
  8
0
 62
     0
 10
4.78042
 20
7.68533
 30
0.0
 11
5.16625
 21
8.18141
 31
0.0
  0
LINE
  8
0
 62
     0
 10
5.16625
 20
8.18141
 30
0.0
 11
5.44601
 21
8.64581
 31
0.0
  0
LINE
  8
0
 62
     0
 10
5.44601
 20
8.64581
 30
0.0
 11
5.49698
 21
8.75055
 31
0.0
  0
LINE
  8
0
 62
     0
 10
5.49698
 20
8.75055
 30
0.0
 11
5.54662
 21
8.85529
 31
0.0
  0
LINE
  8
0
 62
     0
 10
5.54662
 20
8.85529
 30
0.0
 11
5.70371
 21
9.29488
 31
0.0
  0
LINE
  8
0
 62
     0
 10
5.70371
 20
9.29488
 30
0.0
 11
5.76157
 21
9.68072
 31
0.0
  0
LINE
  8
0
 62
     0
 10
5.76157
 20
9.68072
 30
0.0
 11
5.76157
 21
9.80888
 31
0.0
  0
LINE
  8
0
 62
     0
 10
5.76157
 20
9.80888
 30
0.0
 11
5.76157
 21
9.95909
 31
0.0
  0
LINE
  8
0
 62
     0
 10
5.76157
 20
9.95909
 30
0.0
 11
5.672
 21
10.3615
 31
0.0
  0
LINE
  8
0
 62
     0
 10
5.672
 20
10.3615
 30
0.0
 11
5.65132
 21
10.4097
 31
0.0
  0
LINE
  8
0
 62
     0
 10
5.65132
 20
10.4097
 30
0.0
 11
5.61277
 21
10.4883
 31
0.0
  0
LINE
  8
0
 62
     0
 10
5.61277
 20
10.4883
 30
0.0
 11
5.28066
 21
10.8011
 31
0.0
  0
LINE
  8
0
 62
     0
 10
5.28066
 20
10.8011
 30
0.0
 11
4.87549
 21
10.9554
 31
0.0
  0
LINE
  8
0
 62
     0
 10
4.87549
 20
10.9554
 30
0.0
 11
4.74183
 21
10.9554
 31
0.0
  0
LINE
  8
0
 62
     0
 10
4.74183
 20
10.9554
 30
0.0
 11
4.54614
 21
10.9554
 31
0.0
  0
LINE
  8
0
 62
     0
 10
4.54614
 20
10.9554
 30
0.0
 11
3.96325
 21
10.6826
 31
0.0
  0
LINE
  8
0
 62
     0
 10
3.96325
 20
10.6826
 30
0.0
 11
3.28524
 21
10.068
 31
0.0
  0
LINE
  8
0
 62
     0
 10
3.28524
 20
10.068
 30
0.0
 11
3.14882
 21
9.89708
 31
0.0
  0
LINE
  8
0
 62
     0
 10
3.14882
 20
9.89708
 30
0.0
 11
2.98208
 21
9.68347
 31
0.0
  0
LINE
  8
0
 62
     0
 10
2.98208
 20
9.68347
 30
0.0
 11
2.19797
 21
8.43911
 31
0.0
  0
LINE
  8
0
 62
     0
 10
2.19797
 20
8.43911
 30
0.0
 11
1.47312
 21
6.93014
 31
0.0
  0
LINE
  8
0
 62
     0
 10
1.47312
 20
6.93014
 30
0.0
 11
1.33532
 21
6.58428
 31
0.0
  0
LINE
  8
0
 62
     0
 10
1.33532
 20
6.58428
 30
0.0
 11
1.21819
 21
6.29348
 31
0.0
  0
LINE
  8
0
 62
     0
 10
1.21819
 20
6.29348
 30
0.0
 11
0.22462
 21
3.29213
 31
0.0
  0
LINE
  8
0
 62
     0
 10
0.22462
 20
3.29213
 30
0.0
 11
0.150206
 21
2.98483
 31
0.0
  0
LINE
  8
0
 62
     0
 10
0.150206
 20
2.98483
 30
0.0
 11
0.14056
 21
2.949
 31
0.0
  0
LINE
  8
0
 62
     0
 10
0.14056
 20
2.949
 30
0.0
 11
0.0606337
 21
2.65686
 31
0.0
  0
LINE
  8
0
 62
     0
 10
0.0606337
 20
2.65686
 30
0.0
 11
0.00137804
 21
2.34542
 31
0.0
  0
LINE
  8
0
 62
     0
 10
0.00137804
 20
2.34542
 30
0.0
 11
0.00137804
 21
2.24069
 31
0.0
  0
LINE
  8
0
 62
     0
 10
0.00137804
 20
2.24069
 30
0.0
 11
0.00137804
 21
2.16628
 31
0.0
  0
LINE
  8
0
 62
     0
 10
0.00137804
 20
2.16628
 30
0.0
 11
0.0909507
 21
1.95544
 31
0.0
  0
LINE
  8
0
 62
     0
 10
0.0909507
 20
1.95544
 30
0.0
 11
0.111621
 21
1.94303
 31
0.0
  0
LINE
  8
0
 62
     0
 10
0.111621
 20
1.94303
 30
0.0
 11
0.12678
 21
1.93339
 31
0.0
  0
LINE
  8
0
 62
     0
 10
0.12678
 20
1.93339
 30
0.0
 11
0.279742
 21
1.87138
 31
0.0
  0
LINE
  8
0
 62
     0
 10
0.279742
 20
1.87138
 30
0.0
 11
0.332107
 21
1.87138
 31
0.0
  0
LINE
  8
0
 62
     0
 10
0.332107
 20
1.87138
 30
0.0
 11
0.370692
 21
1.87138
 31
0.0
  0
LINE
  8
0
 62
     0
 10
1.76527
 20
5.98343
 30
0.0
 11
1.90858
 21
6.3748
 31
0.0
  0
LINE
  8
0
 62
     0
 10
1.90858
 20
6.3748
 30
0.0
 11
2.38814
 21
7.53237
 31
0.0
  0
LINE
  8
0
 62
     0
 10
2.38814
 20
7.53237
 30
0.0
 11
3.01653
 21
8.80844
 31
0.0
  0
LINE
  8
0
 62
     0
 10
3.01653
 20
8.80844
 30
0.0
 11
3.63114
 21
9.77858
 31
0.0
  0
LINE
  8
0
 62
     0
 10
3.63114
 20
9.77858
 30
0.0
 11
4.05144
 21
10.2774
 31
0.0
  0
LINE
  8
0
 62
     0
 10
4.05144
 20
10.2774
 30
0.0
 11
4.21816
 21
10.4097
 31
0.0
  0
LINE
  8
0
 62
     0
 10
4.21816
 20
10.4097
 30
0.0
 11
4.25813
 21
10.4428
 31
0.0
  0
LINE
  8
0
 62
     0
 10
4.25813
 20
10.4428
 30
0.0
 11
4.54752
 21
10.6219
 31
0.0
  0
LINE
  8
0
 62
     0
 10
4.54752
 20
10.6219
 30
0.0
 11
4.84932
 21
10.7349
 31
0.0
  0
LINE
  8
0
 62
     0
 10
4.84932
 20
10.7349
 30
0.0
 11
4.95131
 21
10.7349
 31
0.0
  0
LINE
  8
0
 62
     0
 10
4.95131
 20
10.7349
 30
0.0
 11
5.02846
 21
10.7349
 31
0.0
  0
LINE
  8
0
 62
     0
 10
5.02846
 20
10.7349
 30
0.0
 11
5.24069
 21
10.6095
 31
0.0
  0
LINE
  8
0
 62
     0
 10
5.24069
 20
10.6095
 30
0.0
 11
5.25999
 21
10.5806
 31
0.0
  0
LINE
  8
0
 62
     0
 10
5.25999
 20
10.5806
 30
0.0
 11
5.29579
 21
10.531
 31
0.0
  0
LINE
  8
0
 62
     0
 10
5.29579
 20
10.531
 30
0.0
 11
5.44738
 21
10.0555
 31
0.0
  0
LINE
  8
0
 62
     0
 10
5.44738
 20
10.0555
 30
0.0
 11
5.44738
 21
9.89708
 31
0.0
  0
LINE
  8
0
 62
     0
 10
5.44738
 20
9.89708
 30
0.0
 11
5.44738
 21
9.56635
 31
0.0
  0
LINE
  8
0
 62
     0
 10
5.44738
 20
9.56635
 30
0.0
 11
5.0395
 21
8.57141
 31
0.0
  0
LINE
  8
0
 62
     0
 10
5.0395
 20
8.57141
 30
0.0
 11
4.10655
 21
7.34631
 31
0.0
  0
LINE
  8
0
 62
     0
 10
4.10655
 20
7.34631
 30
0.0
 11
3.84334
 21
7.0914
 31
0.0
  0
LINE
  8
0
 62
     0
 10
3.84334
 20
7.0914
 30
0.0
 11
3.73863
 21
6.99079
 31
0.0
  0
LINE
  8
0
 62
     0
 10
3.73863
 20
6.99079
 30
0.0
 11
3.288
 21
6.59529
 31
0.0
  0
LINE
  8
0
 62
     0
 10
3.288
 20
6.59529
 30
0.0
 11
2.80982
 21
6.24388
 31
0.0
  0
LINE
  8
0
 62
     0
 10
2.80982
 20
6.24388
 30
0.0
 11
2.69131
 21
6.16536
 31
0.0
  0
LINE
  8
0
 62
     0
 10
2.69131
 20
6.16536
 30
0.0
 11
2.62654
 21
6.12401
 31
0.0
  0
LINE
  8
0
 62
     0
 10
2.62654
 20
6.12401
 30
0.0
 11
2.24758
 21
5.89802
 31
0.0
  0
LINE
  8
0
 62
     0
 10
2.24758
 20
5.89802
 30
0.0
 11
1.94579
 21
5.73401
 31
0.0
  0
LINE
  8
0
 62
     0
 10
1.94579
 20
5.73401
 30
0.0
 11
1.91961
 21
5.72438
 31
0.0
  0
LINE
  8
0
 62
     0
 10
1.91961
 20
5.72438
 30
0.0
 11
1.91409
 21
5.72163
 31
0.0
  0
LINE
  8
0
 62
     0
 10
1.91409
 20
5.72163
 30
0.0
 11
1.77078
 21
5.65686
 31
0.0
  0
LINE
  8
0
 62
     0
 10
1.77078
 20
5.65686
 30
0.0
 11
1.75424
 21
5.6472
 31
0.0
  0
LINE
  8
0
 62
     0
 10
1.75424
 20
5.6472
 30
0.0
 11
1.73771
 21
5.64032
 31
0.0
  0
LINE
  8
0
 62
     0
 10
1.73771
 20
5.64032
 30
0.0
 11
1.63298
 21
5.5976
 31
0.0
  0
LINE
  8
0
 62
     0
 10
1.63298
 20
5.5976
 30
0.0
 11
1.63298
 21
5.5976
 31
0.0
  0
LINE
  8
0
 62
     0
 10
1.63298
 20
5.5976
 30
0.0
 11
1.63298
 21
5.69405
 31
0.0
  0
LINE
  8
0
 62
     0
 10
1.63298
 20
5.69405
 30
0.0
 11
1.74597
 21
5.93108
 31
0.0
  0
LINE
  8
0
 62
     0
 10
1.74597
 20
5.93108
 30
0.0
 11
1.76527
 21
5.98343
 31
0.0
  0
LINE
  8
0
 62
     0
 10
5.40191
 20
1.90445
 30
0.0
 11
5.45151
 21
1.86173
 31
0.0
  0
LINE
  8
0
 62
     0
 10
5.45151
 20
1.86173
 30
0.0
 11
5.94349
 21
1.6564
 31
0.0
  0
LINE
  8
0
 62
     0
 10
5.94349
 20
1.6564
 30
0.0
 11
6.10747
 21
1.6564
 31
0.0
  0
LINE
  8
0
 62
     0
 10
6.10747
 20
1.6564
 30
0.0
 11
6.20529
 21
1.6564
 31
0.0
  0
LINE
  8
0
 62
     0
 10
6.20529
 20
1.6564
 30
0.0
 11
6.46712
 21
1.70739
 31
0.0
  0
LINE
  8
0
 62
     0
 10
6.46712
 20
1.70739
 30
0.0
 11
6.49884
 21
1.71704
 31
0.0
  0
LINE
  8
0
 62
     0
 10
6.49884
 20
1.71704
 30
0.0
 11
6.53881
 21
1.72944
 31
0.0
  0
LINE
  8
0
 62
     0
 10
6.53881
 20
1.72944
 30
0.0
 11
7.05418
 21
1.98989
 31
0.0
  0
LINE
  8
0
 62
     0
 10
7.05418
 20
1.98989
 30
0.0
 11
7.09965
 21
2.0202
 31
0.0
  0
LINE
  8
0
 62
     0
 10
7.09965
 20
2.0202
 30
0.0
 11
7.17405
 21
2.07119
 31
0.0
  0
LINE
  8
0
 62
     0
 10
7.17405
 20
2.07119
 30
0.0
 11
7.54613
 21
2.38952
 31
0.0
  0
LINE
  8
0
 62
     0
 10
7.54613
 20
2.38952
 30
0.0
 11
8.02157
 21
2.89112
 31
0.0
  0
LINE
  8
0
 62
     0
 10
8.02157
 20
2.89112
 30
0.0
 11
8.14698
 21
3.03444
 31
0.0
  0
LINE
  8
0
 62
     0
 10
8.14698
 20
3.03444
 30
0.0
 11
8.21588
 21
3.11023
 31
0.0
  0
LINE
  8
0
 62
     0
 10
8.21588
 20
3.11023
 30
0.0
 11
8.55349
 21
3.48093
 31
0.0
  0
LINE
  8
0
 62
     0
 10
8.55349
 20
3.48093
 30
0.0
 11
8.80152
 21
3.75239
 31
0.0
  0
LINE
  8
0
 62
     0
 10
8.80152
 20
3.75239
 30
0.0
 11
8.82495
 21
3.77857
 31
0.0
  0
LINE
  8
0
 62
     0
 10
8.82495
 20
3.77857
 30
0.0
 11
8.84975
 21
3.80199
 31
0.0
  0
LINE
  8
0
 62
     0
 10
8.84975
 20
3.80199
 30
0.0
 11
8.99583
 21
3.93428
 31
0.0
  0
LINE
  8
0
 62
     0
 10
8.99583
 20
3.93428
 30
0.0
 11
8.99583
 21
3.97701
 31
0.0
  0
LINE
  8
0
 62
     0
 10
8.99583
 20
3.97701
 30
0.0
 11
8.99583
 21
3.9963
 31
0.0
  0
LINE
  8
0
 62
     0
 10
8.99583
 20
3.9963
 30
0.0
 11
8.91314
 21
4.05144
 31
0.0
  0
LINE
  8
0
 62
     0
 10
8.91314
 20
4.05144
 30
0.0
 11
8.81807
 21
4.10379
 31
0.0
  0
LINE
  8
0
 62
     0
 10
8.81807
 20
4.10379
 30
0.0
 11
8.78639
 21
4.10379
 31
0.0
  0
LINE
  8
0
 62
     0
 10
8.78639
 20
4.10379
 30
0.0
 11
8.72987
 21
4.10379
 31
0.0
  0
LINE
  8
0
 62
     0
 10
8.72987
 20
4.10379
 30
0.0
 11
8.56036
 21
3.92878
 31
0.0
  0
LINE
  8
0
 62
     0
 10
8.56036
 20
3.92878
 30
0.0
 11
8.0753
 21
3.4134
 31
0.0
  0
LINE
  8
0
 62
     0
 10
8.0753
 20
3.4134
 30
0.0
 11
7.92095
 21
3.2439
 31
0.0
  0
LINE
  8
0
 62
     0
 10
7.92095
 20
3.2439
 30
0.0
 11
7.82863
 21
3.14193
 31
0.0
  0
LINE
  8
0
 62
     0
 10
7.82863
 20
3.14193
 30
0.0
 11
7.5475
 21
2.836
 31
0.0
  0
LINE
  8
0
 62
     0
 10
7.5475
 20
2.836
 30
0.0
 11
7.28984
 21
2.57418
 31
0.0
  0
LINE
  8
0
 62
     0
 10
7.28984
 20
2.57418
 30
0.0
 11
7.09002
 21
2.40192
 31
0.0
  0
LINE
  8
0
 62
     0
 10
7.09002
 20
2.40192
 30
0.0
 11
6.94119
 21
2.29581
 31
0.0
  0
LINE
  8
0
 62
     0
 10
6.94119
 20
2.29581
 30
0.0
 11
6.89021
 21
2.26274
 31
0.0
  0
LINE
  8
0
 62
     0
 10
6.89021
 20
2.26274
 30
0.0
 11
6.80889
 21
2.20762
 31
0.0
  0
LINE
  8
0
 62
     0
 10
6.80889
 20
2.20762
 30
0.0
 11
6.19566
 21
1.9265
 31
0.0
  0
LINE
  8
0
 62
     0
 10
6.19566
 20
1.9265
 30
0.0
 11
5.99172
 21
1.9265
 31
0.0
  0
LINE
  8
0
 62
     0
 10
5.99172
 20
1.9265
 30
0.0
 11
5.95863
 21
1.9265
 31
0.0
  0
LINE
  8
0
 62
     0
 10
5.95863
 20
1.9265
 30
0.0
 11
5.86906
 21
1.93477
 31
0.0
  0
LINE
  8
0
 62
     0
 10
5.86906
 20
1.93477
 30
0.0
 11
5.85943
 21
1.93752
 31
0.0
  0
LINE
  8
0
 62
     0
 10
5.85943
 20
1.93752
 30
0.0
 11
5.79053
 21
1.94855
 31
0.0
  0
LINE
  8
0
 62
     0
 10
5.79053
 20
1.94855
 30
0.0
 11
5.57417
 21
2.16214
 31
0.0
  0
LINE
  8
0
 62
     0
 10
5.57417
 20
2.16214
 30
0.0
 11
5.49561
 21
2.44464
 31
0.0
  0
LINE
  8
0
 62
     0
 10
5.49561
 20
2.44464
 30
0.0
 11
5.49561
 21
2.53835
 31
0.0
  0
LINE
  8
0
 62
     0
 10
5.49561
 20
2.53835
 30
0.0
 11
5.49561
 21
2.57693
 31
0.0
  0
LINE
  8
0
 62
     0
 10
5.49561
 20
2.57693
 30
0.0
 11
5.49561
 21
2.80982
 31
0.0
  0
LINE
  8
0
 62
     0
 10
5.49561
 20
2.80982
 30
0.0
 11
5.66787
 21
3.43269
 31
0.0
  0
LINE
  8
0
 62
     0
 10
5.66787
 20
3.43269
 30
0.0
 11
5.69405
 21
3.50848
 31
0.0
  0
LINE
  8
0
 62
     0
 10
5.69405
 20
3.50848
 30
0.0
 11
5.72022
 21
3.58704
 31
0.0
  0
LINE
  8
0
 62
     0
 10
5.72022
 20
3.58704
 30
0.0
 11
5.81533
 21
3.83646
 31
0.0
  0
LINE
  8
0
 62
     0
 10
5.81533
 20
3.83646
 30
0.0
 11
5.86906
 21
3.9274
 31
0.0
  0
LINE
  8
0
 62
     0
 10
5.86906
 20
3.9274
 30
0.0
 11
5.88698
 21
3.9274
 31
0.0
  0
LINE
  8
0
 62
     0
 10
5.88698
 20
3.9274
 30
0.0
 11
5.95037
 21
3.9274
 31
0.0
  0
LINE
  8
0
 62
     0
 10
5.95037
 20
3.9274
 30
0.0
 11
6.14331
 21
4.02527
 31
0.0
  0
LINE
  8
0
 62
     0
 10
6.14331
 20
4.02527
 30
0.0
 11
6.44232
 21
4.18373
 31
0.0
  0
LINE
  8
0
 62
     0
 10
6.44232
 20
4.18373
 30
0.0
 11
6.4878
 21
4.21404
 31
0.0
  0
LINE
  8
0
 62
     0
 10
6.4878
 20
4.21404
 30
0.0
 11
6.56361
 21
4.26501
 31
0.0
  0
LINE
  8
0
 62
     0
 10
6.56361
 20
4.26501
 30
0.0
 11
7.23745
 21
4.81902
 31
0.0
  0
LINE
  8
0
 62
     0
 10
7.23745
 20
4.81902
 30
0.0
 11
7.30913
 21
4.89204
 31
0.0
  0
LINE
  8
0
 62
     0
 10
7.30913
 20
4.89204
 30
0.0
 11
7.35461
 21
4.93614
 31
0.0
  0
LINE
  8
0
 62
     0
 10
7.35461
 20
4.93614
 30
0.0
 11
7.74319
 21
5.43638
 31
0.0
  0
LINE
  8
0
 62
     0
 10
7.74319
 20
5.43638
 30
0.0
 11
7.76661
 21
5.49286
 31
0.0
  0
LINE
  8
0
 62
     0
 10
7.76661
 20
5.49286
 30
0.0
 11
7.77628
 21
5.51766
 31
0.0
  0
LINE
  8
0
 62
     0
 10
7.77628
 20
5.51766
 30
0.0
 11
7.82175
 21
5.69405
 31
0.0
  0
LINE
  8
0
 62
     0
 10
7.82175
 20
5.69405
 30
0.0
 11
7.82175
 21
5.75194
 31
0.0
  0
LINE
  8
0
 62
     0
 10
7.82175
 20
5.75194
 30
0.0
 11
7.82175
 21
5.83046
 31
0.0
  0
LINE
  8
0
 62
     0
 10
7.82175
 20
5.83046
 30
0.0
 11
7.66604
 21
6.06474
 31
0.0
  0
LINE
  8
0
 62
     0
 10
7.66604
 20
6.06474
 30
0.0
 11
7.38078
 21
6.17086
 31
0.0
  0
LINE
  8
0
 62
     0
 10
7.38078
 20
6.17086
 30
0.0
 11
7.28708
 21
6.17086
 31
0.0
  0
LINE
  8
0
 62
     0
 10
7.28708
 20
6.17086
 30
0.0
 11
7.15063
 21
6.17086
 31
0.0
  0
LINE
  8
0
 62
     0
 10
7.15063
 20
6.17086
 30
0.0
 11
6.74275
 21
6.00135
 31
0.0
  0
LINE
  8
0
 62
     0
 10
6.74275
 20
6.00135
 30
0.0
 11
6.23425
 21
5.60172
 31
0.0
  0
LINE
  8
0
 62
     0
 10
6.23425
 20
5.60172
 30
0.0
 11
6.12401
 21
5.48735
 31
0.0
  0
LINE
  8
0
 62
     0
 10
6.12401
 20
5.48735
 30
0.0
 11
6.02615
 21
5.38399
 31
0.0
  0
LINE
  8
0
 62
     0
 10
6.02615
 20
5.38399
 30
0.0
 11
5.5783
 21
4.75008
 31
0.0
  0
LINE
  8
0
 62
     0
 10
5.5783
 20
4.75008
 30
0.0
 11
5.22277
 21
4.02248
 31
0.0
  0
LINE
  8
0
 62
     0
 10
5.22277
 20
4.02248
 30
0.0
 11
5.17042
 21
3.8723
 31
0.0
  0
LINE
  8
0
 62
     0
 10
5.17042
 20
3.8723
 30
0.0
 11
5.14696
 21
3.8034
 31
0.0
  0
LINE
  8
0
 62
     0
 10
5.14696
 20
3.8034
 30
0.0
 11
4.99953
 21
3.15295
 31
0.0
  0
LINE
  8
0
 62
     0
 10
4.99953
 20
3.15295
 30
0.0
 11
4.99953
 21
2.93522
 31
0.0
  0
LINE
  8
0
 62
     0
 10
4.99953
 20
2.93522
 30
0.0
 11
4.99953
 21
2.79604
 31
0.0
  0
LINE
  8
0
 62
     0
 10
4.99953
 20
2.79604
 30
0.0
 11
5.0891
 21
2.37436
 31
0.0
  0
LINE
  8
0
 62
     0
 10
5.0891
 20
2.37436
 30
0.0
 11
5.32751
 21
1.97197
 31
0.0
  0
LINE
  8
0
 62
     0
 10
5.32751
 20
1.97197
 30
0.0
 11
5.40191
 21
1.90445
 31
0.0
  0
LINE
  8
0
 62
     0
 10
6.31694
 20
4.82589
 30
0.0
 11
6.37342
 21
4.91409
 31
0.0
  0
LINE
  8
0
 62
     0
 10
6.37342
 20
4.91409
 30
0.0
 11
6.70415
 21
5.34956
 31
0.0
  0
LINE
  8
0
 62
     0
 10
6.70415
 20
5.34956
 30
0.0
 11
7.11069
 21
5.71885
 31
0.0
  0
LINE
  8
0
 62
     0
 10
7.11069
 20
5.71885
 30
0.0
 11
7.20439
 21
5.77398
 31
0.0
  0
LINE
  8
0
 62
     0
 10
7.20439
 20
5.77398
 30
0.0
 11
7.21678
 21
5.77811
 31
0.0
  0
LINE
  8
0
 62
     0
 10
7.21678
 20
5.77811
 30
0.0
 11
7.40145
 21
5.88423
 31
0.0
  0
LINE
  8
0
 62
     0
 10
7.40145
 20
5.88423
 30
0.0
 11
7.46347
 21
5.88423
 31
0.0
  0
LINE
  8
0
 62
     0
 10
7.46347
 20
5.88423
 30
0.0
 11
7.47448
 21
5.88423
 31
0.0
  0
LINE
  8
0
 62
     0
 10
7.47448
 20
5.88423
 30
0.0
 11
7.50616
 21
5.87043
 31
0.0
  0
LINE
  8
0
 62
     0
 10
7.50616
 20
5.87043
 30
0.0
 11
7.50757
 21
5.86768
 31
0.0
  0
LINE
  8
0
 62
     0
 10
7.50757
 20
5.86768
 30
0.0
 11
7.51032
 21
5.86493
 31
0.0
  0
LINE
  8
0
 62
     0
 10
7.51032
 20
5.86493
 30
0.0
 11
7.51858
 21
5.83875
 31
0.0
  0
LINE
  8
0
 62
     0
 10
7.51858
 20
5.83875
 30
0.0
 11
7.51858
 21
5.82909
 31
0.0
  0
LINE
  8
0
 62
     0
 10
7.51858
 20
5.82909
 30
0.0
 11
7.51858
 21
5.79053
 31
0.0
  0
LINE
  8
0
 62
     0
 10
7.51858
 20
5.79053
 30
0.0
 11
7.48273
 21
5.68166
 31
0.0
  0
LINE
  8
0
 62
     0
 10
7.48273
 20
5.68166
 30
0.0
 11
7.47998
 21
5.67475
 31
0.0
  0
LINE
  8
0
 62
     0
 10
7.47998
 20
5.67475
 30
0.0
 11
7.45105
 21
5.60585
 31
0.0
  0
LINE
  8
0
 62
     0
 10
7.45105
 20
5.60585
 30
0.0
 11
6.98115
 21
5.00503
 31
0.0
  0
LINE
  8
0
 62
     0
 10
6.98115
 20
5.00503
 30
0.0
 11
6.92877
 21
4.95268
 31
0.0
  0
LINE
  8
0
 62
     0
 10
6.92877
 20
4.95268
 30
0.0
 11
6.92602
 21
4.94714
 31
0.0
  0
LINE
  8
0
 62
     0
 10
6.92602
 20
4.94714
 30
0.0
 11
6.89434
 21
4.91684
 31
0.0
  0
LINE
  8
0
 62
     0
 10
6.89434
 20
4.91684
 30
0.0
 11
6.89021
 21
4.91409
 31
0.0
  0
LINE
  8
0
 62
     0
 10
6.89021
 20
4.91409
 30
0.0
 11
6.85849
 21
4.88237
 31
0.0
  0
LINE
  8
0
 62
     0
 10
6.85849
 20
4.88237
 30
0.0
 11
6.51951
 21
4.57786
 31
0.0
  0
LINE
  8
0
 62
     0
 10
6.51951
 20
4.57786
 30
0.0
 11
6.49884
 21
4.56131
 31
0.0
  0
LINE
  8
0
 62
     0
 10
6.49884
 20
4.56131
 30
0.0
 11
6.45612
 21
4.53238
 31
0.0
  0
LINE
  8
0
 62
     0
 10
6.45612
 20
4.53238
 30
0.0
 11
6.20391
 21
4.36975
 31
0.0
  0
LINE
  8
0
 62
     0
 10
6.20391
 20
4.36975
 30
0.0
 11
6.05649
 21
4.26364
 31
0.0
  0
LINE
  8
0
 62
     0
 10
6.05649
 20
4.26364
 30
0.0
 11
6.00826
 21
4.26364
 31
0.0
  0
LINE
  8
0
 62
     0
 10
6.00826
 20
4.26364
 30
0.0
 11
6.00826
 21
4.3229
 31
0.0
  0
LINE
  8
0
 62
     0
 10
6.00826
 20
4.3229
 30
0.0
 11
6.12676
 21
4.49929
 31
0.0
  0
LINE
  8
0
 62
     0
 10
6.12676
 20
4.49929
 30
0.0
 11
6.29348
 21
4.79005
 31
0.0
  0
LINE
  8
0
 62
     0
 10
6.29348
 20
4.79005
 30
0.0
 11
6.31694
 21
4.82589
 31
0.0
  0
LINE
  8
0
 62
     0
 10
12.2466
 20
3.96049
 30
0.0
 11
12.248
 21
3.96462
 31
0.0
  0
LINE
  8
0
 62
     0
 10
12.248
 20
3.96462
 30
0.0
 11
12.5608
 21
4.15202
 31
0.0
  0
LINE
  8
0
 62
     0
 10
12.5608
 20
4.15202
 30
0.0
 11
12.6159
 21
4.18098
 31
0.0
  0
LINE
  8
0
 62
     0
 10
12.6159
 20
4.18098
 30
0.0
 11
12.7813
 21
4.26364
 31
0.0
  0
LINE
  8
0
 62
     0
 10
12.7813
 20
4.26364
 30
0.0
 11
13.5268
 21
4.73632
 31
0.0
  0
LINE
  8
0
 62
     0
 10
13.5268
 20
4.73632
 30
0.0
 11
14.2489
 21
5.34264
 31
0.0
  0
LINE
  8
0
 62
     0
 10
14.2489
 20
5.34264
 30
0.0
 11
14.4019
 21
5.49286
 31
0.0
  0
LINE
  8
0
 62
     0
 10
14.4019
 20
5.49286
 30
0.0
 11
14.6858
 21
5.77536
 31
0.0
  0
LINE
  8
0
 62
     0
 10
14.6858
 20
5.77536
 30
0.0
 11
15.6766
 21
7.0528
 31
0.0
  0
LINE
  8
0
 62
     0
 10
15.6766
 20
7.0528
 30
0.0
 11
16.0996
 21
8.0119
 31
0.0
  0
LINE
  8
0
 62
     0
 10
16.0996
 20
8.0119
 30
0.0
 11
16.0996
 21
8.33162
 31
0.0
  0
LINE
  8
0
 62
     0
 10
16.0996
 20
8.33162
 30
0.0
 11
16.0996
 21
8.40327
 31
0.0
  0
LINE
  8
0
 62
     0
 10
16.0996
 20
8.40327
 30
0.0
 11
16.0955
 21
8.46804
 31
0.0
  0
LINE
  8
0
 62
     0
 10
16.0955
 20
8.46804
 30
0.0
 11
16.0266
 21
8.79877
 31
0.0
  0
LINE
  8
0
 62
     0
 10
16.0266
 20
8.79877
 30
0.0
 11
15.8571
 21
9.0799
 31
0.0
  0
LINE
  8
0
 62
     0
 10
15.8571
 20
9.0799
 30
0.0
 11
15.802
 21
9.11987
 31
0.0
  0
LINE
  8
0
 62
     0
 10
15.802
 20
9.11987
 30
0.0
 11
15.7579
 21
9.1543
 31
0.0
  0
LINE
  8
0
 62
     0
 10
15.7579
 20
9.1543
 30
0.0
 11
15.3858
 21
9.30176
 31
0.0
  0
LINE
  8
0
 62
     0
 10
15.3858
 20
9.30176
 30
0.0
 11
15.2618
 21
9.30176
 31
0.0
  0
LINE
  8
0
 62
     0
 10
15.2618
 20
9.30176
 30
0.0
 11
15.1198
 21
9.30176
 31
0.0
  0
LINE
  8
0
 62
     0
 10
15.1198
 20
9.30176
 30
0.0
 11
14.6982
 21
9.1488
 31
0.0
  0
LINE
  8
0
 62
     0
 10
14.6982
 20
9.1488
 30
0.0
 11
14.1773
 21
8.76984
 31
0.0
  0
LINE
  8
0
 62
     0
 10
14.1773
 20
8.76984
 30
0.0
 11
13.728
 21
8.29028
 31
0.0
  0
LINE
  8
0
 62
     0
 10
13.728
 20
8.29028
 30
0.0
 11
13.4648
 21
7.95267
 31
0.0
  0
LINE
  8
0
 62
     0
 10
13.4648
 20
7.95267
 30
0.0
 11
13.3821
 21
7.83551
 31
0.0
  0
LINE
  8
0
 62
     0
 10
13.3821
 20
7.83551
 30
0.0
 11
13.327
 21
7.76111
 31
0.0
  0
LINE
  8
0
 62
     0
 10
13.327
 20
7.76111
 30
0.0
 11
12.8185
 21
6.98803
 31
0.0
  0
LINE
  8
0
 62
     0
 10
12.8185
 20
6.98803
 30
0.0
 11
12.7703
 21
6.90947
 31
0.0
  0
LINE
  8
0
 62
     0
 10
12.7703
 20
6.90947
 30
0.0
 11
12.6146
 21
6.6518
 31
0.0
  0
LINE
  8
0
 62
     0
 10
12.6146
 20
6.6518
 30
0.0
 11
11.9931
 21
5.25582
 31
0.0
  0
LINE
  8
0
 62
     0
 10
11.9931
 20
5.25582
 30
0.0
 11
11.6251
 21
3.86676
 31
0.0
  0
LINE
  8
0
 62
     0
 10
11.6251
 20
3.86676
 30
0.0
 11
11.5962
 21
3.61322
 31
0.0
  0
LINE
  8
0
 62
     0
 10
11.5962
 20
3.61322
 30
0.0
 11
11.5741
 21
3.43131
 31
0.0
  0
LINE
  8
0
 62
     0
 10
11.5741
 20
3.43131
 30
0.0
 11
11.2434
 21
2.93522
 31
0.0
  0
LINE
  8
0
 62
     0
 10
11.2434
 20
2.93522
 30
0.0
 11
11.1456
 21
2.78777
 31
0.0
  0
LINE
  8
0
 62
     0
 10
11.1456
 20
2.78777
 30
0.0
 11
10.7184
 21
2.19246
 31
0.0
  0
LINE
  8
0
 62
     0
 10
10.7184
 20
2.19246
 30
0.0
 11
10.356
 21
1.76802
 31
0.0
  0
LINE
  8
0
 62
     0
 10
10.356
 20
1.76802
 30
0.0
 11
10.2898
 21
1.70601
 31
0.0
  0
LINE
  8
0
 62
     0
 10
10.2898
 20
1.70601
 30
0.0
 11
10.2388
 21
1.66054
 31
0.0
  0
LINE
  8
0
 62
     0
 10
10.2388
 20
1.66054
 30
0.0
 11
9.9012
 21
1.4428
 31
0.0
  0
LINE
  8
0
 62
     0
 10
9.9012
 20
1.4428
 30
0.0
 11
9.58839
 21
1.31465
 31
0.0
  0
LINE
  8
0
 62
     0
 10
9.58839
 20
1.31465
 30
0.0
 11
9.48503
 21
1.31465
 31
0.0
  0
LINE
  8
0
 62
     0
 10
9.48503
 20
1.31465
 30
0.0
 11
9.46436
 21
1.31465
 31
0.0
  0
LINE
  8
0
 62
     0
 10
9.46436
 20
1.31465
 30
0.0
 11
9.40925
 21
1.32292
 31
0.0
  0
LINE
  8
0
 62
     0
 10
9.40925
 20
1.32292
 30
0.0
 11
9.40234
 21
1.32567
 31
0.0
  0
LINE
  8
0
 62
     0
 10
9.40234
 20
1.32567
 30
0.0
 11
9.35965
 21
1.33945
 31
0.0
  0
LINE
  8
0
 62
     0
 10
9.35965
 20
1.33945
 30
0.0
 11
9.2232
 21
1.53513
 31
0.0
  0
LINE
  8
0
 62
     0
 10
9.2232
 20
1.53513
 30
0.0
 11
9.15293
 21
1.79283
 31
0.0
  0
LINE
  8
0
 62
     0
 10
9.15293
 20
1.79283
 30
0.0
 11
9.14329
 21
1.8383
 31
0.0
  0
LINE
  8
0
 62
     0
 10
9.14329
 20
1.8383
 30
0.0
 11
9.13638
 21
1.86724
 31
0.0
  0
LINE
  8
0
 62
     0
 10
9.13638
 20
1.86724
 30
0.0
 11
9.1047
 21
2.27652
 31
0.0
  0
LINE
  8
0
 62
     0
 10
9.1047
 20
2.27652
 30
0.0
 11
9.1047
 21
2.41157
 31
0.0
  0
LINE
  8
0
 62
     0
 10
9.1047
 20
2.41157
 30
0.0
 11
9.1047
 21
2.58107
 31
0.0
  0
LINE
  8
0
 62
     0
 10
9.1047
 20
2.58107
 30
0.0
 11
9.13638
 21
3.04409
 31
0.0
  0
LINE
  8
0
 62
     0
 10
9.13638
 20
3.04409
 30
0.0
 11
9.14329
 21
3.08956
 31
0.0
  0
LINE
  8
0
 62
     0
 10
9.14329
 20
3.08956
 30
0.0
 11
9.1598
 21
3.2191
 31
0.0
  0
LINE
  8
0
 62
     0
 10
9.1598
 20
3.2191
 30
0.0
 11
9.29763
 21
3.95774
 31
0.0
  0
LINE
  8
0
 62
     0
 10
9.29763
 20
3.95774
 30
0.0
 11
9.48365
 21
4.70323
 31
0.0
  0
LINE
  8
0
 62
     0
 10
9.48365
 20
4.70323
 30
0.0
 11
9.52362
 21
4.8369
 31
0.0
  0
LINE
  8
0
 62
     0
 10
9.52362
 20
4.8369
 30
0.0
 11
9.53879
 21
4.87962
 31
0.0
  0
LINE
  8
0
 62
     0
 10
9.53879
 20
4.87962
 30
0.0
 11
9.62145
 21
5.01883
 31
0.0
  0
LINE
  8
0
 62
     0
 10
9.62145
 20
5.01883
 30
0.0
 11
9.65041
 21
5.01883
 31
0.0
  0
LINE
  8
0
 62
     0
 10
9.65041
 20
5.01883
 30
0.0
 11
9.76616
 21
5.01883
 31
0.0
  0
LINE
  8
0
 62
     0
 10
9.76616
 20
5.01883
 30
0.0
 11
10.1176
 21
5.1635
 31
0.0
  0
LINE
  8
0
 62
     0
 10
10.1176
 20
5.1635
 30
0.0
 11
10.6688
 21
5.41295
 31
0.0
  0
LINE
  8
0
 62
     0
 10
10.6688
 20
5.41295
 30
0.0
 11
10.7638
 21
5.4653
 31
0.0
  0
LINE
  8
0
 62
     0
 10
10.7638
 20
5.4653
 30
0.0
 11
10.8879
 21
5.53283
 31
0.0
  0
LINE
  8
0
 62
     0
 10
10.8879
 20
5.53283
 30
0.0
 11
11.4267
 21
5.89111
 31
0.0
  0
LINE
  8
0
 62
     0
 10
11.4267
 20
5.89111
 30
0.0
 11
11.9421
 21
6.34312
 31
0.0
  0
LINE
  8
0
 62
     0
 10
11.9421
 20
6.34312
 30
0.0
 11
12.0537
 21
6.45749
 31
0.0
  0
LINE
  8
0
 62
     0
 10
12.0537
 20
6.45749
 30
0.0
 11
12.2425
 21
6.65043
 31
0.0
  0
LINE
  8
0
 62
     0
 10
12.2425
 20
6.65043
 30
0.0
 11
12.9522
 21
7.53099
 31
0.0
  0
LINE
  8
0
 62
     0
 10
12.9522
 20
7.53099
 30
0.0
 11
13.4014
 21
8.37297
 31
0.0
  0
LINE
  8
0
 62
     0
 10
13.4014
 20
8.37297
 30
0.0
 11
13.4593
 21
8.54661
 31
0.0
  0
LINE
  8
0
 62
     0
 10
13.4593
 20
8.54661
 30
0.0
 11
13.48
 21
8.61138
 31
0.0
  0
LINE
  8
0
 62
     0
 10
13.48
 20
8.61138
 30
0.0
 11
13.5806
 21
9.0303
 31
0.0
  0
LINE
  8
0
 62
     0
 10
13.5806
 20
9.0303
 30
0.0
 11
13.5806
 21
9.16947
 31
0.0
  0
LINE
  8
0
 62
     0
 10
13.5806
 20
9.16947
 30
0.0
 11
13.5806
 21
9.21219
 31
0.0
  0
LINE
  8
0
 62
     0
 10
13.5806
 20
9.21219
 30
0.0
 11
13.5695
 21
9.30864
 31
0.0
  0
LINE
  8
0
 62
     0
 10
13.5695
 20
9.30864
 30
0.0
 11
13.5695
 21
9.34036
 31
0.0
  0
LINE
  8
0
 62
     0
 10
13.5695
 20
9.34036
 30
0.0
 11
13.5682
 21
9.41476
 31
0.0
  0
LINE
  8
0
 62
     0
 10
13.5682
 20
9.41476
 30
0.0
 11
13.451
 21
9.90258
 31
0.0
  0
LINE
  8
0
 62
     0
 10
13.451
 20
9.90258
 30
0.0
 11
13.4262
 21
9.94117
 31
0.0
  0
LINE
  8
0
 62
     0
 10
13.4262
 20
9.94117
 30
0.0
 11
13.3863
 21
10.0004
 31
0.0
  0
LINE
  8
0
 62
     0
 10
13.3863
 20
10.0004
 30
0.0
 11
12.9439
 21
10.2664
 31
0.0
  0
LINE
  8
0
 62
     0
 10
12.9439
 20
10.2664
 30
0.0
 11
12.7978
 21
10.2664
 31
0.0
  0
LINE
  8
0
 62
     0
 10
12.7978
 20
10.2664
 30
0.0
 11
12.6766
 21
10.2664
 31
0.0
  0
LINE
  8
0
 62
     0
 10
12.6766
 20
10.2664
 30
0.0
 11
12.3128
 21
10.1685
 31
0.0
  0
LINE
  8
0
 62
     0
 10
12.3128
 20
10.1685
 30
0.0
 11
11.9531
 21
9.98389
 31
0.0
  0
LINE
  8
0
 62
     0
 10
11.9531
 20
9.98389
 30
0.0
 11
11.8938
 21
9.94117
 31
0.0
  0
LINE
  8
0
 62
     0
 10
11.8938
 20
9.94117
 30
0.0
 11
11.6665
 21
9.77858
 31
0.0
  0
LINE
  8
0
 62
     0
 10
11.6665
 20
9.77858
 30
0.0
 11
11.0725
 21
9.16947
 31
0.0
  0
LINE
  8
0
 62
     0
 10
11.0725
 20
9.16947
 30
0.0
 11
10.2815
 21
8.07392
 31
0.0
  0
LINE
  8
0
 62
     0
 10
10.2815
 20
8.07392
 30
0.0
 11
9.56497
 21
6.73171
 31
0.0
  0
LINE
  8
0
 62
     0
 10
9.56497
 20
6.73171
 30
0.0
 11
9.09782
 21
5.6031
 31
0.0
  0
LINE
  8
0
 62
     0
 10
9.09782
 20
5.6031
 30
0.0
 11
8.97241
 21
5.21727
 31
0.0
  0
LINE
  8
0
 62
     0
 10
8.97241
 20
5.21727
 30
0.0
 11
8.88834
 21
4.96919
 31
0.0
  0
LINE
  8
0
 62
     0
 10
8.88834
 20
4.96919
 30
0.0
 11
8.61688
 21
3.92603
 31
0.0
  0
LINE
  8
0
 62
     0
 10
8.61688
 20
3.92603
 30
0.0
 11
8.51489
 21
3.11299
 31
0.0
  0
LINE
  8
0
 62
     0
 10
8.51489
 20
3.11299
 30
0.0
 11
8.51489
 21
2.84152
 31
0.0
  0
LINE
  8
0
 62
     0
 10
8.51489
 20
2.84152
 30
0.0
 11
8.51489
 21
2.68718
 31
0.0
  0
LINE
  8
0
 62
     0
 10
8.51489
 20
2.68718
 30
0.0
 11
8.51902
 21
2.57831
 31
0.0
  0
LINE
  8
0
 62
     0
 10
8.51902
 20
2.57831
 30
0.0
 11
8.56174
 21
2.16352
 31
0.0
  0
LINE
  8
0
 62
     0
 10
8.56174
 20
2.16352
 30
0.0
 11
8.64856
 21
1.83279
 31
0.0
  0
LINE
  8
0
 62
     0
 10
8.64856
 20
1.83279
 30
0.0
 11
8.67473
 21
1.76664
 31
0.0
  0
LINE
  8
0
 62
     0
 10
8.67473
 20
1.76664
 30
0.0
 11
8.71333
 21
1.67569
 31
0.0
  0
LINE
  8
0
 62
     0
 10
8.71333
 20
1.67569
 30
0.0
 11
9.01238
 21
1.305
 31
0.0
  0
LINE
  8
0
 62
     0
 10
9.01238
 20
1.305
 30
0.0
 11
9.44231
 21
1.09003
 31
0.0
  0
LINE
  8
0
 62
     0
 10
9.44231
 20
1.09003
 30
0.0
 11
9.54567
 21
1.07763
 31
0.0
  0
LINE
  8
0
 62
     0
 10
9.54567
 20
1.07763
 30
0.0
 11
9.62836
 21
1.07763
 31
0.0
  0
LINE
  8
0
 62
     0
 10
9.62836
 20
1.07763
 30
0.0
 11
9.76753
 21
1.07763
 31
0.0
  0
LINE
  8
0
 62
     0
 10
9.76753
 20
1.07763
 30
0.0
 11
10.1892
 21
1.23886
 31
0.0
  0
LINE
  8
0
 62
     0
 10
10.1892
 20
1.23886
 30
0.0
 11
10.5806
 21
1.54892
 31
0.0
  0
LINE
  8
0
 62
     0
 10
10.5806
 20
1.54892
 30
0.0
 11
10.6426
 21
1.62333
 31
0.0
  0
LINE
  8
0
 62
     0
 10
10.6426
 20
1.62333
 30
0.0
 11
10.6784
 21
1.66329
 31
0.0
  0
LINE
  8
0
 62
     0
 10
10.6784
 20
1.66329
 30
0.0
 11
10.9775
 21
2.05603
 31
0.0
  0
LINE
  8
0
 62
     0
 10
10.9775
 20
2.05603
 30
0.0
 11
11.3192
 21
2.54386
 31
0.0
  0
LINE
  8
0
 62
     0
 10
11.3192
 20
2.54386
 30
0.0
 11
11.3757
 21
2.63205
 31
0.0
  0
LINE
  8
0
 62
     0
 10
11.3757
 20
2.63205
 30
0.0
 11
11.5741
 21
2.94624
 31
0.0
  0
LINE
  8
0
 62
     0
 10
11.5741
 20
2.94624
 30
0.0
 11
11.6072
 21
2.77537
 31
0.0
  0
LINE
  8
0
 62
     0
 10
11.6072
 20
2.77537
 30
0.0
 11
11.6182
 21
2.69131
 31
0.0
  0
LINE
  8
0
 62
     0
 10
11.6182
 20
2.69131
 30
0.0
 11
11.9145
 21
2.04777
 31
0.0
  0
LINE
  8
0
 62
     0
 10
11.9145
 20
2.04777
 30
0.0
 11
11.96
 21
1.99264
 31
0.0
  0
LINE
  8
0
 62
     0
 10
11.96
 20
1.99264
 30
0.0
 11
12.0151
 21
1.9265
 31
0.0
  0
LINE
  8
0
 62
     0
 10
12.0151
 20
1.9265
 30
0.0
 11
12.565
 21
1.62333
 31
0.0
  0
LINE
  8
0
 62
     0
 10
12.565
 20
1.62333
 30
0.0
 11
12.7482
 21
1.62333
 31
0.0
  0
LINE
  8
0
 62
     0
 10
12.7482
 20
1.62333
 30
0.0
 11
12.8185
 21
1.62333
 31
0.0
  0
LINE
  8
0
 62
     0
 10
12.8185
 20
1.62333
 30
0.0
 11
13.0046
 21
1.64538
 31
0.0
  0
LINE
  8
0
 62
     0
 10
13.0046
 20
1.64538
 30
0.0
 11
13.0294
 21
1.65089
 31
0.0
  0
LINE
  8
0
 62
     0
 10
13.0294
 20
1.65089
 30
0.0
 11
13.1079
 21
1.67018
 31
0.0
  0
LINE
  8
0
 62
     0
 10
13.1079
 20
1.67018
 30
0.0
 11
13.7969
 21
2.08359
 31
0.0
  0
LINE
  8
0
 62
     0
 10
13.7969
 20
2.08359
 30
0.0
 11
13.8562
 21
2.13596
 31
0.0
  0
LINE
  8
0
 62
     0
 10
13.8562
 20
2.13596
 30
0.0
 11
13.9278
 21
2.19797
 31
0.0
  0
LINE
  8
0
 62
     0
 10
13.9278
 20
2.19797
 30
0.0
 11
14.5645
 21
2.90904
 31
0.0
  0
LINE
  8
0
 62
     0
 10
14.5645
 20
2.90904
 30
0.0
 11
14.6224
 21
2.98483
 31
0.0
  0
LINE
  8
0
 62
     0
 10
14.6224
 20
2.98483
 30
0.0
 11
14.7243
 21
3.1185
 31
0.0
  0
LINE
  8
0
 62
     0
 10
14.7243
 20
3.1185
 30
0.0
 11
15.1474
 21
3.70004
 31
0.0
  0
LINE
  8
0
 62
     0
 10
15.1474
 20
3.70004
 30
0.0
 11
15.3665
 21
3.95774
 31
0.0
  0
LINE
  8
0
 62
     0
 10
15.3665
 20
3.95774
 30
0.0
 11
15.3665
 21
4.04315
 31
0.0
  0
LINE
  8
0
 62
     0
 10
15.3665
 20
4.04315
 30
0.0
 11
15.3638
 21
4.05007
 31
0.0
  0
LINE
  8
0
 62
     0
 10
15.3638
 20
4.05007
 30
0.0
 11
15.2122
 21
4.12034
 31
0.0
  0
LINE
  8
0
 62
     0
 10
15.2122
 20
4.12034
 30
0.0
 11
15.1626
 21
4.12034
 31
0.0
  0
LINE
  8
0
 62
     0
 10
15.1626
 20
4.12034
 30
0.0
 11
15.1364
 21
4.12034
 31
0.0
  0
LINE
  8
0
 62
     0
 10
15.1364
 20
4.12034
 30
0.0
 11
15.0606
 21
4.0211
 31
0.0
  0
LINE
  8
0
 62
     0
 10
15.0606
 20
4.0211
 30
0.0
 11
14.8553
 21
3.75652
 31
0.0
  0
LINE
  8
0
 62
     0
 10
14.8553
 20
3.75652
 30
0.0
 11
14.7932
 21
3.67386
 31
0.0
  0
LINE
  8
0
 62
     0
 10
14.7932
 20
3.67386
 30
0.0
 11
14.6747
 21
3.514
 31
0.0
  0
LINE
  8
0
 62
     0
 10
14.6747
 20
3.514
 30
0.0
 11
14.3054
 21
3.03857
 31
0.0
  0
LINE
  8
0
 62
     0
 10
14.3054
 20
3.03857
 30
0.0
 11
13.9072
 21
2.58244
 31
0.0
  0
LINE
  8
0
 62
     0
 10
13.9072
 20
2.58244
 30
0.0
 11
13.5571
 21
2.26136
 31
0.0
  0
LINE
  8
0
 62
     0
 10
13.5571
 20
2.26136
 30
0.0
 11
13.3049
 21
2.08221
 31
0.0
  0
LINE
  8
0
 62
     0
 10
13.3049
 20
2.08221
 30
0.0
 11
13.2167
 21
2.03123
 31
0.0
  0
LINE
  8
0
 62
     0
 10
13.2167
 20
2.03123
 30
0.0
 11
13.1644
 21
2.00229
 31
0.0
  0
LINE
  8
0
 62
     0
 10
13.1644
 20
2.00229
 30
0.0
 11
12.7441
 21
1.84933
 31
0.0
  0
LINE
  8
0
 62
     0
 10
12.7441
 20
1.84933
 30
0.0
 11
12.6049
 21
1.84933
 31
0.0
  0
LINE
  8
0
 62
     0
 10
12.6049
 20
1.84933
 30
0.0
 11
12.5622
 21
1.84933
 31
0.0
  0
LINE
  8
0
 62
     0
 10
12.5622
 20
1.84933
 30
0.0
 11
12.4437
 21
1.87275
 31
0.0
  0
LINE
  8
0
 62
     0
 10
12.4437
 20
1.87275
 30
0.0
 11
12.434
 21
1.87689
 31
0.0
  0
LINE
  8
0
 62
     0
 10
12.434
 20
1.87689
 30
0.0
 11
12.4106
 21
1.88929
 31
0.0
  0
LINE
  8
0
 62
     0
 10
12.4106
 20
1.88929
 30
0.0
 11
12.2742
 21
2.0519
 31
0.0
  0
LINE
  8
0
 62
     0
 10
12.2742
 20
2.0519
 30
0.0
 11
12.1598
 21
2.27514
 31
0.0
  0
LINE
  8
0
 62
     0
 10
12.1598
 20
2.27514
 30
0.0
 11
12.1474
 21
2.31786
 31
0.0
  0
LINE
  8
0
 62
     0
 10
12.1474
 20
2.31786
 30
0.0
 11
12.1364
 21
2.34818
 31
0.0
  0
LINE
  8
0
 62
     0
 10
12.1364
 20
2.34818
 30
0.0
 11
12.0813
 21
2.7106
 31
0.0
  0
LINE
  8
0
 62
     0
 10
12.0813
 20
2.7106
 30
0.0
 11
12.0813
 21
2.83049
 31
0.0
  0
LINE
  8
0
 62
     0
 10
12.0813
 20
2.83049
 30
0.0
 11
12.0813
 21
2.91042
 31
0.0
  0
LINE
  8
0
 62
     0
 10
12.0813
 20
2.91042
 30
0.0
 11
12.1006
 21
3.12263
 31
0.0
  0
LINE
  8
0
 62
     0
 10
12.1006
 20
3.12263
 30
0.0
 11
12.1033
 21
3.1502
 31
0.0
  0
LINE
  8
0
 62
     0
 10
12.1033
 20
3.1502
 30
0.0
 11
12.1074
 21
3.20256
 31
0.0
  0
LINE
  8
0
 62
     0
 10
12.1074
 20
3.20256
 30
0.0
 11
12.1681
 21
3.59117
 31
0.0
  0
LINE
  8
0
 62
     0
 10
12.1681
 20
3.59117
 30
0.0
 11
12.2384
 21
3.93153
 31
0.0
  0
LINE
  8
0
 62
     0
 10
12.2384
 20
3.93153
 30
0.0
 11
12.2466
 21
3.96049
 31
0.0
  0
LINE
  8
0
 62
     0
 10
12.3513
 20
4.35183
 30
0.0
 11
12.4106
 21
4.55164
 31
0.0
  0
LINE
  8
0
 62
     0
 10
12.4106
 20
4.55164
 30
0.0
 11
12.66
 21
5.30546
 31
0.0
  0
LINE
  8
0
 62
     0
 10
12.66
 20
5.30546
 30
0.0
 11
12.9357
 21
5.949
 31
0.0
  0
LINE
  8
0
 62
     0
 10
12.9357
 20
5.949
 30
0.0
 11
13.0073
 21
6.09367
 31
0.0
  0
LINE
  8
0
 62
     0
 10
13.0073
 20
6.09367
 30
0.0
 11
13.101
 21
6.28248
 31
0.0
  0
LINE
  8
0
 62
     0
 10
13.101
 20
6.28248
 30
0.0
 11
13.6343
 21
7.2402
 31
0.0
  0
LINE
  8
0
 62
     0
 10
13.6343
 20
7.2402
 30
0.0
 11
14.1731
 21
8.06566
 31
0.0
  0
LINE
  8
0
 62
     0
 10
14.1731
 20
8.06566
 30
0.0
 11
14.2696
 21
8.18829
 31
0.0
  0
LINE
  8
0
 62
     0
 10
14.2696
 20
8.18829
 30
0.0
 11
14.322
 21
8.25168
 31
0.0
  0
LINE
  8
0
 62
     0
 10
14.322
 20
8.25168
 30
0.0
 11
14.6182
 21
8.56865
 31
0.0
  0
LINE
  8
0
 62
     0
 10
14.6182
 20
8.56865
 30
0.0
 11
14.9021
 21
8.81532
 31
0.0
  0
LINE
  8
0
 62
     0
 10
14.9021
 20
8.81532
 30
0.0
 11
14.9476
 21
8.84424
 31
0.0
  0
LINE
  8
0
 62
     0
 10
14.9476
 20
8.84424
 30
0.0
 11
14.9917
 21
8.87596
 31
0.0
  0
LINE
  8
0
 62
     0
 10
14.9917
 20
8.87596
 30
0.0
 11
15.3307
 21
9.03718
 31
0.0
  0
LINE
  8
0
 62
     0
 10
15.3307
 20
9.03718
 30
0.0
 11
15.4437
 21
9.03718
 31
0.0
  0
LINE
  8
0
 62
     0
 10
15.4437
 20
9.03718
 30
0.0
 11
15.4892
 21
9.03718
 31
0.0
  0
LINE
  8
0
 62
     0
 10
15.4892
 20
9.03718
 30
0.0
 11
15.6132
 21
8.99721
 31
0.0
  0
LINE
  8
0
 62
     0
 10
15.6132
 20
8.99721
 30
0.0
 11
15.6256
 21
8.98758
 31
0.0
  0
LINE
  8
0
 62
     0
 10
15.6256
 20
8.98758
 30
0.0
 11
15.6559
 21
8.96828
 31
0.0
  0
LINE
  8
0
 62
     0
 10
15.6559
 20
8.96828
 30
0.0
 11
15.7593
 21
8.76293
 31
0.0
  0
LINE
  8
0
 62
     0
 10
15.7593
 20
8.76293
 30
0.0
 11
15.802
 21
8.49009
 31
0.0
  0
LINE
  8
0
 62
     0
 10
15.802
 20
8.49009
 30
0.0
 11
15.802
 21
8.39777
 31
0.0
  0
LINE
  8
0
 62
     0
 10
15.802
 20
8.39777
 30
0.0
 11
15.802
 21
8.3275
 31
0.0
  0
LINE
  8
0
 62
     0
 10
15.802
 20
8.3275
 30
0.0
 11
15.7882
 21
8.14144
 31
0.0
  0
LINE
  8
0
 62
     0
 10
15.7882
 20
8.14144
 30
0.0
 11
15.7854
 21
8.11664
 31
0.0
  0
LINE
  8
0
 62
     0
 10
15.7854
 20
8.11664
 30
0.0
 11
15.762
 21
7.9816
 31
0.0
  0
LINE
  8
0
 62
     0
 10
15.762
 20
7.9816
 30
0.0
 11
15.3913
 21
7.16305
 31
0.0
  0
LINE
  8
0
 62
     0
 10
15.3913
 20
7.16305
 30
0.0
 11
14.7009
 21
6.19704
 31
0.0
  0
LINE
  8
0
 62
     0
 10
14.7009
 20
6.19704
 30
0.0
 11
14.5176
 21
5.98897
 31
0.0
  0
LINE
  8
0
 62
     0
 10
14.5176
 20
5.98897
 30
0.0
 11
14.3853
 21
5.83875
 31
0.0
  0
LINE
  8
0
 62
     0
 10
14.3853
 20
5.83875
 30
0.0
 11
13.6164
 21
5.13457
 31
0.0
  0
LINE
  8
0
 62
     0
 10
13.6164
 20
5.13457
 30
0.0
 11
12.7703
 21
4.54064
 31
0.0
  0
LINE
  8
0
 62
     0
 10
12.7703
 20
4.54064
 30
0.0
 11
12.5994
 21
4.44556
 31
0.0
  0
LINE
  8
0
 62
     0
 10
12.5994
 20
4.44556
 30
0.0
 11
12.5677
 21
4.42627
 31
0.0
  0
LINE
  8
0
 62
     0
 10
12.5677
 20
4.42627
 30
0.0
 11
12.4051
 21
4.31327
 31
0.0
  0
LINE
  8
0
 62
     0
 10
12.4051
 20
4.31327
 30
0.0
 11
12.3513
 21
4.31327
 31
0.0
  0
LINE
  8
0
 62
     0
 10
12.3513
 20
4.31327
 30
0.0
 11
12.3403
 21
4.31878
 31
0.0
  0
LINE
  8
0
 62
     0
 10
12.3403
 20
4.31878
 30
0.0
 11
12.3403
 21
4.32703
 31
0.0
  0
LINE
  8
0
 62
     0
 10
12.3403
 20
4.32703
 30
0.0
 11
12.3513
 21
4.34633
 31
0.0
  0
LINE
  8
0
 62
     0
 10
12.3513
 20
4.34633
 30
0.0
 11
12.3513
 21
4.35183
 31
0.0
  0
LINE
  8
0
 62
     0
 10
9.95355
 20
6.06062
 30
0.0
 11
10.068
 21
6.35138
 31
0.0
  0
LINE
  8
0
 62
     0
 10
10.068
 20
6.35138
 30
0.0
 11
10.6577
 21
7.60402
 31
0.0
  0
LINE
  8
0
 62
     0
 10
10.6577
 20
7.60402
 30
0.0
 11
11.3013
 21
8.64718
 31
0.0
  0
LINE
  8
0
 62
     0
 10
11.3013
 20
8.64718
 30
0.0
 11
11.4419
 21
8.83324
 31
0.0
  0
LINE
  8
0
 62
     0
 10
11.4419
 20
8.83324
 30
0.0
 11
11.559
 21
8.98895
 31
0.0
  0
LINE
  8
0
 62
     0
 10
11.559
 20
8.98895
 30
0.0
 11
12.2163
 21
9.68484
 31
0.0
  0
LINE
  8
0
 62
     0
 10
12.2163
 20
9.68484
 30
0.0
 11
12.7386
 21
10.068
 31
0.0
  0
LINE
  8
0
 62
     0
 10
12.7386
 20
10.068
 30
0.0
 11
12.9136
 21
10.068
 31
0.0
  0
LINE
  8
0
 62
     0
 10
12.9136
 20
10.068
 30
0.0
 11
12.9398
 21
10.068
 31
0.0
  0
LINE
  8
0
 62
     0
 10
12.9398
 20
10.068
 30
0.0
 11
13.0114
 21
10.0487
 31
0.0
  0
LINE
  8
0
 62
     0
 10
13.0114
 20
10.0487
 30
0.0
 11
13.0183
 21
10.0459
 31
0.0
  0
LINE
  8
0
 62
     0
 10
13.0183
 20
10.0459
 30
0.0
 11
13.0542
 21
10.0294
 31
0.0
  0
LINE
  8
0
 62
     0
 10
13.0542
 20
10.0294
 30
0.0
 11
13.1837
 21
9.80613
 31
0.0
  0
LINE
  8
0
 62
     0
 10
13.1837
 20
9.80613
 30
0.0
 11
13.2512
 21
9.45748
 31
0.0
  0
LINE
  8
0
 62
     0
 10
13.2512
 20
9.45748
 30
0.0
 11
13.2553
 21
9.37891
 31
0.0
  0
LINE
  8
0
 62
     0
 10
13.2553
 20
9.37891
 30
0.0
 11
13.2553
 21
9.31277
 31
0.0
  0
LINE
  8
0
 62
     0
 10
13.2553
 20
9.31277
 30
0.0
 11
13.2553
 21
9.17497
 31
0.0
  0
LINE
  8
0
 62
     0
 10
13.2553
 20
9.17497
 30
0.0
 11
13.1864
 21
8.76018
 31
0.0
  0
LINE
  8
0
 62
     0
 10
13.1864
 20
8.76018
 30
0.0
 11
13.0004
 21
8.25168
 31
0.0
  0
LINE
  8
0
 62
     0
 10
13.0004
 20
8.25168
 30
0.0
 11
12.9412
 21
8.12768
 31
0.0
  0
LINE
  8
0
 62
     0
 10
12.9412
 20
8.12768
 30
0.0
 11
12.8791
 21
8.00365
 31
0.0
  0
LINE
  8
0
 62
     0
 10
12.8791
 20
8.00365
 30
0.0
 11
11.971
 21
6.76204
 31
0.0
  0
LINE
  8
0
 62
     0
 10
11.971
 20
6.76204
 30
0.0
 11
11.8442
 21
6.62838
 31
0.0
  0
LINE
  8
0
 62
     0
 10
11.8442
 20
6.62838
 30
0.0
 11
11.6982
 21
6.47816
 31
0.0
  0
LINE
  8
0
 62
     0
 10
11.6982
 20
6.47816
 30
0.0
 11
10.9582
 21
5.87597
 31
0.0
  0
LINE
  8
0
 62
     0
 10
10.9582
 20
5.87597
 30
0.0
 11
10.1396
 21
5.42396
 31
0.0
  0
LINE
  8
0
 62
     0
 10
10.1396
 20
5.42396
 30
0.0
 11
9.95355
 21
5.34956
 31
0.0
  0
LINE
  8
0
 62
     0
 10
9.95355
 20
5.34956
 30
0.0
 11
9.91362
 21
5.33301
 31
0.0
  0
LINE
  8
0
 62
     0
 10
9.91362
 20
5.33301
 30
0.0
 11
9.71518
 21
5.23931
 31
0.0
  0
LINE
  8
0
 62
     0
 10
9.71518
 20
5.23931
 30
0.0
 11
9.65041
 21
5.23931
 31
0.0
  0
LINE
  8
0
 62
     0
 10
9.65041
 20
5.23931
 30
0.0
 11
9.65041
 21
5.31096
 31
0.0
  0
LINE
  8
0
 62
     0
 10
9.65041
 20
5.31096
 30
0.0
 11
9.74411
 21
5.52457
 31
0.0
  0
LINE
  8
0
 62
     0
 10
9.74411
 20
5.52457
 30
0.0
 11
9.915
 21
5.96967
 31
0.0
  0
LINE
  8
0
 62
     0
 10
9.915
 20
5.96967
 30
0.0
 11
9.95355
 21
6.06062
 31
0.0
  0
LINE
  8
0
 62
     0
 10
15.095
 20
2.01469
 30
0.0
 11
15.1405
 21
1.95406
 31
0.0
  0
LINE
  8
0
 62
     0
 10
15.1405
 20
1.95406
 30
0.0
 11
15.6641
 21
1.6564
 31
0.0
  0
LINE
  8
0
 62
     0
 10
15.6641
 20
1.6564
 30
0.0
 11
15.8392
 21
1.6564
 31
0.0
  0
LINE
  8
0
 62
     0
 10
15.8392
 20
1.6564
 30
0.0
 11
15.9659
 21
1.6564
 31
0.0
  0
LINE
  8
0
 62
     0
 10
15.9659
 20
1.6564
 30
0.0
 11
16.3105
 21
1.77216
 31
0.0
  0
LINE
  8
0
 62
     0
 10
16.3105
 20
1.77216
 30
0.0
 11
16.3463
 21
1.79421
 31
0.0
  0
LINE
  8
0
 62
     0
 10
16.3463
 20
1.79421
 30
0.0
 11
16.451
 21
1.8507
 31
0.0
  0
LINE
  8
0
 62
     0
 10
16.451
 20
1.8507
 30
0.0
 11
16.9912
 21
2.33715
 31
0.0
  0
LINE
  8
0
 62
     0
 10
16.9912
 20
2.33715
 30
0.0
 11
17.5245
 21
3.05098
 31
0.0
  0
LINE
  8
0
 62
     0
 10
17.5245
 20
3.05098
 30
0.0
 11
17.6251
 21
3.22185
 31
0.0
  0
LINE
  8
0
 62
     0
 10
17.6251
 20
3.22185
 30
0.0
 11
17.7464
 21
3.4258
 31
0.0
  0
LINE
  8
0
 62
     0
 10
17.7464
 20
3.4258
 30
0.0
 11
17.8511
 21
3.41478
 31
0.0
  0
LINE
  8
0
 62
     0
 10
17.8511
 20
3.41478
 30
0.0
 11
17.9007
 21
3.41478
 31
0.0
  0
LINE
  8
0
 62
     0
 10
17.9007
 20
3.41478
 30
0.0
 11
18.0647
 21
3.41478
 31
0.0
  0
LINE
  8
0
 62
     0
 10
18.0647
 20
3.41478
 30
0.0
 11
18.4947
 21
3.53466
 31
0.0
  0
LINE
  8
0
 62
     0
 10
18.4947
 20
3.53466
 30
0.0
 11
18.5567
 21
3.55808
 31
0.0
  0
LINE
  8
0
 62
     0
 10
18.5567
 20
3.55808
 30
0.0
 11
18.7413
 21
3.62701
 31
0.0
  0
LINE
  8
0
 62
     0
 10
18.7413
 20
3.62701
 30
0.0
 11
19.327
 21
3.86676
 31
0.0
  0
LINE
  8
0
 62
     0
 10
19.327
 20
3.86676
 30
0.0
 11
19.5433
 21
3.98667
 31
0.0
  0
LINE
  8
0
 62
     0
 10
19.5433
 20
3.98667
 30
0.0
 11
19.5433
 21
4.02664
 31
0.0
  0
LINE
  8
0
 62
     0
 10
19.5433
 20
4.02664
 30
0.0
 11
19.5406
 21
4.03077
 31
0.0
  0
LINE
  8
0
 62
     0
 10
19.5406
 20
4.03077
 30
0.0
 11
19.4496
 21
4.09554
 31
0.0
  0
LINE
  8
0
 62
     0
 10
19.4496
 20
4.09554
 30
0.0
 11
19.4386
 21
4.10379
 31
0.0
  0
LINE
  8
0
 62
     0
 10
19.4386
 20
4.10379
 30
0.0
 11
19.4262
 21
4.10792
 31
0.0
  0
LINE
  8
0
 62
     0
 10
19.4262
 20
4.10792
 30
0.0
 11
19.3477
 21
4.14239
 31
0.0
  0
LINE
  8
0
 62
     0
 10
19.3477
 20
4.14239
 30
0.0
 11
19.3228
 21
4.14239
 31
0.0
  0
LINE
  8
0
 62
     0
 10
19.3228
 20
4.14239
 30
0.0
 11
19.3105
 21
4.14239
 31
0.0
  0
LINE
  8
0
 62
     0
 10
19.3105
 20
4.14239
 30
0.0
 11
19.2787
 21
4.12309
 31
0.0
  0
LINE
  8
0
 62
     0
 10
19.2787
 20
4.12309
 30
0.0
 11
19.2732
 21
4.12034
 31
0.0
  0
LINE
  8
0
 62
     0
 10
19.2732
 20
4.12034
 30
0.0
 11
19.2664
 21
4.11759
 31
0.0
  0
LINE
  8
0
 62
     0
 10
19.2664
 20
4.11759
 30
0.0
 11
19.0858
 21
4.04594
 31
0.0
  0
LINE
  8
0
 62
     0
 10
19.0858
 20
4.04594
 30
0.0
 11
19.0638
 21
4.03765
 31
0.0
  0
LINE
  8
0
 62
     0
 10
19.0638
 20
4.03765
 30
0.0
 11
19.0045
 21
4.0101
 31
0.0
  0
LINE
  8
0
 62
     0
 10
19.0045
 20
4.0101
 30
0.0
 11
18.4699
 21
3.81166
 31
0.0
  0
LINE
  8
0
 62
     0
 10
18.4699
 20
3.81166
 30
0.0
 11
17.9958
 21
3.65732
 31
0.0
  0
LINE
  8
0
 62
     0
 10
17.9958
 20
3.65732
 30
0.0
 11
17.9669
 21
3.65181
 31
0.0
  0
LINE
  8
0
 62
     0
 10
17.9669
 20
3.65181
 30
0.0
 11
17.8621
 21
3.64628
 31
0.0
  0
LINE
  8
0
 62
     0
 10
17.8621
 20
3.64628
 30
0.0
 11
17.9834
 21
3.93845
 31
0.0
  0
LINE
  8
0
 62
     0
 10
17.9834
 20
3.93845
 30
0.0
 11
18.022
 21
4.04177
 31
0.0
  0
LINE
  8
0
 62
     0
 10
18.022
 20
4.04177
 30
0.0
 11
18.2149
 21
4.74595
 31
0.0
  0
LINE
  8
0
 62
     0
 10
18.2149
 20
4.74595
 30
0.0
 11
18.2149
 21
4.98023
 31
0.0
  0
LINE
  8
0
 62
     0
 10
18.2149
 20
4.98023
 30
0.0
 11
18.2149
 21
5.10427
 31
0.0
  0
LINE
  8
0
 62
     0
 10
18.2149
 20
5.10427
 30
0.0
 11
18.1501
 21
5.43775
 31
0.0
  0
LINE
  8
0
 62
     0
 10
18.1501
 20
5.43775
 30
0.0
 11
18.1378
 21
5.47631
 31
0.0
  0
LINE
  8
0
 62
     0
 10
18.1378
 20
5.47631
 30
0.0
 11
18.1185
 21
5.53558
 31
0.0
  0
LINE
  8
0
 62
     0
 10
18.1185
 20
5.53558
 30
0.0
 11
17.723
 21
6.01239
 31
0.0
  0
LINE
  8
0
 62
     0
 10
17.723
 20
6.01239
 30
0.0
 11
17.6637
 21
6.03857
 31
0.0
  0
LINE
  8
0
 62
     0
 10
17.6637
 20
6.03857
 30
0.0
 11
17.632
 21
6.05236
 31
0.0
  0
LINE
  8
0
 62
     0
 10
17.632
 20
6.05236
 30
0.0
 11
17.3619
 21
6.12676
 31
0.0
  0
LINE
  8
0
 62
     0
 10
17.3619
 20
6.12676
 30
0.0
 11
17.2723
 21
6.12676
 31
0.0
  0
LINE
  8
0
 62
     0
 10
17.2723
 20
6.12676
 30
0.0
 11
17.169
 21
6.12676
 31
0.0
  0
LINE
  8
0
 62
     0
 10
17.169
 20
6.12676
 30
0.0
 11
16.8906
 21
6.04407
 31
0.0
  0
LINE
  8
0
 62
     0
 10
16.8906
 20
6.04407
 30
0.0
 11
16.8589
 21
6.02753
 31
0.0
  0
LINE
  8
0
 62
     0
 10
16.8589
 20
6.02753
 30
0.0
 11
16.8093
 21
6.00135
 31
0.0
  0
LINE
  8
0
 62
     0
 10
16.8093
 20
6.00135
 30
0.0
 11
16.4124
 21
5.59897
 31
0.0
  0
LINE
  8
0
 62
     0
 10
16.4124
 20
5.59897
 30
0.0
 11
16.3904
 21
5.5535
 31
0.0
  0
LINE
  8
0
 62
     0
 10
16.3904
 20
5.5535
 30
0.0
 11
16.3766
 21
5.52457
 31
0.0
  0
LINE
  8
0
 62
     0
 10
16.3766
 20
5.52457
 30
0.0
 11
16.254
 21
5.41433
 31
0.0
  0
LINE
  8
0
 62
     0
 10
16.254
 20
5.41433
 30
0.0
 11
16.2305
 21
5.41016
 31
0.0
  0
LINE
  8
0
 62
     0
 10
16.2305
 20
5.41016
 30
0.0
 11
16.1451
 21
5.38812
 31
0.0
  0
LINE
  8
0
 62
     0
 10
16.1451
 20
5.38812
 30
0.0
 11
15.7772
 21
5.17317
 31
0.0
  0
LINE
  8
0
 62
     0
 10
15.7772
 20
5.17317
 30
0.0
 11
15.485
 21
4.86586
 31
0.0
  0
LINE
  8
0
 62
     0
 10
15.485
 20
4.86586
 30
0.0
 11
15.4368
 21
4.79834
 31
0.0
  0
LINE
  8
0
 62
     0
 10
15.4368
 20
4.79834
 30
0.0
 11
15.3748
 21
4.71015
 31
0.0
  0
LINE
  8
0
 62
     0
 10
15.3748
 20
4.71015
 30
0.0
 11
14.9476
 21
3.71521
 31
0.0
  0
LINE
  8
0
 62
     0
 10
14.9476
 20
3.71521
 30
0.0
 11
14.9242
 21
3.60772
 31
0.0
  0
LINE
  8
0
 62
     0
 10
14.9242
 20
3.60772
 30
0.0
 11
14.9145
 21
3.55671
 31
0.0
  0
LINE
  8
0
 62
     0
 10
14.9145
 20
3.55671
 30
0.0
 11
14.858
 21
3.12815
 31
0.0
  0
LINE
  8
0
 62
     0
 10
14.858
 20
3.12815
 30
0.0
 11
14.858
 21
2.98483
 31
0.0
  0
LINE
  8
0
 62
     0
 10
14.858
 20
2.98483
 30
0.0
 11
14.858
 21
2.91317
 31
0.0
  0
LINE
  8
0
 62
     0
 10
14.858
 20
2.91317
 30
0.0
 11
14.8718
 21
2.72162
 31
0.0
  0
LINE
  8
0
 62
     0
 10
14.8718
 20
2.72162
 30
0.0
 11
14.8746
 21
2.6982
 31
0.0
  0
LINE
  8
0
 62
     0
 10
14.8746
 20
2.6982
 30
0.0
 11
14.8801
 21
2.63894
 31
0.0
  0
LINE
  8
0
 62
     0
 10
14.8801
 20
2.63894
 30
0.0
 11
15.0537
 21
2.0643
 31
0.0
  0
LINE
  8
0
 62
     0
 10
15.0537
 20
2.0643
 30
0.0
 11
15.095
 21
2.01469
 31
0.0
  0
LINE
  8
0
 62
     0
 10
16.7542
 20
5.17867
 30
0.0
 11
16.8052
 21
5.17867
 31
0.0
  0
LINE
  8
0
 62
     0
 10
16.8052
 20
5.17867
 30
0.0
 11
16.9402
 21
4.98711
 31
0.0
  0
LINE
  8
0
 62
     0
 10
16.9402
 20
4.98711
 30
0.0
 11
16.9581
 21
4.95819
 31
0.0
  0
LINE
  8
0
 62
     0
 10
16.9581
 20
4.95819
 30
0.0
 11
16.9816
 21
4.91546
 31
0.0
  0
LINE
  8
0
 62
     0
 10
16.9816
 20
4.91546
 30
0.0
 11
17.1414
 21
4.43177
 31
0.0
  0
LINE
  8
0
 62
     0
 10
17.1414
 20
4.43177
 30
0.0
 11
17.1456
 21
4.39593
 31
0.0
  0
LINE
  8
0
 62
     0
 10
17.1456
 20
4.39593
 30
0.0
 11
17.1483
 21
4.36563
 31
0.0
  0
LINE
  8
0
 62
     0
 10
17.1483
 20
4.36563
 30
0.0
 11
17.2268
 21
4.24575
 31
0.0
  0
LINE
  8
0
 62
     0
 10
17.2268
 20
4.24575
 30
0.0
 11
17.2503
 21
4.23609
 31
0.0
  0
LINE
  8
0
 62
     0
 10
17.2503
 20
4.23609
 30
0.0
 11
17.2627
 21
4.23058
 31
0.0
  0
LINE
  8
0
 62
     0
 10
17.2627
 20
4.23058
 30
0.0
 11
17.3192
 21
4.20853
 31
0.0
  0
LINE
  8
0
 62
     0
 10
17.3192
 20
4.20853
 30
0.0
 11
17.3385
 21
4.20853
 31
0.0
  0
LINE
  8
0
 62
     0
 10
17.3385
 20
4.20853
 30
0.0
 11
17.3481
 21
4.20853
 31
0.0
  0
LINE
  8
0
 62
     0
 10
17.3481
 20
4.20853
 30
0.0
 11
17.3743
 21
4.23058
 31
0.0
  0
LINE
  8
0
 62
     0
 10
17.3743
 20
4.23058
 30
0.0
 11
17.3771
 21
4.23609
 31
0.0
  0
LINE
  8
0
 62
     0
 10
17.3771
 20
4.23609
 30
0.0
 11
17.3784
 21
4.24021
 31
0.0
  0
LINE
  8
0
 62
     0
 10
17.3784
 20
4.24021
 30
0.0
 11
17.3936
 21
4.31602
 31
0.0
  0
LINE
  8
0
 62
     0
 10
17.3936
 20
4.31602
 30
0.0
 11
17.3936
 21
4.34082
 31
0.0
  0
LINE
  8
0
 62
     0
 10
17.3936
 20
4.34082
 30
0.0
 11
17.3936
 21
4.46899
 31
0.0
  0
LINE
  8
0
 62
     0
 10
17.3936
 20
4.46899
 30
0.0
 11
17.2944
 21
4.81623
 31
0.0
  0
LINE
  8
0
 62
     0
 10
17.2944
 20
4.81623
 30
0.0
 11
17.2779
 21
4.85345
 31
0.0
  0
LINE
  8
0
 62
     0
 10
17.2779
 20
4.85345
 30
0.0
 11
17.2503
 21
4.92097
 31
0.0
  0
LINE
  8
0
 62
     0
 10
17.2503
 20
4.92097
 30
0.0
 11
17.107
 21
5.1525
 31
0.0
  0
LINE
  8
0
 62
     0
 10
17.107
 20
5.1525
 30
0.0
 11
16.9195
 21
5.28616
 31
0.0
  0
LINE
  8
0
 62
     0
 10
16.9195
 20
5.28616
 30
0.0
 11
16.8699
 21
5.30546
 31
0.0
  0
LINE
  8
0
 62
     0
 10
16.8699
 20
5.30546
 30
0.0
 11
16.7928
 21
5.34402
 31
0.0
  0
LINE
  8
0
 62
     0
 10
16.7928
 20
5.34402
 30
0.0
 11
16.8203
 21
5.41016
 31
0.0
  0
LINE
  8
0
 62
     0
 10
16.8203
 20
5.41016
 30
0.0
 11
16.8258
 21
5.41983
 31
0.0
  0
LINE
  8
0
 62
     0
 10
16.8258
 20
5.41983
 30
0.0
 11
16.9664
 21
5.6086
 31
0.0
  0
LINE
  8
0
 62
     0
 10
16.9664
 20
5.6086
 30
0.0
 11
16.9857
 21
5.63065
 31
0.0
  0
LINE
  8
0
 62
     0
 10
16.9857
 20
5.63065
 30
0.0
 11
17.0119
 21
5.66099
 31
0.0
  0
LINE
  8
0
 62
     0
 10
17.0119
 20
5.66099
 30
0.0
 11
17.2737
 21
5.85805
 31
0.0
  0
LINE
  8
0
 62
     0
 10
17.2737
 20
5.85805
 30
0.0
 11
17.2999
 21
5.86768
 31
0.0
  0
LINE
  8
0
 62
     0
 10
17.2999
 20
5.86768
 30
0.0
 11
17.3137
 21
5.87181
 31
0.0
  0
LINE
  8
0
 62
     0
 10
17.3137
 20
5.87181
 30
0.0
 11
17.4184
 21
5.89523
 31
0.0
  0
LINE
  8
0
 62
     0
 10
17.4184
 20
5.89523
 30
0.0
 11
17.4542
 21
5.89523
 31
0.0
  0
LINE
  8
0
 62
     0
 10
17.4542
 20
5.89523
 30
0.0
 11
17.5011
 21
5.89523
 31
0.0
  0
LINE
  8
0
 62
     0
 10
17.5011
 20
5.89523
 30
0.0
 11
17.632
 21
5.83875
 31
0.0
  0
LINE
  8
0
 62
     0
 10
17.632
 20
5.83875
 30
0.0
 11
17.6416
 21
5.82909
 31
0.0
  0
LINE
  8
0
 62
     0
 10
17.6416
 20
5.82909
 30
0.0
 11
17.6706
 21
5.80566
 31
0.0
  0
LINE
  8
0
 62
     0
 10
17.6706
 20
5.80566
 30
0.0
 11
17.847
 21
5.38674
 31
0.0
  0
LINE
  8
0
 62
     0
 10
17.847
 20
5.38674
 30
0.0
 11
17.8511
 21
5.34402
 31
0.0
  0
LINE
  8
0
 62
     0
 10
17.8511
 20
5.34402
 30
0.0
 11
17.8539
 21
5.32197
 31
0.0
  0
LINE
  8
0
 62
     0
 10
17.8539
 20
5.32197
 30
0.0
 11
17.8732
 21
5.14421
 31
0.0
  0
LINE
  8
0
 62
     0
 10
17.8732
 20
5.14421
 30
0.0
 11
17.8732
 21
5.08497
 31
0.0
  0
LINE
  8
0
 62
     0
 10
17.8732
 20
5.08497
 30
0.0
 11
17.8732
 21
4.93201
 31
0.0
  0
LINE
  8
0
 62
     0
 10
17.8732
 20
4.93201
 30
0.0
 11
17.7919
 21
4.52822
 31
0.0
  0
LINE
  8
0
 62
     0
 10
17.7919
 20
4.52822
 30
0.0
 11
17.7739
 21
4.47312
 31
0.0
  0
LINE
  8
0
 62
     0
 10
17.7739
 20
4.47312
 30
0.0
 11
17.7602
 21
4.42352
 31
0.0
  0
LINE
  8
0
 62
     0
 10
17.7602
 20
4.42352
 30
0.0
 11
17.6499
 21
4.09967
 31
0.0
  0
LINE
  8
0
 62
     0
 10
17.6499
 20
4.09967
 30
0.0
 11
17.5286
 21
3.8034
 31
0.0
  0
LINE
  8
0
 62
     0
 10
17.5286
 20
3.8034
 30
0.0
 11
17.5093
 21
3.76756
 31
0.0
  0
LINE
  8
0
 62
     0
 10
17.5093
 20
3.76756
 30
0.0
 11
17.5025
 21
3.75514
 31
0.0
  0
LINE
  8
0
 62
     0
 10
17.5025
 20
3.75514
 30
0.0
 11
17.4487
 21
3.67386
 31
0.0
  0
LINE
  8
0
 62
     0
 10
17.4487
 20
3.67386
 30
0.0
 11
17.4322
 21
3.67386
 31
0.0
  0
LINE
  8
0
 62
     0
 10
17.4322
 20
3.67386
 30
0.0
 11
17.3936
 21
3.68762
 31
0.0
  0
LINE
  8
0
 62
     0
 10
17.3936
 20
3.68762
 30
0.0
 11
16.9636
 21
3.9963
 31
0.0
  0
LINE
  8
0
 62
     0
 10
16.9636
 20
3.9963
 30
0.0
 11
16.9251
 21
4.04315
 31
0.0
  0
LINE
  8
0
 62
     0
 10
16.9251
 20
4.04315
 30
0.0
 11
16.892
 21
4.08587
 31
0.0
  0
LINE
  8
0
 62
     0
 10
16.892
 20
4.08587
 30
0.0
 11
16.717
 21
4.55994
 31
0.0
  0
LINE
  8
0
 62
     0
 10
16.717
 20
4.55994
 30
0.0
 11
16.7101
 21
4.62746
 31
0.0
  0
LINE
  8
0
 62
     0
 10
16.7101
 20
4.62746
 30
0.0
 11
16.7073
 21
4.64675
 31
0.0
  0
LINE
  8
0
 62
     0
 10
16.7073
 20
4.64675
 30
0.0
 11
16.6991
 21
4.80247
 31
0.0
  0
LINE
  8
0
 62
     0
 10
16.6991
 20
4.80247
 30
0.0
 11
16.6991
 21
4.85345
 31
0.0
  0
LINE
  8
0
 62
     0
 10
16.6991
 20
4.85345
 30
0.0
 11
16.6991
 21
4.93476
 31
0.0
  0
LINE
  8
0
 62
     0
 10
16.6991
 20
4.93476
 30
0.0
 11
16.7363
 21
5.17454
 31
0.0
  0
LINE
  8
0
 62
     0
 10
16.7363
 20
5.17454
 30
0.0
 11
16.7432
 21
5.17867
 31
0.0
  0
LINE
  8
0
 62
     0
 10
16.7432
 20
5.17867
 30
0.0
 11
16.7542
 21
5.17867
 31
0.0
  0
LINE
  8
0
 62
     0
 10
15.8502
 20
4.23609
 30
0.0
 11
15.8833
 21
4.30773
 31
0.0
  0
LINE
  8
0
 62
     0
 10
15.8833
 20
4.30773
 30
0.0
 11
16.0845
 21
4.6688
 31
0.0
  0
LINE
  8
0
 62
     0
 10
16.0845
 20
4.6688
 30
0.0
 11
16.2223
 21
4.88654
 31
0.0
  0
LINE
  8
0
 62
     0
 10
16.2223
 20
4.88654
 30
0.0
 11
16.2691
 21
4.88654
 31
0.0
  0
LINE
  8
0
 62
     0
 10
16.2691
 20
4.88654
 30
0.0
 11
16.2691
 21
4.88654
 31
0.0
  0
LINE
  8
0
 62
     0
 10
16.2691
 20
4.88654
 30
0.0
 11
16.2801
 21
4.86999
 31
0.0
  0
LINE
  8
0
 62
     0
 10
16.2801
 20
4.86999
 30
0.0
 11
16.2801
 21
4.86449
 31
0.0
  0
LINE
  8
0
 62
     0
 10
16.2801
 20
4.86449
 30
0.0
 11
16.2815
 21
4.82589
 31
0.0
  0
LINE
  8
0
 62
     0
 10
16.2815
 20
4.82589
 30
0.0
 11
16.3973
 21
4.38492
 31
0.0
  0
LINE
  8
0
 62
     0
 10
16.3973
 20
4.38492
 30
0.0
 11
16.4124
 21
4.35183
 31
0.0
  0
LINE
  8
0
 62
     0
 10
16.4124
 20
4.35183
 30
0.0
 11
16.429
 21
4.31602
 31
0.0
  0
LINE
  8
0
 62
     0
 10
16.429
 20
4.31602
 30
0.0
 11
16.7418
 21
3.8916
 31
0.0
  0
LINE
  8
0
 62
     0
 10
16.7418
 20
3.8916
 30
0.0
 11
16.7817
 21
3.85576
 31
0.0
  0
LINE
  8
0
 62
     0
 10
16.7817
 20
3.85576
 30
0.0
 11
16.8079
 21
3.83371
 31
0.0
  0
LINE
  8
0
 62
     0
 10
16.8079
 20
3.83371
 30
0.0
 11
17.304
 21
3.54157
 31
0.0
  0
LINE
  8
0
 62
     0
 10
17.304
 20
3.54157
 30
0.0
 11
17.3661
 21
3.51951
 31
0.0
  0
LINE
  8
0
 62
     0
 10
17.3661
 20
3.51951
 30
0.0
 11
17.3661
 21
3.45474
 31
0.0
  0
LINE
  8
0
 62
     0
 10
17.3661
 20
3.45474
 30
0.0
 11
17.2062
 21
3.26044
 31
0.0
  0
LINE
  8
0
 62
     0
 10
17.2062
 20
3.26044
 30
0.0
 11
16.9623
 21
2.91593
 31
0.0
  0
LINE
  8
0
 62
     0
 10
16.9623
 20
2.91593
 30
0.0
 11
16.9195
 21
2.86356
 31
0.0
  0
LINE
  8
0
 62
     0
 10
16.9195
 20
2.86356
 30
0.0
 11
16.8713
 21
2.80293
 31
0.0
  0
LINE
  8
0
 62
     0
 10
16.8713
 20
2.80293
 30
0.0
 11
16.3932
 21
2.27101
 31
0.0
  0
LINE
  8
0
 62
     0
 10
16.3932
 20
2.27101
 30
0.0
 11
16.3463
 21
2.22966
 31
0.0
  0
LINE
  8
0
 62
     0
 10
16.3463
 20
2.22966
 30
0.0
 11
16.3118
 21
2.20624
 31
0.0
  0
LINE
  8
0
 62
     0
 10
16.3118
 20
2.20624
 30
0.0
 11
16.0817
 21
2.03812
 31
0.0
  0
LINE
  8
0
 62
     0
 10
16.0817
 20
2.03812
 30
0.0
 11
15.8502
 21
1.91547
 31
0.0
  0
LINE
  8
0
 62
     0
 10
15.8502
 20
1.91547
 30
0.0
 11
15.773
 21
1.91547
 31
0.0
  0
LINE
  8
0
 62
     0
 10
15.773
 20
1.91547
 30
0.0
 11
15.751
 21
1.91547
 31
0.0
  0
LINE
  8
0
 62
     0
 10
15.751
 20
1.91547
 30
0.0
 11
15.6917
 21
1.93477
 31
0.0
  0
LINE
  8
0
 62
     0
 10
15.6917
 20
1.93477
 30
0.0
 11
15.6848
 21
1.93752
 31
0.0
  0
LINE
  8
0
 62
     0
 10
15.6848
 20
1.93752
 30
0.0
 11
15.649
 21
1.94855
 31
0.0
  0
LINE
  8
0
 62
     0
 10
15.649
 20
1.94855
 30
0.0
 11
15.5374
 21
2.17317
 31
0.0
  0
LINE
  8
0
 62
     0
 10
15.5374
 20
2.17317
 30
0.0
 11
15.4974
 21
2.51768
 31
0.0
  0
LINE
  8
0
 62
     0
 10
15.4974
 20
2.51768
 30
0.0
 11
15.4974
 21
2.63205
 31
0.0
  0
LINE
  8
0
 62
     0
 10
15.4974
 20
2.63205
 30
0.0
 11
15.4974
 21
2.82498
 31
0.0
  0
LINE
  8
0
 62
     0
 10
15.4974
 20
2.82498
 30
0.0
 11
15.5581
 21
3.35139
 31
0.0
  0
LINE
  8
0
 62
     0
 10
15.5581
 20
3.35139
 30
0.0
 11
15.5691
 21
3.40376
 31
0.0
  0
LINE
  8
0
 62
     0
 10
15.5691
 20
3.40376
 30
0.0
 11
15.587
 21
3.47817
 31
0.0
  0
LINE
  8
0
 62
     0
 10
15.587
 20
3.47817
 30
0.0
 11
15.8213
 21
4.17682
 31
0.0
  0
LINE
  8
0
 62
     0
 10
15.8213
 20
4.17682
 30
0.0
 11
15.8502
 21
4.23609
 31
0.0
  0
LINE
  8
0
 62
     0
 10
22.0927
 20
2.40054
 30
0.0
 11
22.1216
 21
2.38676
 31
0.0
  0
LINE
  8
0
 62
     0
 10
22.1216
 20
2.38676
 30
0.0
 11
22.3725
 21
2.30684
 31
0.0
  0
LINE
  8
0
 62
     0
 10
22.3725
 20
2.30684
 30
0.0
 11
22.4565
 21
2.30684
 31
0.0
  0
LINE
  8
0
 62
     0
 10
22.4565
 20
2.30684
 30
0.0
 11
22.5516
 21
2.30684
 31
0.0
  0
LINE
  8
0
 62
     0
 10
22.5516
 20
2.30684
 30
0.0
 11
22.8107
 21
2.41157
 31
0.0
  0
LINE
  8
0
 62
     0
 10
22.8107
 20
2.41157
 30
0.0
 11
22.8369
 21
2.43362
 31
0.0
  0
LINE
  8
0
 62
     0
 10
22.8369
 20
2.43362
 30
0.0
 11
22.8892
 21
2.46944
 31
0.0
  0
LINE
  8
0
 62
     0
 10
22.8892
 20
2.46944
 30
0.0
 11
23.2103
 21
2.78364
 31
0.0
  0
LINE
  8
0
 62
     0
 10
23.2103
 20
2.78364
 30
0.0
 11
23.519
 21
3.16398
 31
0.0
  0
LINE
  8
0
 62
     0
 10
23.519
 20
3.16398
 30
0.0
 11
23.5645
 21
3.23288
 31
0.0
  0
LINE
  8
0
 62
     0
 10
23.5645
 20
3.23288
 30
0.0
 11
23.5686
 21
3.24253
 31
0.0
  0
LINE
  8
0
 62
     0
 10
23.5686
 20
3.24253
 30
0.0
 11
23.5934
 21
3.29351
 31
0.0
  0
LINE
  8
0
 62
     0
 10
23.5934
 20
3.29351
 30
0.0
 11
23.6031
 21
3.29351
 31
0.0
  0
LINE
  8
0
 62
     0
 10
23.6031
 20
3.29351
 30
0.0
 11
23.6031
 21
3.28249
 31
0.0
  0
LINE
  8
0
 62
     0
 10
23.6031
 20
3.28249
 30
0.0
 11
23.6031
 21
3.25768
 31
0.0
  0
LINE
  8
0
 62
     0
 10
23.6031
 20
3.25768
 30
0.0
 11
23.5865
 21
3.19567
 31
0.0
  0
LINE
  8
0
 62
     0
 10
23.5865
 20
3.19567
 30
0.0
 11
23.581
 21
3.18327
 31
0.0
  0
LINE
  8
0
 62
     0
 10
23.581
 20
3.18327
 30
0.0
 11
23.57
 21
3.14744
 31
0.0
  0
LINE
  8
0
 62
     0
 10
23.57
 20
3.14744
 30
0.0
 11
23.4859
 21
2.82636
 31
0.0
  0
LINE
  8
0
 62
     0
 10
23.4859
 20
2.82636
 30
0.0
 11
23.4074
 21
2.4846
 31
0.0
  0
LINE
  8
0
 62
     0
 10
23.4074
 20
2.4846
 30
0.0
 11
23.3991
 21
2.43913
 31
0.0
  0
LINE
  8
0
 62
     0
 10
23.3991
 20
2.43913
 30
0.0
 11
23.3977
 21
2.4157
 31
0.0
  0
LINE
  8
0
 62
     0
 10
23.3977
 20
2.4157
 30
0.0
 11
23.3826
 21
2.14836
 31
0.0
  0
LINE
  8
0
 62
     0
 10
23.3826
 20
2.14836
 30
0.0
 11
23.3826
 21
2.05879
 31
0.0
  0
LINE
  8
0
 62
     0
 10
23.3826
 20
2.05879
 30
0.0
 11
23.3826
 21
1.94717
 31
0.0
  0
LINE
  8
0
 62
     0
 10
23.3826
 20
1.94717
 30
0.0
 11
23.406
 21
1.63849
 31
0.0
  0
LINE
  8
0
 62
     0
 10
23.406
 20
1.63849
 30
0.0
 11
23.4101
 21
1.6123
 31
0.0
  0
LINE
  8
0
 62
     0
 10
23.4101
 20
1.6123
 30
0.0
 11
23.4198
 21
1.56683
 31
0.0
  0
LINE
  8
0
 62
     0
 10
23.4198
 20
1.56683
 30
0.0
 11
23.5989
 21
1.14239
 31
0.0
  0
LINE
  8
0
 62
     0
 10
23.5989
 20
1.14239
 30
0.0
 11
23.6196
 21
1.11621
 31
0.0
  0
LINE
  8
0
 62
     0
 10
23.6196
 20
1.11621
 30
0.0
 11
23.6582
 21
1.07074
 31
0.0
  0
LINE
  8
0
 62
     0
 10
23.6582
 20
1.07074
 30
0.0
 11
24.1088
 21
0.857141
 31
0.0
  0
LINE
  8
0
 62
     0
 10
24.1088
 20
0.857141
 30
0.0
 11
24.259
 21
0.857141
 31
0.0
  0
LINE
  8
0
 62
     0
 10
24.259
 20
0.857141
 30
0.0
 11
24.3362
 21
0.857141
 31
0.0
  0
LINE
  8
0
 62
     0
 10
24.3362
 20
0.857141
 30
0.0
 11
24.3913
 21
0.859896
 31
0.0
  0
LINE
  8
0
 62
     0
 10
24.3913
 20
0.859896
 30
0.0
 11
24.8805
 21
1.04593
 31
0.0
  0
LINE
  8
0
 62
     0
 10
24.8805
 20
1.04593
 30
0.0
 11
24.926
 21
1.07763
 31
0.0
  0
LINE
  8
0
 62
     0
 10
24.926
 20
1.07763
 30
0.0
 11
25.0265
 21
1.14653
 31
0.0
  0
LINE
  8
0
 62
     0
 10
25.0265
 20
1.14653
 30
0.0
 11
25.8768
 21
2.02985
 31
0.0
  0
LINE
  8
0
 62
     0
 10
25.8768
 20
2.02985
 30
0.0
 11
25.9512
 21
2.12494
 31
0.0
  0
LINE
  8
0
 62
     0
 10
25.9512
 20
2.12494
 30
0.0
 11
26.0367
 21
2.23793
 31
0.0
  0
LINE
  8
0
 62
     0
 10
26.0367
 20
2.23793
 30
0.0
 11
26.8222
 21
3.42305
 31
0.0
  0
LINE
  8
0
 62
     0
 10
26.8222
 20
3.42305
 30
0.0
 11
26.8938
 21
3.54707
 31
0.0
  0
LINE
  8
0
 62
     0
 10
26.8938
 20
3.54707
 30
0.0
 11
26.9159
 21
3.58292
 31
0.0
  0
LINE
  8
0
 62
     0
 10
26.9159
 20
3.58292
 30
0.0
 11
27.0412
 21
3.78135
 31
0.0
  0
LINE
  8
0
 62
     0
 10
27.0412
 20
3.78135
 30
0.0
 11
27.0481
 21
3.78961
 31
0.0
  0
LINE
  8
0
 62
     0
 10
27.0481
 20
3.78961
 30
0.0
 11
27.0839
 21
3.77994
 31
0.0
  0
LINE
  8
0
 62
     0
 10
27.0839
 20
3.77994
 30
0.0
 11
27.4202
 21
3.72897
 31
0.0
  0
LINE
  8
0
 62
     0
 10
27.4202
 20
3.72897
 30
0.0
 11
27.5332
 21
3.72897
 31
0.0
  0
LINE
  8
0
 62
     0
 10
27.5332
 20
3.72897
 30
0.0
 11
27.6049
 21
3.72897
 31
0.0
  0
LINE
  8
0
 62
     0
 10
27.6049
 20
3.72897
 30
0.0
 11
27.7964
 21
3.74826
 31
0.0
  0
LINE
  8
0
 62
     0
 10
27.7964
 20
3.74826
 30
0.0
 11
27.8198
 21
3.75102
 31
0.0
  0
LINE
  8
0
 62
     0
 10
27.8198
 20
3.75102
 30
0.0
 11
27.9039
 21
3.76206
 31
0.0
  0
LINE
  8
0
 62
     0
 10
27.9039
 20
3.76206
 30
0.0
 11
28.5998
 21
3.93016
 31
0.0
  0
LINE
  8
0
 62
     0
 10
28.5998
 20
3.93016
 30
0.0
 11
28.6411
 21
3.94945
 31
0.0
  0
LINE
  8
0
 62
     0
 10
28.6411
 20
3.94945
 30
0.0
 11
28.6646
 21
3.96187
 31
0.0
  0
LINE
  8
0
 62
     0
 10
28.6646
 20
3.96187
 30
0.0
 11
28.7569
 21
4.0404
 31
0.0
  0
LINE
  8
0
 62
     0
 10
28.7569
 20
4.0404
 30
0.0
 11
28.7569
 21
4.0652
 31
0.0
  0
LINE
  8
0
 62
     0
 10
28.7569
 20
4.0652
 30
0.0
 11
28.7569
 21
4.0845
 31
0.0
  0
LINE
  8
0
 62
     0
 10
28.7569
 20
4.0845
 30
0.0
 11
28.6797
 21
4.13688
 31
0.0
  0
LINE
  8
0
 62
     0
 10
28.6797
 20
4.13688
 30
0.0
 11
28.6577
 21
4.14239
 31
0.0
  0
LINE
  8
0
 62
     0
 10
28.6577
 20
4.14239
 30
0.0
 11
28.6508
 21
4.14376
 31
0.0
  0
LINE
  8
0
 62
     0
 10
28.6508
 20
4.14376
 30
0.0
 11
28.597
 21
4.14789
 31
0.0
  0
LINE
  8
0
 62
     0
 10
28.597
 20
4.14789
 30
0.0
 11
28.5805
 21
4.14789
 31
0.0
  0
LINE
  8
0
 62
     0
 10
28.5805
 20
4.14789
 30
0.0
 11
28.5571
 21
4.14789
 31
0.0
  0
LINE
  8
0
 62
     0
 10
28.5571
 20
4.14789
 30
0.0
 11
28.4937
 21
4.12584
 31
0.0
  0
LINE
  8
0
 62
     0
 10
28.4937
 20
4.12584
 30
0.0
 11
28.4868
 21
4.12034
 31
0.0
  0
LINE
  8
0
 62
     0
 10
28.4868
 20
4.12034
 30
0.0
 11
28.4303
 21
4.09141
 31
0.0
  0
LINE
  8
0
 62
     0
 10
28.4303
 20
4.09141
 30
0.0
 11
28.0128
 21
3.97288
 31
0.0
  0
LINE
  8
0
 62
     0
 10
28.0128
 20
3.97288
 30
0.0
 11
27.5869
 21
3.91086
 31
0.0
  0
LINE
  8
0
 62
     0
 10
27.5869
 20
3.91086
 30
0.0
 11
27.445
 21
3.91086
 31
0.0
  0
LINE
  8
0
 62
     0
 10
27.445
 20
3.91086
 30
0.0
 11
27.3692
 21
3.91086
 31
0.0
  0
LINE
  8
0
 62
     0
 10
27.3692
 20
3.91086
 30
0.0
 11
27.1543
 21
3.95496
 31
0.0
  0
LINE
  8
0
 62
     0
 10
27.1543
 20
3.95496
 30
0.0
 11
27.1418
 21
3.96049
 31
0.0
  0
LINE
  8
0
 62
     0
 10
27.1418
 20
3.96049
 30
0.0
 11
27.1487
 21
3.9715
 31
0.0
  0
LINE
  8
0
 62
     0
 10
27.1487
 20
3.9715
 30
0.0
 11
27.197
 21
4.06107
 31
0.0
  0
LINE
  8
0
 62
     0
 10
27.197
 20
4.06107
 30
0.0
 11
27.3003
 21
4.25538
 31
0.0
  0
LINE
  8
0
 62
     0
 10
27.3003
 20
4.25538
 30
0.0
 11
27.3348
 21
4.31878
 31
0.0
  0
LINE
  8
0
 62
     0
 10
27.3348
 20
4.31878
 30
0.0
 11
27.3982
 21
4.44281
 31
0.0
  0
LINE
  8
0
 62
     0
 10
27.3982
 20
4.44281
 30
0.0
 11
27.7261
 21
5.15112
 31
0.0
  0
LINE
  8
0
 62
     0
 10
27.7261
 20
5.15112
 30
0.0
 11
27.9879
 21
5.80016
 31
0.0
  0
LINE
  8
0
 62
     0
 10
27.9879
 20
5.80016
 30
0.0
 11
28.0183
 21
5.89523
 31
0.0
  0
LINE
  8
0
 62
     0
 10
28.0183
 20
5.89523
 30
0.0
 11
28.0527
 21
5.99585
 31
0.0
  0
LINE
  8
0
 62
     0
 10
28.0527
 20
5.99585
 30
0.0
 11
28.2236
 21
6.83507
 31
0.0
  0
LINE
  8
0
 62
     0
 10
28.2236
 20
6.83507
 30
0.0
 11
28.2277
 21
6.91501
 31
0.0
  0
LINE
  8
0
 62
     0
 10
28.2277
 20
6.91501
 30
0.0
 11
28.2277
 21
6.99216
 31
0.0
  0
LINE
  8
0
 62
     0
 10
28.2277
 20
6.99216
 30
0.0
 11
28.2277
 21
7.11482
 31
0.0
  0
LINE
  8
0
 62
     0
 10
28.2277
 20
7.11482
 30
0.0
 11
28.101
 21
7.4483
 31
0.0
  0
LINE
  8
0
 62
     0
 10
28.101
 20
7.4483
 30
0.0
 11
28.0679
 21
7.48273
 31
0.0
  0
LINE
  8
0
 62
     0
 10
28.0679
 20
7.48273
 30
0.0
 11
28.0417
 21
7.50895
 31
0.0
  0
LINE
  8
0
 62
     0
 10
28.0417
 20
7.50895
 30
0.0
 11
27.7881
 21
7.63157
 31
0.0
  0
LINE
  8
0
 62
     0
 10
27.7881
 20
7.63157
 30
0.0
 11
27.7041
 21
7.63157
 31
0.0
  0
LINE
  8
0
 62
     0
 10
27.7041
 20
7.63157
 30
0.0
 11
27.609
 21
7.63157
 31
0.0
  0
LINE
  8
0
 62
     0
 10
27.609
 20
7.63157
 30
0.0
 11
27.3527
 21
7.542
 31
0.0
  0
LINE
  8
0
 62
     0
 10
27.3527
 20
7.542
 30
0.0
 11
27.3237
 21
7.52683
 31
0.0
  0
LINE
  8
0
 62
     0
 10
27.3237
 20
7.52683
 30
0.0
 11
27.2094
 21
7.47035
 31
0.0
  0
LINE
  8
0
 62
     0
 10
27.2094
 20
7.47035
 30
0.0
 11
26.654
 21
6.8144
 31
0.0
  0
LINE
  8
0
 62
     0
 10
26.654
 20
6.8144
 30
0.0
 11
26.2461
 21
5.87319
 31
0.0
  0
LINE
  8
0
 62
     0
 10
26.2461
 20
5.87319
 30
0.0
 11
26.2048
 21
5.67475
 31
0.0
  0
LINE
  8
0
 62
     0
 10
26.2048
 20
5.67475
 30
0.0
 11
26.1979
 21
5.64169
 31
0.0
  0
LINE
  8
0
 62
     0
 10
26.1979
 20
5.64169
 30
0.0
 11
26.1607
 21
5.29442
 31
0.0
  0
LINE
  8
0
 62
     0
 10
26.1607
 20
5.29442
 30
0.0
 11
26.1607
 21
5.17867
 31
0.0
  0
LINE
  8
0
 62
     0
 10
26.1607
 20
5.17867
 30
0.0
 11
26.1607
 21
5.06705
 31
0.0
  0
LINE
  8
0
 62
     0
 10
26.1607
 20
5.06705
 30
0.0
 11
26.1979
 21
4.76525
 31
0.0
  0
LINE
  8
0
 62
     0
 10
26.1979
 20
4.76525
 30
0.0
 11
26.2048
 21
4.7322
 31
0.0
  0
LINE
  8
0
 62
     0
 10
26.2048
 20
4.7322
 30
0.0
 11
26.2241
 21
4.65638
 31
0.0
  0
LINE
  8
0
 62
     0
 10
26.2241
 20
4.65638
 30
0.0
 11
26.6471
 21
4.00597
 31
0.0
  0
LINE
  8
0
 62
     0
 10
26.6471
 20
4.00597
 30
0.0
 11
26.7119
 21
3.96049
 31
0.0
  0
LINE
  8
0
 62
     0
 10
26.7119
 20
3.96049
 30
0.0
 11
26.7891
 21
3.89985
 31
0.0
  0
LINE
  8
0
 62
     0
 10
26.7891
 20
3.89985
 30
0.0
 11
26.6072
 21
3.60772
 31
0.0
  0
LINE
  8
0
 62
     0
 10
26.6072
 20
3.60772
 30
0.0
 11
26.4666
 21
3.3693
 31
0.0
  0
LINE
  8
0
 62
     0
 10
26.4666
 20
3.3693
 30
0.0
 11
26.0049
 21
2.67477
 31
0.0
  0
LINE
  8
0
 62
     0
 10
26.0049
 20
2.67477
 30
0.0
 11
25.4165
 21
1.92512
 31
0.0
  0
LINE
  8
0
 62
     0
 10
25.4165
 20
1.92512
 30
0.0
 11
24.864
 21
1.39044
 31
0.0
  0
LINE
  8
0
 62
     0
 10
24.864
 20
1.39044
 30
0.0
 11
24.5056
 21
1.14239
 31
0.0
  0
LINE
  8
0
 62
     0
 10
24.5056
 20
1.14239
 30
0.0
 11
24.3748
 21
1.09416
 31
0.0
  0
LINE
  8
0
 62
     0
 10
24.3748
 20
1.09416
 30
0.0
 11
24.3623
 21
1.09003
 31
0.0
  0
LINE
  8
0
 62
     0
 10
24.3623
 20
1.09003
 30
0.0
 11
24.2631
 21
1.0666
 31
0.0
  0
LINE
  8
0
 62
     0
 10
24.2631
 20
1.0666
 30
0.0
 11
24.2314
 21
1.0666
 31
0.0
  0
LINE
  8
0
 62
     0
 10
24.2314
 20
1.0666
 30
0.0
 11
24.2121
 21
1.0666
 31
0.0
  0
LINE
  8
0
 62
     0
 10
24.2121
 20
1.0666
 30
0.0
 11
24.1611
 21
1.07487
 31
0.0
  0
LINE
  8
0
 62
     0
 10
24.1611
 20
1.07487
 30
0.0
 11
24.1543
 21
1.07763
 31
0.0
  0
LINE
  8
0
 62
     0
 10
24.1543
 20
1.07763
 30
0.0
 11
24.1336
 21
1.08176
 31
0.0
  0
LINE
  8
0
 62
     0
 10
24.1336
 20
1.08176
 30
0.0
 11
24.0054
 21
1.24299
 31
0.0
  0
LINE
  8
0
 62
     0
 10
24.0054
 20
1.24299
 30
0.0
 11
23.9999
 21
1.25953
 31
0.0
  0
LINE
  8
0
 62
     0
 10
23.9999
 20
1.25953
 30
0.0
 11
23.9889
 21
1.2926
 31
0.0
  0
LINE
  8
0
 62
     0
 10
23.9889
 20
1.2926
 30
0.0
 11
23.9338
 21
1.57372
 31
0.0
  0
LINE
  8
0
 62
     0
 10
23.9338
 20
1.57372
 30
0.0
 11
23.9338
 21
1.66743
 31
0.0
  0
LINE
  8
0
 62
     0
 10
23.9338
 20
1.66743
 30
0.0
 11
23.9338
 21
1.94166
 31
0.0
  0
LINE
  8
0
 62
     0
 10
23.9338
 20
1.94166
 30
0.0
 11
24.1543
 21
2.68166
 31
0.0
  0
LINE
  8
0
 62
     0
 10
24.1543
 20
2.68166
 30
0.0
 11
24.1818
 21
2.76435
 31
0.0
  0
LINE
  8
0
 62
     0
 10
24.1818
 20
2.76435
 30
0.0
 11
24.2176
 21
2.86494
 31
0.0
  0
LINE
  8
0
 62
     0
 10
24.2176
 20
2.86494
 30
0.0
 11
24.6324
 21
3.86263
 31
0.0
  0
LINE
  8
0
 62
     0
 10
24.6324
 20
3.86263
 30
0.0
 11
24.6779
 21
3.96049
 31
0.0
  0
LINE
  8
0
 62
     0
 10
24.6779
 20
3.96049
 30
0.0
 11
24.7661
 21
4.14789
 31
0.0
  0
LINE
  8
0
 62
     0
 10
24.7661
 20
4.14789
 30
0.0
 11
25.0472
 21
4.80797
 31
0.0
  0
LINE
  8
0
 62
     0
 10
25.0472
 20
4.80797
 30
0.0
 11
25.163
 21
5.20898
 31
0.0
  0
LINE
  8
0
 62
     0
 10
25.163
 20
5.20898
 30
0.0
 11
25.1685
 21
5.26687
 31
0.0
  0
LINE
  8
0
 62
     0
 10
25.1685
 20
5.26687
 30
0.0
 11
25.1685
 21
5.29029
 31
0.0
  0
LINE
  8
0
 62
     0
 10
25.1685
 20
5.29029
 30
0.0
 11
25.174
 21
5.34402
 31
0.0
  0
LINE
  8
0
 62
     0
 10
25.174
 20
5.34402
 30
0.0
 11
25.174
 21
5.36056
 31
0.0
  0
LINE
  8
0
 62
     0
 10
25.174
 20
5.36056
 30
0.0
 11
25.174
 21
5.37986
 31
0.0
  0
LINE
  8
0
 62
     0
 10
25.174
 20
5.37986
 30
0.0
 11
25.1368
 21
5.43359
 31
0.0
  0
LINE
  8
0
 62
     0
 10
25.1368
 20
5.43359
 30
0.0
 11
25.1299
 21
5.43775
 31
0.0
  0
LINE
  8
0
 62
     0
 10
25.1299
 20
5.43775
 30
0.0
 11
25.1134
 21
5.45013
 31
0.0
  0
LINE
  8
0
 62
     0
 10
25.1134
 20
5.45013
 30
0.0
 11
24.8157
 21
5.53145
 31
0.0
  0
LINE
  8
0
 62
     0
 10
24.8157
 20
5.53145
 30
0.0
 11
24.7165
 21
5.53145
 31
0.0
  0
LINE
  8
0
 62
     0
 10
24.7165
 20
5.53145
 30
0.0
 11
24.7055
 21
5.53145
 31
0.0
  0
LINE
  8
0
 62
     0
 10
24.7055
 20
5.53145
 30
0.0
 11
24.6738
 21
5.52732
 31
0.0
  0
LINE
  8
0
 62
     0
 10
24.6738
 20
5.52732
 30
0.0
 11
24.6724
 21
5.52595
 31
0.0
  0
LINE
  8
0
 62
     0
 10
24.6724
 20
5.52595
 30
0.0
 11
24.6669
 21
5.52319
 31
0.0
  0
LINE
  8
0
 62
     0
 10
24.6669
 20
5.52319
 30
0.0
 11
24.5153
 21
5.28891
 31
0.0
  0
LINE
  8
0
 62
     0
 10
24.5153
 20
5.28891
 30
0.0
 11
24.496
 21
5.25582
 31
0.0
  0
LINE
  8
0
 62
     0
 10
24.496
 20
5.25582
 30
0.0
 11
24.4533
 21
5.1773
 31
0.0
  0
LINE
  8
0
 62
     0
 10
24.4533
 20
5.1773
 30
0.0
 11
24.2659
 21
4.86999
 31
0.0
  0
LINE
  8
0
 62
     0
 10
24.2659
 20
4.86999
 30
0.0
 11
23.9103
 21
4.29948
 31
0.0
  0
LINE
  8
0
 62
     0
 10
23.9103
 20
4.29948
 30
0.0
 11
23.5383
 21
3.72622
 31
0.0
  0
LINE
  8
0
 62
     0
 10
23.5383
 20
3.72622
 30
0.0
 11
23.3288
 21
3.41064
 31
0.0
  0
LINE
  8
0
 62
     0
 10
23.3288
 20
3.41064
 30
0.0
 11
23.2668
 21
3.32659
 31
0.0
  0
LINE
  8
0
 62
     0
 10
23.2668
 20
3.32659
 30
0.0
 11
23.2406
 21
3.29076
 31
0.0
  0
LINE
  8
0
 62
     0
 10
23.2406
 20
3.29076
 30
0.0
 11
22.9126
 21
2.91455
 31
0.0
  0
LINE
  8
0
 62
     0
 10
22.9126
 20
2.91455
 30
0.0
 11
22.8865
 21
2.89112
 31
0.0
  0
LINE
  8
0
 62
     0
 10
22.8865
 20
2.89112
 30
0.0
 11
22.841
 21
2.84289
 31
0.0
  0
LINE
  8
0
 62
     0
 10
22.841
 20
2.84289
 30
0.0
 11
22.5433
 21
2.53835
 31
0.0
  0
LINE
  8
0
 62
     0
 10
22.5433
 20
2.53835
 30
0.0
 11
22.4455
 21
2.53835
 31
0.0
  0
LINE
  8
0
 62
     0
 10
22.4455
 20
2.53835
 30
0.0
 11
22.4359
 21
2.53835
 31
0.0
  0
LINE
  8
0
 62
     0
 10
22.4359
 20
2.53835
 30
0.0
 11
22.4138
 21
2.54386
 31
0.0
  0
LINE
  8
0
 62
     0
 10
22.4138
 20
2.54386
 30
0.0
 11
22.4069
 21
2.54386
 31
0.0
  0
LINE
  8
0
 62
     0
 10
22.4069
 20
2.54386
 30
0.0
 11
22.3904
 21
2.54937
 31
0.0
  0
LINE
  8
0
 62
     0
 10
22.3904
 20
2.54937
 30
0.0
 11
22.3132
 21
2.68166
 31
0.0
  0
LINE
  8
0
 62
     0
 10
22.3132
 20
2.68166
 30
0.0
 11
22.3132
 21
2.72576
 31
0.0
  0
LINE
  8
0
 62
     0
 10
22.3132
 20
2.72576
 30
0.0
 11
22.3132
 21
2.87596
 31
0.0
  0
LINE
  8
0
 62
     0
 10
22.3132
 20
2.87596
 30
0.0
 11
22.4648
 21
3.32245
 31
0.0
  0
LINE
  8
0
 62
     0
 10
22.4648
 20
3.32245
 30
0.0
 11
22.7266
 21
3.97563
 31
0.0
  0
LINE
  8
0
 62
     0
 10
22.7266
 20
3.97563
 30
0.0
 11
22.7817
 21
4.1093
 31
0.0
  0
LINE
  8
0
 62
     0
 10
22.7817
 20
4.1093
 30
0.0
 11
22.8603
 21
4.30085
 31
0.0
  0
LINE
  8
0
 62
     0
 10
22.8603
 20
4.30085
 30
0.0
 11
23.1331
 21
5.00228
 31
0.0
  0
LINE
  8
0
 62
     0
 10
23.1331
 20
5.00228
 30
0.0
 11
23.2503
 21
5.33714
 31
0.0
  0
LINE
  8
0
 62
     0
 10
23.2503
 20
5.33714
 30
0.0
 11
23.2503
 21
5.44876
 31
0.0
  0
LINE
  8
0
 62
     0
 10
23.2503
 20
5.44876
 30
0.0
 11
23.2503
 21
5.46943
 31
0.0
  0
LINE
  8
0
 62
     0
 10
23.2503
 20
5.46943
 30
0.0
 11
23.2227
 21
5.52732
 31
0.0
  0
LINE
  8
0
 62
     0
 10
23.2227
 20
5.52732
 30
0.0
 11
23.2172
 21
5.53145
 31
0.0
  0
LINE
  8
0
 62
     0
 10
23.2172
 20
5.53145
 30
0.0
 11
23.2006
 21
5.5535
 31
0.0
  0
LINE
  8
0
 62
     0
 10
23.2006
 20
5.5535
 30
0.0
 11
22.9278
 21
5.63619
 31
0.0
  0
LINE
  8
0
 62
     0
 10
22.9278
 20
5.63619
 30
0.0
 11
22.8369
 21
5.63619
 31
0.0
  0
LINE
  8
0
 62
     0
 10
22.8369
 20
5.63619
 30
0.0
 11
22.8258
 21
5.63619
 31
0.0
  0
LINE
  8
0
 62
     0
 10
22.8258
 20
5.63619
 30
0.0
 11
22.7914
 21
5.63619
 31
0.0
  0
LINE
  8
0
 62
     0
 10
22.7914
 20
5.63619
 30
0.0
 11
22.6921
 21
5.51903
 31
0.0
  0
LINE
  8
0
 62
     0
 10
22.6921
 20
5.51903
 30
0.0
 11
22.6246
 21
5.36332
 31
0.0
  0
LINE
  8
0
 62
     0
 10
22.6246
 20
5.36332
 30
0.0
 11
22.6164
 21
5.34402
 31
0.0
  0
LINE
  8
0
 62
     0
 10
22.6164
 20
5.34402
 30
0.0
 11
22.5833
 21
5.26962
 31
0.0
  0
LINE
  8
0
 62
     0
 10
22.5833
 20
5.26962
 30
0.0
 11
22.2567
 21
4.54477
 31
0.0
  0
LINE
  8
0
 62
     0
 10
22.2567
 20
4.54477
 30
0.0
 11
22.225
 21
4.47312
 31
0.0
  0
LINE
  8
0
 62
     0
 10
22.225
 20
4.47312
 30
0.0
 11
22.1892
 21
4.38767
 31
0.0
  0
LINE
  8
0
 62
     0
 10
22.1892
 20
4.38767
 30
0.0
 11
21.8833
 21
3.50573
 31
0.0
  0
LINE
  8
0
 62
     0
 10
21.8833
 20
3.50573
 30
0.0
 11
21.8667
 21
3.41478
 31
0.0
  0
LINE
  8
0
 62
     0
 10
21.8667
 20
3.41478
 30
0.0
 11
21.8612
 21
3.3886
 31
0.0
  0
LINE
  8
0
 62
     0
 10
21.8612
 20
3.3886
 30
0.0
 11
21.8281
 21
3.12815
 31
0.0
  0
LINE
  8
0
 62
     0
 10
21.8281
 20
3.12815
 30
0.0
 11
21.8281
 21
3.03995
 31
0.0
  0
LINE
  8
0
 62
     0
 10
21.8281
 20
3.03995
 30
0.0
 11
21.8281
 21
2.94762
 31
0.0
  0
LINE
  8
0
 62
     0
 10
21.8281
 20
2.94762
 30
0.0
 11
21.8819
 21
2.66926
 31
0.0
  0
LINE
  8
0
 62
     0
 10
21.8819
 20
2.66926
 30
0.0
 11
22.0404
 21
2.42948
 31
0.0
  0
LINE
  8
0
 62
     0
 10
22.0404
 20
2.42948
 30
0.0
 11
22.0927
 21
2.40054
 31
0.0
  0
LINE
  8
0
 62
     0
 10
26.5135
 20
5.12353
 30
0.0
 11
26.5135
 21
5.32335
 31
0.0
  0
LINE
  8
0
 62
     0
 10
26.5135
 20
5.32335
 30
0.0
 11
26.6306
 21
5.84151
 31
0.0
  0
LINE
  8
0
 62
     0
 10
26.6306
 20
5.84151
 30
0.0
 11
26.6568
 21
5.92282
 31
0.0
  0
LINE
  8
0
 62
     0
 10
26.6568
 20
5.92282
 30
0.0
 11
26.6967
 21
6.04682
 31
0.0
  0
LINE
  8
0
 62
     0
 10
26.6967
 20
6.04682
 30
0.0
 11
27.2548
 21
7.06381
 31
0.0
  0
LINE
  8
0
 62
     0
 10
27.2548
 20
7.06381
 30
0.0
 11
27.3237
 21
7.1355
 31
0.0
  0
LINE
  8
0
 62
     0
 10
27.3237
 20
7.1355
 30
0.0
 11
27.3596
 21
7.17405
 31
0.0
  0
LINE
  8
0
 62
     0
 10
27.3596
 20
7.17405
 30
0.0
 11
27.7275
 21
7.42763
 31
0.0
  0
LINE
  8
0
 62
     0
 10
27.7275
 20
7.42763
 30
0.0
 11
27.7537
 21
7.43313
 31
0.0
  0
LINE
  8
0
 62
     0
 10
27.7537
 20
7.43313
 30
0.0
 11
27.7647
 21
7.43313
 31
0.0
  0
LINE
  8
0
 62
     0
 10
27.7647
 20
7.43313
 30
0.0
 11
27.7895
 21
7.44418
 31
0.0
  0
LINE
  8
0
 62
     0
 10
27.7895
 20
7.44418
 30
0.0
 11
27.7978
 21
7.44418
 31
0.0
  0
LINE
  8
0
 62
     0
 10
27.7978
 20
7.44418
 30
0.0
 11
27.8129
 21
7.44418
 31
0.0
  0
LINE
  8
0
 62
     0
 10
27.8129
 20
7.44418
 30
0.0
 11
27.8529
 21
7.40145
 31
0.0
  0
LINE
  8
0
 62
     0
 10
27.8529
 20
7.40145
 30
0.0
 11
27.8584
 21
7.39454
 31
0.0
  0
LINE
  8
0
 62
     0
 10
27.8584
 20
7.39454
 30
0.0
 11
27.8708
 21
7.37803
 31
0.0
  0
LINE
  8
0
 62
     0
 10
27.8708
 20
7.37803
 30
0.0
 11
27.9246
 21
7.13412
 31
0.0
  0
LINE
  8
0
 62
     0
 10
27.9246
 20
7.13412
 30
0.0
 11
27.9246
 21
7.0528
 31
0.0
  0
LINE
  8
0
 62
     0
 10
27.9246
 20
7.0528
 30
0.0
 11
27.9246
 21
7.00045
 31
0.0
  0
LINE
  8
0
 62
     0
 10
27.9246
 20
7.00045
 30
0.0
 11
27.9163
 21
6.86125
 31
0.0
  0
LINE
  8
0
 62
     0
 10
27.9163
 20
6.86125
 30
0.0
 11
27.9135
 21
6.84332
 31
0.0
  0
LINE
  8
0
 62
     0
 10
27.9135
 20
6.84332
 30
0.0
 11
27.8997
 21
6.70003
 31
0.0
  0
LINE
  8
0
 62
     0
 10
27.8997
 20
6.70003
 30
0.0
 11
27.6696
 21
5.82909
 31
0.0
  0
LINE
  8
0
 62
     0
 10
27.6696
 20
5.82909
 30
0.0
 11
27.2397
 21
4.7818
 31
0.0
  0
LINE
  8
0
 62
     0
 10
27.2397
 20
4.7818
 30
0.0
 11
27.1253
 21
4.55027
 31
0.0
  0
LINE
  8
0
 62
     0
 10
27.1253
 20
4.55027
 30
0.0
 11
27.0991
 21
4.49516
 31
0.0
  0
LINE
  8
0
 62
     0
 10
27.0991
 20
4.49516
 30
0.0
 11
26.9723
 21
4.24575
 31
0.0
  0
LINE
  8
0
 62
     0
 10
26.9723
 20
4.24575
 30
0.0
 11
26.8883
 21
4.09691
 31
0.0
  0
LINE
  8
0
 62
     0
 10
26.8883
 20
4.09691
 30
0.0
 11
26.8828
 21
4.09279
 31
0.0
  0
LINE
  8
0
 62
     0
 10
26.8828
 20
4.09279
 30
0.0
 11
26.8593
 21
4.11208
 31
0.0
  0
LINE
  8
0
 62
     0
 10
26.8593
 20
4.11208
 30
0.0
 11
26.6292
 21
4.37526
 31
0.0
  0
LINE
  8
0
 62
     0
 10
26.6292
 20
4.37526
 30
0.0
 11
26.6182
 21
4.39593
 31
0.0
  0
LINE
  8
0
 62
     0
 10
26.6182
 20
4.39593
 30
0.0
 11
26.6017
 21
4.43865
 31
0.0
  0
LINE
  8
0
 62
     0
 10
26.6017
 20
4.43865
 30
0.0
 11
26.5148
 21
4.91546
 31
0.0
  0
LINE
  8
0
 62
     0
 10
26.5148
 20
4.91546
 30
0.0
 11
26.5135
 21
4.98023
 31
0.0
  0
LINE
  8
0
 62
     0
 10
26.5135
 20
4.98023
 30
0.0
 11
26.5135
 21
5.12353
 31
0.0
  0
LINE
  8
0
 62
     0
 10
36.0811
 20
4.12034
 30
0.0
 11
36.0715
 21
4.12309
 31
0.0
  0
LINE
  8
0
 62
     0
 10
36.0715
 20
4.12309
 30
0.0
 11
36.0204
 21
4.13135
 31
0.0
  0
LINE
  8
0
 62
     0
 10
36.0204
 20
4.13135
 30
0.0
 11
36.0041
 21
4.13135
 31
0.0
  0
LINE
  8
0
 62
     0
 10
36.0041
 20
4.13135
 30
0.0
 11
35.9904
 21
4.13135
 31
0.0
  0
LINE
  8
0
 62
     0
 10
35.9904
 20
4.13135
 30
0.0
 11
35.953
 21
4.11484
 31
0.0
  0
LINE
  8
0
 62
     0
 10
35.953
 20
4.11484
 30
0.0
 11
35.9488
 21
4.1093
 31
0.0
  0
LINE
  8
0
 62
     0
 10
35.9488
 20
4.1093
 30
0.0
 11
35.9392
 21
4.09967
 31
0.0
  0
LINE
  8
0
 62
     0
 10
35.9392
 20
4.09967
 30
0.0
 11
35.8592
 21
3.98117
 31
0.0
  0
LINE
  8
0
 62
     0
 10
35.8592
 20
3.98117
 30
0.0
 11
35.6775
 21
3.69316
 31
0.0
  0
LINE
  8
0
 62
     0
 10
35.6775
 20
3.69316
 30
0.0
 11
35.4376
 21
3.30867
 31
0.0
  0
LINE
  8
0
 62
     0
 10
35.4376
 20
3.30867
 30
0.0
 11
35.2461
 21
2.99586
 31
0.0
  0
LINE
  8
0
 62
     0
 10
35.2461
 20
2.99586
 30
0.0
 11
35.1827
 21
2.89112
 31
0.0
  0
LINE
  8
0
 62
     0
 10
35.1827
 20
2.89112
 30
0.0
 11
35.0394
 21
2.6541
 31
0.0
  0
LINE
  8
0
 62
     0
 10
35.0394
 20
2.6541
 30
0.0
 11
34.4261
 21
1.76251
 31
0.0
  0
LINE
  8
0
 62
     0
 10
34.4261
 20
1.76251
 30
0.0
 11
33.9507
 21
1.27331
 31
0.0
  0
LINE
  8
0
 62
     0
 10
33.9507
 20
1.27331
 30
0.0
 11
33.8763
 21
1.23748
 31
0.0
  0
LINE
  8
0
 62
     0
 10
33.8763
 20
1.23748
 30
0.0
 11
33.8625
 21
1.23059
 31
0.0
  0
LINE
  8
0
 62
     0
 10
33.8625
 20
1.23059
 30
0.0
 11
33.7358
 21
1.16031
 31
0.0
  0
LINE
  8
0
 62
     0
 10
33.7358
 20
1.16031
 30
0.0
 11
33.6944
 21
1.16031
 31
0.0
  0
LINE
  8
0
 62
     0
 10
33.6944
 20
1.16031
 30
0.0
 11
33.671
 21
1.16031
 31
0.0
  0
LINE
  8
0
 62
     0
 10
33.671
 20
1.16031
 30
0.0
 11
33.6076
 21
1.21129
 31
0.0
  0
LINE
  8
0
 62
     0
 10
33.6076
 20
1.21129
 30
0.0
 11
33.6007
 21
1.22094
 31
0.0
  0
LINE
  8
0
 62
     0
 10
33.6007
 20
1.22094
 30
0.0
 11
33.5855
 21
1.24161
 31
0.0
  0
LINE
  8
0
 62
     0
 10
33.5855
 20
1.24161
 30
0.0
 11
33.5125
 21
1.44556
 31
0.0
  0
LINE
  8
0
 62
     0
 10
33.5125
 20
1.44556
 30
0.0
 11
33.5125
 21
1.51309
 31
0.0
  0
LINE
  8
0
 62
     0
 10
33.5125
 20
1.51309
 30
0.0
 11
33.5125
 21
1.58061
 31
0.0
  0
LINE
  8
0
 62
     0
 10
33.5125
 20
1.58061
 30
0.0
 11
33.547
 21
1.76113
 31
0.0
  0
LINE
  8
0
 62
     0
 10
33.547
 20
1.76113
 30
0.0
 11
33.5511
 21
1.78318
 31
0.0
  0
LINE
  8
0
 62
     0
 10
33.5511
 20
1.78318
 30
0.0
 11
33.5704
 21
1.90032
 31
0.0
  0
LINE
  8
0
 62
     0
 10
33.5704
 20
1.90032
 30
0.0
 11
33.7881
 21
2.62378
 31
0.0
  0
LINE
  8
0
 62
     0
 10
33.7881
 20
2.62378
 30
0.0
 11
34.1753
 21
3.53053
 31
0.0
  0
LINE
  8
0
 62
     0
 10
34.1753
 20
3.53053
 30
0.0
 11
34.2787
 21
3.74001
 31
0.0
  0
LINE
  8
0
 62
     0
 10
34.2787
 20
3.74001
 30
0.0
 11
34.3435
 21
3.87505
 31
0.0
  0
LINE
  8
0
 62
     0
 10
34.3435
 20
3.87505
 30
0.0
 11
34.5295
 21
4.28569
 31
0.0
  0
LINE
  8
0
 62
     0
 10
34.5295
 20
4.28569
 30
0.0
 11
34.5819
 21
4.44281
 31
0.0
  0
LINE
  8
0
 62
     0
 10
34.5819
 20
4.44281
 30
0.0
 11
34.5819
 21
4.49516
 31
0.0
  0
LINE
  8
0
 62
     0
 10
34.5819
 20
4.49516
 30
0.0
 11
34.5819
 21
4.53513
 31
0.0
  0
LINE
  8
0
 62
     0
 10
34.5819
 20
4.53513
 30
0.0
 11
34.4413
 21
4.64125
 31
0.0
  0
LINE
  8
0
 62
     0
 10
34.4413
 20
4.64125
 30
0.0
 11
34.4
 21
4.65501
 31
0.0
  0
LINE
  8
0
 62
     0
 10
34.4
 20
4.65501
 30
0.0
 11
34.3807
 21
4.66189
 31
0.0
  0
LINE
  8
0
 62
     0
 10
34.3807
 20
4.66189
 30
0.0
 11
34.2084
 21
4.71015
 31
0.0
  0
LINE
  8
0
 62
     0
 10
34.2084
 20
4.71015
 30
0.0
 11
34.1519
 21
4.71015
 31
0.0
  0
LINE
  8
0
 62
     0
 10
34.1519
 20
4.71015
 30
0.0
 11
34.1257
 21
4.71015
 31
0.0
  0
LINE
  8
0
 62
     0
 10
34.1257
 20
4.71015
 30
0.0
 11
34.0665
 21
4.70461
 31
0.0
  0
LINE
  8
0
 62
     0
 10
34.0665
 20
4.70461
 30
0.0
 11
34.0472
 21
4.70461
 31
0.0
  0
LINE
  8
0
 62
     0
 10
34.0472
 20
4.70461
 30
0.0
 11
33.981
 21
4.70461
 31
0.0
  0
LINE
  8
0
 62
     0
 10
33.981
 20
4.70461
 30
0.0
 11
33.8722
 21
4.70461
 31
0.0
  0
LINE
  8
0
 62
     0
 10
33.8722
 20
4.70461
 30
0.0
 11
33.547
 21
4.88237
 31
0.0
  0
LINE
  8
0
 62
     0
 10
33.547
 20
4.88237
 30
0.0
 11
33.3816
 21
5.1387
 31
0.0
  0
LINE
  8
0
 62
     0
 10
33.3816
 20
5.1387
 30
0.0
 11
33.3692
 21
5.17867
 31
0.0
  0
LINE
  8
0
 62
     0
 10
33.3692
 20
5.17867
 30
0.0
 11
33.3692
 21
5.20898
 31
0.0
  0
LINE
  8
0
 62
     0
 10
33.3692
 20
5.20898
 30
0.0
 11
33.4216
 21
5.29855
 31
0.0
  0
LINE
  8
0
 62
     0
 10
33.4216
 20
5.29855
 30
0.0
 11
33.4739
 21
5.38261
 31
0.0
  0
LINE
  8
0
 62
     0
 10
33.4739
 20
5.38261
 30
0.0
 11
33.4739
 21
5.41016
 31
0.0
  0
LINE
  8
0
 62
     0
 10
33.4739
 20
5.41016
 30
0.0
 11
33.5084
 21
5.47493
 31
0.0
  0
LINE
  8
0
 62
     0
 10
33.5084
 20
5.47493
 30
0.0
 11
33.7165
 21
6.10471
 31
0.0
  0
LINE
  8
0
 62
     0
 10
33.7165
 20
6.10471
 30
0.0
 11
33.7165
 21
6.31416
 31
0.0
  0
LINE
  8
0
 62
     0
 10
33.7165
 20
6.31416
 30
0.0
 11
33.7165
 21
6.47954
 31
0.0
  0
LINE
  8
0
 62
     0
 10
33.7165
 20
6.47954
 30
0.0
 11
33.5484
 21
6.92739
 31
0.0
  0
LINE
  8
0
 62
     0
 10
33.5484
 20
6.92739
 30
0.0
 11
33.5125
 21
6.97562
 31
0.0
  0
LINE
  8
0
 62
     0
 10
33.5125
 20
6.97562
 30
0.0
 11
33.4918
 21
7.00458
 31
0.0
  0
LINE
  8
0
 62
     0
 10
33.4918
 20
7.00458
 30
0.0
 11
33.2424
 21
7.1465
 31
0.0
  0
LINE
  8
0
 62
     0
 10
33.2424
 20
7.1465
 30
0.0
 11
33.1597
 21
7.1465
 31
0.0
  0
LINE
  8
0
 62
     0
 10
33.1597
 20
7.1465
 30
0.0
 11
33.0715
 21
7.1465
 31
0.0
  0
LINE
  8
0
 62
     0
 10
33.0715
 20
7.1465
 30
0.0
 11
32.8304
 21
7.00871
 31
0.0
  0
LINE
  8
0
 62
     0
 10
32.8304
 20
7.00871
 30
0.0
 11
32.807
 21
6.98115
 31
0.0
  0
LINE
  8
0
 62
     0
 10
32.807
 20
6.98115
 30
0.0
 11
32.778
 21
6.95082
 31
0.0
  0
LINE
  8
0
 62
     0
 10
32.778
 20
6.95082
 30
0.0
 11
32.6237
 21
6.48917
 31
0.0
  0
LINE
  8
0
 62
     0
 10
32.6237
 20
6.48917
 30
0.0
 11
32.6195
 21
6.4189
 31
0.0
  0
LINE
  8
0
 62
     0
 10
32.6195
 20
6.4189
 30
0.0
 11
32.6168
 21
6.3996
 31
0.0
  0
LINE
  8
0
 62
     0
 10
32.6168
 20
6.3996
 30
0.0
 11
32.6085
 21
6.23701
 31
0.0
  0
LINE
  8
0
 62
     0
 10
32.6085
 20
6.23701
 30
0.0
 11
32.6085
 21
6.18187
 31
0.0
  0
LINE
  8
0
 62
     0
 10
32.6085
 20
6.18187
 30
0.0
 11
32.6085
 21
5.95588
 31
0.0
  0
LINE
  8
0
 62
     0
 10
32.6085
 20
5.95588
 30
0.0
 11
32.7739
 21
5.34127
 31
0.0
  0
LINE
  8
0
 62
     0
 10
32.7739
 20
5.34127
 30
0.0
 11
32.807
 21
5.27787
 31
0.0
  0
LINE
  8
0
 62
     0
 10
32.807
 20
5.27787
 30
0.0
 11
32.8194
 21
5.25582
 31
0.0
  0
LINE
  8
0
 62
     0
 10
32.8194
 20
5.25582
 30
0.0
 11
32.9048
 21
5.11115
 31
0.0
  0
LINE
  8
0
 62
     0
 10
32.9048
 20
5.11115
 30
0.0
 11
32.9117
 21
5.10148
 31
0.0
  0
LINE
  8
0
 62
     0
 10
32.9117
 20
5.10148
 30
0.0
 11
32.8952
 21
5.08081
 31
0.0
  0
LINE
  8
0
 62
     0
 10
32.8952
 20
5.08081
 30
0.0
 11
32.6843
 21
4.86999
 31
0.0
  0
LINE
  8
0
 62
     0
 10
32.6843
 20
4.86999
 30
0.0
 11
32.428
 21
4.63709
 31
0.0
  0
LINE
  8
0
 62
     0
 10
32.428
 20
4.63709
 30
0.0
 11
32.388
 21
4.60541
 31
0.0
  0
LINE
  8
0
 62
     0
 10
32.388
 20
4.60541
 30
0.0
 11
32.3233
 21
4.55581
 31
0.0
  0
LINE
  8
0
 62
     0
 10
32.3233
 20
4.55581
 30
0.0
 11
31.5832
 21
4.19749
 31
0.0
  0
LINE
  8
0
 62
     0
 10
31.5832
 20
4.19749
 30
0.0
 11
31.5116
 21
4.18098
 31
0.0
  0
LINE
  8
0
 62
     0
 10
31.5116
 20
4.18098
 30
0.0
 11
31.4758
 21
4.17131
 31
0.0
  0
LINE
  8
0
 62
     0
 10
31.4758
 20
4.17131
 30
0.0
 11
31.3283
 21
4.12034
 31
0.0
  0
LINE
  8
0
 62
     0
 10
31.3283
 20
4.12034
 30
0.0
 11
31.2801
 21
4.12034
 31
0.0
  0
LINE
  8
0
 62
     0
 10
31.2801
 20
4.12034
 30
0.0
 11
31.2773
 21
4.12034
 31
0.0
  0
LINE
  8
0
 62
     0
 10
31.2773
 20
4.12034
 30
0.0
 11
31.2691
 21
4.13135
 31
0.0
  0
LINE
  8
0
 62
     0
 10
31.2691
 20
4.13135
 30
0.0
 11
31.2691
 21
4.13135
 31
0.0
  0
LINE
  8
0
 62
     0
 10
31.2691
 20
4.13135
 30
0.0
 11
31.2691
 21
4.13826
 31
0.0
  0
LINE
  8
0
 62
     0
 10
31.2691
 20
4.13826
 30
0.0
 11
31.2801
 21
4.15477
 31
0.0
  0
LINE
  8
0
 62
     0
 10
31.2801
 20
4.15477
 30
0.0
 11
31.2801
 21
4.15893
 31
0.0
  0
LINE
  8
0
 62
     0
 10
31.2801
 20
4.15893
 30
0.0
 11
31.2856
 21
4.17131
 31
0.0
  0
LINE
  8
0
 62
     0
 10
31.2856
 20
4.17131
 30
0.0
 11
31.3077
 21
4.46899
 31
0.0
  0
LINE
  8
0
 62
     0
 10
31.3077
 20
4.46899
 30
0.0
 11
31.3077
 21
4.56681
 31
0.0
  0
LINE
  8
0
 62
     0
 10
31.3077
 20
4.56681
 30
0.0
 11
31.3077
 21
4.65776
 31
0.0
  0
LINE
  8
0
 62
     0
 10
31.3077
 20
4.65776
 30
0.0
 11
31.2939
 21
4.90721
 31
0.0
  0
LINE
  8
0
 62
     0
 10
31.2939
 20
4.90721
 30
0.0
 11
31.2911
 21
4.93063
 31
0.0
  0
LINE
  8
0
 62
     0
 10
31.2911
 20
4.93063
 30
0.0
 11
31.2773
 21
5.06155
 31
0.0
  0
LINE
  8
0
 62
     0
 10
31.2773
 20
5.06155
 30
0.0
 11
31.0624
 21
5.72714
 31
0.0
  0
LINE
  8
0
 62
     0
 10
31.0624
 20
5.72714
 30
0.0
 11
30.5938
 21
6.21633
 31
0.0
  0
LINE
  8
0
 62
     0
 10
30.5938
 20
6.21633
 30
0.0
 11
30.4533
 21
6.25905
 31
0.0
  0
LINE
  8
0
 62
     0
 10
30.4533
 20
6.25905
 30
0.0
 11
30.4312
 21
6.26593
 31
0.0
  0
LINE
  8
0
 62
     0
 10
30.4312
 20
6.26593
 30
0.0
 11
30.2617
 21
6.29765
 31
0.0
  0
LINE
  8
0
 62
     0
 10
30.2617
 20
6.29765
 30
0.0
 11
30.2052
 21
6.29765
 31
0.0
  0
LINE
  8
0
 62
     0
 10
30.2052
 20
6.29765
 30
0.0
 11
30.0922
 21
6.29765
 31
0.0
  0
LINE
  8
0
 62
     0
 10
30.0922
 20
6.29765
 30
0.0
 11
29.7532
 21
6.14744
 31
0.0
  0
LINE
  8
0
 62
     0
 10
29.7532
 20
6.14744
 30
0.0
 11
29.4955
 21
5.81533
 31
0.0
  0
LINE
  8
0
 62
     0
 10
29.4955
 20
5.81533
 30
0.0
 11
29.4666
 21
5.72438
 31
0.0
  0
LINE
  8
0
 62
     0
 10
29.4666
 20
5.72438
 30
0.0
 11
29.4597
 21
5.70096
 31
0.0
  0
LINE
  8
0
 62
     0
 10
29.4597
 20
5.70096
 30
0.0
 11
29.428
 21
5.46255
 31
0.0
  0
LINE
  8
0
 62
     0
 10
29.428
 20
5.46255
 30
0.0
 11
29.428
 21
5.38261
 31
0.0
  0
LINE
  8
0
 62
     0
 10
29.428
 20
5.38261
 30
0.0
 11
29.428
 21
5.17867
 31
0.0
  0
LINE
  8
0
 62
     0
 10
29.428
 20
5.17867
 30
0.0
 11
29.3233
 21
5.12353
 31
0.0
  0
LINE
  8
0
 62
     0
 10
29.3233
 20
5.12353
 30
0.0
 11
29.2503
 21
5.07806
 31
0.0
  0
LINE
  8
0
 62
     0
 10
29.2503
 20
5.07806
 30
0.0
 11
28.7004
 21
4.50617
 31
0.0
  0
LINE
  8
0
 62
     0
 10
28.7004
 20
4.50617
 30
0.0
 11
28.6673
 21
4.45657
 31
0.0
  0
LINE
  8
0
 62
     0
 10
28.6673
 20
4.45657
 30
0.0
 11
28.586
 21
4.33395
 31
0.0
  0
LINE
  8
0
 62
     0
 10
28.586
 20
4.33395
 30
0.0
 11
28.1712
 21
3.26457
 31
0.0
  0
LINE
  8
0
 62
     0
 10
28.1712
 20
3.26457
 30
0.0
 11
28.1712
 21
2.90766
 31
0.0
  0
LINE
  8
0
 62
     0
 10
28.1712
 20
2.90766
 30
0.0
 11
28.1712
 21
2.80017
 31
0.0
  0
LINE
  8
0
 62
     0
 10
28.1712
 20
2.80017
 30
0.0
 11
28.2029
 21
2.51216
 31
0.0
  0
LINE
  8
0
 62
     0
 10
28.2029
 20
2.51216
 30
0.0
 11
28.2098
 21
2.47771
 31
0.0
  0
LINE
  8
0
 62
     0
 10
28.2098
 20
2.47771
 30
0.0
 11
28.2374
 21
2.3468
 31
0.0
  0
LINE
  8
0
 62
     0
 10
28.2374
 20
2.3468
 30
0.0
 11
28.5846
 21
1.79972
 31
0.0
  0
LINE
  8
0
 62
     0
 10
28.5846
 20
1.79972
 30
0.0
 11
29.1055
 21
1.51309
 31
0.0
  0
LINE
  8
0
 62
     0
 10
29.1055
 20
1.51309
 30
0.0
 11
29.2792
 21
1.51309
 31
0.0
  0
LINE
  8
0
 62
     0
 10
29.2792
 20
1.51309
 30
0.0
 11
29.388
 21
1.51309
 31
0.0
  0
LINE
  8
0
 62
     0
 10
29.388
 20
1.51309
 30
0.0
 11
29.6774
 21
1.59577
 31
0.0
  0
LINE
  8
0
 62
     0
 10
29.6774
 20
1.59577
 30
0.0
 11
29.7146
 21
1.6123
 31
0.0
  0
LINE
  8
0
 62
     0
 10
29.7146
 20
1.6123
 30
0.0
 11
29.7725
 21
1.63849
 31
0.0
  0
LINE
  8
0
 62
     0
 10
29.7725
 20
1.63849
 30
0.0
 11
30.2617
 21
2.01194
 31
0.0
  0
LINE
  8
0
 62
     0
 10
30.2617
 20
2.01194
 30
0.0
 11
30.3155
 21
2.06981
 31
0.0
  0
LINE
  8
0
 62
     0
 10
30.3155
 20
2.06981
 30
0.0
 11
30.4064
 21
2.16765
 31
0.0
  0
LINE
  8
0
 62
     0
 10
30.4064
 20
2.16765
 30
0.0
 11
30.8115
 21
2.77675
 31
0.0
  0
LINE
  8
0
 62
     0
 10
30.8115
 20
2.77675
 30
0.0
 11
31.1285
 21
3.52364
 31
0.0
  0
LINE
  8
0
 62
     0
 10
31.1285
 20
3.52364
 30
0.0
 11
31.1754
 21
3.69037
 31
0.0
  0
LINE
  8
0
 62
     0
 10
31.1754
 20
3.69037
 30
0.0
 11
31.236
 21
3.89985
 31
0.0
  0
LINE
  8
0
 62
     0
 10
31.236
 20
3.89985
 30
0.0
 11
31.3958
 21
3.91086
 31
0.0
  0
LINE
  8
0
 62
     0
 10
31.3958
 20
3.91086
 30
0.0
 11
31.4579
 21
3.91502
 31
0.0
  0
LINE
  8
0
 62
     0
 10
31.4579
 20
3.91502
 30
0.0
 11
32.0862
 21
4.10792
 31
0.0
  0
LINE
  8
0
 62
     0
 10
32.0862
 20
4.10792
 30
0.0
 11
32.1565
 21
4.14239
 31
0.0
  0
LINE
  8
0
 62
     0
 10
32.1565
 20
4.14239
 30
0.0
 11
32.2282
 21
4.17823
 31
0.0
  0
LINE
  8
0
 62
     0
 10
32.2282
 20
4.17823
 30
0.0
 11
32.541
 21
4.367
 31
0.0
  0
LINE
  8
0
 62
     0
 10
32.541
 20
4.367
 30
0.0
 11
32.8593
 21
4.61641
 31
0.0
  0
LINE
  8
0
 62
     0
 10
32.8593
 20
4.61641
 30
0.0
 11
32.9337
 21
4.68256
 31
0.0
  0
LINE
  8
0
 62
     0
 10
32.9337
 20
4.68256
 30
0.0
 11
33.1211
 21
4.86449
 31
0.0
  0
LINE
  8
0
 62
     0
 10
33.1211
 20
4.86449
 30
0.0
 11
33.1211
 21
4.86449
 31
0.0
  0
LINE
  8
0
 62
     0
 10
33.1211
 20
4.86449
 30
0.0
 11
33.2093
 21
4.77213
 31
0.0
  0
LINE
  8
0
 62
     0
 10
33.2093
 20
4.77213
 30
0.0
 11
33.4229
 21
4.62608
 31
0.0
  0
LINE
  8
0
 62
     0
 10
33.4229
 20
4.62608
 30
0.0
 11
33.485
 21
4.5999
 31
0.0
  0
LINE
  8
0
 62
     0
 10
33.485
 20
4.5999
 30
0.0
 11
33.5332
 21
4.58061
 31
0.0
  0
LINE
  8
0
 62
     0
 10
33.5332
 20
4.58061
 30
0.0
 11
33.806
 21
4.51171
 31
0.0
  0
LINE
  8
0
 62
     0
 10
33.806
 20
4.51171
 30
0.0
 11
33.8983
 21
4.51171
 31
0.0
  0
LINE
  8
0
 62
     0
 10
33.8983
 20
4.51171
 30
0.0
 11
33.9149
 21
4.51171
 31
0.0
  0
LINE
  8
0
 62
     0
 10
33.9149
 20
4.51171
 30
0.0
 11
33.8212
 21
4.35737
 31
0.0
  0
LINE
  8
0
 62
     0
 10
33.8212
 20
4.35737
 30
0.0
 11
33.7371
 21
4.21541
 31
0.0
  0
LINE
  8
0
 62
     0
 10
33.7371
 20
4.21541
 30
0.0
 11
33.3347
 21
3.34036
 31
0.0
  0
LINE
  8
0
 62
     0
 10
33.3347
 20
3.34036
 30
0.0
 11
33.0591
 21
2.48736
 31
0.0
  0
LINE
  8
0
 62
     0
 10
33.0591
 20
2.48736
 30
0.0
 11
33.0384
 21
2.35645
 31
0.0
  0
LINE
  8
0
 62
     0
 10
33.0384
 20
2.35645
 30
0.0
 11
33.0288
 21
2.31097
 31
0.0
  0
LINE
  8
0
 62
     0
 10
33.0288
 20
2.31097
 30
0.0
 11
32.9889
 21
1.97335
 31
0.0
  0
LINE
  8
0
 62
     0
 10
32.9889
 20
1.97335
 30
0.0
 11
32.9889
 21
1.86035
 31
0.0
  0
LINE
  8
0
 62
     0
 10
32.9889
 20
1.86035
 30
0.0
 11
32.9889
 21
1.69085
 31
0.0
  0
LINE
  8
0
 62
     0
 10
32.9889
 20
1.69085
 30
0.0
 11
33.1707
 21
1.22094
 31
0.0
  0
LINE
  8
0
 62
     0
 10
33.1707
 20
1.22094
 30
0.0
 11
33.2093
 21
1.18236
 31
0.0
  0
LINE
  8
0
 62
     0
 10
33.2093
 20
1.18236
 30
0.0
 11
33.2424
 21
1.14928
 31
0.0
  0
LINE
  8
0
 62
     0
 10
33.2424
 20
1.14928
 30
0.0
 11
33.7068
 21
0.946711
 31
0.0
  0
LINE
  8
0
 62
     0
 10
33.7068
 20
0.946711
 30
0.0
 11
33.755
 21
0.945335
 31
0.0
  0
LINE
  8
0
 62
     0
 10
33.755
 20
0.945335
 30
0.0
 11
33.7826
 21
0.945335
 31
0.0
  0
LINE
  8
0
 62
     0
 10
33.7826
 20
0.945335
 30
0.0
 11
33.9135
 21
0.945335
 31
0.0
  0
LINE
  8
0
 62
     0
 10
33.9135
 20
0.945335
 30
0.0
 11
34.2704
 21
1.15066
 31
0.0
  0
LINE
  8
0
 62
     0
 10
34.2704
 20
1.15066
 30
0.0
 11
34.3063
 21
1.18236
 31
0.0
  0
LINE
  8
0
 62
     0
 10
34.3063
 20
1.18236
 30
0.0
 11
34.3724
 21
1.24437
 31
0.0
  0
LINE
  8
0
 62
     0
 10
34.3724
 20
1.24437
 30
0.0
 11
34.7334
 21
1.69499
 31
0.0
  0
LINE
  8
0
 62
     0
 10
34.7334
 20
1.69499
 30
0.0
 11
35.2488
 21
2.49838
 31
0.0
  0
LINE
  8
0
 62
     0
 10
35.2488
 20
2.49838
 30
0.0
 11
35.3921
 21
2.73678
 31
0.0
  0
LINE
  8
0
 62
     0
 10
35.3921
 20
2.73678
 30
0.0
 11
35.4446
 21
2.82222
 31
0.0
  0
LINE
  8
0
 62
     0
 10
35.4446
 20
2.82222
 30
0.0
 11
35.7188
 21
3.2756
 31
0.0
  0
LINE
  8
0
 62
     0
 10
35.7188
 20
3.2756
 30
0.0
 11
35.9474
 21
3.65319
 31
0.0
  0
LINE
  8
0
 62
     0
 10
35.9474
 20
3.65319
 30
0.0
 11
35.9763
 21
3.70141
 31
0.0
  0
LINE
  8
0
 62
     0
 10
35.9763
 20
3.70141
 30
0.0
 11
36.0066
 21
3.74689
 31
0.0
  0
LINE
  8
0
 62
     0
 10
36.0066
 20
3.74689
 30
0.0
 11
36.1266
 21
3.94808
 31
0.0
  0
LINE
  8
0
 62
     0
 10
36.1266
 20
3.94808
 30
0.0
 11
36.1858
 21
4.03627
 31
0.0
  0
LINE
  8
0
 62
     0
 10
36.1858
 20
4.03627
 30
0.0
 11
36.1858
 21
4.0652
 31
0.0
  0
LINE
  8
0
 62
     0
 10
36.1858
 20
4.0652
 30
0.0
 11
36.183
 21
4.06936
 31
0.0
  0
LINE
  8
0
 62
     0
 10
36.183
 20
4.06936
 30
0.0
 11
36.0938
 21
4.11621
 31
0.0
  0
LINE
  8
0
 62
     0
 10
36.0938
 20
4.11621
 30
0.0
 11
36.0811
 21
4.12034
 31
0.0
  0
LINE
  8
0
 62
     0
 10
30.8226
 20
3.59668
 30
0.0
 11
30.773
 21
3.45061
 31
0.0
  0
LINE
  8
0
 62
     0
 10
30.773
 20
3.45061
 30
0.0
 11
30.4974
 21
2.84703
 31
0.0
  0
LINE
  8
0
 62
     0
 10
30.4974
 20
2.84703
 30
0.0
 11
30.1597
 21
2.36472
 31
0.0
  0
LINE
  8
0
 62
     0
 10
30.1597
 20
2.36472
 30
0.0
 11
30.0784
 21
2.27928
 31
0.0
  0
LINE
  8
0
 62
     0
 10
30.0784
 20
2.27928
 30
0.0
 11
30.0398
 21
2.24069
 31
0.0
  0
LINE
  8
0
 62
     0
 10
30.0398
 20
2.24069
 30
0.0
 11
29.6195
 21
1.90169
 31
0.0
  0
LINE
  8
0
 62
     0
 10
29.6195
 20
1.90169
 30
0.0
 11
29.5713
 21
1.87689
 31
0.0
  0
LINE
  8
0
 62
     0
 10
29.5713
 20
1.87689
 30
0.0
 11
29.5479
 21
1.86311
 31
0.0
  0
LINE
  8
0
 62
     0
 10
29.5479
 20
1.86311
 30
0.0
 11
29.2585
 21
1.75562
 31
0.0
  0
LINE
  8
0
 62
     0
 10
29.2585
 20
1.75562
 30
0.0
 11
29.1634
 21
1.75562
 31
0.0
  0
LINE
  8
0
 62
     0
 10
29.1634
 20
1.75562
 30
0.0
 11
29.1317
 21
1.75562
 31
0.0
  0
LINE
  8
0
 62
     0
 10
29.1317
 20
1.75562
 30
0.0
 11
29.0463
 21
1.76802
 31
0.0
  0
LINE
  8
0
 62
     0
 10
29.0463
 20
1.76802
 30
0.0
 11
29.0366
 21
1.77216
 31
0.0
  0
LINE
  8
0
 62
     0
 10
29.0366
 20
1.77216
 30
0.0
 11
28.987
 21
1.79421
 31
0.0
  0
LINE
  8
0
 62
     0
 10
28.987
 20
1.79421
 30
0.0
 11
28.8382
 21
2.03536
 31
0.0
  0
LINE
  8
0
 62
     0
 10
28.8382
 20
2.03536
 30
0.0
 11
28.7886
 21
2.33853
 31
0.0
  0
LINE
  8
0
 62
     0
 10
28.7886
 20
2.33853
 30
0.0
 11
28.7886
 21
2.43913
 31
0.0
  0
LINE
  8
0
 62
     0
 10
28.7886
 20
2.43913
 30
0.0
 11
28.7886
 21
2.53559
 31
0.0
  0
LINE
  8
0
 62
     0
 10
28.7886
 20
2.53559
 30
0.0
 11
28.8189
 21
2.80017
 31
0.0
  0
LINE
  8
0
 62
     0
 10
28.8189
 20
2.80017
 30
0.0
 11
28.8217
 21
2.82498
 31
0.0
  0
LINE
  8
0
 62
     0
 10
28.8217
 20
2.82498
 30
0.0
 11
28.8327
 21
2.91731
 31
0.0
  0
LINE
  8
0
 62
     0
 10
28.8327
 20
2.91731
 30
0.0
 11
29.0987
 21
3.80199
 31
0.0
  0
LINE
  8
0
 62
     0
 10
29.0987
 20
3.80199
 30
0.0
 11
29.1414
 21
3.88331
 31
0.0
  0
LINE
  8
0
 62
     0
 10
29.1414
 20
3.88331
 30
0.0
 11
29.1676
 21
3.93845
 31
0.0
  0
LINE
  8
0
 62
     0
 10
29.1676
 20
3.93845
 30
0.0
 11
29.3508
 21
4.24713
 31
0.0
  0
LINE
  8
0
 62
     0
 10
29.3508
 20
4.24713
 30
0.0
 11
29.5493
 21
4.52272
 31
0.0
  0
LINE
  8
0
 62
     0
 10
29.5493
 20
4.52272
 30
0.0
 11
29.5824
 21
4.56131
 31
0.0
  0
LINE
  8
0
 62
     0
 10
29.5824
 20
4.56131
 30
0.0
 11
29.6761
 21
4.66605
 31
0.0
  0
LINE
  8
0
 62
     0
 10
29.6761
 20
4.66605
 30
0.0
 11
29.6761
 21
4.66605
 31
0.0
  0
LINE
  8
0
 62
     0
 10
29.6761
 20
4.66605
 30
0.0
 11
29.8125
 21
4.49654
 31
0.0
  0
LINE
  8
0
 62
     0
 10
29.8125
 20
4.49654
 30
0.0
 11
30.0798
 21
4.24021
 31
0.0
  0
LINE
  8
0
 62
     0
 10
30.0798
 20
4.24021
 30
0.0
 11
30.1446
 21
4.19749
 31
0.0
  0
LINE
  8
0
 62
     0
 10
30.1446
 20
4.19749
 30
0.0
 11
30.1956
 21
4.16581
 31
0.0
  0
LINE
  8
0
 62
     0
 10
30.1956
 20
4.16581
 30
0.0
 11
30.4684
 21
4.02664
 31
0.0
  0
LINE
  8
0
 62
     0
 10
30.4684
 20
4.02664
 30
0.0
 11
30.824
 21
3.93153
 31
0.0
  0
LINE
  8
0
 62
     0
 10
30.824
 20
3.93153
 30
0.0
 11
30.9163
 21
3.9219
 31
0.0
  0
LINE
  8
0
 62
     0
 10
30.9163
 20
3.9219
 30
0.0
 11
30.9163
 21
3.9219
 31
0.0
  0
LINE
  8
0
 62
     0
 10
30.9163
 20
3.9219
 30
0.0
 11
30.8364
 21
3.64215
 31
0.0
  0
LINE
  8
0
 62
     0
 10
30.8364
 20
3.64215
 30
0.0
 11
30.8226
 21
3.59668
 31
0.0
  0
LINE
  8
0
 62
     0
 10
30.9769
 20
4.19749
 30
0.0
 11
30.9742
 21
4.18511
 31
0.0
  0
LINE
  8
0
 62
     0
 10
30.9742
 20
4.18511
 30
0.0
 11
30.9259
 21
4.12034
 31
0.0
  0
LINE
  8
0
 62
     0
 10
30.9259
 20
4.12034
 30
0.0
 11
30.9108
 21
4.12034
 31
0.0
  0
LINE
  8
0
 62
     0
 10
30.9108
 20
4.12034
 30
0.0
 11
30.8667
 21
4.12034
 31
0.0
  0
LINE
  8
0
 62
     0
 10
30.8667
 20
4.12034
 30
0.0
 11
30.7564
 21
4.14376
 31
0.0
  0
LINE
  8
0
 62
     0
 10
30.7564
 20
4.14376
 30
0.0
 11
30.7344
 21
4.14789
 31
0.0
  0
LINE
  8
0
 62
     0
 10
30.7344
 20
4.14789
 30
0.0
 11
30.6972
 21
4.15618
 31
0.0
  0
LINE
  8
0
 62
     0
 10
30.6972
 20
4.15618
 30
0.0
 11
30.3444
 21
4.34358
 31
0.0
  0
LINE
  8
0
 62
     0
 10
30.3444
 20
4.34358
 30
0.0
 11
30.2989
 21
4.37942
 31
0.0
  0
LINE
  8
0
 62
     0
 10
30.2989
 20
4.37942
 30
0.0
 11
30.2562
 21
4.41247
 31
0.0
  0
LINE
  8
0
 62
     0
 10
30.2562
 20
4.41247
 30
0.0
 11
30.0468
 21
4.63846
 31
0.0
  0
LINE
  8
0
 62
     0
 10
30.0468
 20
4.63846
 30
0.0
 11
29.9241
 21
4.79559
 31
0.0
  0
LINE
  8
0
 62
     0
 10
29.9241
 20
4.79559
 30
0.0
 11
29.9241
 21
4.84794
 31
0.0
  0
LINE
  8
0
 62
     0
 10
29.9241
 20
4.84794
 30
0.0
 11
29.9241
 21
4.85345
 31
0.0
  0
LINE
  8
0
 62
     0
 10
29.9241
 20
4.85345
 30
0.0
 11
29.9268
 21
4.85895
 31
0.0
  0
LINE
  8
0
 62
     0
 10
29.9268
 20
4.85895
 30
0.0
 11
30.0826
 21
4.95819
 31
0.0
  0
LINE
  8
0
 62
     0
 10
30.0826
 20
4.95819
 30
0.0
 11
30.106
 21
4.96919
 31
0.0
  0
LINE
  8
0
 62
     0
 10
30.106
 20
4.96919
 30
0.0
 11
30.1377
 21
4.98436
 31
0.0
  0
LINE
  8
0
 62
     0
 10
30.1377
 20
4.98436
 30
0.0
 11
30.2769
 21
5.09598
 31
0.0
  0
LINE
  8
0
 62
     0
 10
30.2769
 20
5.09598
 30
0.0
 11
30.2769
 21
5.09598
 31
0.0
  0
LINE
  8
0
 62
     0
 10
30.2769
 20
5.09598
 30
0.0
 11
30.2769
 21
5.10565
 31
0.0
  0
LINE
  8
0
 62
     0
 10
30.2769
 20
5.10565
 30
0.0
 11
30.2631
 21
5.13182
 31
0.0
  0
LINE
  8
0
 62
     0
 10
30.2631
 20
5.13182
 30
0.0
 11
30.2603
 21
5.13457
 31
0.0
  0
LINE
  8
0
 62
     0
 10
30.2603
 20
5.13457
 30
0.0
 11
30.2479
 21
5.14558
 31
0.0
  0
LINE
  8
0
 62
     0
 10
30.2479
 20
5.14558
 30
0.0
 11
30.0564
 21
5.23102
 31
0.0
  0
LINE
  8
0
 62
     0
 10
30.0564
 20
5.23102
 30
0.0
 11
29.8952
 21
5.29442
 31
0.0
  0
LINE
  8
0
 62
     0
 10
29.8952
 20
5.29442
 30
0.0
 11
29.8414
 21
5.29442
 31
0.0
  0
LINE
  8
0
 62
     0
 10
29.8414
 20
5.29442
 30
0.0
 11
29.8249
 21
5.29442
 31
0.0
  0
LINE
  8
0
 62
     0
 10
29.8249
 20
5.29442
 30
0.0
 11
29.7753
 21
5.34402
 31
0.0
  0
LINE
  8
0
 62
     0
 10
29.7753
 20
5.34402
 30
0.0
 11
29.7753
 21
5.36056
 31
0.0
  0
LINE
  8
0
 62
     0
 10
29.7753
 20
5.36056
 30
0.0
 11
29.7753
 21
5.49973
 31
0.0
  0
LINE
  8
0
 62
     0
 10
29.7753
 20
5.49973
 30
0.0
 11
29.9324
 21
5.87597
 31
0.0
  0
LINE
  8
0
 62
     0
 10
29.9324
 20
5.87597
 30
0.0
 11
29.9627
 21
5.91728
 31
0.0
  0
LINE
  8
0
 62
     0
 10
29.9627
 20
5.91728
 30
0.0
 11
29.9847
 21
5.94487
 31
0.0
  0
LINE
  8
0
 62
     0
 10
29.9847
 20
5.94487
 30
0.0
 11
30.27
 21
6.12676
 31
0.0
  0
LINE
  8
0
 62
     0
 10
30.27
 20
6.12676
 30
0.0
 11
30.3651
 21
6.12676
 31
0.0
  0
LINE
  8
0
 62
     0
 10
30.3651
 20
6.12676
 30
0.0
 11
30.3912
 21
6.12676
 31
0.0
  0
LINE
  8
0
 62
     0
 10
30.3912
 20
6.12676
 30
0.0
 11
30.4629
 21
6.10747
 31
0.0
  0
LINE
  8
0
 62
     0
 10
30.4629
 20
6.10747
 30
0.0
 11
30.4698
 21
6.10471
 31
0.0
  0
LINE
  8
0
 62
     0
 10
30.4698
 20
6.10471
 30
0.0
 11
30.5222
 21
6.08404
 31
0.0
  0
LINE
  8
0
 62
     0
 10
30.5222
 20
6.08404
 30
0.0
 11
30.7689
 21
5.77536
 31
0.0
  0
LINE
  8
0
 62
     0
 10
30.7689
 20
5.77536
 30
0.0
 11
30.9549
 21
5.32888
 31
0.0
  0
LINE
  8
0
 62
     0
 10
30.9549
 20
5.32888
 30
0.0
 11
30.9769
 21
5.23931
 31
0.0
  0
LINE
  8
0
 62
     0
 10
30.9769
 20
5.23931
 30
0.0
 11
30.9838
 21
5.20485
 31
0.0
  0
LINE
  8
0
 62
     0
 10
30.9838
 20
5.20485
 30
0.0
 11
31.021
 21
4.84244
 31
0.0
  0
LINE
  8
0
 62
     0
 10
31.021
 20
4.84244
 30
0.0
 11
31.021
 21
4.72115
 31
0.0
  0
LINE
  8
0
 62
     0
 10
31.021
 20
4.72115
 30
0.0
 11
31.021
 21
4.59024
 31
0.0
  0
LINE
  8
0
 62
     0
 10
31.021
 20
4.59024
 30
0.0
 11
30.9838
 21
4.23333
 31
0.0
  0
LINE
  8
0
 62
     0
 10
30.9838
 20
4.23333
 30
0.0
 11
30.9769
 21
4.19749
 31
0.0
  0
LINE
  8
0
 62
     0
 10
33.2645
 20
5.65824
 30
0.0
 11
33.2204
 21
5.56451
 31
0.0
  0
LINE
  8
0
 62
     0
 10
33.2204
 20
5.56451
 30
0.0
 11
33.1873
 21
5.79053
 31
0.0
  0
LINE
  8
0
 62
     0
 10
33.1873
 20
5.79053
 30
0.0
 11
33.1804
 21
5.82909
 31
0.0
  0
LINE
  8
0
 62
     0
 10
33.1804
 20
5.82909
 30
0.0
 11
33.1487
 21
6.17224
 31
0.0
  0
LINE
  8
0
 62
     0
 10
33.1487
 20
6.17224
 30
0.0
 11
33.1487
 21
6.28661
 31
0.0
  0
LINE
  8
0
 62
     0
 10
33.1487
 20
6.28661
 30
0.0
 11
33.1487
 21
6.36792
 31
0.0
  0
LINE
  8
0
 62
     0
 10
33.1487
 20
6.36792
 30
0.0
 11
33.1818
 21
6.6077
 31
0.0
  0
LINE
  8
0
 62
     0
 10
33.1818
 20
6.6077
 30
0.0
 11
33.2727
 21
6.83232
 31
0.0
  0
LINE
  8
0
 62
     0
 10
33.2727
 20
6.83232
 30
0.0
 11
33.303
 21
6.83232
 31
0.0
  0
LINE
  8
0
 62
     0
 10
33.303
 20
6.83232
 30
0.0
 11
33.3251
 21
6.83232
 31
0.0
  0
LINE
  8
0
 62
     0
 10
33.3251
 20
6.83232
 30
0.0
 11
33.394
 21
6.68348
 31
0.0
  0
LINE
  8
0
 62
     0
 10
33.394
 20
6.68348
 30
0.0
 11
33.4188
 21
6.45612
 31
0.0
  0
LINE
  8
0
 62
     0
 10
33.4188
 20
6.45612
 30
0.0
 11
33.4188
 21
6.3803
 31
0.0
  0
LINE
  8
0
 62
     0
 10
33.4188
 20
6.3803
 30
0.0
 11
33.4188
 21
6.29765
 31
0.0
  0
LINE
  8
0
 62
     0
 10
33.4188
 20
6.29765
 30
0.0
 11
33.4161
 21
6.26181
 31
0.0
  0
LINE
  8
0
 62
     0
 10
33.4161
 20
6.26181
 30
0.0
 11
33.3595
 21
5.94349
 31
0.0
  0
LINE
  8
0
 62
     0
 10
33.3595
 20
5.94349
 30
0.0
 11
33.3527
 21
5.91728
 31
0.0
  0
LINE
  8
0
 62
     0
 10
33.3527
 20
5.91728
 30
0.0
 11
33.2645
 21
5.65824
 31
0.0
  0
LINE
  8
0
 62
     0
 10
35.6969
 20
0.636655
 30
0.0
 11
35.7463
 21
0.581533
 31
0.0
  0
LINE
  8
0
 62
     0
 10
35.7463
 20
0.581533
 30
0.0
 11
36.3086
 21
0.283876
 31
0.0
  0
LINE
  8
0
 62
     0
 10
36.3086
 20
0.283876
 30
0.0
 11
36.4959
 21
0.283876
 31
0.0
  0
LINE
  8
0
 62
     0
 10
36.4959
 20
0.283876
 30
0.0
 11
36.5936
 21
0.283876
 31
0.0
  0
LINE
  8
0
 62
     0
 10
36.5936
 20
0.283876
 30
0.0
 11
36.8543
 21
0.338998
 31
0.0
  0
LINE
  8
0
 62
     0
 10
36.8543
 20
0.338998
 30
0.0
 11
36.8875
 21
0.350022
 31
0.0
  0
LINE
  8
0
 62
     0
 10
36.8875
 20
0.350022
 30
0.0
 11
36.9976
 21
0.391365
 31
0.0
  0
LINE
  8
0
 62
     0
 10
36.9976
 20
0.391365
 30
0.0
 11
37.6093
 21
0.80064
 31
0.0
  0
LINE
  8
0
 62
     0
 10
37.6093
 20
0.80064
 30
0.0
 11
38.2764
 21
1.47588
 31
0.0
  0
LINE
  8
0
 62
     0
 10
38.2764
 20
1.47588
 30
0.0
 11
38.4143
 21
1.65089
 31
0.0
  0
LINE
  8
0
 62
     0
 10
38.4143
 20
1.65089
 30
0.0
 11
38.4679
 21
1.71841
 31
0.0
  0
LINE
  8
0
 62
     0
 10
38.4679
 20
1.71841
 30
0.0
 11
38.6292
 21
1.91961
 31
0.0
  0
LINE
  8
0
 62
     0
 10
38.6292
 20
1.91961
 30
0.0
 11
38.8345
 21
2.18833
 31
0.0
  0
LINE
  8
0
 62
     0
 10
38.8345
 20
2.18833
 30
0.0
 11
39.0962
 21
2.55213
 31
0.0
  0
LINE
  8
0
 62
     0
 10
39.0962
 20
2.55213
 30
0.0
 11
39.3869
 21
2.96416
 31
0.0
  0
LINE
  8
0
 62
     0
 10
39.3869
 20
2.96416
 30
0.0
 11
39.4836
 21
3.10058
 31
0.0
  0
LINE
  8
0
 62
     0
 10
39.4836
 20
3.10058
 30
0.0
 11
39.5524
 21
3.20118
 31
0.0
  0
LINE
  8
0
 62
     0
 10
39.5524
 20
3.20118
 30
0.0
 11
39.8653
 21
3.65044
 31
0.0
  0
LINE
  8
0
 62
     0
 10
39.8653
 20
3.65044
 30
0.0
 11
40.0625
 21
3.92465
 31
0.0
  0
LINE
  8
0
 62
     0
 10
40.0625
 20
3.92465
 30
0.0
 11
40.0734
 21
3.93845
 31
0.0
  0
LINE
  8
0
 62
     0
 10
40.0734
 20
3.93845
 30
0.0
 11
40.0858
 21
3.95358
 31
0.0
  0
LINE
  8
0
 62
     0
 10
40.0858
 20
3.95358
 30
0.0
 11
40.1507
 21
4.04177
 31
0.0
  0
LINE
  8
0
 62
     0
 10
40.1507
 20
4.04177
 30
0.0
 11
40.1507
 21
4.07074
 31
0.0
  0
LINE
  8
0
 62
     0
 10
40.1507
 20
4.07074
 30
0.0
 11
40.1507
 21
4.09967
 31
0.0
  0
LINE
  8
0
 62
     0
 10
40.1507
 20
4.09967
 30
0.0
 11
40.0142
 21
4.18648
 31
0.0
  0
LINE
  8
0
 62
     0
 10
40.0142
 20
4.18648
 30
0.0
 11
39.9687
 21
4.18648
 31
0.0
  0
LINE
  8
0
 62
     0
 10
39.9687
 20
4.18648
 30
0.0
 11
39.9478
 21
4.18648
 31
0.0
  0
LINE
  8
0
 62
     0
 10
39.9478
 20
4.18648
 30
0.0
 11
39.8928
 21
4.14651
 31
0.0
  0
LINE
  8
0
 62
     0
 10
39.8928
 20
4.14651
 30
0.0
 11
39.8861
 21
4.14239
 31
0.0
  0
LINE
  8
0
 62
     0
 10
39.8861
 20
4.14239
 30
0.0
 11
39.8805
 21
4.13413
 31
0.0
  0
LINE
  8
0
 62
     0
 10
39.8805
 20
4.13413
 30
0.0
 11
39.6917
 21
3.87643
 31
0.0
  0
LINE
  8
0
 62
     0
 10
39.6917
 20
3.87643
 30
0.0
 11
39.3651
 21
3.4258
 31
0.0
  0
LINE
  8
0
 62
     0
 10
39.3651
 20
3.4258
 30
0.0
 11
39.2906
 21
3.32107
 31
0.0
  0
LINE
  8
0
 62
     0
 10
39.2906
 20
3.32107
 30
0.0
 11
39.1474
 21
3.11988
 31
0.0
  0
LINE
  8
0
 62
     0
 10
39.1474
 20
3.11988
 30
0.0
 11
38.5519
 21
2.30684
 31
0.0
  0
LINE
  8
0
 62
     0
 10
38.5519
 20
2.30684
 30
0.0
 11
38.1152
 21
1.73633
 31
0.0
  0
LINE
  8
0
 62
     0
 10
38.1152
 20
1.73633
 30
0.0
 11
38.0503
 21
1.6564
 31
0.0
  0
LINE
  8
0
 62
     0
 10
38.0503
 20
1.6564
 30
0.0
 11
37.998
 21
1.59301
 31
0.0
  0
LINE
  8
0
 62
     0
 10
37.998
 20
1.59301
 30
0.0
 11
37.3987
 21
1.01148
 31
0.0
  0
LINE
  8
0
 62
     0
 10
37.3987
 20
1.01148
 30
0.0
 11
37.3338
 21
0.96187
 31
0.0
  0
LINE
  8
0
 62
     0
 10
37.3338
 20
0.96187
 30
0.0
 11
37.2622
 21
0.909507
 31
0.0
  0
LINE
  8
0
 62
     0
 10
37.2622
 20
0.909507
 30
0.0
 11
36.4793
 21
0.547081
 31
0.0
  0
LINE
  8
0
 62
     0
 10
36.4793
 20
0.547081
 30
0.0
 11
36.3911
 21
0.531922
 31
0.0
  0
LINE
  8
0
 62
     0
 10
36.3911
 20
0.531922
 30
0.0
 11
36.3693
 21
0.531922
 31
0.0
  0
LINE
  8
0
 62
     0
 10
36.3693
 20
0.531922
 30
0.0
 11
36.3195
 21
0.520898
 31
0.0
  0
LINE
  8
0
 62
     0
 10
36.3195
 20
0.520898
 30
0.0
 11
36.3029
 21
0.520898
 31
0.0
  0
LINE
  8
0
 62
     0
 10
36.3029
 20
0.520898
 30
0.0
 11
36.2148
 21
0.520898
 31
0.0
  0
LINE
  8
0
 62
     0
 10
36.2148
 20
0.520898
 30
0.0
 11
35.953
 21
0.744142
 31
0.0
  0
LINE
  8
0
 62
     0
 10
35.953
 20
0.744142
 30
0.0
 11
35.8676
 21
1.1107
 31
0.0
  0
LINE
  8
0
 62
     0
 10
35.8676
 20
1.1107
 30
0.0
 11
35.8676
 21
1.23197
 31
0.0
  0
LINE
  8
0
 62
     0
 10
35.8676
 20
1.23197
 30
0.0
 11
35.8676
 21
1.38355
 31
0.0
  0
LINE
  8
0
 62
     0
 10
35.8676
 20
1.38355
 30
0.0
 11
35.9184
 21
1.80248
 31
0.0
  0
LINE
  8
0
 62
     0
 10
35.9184
 20
1.80248
 30
0.0
 11
35.9227
 21
1.8383
 31
0.0
  0
LINE
  8
0
 62
     0
 10
35.9227
 20
1.8383
 30
0.0
 11
35.935
 21
1.91961
 31
0.0
  0
LINE
  8
0
 62
     0
 10
35.935
 20
1.91961
 30
0.0
 11
36.1199
 21
2.72438
 31
0.0
  0
LINE
  8
0
 62
     0
 10
36.1199
 20
2.72438
 30
0.0
 11
36.1431
 21
2.80293
 31
0.0
  0
LINE
  8
0
 62
     0
 10
36.1431
 20
2.80293
 30
0.0
 11
36.1819
 21
2.93247
 31
0.0
  0
LINE
  8
0
 62
     0
 10
36.1819
 20
2.93247
 30
0.0
 11
36.6201
 21
4.19474
 31
0.0
  0
LINE
  8
0
 62
     0
 10
36.6201
 20
4.19474
 30
0.0
 11
36.667
 21
4.31878
 31
0.0
  0
LINE
  8
0
 62
     0
 10
36.667
 20
4.31878
 30
0.0
 11
36.8212
 21
4.70461
 31
0.0
  0
LINE
  8
0
 62
     0
 10
36.8212
 20
4.70461
 30
0.0
 11
36.9425
 21
4.74871
 31
0.0
  0
LINE
  8
0
 62
     0
 10
36.9425
 20
4.74871
 30
0.0
 11
37.0032
 21
4.768
 31
0.0
  0
LINE
  8
0
 62
     0
 10
37.0032
 20
4.768
 30
0.0
 11
37.5035
 21
5.03813
 31
0.0
  0
LINE
  8
0
 62
     0
 10
37.5035
 20
5.03813
 30
0.0
 11
38.1303
 21
5.45842
 31
0.0
  0
LINE
  8
0
 62
     0
 10
38.1303
 20
5.45842
 30
0.0
 11
38.2545
 21
5.5535
 31
0.0
  0
LINE
  8
0
 62
     0
 10
38.2545
 20
5.5535
 30
0.0
 11
38.45
 21
5.70371
 31
0.0
  0
LINE
  8
0
 62
     0
 10
38.45
 20
5.70371
 30
0.0
 11
39.0066
 21
6.19979
 31
0.0
  0
LINE
  8
0
 62
     0
 10
39.0066
 20
6.19979
 30
0.0
 11
39.715
 21
6.93568
 31
0.0
  0
LINE
  8
0
 62
     0
 10
39.715
 20
6.93568
 30
0.0
 11
40.3158
 21
7.69221
 31
0.0
  0
LINE
  8
0
 62
     0
 10
40.3158
 20
7.69221
 30
0.0
 11
40.659
 21
8.21863
 31
0.0
  0
LINE
  8
0
 62
     0
 10
40.659
 20
8.21863
 30
0.0
 11
40.7515
 21
8.40327
 31
0.0
  0
LINE
  8
0
 62
     0
 10
40.7515
 20
8.40327
 30
0.0
 11
40.8093
 21
8.51902
 31
0.0
  0
LINE
  8
0
 62
     0
 10
40.8093
 20
8.51902
 30
0.0
 11
41.0009
 21
9.0358
 31
0.0
  0
LINE
  8
0
 62
     0
 10
41.0009
 20
9.0358
 30
0.0
 11
41.0767
 21
9.46711
 31
0.0
  0
LINE
  8
0
 62
     0
 10
41.0767
 20
9.46711
 30
0.0
 11
41.0767
 21
9.61044
 31
0.0
  0
LINE
  8
0
 62
     0
 10
41.0767
 20
9.61044
 30
0.0
 11
41.0767
 21
9.71656
 31
0.0
  0
LINE
  8
0
 62
     0
 10
41.0767
 20
9.71656
 30
0.0
 11
41.0147
 21
10.0307
 31
0.0
  0
LINE
  8
0
 62
     0
 10
41.0147
 20
10.0307
 30
0.0
 11
40.8369
 21
10.3256
 31
0.0
  0
LINE
  8
0
 62
     0
 10
40.8369
 20
10.3256
 30
0.0
 11
40.779
 21
10.3711
 31
0.0
  0
LINE
  8
0
 62
     0
 10
40.779
 20
10.3711
 30
0.0
 11
40.7363
 21
10.4042
 31
0.0
  0
LINE
  8
0
 62
     0
 10
40.7363
 20
10.4042
 30
0.0
 11
40.3627
 21
10.564
 31
0.0
  0
LINE
  8
0
 62
     0
 10
40.3627
 20
10.564
 30
0.0
 11
40.2389
 21
10.564
 31
0.0
  0
LINE
  8
0
 62
     0
 10
40.2389
 20
10.564
 30
0.0
 11
40.0113
 21
10.564
 31
0.0
  0
LINE
  8
0
 62
     0
 10
40.0113
 20
10.564
 30
0.0
 11
39.3968
 21
10.2499
 31
0.0
  0
LINE
  8
0
 62
     0
 10
39.3968
 20
10.2499
 30
0.0
 11
39.3291
 21
10.2003
 31
0.0
  0
LINE
  8
0
 62
     0
 10
39.3291
 20
10.2003
 30
0.0
 11
39.2105
 21
10.1121
 31
0.0
  0
LINE
  8
0
 62
     0
 10
39.2105
 20
10.1121
 30
0.0
 11
38.8828
 21
9.81026
 31
0.0
  0
LINE
  8
0
 62
     0
 10
38.8828
 20
9.81026
 30
0.0
 11
38.4584
 21
9.30039
 31
0.0
  0
LINE
  8
0
 62
     0
 10
38.4584
 20
9.30039
 30
0.0
 11
38.0037
 21
8.60446
 31
0.0
  0
LINE
  8
0
 62
     0
 10
38.0037
 20
8.60446
 30
0.0
 11
37.5998
 21
7.89891
 31
0.0
  0
LINE
  8
0
 62
     0
 10
37.5998
 20
7.89891
 30
0.0
 11
37.4717
 21
7.65912
 31
0.0
  0
LINE
  8
0
 62
     0
 10
37.4717
 20
7.65912
 30
0.0
 11
37.3849
 21
7.49515
 31
0.0
  0
LINE
  8
0
 62
     0
 10
37.3849
 20
7.49515
 30
0.0
 11
36.5704
 21
5.82909
 31
0.0
  0
LINE
  8
0
 62
     0
 10
36.5704
 20
5.82909
 30
0.0
 11
36.4959
 21
5.65824
 31
0.0
  0
LINE
  8
0
 62
     0
 10
36.4959
 20
5.65824
 30
0.0
 11
36.4299
 21
5.51215
 31
0.0
  0
LINE
  8
0
 62
     0
 10
36.4299
 20
5.51215
 30
0.0
 11
35.8316
 21
4.01422
 31
0.0
  0
LINE
  8
0
 62
     0
 10
35.8316
 20
4.01422
 30
0.0
 11
35.7794
 21
3.86126
 31
0.0
  0
LINE
  8
0
 62
     0
 10
35.7794
 20
3.86126
 30
0.0
 11
35.7396
 21
3.73726
 31
0.0
  0
LINE
  8
0
 62
     0
 10
35.7396
 20
3.73726
 30
0.0
 11
35.4129
 21
2.4598
 31
0.0
  0
LINE
  8
0
 62
     0
 10
35.4129
 20
2.4598
 30
0.0
 11
35.3991
 21
2.32888
 31
0.0
  0
LINE
  8
0
 62
     0
 10
35.3991
 20
2.32888
 30
0.0
 11
35.3935
 21
2.2779
 31
0.0
  0
LINE
  8
0
 62
     0
 10
35.3935
 20
2.2779
 30
0.0
 11
35.3716
 21
1.84933
 31
0.0
  0
LINE
  8
0
 62
     0
 10
35.3716
 20
1.84933
 30
0.0
 11
35.3716
 21
1.70601
 31
0.0
  0
LINE
  8
0
 62
     0
 10
35.3716
 20
1.70601
 30
0.0
 11
35.3716
 21
1.62333
 31
0.0
  0
LINE
  8
0
 62
     0
 10
35.3716
 20
1.62333
 30
0.0
 11
35.3755
 21
1.40284
 31
0.0
  0
LINE
  8
0
 62
     0
 10
35.3755
 20
1.40284
 30
0.0
 11
35.3769
 21
1.37528
 31
0.0
  0
LINE
  8
0
 62
     0
 10
35.3769
 20
1.37528
 30
0.0
 11
35.3854
 21
1.305
 31
0.0
  0
LINE
  8
0
 62
     0
 10
35.3854
 20
1.305
 30
0.0
 11
35.6528
 21
0.684886
 31
0.0
  0
LINE
  8
0
 62
     0
 10
35.6528
 20
0.684886
 30
0.0
 11
35.6969
 21
0.636655
 31
0.0
  0
LINE
  8
0
 62
     0
 10
37.1464
 20
5.47631
 30
0.0
 11
37.2607
 21
5.73814
 31
0.0
  0
LINE
  8
0
 62
     0
 10
37.2607
 20
5.73814
 30
0.0
 11
37.8714
 21
7.07898
 31
0.0
  0
LINE
  8
0
 62
     0
 10
37.8714
 20
7.07898
 30
0.0
 11
38.4044
 21
8.18967
 31
0.0
  0
LINE
  8
0
 62
     0
 10
38.4044
 20
8.18967
 30
0.0
 11
38.4803
 21
8.33713
 31
0.0
  0
LINE
  8
0
 62
     0
 10
38.4803
 20
8.33713
 30
0.0
 11
38.5286
 21
8.43082
 31
0.0
  0
LINE
  8
0
 62
     0
 10
38.5286
 20
8.43082
 30
0.0
 11
39.0772
 21
9.31556
 31
0.0
  0
LINE
  8
0
 62
     0
 10
39.0772
 20
9.31556
 30
0.0
 11
39.1418
 21
9.39546
 31
0.0
  0
LINE
  8
0
 62
     0
 10
39.1418
 20
9.39546
 30
0.0
 11
39.201
 21
9.47265
 31
0.0
  0
LINE
  8
0
 62
     0
 10
39.201
 20
9.47265
 30
0.0
 11
39.5457
 21
9.86261
 31
0.0
  0
LINE
  8
0
 62
     0
 10
39.5457
 20
9.86261
 30
0.0
 11
39.9549
 21
10.1768
 31
0.0
  0
LINE
  8
0
 62
     0
 10
39.9549
 20
10.1768
 30
0.0
 11
40.0459
 21
10.2168
 31
0.0
  0
LINE
  8
0
 62
     0
 10
40.0459
 20
10.2168
 30
0.0
 11
40.0692
 21
10.2264
 31
0.0
  0
LINE
  8
0
 62
     0
 10
40.0692
 20
10.2264
 30
0.0
 11
40.3243
 21
10.316
 31
0.0
  0
LINE
  8
0
 62
     0
 10
40.3243
 20
10.316
 30
0.0
 11
40.4096
 21
10.316
 31
0.0
  0
LINE
  8
0
 62
     0
 10
40.4096
 20
10.316
 30
0.0
 11
40.4551
 21
10.316
 31
0.0
  0
LINE
  8
0
 62
     0
 10
40.4551
 20
10.316
 30
0.0
 11
40.579
 21
10.2609
 31
0.0
  0
LINE
  8
0
 62
     0
 10
40.579
 20
10.2609
 30
0.0
 11
40.5917
 21
10.2499
 31
0.0
  0
LINE
  8
0
 62
     0
 10
40.5917
 20
10.2499
 30
0.0
 11
40.6178
 21
10.2209
 31
0.0
  0
LINE
  8
0
 62
     0
 10
40.6178
 20
10.2209
 30
0.0
 11
40.7515
 21
9.85435
 31
0.0
  0
LINE
  8
0
 62
     0
 10
40.7515
 20
9.85435
 30
0.0
 11
40.7515
 21
9.73169
 31
0.0
  0
LINE
  8
0
 62
     0
 10
40.7515
 20
9.73169
 30
0.0
 11
40.7515
 21
9.46161
 31
0.0
  0
LINE
  8
0
 62
     0
 10
40.7515
 20
9.46161
 30
0.0
 11
40.5021
 21
8.74917
 31
0.0
  0
LINE
  8
0
 62
     0
 10
40.5021
 20
8.74917
 30
0.0
 11
40.4537
 21
8.65131
 31
0.0
  0
LINE
  8
0
 62
     0
 10
40.4537
 20
8.65131
 30
0.0
 11
40.4001
 21
8.54523
 31
0.0
  0
LINE
  8
0
 62
     0
 10
40.4001
 20
8.54523
 30
0.0
 11
40.0611
 21
7.99814
 31
0.0
  0
LINE
  8
0
 62
     0
 10
40.0611
 20
7.99814
 30
0.0
 11
39.6064
 21
7.39592
 31
0.0
  0
LINE
  8
0
 62
     0
 10
39.6064
 20
7.39592
 30
0.0
 11
39.4945
 21
7.26225
 31
0.0
  0
LINE
  8
0
 62
     0
 10
39.4945
 20
7.26225
 30
0.0
 11
39.3319
 21
7.07072
 31
0.0
  0
LINE
  8
0
 62
     0
 10
39.3319
 20
7.07072
 30
0.0
 11
38.4637
 21
6.20254
 31
0.0
  0
LINE
  8
0
 62
     0
 10
38.4637
 20
6.20254
 30
0.0
 11
37.5447
 21
5.46806
 31
0.0
  0
LINE
  8
0
 62
     0
 10
37.5447
 20
5.46806
 30
0.0
 11
37.356
 21
5.34402
 31
0.0
  0
LINE
  8
0
 62
     0
 10
37.356
 20
5.34402
 30
0.0
 11
37.3172
 21
5.31922
 31
0.0
  0
LINE
  8
0
 62
     0
 10
37.3172
 20
5.31922
 30
0.0
 11
37.0374
 21
5.1277
 31
0.0
  0
LINE
  8
0
 62
     0
 10
37.0374
 20
5.1277
 30
0.0
 11
37.0307
 21
5.12353
 31
0.0
  0
LINE
  8
0
 62
     0
 10
37.0307
 20
5.12353
 30
0.0
 11
37.0279
 21
5.12078
 31
0.0
  0
LINE
  8
0
 62
     0
 10
37.0279
 20
5.12078
 30
0.0
 11
37.0085
 21
5.11253
 31
0.0
  0
LINE
  8
0
 62
     0
 10
37.0085
 20
5.11253
 30
0.0
 11
37.0085
 21
5.11253
 31
0.0
  0
LINE
  8
0
 62
     0
 10
37.0085
 20
5.11253
 30
0.0
 11
37.0085
 21
5.11253
 31
0.0
  0
LINE
  8
0
 62
     0
 10
37.0085
 20
5.11253
 30
0.0
 11
37.0032
 21
5.12078
 31
0.0
  0
LINE
  8
0
 62
     0
 10
37.0032
 20
5.12078
 30
0.0
 11
37.0032
 21
5.12353
 31
0.0
  0
LINE
  8
0
 62
     0
 10
37.0032
 20
5.12353
 30
0.0
 11
37.0032
 21
5.21173
 31
0.0
  0
LINE
  8
0
 62
     0
 10
37.0032
 20
5.21173
 30
0.0
 11
37.1203
 21
5.41708
 31
0.0
  0
LINE
  8
0
 62
     0
 10
37.1203
 20
5.41708
 30
0.0
 11
37.1464
 21
5.47631
 31
0.0
  0
LINE
  8
0
 62
     0
 10
40.331
 20
1.72806
 30
0.0
 11
40.3461
 21
1.72255
 31
0.0
  0
LINE
  8
0
 62
     0
 10
40.3461
 20
1.72255
 30
0.0
 11
40.4703
 21
1.70601
 31
0.0
  0
LINE
  8
0
 62
     0
 10
40.4703
 20
1.70601
 30
0.0
 11
40.513
 21
1.70601
 31
0.0
  0
LINE
  8
0
 62
     0
 10
40.513
 20
1.70601
 30
0.0
 11
40.5998
 21
1.70601
 31
0.0
  0
LINE
  8
0
 62
     0
 10
40.5998
 20
1.70601
 30
0.0
 11
40.834
 21
1.76113
 31
0.0
  0
LINE
  8
0
 62
     0
 10
40.834
 20
1.76113
 30
0.0
 11
40.8601
 21
1.77216
 31
0.0
  0
LINE
  8
0
 62
     0
 10
40.8601
 20
1.77216
 30
0.0
 11
40.8961
 21
1.78732
 31
0.0
  0
LINE
  8
0
 62
     0
 10
40.8961
 20
1.78732
 30
0.0
 11
41.2228
 21
2.02158
 31
0.0
  0
LINE
  8
0
 62
     0
 10
41.2228
 20
2.02158
 30
0.0
 11
41.2517
 21
2.04777
 31
0.0
  0
LINE
  8
0
 62
     0
 10
41.2517
 20
2.04777
 30
0.0
 11
41.3135
 21
2.1084
 31
0.0
  0
LINE
  8
0
 62
     0
 10
41.3135
 20
2.1084
 30
0.0
 11
41.559
 21
2.38952
 31
0.0
  0
LINE
  8
0
 62
     0
 10
41.559
 20
2.38952
 30
0.0
 11
41.7766
 21
2.69958
 31
0.0
  0
LINE
  8
0
 62
     0
 10
41.7766
 20
2.69958
 30
0.0
 11
41.825
 21
2.77537
 31
0.0
  0
LINE
  8
0
 62
     0
 10
41.825
 20
2.77537
 30
0.0
 11
41.8387
 21
2.79742
 31
0.0
  0
LINE
  8
0
 62
     0
 10
41.8387
 20
2.79742
 30
0.0
 11
41.9294
 21
2.93522
 31
0.0
  0
LINE
  8
0
 62
     0
 10
41.9294
 20
2.93522
 30
0.0
 11
41.9294
 21
2.93522
 31
0.0
  0
LINE
  8
0
 62
     0
 10
41.9294
 20
2.93522
 30
0.0
 11
41.9294
 21
2.92971
 31
0.0
  0
LINE
  8
0
 62
     0
 10
41.9294
 20
2.92971
 30
0.0
 11
41.9269
 21
2.9242
 31
0.0
  0
LINE
  8
0
 62
     0
 10
41.9269
 20
2.9242
 30
0.0
 11
41.8994
 21
2.60036
 31
0.0
  0
LINE
  8
0
 62
     0
 10
41.8994
 20
2.60036
 30
0.0
 11
41.8966
 21
2.55488
 31
0.0
  0
LINE
  8
0
 62
     0
 10
41.8966
 20
2.55488
 30
0.0
 11
41.8966
 21
2.42259
 31
0.0
  0
LINE
  8
0
 62
     0
 10
41.8966
 20
2.42259
 30
0.0
 11
41.8966
 21
2.19935
 31
0.0
  0
LINE
  8
0
 62
     0
 10
41.8966
 20
2.19935
 30
0.0
 11
42.0303
 21
1.52687
 31
0.0
  0
LINE
  8
0
 62
     0
 10
42.0303
 20
1.52687
 30
0.0
 11
42.4448
 21
0.920531
 31
0.0
  0
LINE
  8
0
 62
     0
 10
42.4448
 20
0.920531
 30
0.0
 11
42.5856
 21
0.846116
 31
0.0
  0
LINE
  8
0
 62
     0
 10
42.5856
 20
0.846116
 30
0.0
 11
42.6254
 21
0.826823
 31
0.0
  0
LINE
  8
0
 62
     0
 10
42.6254
 20
0.826823
 30
0.0
 11
42.9839
 21
0.724849
 31
0.0
  0
LINE
  8
0
 62
     0
 10
42.9839
 20
0.724849
 30
0.0
 11
43.1038
 21
0.724849
 31
0.0
  0
LINE
  8
0
 62
     0
 10
43.1038
 20
0.724849
 30
0.0
 11
43.1504
 21
0.724849
 31
0.0
  0
LINE
  8
0
 62
     0
 10
43.1504
 20
0.724849
 30
0.0
 11
43.2745
 21
0.740008
 31
0.0
  0
LINE
  8
0
 62
     0
 10
43.2745
 20
0.740008
 30
0.0
 11
43.2911
 21
0.741384
 31
0.0
  0
LINE
  8
0
 62
     0
 10
43.2911
 20
0.741384
 30
0.0
 11
43.3627
 21
0.756543
 31
0.0
  0
LINE
  8
0
 62
     0
 10
43.3627
 20
0.756543
 30
0.0
 11
43.9237
 21
1.16858
 31
0.0
  0
LINE
  8
0
 62
     0
 10
43.9237
 20
1.16858
 30
0.0
 11
43.9692
 21
1.22094
 31
0.0
  0
LINE
  8
0
 62
     0
 10
43.9692
 20
1.22094
 30
0.0
 11
44.0545
 21
1.32292
 31
0.0
  0
LINE
  8
0
 62
     0
 10
44.0545
 20
1.32292
 30
0.0
 11
44.7753
 21
2.44051
 31
0.0
  0
LINE
  8
0
 62
     0
 10
44.7753
 20
2.44051
 30
0.0
 11
44.8398
 21
2.55488
 31
0.0
  0
LINE
  8
0
 62
     0
 10
44.8398
 20
2.55488
 30
0.0
 11
44.8758
 21
2.62378
 31
0.0
  0
LINE
  8
0
 62
     0
 10
44.8758
 20
2.62378
 30
0.0
 11
45.0508
 21
2.949
 31
0.0
  0
LINE
  8
0
 62
     0
 10
45.0508
 20
2.949
 30
0.0
 11
45.1803
 21
3.175
 31
0.0
  0
LINE
  8
0
 62
     0
 10
45.1803
 20
3.175
 30
0.0
 11
45.1926
 21
3.19429
 31
0.0
  0
LINE
  8
0
 62
     0
 10
45.1926
 20
3.19429
 30
0.0
 11
45.23
 21
3.26319
 31
0.0
  0
LINE
  8
0
 62
     0
 10
45.23
 20
3.26319
 30
0.0
 11
45.4572
 21
3.70829
 31
0.0
  0
LINE
  8
0
 62
     0
 10
45.4572
 20
3.70829
 30
0.0
 11
45.6117
 21
3.96049
 31
0.0
  0
LINE
  8
0
 62
     0
 10
45.6117
 20
3.96049
 30
0.0
 11
45.6117
 21
4.04315
 31
0.0
  0
LINE
  8
0
 62
     0
 10
45.6117
 20
4.04315
 30
0.0
 11
45.6117
 21
4.0652
 31
0.0
  0
LINE
  8
0
 62
     0
 10
45.6117
 20
4.0652
 30
0.0
 11
45.4586
 21
4.12584
 31
0.0
  0
LINE
  8
0
 62
     0
 10
45.4586
 20
4.12584
 30
0.0
 11
45.4297
 21
4.13135
 31
0.0
  0
LINE
  8
0
 62
     0
 10
45.4297
 20
4.13135
 30
0.0
 11
45.4021
 21
4.13135
 31
0.0
  0
LINE
  8
0
 62
     0
 10
45.4021
 20
4.13135
 30
0.0
 11
45.387
 21
4.13135
 31
0.0
  0
LINE
  8
0
 62
     0
 10
45.387
 20
4.13135
 30
0.0
 11
45.3429
 21
4.09141
 31
0.0
  0
LINE
  8
0
 62
     0
 10
45.3429
 20
4.09141
 30
0.0
 11
45.2575
 21
3.94533
 31
0.0
  0
LINE
  8
0
 62
     0
 10
45.2575
 20
3.94533
 30
0.0
 11
45.2314
 21
3.89435
 31
0.0
  0
LINE
  8
0
 62
     0
 10
45.2314
 20
3.89435
 30
0.0
 11
45.212
 21
3.85851
 31
0.0
  0
LINE
  8
0
 62
     0
 10
45.212
 20
3.85851
 30
0.0
 11
45.0603
 21
3.59117
 31
0.0
  0
LINE
  8
0
 62
     0
 10
45.0603
 20
3.59117
 30
0.0
 11
44.88
 21
3.27973
 31
0.0
  0
LINE
  8
0
 62
     0
 10
44.88
 20
3.27973
 30
0.0
 11
44.8455
 21
3.22185
 31
0.0
  0
LINE
  8
0
 62
     0
 10
44.8455
 20
3.22185
 30
0.0
 11
44.8151
 21
3.16536
 31
0.0
  0
LINE
  8
0
 62
     0
 10
44.8151
 20
3.16536
 30
0.0
 11
44.643
 21
2.84289
 31
0.0
  0
LINE
  8
0
 62
     0
 10
44.643
 20
2.84289
 30
0.0
 11
44.487
 21
2.55488
 31
0.0
  0
LINE
  8
0
 62
     0
 10
44.487
 20
2.55488
 30
0.0
 11
44.4652
 21
2.5163
 31
0.0
  0
LINE
  8
0
 62
     0
 10
44.4652
 20
2.5163
 30
0.0
 11
44.3509
 21
2.30959
 31
0.0
  0
LINE
  8
0
 62
     0
 10
44.3509
 20
2.30959
 30
0.0
 11
43.7677
 21
1.43454
 31
0.0
  0
LINE
  8
0
 62
     0
 10
43.7677
 20
1.43454
 30
0.0
 11
43.1945
 21
0.972894
 31
0.0
  0
LINE
  8
0
 62
     0
 10
43.1945
 20
0.972894
 30
0.0
 11
43.0043
 21
0.972894
 31
0.0
  0
LINE
  8
0
 62
     0
 10
43.0043
 20
0.972894
 30
0.0
 11
42.9782
 21
0.972894
 31
0.0
  0
LINE
  8
0
 62
     0
 10
42.9782
 20
0.972894
 30
0.0
 11
42.9094
 21
0.981163
 31
0.0
  0
LINE
  8
0
 62
     0
 10
42.9094
 20
0.981163
 30
0.0
 11
42.8995
 21
0.983918
 31
0.0
  0
LINE
  8
0
 62
     0
 10
42.8995
 20
0.983918
 30
0.0
 11
42.8212
 21
0.994943
 31
0.0
  0
LINE
  8
0
 62
     0
 10
42.8212
 20
0.994943
 30
0.0
 11
42.5662
 21
1.31741
 31
0.0
  0
LINE
  8
0
 62
     0
 10
42.5662
 20
1.31741
 30
0.0
 11
42.4656
 21
1.82315
 31
0.0
  0
LINE
  8
0
 62
     0
 10
42.4656
 20
1.82315
 30
0.0
 11
42.4642
 21
1.9265
 31
0.0
  0
LINE
  8
0
 62
     0
 10
42.4642
 20
1.9265
 30
0.0
 11
42.4642
 21
2.04777
 31
0.0
  0
LINE
  8
0
 62
     0
 10
42.4642
 20
2.04777
 30
0.0
 11
42.4642
 21
2.24758
 31
0.0
  0
LINE
  8
0
 62
     0
 10
42.4642
 20
2.24758
 30
0.0
 11
42.5524
 21
2.84289
 31
0.0
  0
LINE
  8
0
 62
     0
 10
42.5524
 20
2.84289
 30
0.0
 11
42.7881
 21
3.70417
 31
0.0
  0
LINE
  8
0
 62
     0
 10
42.7881
 20
3.70417
 30
0.0
 11
42.8611
 21
3.9219
 31
0.0
  0
LINE
  8
0
 62
     0
 10
42.8611
 20
3.9219
 30
0.0
 11
42.9659
 21
4.24713
 31
0.0
  0
LINE
  8
0
 62
     0
 10
42.9659
 20
4.24713
 30
0.0
 11
43.247
 21
4.37942
 31
0.0
  0
LINE
  8
0
 62
     0
 10
43.247
 20
4.37942
 30
0.0
 11
43.3709
 21
4.4414
 31
0.0
  0
LINE
  8
0
 62
     0
 10
43.3709
 20
4.4414
 30
0.0
 11
43.9843
 21
4.83828
 31
0.0
  0
LINE
  8
0
 62
     0
 10
43.9843
 20
4.83828
 30
0.0
 11
44.6511
 21
5.3909
 31
0.0
  0
LINE
  8
0
 62
     0
 10
44.6511
 20
5.3909
 30
0.0
 11
44.8014
 21
5.53145
 31
0.0
  0
LINE
  8
0
 62
     0
 10
44.8014
 20
5.53145
 30
0.0
 11
44.9986
 21
5.72022
 31
0.0
  0
LINE
  8
0
 62
     0
 10
44.9986
 20
5.72022
 30
0.0
 11
45.8833
 21
6.70003
 31
0.0
  0
LINE
  8
0
 62
     0
 10
45.8833
 20
6.70003
 30
0.0
 11
46.5899
 21
7.66879
 31
0.0
  0
LINE
  8
0
 62
     0
 10
46.5899
 20
7.66879
 30
0.0
 11
46.6975
 21
7.85206
 31
0.0
  0
LINE
  8
0
 62
     0
 10
46.6975
 20
7.85206
 30
0.0
 11
46.736
 21
7.9182
 31
0.0
  0
LINE
  8
0
 62
     0
 10
46.736
 20
7.9182
 30
0.0
 11
46.9456
 21
8.32474
 31
0.0
  0
LINE
  8
0
 62
     0
 10
46.9456
 20
8.32474
 30
0.0
 11
47.111
 21
8.69957
 31
0.0
  0
LINE
  8
0
 62
     0
 10
47.111
 20
8.69957
 30
0.0
 11
47.1276
 21
8.75055
 31
0.0
  0
LINE
  8
0
 62
     0
 10
47.1276
 20
8.75055
 30
0.0
 11
47.1442
 21
8.7974
 31
0.0
  0
LINE
  8
0
 62
     0
 10
47.1442
 20
8.7974
 30
0.0
 11
47.2433
 21
9.22182
 31
0.0
  0
LINE
  8
0
 62
     0
 10
47.2433
 20
9.22182
 30
0.0
 11
47.2433
 21
9.3624
 31
0.0
  0
LINE
  8
0
 62
     0
 10
47.2433
 20
9.3624
 30
0.0
 11
47.2433
 21
9.42855
 31
0.0
  0
LINE
  8
0
 62
     0
 10
47.2433
 20
9.42855
 30
0.0
 11
47.22
 21
9.60494
 31
0.0
  0
LINE
  8
0
 62
     0
 10
47.22
 20
9.60494
 30
0.0
 11
47.2158
 21
9.62699
 31
0.0
  0
LINE
  8
0
 62
     0
 10
47.2158
 20
9.62699
 30
0.0
 11
47.1964
 21
9.70827
 31
0.0
  0
LINE
  8
0
 62
     0
 10
47.1964
 20
9.70827
 30
0.0
 11
46.9593
 21
9.98389
 31
0.0
  0
LINE
  8
0
 62
     0
 10
46.9593
 20
9.98389
 30
0.0
 11
46.634
 21
10.0955
 31
0.0
  0
LINE
  8
0
 62
     0
 10
46.634
 20
10.0955
 30
0.0
 11
46.5268
 21
10.0955
 31
0.0
  0
LINE
  8
0
 62
     0
 10
46.5268
 20
10.0955
 30
0.0
 11
46.422
 21
10.0955
 31
0.0
  0
LINE
  8
0
 62
     0
 10
46.422
 20
10.0955
 30
0.0
 11
46.1409
 21
10.0225
 31
0.0
  0
LINE
  8
0
 62
     0
 10
46.1409
 20
10.0225
 30
0.0
 11
46.1077
 21
10.0073
 31
0.0
  0
LINE
  8
0
 62
     0
 10
46.1077
 20
10.0073
 30
0.0
 11
46.0456
 21
9.98114
 31
0.0
  0
LINE
  8
0
 62
     0
 10
46.0456
 20
9.98114
 30
0.0
 11
45.751
 21
9.80613
 31
0.0
  0
LINE
  8
0
 62
     0
 10
45.751
 20
9.80613
 30
0.0
 11
45.4215
 21
9.53188
 31
0.0
  0
LINE
  8
0
 62
     0
 10
45.4215
 20
9.53188
 30
0.0
 11
45.3415
 21
9.4561
 31
0.0
  0
LINE
  8
0
 62
     0
 10
45.3415
 20
9.4561
 30
0.0
 11
45.2067
 21
9.31968
 31
0.0
  0
LINE
  8
0
 62
     0
 10
45.2067
 20
9.31968
 30
0.0
 11
44.5505
 21
8.52456
 31
0.0
  0
LINE
  8
0
 62
     0
 10
44.5505
 20
8.52456
 30
0.0
 11
43.9057
 21
7.55304
 31
0.0
  0
LINE
  8
0
 62
     0
 10
43.9057
 20
7.55304
 30
0.0
 11
43.7762
 21
7.32839
 31
0.0
  0
LINE
  8
0
 62
     0
 10
43.7762
 20
7.32839
 30
0.0
 11
43.6947
 21
7.18372
 31
0.0
  0
LINE
  8
0
 62
     0
 10
43.6947
 20
7.18372
 30
0.0
 11
43.458
 21
6.7455
 31
0.0
  0
LINE
  8
0
 62
     0
 10
43.458
 20
6.7455
 30
0.0
 11
43.0982
 21
6.06474
 31
0.0
  0
LINE
  8
0
 62
     0
 10
43.0982
 20
6.06474
 30
0.0
 11
42.7852
 21
5.45289
 31
0.0
  0
LINE
  8
0
 62
     0
 10
42.7852
 20
5.45289
 30
0.0
 11
42.635
 21
5.14283
 31
0.0
  0
LINE
  8
0
 62
     0
 10
42.635
 20
5.14283
 30
0.0
 11
42.6074
 21
5.07393
 31
0.0
  0
LINE
  8
0
 62
     0
 10
42.6074
 20
5.07393
 30
0.0
 11
42.569
 21
4.98023
 31
0.0
  0
LINE
  8
0
 62
     0
 10
42.569
 20
4.98023
 30
0.0
 11
42.5468
 21
5.10148
 31
0.0
  0
LINE
  8
0
 62
     0
 10
42.5468
 20
5.10148
 30
0.0
 11
42.5344
 21
5.14974
 31
0.0
  0
LINE
  8
0
 62
     0
 10
42.5344
 20
5.14974
 30
0.0
 11
42.2811
 21
5.61689
 31
0.0
  0
LINE
  8
0
 62
     0
 10
42.2811
 20
5.61689
 30
0.0
 11
42.2437
 21
5.6472
 31
0.0
  0
LINE
  8
0
 62
     0
 10
42.2437
 20
5.6472
 30
0.0
 11
42.1982
 21
5.68029
 31
0.0
  0
LINE
  8
0
 62
     0
 10
42.1982
 20
5.68029
 30
0.0
 11
41.752
 21
5.85668
 31
0.0
  0
LINE
  8
0
 62
     0
 10
41.752
 20
5.85668
 30
0.0
 11
41.6045
 21
5.85668
 31
0.0
  0
LINE
  8
0
 62
     0
 10
41.6045
 20
5.85668
 30
0.0
 11
41.4898
 21
5.85668
 31
0.0
  0
LINE
  8
0
 62
     0
 10
41.4898
 20
5.85668
 30
0.0
 11
41.1826
 21
5.76848
 31
0.0
  0
LINE
  8
0
 62
     0
 10
41.1826
 20
5.76848
 30
0.0
 11
41.1469
 21
5.75194
 31
0.0
  0
LINE
  8
0
 62
     0
 10
41.1469
 20
5.75194
 30
0.0
 11
41.0587
 21
5.70921
 31
0.0
  0
LINE
  8
0
 62
     0
 10
41.0587
 20
5.70921
 30
0.0
 11
40.3338
 21
5.02296
 31
0.0
  0
LINE
  8
0
 62
     0
 10
40.3338
 20
5.02296
 30
0.0
 11
40.2759
 21
4.94164
 31
0.0
  0
LINE
  8
0
 62
     0
 10
40.2759
 20
4.94164
 30
0.0
 11
40.1602
 21
4.77076
 31
0.0
  0
LINE
  8
0
 62
     0
 10
40.1602
 20
4.77076
 30
0.0
 11
40.0706
 21
4.62333
 31
0.0
  0
LINE
  8
0
 62
     0
 10
40.0706
 20
4.62333
 30
0.0
 11
39.7439
 21
3.85438
 31
0.0
  0
LINE
  8
0
 62
     0
 10
39.7439
 20
3.85438
 30
0.0
 11
39.5979
 21
3.18189
 31
0.0
  0
LINE
  8
0
 62
     0
 10
39.5979
 20
3.18189
 30
0.0
 11
39.5979
 21
2.95727
 31
0.0
  0
LINE
  8
0
 62
     0
 10
39.5979
 20
2.95727
 30
0.0
 11
39.5979
 21
2.77537
 31
0.0
  0
LINE
  8
0
 62
     0
 10
39.5979
 20
2.77537
 30
0.0
 11
39.7178
 21
2.28065
 31
0.0
  0
LINE
  8
0
 62
     0
 10
39.7178
 20
2.28065
 30
0.0
 11
39.7411
 21
2.22966
 31
0.0
  0
LINE
  8
0
 62
     0
 10
39.7411
 20
2.22966
 30
0.0
 11
39.7701
 21
2.16765
 31
0.0
  0
LINE
  8
0
 62
     0
 10
39.7701
 20
2.16765
 30
0.0
 11
40.2678
 21
1.74597
 31
0.0
  0
LINE
  8
0
 62
     0
 10
40.2678
 20
1.74597
 30
0.0
 11
40.331
 21
1.72806
 31
0.0
  0
LINE
  8
0
 62
     0
 10
44.4377
 20
7.33944
 30
0.0
 11
44.5258
 21
7.50616
 31
0.0
  0
LINE
  8
0
 62
     0
 10
44.5258
 20
7.50616
 30
0.0
 11
45.3581
 21
8.85804
 31
0.0
  0
LINE
  8
0
 62
     0
 10
45.3581
 20
8.85804
 30
0.0
 11
45.4462
 21
8.97654
 31
0.0
  0
LINE
  8
0
 62
     0
 10
45.4462
 20
8.97654
 30
0.0
 11
45.4918
 21
9.03443
 31
0.0
  0
LINE
  8
0
 62
     0
 10
45.4918
 20
9.03443
 30
0.0
 11
45.9839
 21
9.58152
 31
0.0
  0
LINE
  8
0
 62
     0
 10
45.9839
 20
9.58152
 30
0.0
 11
46.0417
 21
9.62699
 31
0.0
  0
LINE
  8
0
 62
     0
 10
46.0417
 20
9.62699
 30
0.0
 11
46.0745
 21
9.65316
 31
0.0
  0
LINE
  8
0
 62
     0
 10
46.0745
 20
9.65316
 30
0.0
 11
46.3063
 21
9.802
 31
0.0
  0
LINE
  8
0
 62
     0
 10
46.3063
 20
9.802
 30
0.0
 11
46.542
 21
9.89708
 31
0.0
  0
LINE
  8
0
 62
     0
 10
46.542
 20
9.89708
 30
0.0
 11
46.6203
 21
9.89708
 31
0.0
  0
LINE
  8
0
 62
     0
 10
46.6203
 20
9.89708
 30
0.0
 11
46.6644
 21
9.89708
 31
0.0
  0
LINE
  8
0
 62
     0
 10
46.6644
 20
9.89708
 30
0.0
 11
46.7843
 21
9.8461
 31
0.0
  0
LINE
  8
0
 62
     0
 10
46.7843
 20
9.8461
 30
0.0
 11
46.7967
 21
9.83643
 31
0.0
  0
LINE
  8
0
 62
     0
 10
46.7967
 20
9.83643
 30
0.0
 11
46.8203
 21
9.81714
 31
0.0
  0
LINE
  8
0
 62
     0
 10
46.8203
 20
9.81714
 30
0.0
 11
46.929
 21
9.55947
 31
0.0
  0
LINE
  8
0
 62
     0
 10
46.929
 20
9.55947
 30
0.0
 11
46.929
 21
9.47265
 31
0.0
  0
LINE
  8
0
 62
     0
 10
46.929
 20
9.47265
 30
0.0
 11
46.929
 21
9.23974
 31
0.0
  0
LINE
  8
0
 62
     0
 10
46.929
 20
9.23974
 30
0.0
 11
46.7251
 21
8.63618
 31
0.0
  0
LINE
  8
0
 62
     0
 10
46.7251
 20
8.63618
 30
0.0
 11
46.6866
 21
8.54107
 31
0.0
  0
LINE
  8
0
 62
     0
 10
46.6866
 20
8.54107
 30
0.0
 11
46.6273
 21
8.39227
 31
0.0
  0
LINE
  8
0
 62
     0
 10
46.6273
 20
8.39227
 30
0.0
 11
46.2001
 21
7.60952
 31
0.0
  0
LINE
  8
0
 62
     0
 10
46.2001
 20
7.60952
 30
0.0
 11
45.6173
 21
6.79372
 31
0.0
  0
LINE
  8
0
 62
     0
 10
45.6173
 20
6.79372
 30
0.0
 11
45.4794
 21
6.62838
 31
0.0
  0
LINE
  8
0
 62
     0
 10
45.4794
 20
6.62838
 30
0.0
 11
45.3376
 21
6.46437
 31
0.0
  0
LINE
  8
0
 62
     0
 10
45.3376
 20
6.46437
 30
0.0
 11
44.5202
 21
5.64444
 31
0.0
  0
LINE
  8
0
 62
     0
 10
44.5202
 20
5.64444
 30
0.0
 11
43.6809
 21
4.94164
 31
0.0
  0
LINE
  8
0
 62
     0
 10
43.6809
 20
4.94164
 30
0.0
 11
43.5282
 21
4.8369
 31
0.0
  0
LINE
  8
0
 62
     0
 10
43.5282
 20
4.8369
 30
0.0
 11
43.4841
 21
4.80522
 31
0.0
  0
LINE
  8
0
 62
     0
 10
43.4841
 20
4.80522
 30
0.0
 11
43.2537
 21
4.66051
 31
0.0
  0
LINE
  8
0
 62
     0
 10
43.2537
 20
4.66051
 30
0.0
 11
43.1327
 21
4.57786
 31
0.0
  0
LINE
  8
0
 62
     0
 10
43.1327
 20
4.57786
 30
0.0
 11
43.0925
 21
4.57786
 31
0.0
  0
LINE
  8
0
 62
     0
 10
43.0925
 20
4.57786
 30
0.0
 11
43.0925
 21
4.66467
 31
0.0
  0
LINE
  8
0
 62
     0
 10
43.0925
 20
4.66467
 30
0.0
 11
43.2347
 21
4.92234
 31
0.0
  0
LINE
  8
0
 62
     0
 10
43.2347
 20
4.92234
 30
0.0
 11
43.5846
 21
5.65961
 31
0.0
  0
LINE
  8
0
 62
     0
 10
43.5846
 20
5.65961
 30
0.0
 11
44.0242
 21
6.54706
 31
0.0
  0
LINE
  8
0
 62
     0
 10
44.0242
 20
6.54706
 30
0.0
 11
44.3315
 21
7.14375
 31
0.0
  0
LINE
  8
0
 62
     0
 10
44.3315
 20
7.14375
 30
0.0
 11
44.4377
 21
7.33944
 31
0.0
  0
LINE
  8
0
 62
     0
 10
40.4467
 20
3.81716
 30
0.0
 11
40.5035
 21
3.98254
 31
0.0
  0
LINE
  8
0
 62
     0
 10
40.5035
 20
3.98254
 30
0.0
 11
40.7211
 21
4.4607
 31
0.0
  0
LINE
  8
0
 62
     0
 10
40.7211
 20
4.4607
 30
0.0
 11
41.0697
 21
5.03534
 31
0.0
  0
LINE
  8
0
 62
     0
 10
41.0697
 20
5.03534
 30
0.0
 11
41.4486
 21
5.45013
 31
0.0
  0
LINE
  8
0
 62
     0
 10
41.4486
 20
5.45013
 30
0.0
 11
41.7216
 21
5.6086
 31
0.0
  0
LINE
  8
0
 62
     0
 10
41.7216
 20
5.6086
 30
0.0
 11
41.8137
 21
5.6086
 31
0.0
  0
LINE
  8
0
 62
     0
 10
41.8137
 20
5.6086
 30
0.0
 11
41.8525
 21
5.6086
 31
0.0
  0
LINE
  8
0
 62
     0
 10
41.8525
 20
5.6086
 30
0.0
 11
41.8994
 21
5.60172
 31
0.0
  0
LINE
  8
0
 62
     0
 10
41.8994
 20
5.60172
 30
0.0
 11
42.0744
 21
5.4598
 31
0.0
  0
LINE
  8
0
 62
     0
 10
42.0744
 20
5.4598
 30
0.0
 11
42.1816
 21
5.27375
 31
0.0
  0
LINE
  8
0
 62
     0
 10
42.1816
 20
5.27375
 30
0.0
 11
42.194
 21
5.24482
 31
0.0
  0
LINE
  8
0
 62
     0
 10
42.194
 20
5.24482
 30
0.0
 11
42.2176
 21
5.19522
 31
0.0
  0
LINE
  8
0
 62
     0
 10
42.2176
 20
5.19522
 30
0.0
 11
42.321
 21
4.74871
 31
0.0
  0
LINE
  8
0
 62
     0
 10
42.321
 20
4.74871
 30
0.0
 11
42.321
 21
4.5999
 31
0.0
  0
LINE
  8
0
 62
     0
 10
42.321
 20
4.5999
 30
0.0
 11
42.321
 21
4.53926
 31
0.0
  0
LINE
  8
0
 62
     0
 10
42.321
 20
4.53926
 30
0.0
 11
42.321
 21
4.45932
 31
0.0
  0
LINE
  8
0
 62
     0
 10
42.321
 20
4.45932
 30
0.0
 11
42.2617
 21
4.21954
 31
0.0
  0
LINE
  8
0
 62
     0
 10
42.2617
 20
4.21954
 30
0.0
 11
42.091
 21
3.86814
 31
0.0
  0
LINE
  8
0
 62
     0
 10
42.091
 20
3.86814
 30
0.0
 11
42.0342
 21
3.76756
 31
0.0
  0
LINE
  8
0
 62
     0
 10
42.0342
 20
3.76756
 30
0.0
 11
41.9171
 21
3.55946
 31
0.0
  0
LINE
  8
0
 62
     0
 10
41.9171
 20
3.55946
 30
0.0
 11
41.4997
 21
2.86907
 31
0.0
  0
LINE
  8
0
 62
     0
 10
41.4997
 20
2.86907
 30
0.0
 11
41.1812
 21
2.46118
 31
0.0
  0
LINE
  8
0
 62
     0
 10
41.1812
 20
2.46118
 30
0.0
 11
41.1138
 21
2.39503
 31
0.0
  0
LINE
  8
0
 62
     0
 10
41.1138
 20
2.39503
 30
0.0
 11
41.0669
 21
2.34956
 31
0.0
  0
LINE
  8
0
 62
     0
 10
41.0669
 20
2.34956
 30
0.0
 11
40.7818
 21
2.13734
 31
0.0
  0
LINE
  8
0
 62
     0
 10
40.7818
 20
2.13734
 30
0.0
 11
40.5296
 21
2.01469
 31
0.0
  0
LINE
  8
0
 62
     0
 10
40.5296
 20
2.01469
 30
0.0
 11
40.4467
 21
2.01469
 31
0.0
  0
LINE
  8
0
 62
     0
 10
40.4467
 20
2.01469
 30
0.0
 11
40.4178
 21
2.01469
 31
0.0
  0
LINE
  8
0
 62
     0
 10
40.4178
 20
2.01469
 30
0.0
 11
40.3394
 21
2.03674
 31
0.0
  0
LINE
  8
0
 62
     0
 10
40.3394
 20
2.03674
 30
0.0
 11
40.331
 21
2.04225
 31
0.0
  0
LINE
  8
0
 62
     0
 10
40.331
 20
2.04225
 30
0.0
 11
40.3006
 21
2.06292
 31
0.0
  0
LINE
  8
0
 62
     0
 10
40.3006
 20
2.06292
 30
0.0
 11
40.1602
 21
2.4033
 31
0.0
  0
LINE
  8
0
 62
     0
 10
40.1602
 20
2.4033
 30
0.0
 11
40.1602
 21
2.5163
 31
0.0
  0
LINE
  8
0
 62
     0
 10
40.1602
 20
2.5163
 30
0.0
 11
40.1602
 21
2.66926
 31
0.0
  0
LINE
  8
0
 62
     0
 10
40.1602
 20
2.66926
 30
0.0
 11
40.2428
 21
3.12401
 31
0.0
  0
LINE
  8
0
 62
     0
 10
40.2428
 20
3.12401
 30
0.0
 11
40.4068
 21
3.70004
 31
0.0
  0
LINE
  8
0
 62
     0
 10
40.4068
 20
3.70004
 30
0.0
 11
40.4467
 21
3.81716
 31
0.0
  0
ENDSEC
  0
EOF
