  0
SECTION
  2
HEADER
  9
$ACADVER
  1
AC1009
  9
$EXTMIN
 10
0.0
 20
0.0
 30
0.0
  9
$EXTMAX
 10
1000.0
 20
1000.0
 30
0.0
  9
$FILLMODE
 70
 0
  9
$SPLFRAME
 70
 1
  0
ENDSEC
  0
SECTION
  2
TABLES
  0
TABLE
  2
LAYER
 70
1
  0
LAYER
  2
0
 70
     0
 62
     7
  6
CONTINUOUS
  0
ENDTAB
  0
ENDSEC
  0
SECTION
  2
ENTITIES
  0
LINE
  8
0
 62
     0
 10
1.62333
 20
1.07625
 30
0.0
 11
1.58337
 21
1.07763
 31
0.0
  0
LINE
  8
0
 62
     0
 10
1.58337
 20
1.07763
 30
0.0
 11
1.46899
 21
1.24437
 31
0.0
  0
LINE
  8
0
 62
     0
 10
1.46899
 20
1.24437
 30
0.0
 11
1.43454
 21
1.51446
 31
0.0
  0
LINE
  8
0
 62
     0
 10
1.43454
 20
1.51446
 30
0.0
 11
1.4304
 21
1.56683
 31
0.0
  0
LINE
  8
0
 62
     0
 10
1.4304
 20
1.56683
 30
0.0
 11
1.39733
 21
1.6123
 31
0.0
  0
LINE
  8
0
 62
     0
 10
1.39733
 20
1.6123
 30
0.0
 11
1.37528
 21
1.88791
 31
0.0
  0
LINE
  8
0
 62
     0
 10
1.37528
 20
1.88791
 30
0.0
 11
1.43454
 21
2.19522
 31
0.0
  0
LINE
  8
0
 62
     0
 10
1.43454
 20
2.19522
 30
0.0
 11
1.44143
 21
2.25585
 31
0.0
  0
LINE
  8
0
 62
     0
 10
1.44143
 20
2.25585
 30
0.0
 11
1.44832
 21
2.30959
 31
0.0
  0
LINE
  8
0
 62
     0
 10
1.44832
 20
2.30959
 30
0.0
 11
1.55443
 21
2.92833
 31
0.0
  0
LINE
  8
0
 62
     0
 10
1.55443
 20
2.92833
 30
0.0
 11
1.56821
 21
2.98897
 31
0.0
  0
LINE
  8
0
 62
     0
 10
1.56821
 20
2.98897
 30
0.0
 11
1.57097
 21
3.04133
 31
0.0
  0
LINE
  8
0
 62
     0
 10
1.57097
 20
3.04133
 30
0.0
 11
1.69223
 21
3.58429
 31
0.0
  0
LINE
  8
0
 62
     0
 10
1.69223
 20
3.58429
 30
0.0
 11
1.7005
 21
3.62839
 31
0.0
  0
LINE
  8
0
 62
     0
 10
1.7005
 20
3.62839
 30
0.0
 11
1.6881
 21
3.6697
 31
0.0
  0
LINE
  8
0
 62
     0
 10
1.6881
 20
3.6697
 30
0.0
 11
1.74597
 21
4.00043
 31
0.0
  0
LINE
  8
0
 62
     0
 10
1.74597
 20
4.00043
 30
0.0
 11
1.7446
 21
4.01973
 31
0.0
  0
LINE
  8
0
 62
     0
 10
1.7446
 20
4.01973
 30
0.0
 11
1.72255
 21
4.02939
 31
0.0
  0
LINE
  8
0
 62
     0
 10
1.72255
 20
4.02939
 30
0.0
 11
1.66191
 21
4.06936
 31
0.0
  0
LINE
  8
0
 62
     0
 10
1.66191
 20
4.06936
 30
0.0
 11
1.60679
 21
4.03352
 31
0.0
  0
LINE
  8
0
 62
     0
 10
1.60679
 20
4.03352
 30
0.0
 11
1.59026
 21
4.01973
 31
0.0
  0
LINE
  8
0
 62
     0
 10
1.59026
 20
4.01973
 30
0.0
 11
1.55305
 21
3.98942
 31
0.0
  0
LINE
  8
0
 62
     0
 10
1.55305
 20
3.98942
 30
0.0
 11
1.29949
 21
3.6256
 31
0.0
  0
LINE
  8
0
 62
     0
 10
1.29949
 20
3.6256
 30
0.0
 11
1.27055
 21
3.57325
 31
0.0
  0
LINE
  8
0
 62
     0
 10
1.27055
 20
3.57325
 30
0.0
 11
1.22645
 21
3.52227
 31
0.0
  0
LINE
  8
0
 62
     0
 10
1.22645
 20
3.52227
 30
0.0
 11
0.952225
 21
2.9614
 31
0.0
  0
LINE
  8
0
 62
     0
 10
0.952225
 20
2.9614
 30
0.0
 11
0.923286
 21
2.90077
 31
0.0
  0
LINE
  8
0
 62
     0
 10
0.923286
 20
2.90077
 30
0.0
 11
0.879189
 21
2.83876
 31
0.0
  0
LINE
  8
0
 62
     0
 10
0.879189
 20
2.83876
 30
0.0
 11
0.636655
 21
2.25309
 31
0.0
  0
LINE
  8
0
 62
     0
 10
0.636655
 20
2.25309
 30
0.0
 11
0.614606
 21
2.19522
 31
0.0
  0
LINE
  8
0
 62
     0
 10
0.614606
 20
2.19522
 30
0.0
 11
0.571885
 21
2.13458
 31
0.0
  0
LINE
  8
0
 62
     0
 10
0.571885
 20
2.13458
 30
0.0
 11
0.467155
 21
1.87965
 31
0.0
  0
LINE
  8
0
 62
     0
 10
0.467155
 20
1.87965
 30
0.0
 11
0.429948
 21
1.67845
 31
0.0
  0
LINE
  8
0
 62
     0
 10
0.429948
 20
1.67845
 30
0.0
 11
0.421679
 21
1.644
 31
0.0
  0
LINE
  8
0
 62
     0
 10
0.421679
 20
1.644
 30
0.0
 11
0.420303
 21
1.63711
 31
0.0
  0
LINE
  8
0
 62
     0
 10
0.420303
 20
1.63711
 30
0.0
 11
0.402389
 21
1.62057
 31
0.0
  0
LINE
  8
0
 62
     0
 10
0.402389
 20
1.62057
 30
0.0
 11
0.39963
 21
1.61644
 31
0.0
  0
LINE
  8
0
 62
     0
 10
0.39963
 20
1.61644
 30
0.0
 11
0.398254
 21
1.61368
 31
0.0
  0
LINE
  8
0
 62
     0
 10
0.398254
 20
1.61368
 30
0.0
 11
0.333485
 21
1.61919
 31
0.0
  0
LINE
  8
0
 62
     0
 10
0.333485
 20
1.61919
 30
0.0
 11
0.327973
 21
1.62746
 31
0.0
  0
LINE
  8
0
 62
     0
 10
0.327973
 20
1.62746
 30
0.0
 11
0.282498
 21
1.63711
 31
0.0
  0
LINE
  8
0
 62
     0
 10
0.282498
 20
1.63711
 30
0.0
 11
0.163987
 21
1.75149
 31
0.0
  0
LINE
  8
0
 62
     0
 10
0.163987
 20
1.75149
 30
0.0
 11
0.124024
 21
1.88654
 31
0.0
  0
LINE
  8
0
 62
     0
 10
0.124024
 20
1.88654
 30
0.0
 11
0.112999
 21
1.90858
 31
0.0
  0
LINE
  8
0
 62
     0
 10
0.112999
 20
1.90858
 30
0.0
 11
0.0937066
 21
1.92374
 31
0.0
  0
LINE
  8
0
 62
     0
 10
0.0937066
 20
1.92374
 30
0.0
 11
0.0220486
 21
2.14836
 31
0.0
  0
LINE
  8
0
 62
     0
 10
0.0220486
 20
2.14836
 30
0.0
 11
0.0192925
 21
2.16765
 31
0.0
  0
LINE
  8
0
 62
     0
 10
0.0192925
 20
2.16765
 30
0.0
 11
-0.00551215
 21
2.18419
 31
0.0
  0
LINE
  8
0
 62
     0
 10
-0.00551215
 20
2.18419
 30
0.0
 11
-0.0413413
 21
2.29443
 31
0.0
  0
LINE
  8
0
 62
     0
 10
-0.0413413
 20
2.29443
 30
0.0
 11
0
 21
2.40054
 31
0.0
  0
LINE
  8
0
 62
     0
 10
0
 20
2.40054
 30
0.0
 11
0.00275608
 21
2.42121
 31
0.0
  0
LINE
  8
0
 62
     0
 10
0.00275608
 20
2.42121
 30
0.0
 11
-0.00413413
 21
2.42121
 31
0.0
  0
LINE
  8
0
 62
     0
 10
-0.00413413
 20
2.42121
 30
0.0
 11
-0.0261827
 21
2.52319
 31
0.0
  0
LINE
  8
0
 62
     0
 10
-0.0261827
 20
2.52319
 30
0.0
 11
0.0275608
 21
2.67753
 31
0.0
  0
LINE
  8
0
 62
     0
 10
0.0275608
 20
2.67753
 30
0.0
 11
0.0303168
 21
2.70233
 31
0.0
  0
LINE
  8
0
 62
     0
 10
0.0303168
 20
2.70233
 30
0.0
 11
0.0454752
 21
2.8112
 31
0.0
  0
LINE
  8
0
 62
     0
 10
0.0454752
 20
2.8112
 30
0.0
 11
0.234267
 21
4.11346
 31
0.0
  0
LINE
  8
0
 62
     0
 10
0.234267
 20
4.11346
 30
0.0
 11
0.256315
 21
4.24575
 31
0.0
  0
LINE
  8
0
 62
     0
 10
0.256315
 20
4.24575
 30
0.0
 11
0.260449
 21
4.35321
 31
0.0
  0
LINE
  8
0
 62
     0
 10
0.260449
 20
4.35321
 30
0.0
 11
0.384471
 21
4.99953
 31
0.0
  0
LINE
  8
0
 62
     0
 10
0.384471
 20
4.99953
 30
0.0
 11
0.573264
 21
5.69267
 31
0.0
  0
LINE
  8
0
 62
     0
 10
0.573264
 20
5.69267
 30
0.0
 11
0.609092
 21
5.82221
 31
0.0
  0
LINE
  8
0
 62
     0
 10
0.609092
 20
5.82221
 30
0.0
 11
0.627006
 21
5.94071
 31
0.0
  0
LINE
  8
0
 62
     0
 10
0.627006
 20
5.94071
 30
0.0
 11
0.829578
 21
6.56498
 31
0.0
  0
LINE
  8
0
 62
     0
 10
0.829578
 20
6.56498
 30
0.0
 11
1.10932
 21
7.18785
 31
0.0
  0
LINE
  8
0
 62
     0
 10
1.10932
 20
7.18785
 30
0.0
 11
1.16582
 21
7.30497
 31
0.0
  0
LINE
  8
0
 62
     0
 10
1.16582
 20
7.30497
 30
0.0
 11
1.21543
 21
7.40696
 31
0.0
  0
LINE
  8
0
 62
     0
 10
1.21543
 20
7.40696
 30
0.0
 11
1.94303
 21
8.48459
 31
0.0
  0
LINE
  8
0
 62
     0
 10
1.94303
 20
8.48459
 30
0.0
 11
2.03123
 21
8.57829
 31
0.0
  0
LINE
  8
0
 62
     0
 10
2.03123
 20
8.57829
 30
0.0
 11
2.06981
 21
8.63618
 31
0.0
  0
LINE
  8
0
 62
     0
 10
2.06981
 20
8.63618
 30
0.0
 11
2.35645
 21
8.88834
 31
0.0
  0
LINE
  8
0
 62
     0
 10
2.35645
 20
8.88834
 30
0.0
 11
2.68718
 21
9.06886
 31
0.0
  0
LINE
  8
0
 62
     0
 10
2.68718
 20
9.06886
 30
0.0
 11
2.74781
 21
9.09091
 31
0.0
  0
LINE
  8
0
 62
     0
 10
2.74781
 20
9.09091
 30
0.0
 11
2.78777
 21
9.09507
 31
0.0
  0
LINE
  8
0
 62
     0
 10
2.78777
 20
9.09507
 30
0.0
 11
3.05925
 21
9.14192
 31
0.0
  0
LINE
  8
0
 62
     0
 10
3.05925
 20
9.14192
 30
0.0
 11
3.33761
 21
9.14605
 31
0.0
  0
LINE
  8
0
 62
     0
 10
3.33761
 20
9.14605
 30
0.0
 11
3.38171
 21
9.1295
 31
0.0
  0
LINE
  8
0
 62
     0
 10
3.38171
 20
9.1295
 30
0.0
 11
3.41202
 21
9.09228
 31
0.0
  0
LINE
  8
0
 62
     0
 10
3.41202
 20
9.09228
 30
0.0
 11
3.58429
 21
8.94486
 31
0.0
  0
LINE
  8
0
 62
     0
 10
3.58429
 20
8.94486
 30
0.0
 11
3.72897
 21
8.76572
 31
0.0
  0
LINE
  8
0
 62
     0
 10
3.72897
 20
8.76572
 30
0.0
 11
3.74551
 21
8.71058
 31
0.0
  0
LINE
  8
0
 62
     0
 10
3.74551
 20
8.71058
 30
0.0
 11
3.74551
 21
8.61138
 31
0.0
  0
LINE
  8
0
 62
     0
 10
3.74551
 20
8.61138
 30
0.0
 11
3.74414
 21
8.30958
 31
0.0
  0
LINE
  8
0
 62
     0
 10
3.74414
 20
8.30958
 30
0.0
 11
3.68212
 21
7.93612
 31
0.0
  0
LINE
  8
0
 62
     0
 10
3.68212
 20
7.93612
 30
0.0
 11
3.65181
 21
7.84518
 31
0.0
  0
LINE
  8
0
 62
     0
 10
3.65181
 20
7.84518
 30
0.0
 11
3.6201
 21
7.77903
 31
0.0
  0
LINE
  8
0
 62
     0
 10
3.6201
 20
7.77903
 30
0.0
 11
3.34312
 21
7.12033
 31
0.0
  0
LINE
  8
0
 62
     0
 10
3.34312
 20
7.12033
 30
0.0
 11
3.31005
 21
7.05143
 31
0.0
  0
LINE
  8
0
 62
     0
 10
3.31005
 20
7.05143
 30
0.0
 11
3.26733
 21
6.95773
 31
0.0
  0
LINE
  8
0
 62
     0
 10
3.26733
 20
6.95773
 30
0.0
 11
3.07716
 21
6.59804
 31
0.0
  0
LINE
  8
0
 62
     0
 10
3.07716
 20
6.59804
 30
0.0
 11
2.88561
 21
6.28936
 31
0.0
  0
LINE
  8
0
 62
     0
 10
2.88561
 20
6.28936
 30
0.0
 11
2.84152
 21
6.21908
 31
0.0
  0
LINE
  8
0
 62
     0
 10
2.84152
 20
6.21908
 30
0.0
 11
2.76986
 21
6.13502
 31
0.0
  0
LINE
  8
0
 62
     0
 10
2.76986
 20
6.13502
 30
0.0
 11
2.53146
 21
5.78086
 31
0.0
  0
LINE
  8
0
 62
     0
 10
2.53146
 20
5.78086
 30
0.0
 11
2.34267
 21
5.46118
 31
0.0
  0
LINE
  8
0
 62
     0
 10
2.34267
 20
5.46118
 30
0.0
 11
2.29581
 21
5.39228
 31
0.0
  0
LINE
  8
0
 62
     0
 10
2.29581
 20
5.39228
 30
0.0
 11
2.23518
 21
5.32059
 31
0.0
  0
LINE
  8
0
 62
     0
 10
2.23518
 20
5.32059
 30
0.0
 11
1.76527
 21
4.70048
 31
0.0
  0
LINE
  8
0
 62
     0
 10
1.76527
 20
4.70048
 30
0.0
 11
1.71704
 21
4.64263
 31
0.0
  0
LINE
  8
0
 62
     0
 10
1.71704
 20
4.64263
 30
0.0
 11
1.64538
 21
4.58474
 31
0.0
  0
LINE
  8
0
 62
     0
 10
1.64538
 20
4.58474
 30
0.0
 11
1.2044
 21
4.06107
 31
0.0
  0
LINE
  8
0
 62
     0
 10
1.2044
 20
4.06107
 30
0.0
 11
1.16031
 21
4.01422
 31
0.0
  0
LINE
  8
0
 62
     0
 10
1.16031
 20
4.01422
 30
0.0
 11
1.10932
 21
3.96049
 31
0.0
  0
LINE
  8
0
 62
     0
 10
1.10932
 20
3.96049
 30
0.0
 11
0.705556
 21
3.59117
 31
0.0
  0
LINE
  8
0
 62
     0
 10
0.705556
 20
3.59117
 30
0.0
 11
0.669727
 21
3.56224
 31
0.0
  0
LINE
  8
0
 62
     0
 10
0.669727
 20
3.56224
 30
0.0
 11
0.537436
 21
2.52043
 31
0.0
  0
LINE
  8
0
 62
     0
 10
0.537436
 20
2.52043
 30
0.0
 11
0.487825
 21
2.20073
 31
0.0
  0
LINE
  8
0
 62
     0
 10
0.487825
 20
2.20073
 30
0.0
 11
0.498849
 21
2.25034
 31
0.0
  0
LINE
  8
0
 62
     0
 10
0.498849
 20
2.25034
 30
0.0
 11
0.727604
 21
2.80431
 31
0.0
  0
LINE
  8
0
 62
     0
 10
0.727604
 20
2.80431
 30
0.0
 11
0.752408
 21
2.86219
 31
0.0
  0
LINE
  8
0
 62
     0
 10
0.752408
 20
2.86219
 30
0.0
 11
0.774457
 21
2.8925
 31
0.0
  0
LINE
  8
0
 62
     0
 10
0.774457
 20
2.8925
 30
0.0
 11
0.902614
 21
3.16398
 31
0.0
  0
LINE
  8
0
 62
     0
 10
0.902614
 20
3.16398
 30
0.0
 11
1.04731
 21
3.48644
 31
0.0
  0
LINE
  8
0
 62
     0
 10
1.04731
 20
3.48644
 30
0.0
 11
1.07763
 21
3.5402
 31
0.0
  0
LINE
  8
0
 62
     0
 10
1.07763
 20
3.5402
 30
0.0
 11
1.07074
 21
3.55395
 31
0.0
  0
LINE
  8
0
 62
     0
 10
1.07074
 20
3.55395
 30
0.0
 11
1.17133
 21
3.73447
 31
0.0
  0
LINE
  8
0
 62
     0
 10
1.17133
 20
3.73447
 30
0.0
 11
1.33808
 21
3.966
 31
0.0
  0
LINE
  8
0
 62
     0
 10
1.33808
 20
3.966
 30
0.0
 11
1.36426
 21
4.00322
 31
0.0
  0
LINE
  8
0
 62
     0
 10
1.36426
 20
4.00322
 30
0.0
 11
1.36701
 21
4.03627
 31
0.0
  0
LINE
  8
0
 62
     0
 10
1.36701
 20
4.03627
 30
0.0
 11
1.49931
 21
4.20303
 31
0.0
  0
LINE
  8
0
 62
     0
 10
1.49931
 20
4.20303
 30
0.0
 11
1.69774
 21
4.35462
 31
0.0
  0
LINE
  8
0
 62
     0
 10
1.69774
 20
4.35462
 30
0.0
 11
1.73357
 21
4.37804
 31
0.0
  0
LINE
  8
0
 62
     0
 10
1.73357
 20
4.37804
 30
0.0
 11
1.75011
 21
4.3973
 31
0.0
  0
LINE
  8
0
 62
     0
 10
1.75011
 20
4.3973
 30
0.0
 11
1.92787
 21
4.46624
 31
0.0
  0
LINE
  8
0
 62
     0
 10
1.92787
 20
4.46624
 30
0.0
 11
2.1332
 21
4.46624
 31
0.0
  0
LINE
  8
0
 62
     0
 10
2.1332
 20
4.46624
 30
0.0
 11
2.16352
 21
4.44969
 31
0.0
  0
LINE
  8
0
 62
     0
 10
2.16352
 20
4.44969
 30
0.0
 11
2.19246
 21
4.42076
 31
0.0
  0
LINE
  8
0
 62
     0
 10
2.19246
 20
4.42076
 30
0.0
 11
2.34542
 21
4.12447
 31
0.0
  0
LINE
  8
0
 62
     0
 10
2.34542
 20
4.12447
 30
0.0
 11
2.34542
 21
4.02527
 31
0.0
  0
LINE
  8
0
 62
     0
 10
2.34542
 20
4.02527
 30
0.0
 11
2.32888
 21
3.9908
 31
0.0
  0
LINE
  8
0
 62
     0
 10
2.32888
 20
3.9908
 30
0.0
 11
2.32199
 21
3.7138
 31
0.0
  0
LINE
  8
0
 62
     0
 10
2.32199
 20
3.7138
 30
0.0
 11
2.31786
 21
3.68349
 31
0.0
  0
LINE
  8
0
 62
     0
 10
2.31786
 20
3.68349
 30
0.0
 11
2.29857
 21
3.6449
 31
0.0
  0
LINE
  8
0
 62
     0
 10
2.29857
 20
3.6449
 30
0.0
 11
2.25723
 21
3.3693
 31
0.0
  0
LINE
  8
0
 62
     0
 10
2.25723
 20
3.3693
 30
0.0
 11
2.25171
 21
3.34174
 31
0.0
  0
LINE
  8
0
 62
     0
 10
2.25171
 20
3.34174
 30
0.0
 11
2.23655
 21
3.30591
 31
0.0
  0
LINE
  8
0
 62
     0
 10
2.23655
 20
3.30591
 30
0.0
 11
2.19108
 21
3.07716
 31
0.0
  0
LINE
  8
0
 62
     0
 10
2.19108
 20
3.07716
 30
0.0
 11
2.18557
 21
3.05511
 31
0.0
  0
LINE
  8
0
 62
     0
 10
2.18557
 20
3.05511
 30
0.0
 11
2.17592
 21
3.01928
 31
0.0
  0
LINE
  8
0
 62
     0
 10
2.17592
 20
3.01928
 30
0.0
 11
2.14698
 21
2.90215
 31
0.0
  0
LINE
  8
0
 62
     0
 10
2.14698
 20
2.90215
 30
0.0
 11
2.14698
 21
2.89526
 31
0.0
  0
LINE
  8
0
 62
     0
 10
2.14698
 20
2.89526
 30
0.0
 11
2.14147
 21
2.87734
 31
0.0
  0
LINE
  8
0
 62
     0
 10
2.14147
 20
2.87734
 30
0.0
 11
2.06706
 21
2.61276
 31
0.0
  0
LINE
  8
0
 62
     0
 10
2.06706
 20
2.61276
 30
0.0
 11
2.05879
 21
2.57555
 31
0.0
  0
LINE
  8
0
 62
     0
 10
2.05879
 20
2.57555
 30
0.0
 11
2.02847
 21
2.53559
 31
0.0
  0
LINE
  8
0
 62
     0
 10
2.02847
 20
2.53559
 30
0.0
 11
1.96784
 21
2.14974
 31
0.0
  0
LINE
  8
0
 62
     0
 10
1.96784
 20
2.14974
 30
0.0
 11
1.95957
 21
2.10702
 31
0.0
  0
LINE
  8
0
 62
     0
 10
1.95957
 20
2.10702
 30
0.0
 11
1.93752
 21
2.04088
 31
0.0
  0
LINE
  8
0
 62
     0
 10
1.93752
 20
2.04088
 30
0.0
 11
1.89894
 21
1.81901
 31
0.0
  0
LINE
  8
0
 62
     0
 10
1.89894
 20
1.81901
 30
0.0
 11
1.89618
 21
1.65227
 31
0.0
  0
LINE
  8
0
 62
     0
 10
1.89618
 20
1.65227
 30
0.0
 11
1.89343
 21
1.61093
 31
0.0
  0
LINE
  8
0
 62
     0
 10
1.89343
 20
1.61093
 30
0.0
 11
1.8824
 21
1.55856
 31
0.0
  0
LINE
  8
0
 62
     0
 10
1.8824
 20
1.55856
 30
0.0
 11
1.91823
 21
1.24437
 31
0.0
  0
LINE
  8
0
 62
     0
 10
1.91823
 20
1.24437
 30
0.0
 11
1.9265
 21
1.21956
 31
0.0
  0
LINE
  8
0
 62
     0
 10
1.9265
 20
1.21956
 30
0.0
 11
1.92374
 21
1.19063
 31
0.0
  0
LINE
  8
0
 62
     0
 10
1.92374
 20
1.19063
 30
0.0
 11
1.98024
 21
1.0983
 31
0.0
  0
LINE
  8
0
 62
     0
 10
1.98024
 20
1.0983
 30
0.0
 11
2.07946
 21
1.07625
 31
0.0
  0
LINE
  8
0
 62
     0
 10
2.07946
 20
1.07625
 30
0.0
 11
2.11391
 21
1.07625
 31
0.0
  0
LINE
  8
0
 62
     0
 10
2.11391
 20
1.07625
 30
0.0
 11
2.11391
 21
1.07625
 31
0.0
  0
LINE
  8
0
 62
     0
 10
2.11391
 20
1.07625
 30
0.0
 11
2.24758
 21
1.0983
 31
0.0
  0
LINE
  8
0
 62
     0
 10
2.24758
 20
1.0983
 30
0.0
 11
2.48185
 21
1.27468
 31
0.0
  0
LINE
  8
0
 62
     0
 10
2.48185
 20
1.27468
 30
0.0
 11
2.52732
 21
1.31327
 31
0.0
  0
LINE
  8
0
 62
     0
 10
2.52732
 20
1.31327
 30
0.0
 11
2.5728
 21
1.33808
 31
0.0
  0
LINE
  8
0
 62
     0
 10
2.5728
 20
1.33808
 30
0.0
 11
3.00688
 21
1.8383
 31
0.0
  0
LINE
  8
0
 62
     0
 10
3.00688
 20
1.8383
 30
0.0
 11
3.04546
 21
1.89205
 31
0.0
  0
LINE
  8
0
 62
     0
 10
3.04546
 20
1.89205
 30
0.0
 11
3.06614
 21
1.94028
 31
0.0
  0
LINE
  8
0
 62
     0
 10
3.06614
 20
1.94028
 30
0.0
 11
3.42718
 21
2.50252
 31
0.0
  0
LINE
  8
0
 62
     0
 10
3.42718
 20
2.50252
 30
0.0
 11
3.45888
 21
2.55902
 31
0.0
  0
LINE
  8
0
 62
     0
 10
3.45888
 20
2.55902
 30
0.0
 11
3.45474
 21
2.56177
 31
0.0
  0
LINE
  8
0
 62
     0
 10
3.45474
 20
2.56177
 30
0.0
 11
3.54432
 21
2.7106
 31
0.0
  0
LINE
  8
0
 62
     0
 10
3.54432
 20
2.7106
 30
0.0
 11
3.55258
 21
2.72438
 31
0.0
  0
LINE
  8
0
 62
     0
 10
3.55258
 20
2.72438
 30
0.0
 11
3.55258
 21
2.72438
 31
0.0
  0
LINE
  8
0
 62
     0
 10
3.55258
 20
2.72438
 30
0.0
 11
3.55808
 21
2.78915
 31
0.0
  0
LINE
  8
0
 62
     0
 10
3.55808
 20
2.78915
 30
0.0
 11
3.64352
 21
2.88699
 31
0.0
  0
LINE
  8
0
 62
     0
 10
3.64352
 20
2.88699
 30
0.0
 11
3.65181
 21
2.90077
 31
0.0
  0
LINE
  8
0
 62
     0
 10
3.65181
 20
2.90077
 30
0.0
 11
3.67937
 21
2.95038
 31
0.0
  0
LINE
  8
0
 62
     0
 10
3.67937
 20
2.95038
 30
0.0
 11
3.67937
 21
2.95038
 31
0.0
  0
LINE
  8
0
 62
     0
 10
3.67937
 20
2.95038
 30
0.0
 11
3.74551
 21
2.98345
 31
0.0
  0
LINE
  8
0
 62
     0
 10
3.74551
 20
2.98345
 30
0.0
 11
3.75652
 21
2.98345
 31
0.0
  0
LINE
  8
0
 62
     0
 10
3.75652
 20
2.98345
 30
0.0
 11
3.75102
 21
2.97518
 31
0.0
  0
LINE
  8
0
 62
     0
 10
3.75102
 20
2.97518
 30
0.0
 11
3.78823
 21
2.91317
 31
0.0
  0
LINE
  8
0
 62
     0
 10
3.78823
 20
2.91317
 30
0.0
 11
3.78411
 21
2.90077
 31
0.0
  0
LINE
  8
0
 62
     0
 10
3.78411
 20
2.90077
 30
0.0
 11
3.55258
 21
2.48185
 31
0.0
  0
LINE
  8
0
 62
     0
 10
3.55258
 20
2.48185
 30
0.0
 11
3.49195
 21
2.39916
 31
0.0
  0
LINE
  8
0
 62
     0
 10
3.49195
 20
2.39916
 30
0.0
 11
3.30867
 21
2.10289
 31
0.0
  0
LINE
  8
0
 62
     0
 10
3.30867
 20
2.10289
 30
0.0
 11
3.16673
 21
1.86449
 31
0.0
  0
LINE
  8
0
 62
     0
 10
3.16673
 20
1.86449
 30
0.0
 11
3.12815
 21
1.80937
 31
0.0
  0
LINE
  8
0
 62
     0
 10
3.12815
 20
1.80937
 30
0.0
 11
3.06614
 21
1.75562
 31
0.0
  0
LINE
  8
0
 62
     0
 10
3.06614
 20
1.75562
 30
0.0
 11
2.65272
 21
1.26917
 31
0.0
  0
LINE
  8
0
 62
     0
 10
2.65272
 20
1.26917
 30
0.0
 11
2.60449
 21
1.22508
 31
0.0
  0
LINE
  8
0
 62
     0
 10
2.60449
 20
1.22508
 30
0.0
 11
2.57831
 21
1.20027
 31
0.0
  0
LINE
  8
0
 62
     0
 10
2.57831
 20
1.20027
 30
0.0
 11
2.39365
 21
1.06247
 31
0.0
  0
LINE
  8
0
 62
     0
 10
2.39365
 20
1.06247
 30
0.0
 11
2.37298
 21
1.04869
 31
0.0
  0
LINE
  8
0
 62
     0
 10
2.37298
 20
1.04869
 30
0.0
 11
2.33991
 21
1.01699
 31
0.0
  0
LINE
  8
0
 62
     0
 10
2.33991
 20
1.01699
 30
0.0
 11
2.22002
 21
0.943956
 31
0.0
  0
LINE
  8
0
 62
     0
 10
2.22002
 20
0.943956
 30
0.0
 11
2.14147
 21
0.939821
 31
0.0
  0
LINE
  8
0
 62
     0
 10
2.14147
 20
0.939821
 30
0.0
 11
2.11942
 21
0.932931
 31
0.0
  0
LINE
  8
0
 62
     0
 10
2.11942
 20
0.932931
 30
0.0
 11
2.07946
 21
0.916397
 31
0.0
  0
LINE
  8
0
 62
     0
 10
2.07946
 20
0.916397
 30
0.0
 11
1.94992
 21
0.887458
 31
0.0
  0
LINE
  8
0
 62
     0
 10
1.94992
 20
0.887458
 30
0.0
 11
1.8824
 21
0.913638
 31
0.0
  0
LINE
  8
0
 62
     0
 10
1.8824
 20
0.913638
 30
0.0
 11
1.86035
 21
0.916397
 31
0.0
  0
LINE
  8
0
 62
     0
 10
1.86035
 20
0.916397
 30
0.0
 11
1.83279
 21
0.906748
 31
0.0
  0
LINE
  8
0
 62
     0
 10
1.83279
 20
0.906748
 30
0.0
 11
1.64124
 21
1.0542
 31
0.0
  0
LINE
  8
0
 62
     0
 10
1.64124
 20
1.0542
 30
0.0
 11
1.62333
 21
1.07625
 31
0.0
  0
LINE
  8
0
 62
     0
 10
0.697286
 20
3.73309
 30
0.0
 11
0.72347
 21
3.76481
 31
0.0
  0
LINE
  8
0
 62
     0
 10
0.72347
 20
3.76481
 30
0.0
 11
0.996322
 21
4.03214
 31
0.0
  0
LINE
  8
0
 62
     0
 10
0.996322
 20
4.03214
 30
0.0
 11
1.35599
 21
4.3973
 31
0.0
  0
LINE
  8
0
 62
     0
 10
1.35599
 20
4.3973
 30
0.0
 11
1.42489
 21
4.47724
 31
0.0
  0
LINE
  8
0
 62
     0
 10
1.42489
 20
4.47724
 30
0.0
 11
1.46485
 21
4.54201
 31
0.0
  0
LINE
  8
0
 62
     0
 10
1.46485
 20
4.54201
 30
0.0
 11
1.79421
 21
4.95956
 31
0.0
  0
LINE
  8
0
 62
     0
 10
1.79421
 20
4.95956
 30
0.0
 11
2.1773
 21
5.4405
 31
0.0
  0
LINE
  8
0
 62
     0
 10
2.1773
 20
5.4405
 30
0.0
 11
2.2462
 21
5.53558
 31
0.0
  0
LINE
  8
0
 62
     0
 10
2.2462
 20
5.53558
 30
0.0
 11
2.30684
 21
5.61552
 31
0.0
  0
LINE
  8
0
 62
     0
 10
2.30684
 20
5.61552
 30
0.0
 11
2.95313
 21
6.63388
 31
0.0
  0
LINE
  8
0
 62
     0
 10
2.95313
 20
6.63388
 30
0.0
 11
3.01239
 21
6.73724
 31
0.0
  0
LINE
  8
0
 62
     0
 10
3.01239
 20
6.73724
 30
0.0
 11
3.05787
 21
6.81302
 31
0.0
  0
LINE
  8
0
 62
     0
 10
3.05787
 20
6.81302
 30
0.0
 11
3.30178
 21
7.29809
 31
0.0
  0
LINE
  8
0
 62
     0
 10
3.30178
 20
7.29809
 30
0.0
 11
3.51675
 21
7.81484
 31
0.0
  0
LINE
  8
0
 62
     0
 10
3.51675
 20
7.81484
 30
0.0
 11
3.54707
 21
7.90582
 31
0.0
  0
LINE
  8
0
 62
     0
 10
3.54707
 20
7.90582
 30
0.0
 11
3.54295
 21
7.97472
 31
0.0
  0
LINE
  8
0
 62
     0
 10
3.54295
 20
7.97472
 30
0.0
 11
3.6008
 21
8.30958
 31
0.0
  0
LINE
  8
0
 62
     0
 10
3.6008
 20
8.30958
 30
0.0
 11
3.64906
 21
8.59896
 31
0.0
  0
LINE
  8
0
 62
     0
 10
3.64906
 20
8.59896
 30
0.0
 11
3.64077
 21
8.64443
 31
0.0
  0
LINE
  8
0
 62
     0
 10
3.64077
 20
8.64443
 30
0.0
 11
3.62423
 21
8.68027
 31
0.0
  0
LINE
  8
0
 62
     0
 10
3.62423
 20
8.68027
 30
0.0
 11
3.42442
 21
8.98066
 31
0.0
  0
LINE
  8
0
 62
     0
 10
3.42442
 20
8.98066
 30
0.0
 11
3.39273
 21
8.99171
 31
0.0
  0
LINE
  8
0
 62
     0
 10
3.39273
 20
8.99171
 30
0.0
 11
3.3445
 21
8.99308
 31
0.0
  0
LINE
  8
0
 62
     0
 10
3.3445
 20
8.99308
 30
0.0
 11
2.96554
 21
8.95311
 31
0.0
  0
LINE
  8
0
 62
     0
 10
2.96554
 20
8.95311
 30
0.0
 11
2.91869
 21
8.93106
 31
0.0
  0
LINE
  8
0
 62
     0
 10
2.91869
 20
8.93106
 30
0.0
 11
2.86632
 21
8.90351
 31
0.0
  0
LINE
  8
0
 62
     0
 10
2.86632
 20
8.90351
 30
0.0
 11
2.4033
 21
8.50526
 31
0.0
  0
LINE
  8
0
 62
     0
 10
2.4033
 20
8.50526
 30
0.0
 11
2.35645
 21
8.44599
 31
0.0
  0
LINE
  8
0
 62
     0
 10
2.35645
 20
8.44599
 30
0.0
 11
2.29857
 21
8.37434
 31
0.0
  0
LINE
  8
0
 62
     0
 10
2.29857
 20
8.37434
 30
0.0
 11
2.096
 21
8.09322
 31
0.0
  0
LINE
  8
0
 62
     0
 10
2.096
 20
8.09322
 30
0.0
 11
1.94303
 21
7.82863
 31
0.0
  0
LINE
  8
0
 62
     0
 10
1.94303
 20
7.82863
 30
0.0
 11
1.90996
 21
7.76249
 31
0.0
  0
LINE
  8
0
 62
     0
 10
1.90996
 20
7.76249
 30
0.0
 11
1.86586
 21
7.67154
 31
0.0
  0
LINE
  8
0
 62
     0
 10
1.86586
 20
7.67154
 30
0.0
 11
1.69774
 21
7.31876
 31
0.0
  0
LINE
  8
0
 62
     0
 10
1.69774
 20
7.31876
 30
0.0
 11
1.55856
 21
6.99904
 31
0.0
  0
LINE
  8
0
 62
     0
 10
1.55856
 20
6.99904
 30
0.0
 11
1.52962
 21
6.92464
 31
0.0
  0
LINE
  8
0
 62
     0
 10
1.52962
 20
6.92464
 30
0.0
 11
1.49242
 21
6.83645
 31
0.0
  0
LINE
  8
0
 62
     0
 10
1.49242
 20
6.83645
 30
0.0
 11
1.24299
 21
6.09367
 31
0.0
  0
LINE
  8
0
 62
     0
 10
1.24299
 20
6.09367
 30
0.0
 11
1.22094
 21
6.01514
 31
0.0
  0
LINE
  8
0
 62
     0
 10
1.22094
 20
6.01514
 30
0.0
 11
1.18787
 21
5.91178
 31
0.0
  0
LINE
  8
0
 62
     0
 10
1.18787
 20
5.91178
 30
0.0
 11
1.07625
 21
5.51628
 31
0.0
  0
LINE
  8
0
 62
     0
 10
1.07625
 20
5.51628
 30
0.0
 11
0.996322
 21
5.18005
 31
0.0
  0
LINE
  8
0
 62
     0
 10
0.996322
 20
5.18005
 30
0.0
 11
0.978408
 21
5.10565
 31
0.0
  0
LINE
  8
0
 62
     0
 10
0.978408
 20
5.10565
 30
0.0
 11
0.939821
 21
5.02296
 31
0.0
  0
LINE
  8
0
 62
     0
 10
0.939821
 20
5.02296
 30
0.0
 11
0.846116
 21
4.66051
 31
0.0
  0
LINE
  8
0
 62
     0
 10
0.846116
 20
4.66051
 30
0.0
 11
0.80753
 21
4.33395
 31
0.0
  0
LINE
  8
0
 62
     0
 10
0.80753
 20
4.33395
 30
0.0
 11
0.796505
 21
4.2678
 31
0.0
  0
LINE
  8
0
 62
     0
 10
0.796505
 20
4.2678
 30
0.0
 11
0.778591
 21
4.17407
 31
0.0
  0
LINE
  8
0
 62
     0
 10
0.778591
 20
4.17407
 30
0.0
 11
0.724849
 21
3.85438
 31
0.0
  0
LINE
  8
0
 62
     0
 10
0.724849
 20
3.85438
 30
0.0
 11
0.691776
 21
3.6201
 31
0.0
  0
LINE
  8
0
 62
     0
 10
0.691776
 20
3.6201
 30
0.0
 11
0.686262
 21
3.56775
 31
0.0
  0
LINE
  8
0
 62
     0
 10
0.686262
 20
3.56775
 30
0.0
 11
0.697286
 21
3.73309
 31
0.0
  0
LINE
  8
0
 62
     0
 10
3.61047
 20
2.46531
 30
0.0
 11
3.58151
 21
2.48598
 31
0.0
  0
LINE
  8
0
 62
     0
 10
3.58151
 20
2.48598
 30
0.0
 11
3.57738
 21
2.70647
 31
0.0
  0
LINE
  8
0
 62
     0
 10
3.57738
 20
2.70647
 30
0.0
 11
3.65732
 21
2.9807
 31
0.0
  0
LINE
  8
0
 62
     0
 10
3.65732
 20
2.9807
 30
0.0
 11
3.67111
 21
3.02755
 31
0.0
  0
LINE
  8
0
 62
     0
 10
3.67111
 20
3.02755
 30
0.0
 11
3.68212
 21
3.06338
 31
0.0
  0
LINE
  8
0
 62
     0
 10
3.68212
 20
3.06338
 30
0.0
 11
3.90536
 21
3.5264
 31
0.0
  0
LINE
  8
0
 62
     0
 10
3.90536
 20
3.5264
 30
0.0
 11
3.93569
 21
3.56775
 31
0.0
  0
LINE
  8
0
 62
     0
 10
3.93569
 20
3.56775
 30
0.0
 11
3.9412
 21
3.58013
 31
0.0
  0
LINE
  8
0
 62
     0
 10
3.9412
 20
3.58013
 30
0.0
 11
4.10104
 21
3.75239
 31
0.0
  0
LINE
  8
0
 62
     0
 10
4.10104
 20
3.75239
 30
0.0
 11
4.33807
 21
3.95358
 31
0.0
  0
LINE
  8
0
 62
     0
 10
4.33807
 20
3.95358
 30
0.0
 11
4.38217
 21
3.98117
 31
0.0
  0
LINE
  8
0
 62
     0
 10
4.38217
 20
3.98117
 30
0.0
 11
4.42352
 21
4.00597
 31
0.0
  0
LINE
  8
0
 62
     0
 10
4.42352
 20
4.00597
 30
0.0
 11
4.93614
 21
4.18511
 31
0.0
  0
LINE
  8
0
 62
     0
 10
4.93614
 20
4.18511
 30
0.0
 11
4.99403
 21
4.19061
 31
0.0
  0
LINE
  8
0
 62
     0
 10
4.99403
 20
4.19061
 30
0.0
 11
4.99816
 21
4.17682
 31
0.0
  0
LINE
  8
0
 62
     0
 10
4.99816
 20
4.17682
 30
0.0
 11
5.12491
 21
4.16444
 31
0.0
  0
LINE
  8
0
 62
     0
 10
5.12491
 20
4.16444
 30
0.0
 11
5.28891
 21
4.18924
 31
0.0
  0
LINE
  8
0
 62
     0
 10
5.28891
 20
4.18924
 30
0.0
 11
5.31372
 21
4.18511
 31
0.0
  0
LINE
  8
0
 62
     0
 10
5.31372
 20
4.18511
 30
0.0
 11
5.31509
 21
4.16856
 31
0.0
  0
LINE
  8
0
 62
     0
 10
5.31509
 20
4.16856
 30
0.0
 11
5.40741
 21
4.12447
 31
0.0
  0
LINE
  8
0
 62
     0
 10
5.40741
 20
4.12447
 30
0.0
 11
5.52041
 21
4.11346
 31
0.0
  0
LINE
  8
0
 62
     0
 10
5.52041
 20
4.11346
 30
0.0
 11
5.5342
 21
4.10242
 31
0.0
  0
LINE
  8
0
 62
     0
 10
5.5342
 20
4.10242
 30
0.0
 11
5.53695
 21
4.07762
 31
0.0
  0
LINE
  8
0
 62
     0
 10
5.53695
 20
4.07762
 30
0.0
 11
5.60585
 21
3.93569
 31
0.0
  0
LINE
  8
0
 62
     0
 10
5.60585
 20
3.93569
 30
0.0
 11
5.60585
 21
3.91502
 31
0.0
  0
LINE
  8
0
 62
     0
 10
5.60585
 20
3.91502
 30
0.0
 11
5.58934
 21
3.8723
 31
0.0
  0
LINE
  8
0
 62
     0
 10
5.58934
 20
3.8723
 30
0.0
 11
5.54937
 21
3.74001
 31
0.0
  0
LINE
  8
0
 62
     0
 10
5.54937
 20
3.74001
 30
0.0
 11
5.50665
 21
3.64628
 31
0.0
  0
LINE
  8
0
 62
     0
 10
5.50665
 20
3.64628
 30
0.0
 11
5.4901
 21
3.61735
 31
0.0
  0
LINE
  8
0
 62
     0
 10
5.4901
 20
3.61735
 30
0.0
 11
5.46668
 21
3.5898
 31
0.0
  0
LINE
  8
0
 62
     0
 10
5.46668
 20
3.5898
 30
0.0
 11
5.26687
 21
3.37344
 31
0.0
  0
LINE
  8
0
 62
     0
 10
5.26687
 20
3.37344
 30
0.0
 11
5.24207
 21
3.35277
 31
0.0
  0
LINE
  8
0
 62
     0
 10
5.24207
 20
3.35277
 30
0.0
 11
5.2021
 21
3.32245
 31
0.0
  0
LINE
  8
0
 62
     0
 10
5.2021
 20
3.32245
 30
0.0
 11
4.95131
 21
3.15984
 31
0.0
  0
LINE
  8
0
 62
     0
 10
4.95131
 20
3.15984
 30
0.0
 11
4.92234
 21
3.14331
 31
0.0
  0
LINE
  8
0
 62
     0
 10
4.92234
 20
3.14331
 30
0.0
 11
4.87825
 21
3.10747
 31
0.0
  0
LINE
  8
0
 62
     0
 10
4.87825
 20
3.10747
 30
0.0
 11
4.71978
 21
3.02893
 31
0.0
  0
LINE
  8
0
 62
     0
 10
4.71978
 20
3.02893
 30
0.0
 11
4.59437
 21
3.00964
 31
0.0
  0
LINE
  8
0
 62
     0
 10
4.59437
 20
3.00964
 30
0.0
 11
4.56406
 21
2.99999
 31
0.0
  0
LINE
  8
0
 62
     0
 10
4.56406
 20
2.99999
 30
0.0
 11
4.51584
 21
2.9807
 31
0.0
  0
LINE
  8
0
 62
     0
 10
4.51584
 20
2.9807
 30
0.0
 11
4.35737
 21
2.94624
 31
0.0
  0
LINE
  8
0
 62
     0
 10
4.35737
 20
2.94624
 30
0.0
 11
4.24713
 21
2.95038
 31
0.0
  0
LINE
  8
0
 62
     0
 10
4.24713
 20
2.95038
 30
0.0
 11
4.21128
 21
2.95038
 31
0.0
  0
LINE
  8
0
 62
     0
 10
4.21128
 20
2.95038
 30
0.0
 11
4.18648
 21
2.92144
 31
0.0
  0
LINE
  8
0
 62
     0
 10
4.18648
 20
2.92144
 30
0.0
 11
4.16306
 21
2.68993
 31
0.0
  0
LINE
  8
0
 62
     0
 10
4.16306
 20
2.68993
 30
0.0
 11
4.16168
 21
2.66375
 31
0.0
  0
LINE
  8
0
 62
     0
 10
4.16168
 20
2.66375
 30
0.0
 11
4.14651
 21
2.62654
 31
0.0
  0
LINE
  8
0
 62
     0
 10
4.14651
 20
2.62654
 30
0.0
 11
4.16994
 21
2.38676
 31
0.0
  0
LINE
  8
0
 62
     0
 10
4.16994
 20
2.38676
 30
0.0
 11
4.17269
 21
2.36058
 31
0.0
  0
LINE
  8
0
 62
     0
 10
4.17269
 20
2.36058
 30
0.0
 11
4.16168
 21
2.32062
 31
0.0
  0
LINE
  8
0
 62
     0
 10
4.16168
 20
2.32062
 30
0.0
 11
4.17682
 21
2.18419
 31
0.0
  0
LINE
  8
0
 62
     0
 10
4.17682
 20
2.18419
 30
0.0
 11
4.23471
 21
2.08773
 31
0.0
  0
LINE
  8
0
 62
     0
 10
4.23471
 20
2.08773
 30
0.0
 11
4.24438
 21
2.06292
 31
0.0
  0
LINE
  8
0
 62
     0
 10
4.24438
 20
2.06292
 30
0.0
 11
4.23471
 21
2.02709
 31
0.0
  0
LINE
  8
0
 62
     0
 10
4.23471
 20
2.02709
 30
0.0
 11
4.28018
 21
1.90032
 31
0.0
  0
LINE
  8
0
 62
     0
 10
4.28018
 20
1.90032
 30
0.0
 11
4.3863
 21
1.84244
 31
0.0
  0
LINE
  8
0
 62
     0
 10
4.3863
 20
1.84244
 30
0.0
 11
4.40422
 21
1.8259
 31
0.0
  0
LINE
  8
0
 62
     0
 10
4.40422
 20
1.8259
 30
0.0
 11
4.44694
 21
1.77905
 31
0.0
  0
LINE
  8
0
 62
     0
 10
4.44694
 20
1.77905
 30
0.0
 11
4.92788
 21
1.61506
 31
0.0
  0
LINE
  8
0
 62
     0
 10
4.92788
 20
1.61506
 30
0.0
 11
4.97748
 21
1.62746
 31
0.0
  0
LINE
  8
0
 62
     0
 10
4.97748
 20
1.62746
 30
0.0
 11
5.00366
 21
1.62746
 31
0.0
  0
LINE
  8
0
 62
     0
 10
5.00366
 20
1.62746
 30
0.0
 11
5.22552
 21
1.73082
 31
0.0
  0
LINE
  8
0
 62
     0
 10
5.22552
 20
1.73082
 30
0.0
 11
5.48047
 21
1.91685
 31
0.0
  0
LINE
  8
0
 62
     0
 10
5.48047
 20
1.91685
 30
0.0
 11
5.52319
 21
1.95819
 31
0.0
  0
LINE
  8
0
 62
     0
 10
5.52319
 20
1.95819
 30
0.0
 11
5.54799
 21
1.97886
 31
0.0
  0
LINE
  8
0
 62
     0
 10
5.54799
 20
1.97886
 30
0.0
 11
5.85114
 21
2.34404
 31
0.0
  0
LINE
  8
0
 62
     0
 10
5.85114
 20
2.34404
 30
0.0
 11
5.87597
 21
2.38263
 31
0.0
  0
LINE
  8
0
 62
     0
 10
5.87597
 20
2.38263
 30
0.0
 11
5.89248
 21
2.40468
 31
0.0
  0
LINE
  8
0
 62
     0
 10
5.89248
 20
2.40468
 30
0.0
 11
6.13089
 21
2.82222
 31
0.0
  0
LINE
  8
0
 62
     0
 10
6.13089
 20
2.82222
 30
0.0
 11
6.15156
 21
2.86219
 31
0.0
  0
LINE
  8
0
 62
     0
 10
6.15156
 20
2.86219
 30
0.0
 11
6.15156
 21
2.86219
 31
0.0
  0
LINE
  8
0
 62
     0
 10
6.15156
 20
2.86219
 30
0.0
 11
6.19153
 21
2.87734
 31
0.0
  0
LINE
  8
0
 62
     0
 10
6.19153
 20
2.87734
 30
0.0
 11
6.23976
 21
2.93936
 31
0.0
  0
LINE
  8
0
 62
     0
 10
6.23976
 20
2.93936
 30
0.0
 11
6.2563
 21
2.93936
 31
0.0
  0
LINE
  8
0
 62
     0
 10
6.2563
 20
2.93936
 30
0.0
 11
6.2563
 21
2.93384
 31
0.0
  0
LINE
  8
0
 62
     0
 10
6.2563
 20
2.93384
 30
0.0
 11
6.29348
 21
2.87321
 31
0.0
  0
LINE
  8
0
 62
     0
 10
6.29348
 20
2.87321
 30
0.0
 11
6.28936
 21
2.86219
 31
0.0
  0
LINE
  8
0
 62
     0
 10
6.28936
 20
2.86219
 30
0.0
 11
6.25217
 21
2.78915
 31
0.0
  0
LINE
  8
0
 62
     0
 10
6.25217
 20
2.78915
 30
0.0
 11
6.12401
 21
2.55626
 31
0.0
  0
LINE
  8
0
 62
     0
 10
6.12401
 20
2.55626
 30
0.0
 11
6.01789
 21
2.38263
 31
0.0
  0
LINE
  8
0
 62
     0
 10
6.01789
 20
2.38263
 30
0.0
 11
5.99172
 21
2.33853
 31
0.0
  0
LINE
  8
0
 62
     0
 10
5.99172
 20
2.33853
 30
0.0
 11
5.94625
 21
2.28203
 31
0.0
  0
LINE
  8
0
 62
     0
 10
5.94625
 20
2.28203
 30
0.0
 11
5.79328
 21
2.07395
 31
0.0
  0
LINE
  8
0
 62
     0
 10
5.79328
 20
2.07395
 30
0.0
 11
5.65824
 21
1.91134
 31
0.0
  0
LINE
  8
0
 62
     0
 10
5.65824
 20
1.91134
 30
0.0
 11
5.6224
 21
1.87551
 31
0.0
  0
LINE
  8
0
 62
     0
 10
5.6224
 20
1.87551
 30
0.0
 11
5.559
 21
1.82728
 31
0.0
  0
LINE
  8
0
 62
     0
 10
5.559
 20
1.82728
 30
0.0
 11
5.06568
 21
1.53376
 31
0.0
  0
LINE
  8
0
 62
     0
 10
5.06568
 20
1.53376
 30
0.0
 11
5.01054
 21
1.51722
 31
0.0
  0
LINE
  8
0
 62
     0
 10
5.01054
 20
1.51722
 30
0.0
 11
4.92926
 21
1.49655
 31
0.0
  0
LINE
  8
0
 62
     0
 10
4.92926
 20
1.49655
 30
0.0
 11
4.64813
 21
1.45245
 31
0.0
  0
LINE
  8
0
 62
     0
 10
4.64813
 20
1.45245
 30
0.0
 11
4.42627
 21
1.47312
 31
0.0
  0
LINE
  8
0
 62
     0
 10
4.42627
 20
1.47312
 30
0.0
 11
4.37667
 21
1.48415
 31
0.0
  0
LINE
  8
0
 62
     0
 10
4.37667
 20
1.48415
 30
0.0
 11
4.32428
 21
1.4938
 31
0.0
  0
LINE
  8
0
 62
     0
 10
4.32428
 20
1.4938
 30
0.0
 11
3.89435
 21
1.75286
 31
0.0
  0
LINE
  8
0
 62
     0
 10
3.89435
 20
1.75286
 30
0.0
 11
3.85851
 21
1.79283
 31
0.0
  0
LINE
  8
0
 62
     0
 10
3.85851
 20
1.79283
 30
0.0
 11
3.8034
 21
1.80523
 31
0.0
  0
LINE
  8
0
 62
     0
 10
3.8034
 20
1.80523
 30
0.0
 11
3.66007
 21
2.04088
 31
0.0
  0
LINE
  8
0
 62
     0
 10
3.66007
 20
2.04088
 30
0.0
 11
3.6146
 21
2.39365
 31
0.0
  0
LINE
  8
0
 62
     0
 10
3.6146
 20
2.39365
 30
0.0
 11
3.61047
 21
2.46531
 31
0.0
  0
LINE
  8
0
 62
     0
 10
4.24988
 20
3.06614
 30
0.0
 11
4.25263
 21
3.05649
 31
0.0
  0
LINE
  8
0
 62
     0
 10
4.25263
 20
3.05649
 30
0.0
 11
4.37526
 21
3.06062
 31
0.0
  0
LINE
  8
0
 62
     0
 10
4.37526
 20
3.06062
 30
0.0
 11
4.54201
 21
3.11437
 31
0.0
  0
LINE
  8
0
 62
     0
 10
4.54201
 20
3.11437
 30
0.0
 11
4.56957
 21
3.12126
 31
0.0
  0
LINE
  8
0
 62
     0
 10
4.56957
 20
3.12126
 30
0.0
 11
4.57786
 21
3.11023
 31
0.0
  0
LINE
  8
0
 62
     0
 10
4.57786
 20
3.11023
 30
0.0
 11
4.70461
 21
3.14606
 31
0.0
  0
LINE
  8
0
 62
     0
 10
4.70461
 20
3.14606
 30
0.0
 11
4.86311
 21
3.23564
 31
0.0
  0
LINE
  8
0
 62
     0
 10
4.86311
 20
3.23564
 30
0.0
 11
4.88929
 21
3.24804
 31
0.0
  0
LINE
  8
0
 62
     0
 10
4.88929
 20
3.24804
 30
0.0
 11
4.9003
 21
3.26044
 31
0.0
  0
LINE
  8
0
 62
     0
 10
4.9003
 20
3.26044
 30
0.0
 11
5.15387
 21
3.42305
 31
0.0
  0
LINE
  8
0
 62
     0
 10
5.15387
 20
3.42305
 30
0.0
 11
5.17592
 21
3.44096
 31
0.0
  0
LINE
  8
0
 62
     0
 10
5.17592
 20
3.44096
 30
0.0
 11
5.22965
 21
3.44096
 31
0.0
  0
LINE
  8
0
 62
     0
 10
5.22965
 20
3.44096
 30
0.0
 11
5.37711
 21
3.66145
 31
0.0
  0
LINE
  8
0
 62
     0
 10
5.37711
 20
3.66145
 30
0.0
 11
5.3909
 21
3.68349
 31
0.0
  0
LINE
  8
0
 62
     0
 10
5.3909
 20
3.68349
 30
0.0
 11
5.38399
 21
3.70692
 31
0.0
  0
LINE
  8
0
 62
     0
 10
5.38399
 20
3.70692
 30
0.0
 11
5.43638
 21
3.83371
 31
0.0
  0
LINE
  8
0
 62
     0
 10
5.43638
 20
3.83371
 30
0.0
 11
5.49423
 21
3.9412
 31
0.0
  0
LINE
  8
0
 62
     0
 10
5.49423
 20
3.9412
 30
0.0
 11
5.4901
 21
3.95358
 31
0.0
  0
LINE
  8
0
 62
     0
 10
5.4901
 20
3.95358
 30
0.0
 11
5.4791
 21
3.966
 31
0.0
  0
LINE
  8
0
 62
     0
 10
5.4791
 20
3.966
 30
0.0
 11
5.38949
 21
4.04177
 31
0.0
  0
LINE
  8
0
 62
     0
 10
5.38949
 20
4.04177
 30
0.0
 11
5.37436
 21
4.04177
 31
0.0
  0
LINE
  8
0
 62
     0
 10
5.37436
 20
4.04177
 30
0.0
 11
5.33989
 21
4.03627
 31
0.0
  0
LINE
  8
0
 62
     0
 10
5.33989
 20
4.03627
 30
0.0
 11
5.23515
 21
4.02527
 31
0.0
  0
LINE
  8
0
 62
     0
 10
5.23515
 20
4.02527
 30
0.0
 11
5.17317
 21
4.0156
 31
0.0
  0
LINE
  8
0
 62
     0
 10
5.17317
 20
4.0156
 30
0.0
 11
5.15387
 21
4.00872
 31
0.0
  0
LINE
  8
0
 62
     0
 10
5.15387
 20
4.00872
 30
0.0
 11
5.12353
 21
3.9963
 31
0.0
  0
LINE
  8
0
 62
     0
 10
5.12353
 20
3.9963
 30
0.0
 11
4.94302
 21
3.92465
 31
0.0
  0
LINE
  8
0
 62
     0
 10
4.94302
 20
3.92465
 30
0.0
 11
4.92788
 21
3.91502
 31
0.0
  0
LINE
  8
0
 62
     0
 10
4.92788
 20
3.91502
 30
0.0
 11
4.86724
 21
3.86401
 31
0.0
  0
LINE
  8
0
 62
     0
 10
4.86724
 20
3.86401
 30
0.0
 11
4.67018
 21
3.71105
 31
0.0
  0
LINE
  8
0
 62
     0
 10
4.67018
 20
3.71105
 30
0.0
 11
4.53651
 21
3.58429
 31
0.0
  0
LINE
  8
0
 62
     0
 10
4.53651
 20
3.58429
 30
0.0
 11
4.50896
 21
3.5457
 31
0.0
  0
LINE
  8
0
 62
     0
 10
4.50896
 20
3.5457
 30
0.0
 11
4.46761
 21
3.48093
 31
0.0
  0
LINE
  8
0
 62
     0
 10
4.46761
 20
3.48093
 30
0.0
 11
4.34082
 21
3.27284
 31
0.0
  0
LINE
  8
0
 62
     0
 10
4.34082
 20
3.27284
 30
0.0
 11
4.26501
 21
3.10885
 31
0.0
  0
LINE
  8
0
 62
     0
 10
4.26501
 20
3.10885
 30
0.0
 11
4.24988
 21
3.06614
 31
0.0
  0
LINE
  8
0
 62
     0
 10
8.40327
 20
2.55902
 30
0.0
 11
8.4019
 21
2.56866
 31
0.0
  0
LINE
  8
0
 62
     0
 10
8.4019
 20
2.56866
 30
0.0
 11
8.48321
 21
2.7106
 31
0.0
  0
LINE
  8
0
 62
     0
 10
8.48321
 20
2.7106
 30
0.0
 11
8.49147
 21
2.72438
 31
0.0
  0
LINE
  8
0
 62
     0
 10
8.49147
 20
2.72438
 30
0.0
 11
8.49147
 21
2.72438
 31
0.0
  0
LINE
  8
0
 62
     0
 10
8.49147
 20
2.72438
 30
0.0
 11
8.51076
 21
2.78915
 31
0.0
  0
LINE
  8
0
 62
     0
 10
8.51076
 20
2.78915
 30
0.0
 11
8.57141
 21
2.88699
 31
0.0
  0
LINE
  8
0
 62
     0
 10
8.57141
 20
2.88699
 30
0.0
 11
8.57966
 21
2.90077
 31
0.0
  0
LINE
  8
0
 62
     0
 10
8.57966
 20
2.90077
 30
0.0
 11
8.57966
 21
2.90077
 31
0.0
  0
LINE
  8
0
 62
     0
 10
8.57966
 20
2.90077
 30
0.0
 11
8.58379
 21
2.92144
 31
0.0
  0
LINE
  8
0
 62
     0
 10
8.58379
 20
2.92144
 30
0.0
 11
8.58516
 21
2.92282
 31
0.0
  0
LINE
  8
0
 62
     0
 10
8.58516
 20
2.92282
 30
0.0
 11
8.58516
 21
2.92282
 31
0.0
  0
LINE
  8
0
 62
     0
 10
8.58516
 20
2.92282
 30
0.0
 11
8.5907
 21
2.94349
 31
0.0
  0
LINE
  8
0
 62
     0
 10
8.5907
 20
2.94349
 30
0.0
 11
8.5907
 21
2.95038
 31
0.0
  0
LINE
  8
0
 62
     0
 10
8.5907
 20
2.95038
 30
0.0
 11
8.58516
 21
2.95038
 31
0.0
  0
LINE
  8
0
 62
     0
 10
8.58516
 20
2.95038
 30
0.0
 11
8.56728
 21
2.95176
 31
0.0
  0
LINE
  8
0
 62
     0
 10
8.56728
 20
2.95176
 30
0.0
 11
8.61963
 21
2.97105
 31
0.0
  0
LINE
  8
0
 62
     0
 10
8.61963
 20
2.97105
 30
0.0
 11
8.62376
 21
2.97243
 31
0.0
  0
LINE
  8
0
 62
     0
 10
8.62376
 20
2.97243
 30
0.0
 11
8.61963
 21
2.97243
 31
0.0
  0
LINE
  8
0
 62
     0
 10
8.61963
 20
2.97243
 30
0.0
 11
8.60859
 21
2.97243
 31
0.0
  0
LINE
  8
0
 62
     0
 10
8.60859
 20
2.97243
 30
0.0
 11
8.65685
 21
2.98897
 31
0.0
  0
LINE
  8
0
 62
     0
 10
8.65685
 20
2.98897
 30
0.0
 11
8.67336
 21
2.98897
 31
0.0
  0
LINE
  8
0
 62
     0
 10
8.67336
 20
2.98897
 30
0.0
 11
8.67336
 21
2.98345
 31
0.0
  0
LINE
  8
0
 62
     0
 10
8.67336
 20
2.98345
 30
0.0
 11
8.7037
 21
2.97105
 31
0.0
  0
LINE
  8
0
 62
     0
 10
8.7037
 20
2.97105
 30
0.0
 11
8.70645
 21
2.96692
 31
0.0
  0
LINE
  8
0
 62
     0
 10
8.70645
 20
2.96692
 30
0.0
 11
8.7037
 21
2.95589
 31
0.0
  0
LINE
  8
0
 62
     0
 10
8.7037
 20
2.95589
 30
0.0
 11
8.7092
 21
2.90904
 31
0.0
  0
LINE
  8
0
 62
     0
 10
8.7092
 20
2.90904
 30
0.0
 11
8.70645
 21
2.90077
 31
0.0
  0
LINE
  8
0
 62
     0
 10
8.70645
 20
2.90077
 30
0.0
 11
8.49697
 21
2.48185
 31
0.0
  0
LINE
  8
0
 62
     0
 10
8.49697
 20
2.48185
 30
0.0
 11
8.46804
 21
2.43224
 31
0.0
  0
LINE
  8
0
 62
     0
 10
8.46804
 20
2.43224
 30
0.0
 11
8.38398
 21
2.2779
 31
0.0
  0
LINE
  8
0
 62
     0
 10
8.38398
 20
2.2779
 30
0.0
 11
8.32337
 21
2.15938
 31
0.0
  0
LINE
  8
0
 62
     0
 10
8.32337
 20
2.15938
 30
0.0
 11
8.30407
 21
2.12356
 31
0.0
  0
LINE
  8
0
 62
     0
 10
8.30407
 20
2.12356
 30
0.0
 11
8.28477
 21
2.0643
 31
0.0
  0
LINE
  8
0
 62
     0
 10
8.28477
 20
2.0643
 30
0.0
 11
8.07805
 21
1.75011
 31
0.0
  0
LINE
  8
0
 62
     0
 10
8.07805
 20
1.75011
 30
0.0
 11
8.056
 21
1.71566
 31
0.0
  0
LINE
  8
0
 62
     0
 10
8.056
 20
1.71566
 30
0.0
 11
8.02432
 21
1.66054
 31
0.0
  0
LINE
  8
0
 62
     0
 10
8.02432
 20
1.66054
 30
0.0
 11
7.90028
 21
1.48277
 31
0.0
  0
LINE
  8
0
 62
     0
 10
7.90028
 20
1.48277
 30
0.0
 11
7.78591
 21
1.35186
 31
0.0
  0
LINE
  8
0
 62
     0
 10
7.78591
 20
1.35186
 30
0.0
 11
7.75836
 21
1.31878
 31
0.0
  0
LINE
  8
0
 62
     0
 10
7.75836
 20
1.31878
 30
0.0
 11
7.71701
 21
1.27055
 31
0.0
  0
LINE
  8
0
 62
     0
 10
7.71701
 20
1.27055
 30
0.0
 11
7.57372
 21
1.1231
 31
0.0
  0
LINE
  8
0
 62
     0
 10
7.57372
 20
1.1231
 30
0.0
 11
7.45518
 21
1.03491
 31
0.0
  0
LINE
  8
0
 62
     0
 10
7.45518
 20
1.03491
 30
0.0
 11
7.42763
 21
1.01562
 31
0.0
  0
LINE
  8
0
 62
     0
 10
7.42763
 20
1.01562
 30
0.0
 11
7.38628
 21
0.978408
 31
0.0
  0
LINE
  8
0
 62
     0
 10
7.38628
 20
0.978408
 30
0.0
 11
7.2347
 21
0.892969
 31
0.0
  0
LINE
  8
0
 62
     0
 10
7.2347
 20
0.892969
 30
0.0
 11
7.11895
 21
0.883324
 31
0.0
  0
LINE
  8
0
 62
     0
 10
7.11895
 20
0.883324
 30
0.0
 11
7.0914
 21
0.87781
 31
0.0
  0
LINE
  8
0
 62
     0
 10
7.0914
 20
0.87781
 30
0.0
 11
7.0473
 21
0.86403
 31
0.0
  0
LINE
  8
0
 62
     0
 10
7.0473
 20
0.86403
 30
0.0
 11
6.90534
 21
0.859896
 31
0.0
  0
LINE
  8
0
 62
     0
 10
6.90534
 20
0.859896
 30
0.0
 11
6.80614
 21
0.902614
 31
0.0
  0
LINE
  8
0
 62
     0
 10
6.80614
 20
0.902614
 30
0.0
 11
6.78272
 21
0.910883
 31
0.0
  0
LINE
  8
0
 62
     0
 10
6.78272
 20
0.910883
 30
0.0
 11
6.74137
 21
0.908128
 31
0.0
  0
LINE
  8
0
 62
     0
 10
6.74137
 20
0.908128
 30
0.0
 11
6.61458
 21
0.967384
 31
0.0
  0
LINE
  8
0
 62
     0
 10
6.61458
 20
0.967384
 30
0.0
 11
6.54293
 21
1.07349
 31
0.0
  0
LINE
  8
0
 62
     0
 10
6.54293
 20
1.07349
 30
0.0
 11
6.52364
 21
1.09279
 31
0.0
  0
LINE
  8
0
 62
     0
 10
6.52364
 20
1.09279
 30
0.0
 11
6.49192
 21
1.08865
 31
0.0
  0
LINE
  8
0
 62
     0
 10
6.49192
 20
1.08865
 30
0.0
 11
6.37893
 21
1.18787
 31
0.0
  0
LINE
  8
0
 62
     0
 10
6.37893
 20
1.18787
 30
0.0
 11
6.36104
 21
1.36288
 31
0.0
  0
LINE
  8
0
 62
     0
 10
6.36104
 20
1.36288
 30
0.0
 11
6.35275
 21
1.39044
 31
0.0
  0
LINE
  8
0
 62
     0
 10
6.35275
 20
1.39044
 30
0.0
 11
6.31832
 21
1.41938
 31
0.0
  0
LINE
  8
0
 62
     0
 10
6.31832
 20
1.41938
 30
0.0
 11
6.2315
 21
1.69361
 31
0.0
  0
LINE
  8
0
 62
     0
 10
6.2315
 20
1.69361
 30
0.0
 11
6.20391
 21
2.04914
 31
0.0
  0
LINE
  8
0
 62
     0
 10
6.20391
 20
2.04914
 30
0.0
 11
6.19841
 21
2.11805
 31
0.0
  0
LINE
  8
0
 62
     0
 10
6.19841
 20
2.11805
 30
0.0
 11
6.19153
 21
2.16214
 31
0.0
  0
LINE
  8
0
 62
     0
 10
6.19153
 20
2.16214
 30
0.0
 11
6.18049
 21
2.49701
 31
0.0
  0
LINE
  8
0
 62
     0
 10
6.18049
 20
2.49701
 30
0.0
 11
6.18878
 21
2.88975
 31
0.0
  0
LINE
  8
0
 62
     0
 10
6.18878
 20
2.88975
 30
0.0
 11
6.19291
 21
2.9614
 31
0.0
  0
LINE
  8
0
 62
     0
 10
6.19291
 20
2.9614
 30
0.0
 11
6.19566
 21
3.02617
 31
0.0
  0
LINE
  8
0
 62
     0
 10
6.19566
 20
3.02617
 30
0.0
 11
6.27006
 21
3.72209
 31
0.0
  0
LINE
  8
0
 62
     0
 10
6.27006
 20
3.72209
 30
0.0
 11
6.2811
 21
3.78823
 31
0.0
  0
LINE
  8
0
 62
     0
 10
6.2811
 20
3.78823
 30
0.0
 11
6.28248
 21
3.83783
 31
0.0
  0
LINE
  8
0
 62
     0
 10
6.28248
 20
3.83783
 30
0.0
 11
6.40514
 21
4.44419
 31
0.0
  0
LINE
  8
0
 62
     0
 10
6.40514
 20
4.44419
 30
0.0
 11
6.4189
 21
4.49379
 31
0.0
  0
LINE
  8
0
 62
     0
 10
6.4189
 20
4.49379
 30
0.0
 11
6.41477
 21
4.54752
 31
0.0
  0
LINE
  8
0
 62
     0
 10
6.41477
 20
4.54752
 30
0.0
 11
6.48917
 21
4.89066
 31
0.0
  0
LINE
  8
0
 62
     0
 10
6.48917
 20
4.89066
 30
0.0
 11
6.61321
 21
5.25999
 31
0.0
  0
LINE
  8
0
 62
     0
 10
6.61321
 20
5.25999
 30
0.0
 11
6.63388
 21
5.32613
 31
0.0
  0
LINE
  8
0
 62
     0
 10
6.63388
 20
5.32613
 30
0.0
 11
6.64626
 21
5.36607
 31
0.0
  0
LINE
  8
0
 62
     0
 10
6.64626
 20
5.36607
 30
0.0
 11
6.751
 21
5.67891
 31
0.0
  0
LINE
  8
0
 62
     0
 10
6.751
 20
5.67891
 30
0.0
 11
6.87917
 21
6.03306
 31
0.0
  0
LINE
  8
0
 62
     0
 10
6.87917
 20
6.03306
 30
0.0
 11
6.90397
 21
6.0923
 31
0.0
  0
LINE
  8
0
 62
     0
 10
6.90397
 20
6.0923
 30
0.0
 11
6.92739
 21
6.15569
 31
0.0
  0
LINE
  8
0
 62
     0
 10
6.92739
 20
6.15569
 30
0.0
 11
7.22369
 21
6.8392
 31
0.0
  0
LINE
  8
0
 62
     0
 10
7.22369
 20
6.8392
 30
0.0
 11
7.25674
 21
6.90809
 31
0.0
  0
LINE
  8
0
 62
     0
 10
7.25674
 20
6.90809
 30
0.0
 11
7.28846
 21
6.96461
 31
0.0
  0
LINE
  8
0
 62
     0
 10
7.28846
 20
6.96461
 30
0.0
 11
7.67567
 21
7.62469
 31
0.0
  0
LINE
  8
0
 62
     0
 10
7.67567
 20
7.62469
 30
0.0
 11
7.71977
 21
7.68533
 31
0.0
  0
LINE
  8
0
 62
     0
 10
7.71977
 20
7.68533
 30
0.0
 11
7.75286
 21
7.72806
 31
0.0
  0
LINE
  8
0
 62
     0
 10
7.75286
 20
7.72806
 30
0.0
 11
7.9871
 21
8.00502
 31
0.0
  0
LINE
  8
0
 62
     0
 10
7.9871
 20
8.00502
 30
0.0
 11
8.26823
 21
8.29441
 31
0.0
  0
LINE
  8
0
 62
     0
 10
8.26823
 20
8.29441
 30
0.0
 11
8.32612
 21
8.34125
 31
0.0
  0
LINE
  8
0
 62
     0
 10
8.32612
 20
8.34125
 30
0.0
 11
8.37985
 21
8.37434
 31
0.0
  0
LINE
  8
0
 62
     0
 10
8.37985
 20
8.37434
 30
0.0
 11
9.02614
 21
8.75743
 31
0.0
  0
LINE
  8
0
 62
     0
 10
9.02614
 20
8.75743
 30
0.0
 11
9.09782
 21
8.78223
 31
0.0
  0
LINE
  8
0
 62
     0
 10
9.09782
 20
8.78223
 30
0.0
 11
9.11987
 21
8.77122
 31
0.0
  0
LINE
  8
0
 62
     0
 10
9.11987
 20
8.77122
 30
0.0
 11
9.4258
 21
8.86217
 31
0.0
  0
LINE
  8
0
 62
     0
 10
9.4258
 20
8.86217
 30
0.0
 11
9.4561
 21
8.86492
 31
0.0
  0
LINE
  8
0
 62
     0
 10
9.4561
 20
8.86492
 30
0.0
 11
9.47678
 21
8.86905
 31
0.0
  0
LINE
  8
0
 62
     0
 10
9.47678
 20
8.86905
 30
0.0
 11
9.74686
 21
8.84149
 31
0.0
  0
LINE
  8
0
 62
     0
 10
9.74686
 20
8.84149
 30
0.0
 11
9.77029
 21
8.83186
 31
0.0
  0
LINE
  8
0
 62
     0
 10
9.77029
 20
8.83186
 30
0.0
 11
9.78821
 21
8.7974
 31
0.0
  0
LINE
  8
0
 62
     0
 10
9.78821
 20
8.7974
 30
0.0
 11
9.98252
 21
8.66786
 31
0.0
  0
LINE
  8
0
 62
     0
 10
9.98252
 20
8.66786
 30
0.0
 11
9.99628
 21
8.64443
 31
0.0
  0
LINE
  8
0
 62
     0
 10
9.99628
 20
8.64443
 30
0.0
 11
9.98664
 21
8.61138
 31
0.0
  0
LINE
  8
0
 62
     0
 10
9.98664
 20
8.61138
 30
0.0
 11
10.0252
 21
8.46942
 31
0.0
  0
LINE
  8
0
 62
     0
 10
10.0252
 20
8.46942
 30
0.0
 11
10.0845
 21
8.32474
 31
0.0
  0
LINE
  8
0
 62
     0
 10
10.0845
 20
8.32474
 30
0.0
 11
10.0845
 21
8.27511
 31
0.0
  0
LINE
  8
0
 62
     0
 10
10.0845
 20
8.27511
 30
0.0
 11
10.0817
 21
8.19933
 31
0.0
  0
LINE
  8
0
 62
     0
 10
10.0817
 20
8.19933
 30
0.0
 11
9.9949
 21
7.79004
 31
0.0
  0
LINE
  8
0
 62
     0
 10
9.9949
 20
7.79004
 30
0.0
 11
9.8075
 21
7.30772
 31
0.0
  0
LINE
  8
0
 62
     0
 10
9.8075
 20
7.30772
 30
0.0
 11
9.75374
 21
7.19473
 31
0.0
  0
LINE
  8
0
 62
     0
 10
9.75374
 20
7.19473
 30
0.0
 11
9.69589
 21
7.07485
 31
0.0
  0
LINE
  8
0
 62
     0
 10
9.69589
 20
7.07485
 30
0.0
 11
9.31002
 21
6.44095
 31
0.0
  0
LINE
  8
0
 62
     0
 10
9.31002
 20
6.44095
 30
0.0
 11
8.78498
 21
5.72851
 31
0.0
  0
LINE
  8
0
 62
     0
 10
8.78498
 20
5.72851
 30
0.0
 11
8.65685
 21
5.56867
 31
0.0
  0
LINE
  8
0
 62
     0
 10
8.65685
 20
5.56867
 30
0.0
 11
8.62513
 21
5.51215
 31
0.0
  0
LINE
  8
0
 62
     0
 10
8.62513
 20
5.51215
 30
0.0
 11
8.28477
 21
5.13595
 31
0.0
  0
LINE
  8
0
 62
     0
 10
8.28477
 20
5.13595
 30
0.0
 11
8.24893
 21
5.0946
 31
0.0
  0
LINE
  8
0
 62
     0
 10
8.24893
 20
5.0946
 30
0.0
 11
8.18691
 21
5.045
 31
0.0
  0
LINE
  8
0
 62
     0
 10
8.18691
 20
5.045
 30
0.0
 11
7.98572
 21
4.83552
 31
0.0
  0
LINE
  8
0
 62
     0
 10
7.98572
 20
4.83552
 30
0.0
 11
7.83001
 21
4.64951
 31
0.0
  0
LINE
  8
0
 62
     0
 10
7.83001
 20
4.64951
 30
0.0
 11
7.79141
 21
4.60954
 31
0.0
  0
LINE
  8
0
 62
     0
 10
7.79141
 20
4.60954
 30
0.0
 11
7.73494
 21
4.54339
 31
0.0
  0
LINE
  8
0
 62
     0
 10
7.73494
 20
4.54339
 30
0.0
 11
7.52546
 21
4.3367
 31
0.0
  0
LINE
  8
0
 62
     0
 10
7.52546
 20
4.3367
 30
0.0
 11
7.34769
 21
4.19336
 31
0.0
  0
LINE
  8
0
 62
     0
 10
7.34769
 20
4.19336
 30
0.0
 11
7.30635
 21
4.15756
 31
0.0
  0
LINE
  8
0
 62
     0
 10
7.30635
 20
4.15756
 30
0.0
 11
7.2595
 21
4.10379
 31
0.0
  0
LINE
  8
0
 62
     0
 10
7.2595
 20
4.10379
 30
0.0
 11
6.85161
 21
3.80615
 31
0.0
  0
LINE
  8
0
 62
     0
 10
6.85161
 20
3.80615
 30
0.0
 11
6.81027
 21
3.77719
 31
0.0
  0
LINE
  8
0
 62
     0
 10
6.81027
 20
3.77719
 30
0.0
 11
6.78272
 21
3.72622
 31
0.0
  0
LINE
  8
0
 62
     0
 10
6.78272
 20
3.72622
 30
0.0
 11
6.74688
 21
3.51537
 31
0.0
  0
LINE
  8
0
 62
     0
 10
6.74688
 20
3.51537
 30
0.0
 11
6.75513
 21
3.30178
 31
0.0
  0
LINE
  8
0
 62
     0
 10
6.75513
 20
3.30178
 30
0.0
 11
6.74963
 21
3.24804
 31
0.0
  0
LINE
  8
0
 62
     0
 10
6.74963
 20
3.24804
 30
0.0
 11
6.7262
 21
3.19429
 31
0.0
  0
LINE
  8
0
 62
     0
 10
6.7262
 20
3.19429
 30
0.0
 11
6.71103
 21
2.64032
 31
0.0
  0
LINE
  8
0
 62
     0
 10
6.71103
 20
2.64032
 30
0.0
 11
6.71103
 21
2.58107
 31
0.0
  0
LINE
  8
0
 62
     0
 10
6.71103
 20
2.58107
 30
0.0
 11
6.69452
 21
2.51768
 31
0.0
  0
LINE
  8
0
 62
     0
 10
6.69452
 20
2.51768
 30
0.0
 11
6.72345
 21
1.95268
 31
0.0
  0
LINE
  8
0
 62
     0
 10
6.72345
 20
1.95268
 30
0.0
 11
6.72758
 21
1.89756
 31
0.0
  0
LINE
  8
0
 62
     0
 10
6.72758
 20
1.89756
 30
0.0
 11
6.7152
 21
1.83555
 31
0.0
  0
LINE
  8
0
 62
     0
 10
6.7152
 20
1.83555
 30
0.0
 11
6.74275
 21
1.58474
 31
0.0
  0
LINE
  8
0
 62
     0
 10
6.74275
 20
1.58474
 30
0.0
 11
6.81852
 21
1.38768
 31
0.0
  0
LINE
  8
0
 62
     0
 10
6.81852
 20
1.38768
 30
0.0
 11
6.83232
 21
1.35186
 31
0.0
  0
LINE
  8
0
 62
     0
 10
6.83232
 20
1.35186
 30
0.0
 11
6.82265
 21
1.29673
 31
0.0
  0
LINE
  8
0
 62
     0
 10
6.82265
 20
1.29673
 30
0.0
 11
6.89158
 21
1.1107
 31
0.0
  0
LINE
  8
0
 62
     0
 10
6.89158
 20
1.1107
 30
0.0
 11
7.03351
 21
1.0542
 31
0.0
  0
LINE
  8
0
 62
     0
 10
7.03351
 20
1.0542
 30
0.0
 11
7.05831
 21
1.04869
 31
0.0
  0
LINE
  8
0
 62
     0
 10
7.05831
 20
1.04869
 30
0.0
 11
7.06244
 21
1.03215
 31
0.0
  0
LINE
  8
0
 62
     0
 10
7.06244
 20
1.03215
 30
0.0
 11
7.18372
 21
1.01562
 31
0.0
  0
LINE
  8
0
 62
     0
 10
7.18372
 20
1.01562
 30
0.0
 11
7.33393
 21
1.11208
 31
0.0
  0
LINE
  8
0
 62
     0
 10
7.33393
 20
1.11208
 30
0.0
 11
7.36148
 21
1.13137
 31
0.0
  0
LINE
  8
0
 62
     0
 10
7.36148
 20
1.13137
 30
0.0
 11
7.37803
 21
1.14928
 31
0.0
  0
LINE
  8
0
 62
     0
 10
7.37803
 20
1.14928
 30
0.0
 11
7.66466
 21
1.42214
 31
0.0
  0
LINE
  8
0
 62
     0
 10
7.66466
 20
1.42214
 30
0.0
 11
7.69221
 21
1.45659
 31
0.0
  0
LINE
  8
0
 62
     0
 10
7.69221
 20
1.45659
 30
0.0
 11
7.71151
 21
1.49242
 31
0.0
  0
LINE
  8
0
 62
     0
 10
7.71151
 20
1.49242
 30
0.0
 11
7.9816
 21
1.8507
 31
0.0
  0
LINE
  8
0
 62
     0
 10
7.9816
 20
1.8507
 30
0.0
 11
8.0064
 21
1.88654
 31
0.0
  0
LINE
  8
0
 62
     0
 10
8.0064
 20
1.88654
 30
0.0
 11
8.02569
 21
1.91823
 31
0.0
  0
LINE
  8
0
 62
     0
 10
8.02569
 20
1.91823
 30
0.0
 11
8.24205
 21
2.26963
 31
0.0
  0
LINE
  8
0
 62
     0
 10
8.24205
 20
2.26963
 30
0.0
 11
8.25997
 21
2.29995
 31
0.0
  0
LINE
  8
0
 62
     0
 10
8.25997
 20
2.29995
 30
0.0
 11
8.25031
 21
2.32062
 31
0.0
  0
LINE
  8
0
 62
     0
 10
8.25031
 20
2.32062
 30
0.0
 11
8.3082
 21
2.44464
 31
0.0
  0
LINE
  8
0
 62
     0
 10
8.3082
 20
2.44464
 30
0.0
 11
8.39639
 21
2.54799
 31
0.0
  0
LINE
  8
0
 62
     0
 10
8.39639
 20
2.54799
 30
0.0
 11
8.40327
 21
2.55902
 31
0.0
  0
LINE
  8
0
 62
     0
 10
6.83232
 20
3.94257
 30
0.0
 11
6.88467
 21
3.99905
 31
0.0
  0
LINE
  8
0
 62
     0
 10
6.88467
 20
3.99905
 30
0.0
 11
7.25537
 21
4.3119
 31
0.0
  0
LINE
  8
0
 62
     0
 10
7.25537
 20
4.3119
 30
0.0
 11
7.67567
 21
4.66605
 31
0.0
  0
LINE
  8
0
 62
     0
 10
7.67567
 20
4.66605
 30
0.0
 11
7.75286
 21
4.74183
 31
0.0
  0
LINE
  8
0
 62
     0
 10
7.75286
 20
4.74183
 30
0.0
 11
7.81484
 21
4.80935
 31
0.0
  0
LINE
  8
0
 62
     0
 10
7.81484
 20
4.80935
 30
0.0
 11
8.51352
 21
5.57142
 31
0.0
  0
LINE
  8
0
 62
     0
 10
8.51352
 20
5.57142
 30
0.0
 11
8.57416
 21
5.64582
 31
0.0
  0
LINE
  8
0
 62
     0
 10
8.57416
 20
5.64582
 30
0.0
 11
8.67752
 21
5.77536
 31
0.0
  0
LINE
  8
0
 62
     0
 10
8.67752
 20
5.77536
 30
0.0
 11
9.18739
 21
6.46987
 31
0.0
  0
LINE
  8
0
 62
     0
 10
9.18739
 20
6.46987
 30
0.0
 11
9.59665
 21
7.12445
 31
0.0
  0
LINE
  8
0
 62
     0
 10
9.59665
 20
7.12445
 30
0.0
 11
9.64904
 21
7.23332
 31
0.0
  0
LINE
  8
0
 62
     0
 10
9.64904
 20
7.23332
 30
0.0
 11
9.67659
 21
7.33256
 31
0.0
  0
LINE
  8
0
 62
     0
 10
9.67659
 20
7.33256
 30
0.0
 11
9.84747
 21
7.81071
 31
0.0
  0
LINE
  8
0
 62
     0
 10
9.84747
 20
7.81071
 30
0.0
 11
9.96322
 21
8.16762
 31
0.0
  0
LINE
  8
0
 62
     0
 10
9.96322
 20
8.16762
 30
0.0
 11
9.96322
 21
8.28615
 31
0.0
  0
LINE
  8
0
 62
     0
 10
9.96322
 20
8.28615
 30
0.0
 11
9.94117
 21
8.33575
 31
0.0
  0
LINE
  8
0
 62
     0
 10
9.94117
 20
8.33575
 30
0.0
 11
9.87915
 21
8.55624
 31
0.0
  0
LINE
  8
0
 62
     0
 10
9.87915
 20
8.55624
 30
0.0
 11
9.79233
 21
8.69957
 31
0.0
  0
LINE
  8
0
 62
     0
 10
9.79233
 20
8.69957
 30
0.0
 11
9.75928
 21
8.71058
 31
0.0
  0
LINE
  8
0
 62
     0
 10
9.75928
 20
8.71058
 30
0.0
 11
9.72069
 21
8.70645
 31
0.0
  0
LINE
  8
0
 62
     0
 10
9.72069
 20
8.70645
 30
0.0
 11
9.32519
 21
8.66786
 31
0.0
  0
LINE
  8
0
 62
     0
 10
9.32519
 20
8.66786
 30
0.0
 11
9.27971
 21
8.64443
 31
0.0
  0
LINE
  8
0
 62
     0
 10
9.27971
 20
8.64443
 30
0.0
 11
9.18739
 21
8.60309
 31
0.0
  0
LINE
  8
0
 62
     0
 10
9.18739
 20
8.60309
 30
0.0
 11
8.80703
 21
8.33025
 31
0.0
  0
LINE
  8
0
 62
     0
 10
8.80703
 20
8.33025
 30
0.0
 11
8.44324
 21
7.93337
 31
0.0
  0
LINE
  8
0
 62
     0
 10
8.44324
 20
7.93337
 30
0.0
 11
8.35918
 21
7.82863
 31
0.0
  0
LINE
  8
0
 62
     0
 10
8.35918
 20
7.82863
 30
0.0
 11
8.26961
 21
7.72252
 31
0.0
  0
LINE
  8
0
 62
     0
 10
8.26961
 20
7.72252
 30
0.0
 11
7.50757
 21
6.28661
 31
0.0
  0
LINE
  8
0
 62
     0
 10
7.50757
 20
6.28661
 30
0.0
 11
7.43864
 21
6.10334
 31
0.0
  0
LINE
  8
0
 62
     0
 10
7.43864
 20
6.10334
 30
0.0
 11
7.39041
 21
6.01102
 31
0.0
  0
LINE
  8
0
 62
     0
 10
7.39041
 20
6.01102
 30
0.0
 11
7.11345
 21
5.12491
 31
0.0
  0
LINE
  8
0
 62
     0
 10
7.11345
 20
5.12491
 30
0.0
 11
7.08586
 21
5.03396
 31
0.0
  0
LINE
  8
0
 62
     0
 10
7.08586
 20
5.03396
 30
0.0
 11
7.04176
 21
4.94026
 31
0.0
  0
LINE
  8
0
 62
     0
 10
7.04176
 20
4.94026
 30
0.0
 11
6.84749
 21
4.0349
 31
0.0
  0
LINE
  8
0
 62
     0
 10
6.84749
 20
4.0349
 30
0.0
 11
6.83232
 21
3.94257
 31
0.0
  0
LINE
  8
0
 62
     0
 10
10.8024
 20
2.55902
 30
0.0
 11
10.8011
 21
2.56866
 31
0.0
  0
LINE
  8
0
 62
     0
 10
10.8011
 20
2.56866
 30
0.0
 11
10.8824
 21
2.7106
 31
0.0
  0
LINE
  8
0
 62
     0
 10
10.8824
 20
2.7106
 30
0.0
 11
10.8906
 21
2.72438
 31
0.0
  0
LINE
  8
0
 62
     0
 10
10.8906
 20
2.72438
 30
0.0
 11
10.8906
 21
2.72438
 31
0.0
  0
LINE
  8
0
 62
     0
 10
10.8906
 20
2.72438
 30
0.0
 11
10.9099
 21
2.78915
 31
0.0
  0
LINE
  8
0
 62
     0
 10
10.9099
 20
2.78915
 30
0.0
 11
10.9706
 21
2.88699
 31
0.0
  0
LINE
  8
0
 62
     0
 10
10.9706
 20
2.88699
 30
0.0
 11
10.9788
 21
2.90077
 31
0.0
  0
LINE
  8
0
 62
     0
 10
10.9788
 20
2.90077
 30
0.0
 11
10.9788
 21
2.90077
 31
0.0
  0
LINE
  8
0
 62
     0
 10
10.9788
 20
2.90077
 30
0.0
 11
10.983
 21
2.92144
 31
0.0
  0
LINE
  8
0
 62
     0
 10
10.983
 20
2.92144
 30
0.0
 11
10.9843
 21
2.92282
 31
0.0
  0
LINE
  8
0
 62
     0
 10
10.9843
 20
2.92282
 30
0.0
 11
10.9843
 21
2.92282
 31
0.0
  0
LINE
  8
0
 62
     0
 10
10.9843
 20
2.92282
 30
0.0
 11
10.9898
 21
2.94349
 31
0.0
  0
LINE
  8
0
 62
     0
 10
10.9898
 20
2.94349
 30
0.0
 11
10.9898
 21
2.95038
 31
0.0
  0
LINE
  8
0
 62
     0
 10
10.9898
 20
2.95038
 30
0.0
 11
10.9843
 21
2.95038
 31
0.0
  0
LINE
  8
0
 62
     0
 10
10.9843
 20
2.95038
 30
0.0
 11
10.9664
 21
2.95176
 31
0.0
  0
LINE
  8
0
 62
     0
 10
10.9664
 20
2.95176
 30
0.0
 11
11.0188
 21
2.97105
 31
0.0
  0
LINE
  8
0
 62
     0
 10
11.0188
 20
2.97105
 30
0.0
 11
11.0229
 21
2.97243
 31
0.0
  0
LINE
  8
0
 62
     0
 10
11.0229
 20
2.97243
 30
0.0
 11
11.0188
 21
2.97243
 31
0.0
  0
LINE
  8
0
 62
     0
 10
11.0188
 20
2.97243
 30
0.0
 11
11.0078
 21
2.97243
 31
0.0
  0
LINE
  8
0
 62
     0
 10
11.0078
 20
2.97243
 30
0.0
 11
11.056
 21
2.98897
 31
0.0
  0
LINE
  8
0
 62
     0
 10
11.056
 20
2.98897
 30
0.0
 11
11.0725
 21
2.98897
 31
0.0
  0
LINE
  8
0
 62
     0
 10
11.0725
 20
2.98897
 30
0.0
 11
11.0725
 21
2.98345
 31
0.0
  0
LINE
  8
0
 62
     0
 10
11.0725
 20
2.98345
 30
0.0
 11
11.1029
 21
2.97105
 31
0.0
  0
LINE
  8
0
 62
     0
 10
11.1029
 20
2.97105
 30
0.0
 11
11.1056
 21
2.96692
 31
0.0
  0
LINE
  8
0
 62
     0
 10
11.1056
 20
2.96692
 30
0.0
 11
11.1029
 21
2.95589
 31
0.0
  0
LINE
  8
0
 62
     0
 10
11.1029
 20
2.95589
 30
0.0
 11
11.1084
 21
2.90904
 31
0.0
  0
LINE
  8
0
 62
     0
 10
11.1084
 20
2.90904
 30
0.0
 11
11.1056
 21
2.90077
 31
0.0
  0
LINE
  8
0
 62
     0
 10
11.1056
 20
2.90077
 30
0.0
 11
10.8961
 21
2.48185
 31
0.0
  0
LINE
  8
0
 62
     0
 10
10.8961
 20
2.48185
 30
0.0
 11
10.8672
 21
2.43224
 31
0.0
  0
LINE
  8
0
 62
     0
 10
10.8672
 20
2.43224
 30
0.0
 11
10.7831
 21
2.2779
 31
0.0
  0
LINE
  8
0
 62
     0
 10
10.7831
 20
2.2779
 30
0.0
 11
10.7225
 21
2.15938
 31
0.0
  0
LINE
  8
0
 62
     0
 10
10.7225
 20
2.15938
 30
0.0
 11
10.7032
 21
2.12356
 31
0.0
  0
LINE
  8
0
 62
     0
 10
10.7032
 20
2.12356
 30
0.0
 11
10.6839
 21
2.0643
 31
0.0
  0
LINE
  8
0
 62
     0
 10
10.6839
 20
2.0643
 30
0.0
 11
10.4772
 21
1.75011
 31
0.0
  0
LINE
  8
0
 62
     0
 10
10.4772
 20
1.75011
 30
0.0
 11
10.4552
 21
1.71566
 31
0.0
  0
LINE
  8
0
 62
     0
 10
10.4552
 20
1.71566
 30
0.0
 11
10.4235
 21
1.66054
 31
0.0
  0
LINE
  8
0
 62
     0
 10
10.4235
 20
1.66054
 30
0.0
 11
10.2995
 21
1.48277
 31
0.0
  0
LINE
  8
0
 62
     0
 10
10.2995
 20
1.48277
 30
0.0
 11
10.1851
 21
1.35186
 31
0.0
  0
LINE
  8
0
 62
     0
 10
10.1851
 20
1.35186
 30
0.0
 11
10.1575
 21
1.31878
 31
0.0
  0
LINE
  8
0
 62
     0
 10
10.1575
 20
1.31878
 30
0.0
 11
10.1162
 21
1.27055
 31
0.0
  0
LINE
  8
0
 62
     0
 10
10.1162
 20
1.27055
 30
0.0
 11
9.97285
 21
1.1231
 31
0.0
  0
LINE
  8
0
 62
     0
 10
9.97285
 20
1.1231
 30
0.0
 11
9.85435
 21
1.03491
 31
0.0
  0
LINE
  8
0
 62
     0
 10
9.85435
 20
1.03491
 30
0.0
 11
9.8268
 21
1.01562
 31
0.0
  0
LINE
  8
0
 62
     0
 10
9.8268
 20
1.01562
 30
0.0
 11
9.78546
 21
0.978408
 31
0.0
  0
LINE
  8
0
 62
     0
 10
9.78546
 20
0.978408
 30
0.0
 11
9.63387
 21
0.892969
 31
0.0
  0
LINE
  8
0
 62
     0
 10
9.63387
 20
0.892969
 30
0.0
 11
9.51812
 21
0.883324
 31
0.0
  0
LINE
  8
0
 62
     0
 10
9.51812
 20
0.883324
 30
0.0
 11
9.49053
 21
0.87781
 31
0.0
  0
LINE
  8
0
 62
     0
 10
9.49053
 20
0.87781
 30
0.0
 11
9.44644
 21
0.86403
 31
0.0
  0
LINE
  8
0
 62
     0
 10
9.44644
 20
0.86403
 30
0.0
 11
9.30451
 21
0.859896
 31
0.0
  0
LINE
  8
0
 62
     0
 10
9.30451
 20
0.859896
 30
0.0
 11
9.20531
 21
0.902614
 31
0.0
  0
LINE
  8
0
 62
     0
 10
9.20531
 20
0.902614
 30
0.0
 11
9.18185
 21
0.910883
 31
0.0
  0
LINE
  8
0
 62
     0
 10
9.18185
 20
0.910883
 30
0.0
 11
9.14054
 21
0.908128
 31
0.0
  0
LINE
  8
0
 62
     0
 10
9.14054
 20
0.908128
 30
0.0
 11
9.01375
 21
0.967384
 31
0.0
  0
LINE
  8
0
 62
     0
 10
9.01375
 20
0.967384
 30
0.0
 11
8.94211
 21
1.07349
 31
0.0
  0
LINE
  8
0
 62
     0
 10
8.94211
 20
1.07349
 30
0.0
 11
8.92281
 21
1.09279
 31
0.0
  0
LINE
  8
0
 62
     0
 10
8.92281
 20
1.09279
 30
0.0
 11
8.89109
 21
1.08865
 31
0.0
  0
LINE
  8
0
 62
     0
 10
8.89109
 20
1.08865
 30
0.0
 11
8.7781
 21
1.18787
 31
0.0
  0
LINE
  8
0
 62
     0
 10
8.7781
 20
1.18787
 30
0.0
 11
8.76018
 21
1.36288
 31
0.0
  0
LINE
  8
0
 62
     0
 10
8.76018
 20
1.36288
 30
0.0
 11
8.75192
 21
1.39044
 31
0.0
  0
LINE
  8
0
 62
     0
 10
8.75192
 20
1.39044
 30
0.0
 11
8.71746
 21
1.41938
 31
0.0
  0
LINE
  8
0
 62
     0
 10
8.71746
 20
1.41938
 30
0.0
 11
8.63064
 21
1.69361
 31
0.0
  0
LINE
  8
0
 62
     0
 10
8.63064
 20
1.69361
 30
0.0
 11
8.60309
 21
2.04914
 31
0.0
  0
LINE
  8
0
 62
     0
 10
8.60309
 20
2.04914
 30
0.0
 11
8.59758
 21
2.11805
 31
0.0
  0
LINE
  8
0
 62
     0
 10
8.59758
 20
2.11805
 30
0.0
 11
8.5907
 21
2.16214
 31
0.0
  0
LINE
  8
0
 62
     0
 10
8.5907
 20
2.16214
 30
0.0
 11
8.57966
 21
2.49701
 31
0.0
  0
LINE
  8
0
 62
     0
 10
8.57966
 20
2.49701
 30
0.0
 11
8.58795
 21
2.88975
 31
0.0
  0
LINE
  8
0
 62
     0
 10
8.58795
 20
2.88975
 30
0.0
 11
8.59208
 21
2.9614
 31
0.0
  0
LINE
  8
0
 62
     0
 10
8.59208
 20
2.9614
 30
0.0
 11
8.59483
 21
3.02617
 31
0.0
  0
LINE
  8
0
 62
     0
 10
8.59483
 20
3.02617
 30
0.0
 11
8.66923
 21
3.72209
 31
0.0
  0
LINE
  8
0
 62
     0
 10
8.66923
 20
3.72209
 30
0.0
 11
8.68027
 21
3.78823
 31
0.0
  0
LINE
  8
0
 62
     0
 10
8.68027
 20
3.78823
 30
0.0
 11
8.68165
 21
3.83783
 31
0.0
  0
LINE
  8
0
 62
     0
 10
8.68165
 20
3.83783
 30
0.0
 11
8.80428
 21
4.44419
 31
0.0
  0
LINE
  8
0
 62
     0
 10
8.80428
 20
4.44419
 30
0.0
 11
8.81807
 21
4.49379
 31
0.0
  0
LINE
  8
0
 62
     0
 10
8.81807
 20
4.49379
 30
0.0
 11
8.81394
 21
4.54752
 31
0.0
  0
LINE
  8
0
 62
     0
 10
8.81394
 20
4.54752
 30
0.0
 11
8.88834
 21
4.89066
 31
0.0
  0
LINE
  8
0
 62
     0
 10
8.88834
 20
4.89066
 30
0.0
 11
9.01238
 21
5.25999
 31
0.0
  0
LINE
  8
0
 62
     0
 10
9.01238
 20
5.25999
 30
0.0
 11
9.03305
 21
5.32613
 31
0.0
  0
LINE
  8
0
 62
     0
 10
9.03305
 20
5.32613
 30
0.0
 11
9.04543
 21
5.36607
 31
0.0
  0
LINE
  8
0
 62
     0
 10
9.04543
 20
5.36607
 30
0.0
 11
9.15017
 21
5.67891
 31
0.0
  0
LINE
  8
0
 62
     0
 10
9.15017
 20
5.67891
 30
0.0
 11
9.27834
 21
6.03306
 31
0.0
  0
LINE
  8
0
 62
     0
 10
9.27834
 20
6.03306
 30
0.0
 11
9.30314
 21
6.0923
 31
0.0
  0
LINE
  8
0
 62
     0
 10
9.30314
 20
6.0923
 30
0.0
 11
9.32656
 21
6.15569
 31
0.0
  0
LINE
  8
0
 62
     0
 10
9.32656
 20
6.15569
 30
0.0
 11
9.62283
 21
6.8392
 31
0.0
  0
LINE
  8
0
 62
     0
 10
9.62283
 20
6.8392
 30
0.0
 11
9.65592
 21
6.90809
 31
0.0
  0
LINE
  8
0
 62
     0
 10
9.65592
 20
6.90809
 30
0.0
 11
9.6876
 21
6.96461
 31
0.0
  0
LINE
  8
0
 62
     0
 10
9.6876
 20
6.96461
 30
0.0
 11
10.0748
 21
7.62469
 31
0.0
  0
LINE
  8
0
 62
     0
 10
10.0748
 20
7.62469
 30
0.0
 11
10.1189
 21
7.68533
 31
0.0
  0
LINE
  8
0
 62
     0
 10
10.1189
 20
7.68533
 30
0.0
 11
10.152
 21
7.72806
 31
0.0
  0
LINE
  8
0
 62
     0
 10
10.152
 20
7.72806
 30
0.0
 11
10.3863
 21
8.00502
 31
0.0
  0
LINE
  8
0
 62
     0
 10
10.3863
 20
8.00502
 30
0.0
 11
10.6674
 21
8.29441
 31
0.0
  0
LINE
  8
0
 62
     0
 10
10.6674
 20
8.29441
 30
0.0
 11
10.7253
 21
8.34125
 31
0.0
  0
LINE
  8
0
 62
     0
 10
10.7253
 20
8.34125
 30
0.0
 11
10.779
 21
8.37434
 31
0.0
  0
LINE
  8
0
 62
     0
 10
10.779
 20
8.37434
 30
0.0
 11
11.4253
 21
8.75743
 31
0.0
  0
LINE
  8
0
 62
     0
 10
11.4253
 20
8.75743
 30
0.0
 11
11.497
 21
8.78223
 31
0.0
  0
LINE
  8
0
 62
     0
 10
11.497
 20
8.78223
 30
0.0
 11
11.519
 21
8.77122
 31
0.0
  0
LINE
  8
0
 62
     0
 10
11.519
 20
8.77122
 30
0.0
 11
11.8249
 21
8.86217
 31
0.0
  0
LINE
  8
0
 62
     0
 10
11.8249
 20
8.86217
 30
0.0
 11
11.8553
 21
8.86492
 31
0.0
  0
LINE
  8
0
 62
     0
 10
11.8553
 20
8.86492
 30
0.0
 11
11.8759
 21
8.86905
 31
0.0
  0
LINE
  8
0
 62
     0
 10
11.8759
 20
8.86905
 30
0.0
 11
12.146
 21
8.84149
 31
0.0
  0
LINE
  8
0
 62
     0
 10
12.146
 20
8.84149
 30
0.0
 11
12.1695
 21
8.83186
 31
0.0
  0
LINE
  8
0
 62
     0
 10
12.1695
 20
8.83186
 30
0.0
 11
12.1874
 21
8.7974
 31
0.0
  0
LINE
  8
0
 62
     0
 10
12.1874
 20
8.7974
 30
0.0
 11
12.3817
 21
8.66786
 31
0.0
  0
LINE
  8
0
 62
     0
 10
12.3817
 20
8.66786
 30
0.0
 11
12.3954
 21
8.64443
 31
0.0
  0
LINE
  8
0
 62
     0
 10
12.3954
 20
8.64443
 30
0.0
 11
12.3858
 21
8.61138
 31
0.0
  0
LINE
  8
0
 62
     0
 10
12.3858
 20
8.61138
 30
0.0
 11
12.4244
 21
8.46942
 31
0.0
  0
LINE
  8
0
 62
     0
 10
12.4244
 20
8.46942
 30
0.0
 11
12.4836
 21
8.32474
 31
0.0
  0
LINE
  8
0
 62
     0
 10
12.4836
 20
8.32474
 30
0.0
 11
12.4836
 21
8.27511
 31
0.0
  0
LINE
  8
0
 62
     0
 10
12.4836
 20
8.27511
 30
0.0
 11
12.4809
 21
8.19933
 31
0.0
  0
LINE
  8
0
 62
     0
 10
12.4809
 20
8.19933
 30
0.0
 11
12.3941
 21
7.79004
 31
0.0
  0
LINE
  8
0
 62
     0
 10
12.3941
 20
7.79004
 30
0.0
 11
12.2067
 21
7.30772
 31
0.0
  0
LINE
  8
0
 62
     0
 10
12.2067
 20
7.30772
 30
0.0
 11
12.1529
 21
7.19473
 31
0.0
  0
LINE
  8
0
 62
     0
 10
12.1529
 20
7.19473
 30
0.0
 11
12.0951
 21
7.07485
 31
0.0
  0
LINE
  8
0
 62
     0
 10
12.0951
 20
7.07485
 30
0.0
 11
11.7092
 21
6.44095
 31
0.0
  0
LINE
  8
0
 62
     0
 10
11.7092
 20
6.44095
 30
0.0
 11
11.1841
 21
5.72851
 31
0.0
  0
LINE
  8
0
 62
     0
 10
11.1841
 20
5.72851
 30
0.0
 11
11.056
 21
5.56867
 31
0.0
  0
LINE
  8
0
 62
     0
 10
11.056
 20
5.56867
 30
0.0
 11
11.0243
 21
5.51215
 31
0.0
  0
LINE
  8
0
 62
     0
 10
11.0243
 20
5.51215
 30
0.0
 11
10.6839
 21
5.13595
 31
0.0
  0
LINE
  8
0
 62
     0
 10
10.6839
 20
5.13595
 30
0.0
 11
10.6481
 21
5.0946
 31
0.0
  0
LINE
  8
0
 62
     0
 10
10.6481
 20
5.0946
 30
0.0
 11
10.5861
 21
5.045
 31
0.0
  0
LINE
  8
0
 62
     0
 10
10.5861
 20
5.045
 30
0.0
 11
10.3849
 21
4.83552
 31
0.0
  0
LINE
  8
0
 62
     0
 10
10.3849
 20
4.83552
 30
0.0
 11
10.2292
 21
4.64951
 31
0.0
  0
LINE
  8
0
 62
     0
 10
10.2292
 20
4.64951
 30
0.0
 11
10.1906
 21
4.60954
 31
0.0
  0
LINE
  8
0
 62
     0
 10
10.1906
 20
4.60954
 30
0.0
 11
10.1341
 21
4.54339
 31
0.0
  0
LINE
  8
0
 62
     0
 10
10.1341
 20
4.54339
 30
0.0
 11
9.92463
 21
4.3367
 31
0.0
  0
LINE
  8
0
 62
     0
 10
9.92463
 20
4.3367
 30
0.0
 11
9.74686
 21
4.19336
 31
0.0
  0
LINE
  8
0
 62
     0
 10
9.74686
 20
4.19336
 30
0.0
 11
9.70552
 21
4.15756
 31
0.0
  0
LINE
  8
0
 62
     0
 10
9.70552
 20
4.15756
 30
0.0
 11
9.65867
 21
4.10379
 31
0.0
  0
LINE
  8
0
 62
     0
 10
9.65867
 20
4.10379
 30
0.0
 11
9.25079
 21
3.80615
 31
0.0
  0
LINE
  8
0
 62
     0
 10
9.25079
 20
3.80615
 30
0.0
 11
9.20944
 21
3.77719
 31
0.0
  0
LINE
  8
0
 62
     0
 10
9.20944
 20
3.77719
 30
0.0
 11
9.18185
 21
3.72622
 31
0.0
  0
LINE
  8
0
 62
     0
 10
9.18185
 20
3.72622
 30
0.0
 11
9.14605
 21
3.51537
 31
0.0
  0
LINE
  8
0
 62
     0
 10
9.14605
 20
3.51537
 30
0.0
 11
9.1543
 21
3.30178
 31
0.0
  0
LINE
  8
0
 62
     0
 10
9.1543
 20
3.30178
 30
0.0
 11
9.1488
 21
3.24804
 31
0.0
  0
LINE
  8
0
 62
     0
 10
9.1488
 20
3.24804
 30
0.0
 11
9.12537
 21
3.19429
 31
0.0
  0
LINE
  8
0
 62
     0
 10
9.12537
 20
3.19429
 30
0.0
 11
9.1102
 21
2.64032
 31
0.0
  0
LINE
  8
0
 62
     0
 10
9.1102
 20
2.64032
 30
0.0
 11
9.1102
 21
2.58107
 31
0.0
  0
LINE
  8
0
 62
     0
 10
9.1102
 20
2.58107
 30
0.0
 11
9.09366
 21
2.51768
 31
0.0
  0
LINE
  8
0
 62
     0
 10
9.09366
 20
2.51768
 30
0.0
 11
9.12262
 21
1.95268
 31
0.0
  0
LINE
  8
0
 62
     0
 10
9.12262
 20
1.95268
 30
0.0
 11
9.12675
 21
1.89756
 31
0.0
  0
LINE
  8
0
 62
     0
 10
9.12675
 20
1.89756
 30
0.0
 11
9.11433
 21
1.83555
 31
0.0
  0
LINE
  8
0
 62
     0
 10
9.11433
 20
1.83555
 30
0.0
 11
9.14192
 21
1.58474
 31
0.0
  0
LINE
  8
0
 62
     0
 10
9.14192
 20
1.58474
 30
0.0
 11
9.2177
 21
1.38768
 31
0.0
  0
LINE
  8
0
 62
     0
 10
9.2177
 20
1.38768
 30
0.0
 11
9.23149
 21
1.35186
 31
0.0
  0
LINE
  8
0
 62
     0
 10
9.23149
 20
1.35186
 30
0.0
 11
9.22182
 21
1.29673
 31
0.0
  0
LINE
  8
0
 62
     0
 10
9.22182
 20
1.29673
 30
0.0
 11
9.29072
 21
1.1107
 31
0.0
  0
LINE
  8
0
 62
     0
 10
9.29072
 20
1.1107
 30
0.0
 11
9.43268
 21
1.0542
 31
0.0
  0
LINE
  8
0
 62
     0
 10
9.43268
 20
1.0542
 30
0.0
 11
9.45748
 21
1.04869
 31
0.0
  0
LINE
  8
0
 62
     0
 10
9.45748
 20
1.04869
 30
0.0
 11
9.46161
 21
1.03215
 31
0.0
  0
LINE
  8
0
 62
     0
 10
9.46161
 20
1.03215
 30
0.0
 11
9.58289
 21
1.01562
 31
0.0
  0
LINE
  8
0
 62
     0
 10
9.58289
 20
1.01562
 30
0.0
 11
9.73307
 21
1.11208
 31
0.0
  0
LINE
  8
0
 62
     0
 10
9.73307
 20
1.11208
 30
0.0
 11
9.76066
 21
1.13137
 31
0.0
  0
LINE
  8
0
 62
     0
 10
9.76066
 20
1.13137
 30
0.0
 11
9.77717
 21
1.14928
 31
0.0
  0
LINE
  8
0
 62
     0
 10
9.77717
 20
1.14928
 30
0.0
 11
10.0638
 21
1.42214
 31
0.0
  0
LINE
  8
0
 62
     0
 10
10.0638
 20
1.42214
 30
0.0
 11
10.0914
 21
1.45659
 31
0.0
  0
LINE
  8
0
 62
     0
 10
10.0914
 20
1.45659
 30
0.0
 11
10.1107
 21
1.49242
 31
0.0
  0
LINE
  8
0
 62
     0
 10
10.1107
 20
1.49242
 30
0.0
 11
10.3808
 21
1.8507
 31
0.0
  0
LINE
  8
0
 62
     0
 10
10.3808
 20
1.8507
 30
0.0
 11
10.4056
 21
1.88654
 31
0.0
  0
LINE
  8
0
 62
     0
 10
10.4056
 20
1.88654
 30
0.0
 11
10.4249
 21
1.91823
 31
0.0
  0
LINE
  8
0
 62
     0
 10
10.4249
 20
1.91823
 30
0.0
 11
10.6412
 21
2.26963
 31
0.0
  0
LINE
  8
0
 62
     0
 10
10.6412
 20
2.26963
 30
0.0
 11
10.6591
 21
2.29995
 31
0.0
  0
LINE
  8
0
 62
     0
 10
10.6591
 20
2.29995
 30
0.0
 11
10.6495
 21
2.32062
 31
0.0
  0
LINE
  8
0
 62
     0
 10
10.6495
 20
2.32062
 30
0.0
 11
10.7074
 21
2.44464
 31
0.0
  0
LINE
  8
0
 62
     0
 10
10.7074
 20
2.44464
 30
0.0
 11
10.7956
 21
2.54799
 31
0.0
  0
LINE
  8
0
 62
     0
 10
10.7956
 20
2.54799
 30
0.0
 11
10.8024
 21
2.55902
 31
0.0
  0
LINE
  8
0
 62
     0
 10
9.23149
 20
3.94257
 30
0.0
 11
9.28384
 21
3.99905
 31
0.0
  0
LINE
  8
0
 62
     0
 10
9.28384
 20
3.99905
 30
0.0
 11
9.65454
 21
4.3119
 31
0.0
  0
LINE
  8
0
 62
     0
 10
9.65454
 20
4.3119
 30
0.0
 11
10.0748
 21
4.66605
 31
0.0
  0
LINE
  8
0
 62
     0
 10
10.0748
 20
4.66605
 30
0.0
 11
10.152
 21
4.74183
 31
0.0
  0
LINE
  8
0
 62
     0
 10
10.152
 20
4.74183
 30
0.0
 11
10.214
 21
4.80935
 31
0.0
  0
LINE
  8
0
 62
     0
 10
10.214
 20
4.80935
 30
0.0
 11
10.9127
 21
5.57142
 31
0.0
  0
LINE
  8
0
 62
     0
 10
10.9127
 20
5.57142
 30
0.0
 11
10.9733
 21
5.64582
 31
0.0
  0
LINE
  8
0
 62
     0
 10
10.9733
 20
5.64582
 30
0.0
 11
11.0767
 21
5.77536
 31
0.0
  0
LINE
  8
0
 62
     0
 10
11.0767
 20
5.77536
 30
0.0
 11
11.5866
 21
6.46987
 31
0.0
  0
LINE
  8
0
 62
     0
 10
11.5866
 20
6.46987
 30
0.0
 11
11.9958
 21
7.12445
 31
0.0
  0
LINE
  8
0
 62
     0
 10
11.9958
 20
7.12445
 30
0.0
 11
12.0482
 21
7.23332
 31
0.0
  0
LINE
  8
0
 62
     0
 10
12.0482
 20
7.23332
 30
0.0
 11
12.0758
 21
7.33256
 31
0.0
  0
LINE
  8
0
 62
     0
 10
12.0758
 20
7.33256
 30
0.0
 11
12.2466
 21
7.81071
 31
0.0
  0
LINE
  8
0
 62
     0
 10
12.2466
 20
7.81071
 30
0.0
 11
12.3624
 21
8.16762
 31
0.0
  0
LINE
  8
0
 62
     0
 10
12.3624
 20
8.16762
 30
0.0
 11
12.3624
 21
8.28615
 31
0.0
  0
LINE
  8
0
 62
     0
 10
12.3624
 20
8.28615
 30
0.0
 11
12.3403
 21
8.33575
 31
0.0
  0
LINE
  8
0
 62
     0
 10
12.3403
 20
8.33575
 30
0.0
 11
12.2783
 21
8.55624
 31
0.0
  0
LINE
  8
0
 62
     0
 10
12.2783
 20
8.55624
 30
0.0
 11
12.1915
 21
8.69957
 31
0.0
  0
LINE
  8
0
 62
     0
 10
12.1915
 20
8.69957
 30
0.0
 11
12.1584
 21
8.71058
 31
0.0
  0
LINE
  8
0
 62
     0
 10
12.1584
 20
8.71058
 30
0.0
 11
12.1199
 21
8.70645
 31
0.0
  0
LINE
  8
0
 62
     0
 10
12.1199
 20
8.70645
 30
0.0
 11
11.7244
 21
8.66786
 31
0.0
  0
LINE
  8
0
 62
     0
 10
11.7244
 20
8.66786
 30
0.0
 11
11.6789
 21
8.64443
 31
0.0
  0
LINE
  8
0
 62
     0
 10
11.6789
 20
8.64443
 30
0.0
 11
11.5866
 21
8.60309
 31
0.0
  0
LINE
  8
0
 62
     0
 10
11.5866
 20
8.60309
 30
0.0
 11
11.2062
 21
8.33025
 31
0.0
  0
LINE
  8
0
 62
     0
 10
11.2062
 20
8.33025
 30
0.0
 11
10.8424
 21
7.93337
 31
0.0
  0
LINE
  8
0
 62
     0
 10
10.8424
 20
7.93337
 30
0.0
 11
10.7583
 21
7.82863
 31
0.0
  0
LINE
  8
0
 62
     0
 10
10.7583
 20
7.82863
 30
0.0
 11
10.6688
 21
7.72252
 31
0.0
  0
LINE
  8
0
 62
     0
 10
10.6688
 20
7.72252
 30
0.0
 11
9.90671
 21
6.28661
 31
0.0
  0
LINE
  8
0
 62
     0
 10
9.90671
 20
6.28661
 30
0.0
 11
9.83781
 21
6.10334
 31
0.0
  0
LINE
  8
0
 62
     0
 10
9.83781
 20
6.10334
 30
0.0
 11
9.78958
 21
6.01102
 31
0.0
  0
LINE
  8
0
 62
     0
 10
9.78958
 20
6.01102
 30
0.0
 11
9.51258
 21
5.12491
 31
0.0
  0
LINE
  8
0
 62
     0
 10
9.51258
 20
5.12491
 30
0.0
 11
9.48503
 21
5.03396
 31
0.0
  0
LINE
  8
0
 62
     0
 10
9.48503
 20
5.03396
 30
0.0
 11
9.44093
 21
4.94026
 31
0.0
  0
LINE
  8
0
 62
     0
 10
9.44093
 20
4.94026
 30
0.0
 11
9.24662
 21
4.0349
 31
0.0
  0
LINE
  8
0
 62
     0
 10
9.24662
 20
4.0349
 30
0.0
 11
9.23149
 21
3.94257
 31
0.0
  0
LINE
  8
0
 62
     0
 10
14.6017
 20
2.90077
 30
0.0
 11
14.559
 21
2.83463
 31
0.0
  0
LINE
  8
0
 62
     0
 10
14.559
 20
2.83463
 30
0.0
 11
14.0891
 21
2.32337
 31
0.0
  0
LINE
  8
0
 62
     0
 10
14.0891
 20
2.32337
 30
0.0
 11
14.0284
 21
2.28341
 31
0.0
  0
LINE
  8
0
 62
     0
 10
14.0284
 20
2.28341
 30
0.0
 11
13.9485
 21
2.2338
 31
0.0
  0
LINE
  8
0
 62
     0
 10
13.9485
 20
2.2338
 30
0.0
 11
13.6274
 21
2.09462
 31
0.0
  0
LINE
  8
0
 62
     0
 10
13.6274
 20
2.09462
 30
0.0
 11
13.3339
 21
2.06017
 31
0.0
  0
LINE
  8
0
 62
     0
 10
13.3339
 20
2.06017
 30
0.0
 11
13.2678
 21
2.06292
 31
0.0
  0
LINE
  8
0
 62
     0
 10
13.2678
 20
2.06292
 30
0.0
 11
13.2443
 21
2.02434
 31
0.0
  0
LINE
  8
0
 62
     0
 10
13.2443
 20
2.02434
 30
0.0
 11
13.1754
 21
1.90445
 31
0.0
  0
LINE
  8
0
 62
     0
 10
13.1754
 20
1.90445
 30
0.0
 11
13.1327
 21
1.83968
 31
0.0
  0
LINE
  8
0
 62
     0
 10
13.1327
 20
1.83968
 30
0.0
 11
13.1189
 21
1.82039
 31
0.0
  0
LINE
  8
0
 62
     0
 10
13.1189
 20
1.82039
 30
0.0
 11
13.1024
 21
1.8011
 31
0.0
  0
LINE
  8
0
 62
     0
 10
13.1024
 20
1.8011
 30
0.0
 11
12.9673
 21
1.63298
 31
0.0
  0
LINE
  8
0
 62
     0
 10
12.9673
 20
1.63298
 30
0.0
 11
12.9536
 21
1.61644
 31
0.0
  0
LINE
  8
0
 62
     0
 10
12.9536
 20
1.61644
 30
0.0
 11
12.9095
 21
1.57648
 31
0.0
  0
LINE
  8
0
 62
     0
 10
12.9095
 20
1.57648
 30
0.0
 11
12.762
 21
1.45521
 31
0.0
  0
LINE
  8
0
 62
     0
 10
12.762
 20
1.45521
 30
0.0
 11
12.638
 21
1.38355
 31
0.0
  0
LINE
  8
0
 62
     0
 10
12.638
 20
1.38355
 30
0.0
 11
12.6063
 21
1.36839
 31
0.0
  0
LINE
  8
0
 62
     0
 10
12.6063
 20
1.36839
 30
0.0
 11
12.5581
 21
1.33532
 31
0.0
  0
LINE
  8
0
 62
     0
 10
12.5581
 20
1.33532
 30
0.0
 11
12.3899
 21
1.2678
 31
0.0
  0
LINE
  8
0
 62
     0
 10
12.3899
 20
1.2678
 30
0.0
 11
12.2577
 21
1.2678
 31
0.0
  0
LINE
  8
0
 62
     0
 10
12.2577
 20
1.2678
 30
0.0
 11
12.226
 21
1.26366
 31
0.0
  0
LINE
  8
0
 62
     0
 10
12.226
 20
1.26366
 30
0.0
 11
12.1791
 21
1.2485
 31
0.0
  0
LINE
  8
0
 62
     0
 10
12.1791
 20
1.2485
 30
0.0
 11
12.0124
 21
1.24161
 31
0.0
  0
LINE
  8
0
 62
     0
 10
12.0124
 20
1.24161
 30
0.0
 11
11.8773
 21
1.2802
 31
0.0
  0
LINE
  8
0
 62
     0
 10
11.8773
 20
1.2802
 30
0.0
 11
11.8456
 21
1.28571
 31
0.0
  0
LINE
  8
0
 62
     0
 10
11.8456
 20
1.28571
 30
0.0
 11
11.8001
 21
1.27882
 31
0.0
  0
LINE
  8
0
 62
     0
 10
11.8001
 20
1.27882
 30
0.0
 11
11.6458
 21
1.32567
 31
0.0
  0
LINE
  8
0
 62
     0
 10
11.6458
 20
1.32567
 30
0.0
 11
11.5287
 21
1.42627
 31
0.0
  0
LINE
  8
0
 62
     0
 10
11.5287
 20
1.42627
 30
0.0
 11
11.5039
 21
1.44556
 31
0.0
  0
LINE
  8
0
 62
     0
 10
11.5039
 20
1.44556
 30
0.0
 11
11.4529
 21
1.4428
 31
0.0
  0
LINE
  8
0
 62
     0
 10
11.4529
 20
1.4428
 30
0.0
 11
11.2848
 21
1.58061
 31
0.0
  0
LINE
  8
0
 62
     0
 10
11.2848
 20
1.58061
 30
0.0
 11
11.1773
 21
1.80661
 31
0.0
  0
LINE
  8
0
 62
     0
 10
11.1773
 20
1.80661
 30
0.0
 11
11.1566
 21
1.84795
 31
0.0
  0
LINE
  8
0
 62
     0
 10
11.1566
 20
1.84795
 30
0.0
 11
11.1208
 21
1.88654
 31
0.0
  0
LINE
  8
0
 62
     0
 10
11.1208
 20
1.88654
 30
0.0
 11
10.9926
 21
2.32613
 31
0.0
  0
LINE
  8
0
 62
     0
 10
10.9926
 20
2.32613
 30
0.0
 11
10.9857
 21
2.37161
 31
0.0
  0
LINE
  8
0
 62
     0
 10
10.9857
 20
2.37161
 30
0.0
 11
10.9775
 21
2.40192
 31
0.0
  0
LINE
  8
0
 62
     0
 10
10.9775
 20
2.40192
 30
0.0
 11
10.9733
 21
2.88699
 31
0.0
  0
LINE
  8
0
 62
     0
 10
10.9733
 20
2.88699
 30
0.0
 11
10.9802
 21
2.93384
 31
0.0
  0
LINE
  8
0
 62
     0
 10
10.9802
 20
2.93384
 30
0.0
 11
10.9857
 21
2.97518
 31
0.0
  0
LINE
  8
0
 62
     0
 10
10.9857
 20
2.97518
 30
0.0
 11
11.1194
 21
3.40789
 31
0.0
  0
LINE
  8
0
 62
     0
 10
11.1194
 20
3.40789
 30
0.0
 11
11.1401
 21
3.44647
 31
0.0
  0
LINE
  8
0
 62
     0
 10
11.1401
 20
3.44647
 30
0.0
 11
11.1001
 21
3.48644
 31
0.0
  0
LINE
  8
0
 62
     0
 10
11.1001
 20
3.48644
 30
0.0
 11
11.0257
 21
3.76619
 31
0.0
  0
LINE
  8
0
 62
     0
 10
11.0257
 20
3.76619
 30
0.0
 11
11.067
 21
4.07487
 31
0.0
  0
LINE
  8
0
 62
     0
 10
11.067
 20
4.07487
 30
0.0
 11
11.0849
 21
4.12997
 31
0.0
  0
LINE
  8
0
 62
     0
 10
11.0849
 20
4.12997
 30
0.0
 11
11.0932
 21
4.16994
 31
0.0
  0
LINE
  8
0
 62
     0
 10
11.0932
 20
4.16994
 30
0.0
 11
11.4005
 21
4.64538
 31
0.0
  0
LINE
  8
0
 62
     0
 10
11.4005
 20
4.64538
 30
0.0
 11
11.4432
 21
4.68118
 31
0.0
  0
LINE
  8
0
 62
     0
 10
11.4432
 20
4.68118
 30
0.0
 11
11.4763
 21
4.7129
 31
0.0
  0
LINE
  8
0
 62
     0
 10
11.4763
 20
4.7129
 30
0.0
 11
11.9862
 21
4.92926
 31
0.0
  0
LINE
  8
0
 62
     0
 10
11.9862
 20
4.92926
 30
0.0
 11
12.044
 21
4.93476
 31
0.0
  0
LINE
  8
0
 62
     0
 10
12.044
 20
4.93476
 30
0.0
 11
12.1006
 21
4.91684
 31
0.0
  0
LINE
  8
0
 62
     0
 10
12.1006
 20
4.91684
 30
0.0
 11
12.6573
 21
4.79559
 31
0.0
  0
LINE
  8
0
 62
     0
 10
12.6573
 20
4.79559
 30
0.0
 11
12.711
 21
4.75837
 31
0.0
  0
LINE
  8
0
 62
     0
 10
12.711
 20
4.75837
 30
0.0
 11
12.7331
 21
4.7129
 31
0.0
  0
LINE
  8
0
 62
     0
 10
12.7331
 20
4.7129
 30
0.0
 11
12.9384
 21
4.5048
 31
0.0
  0
LINE
  8
0
 62
     0
 10
12.9384
 20
4.5048
 30
0.0
 11
13.1603
 21
4.28706
 31
0.0
  0
LINE
  8
0
 62
     0
 10
13.1603
 20
4.28706
 30
0.0
 11
13.1906
 21
4.23471
 31
0.0
  0
LINE
  8
0
 62
     0
 10
13.1906
 20
4.23471
 30
0.0
 11
13.2126
 21
4.15893
 31
0.0
  0
LINE
  8
0
 62
     0
 10
13.2126
 20
4.15893
 30
0.0
 11
13.3325
 21
3.88193
 31
0.0
  0
LINE
  8
0
 62
     0
 10
13.3325
 20
3.88193
 30
0.0
 11
13.4317
 21
3.64215
 31
0.0
  0
LINE
  8
0
 62
     0
 10
13.4317
 20
3.64215
 30
0.0
 11
13.4442
 21
3.58429
 31
0.0
  0
LINE
  8
0
 62
     0
 10
13.4442
 20
3.58429
 30
0.0
 11
13.4262
 21
3.5264
 31
0.0
  0
LINE
  8
0
 62
     0
 10
13.4262
 20
3.5264
 30
0.0
 11
13.4882
 21
2.92971
 31
0.0
  0
LINE
  8
0
 62
     0
 10
13.4882
 20
2.92971
 30
0.0
 11
13.4827
 21
2.8677
 31
0.0
  0
LINE
  8
0
 62
     0
 10
13.4827
 20
2.8677
 30
0.0
 11
13.4745
 21
2.80706
 31
0.0
  0
LINE
  8
0
 62
     0
 10
13.4745
 20
2.80706
 30
0.0
 11
13.3449
 21
2.2338
 31
0.0
  0
LINE
  8
0
 62
     0
 10
13.3449
 20
2.2338
 30
0.0
 11
13.3229
 21
2.17868
 31
0.0
  0
LINE
  8
0
 62
     0
 10
13.3229
 20
2.17868
 30
0.0
 11
13.3325
 21
2.17592
 31
0.0
  0
LINE
  8
0
 62
     0
 10
13.3325
 20
2.17592
 30
0.0
 11
13.6315
 21
2.21451
 31
0.0
  0
LINE
  8
0
 62
     0
 10
13.6315
 20
2.21451
 30
0.0
 11
13.6591
 21
2.22278
 31
0.0
  0
LINE
  8
0
 62
     0
 10
13.6591
 20
2.22278
 30
0.0
 11
13.6701
 21
2.22829
 31
0.0
  0
LINE
  8
0
 62
     0
 10
13.6701
 20
2.22829
 30
0.0
 11
13.9485
 21
2.36609
 31
0.0
  0
LINE
  8
0
 62
     0
 10
13.9485
 20
2.36609
 30
0.0
 11
13.9733
 21
2.38263
 31
0.0
  0
LINE
  8
0
 62
     0
 10
13.9733
 20
2.38263
 30
0.0
 11
13.9829
 21
2.38125
 31
0.0
  0
LINE
  8
0
 62
     0
 10
13.9829
 20
2.38125
 30
0.0
 11
14.0932
 21
2.46255
 31
0.0
  0
LINE
  8
0
 62
     0
 10
14.0932
 20
2.46255
 30
0.0
 11
14.2227
 21
2.59209
 31
0.0
  0
LINE
  8
0
 62
     0
 10
14.2227
 20
2.59209
 30
0.0
 11
14.2434
 21
2.61414
 31
0.0
  0
LINE
  8
0
 62
     0
 10
14.2434
 20
2.61414
 30
0.0
 11
14.2572
 21
2.6293
 31
0.0
  0
LINE
  8
0
 62
     0
 10
14.2572
 20
2.6293
 30
0.0
 11
14.457
 21
2.87596
 31
0.0
  0
LINE
  8
0
 62
     0
 10
14.457
 20
2.87596
 30
0.0
 11
14.4749
 21
2.90077
 31
0.0
  0
LINE
  8
0
 62
     0
 10
14.4749
 20
2.90077
 30
0.0
 11
14.4708
 21
2.90215
 31
0.0
  0
LINE
  8
0
 62
     0
 10
14.4708
 20
2.90215
 30
0.0
 11
14.468
 21
2.93247
 31
0.0
  0
LINE
  8
0
 62
     0
 10
14.468
 20
2.93247
 30
0.0
 11
14.548
 21
2.94624
 31
0.0
  0
LINE
  8
0
 62
     0
 10
14.548
 20
2.94624
 30
0.0
 11
14.5576
 21
2.94487
 31
0.0
  0
LINE
  8
0
 62
     0
 10
14.5576
 20
2.94487
 30
0.0
 11
14.5631
 21
2.93798
 31
0.0
  0
LINE
  8
0
 62
     0
 10
14.5631
 20
2.93798
 30
0.0
 11
14.6031
 21
2.90491
 31
0.0
  0
LINE
  8
0
 62
     0
 10
14.6031
 20
2.90491
 30
0.0
 11
14.6017
 21
2.90077
 31
0.0
  0
LINE
  8
0
 62
     0
 10
11.2944
 20
3.66695
 30
0.0
 11
11.2944
 21
3.66695
 31
0.0
  0
LINE
  8
0
 62
     0
 10
11.2944
 20
3.66695
 30
0.0
 11
11.3041
 21
3.6697
 31
0.0
  0
LINE
  8
0
 62
     0
 10
11.3041
 20
3.6697
 30
0.0
 11
11.3853
 21
3.64765
 31
0.0
  0
LINE
  8
0
 62
     0
 10
11.3853
 20
3.64765
 30
0.0
 11
11.3936
 21
3.63389
 31
0.0
  0
LINE
  8
0
 62
     0
 10
11.3936
 20
3.63389
 30
0.0
 11
11.3978
 21
3.61735
 31
0.0
  0
LINE
  8
0
 62
     0
 10
11.3978
 20
3.61735
 30
0.0
 11
11.4804
 21
3.46577
 31
0.0
  0
LINE
  8
0
 62
     0
 10
11.4804
 20
3.46577
 30
0.0
 11
11.4873
 21
3.44647
 31
0.0
  0
LINE
  8
0
 62
     0
 10
11.4873
 20
3.44647
 30
0.0
 11
11.4818
 21
3.41202
 31
0.0
  0
LINE
  8
0
 62
     0
 10
11.4818
 20
3.41202
 30
0.0
 11
11.5052
 21
3.30178
 31
0.0
  0
LINE
  8
0
 62
     0
 10
11.5052
 20
3.30178
 30
0.0
 11
11.5493
 21
3.23012
 31
0.0
  0
LINE
  8
0
 62
     0
 10
11.5493
 20
3.23012
 30
0.0
 11
11.5535
 21
3.20945
 31
0.0
  0
LINE
  8
0
 62
     0
 10
11.5535
 20
3.20945
 30
0.0
 11
11.5438
 21
3.17776
 31
0.0
  0
LINE
  8
0
 62
     0
 10
11.5438
 20
3.17776
 30
0.0
 11
11.5425
 21
3.07027
 31
0.0
  0
LINE
  8
0
 62
     0
 10
11.5425
 20
3.07027
 30
0.0
 11
11.57
 21
3.05787
 31
0.0
  0
LINE
  8
0
 62
     0
 10
11.57
 20
3.05787
 30
0.0
 11
11.57
 21
3.05511
 31
0.0
  0
LINE
  8
0
 62
     0
 10
11.57
 20
3.05511
 30
0.0
 11
11.6003
 21
2.98483
 31
0.0
  0
LINE
  8
0
 62
     0
 10
11.6003
 20
2.98483
 30
0.0
 11
11.8759
 21
2.72162
 31
0.0
  0
LINE
  8
0
 62
     0
 10
11.8759
 20
2.72162
 30
0.0
 11
12.2356
 21
2.51768
 31
0.0
  0
LINE
  8
0
 62
     0
 10
12.2356
 20
2.51768
 30
0.0
 11
12.3086
 21
2.47633
 31
0.0
  0
LINE
  8
0
 62
     0
 10
12.3086
 20
2.47633
 30
0.0
 11
12.3583
 21
2.41019
 31
0.0
  0
LINE
  8
0
 62
     0
 10
12.3583
 20
2.41019
 30
0.0
 11
12.7152
 21
2.24482
 31
0.0
  0
LINE
  8
0
 62
     0
 10
12.7152
 20
2.24482
 30
0.0
 11
13.1244
 21
2.19797
 31
0.0
  0
LINE
  8
0
 62
     0
 10
13.1244
 20
2.19797
 30
0.0
 11
13.2016
 21
2.1897
 31
0.0
  0
LINE
  8
0
 62
     0
 10
13.2016
 20
2.1897
 30
0.0
 11
13.214
 21
2.24069
 31
0.0
  0
LINE
  8
0
 62
     0
 10
13.214
 20
2.24069
 30
0.0
 11
13.3656
 21
2.79328
 31
0.0
  0
LINE
  8
0
 62
     0
 10
13.3656
 20
2.79328
 30
0.0
 11
13.3725
 21
2.85116
 31
0.0
  0
LINE
  8
0
 62
     0
 10
13.3725
 20
2.85116
 30
0.0
 11
13.356
 21
2.88148
 31
0.0
  0
LINE
  8
0
 62
     0
 10
13.356
 20
2.88148
 30
0.0
 11
13.3477
 21
3.15295
 31
0.0
  0
LINE
  8
0
 62
     0
 10
13.3477
 20
3.15295
 30
0.0
 11
13.3505
 21
3.47404
 31
0.0
  0
LINE
  8
0
 62
     0
 10
13.3505
 20
3.47404
 30
0.0
 11
13.3394
 21
3.52915
 31
0.0
  0
LINE
  8
0
 62
     0
 10
13.3394
 20
3.52915
 30
0.0
 11
13.3064
 21
3.55946
 31
0.0
  0
LINE
  8
0
 62
     0
 10
13.3064
 20
3.55946
 30
0.0
 11
13.2112
 21
3.81579
 31
0.0
  0
LINE
  8
0
 62
     0
 10
13.2112
 20
3.81579
 30
0.0
 11
13.1244
 21
4.1093
 31
0.0
  0
LINE
  8
0
 62
     0
 10
13.1244
 20
4.1093
 30
0.0
 11
13.0969
 21
4.15756
 31
0.0
  0
LINE
  8
0
 62
     0
 10
13.0969
 20
4.15756
 30
0.0
 11
13.0679
 21
4.18786
 31
0.0
  0
LINE
  8
0
 62
     0
 10
13.0679
 20
4.18786
 30
0.0
 11
12.6862
 21
4.63021
 31
0.0
  0
LINE
  8
0
 62
     0
 10
12.6862
 20
4.63021
 30
0.0
 11
12.6394
 21
4.66467
 31
0.0
  0
LINE
  8
0
 62
     0
 10
12.6394
 20
4.66467
 30
0.0
 11
12.5718
 21
4.69498
 31
0.0
  0
LINE
  8
0
 62
     0
 10
12.5718
 20
4.69498
 30
0.0
 11
12.3293
 21
4.80247
 31
0.0
  0
LINE
  8
0
 62
     0
 10
12.3293
 20
4.80247
 30
0.0
 11
12.124
 21
4.84106
 31
0.0
  0
LINE
  8
0
 62
     0
 10
12.124
 20
4.84106
 30
0.0
 11
12.0771
 21
4.83552
 31
0.0
  0
LINE
  8
0
 62
     0
 10
12.0771
 20
4.83552
 30
0.0
 11
12.0261
 21
4.81485
 31
0.0
  0
LINE
  8
0
 62
     0
 10
12.0261
 20
4.81485
 30
0.0
 11
11.6058
 21
4.66189
 31
0.0
  0
LINE
  8
0
 62
     0
 10
11.6058
 20
4.66189
 30
0.0
 11
11.57
 21
4.63158
 31
0.0
  0
LINE
  8
0
 62
     0
 10
11.57
 20
4.63158
 30
0.0
 11
11.5135
 21
4.60266
 31
0.0
  0
LINE
  8
0
 62
     0
 10
11.5135
 20
4.60266
 30
0.0
 11
11.2572
 21
4.21679
 31
0.0
  0
LINE
  8
0
 62
     0
 10
11.2572
 20
4.21679
 30
0.0
 11
11.2393
 21
4.16856
 31
0.0
  0
LINE
  8
0
 62
     0
 10
11.2393
 20
4.16856
 30
0.0
 11
11.1993
 21
4.10104
 31
0.0
  0
LINE
  8
0
 62
     0
 10
11.1993
 20
4.10104
 30
0.0
 11
11.1456
 21
3.84334
 31
0.0
  0
LINE
  8
0
 62
     0
 10
11.1456
 20
3.84334
 30
0.0
 11
11.1938
 21
3.61597
 31
0.0
  0
LINE
  8
0
 62
     0
 10
11.1938
 20
3.61597
 30
0.0
 11
11.2062
 21
3.56224
 31
0.0
  0
LINE
  8
0
 62
     0
 10
11.2062
 20
3.56224
 30
0.0
 11
11.2944
 21
3.66695
 31
0.0
  0
LINE
  8
0
 62
     0
 10
11.5425
 20
2.9118
 30
0.0
 11
11.5232
 21
2.88423
 31
0.0
  0
LINE
  8
0
 62
     0
 10
11.5232
 20
2.88423
 30
0.0
 11
11.5397
 21
2.62654
 31
0.0
  0
LINE
  8
0
 62
     0
 10
11.5397
 20
2.62654
 30
0.0
 11
11.5425
 21
2.5976
 31
0.0
  0
LINE
  8
0
 62
     0
 10
11.5425
 20
2.5976
 30
0.0
 11
11.5273
 21
2.56315
 31
0.0
  0
LINE
  8
0
 62
     0
 10
11.5273
 20
2.56315
 30
0.0
 11
11.5948
 21
2.28479
 31
0.0
  0
LINE
  8
0
 62
     0
 10
11.5948
 20
2.28479
 30
0.0
 11
11.6031
 21
2.25585
 31
0.0
  0
LINE
  8
0
 62
     0
 10
11.6031
 20
2.25585
 30
0.0
 11
11.5879
 21
2.22002
 31
0.0
  0
LINE
  8
0
 62
     0
 10
11.5879
 20
2.22002
 30
0.0
 11
11.6196
 21
2.0767
 31
0.0
  0
LINE
  8
0
 62
     0
 10
11.6196
 20
2.0767
 30
0.0
 11
11.7064
 21
1.95268
 31
0.0
  0
LINE
  8
0
 62
     0
 10
11.7064
 20
1.95268
 30
0.0
 11
11.7189
 21
1.92512
 31
0.0
  0
LINE
  8
0
 62
     0
 10
11.7189
 20
1.92512
 30
0.0
 11
11.7271
 21
1.89067
 31
0.0
  0
LINE
  8
0
 62
     0
 10
11.7271
 20
1.89067
 30
0.0
 11
11.8773
 21
1.67432
 31
0.0
  0
LINE
  8
0
 62
     0
 10
11.8773
 20
1.67432
 30
0.0
 11
11.8952
 21
1.65503
 31
0.0
  0
LINE
  8
0
 62
     0
 10
11.8952
 20
1.65503
 30
0.0
 11
11.8966
 21
1.62333
 31
0.0
  0
LINE
  8
0
 62
     0
 10
11.8966
 20
1.62333
 30
0.0
 11
11.9876
 21
1.52824
 31
0.0
  0
LINE
  8
0
 62
     0
 10
11.9876
 20
1.52824
 30
0.0
 11
12.1212
 21
1.49793
 31
0.0
  0
LINE
  8
0
 62
     0
 10
12.1212
 20
1.49793
 30
0.0
 11
12.1433
 21
1.48966
 31
0.0
  0
LINE
  8
0
 62
     0
 10
12.1433
 20
1.48966
 30
0.0
 11
12.1557
 21
1.48001
 31
0.0
  0
LINE
  8
0
 62
     0
 10
12.1557
 20
1.48001
 30
0.0
 11
12.3858
 21
1.45934
 31
0.0
  0
LINE
  8
0
 62
     0
 10
12.3858
 20
1.45934
 30
0.0
 11
12.4079
 21
1.4621
 31
0.0
  0
LINE
  8
0
 62
     0
 10
12.4079
 20
1.4621
 30
0.0
 11
12.4285
 21
1.46623
 31
0.0
  0
LINE
  8
0
 62
     0
 10
12.4285
 20
1.46623
 30
0.0
 11
12.6407
 21
1.53927
 31
0.0
  0
LINE
  8
0
 62
     0
 10
12.6407
 20
1.53927
 30
0.0
 11
12.6614
 21
1.55029
 31
0.0
  0
LINE
  8
0
 62
     0
 10
12.6614
 20
1.55029
 30
0.0
 11
12.66
 21
1.55443
 31
0.0
  0
LINE
  8
0
 62
     0
 10
12.66
 20
1.55443
 30
0.0
 11
12.7482
 21
1.61506
 31
0.0
  0
LINE
  8
0
 62
     0
 10
12.7482
 20
1.61506
 30
0.0
 11
12.875
 21
1.70463
 31
0.0
  0
LINE
  8
0
 62
     0
 10
12.875
 20
1.70463
 30
0.0
 11
12.8929
 21
1.72117
 31
0.0
  0
LINE
  8
0
 62
     0
 10
12.8929
 20
1.72117
 30
0.0
 11
12.8929
 21
1.72117
 31
0.0
  0
LINE
  8
0
 62
     0
 10
12.8929
 20
1.72117
 30
0.0
 11
12.948
 21
1.76802
 31
0.0
  0
LINE
  8
0
 62
     0
 10
12.948
 20
1.76802
 30
0.0
 11
13.0252
 21
1.87275
 31
0.0
  0
LINE
  8
0
 62
     0
 10
13.0252
 20
1.87275
 30
0.0
 11
13.0362
 21
1.88654
 31
0.0
  0
LINE
  8
0
 62
     0
 10
13.0362
 20
1.88654
 30
0.0
 11
13.0307
 21
1.89067
 31
0.0
  0
LINE
  8
0
 62
     0
 10
13.0307
 20
1.89067
 30
0.0
 11
13.061
 21
1.9706
 31
0.0
  0
LINE
  8
0
 62
     0
 10
13.061
 20
1.9706
 30
0.0
 11
13.1437
 21
2.05879
 31
0.0
  0
LINE
  8
0
 62
     0
 10
13.1437
 20
2.05879
 30
0.0
 11
13.152
 21
2.07395
 31
0.0
  0
LINE
  8
0
 62
     0
 10
13.152
 20
2.07395
 30
0.0
 11
13.0721
 21
2.06155
 31
0.0
  0
LINE
  8
0
 62
     0
 10
13.0721
 20
2.06155
 30
0.0
 11
12.7028
 21
2.14009
 31
0.0
  0
LINE
  8
0
 62
     0
 10
12.7028
 20
2.14009
 30
0.0
 11
12.3513
 21
2.32199
 31
0.0
  0
LINE
  8
0
 62
     0
 10
12.3513
 20
2.32199
 30
0.0
 11
12.2811
 21
2.36058
 31
0.0
  0
LINE
  8
0
 62
     0
 10
12.2811
 20
2.36058
 30
0.0
 11
12.1901
 21
2.38401
 31
0.0
  0
LINE
  8
0
 62
     0
 10
12.1901
 20
2.38401
 30
0.0
 11
11.8539
 21
2.59209
 31
0.0
  0
LINE
  8
0
 62
     0
 10
11.8539
 20
2.59209
 30
0.0
 11
11.5948
 21
2.85943
 31
0.0
  0
LINE
  8
0
 62
     0
 10
11.5948
 20
2.85943
 30
0.0
 11
11.5425
 21
2.9118
 31
0.0
  0
LINE
  8
0
 62
     0
 10
19.626
 20
2.7795
 30
0.0
 11
19.6026
 21
2.78226
 31
0.0
  0
LINE
  8
0
 62
     0
 10
19.6026
 20
2.78226
 30
0.0
 11
19.5227
 21
2.90353
 31
0.0
  0
LINE
  8
0
 62
     0
 10
19.5227
 20
2.90353
 30
0.0
 11
19.4703
 21
3.08818
 31
0.0
  0
LINE
  8
0
 62
     0
 10
19.4703
 20
3.08818
 30
0.0
 11
19.4607
 21
3.12126
 31
0.0
  0
LINE
  8
0
 62
     0
 10
19.4607
 20
3.12126
 30
0.0
 11
19.429
 21
3.13366
 31
0.0
  0
LINE
  8
0
 62
     0
 10
19.429
 20
3.13366
 30
0.0
 11
19.3794
 21
3.29213
 31
0.0
  0
LINE
  8
0
 62
     0
 10
19.3794
 20
3.29213
 30
0.0
 11
19.3904
 21
3.49884
 31
0.0
  0
LINE
  8
0
 62
     0
 10
19.3904
 20
3.49884
 30
0.0
 11
19.389
 21
3.53466
 31
0.0
  0
LINE
  8
0
 62
     0
 10
19.389
 20
3.53466
 30
0.0
 11
19.3711
 21
3.54432
 31
0.0
  0
LINE
  8
0
 62
     0
 10
19.3711
 20
3.54432
 30
0.0
 11
19.3669
 21
3.70829
 31
0.0
  0
LINE
  8
0
 62
     0
 10
19.3669
 20
3.70829
 30
0.0
 11
19.4138
 21
3.92053
 31
0.0
  0
LINE
  8
0
 62
     0
 10
19.4138
 20
3.92053
 30
0.0
 11
19.4221
 21
3.95358
 31
0.0
  0
LINE
  8
0
 62
     0
 10
19.4221
 20
3.95358
 30
0.0
 11
19.411
 21
3.9853
 31
0.0
  0
LINE
  8
0
 62
     0
 10
19.411
 20
3.9853
 30
0.0
 11
19.553
 21
4.27743
 31
0.0
  0
LINE
  8
0
 62
     0
 10
19.553
 20
4.27743
 30
0.0
 11
19.5709
 21
4.30085
 31
0.0
  0
LINE
  8
0
 62
     0
 10
19.5709
 20
4.30085
 30
0.0
 11
19.5805
 21
4.31602
 31
0.0
  0
LINE
  8
0
 62
     0
 10
19.5805
 20
4.31602
 30
0.0
 11
19.7005
 21
4.4414
 31
0.0
  0
LINE
  8
0
 62
     0
 10
19.7005
 20
4.4414
 30
0.0
 11
19.7142
 21
4.44969
 31
0.0
  0
LINE
  8
0
 62
     0
 10
19.7142
 20
4.44969
 30
0.0
 11
19.7142
 21
4.44969
 31
0.0
  0
LINE
  8
0
 62
     0
 10
19.7142
 20
4.44969
 30
0.0
 11
19.8562
 21
4.48691
 31
0.0
  0
LINE
  8
0
 62
     0
 10
19.8562
 20
4.48691
 30
0.0
 11
19.8686
 21
4.48275
 31
0.0
  0
LINE
  8
0
 62
     0
 10
19.8686
 20
4.48275
 30
0.0
 11
19.863
 21
4.47587
 31
0.0
  0
LINE
  8
0
 62
     0
 10
19.863
 20
4.47587
 30
0.0
 11
19.8947
 21
4.41798
 31
0.0
  0
LINE
  8
0
 62
     0
 10
19.8947
 20
4.41798
 30
0.0
 11
19.9815
 21
4.37526
 31
0.0
  0
LINE
  8
0
 62
     0
 10
19.9815
 20
4.37526
 30
0.0
 11
19.9898
 21
4.35599
 31
0.0
  0
LINE
  8
0
 62
     0
 10
19.9898
 20
4.35599
 30
0.0
 11
19.9912
 21
4.33116
 31
0.0
  0
LINE
  8
0
 62
     0
 10
19.9912
 20
4.33116
 30
0.0
 11
20.0629
 21
4.06245
 31
0.0
  0
LINE
  8
0
 62
     0
 10
20.0629
 20
4.06245
 30
0.0
 11
20.067
 21
4.02527
 31
0.0
  0
LINE
  8
0
 62
     0
 10
20.067
 20
4.02527
 30
0.0
 11
20.056
 21
3.97563
 31
0.0
  0
LINE
  8
0
 62
     0
 10
20.056
 20
3.97563
 30
0.0
 11
20.005
 21
3.49746
 31
0.0
  0
LINE
  8
0
 62
     0
 10
20.005
 20
3.49746
 30
0.0
 11
19.9898
 21
3.44096
 31
0.0
  0
LINE
  8
0
 62
     0
 10
19.9898
 20
3.44096
 30
0.0
 11
19.9664
 21
3.36655
 31
0.0
  0
LINE
  8
0
 62
     0
 10
19.9664
 20
3.36655
 30
0.0
 11
19.7804
 21
2.84289
 31
0.0
  0
LINE
  8
0
 62
     0
 10
19.7804
 20
2.84289
 30
0.0
 11
19.7583
 21
2.79053
 31
0.0
  0
LINE
  8
0
 62
     0
 10
19.7583
 20
2.79053
 30
0.0
 11
19.7762
 21
2.73127
 31
0.0
  0
LINE
  8
0
 62
     0
 10
19.7762
 20
2.73127
 30
0.0
 11
19.9526
 21
2.5852
 31
0.0
  0
LINE
  8
0
 62
     0
 10
19.9526
 20
2.5852
 30
0.0
 11
20.1621
 21
2.5852
 31
0.0
  0
LINE
  8
0
 62
     0
 10
20.1621
 20
2.5852
 30
0.0
 11
20.1993
 21
2.59209
 31
0.0
  0
LINE
  8
0
 62
     0
 10
20.1993
 20
2.59209
 30
0.0
 11
20.2117
 21
2.59347
 31
0.0
  0
LINE
  8
0
 62
     0
 10
20.2117
 20
2.59347
 30
0.0
 11
20.3674
 21
2.68166
 31
0.0
  0
LINE
  8
0
 62
     0
 10
20.3674
 20
2.68166
 30
0.0
 11
20.5438
 21
2.85667
 31
0.0
  0
LINE
  8
0
 62
     0
 10
20.5438
 20
2.85667
 30
0.0
 11
20.5686
 21
2.90077
 31
0.0
  0
LINE
  8
0
 62
     0
 10
20.5686
 20
2.90077
 30
0.0
 11
20.5686
 21
2.90077
 31
0.0
  0
LINE
  8
0
 62
     0
 10
20.5686
 20
2.90077
 30
0.0
 11
20.5907
 21
2.93798
 31
0.0
  0
LINE
  8
0
 62
     0
 10
20.5907
 20
2.93798
 30
0.0
 11
20.5907
 21
2.95038
 31
0.0
  0
LINE
  8
0
 62
     0
 10
20.5907
 20
2.95038
 30
0.0
 11
20.5879
 21
2.95038
 31
0.0
  0
LINE
  8
0
 62
     0
 10
20.5879
 20
2.95038
 30
0.0
 11
20.581
 21
2.97243
 31
0.0
  0
LINE
  8
0
 62
     0
 10
20.581
 20
2.97243
 30
0.0
 11
20.6595
 21
2.98208
 31
0.0
  0
LINE
  8
0
 62
     0
 10
20.6595
 20
2.98208
 30
0.0
 11
20.6678
 21
2.97794
 31
0.0
  0
LINE
  8
0
 62
     0
 10
20.6678
 20
2.97794
 30
0.0
 11
20.672
 21
2.96278
 31
0.0
  0
LINE
  8
0
 62
     0
 10
20.672
 20
2.96278
 30
0.0
 11
20.6995
 21
2.90766
 31
0.0
  0
LINE
  8
0
 62
     0
 10
20.6995
 20
2.90766
 30
0.0
 11
20.6954
 21
2.90077
 31
0.0
  0
LINE
  8
0
 62
     0
 10
20.6954
 20
2.90077
 30
0.0
 11
20.6623
 21
2.84289
 31
0.0
  0
LINE
  8
0
 62
     0
 10
20.6623
 20
2.84289
 30
0.0
 11
20.3068
 21
2.50114
 31
0.0
  0
LINE
  8
0
 62
     0
 10
20.3068
 20
2.50114
 30
0.0
 11
20.2599
 21
2.48736
 31
0.0
  0
LINE
  8
0
 62
     0
 10
20.2599
 20
2.48736
 30
0.0
 11
20.2158
 21
2.45015
 31
0.0
  0
LINE
  8
0
 62
     0
 10
20.2158
 20
2.45015
 30
0.0
 11
19.9829
 21
2.45566
 31
0.0
  0
LINE
  8
0
 62
     0
 10
19.9829
 20
2.45566
 30
0.0
 11
19.7583
 21
2.63067
 31
0.0
  0
LINE
  8
0
 62
     0
 10
19.7583
 20
2.63067
 30
0.0
 11
19.7142
 21
2.67477
 31
0.0
  0
LINE
  8
0
 62
     0
 10
19.7142
 20
2.67477
 30
0.0
 11
19.6798
 21
2.61552
 31
0.0
  0
LINE
  8
0
 62
     0
 10
19.6798
 20
2.61552
 30
0.0
 11
19.4496
 21
2.12356
 31
0.0
  0
LINE
  8
0
 62
     0
 10
19.4496
 20
2.12356
 30
0.0
 11
19.4221
 21
2.06843
 31
0.0
  0
LINE
  8
0
 62
     0
 10
19.4221
 20
2.06843
 30
0.0
 11
19.3752
 21
1.99264
 31
0.0
  0
LINE
  8
0
 62
     0
 10
19.3752
 20
1.99264
 30
0.0
 11
19.2278
 21
1.7322
 31
0.0
  0
LINE
  8
0
 62
     0
 10
19.2278
 20
1.7322
 30
0.0
 11
19.1189
 21
1.54202
 31
0.0
  0
LINE
  8
0
 62
     0
 10
19.1189
 20
1.54202
 30
0.0
 11
19.0913
 21
1.50068
 31
0.0
  0
LINE
  8
0
 62
     0
 10
19.0913
 20
1.50068
 30
0.0
 11
19.0583
 21
1.47864
 31
0.0
  0
LINE
  8
0
 62
     0
 10
19.0583
 20
1.47864
 30
0.0
 11
18.9232
 21
1.27606
 31
0.0
  0
LINE
  8
0
 62
     0
 10
18.9232
 20
1.27606
 30
0.0
 11
18.9039
 21
1.25264
 31
0.0
  0
LINE
  8
0
 62
     0
 10
18.9039
 20
1.25264
 30
0.0
 11
18.8791
 21
1.21819
 31
0.0
  0
LINE
  8
0
 62
     0
 10
18.8791
 20
1.21819
 30
0.0
 11
18.6724
 21
1.04731
 31
0.0
  0
LINE
  8
0
 62
     0
 10
18.6724
 20
1.04731
 30
0.0
 11
18.6504
 21
1.03215
 31
0.0
  0
LINE
  8
0
 62
     0
 10
18.6504
 20
1.03215
 30
0.0
 11
18.6187
 21
1.00046
 31
0.0
  0
LINE
  8
0
 62
     0
 10
18.6187
 20
1.00046
 30
0.0
 11
18.4905
 21
0.934311
 31
0.0
  0
LINE
  8
0
 62
     0
 10
18.4905
 20
0.934311
 30
0.0
 11
18.3885
 21
0.945335
 31
0.0
  0
LINE
  8
0
 62
     0
 10
18.3885
 20
0.945335
 30
0.0
 11
18.3637
 21
0.943956
 31
0.0
  0
LINE
  8
0
 62
     0
 10
18.3637
 20
0.943956
 30
0.0
 11
18.3265
 21
0.930176
 31
0.0
  0
LINE
  8
0
 62
     0
 10
18.3265
 20
0.930176
 30
0.0
 11
18.1887
 21
0.950846
 31
0.0
  0
LINE
  8
0
 62
     0
 10
18.1887
 20
0.950846
 30
0.0
 11
18.0909
 21
1.0542
 31
0.0
  0
LINE
  8
0
 62
     0
 10
18.0909
 20
1.0542
 30
0.0
 11
18.0661
 21
1.07625
 31
0.0
  0
LINE
  8
0
 62
     0
 10
18.0661
 20
1.07625
 30
0.0
 11
18.0371
 21
1.07074
 31
0.0
  0
LINE
  8
0
 62
     0
 10
18.0371
 20
1.07074
 30
0.0
 11
17.9269
 21
1.15617
 31
0.0
  0
LINE
  8
0
 62
     0
 10
17.9269
 20
1.15617
 30
0.0
 11
17.8952
 21
1.31878
 31
0.0
  0
LINE
  8
0
 62
     0
 10
17.8952
 20
1.31878
 30
0.0
 11
17.8842
 21
1.34634
 31
0.0
  0
LINE
  8
0
 62
     0
 10
17.8842
 20
1.34634
 30
0.0
 11
17.8649
 21
1.35461
 31
0.0
  0
LINE
  8
0
 62
     0
 10
17.8649
 20
1.35461
 30
0.0
 11
17.8125
 21
1.48553
 31
0.0
  0
LINE
  8
0
 62
     0
 10
17.8125
 20
1.48553
 30
0.0
 11
17.785
 21
1.66329
 31
0.0
  0
LINE
  8
0
 62
     0
 10
17.785
 20
1.66329
 30
0.0
 11
17.7794
 21
1.69361
 31
0.0
  0
LINE
  8
0
 62
     0
 10
17.7794
 20
1.69361
 30
0.0
 11
17.7519
 21
1.70188
 31
0.0
  0
LINE
  8
0
 62
     0
 10
17.7519
 20
1.70188
 30
0.0
 11
17.705
 21
1.84381
 31
0.0
  0
LINE
  8
0
 62
     0
 10
17.705
 20
1.84381
 30
0.0
 11
17.7353
 21
2.02296
 31
0.0
  0
LINE
  8
0
 62
     0
 10
17.7353
 20
2.02296
 30
0.0
 11
17.7353
 21
2.0519
 31
0.0
  0
LINE
  8
0
 62
     0
 10
17.7353
 20
2.0519
 30
0.0
 11
17.7161
 21
2.05879
 31
0.0
  0
LINE
  8
0
 62
     0
 10
17.7161
 20
2.05879
 30
0.0
 11
17.6954
 21
2.18419
 31
0.0
  0
LINE
  8
0
 62
     0
 10
17.6954
 20
2.18419
 30
0.0
 11
17.7381
 21
2.33026
 31
0.0
  0
LINE
  8
0
 62
     0
 10
17.7381
 20
2.33026
 30
0.0
 11
17.7409
 21
2.34956
 31
0.0
  0
LINE
  8
0
 62
     0
 10
17.7409
 20
2.34956
 30
0.0
 11
17.6968
 21
2.30959
 31
0.0
  0
LINE
  8
0
 62
     0
 10
17.6968
 20
2.30959
 30
0.0
 11
17.5824
 21
2.17179
 31
0.0
  0
LINE
  8
0
 62
     0
 10
17.5824
 20
2.17179
 30
0.0
 11
17.5231
 21
2.07532
 31
0.0
  0
LINE
  8
0
 62
     0
 10
17.5231
 20
2.07532
 30
0.0
 11
17.5038
 21
2.0519
 31
0.0
  0
LINE
  8
0
 62
     0
 10
17.5038
 20
2.0519
 30
0.0
 11
17.479
 21
2.00918
 31
0.0
  0
LINE
  8
0
 62
     0
 10
17.479
 20
2.00918
 30
0.0
 11
17.2916
 21
1.84106
 31
0.0
  0
LINE
  8
0
 62
     0
 10
17.2916
 20
1.84106
 30
0.0
 11
17.2723
 21
1.8259
 31
0.0
  0
LINE
  8
0
 62
     0
 10
17.2723
 20
1.8259
 30
0.0
 11
17.2007
 21
1.7818
 31
0.0
  0
LINE
  8
0
 62
     0
 10
17.2007
 20
1.7818
 30
0.0
 11
16.9333
 21
1.6688
 31
0.0
  0
LINE
  8
0
 62
     0
 10
16.9333
 20
1.6688
 30
0.0
 11
16.7211
 21
1.69636
 31
0.0
  0
LINE
  8
0
 62
     0
 10
16.7211
 20
1.69636
 30
0.0
 11
16.677
 21
1.72117
 31
0.0
  0
LINE
  8
0
 62
     0
 10
16.677
 20
1.72117
 30
0.0
 11
16.6136
 21
1.72531
 31
0.0
  0
LINE
  8
0
 62
     0
 10
16.6136
 20
1.72531
 30
0.0
 11
16.4317
 21
1.91547
 31
0.0
  0
LINE
  8
0
 62
     0
 10
16.4317
 20
1.91547
 30
0.0
 11
16.3766
 21
2.24758
 31
0.0
  0
LINE
  8
0
 62
     0
 10
16.3766
 20
2.24758
 30
0.0
 11
16.3683
 21
2.32199
 31
0.0
  0
LINE
  8
0
 62
     0
 10
16.3683
 20
2.32199
 30
0.0
 11
16.338
 21
2.34129
 31
0.0
  0
LINE
  8
0
 62
     0
 10
16.338
 20
2.34129
 30
0.0
 11
16.3173
 21
2.50941
 31
0.0
  0
LINE
  8
0
 62
     0
 10
16.3173
 20
2.50941
 30
0.0
 11
16.3656
 21
2.71336
 31
0.0
  0
LINE
  8
0
 62
     0
 10
16.3656
 20
2.71336
 30
0.0
 11
16.3683
 21
2.75194
 31
0.0
  0
LINE
  8
0
 62
     0
 10
16.3683
 20
2.75194
 30
0.0
 11
16.3408
 21
2.77261
 31
0.0
  0
LINE
  8
0
 62
     0
 10
16.3408
 20
2.77261
 30
0.0
 11
16.3435
 21
2.9614
 31
0.0
  0
LINE
  8
0
 62
     0
 10
16.3435
 20
2.9614
 30
0.0
 11
16.411
 21
3.19154
 31
0.0
  0
LINE
  8
0
 62
     0
 10
16.411
 20
3.19154
 30
0.0
 11
16.418
 21
3.2315
 31
0.0
  0
LINE
  8
0
 62
     0
 10
16.418
 20
3.2315
 30
0.0
 11
16.4207
 21
3.27146
 31
0.0
  0
LINE
  8
0
 62
     0
 10
16.4207
 20
3.27146
 30
0.0
 11
16.502
 21
3.66282
 31
0.0
  0
LINE
  8
0
 62
     0
 10
16.502
 20
3.66282
 30
0.0
 11
16.5117
 21
3.70004
 31
0.0
  0
LINE
  8
0
 62
     0
 10
16.5117
 20
3.70004
 30
0.0
 11
16.5103
 21
3.72897
 31
0.0
  0
LINE
  8
0
 62
     0
 10
16.5103
 20
3.72897
 30
0.0
 11
16.6315
 21
4.08312
 31
0.0
  0
LINE
  8
0
 62
     0
 10
16.6315
 20
4.08312
 30
0.0
 11
16.6439
 21
4.11346
 31
0.0
  0
LINE
  8
0
 62
     0
 10
16.6439
 20
4.11346
 30
0.0
 11
16.6439
 21
4.11346
 31
0.0
  0
LINE
  8
0
 62
     0
 10
16.6439
 20
4.11346
 30
0.0
 11
16.6563
 21
4.15202
 31
0.0
  0
LINE
  8
0
 62
     0
 10
16.6563
 20
4.15202
 30
0.0
 11
16.7501
 21
4.20441
 31
0.0
  0
LINE
  8
0
 62
     0
 10
16.7501
 20
4.20441
 30
0.0
 11
16.7652
 21
4.20716
 31
0.0
  0
LINE
  8
0
 62
     0
 10
16.7652
 20
4.20716
 30
0.0
 11
16.7762
 21
4.18924
 31
0.0
  0
LINE
  8
0
 62
     0
 10
16.7762
 20
4.18924
 30
0.0
 11
16.9306
 21
4.21541
 31
0.0
  0
LINE
  8
0
 62
     0
 10
16.9306
 20
4.21541
 30
0.0
 11
16.9471
 21
4.21266
 31
0.0
  0
LINE
  8
0
 62
     0
 10
16.9471
 20
4.21266
 30
0.0
 11
16.9458
 21
4.19887
 31
0.0
  0
LINE
  8
0
 62
     0
 10
16.9458
 20
4.19887
 30
0.0
 11
17.0105
 21
4.15339
 31
0.0
  0
LINE
  8
0
 62
     0
 10
17.0105
 20
4.15339
 30
0.0
 11
17.1015
 21
4.16031
 31
0.0
  0
LINE
  8
0
 62
     0
 10
17.1015
 20
4.16031
 30
0.0
 11
17.1125
 21
4.15202
 31
0.0
  0
LINE
  8
0
 62
     0
 10
17.1125
 20
4.15202
 30
0.0
 11
17.1208
 21
4.12722
 31
0.0
  0
LINE
  8
0
 62
     0
 10
17.1208
 20
4.12722
 30
0.0
 11
17.1649
 21
4.06382
 31
0.0
  0
LINE
  8
0
 62
     0
 10
17.1649
 20
4.06382
 30
0.0
 11
17.1621
 21
4.05282
 31
0.0
  0
LINE
  8
0
 62
     0
 10
17.1621
 20
4.05282
 30
0.0
 11
17.1359
 21
3.9963
 31
0.0
  0
LINE
  8
0
 62
     0
 10
17.1359
 20
3.9963
 30
0.0
 11
16.9678
 21
3.53466
 31
0.0
  0
LINE
  8
0
 62
     0
 10
16.9678
 20
3.53466
 30
0.0
 11
16.9526
 21
3.48506
 31
0.0
  0
LINE
  8
0
 62
     0
 10
16.9526
 20
3.48506
 30
0.0
 11
16.9195
 21
3.41616
 31
0.0
  0
LINE
  8
0
 62
     0
 10
16.9195
 20
3.41616
 30
0.0
 11
16.8465
 21
3.17087
 31
0.0
  0
LINE
  8
0
 62
     0
 10
16.8465
 20
3.17087
 30
0.0
 11
16.8231
 21
2.97794
 31
0.0
  0
LINE
  8
0
 62
     0
 10
16.8231
 20
2.97794
 30
0.0
 11
16.8148
 21
2.93384
 31
0.0
  0
LINE
  8
0
 62
     0
 10
16.8148
 20
2.93384
 30
0.0
 11
16.8052
 21
2.90904
 31
0.0
  0
LINE
  8
0
 62
     0
 10
16.8052
 20
2.90904
 30
0.0
 11
16.7749
 21
2.6169
 31
0.0
  0
LINE
  8
0
 62
     0
 10
16.7749
 20
2.6169
 30
0.0
 11
16.7707
 21
2.57555
 31
0.0
  0
LINE
  8
0
 62
     0
 10
16.7707
 20
2.57555
 30
0.0
 11
16.7624
 21
2.53146
 31
0.0
  0
LINE
  8
0
 62
     0
 10
16.7624
 20
2.53146
 30
0.0
 11
16.7611
 21
2.16903
 31
0.0
  0
LINE
  8
0
 62
     0
 10
16.7611
 20
2.16903
 30
0.0
 11
16.7652
 21
2.13458
 31
0.0
  0
LINE
  8
0
 62
     0
 10
16.7652
 20
2.13458
 30
0.0
 11
16.7652
 21
2.08084
 31
0.0
  0
LINE
  8
0
 62
     0
 10
16.7652
 20
2.08084
 30
0.0
 11
16.8024
 21
1.91823
 31
0.0
  0
LINE
  8
0
 62
     0
 10
16.8024
 20
1.91823
 30
0.0
 11
16.8741
 21
1.8576
 31
0.0
  0
LINE
  8
0
 62
     0
 10
16.8741
 20
1.8576
 30
0.0
 11
16.892
 21
1.84244
 31
0.0
  0
LINE
  8
0
 62
     0
 10
16.892
 20
1.84244
 30
0.0
 11
16.8947
 21
1.83141
 31
0.0
  0
LINE
  8
0
 62
     0
 10
16.8947
 20
1.83141
 30
0.0
 11
17.0119
 21
1.82452
 31
0.0
  0
LINE
  8
0
 62
     0
 10
17.0119
 20
1.82452
 30
0.0
 11
17.2034
 21
1.92098
 31
0.0
  0
LINE
  8
0
 62
     0
 10
17.2034
 20
1.92098
 30
0.0
 11
17.2448
 21
1.95268
 31
0.0
  0
LINE
  8
0
 62
     0
 10
17.2448
 20
1.95268
 30
0.0
 11
17.2516
 21
1.95819
 31
0.0
  0
LINE
  8
0
 62
     0
 10
17.2516
 20
1.95819
 30
0.0
 11
17.4763
 21
2.19522
 31
0.0
  0
LINE
  8
0
 62
     0
 10
17.4763
 20
2.19522
 30
0.0
 11
17.4983
 21
2.22278
 31
0.0
  0
LINE
  8
0
 62
     0
 10
17.4983
 20
2.22278
 30
0.0
 11
17.5135
 21
2.2462
 31
0.0
  0
LINE
  8
0
 62
     0
 10
17.5135
 20
2.2462
 30
0.0
 11
17.7395
 21
2.5535
 31
0.0
  0
LINE
  8
0
 62
     0
 10
17.7395
 20
2.5535
 30
0.0
 11
17.7629
 21
2.58658
 31
0.0
  0
LINE
  8
0
 62
     0
 10
17.7629
 20
2.58658
 30
0.0
 11
17.7409
 21
2.63343
 31
0.0
  0
LINE
  8
0
 62
     0
 10
17.7409
 20
2.63343
 30
0.0
 11
17.7629
 21
2.90904
 31
0.0
  0
LINE
  8
0
 62
     0
 10
17.7629
 20
2.90904
 30
0.0
 11
17.8511
 21
3.21772
 31
0.0
  0
LINE
  8
0
 62
     0
 10
17.8511
 20
3.21772
 30
0.0
 11
17.8621
 21
3.28111
 31
0.0
  0
LINE
  8
0
 62
     0
 10
17.8621
 20
3.28111
 30
0.0
 11
17.8676
 21
3.34036
 31
0.0
  0
LINE
  8
0
 62
     0
 10
17.8676
 20
3.34036
 30
0.0
 11
18.0248
 21
3.8971
 31
0.0
  0
LINE
  8
0
 62
     0
 10
18.0248
 20
3.8971
 30
0.0
 11
18.044
 21
3.94257
 31
0.0
  0
LINE
  8
0
 62
     0
 10
18.044
 20
3.94257
 30
0.0
 11
18.044
 21
3.94257
 31
0.0
  0
LINE
  8
0
 62
     0
 10
18.044
 20
3.94257
 30
0.0
 11
18.1501
 21
4.03902
 31
0.0
  0
LINE
  8
0
 62
     0
 10
18.1501
 20
4.03902
 30
0.0
 11
18.1653
 21
4.04177
 31
0.0
  0
LINE
  8
0
 62
     0
 10
18.1653
 20
4.04177
 30
0.0
 11
18.1777
 21
4.03627
 31
0.0
  0
LINE
  8
0
 62
     0
 10
18.1777
 20
4.03627
 30
0.0
 11
18.3265
 21
4.04594
 31
0.0
  0
LINE
  8
0
 62
     0
 10
18.3265
 20
4.04594
 30
0.0
 11
18.3417
 21
4.04177
 31
0.0
  0
LINE
  8
0
 62
     0
 10
18.3417
 20
4.04177
 30
0.0
 11
18.3403
 21
4.02939
 31
0.0
  0
LINE
  8
0
 62
     0
 10
18.3403
 20
4.02939
 30
0.0
 11
18.4905
 21
3.97979
 31
0.0
  0
LINE
  8
0
 62
     0
 10
18.4905
 20
3.97979
 30
0.0
 11
18.5015
 21
3.97013
 31
0.0
  0
LINE
  8
0
 62
     0
 10
18.5015
 20
3.97013
 30
0.0
 11
18.5112
 21
3.95912
 31
0.0
  0
LINE
  8
0
 62
     0
 10
18.5112
 20
3.95912
 30
0.0
 11
18.5539
 21
3.87505
 31
0.0
  0
LINE
  8
0
 62
     0
 10
18.5539
 20
3.87505
 30
0.0
 11
18.5511
 21
3.86539
 31
0.0
  0
LINE
  8
0
 62
     0
 10
18.5511
 20
3.86539
 30
0.0
 11
18.5415
 21
3.8282
 31
0.0
  0
LINE
  8
0
 62
     0
 10
18.5415
 20
3.8282
 30
0.0
 11
18.4864
 21
3.62839
 31
0.0
  0
LINE
  8
0
 62
     0
 10
18.4864
 20
3.62839
 30
0.0
 11
18.4795
 21
3.5953
 31
0.0
  0
LINE
  8
0
 62
     0
 10
18.4795
 20
3.5953
 30
0.0
 11
18.4437
 21
3.56224
 31
0.0
  0
LINE
  8
0
 62
     0
 10
18.4437
 20
3.56224
 30
0.0
 11
18.3927
 21
3.3886
 31
0.0
  0
LINE
  8
0
 62
     0
 10
18.3927
 20
3.3886
 30
0.0
 11
18.3982
 21
3.19705
 31
0.0
  0
LINE
  8
0
 62
     0
 10
18.3982
 20
3.19705
 30
0.0
 11
18.3913
 21
3.15433
 31
0.0
  0
LINE
  8
0
 62
     0
 10
18.3913
 20
3.15433
 30
0.0
 11
18.3637
 21
3.08818
 31
0.0
  0
LINE
  8
0
 62
     0
 10
18.3637
 20
3.08818
 30
0.0
 11
18.321
 21
2.85667
 31
0.0
  0
LINE
  8
0
 62
     0
 10
18.321
 20
2.85667
 30
0.0
 11
18.3196
 21
2.66237
 31
0.0
  0
LINE
  8
0
 62
     0
 10
18.3196
 20
2.66237
 30
0.0
 11
18.3141
 21
2.61414
 31
0.0
  0
LINE
  8
0
 62
     0
 10
18.3141
 20
2.61414
 30
0.0
 11
18.2935
 21
2.55902
 31
0.0
  0
LINE
  8
0
 62
     0
 10
18.2935
 20
2.55902
 30
0.0
 11
18.2618
 21
2.1084
 31
0.0
  0
LINE
  8
0
 62
     0
 10
18.2618
 20
2.1084
 30
0.0
 11
18.259
 21
2.06292
 31
0.0
  0
LINE
  8
0
 62
     0
 10
18.259
 20
2.06292
 30
0.0
 11
18.2466
 21
1.99815
 31
0.0
  0
LINE
  8
0
 62
     0
 10
18.2466
 20
1.99815
 30
0.0
 11
18.2383
 21
1.77629
 31
0.0
  0
LINE
  8
0
 62
     0
 10
18.2383
 20
1.77629
 30
0.0
 11
18.2563
 21
1.61093
 31
0.0
  0
LINE
  8
0
 62
     0
 10
18.2563
 20
1.61093
 30
0.0
 11
18.259
 21
1.57234
 31
0.0
  0
LINE
  8
0
 62
     0
 10
18.259
 20
1.57234
 30
0.0
 11
18.2521
 21
1.52687
 31
0.0
  0
LINE
  8
0
 62
     0
 10
18.2521
 20
1.52687
 30
0.0
 11
18.3307
 21
1.25539
 31
0.0
  0
LINE
  8
0
 62
     0
 10
18.3307
 20
1.25539
 30
0.0
 11
18.3417
 21
1.2361
 31
0.0
  0
LINE
  8
0
 62
     0
 10
18.3417
 20
1.2361
 30
0.0
 11
18.3376
 21
1.21267
 31
0.0
  0
LINE
  8
0
 62
     0
 10
18.3376
 20
1.21267
 30
0.0
 11
18.3885
 21
1.12999
 31
0.0
  0
LINE
  8
0
 62
     0
 10
18.3885
 20
1.12999
 30
0.0
 11
18.485
 21
1.12034
 31
0.0
  0
LINE
  8
0
 62
     0
 10
18.485
 20
1.12034
 30
0.0
 11
18.5015
 21
1.12034
 31
0.0
  0
LINE
  8
0
 62
     0
 10
18.5015
 20
1.12034
 30
0.0
 11
18.5167
 21
1.12172
 31
0.0
  0
LINE
  8
0
 62
     0
 10
18.5167
 20
1.12172
 30
0.0
 11
18.6779
 21
1.19614
 31
0.0
  0
LINE
  8
0
 62
     0
 10
18.6779
 20
1.19614
 30
0.0
 11
18.6945
 21
1.20854
 31
0.0
  0
LINE
  8
0
 62
     0
 10
18.6945
 20
1.20854
 30
0.0
 11
18.6931
 21
1.21267
 31
0.0
  0
LINE
  8
0
 62
     0
 10
18.6931
 20
1.21267
 30
0.0
 11
18.8571
 21
1.3739
 31
0.0
  0
LINE
  8
0
 62
     0
 10
18.8571
 20
1.3739
 30
0.0
 11
18.8709
 21
1.39044
 31
0.0
  0
LINE
  8
0
 62
     0
 10
18.8709
 20
1.39044
 30
0.0
 11
18.8764
 21
1.38768
 31
0.0
  0
LINE
  8
0
 62
     0
 10
18.8764
 20
1.38768
 30
0.0
 11
18.9894
 21
1.55029
 31
0.0
  0
LINE
  8
0
 62
     0
 10
18.9894
 20
1.55029
 30
0.0
 11
18.9976
 21
1.56132
 31
0.0
  0
LINE
  8
0
 62
     0
 10
18.9976
 20
1.56132
 30
0.0
 11
19.0128
 21
1.59439
 31
0.0
  0
LINE
  8
0
 62
     0
 10
19.0128
 20
1.59439
 30
0.0
 11
19.3008
 21
2.09048
 31
0.0
  0
LINE
  8
0
 62
     0
 10
19.3008
 20
2.09048
 30
0.0
 11
19.3284
 21
2.1456
 31
0.0
  0
LINE
  8
0
 62
     0
 10
19.3284
 20
2.1456
 30
0.0
 11
19.3449
 21
2.17454
 31
0.0
  0
LINE
  8
0
 62
     0
 10
19.3449
 20
2.17454
 30
0.0
 11
19.4689
 21
2.43086
 31
0.0
  0
LINE
  8
0
 62
     0
 10
19.4689
 20
2.43086
 30
0.0
 11
19.604
 21
2.72989
 31
0.0
  0
LINE
  8
0
 62
     0
 10
19.604
 20
2.72989
 30
0.0
 11
19.626
 21
2.7795
 31
0.0
  0
LINE
  8
0
 62
     0
 10
19.6867
 20
2.89526
 30
0.0
 11
19.6949
 21
2.94211
 31
0.0
  0
LINE
  8
0
 62
     0
 10
19.6949
 20
2.94211
 30
0.0
 11
19.8713
 21
3.44096
 31
0.0
  0
LINE
  8
0
 62
     0
 10
19.8713
 20
3.44096
 30
0.0
 11
19.8851
 21
3.49057
 31
0.0
  0
LINE
  8
0
 62
     0
 10
19.8851
 20
3.49057
 30
0.0
 11
19.8699
 21
3.51951
 31
0.0
  0
LINE
  8
0
 62
     0
 10
19.8699
 20
3.51951
 30
0.0
 11
19.8975
 21
3.74826
 31
0.0
  0
LINE
  8
0
 62
     0
 10
19.8975
 20
3.74826
 30
0.0
 11
19.9526
 21
3.99768
 31
0.0
  0
LINE
  8
0
 62
     0
 10
19.9526
 20
3.99768
 30
0.0
 11
19.9512
 21
4.03627
 31
0.0
  0
LINE
  8
0
 62
     0
 10
19.9512
 20
4.03627
 30
0.0
 11
19.9457
 21
4.05557
 31
0.0
  0
LINE
  8
0
 62
     0
 10
19.9457
 20
4.05557
 30
0.0
 11
19.9126
 21
4.27193
 31
0.0
  0
LINE
  8
0
 62
     0
 10
19.9126
 20
4.27193
 30
0.0
 11
19.9071
 21
4.28431
 31
0.0
  0
LINE
  8
0
 62
     0
 10
19.9071
 20
4.28431
 30
0.0
 11
19.9016
 21
4.29673
 31
0.0
  0
LINE
  8
0
 62
     0
 10
19.9016
 20
4.29673
 30
0.0
 11
19.8369
 21
4.367
 31
0.0
  0
LINE
  8
0
 62
     0
 10
19.8369
 20
4.367
 30
0.0
 11
19.83
 21
4.367
 31
0.0
  0
LINE
  8
0
 62
     0
 10
19.83
 20
4.367
 30
0.0
 11
19.8065
 21
4.36287
 31
0.0
  0
LINE
  8
0
 62
     0
 10
19.8065
 20
4.36287
 30
0.0
 11
19.7501
 21
4.3422
 31
0.0
  0
LINE
  8
0
 62
     0
 10
19.7501
 20
4.3422
 30
0.0
 11
19.7418
 21
4.33395
 31
0.0
  0
LINE
  8
0
 62
     0
 10
19.7418
 20
4.33395
 30
0.0
 11
19.717
 21
4.3229
 31
0.0
  0
LINE
  8
0
 62
     0
 10
19.717
 20
4.3229
 30
0.0
 11
19.6591
 21
4.24021
 31
0.0
  0
LINE
  8
0
 62
     0
 10
19.6591
 20
4.24021
 30
0.0
 11
19.6536
 21
4.22921
 31
0.0
  0
LINE
  8
0
 62
     0
 10
19.6536
 20
4.22921
 30
0.0
 11
19.6329
 21
4.18373
 31
0.0
  0
LINE
  8
0
 62
     0
 10
19.6329
 20
4.18373
 30
0.0
 11
19.5709
 21
4.04594
 31
0.0
  0
LINE
  8
0
 62
     0
 10
19.5709
 20
4.04594
 30
0.0
 11
19.5433
 21
3.94945
 31
0.0
  0
LINE
  8
0
 62
     0
 10
19.5433
 20
3.94945
 30
0.0
 11
19.5378
 21
3.92053
 31
0.0
  0
LINE
  8
0
 62
     0
 10
19.5378
 20
3.92053
 30
0.0
 11
19.5089
 21
3.87368
 31
0.0
  0
LINE
  8
0
 62
     0
 10
19.5089
 20
3.87368
 30
0.0
 11
19.4717
 21
3.70279
 31
0.0
  0
LINE
  8
0
 62
     0
 10
19.4717
 20
3.70279
 30
0.0
 11
19.5089
 21
3.59392
 31
0.0
  0
LINE
  8
0
 62
     0
 10
19.5089
 20
3.59392
 30
0.0
 11
19.5103
 21
3.56224
 31
0.0
  0
LINE
  8
0
 62
     0
 10
19.5103
 20
3.56224
 30
0.0
 11
19.4896
 21
3.51262
 31
0.0
  0
LINE
  8
0
 62
     0
 10
19.4896
 20
3.51262
 30
0.0
 11
19.4841
 21
3.33899
 31
0.0
  0
LINE
  8
0
 62
     0
 10
19.4841
 20
3.33899
 30
0.0
 11
19.5475
 21
3.23426
 31
0.0
  0
LINE
  8
0
 62
     0
 10
19.5475
 20
3.23426
 30
0.0
 11
19.5544
 21
3.20394
 31
0.0
  0
LINE
  8
0
 62
     0
 10
19.5544
 20
3.20394
 30
0.0
 11
19.5599
 21
3.15157
 31
0.0
  0
LINE
  8
0
 62
     0
 10
19.5599
 20
3.15157
 30
0.0
 11
19.6081
 21
2.99723
 31
0.0
  0
LINE
  8
0
 62
     0
 10
19.6081
 20
2.99723
 30
0.0
 11
19.6715
 21
2.91731
 31
0.0
  0
LINE
  8
0
 62
     0
 10
19.6715
 20
2.91731
 30
0.0
 11
19.6867
 21
2.89526
 31
0.0
  0
LINE
  8
0
 62
     0
 10
24.1915
 20
2.90077
 30
0.0
 11
24.1487
 21
2.83463
 31
0.0
  0
LINE
  8
0
 62
     0
 10
24.1487
 20
2.83463
 30
0.0
 11
23.6788
 21
2.32337
 31
0.0
  0
LINE
  8
0
 62
     0
 10
23.6788
 20
2.32337
 30
0.0
 11
23.6182
 21
2.28341
 31
0.0
  0
LINE
  8
0
 62
     0
 10
23.6182
 20
2.28341
 30
0.0
 11
23.5383
 21
2.2338
 31
0.0
  0
LINE
  8
0
 62
     0
 10
23.5383
 20
2.2338
 30
0.0
 11
23.2172
 21
2.09462
 31
0.0
  0
LINE
  8
0
 62
     0
 10
23.2172
 20
2.09462
 30
0.0
 11
22.9237
 21
2.06017
 31
0.0
  0
LINE
  8
0
 62
     0
 10
22.9237
 20
2.06017
 30
0.0
 11
22.8575
 21
2.06292
 31
0.0
  0
LINE
  8
0
 62
     0
 10
22.8575
 20
2.06292
 30
0.0
 11
22.8341
 21
2.02434
 31
0.0
  0
LINE
  8
0
 62
     0
 10
22.8341
 20
2.02434
 30
0.0
 11
22.7652
 21
1.90445
 31
0.0
  0
LINE
  8
0
 62
     0
 10
22.7652
 20
1.90445
 30
0.0
 11
22.7225
 21
1.83968
 31
0.0
  0
LINE
  8
0
 62
     0
 10
22.7225
 20
1.83968
 30
0.0
 11
22.7087
 21
1.82039
 31
0.0
  0
LINE
  8
0
 62
     0
 10
22.7087
 20
1.82039
 30
0.0
 11
22.6921
 21
1.8011
 31
0.0
  0
LINE
  8
0
 62
     0
 10
22.6921
 20
1.8011
 30
0.0
 11
22.5571
 21
1.63298
 31
0.0
  0
LINE
  8
0
 62
     0
 10
22.5571
 20
1.63298
 30
0.0
 11
22.5433
 21
1.61644
 31
0.0
  0
LINE
  8
0
 62
     0
 10
22.5433
 20
1.61644
 30
0.0
 11
22.4992
 21
1.57648
 31
0.0
  0
LINE
  8
0
 62
     0
 10
22.4992
 20
1.57648
 30
0.0
 11
22.3518
 21
1.45521
 31
0.0
  0
LINE
  8
0
 62
     0
 10
22.3518
 20
1.45521
 30
0.0
 11
22.2278
 21
1.38355
 31
0.0
  0
LINE
  8
0
 62
     0
 10
22.2278
 20
1.38355
 30
0.0
 11
22.1961
 21
1.36839
 31
0.0
  0
LINE
  8
0
 62
     0
 10
22.1961
 20
1.36839
 30
0.0
 11
22.1478
 21
1.33532
 31
0.0
  0
LINE
  8
0
 62
     0
 10
22.1478
 20
1.33532
 30
0.0
 11
21.9797
 21
1.2678
 31
0.0
  0
LINE
  8
0
 62
     0
 10
21.9797
 20
1.2678
 30
0.0
 11
21.8474
 21
1.2678
 31
0.0
  0
LINE
  8
0
 62
     0
 10
21.8474
 20
1.2678
 30
0.0
 11
21.8157
 21
1.26366
 31
0.0
  0
LINE
  8
0
 62
     0
 10
21.8157
 20
1.26366
 30
0.0
 11
21.7689
 21
1.2485
 31
0.0
  0
LINE
  8
0
 62
     0
 10
21.7689
 20
1.2485
 30
0.0
 11
21.6021
 21
1.24161
 31
0.0
  0
LINE
  8
0
 62
     0
 10
21.6021
 20
1.24161
 30
0.0
 11
21.4671
 21
1.2802
 31
0.0
  0
LINE
  8
0
 62
     0
 10
21.4671
 20
1.2802
 30
0.0
 11
21.4354
 21
1.28571
 31
0.0
  0
LINE
  8
0
 62
     0
 10
21.4354
 20
1.28571
 30
0.0
 11
21.3899
 21
1.27882
 31
0.0
  0
LINE
  8
0
 62
     0
 10
21.3899
 20
1.27882
 30
0.0
 11
21.2356
 21
1.32567
 31
0.0
  0
LINE
  8
0
 62
     0
 10
21.2356
 20
1.32567
 30
0.0
 11
21.1184
 21
1.42627
 31
0.0
  0
LINE
  8
0
 62
     0
 10
21.1184
 20
1.42627
 30
0.0
 11
21.0936
 21
1.44556
 31
0.0
  0
LINE
  8
0
 62
     0
 10
21.0936
 20
1.44556
 30
0.0
 11
21.0426
 21
1.4428
 31
0.0
  0
LINE
  8
0
 62
     0
 10
21.0426
 20
1.4428
 30
0.0
 11
20.8745
 21
1.58061
 31
0.0
  0
LINE
  8
0
 62
     0
 10
20.8745
 20
1.58061
 30
0.0
 11
20.767
 21
1.80661
 31
0.0
  0
LINE
  8
0
 62
     0
 10
20.767
 20
1.80661
 30
0.0
 11
20.7464
 21
1.84795
 31
0.0
  0
LINE
  8
0
 62
     0
 10
20.7464
 20
1.84795
 30
0.0
 11
20.7105
 21
1.88654
 31
0.0
  0
LINE
  8
0
 62
     0
 10
20.7105
 20
1.88654
 30
0.0
 11
20.5824
 21
2.32613
 31
0.0
  0
LINE
  8
0
 62
     0
 10
20.5824
 20
2.32613
 30
0.0
 11
20.5755
 21
2.37161
 31
0.0
  0
LINE
  8
0
 62
     0
 10
20.5755
 20
2.37161
 30
0.0
 11
20.5672
 21
2.40192
 31
0.0
  0
LINE
  8
0
 62
     0
 10
20.5672
 20
2.40192
 30
0.0
 11
20.5631
 21
2.88699
 31
0.0
  0
LINE
  8
0
 62
     0
 10
20.5631
 20
2.88699
 30
0.0
 11
20.57
 21
2.93384
 31
0.0
  0
LINE
  8
0
 62
     0
 10
20.57
 20
2.93384
 30
0.0
 11
20.5755
 21
2.97518
 31
0.0
  0
LINE
  8
0
 62
     0
 10
20.5755
 20
2.97518
 30
0.0
 11
20.7091
 21
3.40789
 31
0.0
  0
LINE
  8
0
 62
     0
 10
20.7091
 20
3.40789
 30
0.0
 11
20.7298
 21
3.44647
 31
0.0
  0
LINE
  8
0
 62
     0
 10
20.7298
 20
3.44647
 30
0.0
 11
20.6899
 21
3.48644
 31
0.0
  0
LINE
  8
0
 62
     0
 10
20.6899
 20
3.48644
 30
0.0
 11
20.6155
 21
3.76619
 31
0.0
  0
LINE
  8
0
 62
     0
 10
20.6155
 20
3.76619
 30
0.0
 11
20.6568
 21
4.07487
 31
0.0
  0
LINE
  8
0
 62
     0
 10
20.6568
 20
4.07487
 30
0.0
 11
20.6747
 21
4.12997
 31
0.0
  0
LINE
  8
0
 62
     0
 10
20.6747
 20
4.12997
 30
0.0
 11
20.683
 21
4.16994
 31
0.0
  0
LINE
  8
0
 62
     0
 10
20.683
 20
4.16994
 30
0.0
 11
20.9903
 21
4.64538
 31
0.0
  0
LINE
  8
0
 62
     0
 10
20.9903
 20
4.64538
 30
0.0
 11
21.033
 21
4.68118
 31
0.0
  0
LINE
  8
0
 62
     0
 10
21.033
 20
4.68118
 30
0.0
 11
21.0661
 21
4.7129
 31
0.0
  0
LINE
  8
0
 62
     0
 10
21.0661
 20
4.7129
 30
0.0
 11
21.576
 21
4.92926
 31
0.0
  0
LINE
  8
0
 62
     0
 10
21.576
 20
4.92926
 30
0.0
 11
21.6338
 21
4.93476
 31
0.0
  0
LINE
  8
0
 62
     0
 10
21.6338
 20
4.93476
 30
0.0
 11
21.6903
 21
4.91684
 31
0.0
  0
LINE
  8
0
 62
     0
 10
21.6903
 20
4.91684
 30
0.0
 11
22.247
 21
4.79559
 31
0.0
  0
LINE
  8
0
 62
     0
 10
22.247
 20
4.79559
 30
0.0
 11
22.3008
 21
4.75837
 31
0.0
  0
LINE
  8
0
 62
     0
 10
22.3008
 20
4.75837
 30
0.0
 11
22.3228
 21
4.7129
 31
0.0
  0
LINE
  8
0
 62
     0
 10
22.3228
 20
4.7129
 30
0.0
 11
22.5282
 21
4.5048
 31
0.0
  0
LINE
  8
0
 62
     0
 10
22.5282
 20
4.5048
 30
0.0
 11
22.75
 21
4.28706
 31
0.0
  0
LINE
  8
0
 62
     0
 10
22.75
 20
4.28706
 30
0.0
 11
22.7803
 21
4.23471
 31
0.0
  0
LINE
  8
0
 62
     0
 10
22.7803
 20
4.23471
 30
0.0
 11
22.8024
 21
4.15893
 31
0.0
  0
LINE
  8
0
 62
     0
 10
22.8024
 20
4.15893
 30
0.0
 11
22.9223
 21
3.88193
 31
0.0
  0
LINE
  8
0
 62
     0
 10
22.9223
 20
3.88193
 30
0.0
 11
23.0215
 21
3.64215
 31
0.0
  0
LINE
  8
0
 62
     0
 10
23.0215
 20
3.64215
 30
0.0
 11
23.0339
 21
3.58429
 31
0.0
  0
LINE
  8
0
 62
     0
 10
23.0339
 20
3.58429
 30
0.0
 11
23.016
 21
3.5264
 31
0.0
  0
LINE
  8
0
 62
     0
 10
23.016
 20
3.5264
 30
0.0
 11
23.078
 21
2.92971
 31
0.0
  0
LINE
  8
0
 62
     0
 10
23.078
 20
2.92971
 30
0.0
 11
23.0725
 21
2.8677
 31
0.0
  0
LINE
  8
0
 62
     0
 10
23.0725
 20
2.8677
 30
0.0
 11
23.0642
 21
2.80706
 31
0.0
  0
LINE
  8
0
 62
     0
 10
23.0642
 20
2.80706
 30
0.0
 11
22.9347
 21
2.2338
 31
0.0
  0
LINE
  8
0
 62
     0
 10
22.9347
 20
2.2338
 30
0.0
 11
22.9126
 21
2.17868
 31
0.0
  0
LINE
  8
0
 62
     0
 10
22.9126
 20
2.17868
 30
0.0
 11
22.9223
 21
2.17592
 31
0.0
  0
LINE
  8
0
 62
     0
 10
22.9223
 20
2.17592
 30
0.0
 11
23.2213
 21
2.21451
 31
0.0
  0
LINE
  8
0
 62
     0
 10
23.2213
 20
2.21451
 30
0.0
 11
23.2489
 21
2.22278
 31
0.0
  0
LINE
  8
0
 62
     0
 10
23.2489
 20
2.22278
 30
0.0
 11
23.2599
 21
2.22829
 31
0.0
  0
LINE
  8
0
 62
     0
 10
23.2599
 20
2.22829
 30
0.0
 11
23.5383
 21
2.36609
 31
0.0
  0
LINE
  8
0
 62
     0
 10
23.5383
 20
2.36609
 30
0.0
 11
23.5631
 21
2.38263
 31
0.0
  0
LINE
  8
0
 62
     0
 10
23.5631
 20
2.38263
 30
0.0
 11
23.5727
 21
2.38125
 31
0.0
  0
LINE
  8
0
 62
     0
 10
23.5727
 20
2.38125
 30
0.0
 11
23.683
 21
2.46255
 31
0.0
  0
LINE
  8
0
 62
     0
 10
23.683
 20
2.46255
 30
0.0
 11
23.8125
 21
2.59209
 31
0.0
  0
LINE
  8
0
 62
     0
 10
23.8125
 20
2.59209
 30
0.0
 11
23.8332
 21
2.61414
 31
0.0
  0
LINE
  8
0
 62
     0
 10
23.8332
 20
2.61414
 30
0.0
 11
23.847
 21
2.6293
 31
0.0
  0
LINE
  8
0
 62
     0
 10
23.847
 20
2.6293
 30
0.0
 11
24.0468
 21
2.87596
 31
0.0
  0
LINE
  8
0
 62
     0
 10
24.0468
 20
2.87596
 30
0.0
 11
24.0647
 21
2.90077
 31
0.0
  0
LINE
  8
0
 62
     0
 10
24.0647
 20
2.90077
 30
0.0
 11
24.0605
 21
2.90215
 31
0.0
  0
LINE
  8
0
 62
     0
 10
24.0605
 20
2.90215
 30
0.0
 11
24.0578
 21
2.93247
 31
0.0
  0
LINE
  8
0
 62
     0
 10
24.0578
 20
2.93247
 30
0.0
 11
24.1377
 21
2.94624
 31
0.0
  0
LINE
  8
0
 62
     0
 10
24.1377
 20
2.94624
 30
0.0
 11
24.1474
 21
2.94487
 31
0.0
  0
LINE
  8
0
 62
     0
 10
24.1474
 20
2.94487
 30
0.0
 11
24.1529
 21
2.93798
 31
0.0
  0
LINE
  8
0
 62
     0
 10
24.1529
 20
2.93798
 30
0.0
 11
24.1928
 21
2.90491
 31
0.0
  0
LINE
  8
0
 62
     0
 10
24.1928
 20
2.90491
 30
0.0
 11
24.1915
 21
2.90077
 31
0.0
  0
LINE
  8
0
 62
     0
 10
20.8842
 20
3.66695
 30
0.0
 11
20.8842
 21
3.66695
 31
0.0
  0
LINE
  8
0
 62
     0
 10
20.8842
 20
3.66695
 30
0.0
 11
20.8938
 21
3.6697
 31
0.0
  0
LINE
  8
0
 62
     0
 10
20.8938
 20
3.6697
 30
0.0
 11
20.9751
 21
3.64765
 31
0.0
  0
LINE
  8
0
 62
     0
 10
20.9751
 20
3.64765
 30
0.0
 11
20.9834
 21
3.63389
 31
0.0
  0
LINE
  8
0
 62
     0
 10
20.9834
 20
3.63389
 30
0.0
 11
20.9875
 21
3.61735
 31
0.0
  0
LINE
  8
0
 62
     0
 10
20.9875
 20
3.61735
 30
0.0
 11
21.0702
 21
3.46577
 31
0.0
  0
LINE
  8
0
 62
     0
 10
21.0702
 20
3.46577
 30
0.0
 11
21.0771
 21
3.44647
 31
0.0
  0
LINE
  8
0
 62
     0
 10
21.0771
 20
3.44647
 30
0.0
 11
21.0716
 21
3.41202
 31
0.0
  0
LINE
  8
0
 62
     0
 10
21.0716
 20
3.41202
 30
0.0
 11
21.095
 21
3.30178
 31
0.0
  0
LINE
  8
0
 62
     0
 10
21.095
 20
3.30178
 30
0.0
 11
21.1391
 21
3.23012
 31
0.0
  0
LINE
  8
0
 62
     0
 10
21.1391
 20
3.23012
 30
0.0
 11
21.1432
 21
3.20945
 31
0.0
  0
LINE
  8
0
 62
     0
 10
21.1432
 20
3.20945
 30
0.0
 11
21.1336
 21
3.17776
 31
0.0
  0
LINE
  8
0
 62
     0
 10
21.1336
 20
3.17776
 30
0.0
 11
21.1322
 21
3.07027
 31
0.0
  0
LINE
  8
0
 62
     0
 10
21.1322
 20
3.07027
 30
0.0
 11
21.1598
 21
3.05787
 31
0.0
  0
LINE
  8
0
 62
     0
 10
21.1598
 20
3.05787
 30
0.0
 11
21.1598
 21
3.05511
 31
0.0
  0
LINE
  8
0
 62
     0
 10
21.1598
 20
3.05511
 30
0.0
 11
21.1901
 21
2.98483
 31
0.0
  0
LINE
  8
0
 62
     0
 10
21.1901
 20
2.98483
 30
0.0
 11
21.4657
 21
2.72162
 31
0.0
  0
LINE
  8
0
 62
     0
 10
21.4657
 20
2.72162
 30
0.0
 11
21.8254
 21
2.51768
 31
0.0
  0
LINE
  8
0
 62
     0
 10
21.8254
 20
2.51768
 30
0.0
 11
21.8984
 21
2.47633
 31
0.0
  0
LINE
  8
0
 62
     0
 10
21.8984
 20
2.47633
 30
0.0
 11
21.948
 21
2.41019
 31
0.0
  0
LINE
  8
0
 62
     0
 10
21.948
 20
2.41019
 30
0.0
 11
22.3049
 21
2.24482
 31
0.0
  0
LINE
  8
0
 62
     0
 10
22.3049
 20
2.24482
 30
0.0
 11
22.7142
 21
2.19797
 31
0.0
  0
LINE
  8
0
 62
     0
 10
22.7142
 20
2.19797
 30
0.0
 11
22.7914
 21
2.1897
 31
0.0
  0
LINE
  8
0
 62
     0
 10
22.7914
 20
2.1897
 30
0.0
 11
22.8038
 21
2.24069
 31
0.0
  0
LINE
  8
0
 62
     0
 10
22.8038
 20
2.24069
 30
0.0
 11
22.9554
 21
2.79328
 31
0.0
  0
LINE
  8
0
 62
     0
 10
22.9554
 20
2.79328
 30
0.0
 11
22.9622
 21
2.85116
 31
0.0
  0
LINE
  8
0
 62
     0
 10
22.9622
 20
2.85116
 30
0.0
 11
22.9457
 21
2.88148
 31
0.0
  0
LINE
  8
0
 62
     0
 10
22.9457
 20
2.88148
 30
0.0
 11
22.9374
 21
3.15295
 31
0.0
  0
LINE
  8
0
 62
     0
 10
22.9374
 20
3.15295
 30
0.0
 11
22.9402
 21
3.47404
 31
0.0
  0
LINE
  8
0
 62
     0
 10
22.9402
 20
3.47404
 30
0.0
 11
22.9292
 21
3.52915
 31
0.0
  0
LINE
  8
0
 62
     0
 10
22.9292
 20
3.52915
 30
0.0
 11
22.8961
 21
3.55946
 31
0.0
  0
LINE
  8
0
 62
     0
 10
22.8961
 20
3.55946
 30
0.0
 11
22.801
 21
3.81579
 31
0.0
  0
LINE
  8
0
 62
     0
 10
22.801
 20
3.81579
 30
0.0
 11
22.7142
 21
4.1093
 31
0.0
  0
LINE
  8
0
 62
     0
 10
22.7142
 20
4.1093
 30
0.0
 11
22.6866
 21
4.15756
 31
0.0
  0
LINE
  8
0
 62
     0
 10
22.6866
 20
4.15756
 30
0.0
 11
22.6577
 21
4.18786
 31
0.0
  0
LINE
  8
0
 62
     0
 10
22.6577
 20
4.18786
 30
0.0
 11
22.276
 21
4.63021
 31
0.0
  0
LINE
  8
0
 62
     0
 10
22.276
 20
4.63021
 30
0.0
 11
22.2291
 21
4.66467
 31
0.0
  0
LINE
  8
0
 62
     0
 10
22.2291
 20
4.66467
 30
0.0
 11
22.1616
 21
4.69498
 31
0.0
  0
LINE
  8
0
 62
     0
 10
22.1616
 20
4.69498
 30
0.0
 11
21.9191
 21
4.80247
 31
0.0
  0
LINE
  8
0
 62
     0
 10
21.9191
 20
4.80247
 30
0.0
 11
21.7138
 21
4.84106
 31
0.0
  0
LINE
  8
0
 62
     0
 10
21.7138
 20
4.84106
 30
0.0
 11
21.6669
 21
4.83552
 31
0.0
  0
LINE
  8
0
 62
     0
 10
21.6669
 20
4.83552
 30
0.0
 11
21.6159
 21
4.81485
 31
0.0
  0
LINE
  8
0
 62
     0
 10
21.6159
 20
4.81485
 30
0.0
 11
21.1956
 21
4.66189
 31
0.0
  0
LINE
  8
0
 62
     0
 10
21.1956
 20
4.66189
 30
0.0
 11
21.1598
 21
4.63158
 31
0.0
  0
LINE
  8
0
 62
     0
 10
21.1598
 20
4.63158
 30
0.0
 11
21.1033
 21
4.60266
 31
0.0
  0
LINE
  8
0
 62
     0
 10
21.1033
 20
4.60266
 30
0.0
 11
20.847
 21
4.21679
 31
0.0
  0
LINE
  8
0
 62
     0
 10
20.847
 20
4.21679
 30
0.0
 11
20.8291
 21
4.16856
 31
0.0
  0
LINE
  8
0
 62
     0
 10
20.8291
 20
4.16856
 30
0.0
 11
20.7891
 21
4.10104
 31
0.0
  0
LINE
  8
0
 62
     0
 10
20.7891
 20
4.10104
 30
0.0
 11
20.7353
 21
3.84334
 31
0.0
  0
LINE
  8
0
 62
     0
 10
20.7353
 20
3.84334
 30
0.0
 11
20.7836
 21
3.61597
 31
0.0
  0
LINE
  8
0
 62
     0
 10
20.7836
 20
3.61597
 30
0.0
 11
20.796
 21
3.56224
 31
0.0
  0
LINE
  8
0
 62
     0
 10
20.796
 20
3.56224
 30
0.0
 11
20.8842
 21
3.66695
 31
0.0
  0
LINE
  8
0
 62
     0
 10
21.1322
 20
2.9118
 30
0.0
 11
21.1129
 21
2.88423
 31
0.0
  0
LINE
  8
0
 62
     0
 10
21.1129
 20
2.88423
 30
0.0
 11
21.1294
 21
2.62654
 31
0.0
  0
LINE
  8
0
 62
     0
 10
21.1294
 20
2.62654
 30
0.0
 11
21.1322
 21
2.5976
 31
0.0
  0
LINE
  8
0
 62
     0
 10
21.1322
 20
2.5976
 30
0.0
 11
21.1171
 21
2.56315
 31
0.0
  0
LINE
  8
0
 62
     0
 10
21.1171
 20
2.56315
 30
0.0
 11
21.1846
 21
2.28479
 31
0.0
  0
LINE
  8
0
 62
     0
 10
21.1846
 20
2.28479
 30
0.0
 11
21.1928
 21
2.25585
 31
0.0
  0
LINE
  8
0
 62
     0
 10
21.1928
 20
2.25585
 30
0.0
 11
21.1777
 21
2.22002
 31
0.0
  0
LINE
  8
0
 62
     0
 10
21.1777
 20
2.22002
 30
0.0
 11
21.2094
 21
2.0767
 31
0.0
  0
LINE
  8
0
 62
     0
 10
21.2094
 20
2.0767
 30
0.0
 11
21.2962
 21
1.95268
 31
0.0
  0
LINE
  8
0
 62
     0
 10
21.2962
 20
1.95268
 30
0.0
 11
21.3086
 21
1.92512
 31
0.0
  0
LINE
  8
0
 62
     0
 10
21.3086
 20
1.92512
 30
0.0
 11
21.3169
 21
1.89067
 31
0.0
  0
LINE
  8
0
 62
     0
 10
21.3169
 20
1.89067
 30
0.0
 11
21.4671
 21
1.67432
 31
0.0
  0
LINE
  8
0
 62
     0
 10
21.4671
 20
1.67432
 30
0.0
 11
21.485
 21
1.65503
 31
0.0
  0
LINE
  8
0
 62
     0
 10
21.485
 20
1.65503
 30
0.0
 11
21.4864
 21
1.62333
 31
0.0
  0
LINE
  8
0
 62
     0
 10
21.4864
 20
1.62333
 30
0.0
 11
21.5773
 21
1.52824
 31
0.0
  0
LINE
  8
0
 62
     0
 10
21.5773
 20
1.52824
 30
0.0
 11
21.711
 21
1.49793
 31
0.0
  0
LINE
  8
0
 62
     0
 10
21.711
 20
1.49793
 30
0.0
 11
21.7331
 21
1.48966
 31
0.0
  0
LINE
  8
0
 62
     0
 10
21.7331
 20
1.48966
 30
0.0
 11
21.7454
 21
1.48001
 31
0.0
  0
LINE
  8
0
 62
     0
 10
21.7454
 20
1.48001
 30
0.0
 11
21.9756
 21
1.45934
 31
0.0
  0
LINE
  8
0
 62
     0
 10
21.9756
 20
1.45934
 30
0.0
 11
21.9976
 21
1.4621
 31
0.0
  0
LINE
  8
0
 62
     0
 10
21.9976
 20
1.4621
 30
0.0
 11
22.0183
 21
1.46623
 31
0.0
  0
LINE
  8
0
 62
     0
 10
22.0183
 20
1.46623
 30
0.0
 11
22.2305
 21
1.53927
 31
0.0
  0
LINE
  8
0
 62
     0
 10
22.2305
 20
1.53927
 30
0.0
 11
22.2512
 21
1.55029
 31
0.0
  0
LINE
  8
0
 62
     0
 10
22.2512
 20
1.55029
 30
0.0
 11
22.2498
 21
1.55443
 31
0.0
  0
LINE
  8
0
 62
     0
 10
22.2498
 20
1.55443
 30
0.0
 11
22.338
 21
1.61506
 31
0.0
  0
LINE
  8
0
 62
     0
 10
22.338
 20
1.61506
 30
0.0
 11
22.4648
 21
1.70463
 31
0.0
  0
LINE
  8
0
 62
     0
 10
22.4648
 20
1.70463
 30
0.0
 11
22.4827
 21
1.72117
 31
0.0
  0
LINE
  8
0
 62
     0
 10
22.4827
 20
1.72117
 30
0.0
 11
22.4827
 21
1.72117
 31
0.0
  0
LINE
  8
0
 62
     0
 10
22.4827
 20
1.72117
 30
0.0
 11
22.5378
 21
1.76802
 31
0.0
  0
LINE
  8
0
 62
     0
 10
22.5378
 20
1.76802
 30
0.0
 11
22.615
 21
1.87275
 31
0.0
  0
LINE
  8
0
 62
     0
 10
22.615
 20
1.87275
 30
0.0
 11
22.626
 21
1.88654
 31
0.0
  0
LINE
  8
0
 62
     0
 10
22.626
 20
1.88654
 30
0.0
 11
22.6205
 21
1.89067
 31
0.0
  0
LINE
  8
0
 62
     0
 10
22.6205
 20
1.89067
 30
0.0
 11
22.6508
 21
1.9706
 31
0.0
  0
LINE
  8
0
 62
     0
 10
22.6508
 20
1.9706
 30
0.0
 11
22.7335
 21
2.05879
 31
0.0
  0
LINE
  8
0
 62
     0
 10
22.7335
 20
2.05879
 30
0.0
 11
22.7417
 21
2.07395
 31
0.0
  0
LINE
  8
0
 62
     0
 10
22.7417
 20
2.07395
 30
0.0
 11
22.6618
 21
2.06155
 31
0.0
  0
LINE
  8
0
 62
     0
 10
22.6618
 20
2.06155
 30
0.0
 11
22.2925
 21
2.14009
 31
0.0
  0
LINE
  8
0
 62
     0
 10
22.2925
 20
2.14009
 30
0.0
 11
21.9411
 21
2.32199
 31
0.0
  0
LINE
  8
0
 62
     0
 10
21.9411
 20
2.32199
 30
0.0
 11
21.8708
 21
2.36058
 31
0.0
  0
LINE
  8
0
 62
     0
 10
21.8708
 20
2.36058
 30
0.0
 11
21.7799
 21
2.38401
 31
0.0
  0
LINE
  8
0
 62
     0
 10
21.7799
 20
2.38401
 30
0.0
 11
21.4437
 21
2.59209
 31
0.0
  0
LINE
  8
0
 62
     0
 10
21.4437
 20
2.59209
 30
0.0
 11
21.1846
 21
2.85943
 31
0.0
  0
LINE
  8
0
 62
     0
 10
21.1846
 20
2.85943
 30
0.0
 11
21.1322
 21
2.9118
 31
0.0
  0
LINE
  8
0
 62
     0
 10
24.875
 20
1.62746
 30
0.0
 11
24.8612
 21
1.65916
 31
0.0
  0
LINE
  8
0
 62
     0
 10
24.8612
 20
1.65916
 30
0.0
 11
24.8833
 21
2.17868
 31
0.0
  0
LINE
  8
0
 62
     0
 10
24.8833
 20
2.17868
 30
0.0
 11
24.8915
 21
2.2338
 31
0.0
  0
LINE
  8
0
 62
     0
 10
24.8915
 20
2.2338
 30
0.0
 11
24.8888
 21
2.28479
 31
0.0
  0
LINE
  8
0
 62
     0
 10
24.8888
 20
2.28479
 30
0.0
 11
25.01
 21
2.83187
 31
0.0
  0
LINE
  8
0
 62
     0
 10
25.01
 20
2.83187
 30
0.0
 11
25.0238
 21
2.88423
 31
0.0
  0
LINE
  8
0
 62
     0
 10
25.0238
 20
2.88423
 30
0.0
 11
25.0169
 21
2.93522
 31
0.0
  0
LINE
  8
0
 62
     0
 10
25.0169
 20
2.93522
 30
0.0
 11
25.1891
 21
3.41891
 31
0.0
  0
LINE
  8
0
 62
     0
 10
25.1891
 20
3.41891
 30
0.0
 11
25.2057
 21
3.46301
 31
0.0
  0
LINE
  8
0
 62
     0
 10
25.2057
 20
3.46301
 30
0.0
 11
25.2154
 21
3.48782
 31
0.0
  0
LINE
  8
0
 62
     0
 10
25.2154
 20
3.48782
 30
0.0
 11
25.3504
 21
3.853
 31
0.0
  0
LINE
  8
0
 62
     0
 10
25.3504
 20
3.853
 30
0.0
 11
25.36
 21
3.87643
 31
0.0
  0
LINE
  8
0
 62
     0
 10
25.36
 20
3.87643
 30
0.0
 11
25.36
 21
3.87643
 31
0.0
  0
LINE
  8
0
 62
     0
 10
25.36
 20
3.87643
 30
0.0
 11
25.3848
 21
3.97701
 31
0.0
  0
LINE
  8
0
 62
     0
 10
25.3848
 20
3.97701
 30
0.0
 11
25.4441
 21
4.11759
 31
0.0
  0
LINE
  8
0
 62
     0
 10
25.4441
 20
4.11759
 30
0.0
 11
25.4482
 21
4.13551
 31
0.0
  0
LINE
  8
0
 62
     0
 10
25.4482
 20
4.13551
 30
0.0
 11
25.44
 21
4.13551
 31
0.0
  0
LINE
  8
0
 62
     0
 10
25.44
 20
4.13551
 30
0.0
 11
25.4193
 21
4.21954
 31
0.0
  0
LINE
  8
0
 62
     0
 10
25.4193
 20
4.21954
 30
0.0
 11
25.4482
 21
4.33807
 31
0.0
  0
LINE
  8
0
 62
     0
 10
25.4482
 20
4.33807
 30
0.0
 11
25.4427
 21
4.35599
 31
0.0
  0
LINE
  8
0
 62
     0
 10
25.4427
 20
4.35599
 30
0.0
 11
25.4138
 21
4.367
 31
0.0
  0
LINE
  8
0
 62
     0
 10
25.4138
 20
4.367
 30
0.0
 11
25.3504
 21
4.45795
 31
0.0
  0
LINE
  8
0
 62
     0
 10
25.3504
 20
4.45795
 30
0.0
 11
25.3214
 21
4.56269
 31
0.0
  0
LINE
  8
0
 62
     0
 10
25.3214
 20
4.56269
 30
0.0
 11
25.3049
 21
4.58198
 31
0.0
  0
LINE
  8
0
 62
     0
 10
25.3049
 20
4.58198
 30
0.0
 11
25.2718
 21
4.57786
 31
0.0
  0
LINE
  8
0
 62
     0
 10
25.2718
 20
4.57786
 30
0.0
 11
25.1575
 21
4.67568
 31
0.0
  0
LINE
  8
0
 62
     0
 10
25.1575
 20
4.67568
 30
0.0
 11
25.0486
 21
4.8369
 31
0.0
  0
LINE
  8
0
 62
     0
 10
25.0486
 20
4.8369
 30
0.0
 11
25.0183
 21
4.86311
 31
0.0
  0
LINE
  8
0
 62
     0
 10
25.0183
 20
4.86311
 30
0.0
 11
24.9866
 21
4.80522
 31
0.0
  0
LINE
  8
0
 62
     0
 10
24.9866
 20
4.80522
 30
0.0
 11
24.9163
 21
4.59715
 31
0.0
  0
LINE
  8
0
 62
     0
 10
24.9163
 20
4.59715
 30
0.0
 11
24.8833
 21
4.42902
 31
0.0
  0
LINE
  8
0
 62
     0
 10
24.8833
 20
4.42902
 30
0.0
 11
24.8695
 21
4.38905
 31
0.0
  0
LINE
  8
0
 62
     0
 10
24.8695
 20
4.38905
 30
0.0
 11
24.8474
 21
4.3422
 31
0.0
  0
LINE
  8
0
 62
     0
 10
24.8474
 20
4.3422
 30
0.0
 11
24.6986
 21
3.96049
 31
0.0
  0
LINE
  8
0
 62
     0
 10
24.6986
 20
3.96049
 30
0.0
 11
24.682
 21
3.92053
 31
0.0
  0
LINE
  8
0
 62
     0
 10
24.682
 20
3.92053
 30
0.0
 11
24.6421
 21
3.85025
 31
0.0
  0
LINE
  8
0
 62
     0
 10
24.6421
 20
3.85025
 30
0.0
 11
24.5346
 21
3.62285
 31
0.0
  0
LINE
  8
0
 62
     0
 10
24.5346
 20
3.62285
 30
0.0
 11
24.4615
 21
3.44372
 31
0.0
  0
LINE
  8
0
 62
     0
 10
24.4615
 20
3.44372
 30
0.0
 11
24.4395
 21
3.39687
 31
0.0
  0
LINE
  8
0
 62
     0
 10
24.4395
 20
3.39687
 30
0.0
 11
24.4147
 21
3.33623
 31
0.0
  0
LINE
  8
0
 62
     0
 10
24.4147
 20
3.33623
 30
0.0
 11
24.1915
 21
2.90628
 31
0.0
  0
LINE
  8
0
 62
     0
 10
24.1915
 20
2.90628
 30
0.0
 11
24.1694
 21
2.86219
 31
0.0
  0
LINE
  8
0
 62
     0
 10
24.1694
 20
2.86219
 30
0.0
 11
24.1419
 21
2.80706
 31
0.0
  0
LINE
  8
0
 62
     0
 10
24.1419
 20
2.80706
 30
0.0
 11
24.1363
 21
2.7919
 31
0.0
  0
LINE
  8
0
 62
     0
 10
24.1363
 20
2.7919
 30
0.0
 11
24.1019
 21
2.74781
 31
0.0
  0
LINE
  8
0
 62
     0
 10
24.1019
 20
2.74781
 30
0.0
 11
24.0785
 21
2.78777
 31
0.0
  0
LINE
  8
0
 62
     0
 10
24.0785
 20
2.78777
 30
0.0
 11
24.0702
 21
2.79053
 31
0.0
  0
LINE
  8
0
 62
     0
 10
24.0702
 20
2.79053
 30
0.0
 11
24.0702
 21
2.79053
 31
0.0
  0
LINE
  8
0
 62
     0
 10
24.0702
 20
2.79053
 30
0.0
 11
24.044
 21
2.8553
 31
0.0
  0
LINE
  8
0
 62
     0
 10
24.044
 20
2.8553
 30
0.0
 11
24.0482
 21
2.86219
 31
0.0
  0
LINE
  8
0
 62
     0
 10
24.0482
 20
2.86219
 30
0.0
 11
24.0426
 21
2.8801
 31
0.0
  0
LINE
  8
0
 62
     0
 10
24.0426
 20
2.8801
 30
0.0
 11
24.1432
 21
3.10058
 31
0.0
  0
LINE
  8
0
 62
     0
 10
24.1432
 20
3.10058
 30
0.0
 11
24.3003
 21
3.37757
 31
0.0
  0
LINE
  8
0
 62
     0
 10
24.3003
 20
3.37757
 30
0.0
 11
24.3237
 21
3.42442
 31
0.0
  0
LINE
  8
0
 62
     0
 10
24.3237
 20
3.42442
 30
0.0
 11
24.3251
 21
3.45474
 31
0.0
  0
LINE
  8
0
 62
     0
 10
24.3251
 20
3.45474
 30
0.0
 11
24.4257
 21
3.67799
 31
0.0
  0
LINE
  8
0
 62
     0
 10
24.4257
 20
3.67799
 30
0.0
 11
24.558
 21
3.93569
 31
0.0
  0
LINE
  8
0
 62
     0
 10
24.558
 20
3.93569
 30
0.0
 11
24.5773
 21
3.98117
 31
0.0
  0
LINE
  8
0
 62
     0
 10
24.5773
 20
3.98117
 30
0.0
 11
24.5815
 21
4.01697
 31
0.0
  0
LINE
  8
0
 62
     0
 10
24.5815
 20
4.01697
 30
0.0
 11
24.7551
 21
4.42489
 31
0.0
  0
LINE
  8
0
 62
     0
 10
24.7551
 20
4.42489
 30
0.0
 11
24.7702
 21
4.46624
 31
0.0
  0
LINE
  8
0
 62
     0
 10
24.7702
 20
4.46624
 30
0.0
 11
24.7854
 21
4.49379
 31
0.0
  0
LINE
  8
0
 62
     0
 10
24.7854
 20
4.49379
 30
0.0
 11
24.9136
 21
4.91271
 31
0.0
  0
LINE
  8
0
 62
     0
 10
24.9136
 20
4.91271
 30
0.0
 11
24.9246
 21
4.95131
 31
0.0
  0
LINE
  8
0
 62
     0
 10
24.9246
 20
4.95131
 30
0.0
 11
24.8874
 21
4.95131
 31
0.0
  0
LINE
  8
0
 62
     0
 10
24.8874
 20
4.95131
 30
0.0
 11
24.7702
 21
5.07944
 31
0.0
  0
LINE
  8
0
 62
     0
 10
24.7702
 20
5.07944
 30
0.0
 11
24.6931
 21
5.28066
 31
0.0
  0
LINE
  8
0
 62
     0
 10
24.6931
 20
5.28066
 30
0.0
 11
24.6765
 21
5.31509
 31
0.0
  0
LINE
  8
0
 62
     0
 10
24.6765
 20
5.31509
 30
0.0
 11
24.6448
 21
5.32197
 31
0.0
  0
LINE
  8
0
 62
     0
 10
24.6448
 20
5.32197
 30
0.0
 11
24.5828
 21
5.48735
 31
0.0
  0
LINE
  8
0
 62
     0
 10
24.5828
 20
5.48735
 30
0.0
 11
24.631
 21
5.70509
 31
0.0
  0
LINE
  8
0
 62
     0
 10
24.631
 20
5.70509
 30
0.0
 11
24.6435
 21
5.73952
 31
0.0
  0
LINE
  8
0
 62
     0
 10
24.6435
 20
5.73952
 30
0.0
 11
24.6324
 21
5.76019
 31
0.0
  0
LINE
  8
0
 62
     0
 10
24.6324
 20
5.76019
 30
0.0
 11
24.7978
 21
5.92695
 31
0.0
  0
LINE
  8
0
 62
     0
 10
24.7978
 20
5.92695
 30
0.0
 11
24.8199
 21
5.93245
 31
0.0
  0
LINE
  8
0
 62
     0
 10
24.8199
 20
5.93245
 30
0.0
 11
24.8378
 21
5.91866
 31
0.0
  0
LINE
  8
0
 62
     0
 10
24.8378
 20
5.91866
 30
0.0
 11
25.039
 21
5.8608
 31
0.0
  0
LINE
  8
0
 62
     0
 10
25.039
 20
5.8608
 30
0.0
 11
25.0569
 21
5.83875
 31
0.0
  0
LINE
  8
0
 62
     0
 10
25.0569
 20
5.83875
 30
0.0
 11
25.0458
 21
5.81808
 31
0.0
  0
LINE
  8
0
 62
     0
 10
25.0458
 20
5.81808
 30
0.0
 11
25.0706
 21
5.72576
 31
0.0
  0
LINE
  8
0
 62
     0
 10
25.0706
 20
5.72576
 30
0.0
 11
25.1272
 21
5.63757
 31
0.0
  0
LINE
  8
0
 62
     0
 10
25.1272
 20
5.63757
 30
0.0
 11
25.1285
 21
5.61277
 31
0.0
  0
LINE
  8
0
 62
     0
 10
25.1285
 20
5.61277
 30
0.0
 11
25.1299
 21
5.56588
 31
0.0
  0
LINE
  8
0
 62
     0
 10
25.1299
 20
5.56588
 30
0.0
 11
25.1161
 21
5.30821
 31
0.0
  0
LINE
  8
0
 62
     0
 10
25.1161
 20
5.30821
 30
0.0
 11
25.112
 21
5.2765
 31
0.0
  0
LINE
  8
0
 62
     0
 10
25.112
 20
5.2765
 30
0.0
 11
25.1079
 21
5.23794
 31
0.0
  0
LINE
  8
0
 62
     0
 10
25.1079
 20
5.23794
 30
0.0
 11
25.2181
 21
5.1084
 31
0.0
  0
LINE
  8
0
 62
     0
 10
25.2181
 20
5.1084
 30
0.0
 11
25.3972
 21
5.04225
 31
0.0
  0
LINE
  8
0
 62
     0
 10
25.3972
 20
5.04225
 30
0.0
 11
25.4262
 21
5.02296
 31
0.0
  0
LINE
  8
0
 62
     0
 10
25.4262
 20
5.02296
 30
0.0
 11
25.4289
 21
5.00228
 31
0.0
  0
LINE
  8
0
 62
     0
 10
25.4289
 20
5.00228
 30
0.0
 11
25.7114
 21
4.80247
 31
0.0
  0
LINE
  8
0
 62
     0
 10
25.7114
 20
4.80247
 30
0.0
 11
25.7349
 21
4.78042
 31
0.0
  0
LINE
  8
0
 62
     0
 10
25.7349
 20
4.78042
 30
0.0
 11
25.7362
 21
4.74595
 31
0.0
  0
LINE
  8
0
 62
     0
 10
25.7362
 20
4.74595
 30
0.0
 11
25.8231
 21
4.62058
 31
0.0
  0
LINE
  8
0
 62
     0
 10
25.8231
 20
4.62058
 30
0.0
 11
25.9319
 21
4.50617
 31
0.0
  0
LINE
  8
0
 62
     0
 10
25.9319
 20
4.50617
 30
0.0
 11
25.9443
 21
4.47724
 31
0.0
  0
LINE
  8
0
 62
     0
 10
25.9443
 20
4.47724
 30
0.0
 11
25.9457
 21
4.43315
 31
0.0
  0
LINE
  8
0
 62
     0
 10
25.9457
 20
4.43315
 30
0.0
 11
25.9691
 21
4.11484
 31
0.0
  0
LINE
  8
0
 62
     0
 10
25.9691
 20
4.11484
 30
0.0
 11
25.9608
 21
4.07487
 31
0.0
  0
LINE
  8
0
 62
     0
 10
25.9608
 20
4.07487
 30
0.0
 11
25.936
 21
4.00734
 31
0.0
  0
LINE
  8
0
 62
     0
 10
25.936
 20
4.00734
 30
0.0
 11
25.7597
 21
3.39962
 31
0.0
  0
LINE
  8
0
 62
     0
 10
25.7597
 20
3.39962
 30
0.0
 11
25.7349
 21
3.33072
 31
0.0
  0
LINE
  8
0
 62
     0
 10
25.7349
 20
3.33072
 30
0.0
 11
25.688
 21
3.25355
 31
0.0
  0
LINE
  8
0
 62
     0
 10
25.688
 20
3.25355
 30
0.0
 11
25.5668
 21
2.90353
 31
0.0
  0
LINE
  8
0
 62
     0
 10
25.5668
 20
2.90353
 30
0.0
 11
25.5075
 21
2.56453
 31
0.0
  0
LINE
  8
0
 62
     0
 10
25.5075
 20
2.56453
 30
0.0
 11
25.4923
 21
2.49287
 31
0.0
  0
LINE
  8
0
 62
     0
 10
25.4923
 20
2.49287
 30
0.0
 11
25.4854
 21
2.44189
 31
0.0
  0
LINE
  8
0
 62
     0
 10
25.4854
 20
2.44189
 30
0.0
 11
25.4413
 21
2.10702
 31
0.0
  0
LINE
  8
0
 62
     0
 10
25.4413
 20
2.10702
 30
0.0
 11
25.4372
 21
2.05741
 31
0.0
  0
LINE
  8
0
 62
     0
 10
25.4372
 20
2.05741
 30
0.0
 11
25.4069
 21
1.98989
 31
0.0
  0
LINE
  8
0
 62
     0
 10
25.4069
 20
1.98989
 30
0.0
 11
25.3917
 21
1.75011
 31
0.0
  0
LINE
  8
0
 62
     0
 10
25.3917
 20
1.75011
 30
0.0
 11
25.451
 21
1.56407
 31
0.0
  0
LINE
  8
0
 62
     0
 10
25.451
 20
1.56407
 30
0.0
 11
25.4593
 21
1.52273
 31
0.0
  0
LINE
  8
0
 62
     0
 10
25.4593
 20
1.52273
 30
0.0
 11
25.44
 21
1.48001
 31
0.0
  0
LINE
  8
0
 62
     0
 10
25.44
 20
1.48001
 30
0.0
 11
25.4813
 21
1.30362
 31
0.0
  0
LINE
  8
0
 62
     0
 10
25.4813
 20
1.30362
 30
0.0
 11
25.6081
 21
1.192
 31
0.0
  0
LINE
  8
0
 62
     0
 10
25.6081
 20
1.192
 30
0.0
 11
25.6301
 21
1.17547
 31
0.0
  0
LINE
  8
0
 62
     0
 10
25.6301
 20
1.17547
 30
0.0
 11
25.637
 21
1.15893
 31
0.0
  0
LINE
  8
0
 62
     0
 10
25.637
 20
1.15893
 30
0.0
 11
25.7776
 21
1.15204
 31
0.0
  0
LINE
  8
0
 62
     0
 10
25.7776
 20
1.15204
 30
0.0
 11
25.9912
 21
1.27468
 31
0.0
  0
LINE
  8
0
 62
     0
 10
25.9912
 20
1.27468
 30
0.0
 11
26.038
 21
1.31327
 31
0.0
  0
LINE
  8
0
 62
     0
 10
26.038
 20
1.31327
 30
0.0
 11
26.0683
 21
1.33808
 31
0.0
  0
LINE
  8
0
 62
     0
 10
26.0683
 20
1.33808
 30
0.0
 11
26.2847
 21
1.55856
 31
0.0
  0
LINE
  8
0
 62
     0
 10
26.2847
 20
1.55856
 30
0.0
 11
26.5135
 21
1.8383
 31
0.0
  0
LINE
  8
0
 62
     0
 10
26.5135
 20
1.8383
 30
0.0
 11
26.5507
 21
1.89205
 31
0.0
  0
LINE
  8
0
 62
     0
 10
26.5507
 20
1.89205
 30
0.0
 11
26.5865
 21
1.94028
 31
0.0
  0
LINE
  8
0
 62
     0
 10
26.5865
 20
1.94028
 30
0.0
 11
26.9462
 21
2.50252
 31
0.0
  0
LINE
  8
0
 62
     0
 10
26.9462
 20
2.50252
 30
0.0
 11
26.9806
 21
2.55902
 31
0.0
  0
LINE
  8
0
 62
     0
 10
26.9806
 20
2.55902
 30
0.0
 11
27.1625
 21
2.90077
 31
0.0
  0
LINE
  8
0
 62
     0
 10
27.1625
 20
2.90077
 30
0.0
 11
27.1901
 21
2.95038
 31
0.0
  0
LINE
  8
0
 62
     0
 10
27.1901
 20
2.95038
 30
0.0
 11
27.1873
 21
2.95038
 31
0.0
  0
LINE
  8
0
 62
     0
 10
27.1873
 20
2.95038
 30
0.0
 11
27.1763
 21
2.96278
 31
0.0
  0
LINE
  8
0
 62
     0
 10
27.1763
 20
2.96278
 30
0.0
 11
27.2562
 21
2.98345
 31
0.0
  0
LINE
  8
0
 62
     0
 10
27.2562
 20
2.98345
 30
0.0
 11
27.2673
 21
2.98345
 31
0.0
  0
LINE
  8
0
 62
     0
 10
27.2673
 20
2.98345
 30
0.0
 11
27.2755
 21
2.97518
 31
0.0
  0
LINE
  8
0
 62
     0
 10
27.2755
 20
2.97518
 30
0.0
 11
27.3003
 21
2.91455
 31
0.0
  0
LINE
  8
0
 62
     0
 10
27.3003
 20
2.91455
 30
0.0
 11
27.2948
 21
2.90077
 31
0.0
  0
LINE
  8
0
 62
     0
 10
27.2948
 20
2.90077
 30
0.0
 11
27.0633
 21
2.48185
 31
0.0
  0
LINE
  8
0
 62
     0
 10
27.0633
 20
2.48185
 30
0.0
 11
27.0164
 21
2.39916
 31
0.0
  0
LINE
  8
0
 62
     0
 10
27.0164
 20
2.39916
 30
0.0
 11
26.8414
 21
2.10289
 31
0.0
  0
LINE
  8
0
 62
     0
 10
26.8414
 20
2.10289
 30
0.0
 11
26.6829
 21
1.86449
 31
0.0
  0
LINE
  8
0
 62
     0
 10
26.6829
 20
1.86449
 30
0.0
 11
26.6444
 21
1.80937
 31
0.0
  0
LINE
  8
0
 62
     0
 10
26.6444
 20
1.80937
 30
0.0
 11
26.5975
 21
1.75562
 31
0.0
  0
LINE
  8
0
 62
     0
 10
26.5975
 20
1.75562
 30
0.0
 11
26.1648
 21
1.26917
 31
0.0
  0
LINE
  8
0
 62
     0
 10
26.1648
 20
1.26917
 30
0.0
 11
26.1152
 21
1.22508
 31
0.0
  0
LINE
  8
0
 62
     0
 10
26.1152
 20
1.22508
 30
0.0
 11
26.0546
 21
1.18374
 31
0.0
  0
LINE
  8
0
 62
     0
 10
26.0546
 20
1.18374
 30
0.0
 11
25.8603
 21
1.05144
 31
0.0
  0
LINE
  8
0
 62
     0
 10
25.8603
 20
1.05144
 30
0.0
 11
25.7197
 21
0.978408
 31
0.0
  0
LINE
  8
0
 62
     0
 10
25.7197
 20
0.978408
 30
0.0
 11
25.6853
 21
0.966004
 31
0.0
  0
LINE
  8
0
 62
     0
 10
25.6853
 20
0.966004
 30
0.0
 11
25.6343
 21
0.938445
 31
0.0
  0
LINE
  8
0
 62
     0
 10
25.6343
 20
0.938445
 30
0.0
 11
25.4579
 21
0.898483
 31
0.0
  0
LINE
  8
0
 62
     0
 10
25.4579
 20
0.898483
 30
0.0
 11
25.3325
 21
0.935687
 31
0.0
  0
LINE
  8
0
 62
     0
 10
25.3325
 20
0.935687
 30
0.0
 11
25.3049
 21
0.943956
 31
0.0
  0
LINE
  8
0
 62
     0
 10
25.3049
 20
0.943956
 30
0.0
 11
25.2636
 21
0.938445
 31
0.0
  0
LINE
  8
0
 62
     0
 10
25.2636
 20
0.938445
 30
0.0
 11
25.1272
 21
1.00459
 31
0.0
  0
LINE
  8
0
 62
     0
 10
25.1272
 20
1.00459
 30
0.0
 11
25.0376
 21
1.14239
 31
0.0
  0
LINE
  8
0
 62
     0
 10
25.0376
 20
1.14239
 30
0.0
 11
25.0183
 21
1.16996
 31
0.0
  0
LINE
  8
0
 62
     0
 10
25.0183
 20
1.16996
 30
0.0
 11
24.9783
 21
1.19338
 31
0.0
  0
LINE
  8
0
 62
     0
 10
24.9783
 20
1.19338
 30
0.0
 11
24.8929
 21
1.3615
 31
0.0
  0
LINE
  8
0
 62
     0
 10
24.8929
 20
1.3615
 30
0.0
 11
24.8791
 21
1.58061
 31
0.0
  0
LINE
  8
0
 62
     0
 10
24.8791
 20
1.58061
 30
0.0
 11
24.875
 21
1.62746
 31
0.0
  0
LINE
  8
0
 62
     0
 10
24.8364
 20
5.72301
 30
0.0
 11
24.8392
 21
5.68717
 31
0.0
  0
LINE
  8
0
 62
     0
 10
24.8392
 20
5.68717
 30
0.0
 11
24.9962
 21
5.39641
 31
0.0
  0
LINE
  8
0
 62
     0
 10
24.9962
 20
5.39641
 30
0.0
 11
25.0183
 21
5.37023
 31
0.0
  0
LINE
  8
0
 62
     0
 10
25.0183
 20
5.37023
 30
0.0
 11
25.0004
 21
5.39503
 31
0.0
  0
LINE
  8
0
 62
     0
 10
25.0004
 20
5.39503
 30
0.0
 11
25.0073
 21
5.6224
 31
0.0
  0
LINE
  8
0
 62
     0
 10
25.0073
 20
5.6224
 30
0.0
 11
25.0017
 21
5.64032
 31
0.0
  0
LINE
  8
0
 62
     0
 10
25.0017
 20
5.64032
 30
0.0
 11
24.9893
 21
5.63757
 31
0.0
  0
LINE
  8
0
 62
     0
 10
24.9893
 20
5.63757
 30
0.0
 11
24.9356
 21
5.6968
 31
0.0
  0
LINE
  8
0
 62
     0
 10
24.9356
 20
5.6968
 30
0.0
 11
24.9315
 21
5.78778
 31
0.0
  0
LINE
  8
0
 62
     0
 10
24.9315
 20
5.78778
 30
0.0
 11
24.9246
 21
5.79466
 31
0.0
  0
LINE
  8
0
 62
     0
 10
24.9246
 20
5.79466
 30
0.0
 11
24.9067
 21
5.79466
 31
0.0
  0
LINE
  8
0
 62
     0
 10
24.9067
 20
5.79466
 30
0.0
 11
24.8584
 21
5.82634
 31
0.0
  0
LINE
  8
0
 62
     0
 10
24.8584
 20
5.82634
 30
0.0
 11
24.8529
 21
5.82221
 31
0.0
  0
LINE
  8
0
 62
     0
 10
24.8529
 20
5.82221
 30
0.0
 11
24.8405
 21
5.80842
 31
0.0
  0
LINE
  8
0
 62
     0
 10
24.8405
 20
5.80842
 30
0.0
 11
24.8336
 21
5.73677
 31
0.0
  0
LINE
  8
0
 62
     0
 10
24.8336
 20
5.73677
 30
0.0
 11
24.8364
 21
5.72301
 31
0.0
  0
LINE
  8
0
 62
     0
 10
29.3812
 20
2.55902
 30
0.0
 11
29.3798
 21
2.56866
 31
0.0
  0
LINE
  8
0
 62
     0
 10
29.3798
 20
2.56866
 30
0.0
 11
29.4611
 21
2.7106
 31
0.0
  0
LINE
  8
0
 62
     0
 10
29.4611
 20
2.7106
 30
0.0
 11
29.4694
 21
2.72438
 31
0.0
  0
LINE
  8
0
 62
     0
 10
29.4694
 20
2.72438
 30
0.0
 11
29.4694
 21
2.72438
 31
0.0
  0
LINE
  8
0
 62
     0
 10
29.4694
 20
2.72438
 30
0.0
 11
29.4886
 21
2.78915
 31
0.0
  0
LINE
  8
0
 62
     0
 10
29.4886
 20
2.78915
 30
0.0
 11
29.5493
 21
2.88699
 31
0.0
  0
LINE
  8
0
 62
     0
 10
29.5493
 20
2.88699
 30
0.0
 11
29.5576
 21
2.90077
 31
0.0
  0
LINE
  8
0
 62
     0
 10
29.5576
 20
2.90077
 30
0.0
 11
29.5576
 21
2.90077
 31
0.0
  0
LINE
  8
0
 62
     0
 10
29.5576
 20
2.90077
 30
0.0
 11
29.5617
 21
2.92144
 31
0.0
  0
LINE
  8
0
 62
     0
 10
29.5617
 20
2.92144
 30
0.0
 11
29.5631
 21
2.92282
 31
0.0
  0
LINE
  8
0
 62
     0
 10
29.5631
 20
2.92282
 30
0.0
 11
29.5631
 21
2.92282
 31
0.0
  0
LINE
  8
0
 62
     0
 10
29.5631
 20
2.92282
 30
0.0
 11
29.5686
 21
2.94349
 31
0.0
  0
LINE
  8
0
 62
     0
 10
29.5686
 20
2.94349
 30
0.0
 11
29.5686
 21
2.95038
 31
0.0
  0
LINE
  8
0
 62
     0
 10
29.5686
 20
2.95038
 30
0.0
 11
29.5631
 21
2.95038
 31
0.0
  0
LINE
  8
0
 62
     0
 10
29.5631
 20
2.95038
 30
0.0
 11
29.5451
 21
2.95176
 31
0.0
  0
LINE
  8
0
 62
     0
 10
29.5451
 20
2.95176
 30
0.0
 11
29.5975
 21
2.97105
 31
0.0
  0
LINE
  8
0
 62
     0
 10
29.5975
 20
2.97105
 30
0.0
 11
29.6017
 21
2.97243
 31
0.0
  0
LINE
  8
0
 62
     0
 10
29.6017
 20
2.97243
 30
0.0
 11
29.5975
 21
2.97243
 31
0.0
  0
LINE
  8
0
 62
     0
 10
29.5975
 20
2.97243
 30
0.0
 11
29.5865
 21
2.97243
 31
0.0
  0
LINE
  8
0
 62
     0
 10
29.5865
 20
2.97243
 30
0.0
 11
29.6347
 21
2.98897
 31
0.0
  0
LINE
  8
0
 62
     0
 10
29.6347
 20
2.98897
 30
0.0
 11
29.6513
 21
2.98897
 31
0.0
  0
LINE
  8
0
 62
     0
 10
29.6513
 20
2.98897
 30
0.0
 11
29.6513
 21
2.98345
 31
0.0
  0
LINE
  8
0
 62
     0
 10
29.6513
 20
2.98345
 30
0.0
 11
29.6816
 21
2.97105
 31
0.0
  0
LINE
  8
0
 62
     0
 10
29.6816
 20
2.97105
 30
0.0
 11
29.6843
 21
2.96692
 31
0.0
  0
LINE
  8
0
 62
     0
 10
29.6843
 20
2.96692
 30
0.0
 11
29.6816
 21
2.95589
 31
0.0
  0
LINE
  8
0
 62
     0
 10
29.6816
 20
2.95589
 30
0.0
 11
29.6871
 21
2.90904
 31
0.0
  0
LINE
  8
0
 62
     0
 10
29.6871
 20
2.90904
 30
0.0
 11
29.6843
 21
2.90077
 31
0.0
  0
LINE
  8
0
 62
     0
 10
29.6843
 20
2.90077
 30
0.0
 11
29.4749
 21
2.48185
 31
0.0
  0
LINE
  8
0
 62
     0
 10
29.4749
 20
2.48185
 30
0.0
 11
29.4459
 21
2.43224
 31
0.0
  0
LINE
  8
0
 62
     0
 10
29.4459
 20
2.43224
 30
0.0
 11
29.3619
 21
2.2779
 31
0.0
  0
LINE
  8
0
 62
     0
 10
29.3619
 20
2.2779
 30
0.0
 11
29.3012
 21
2.15938
 31
0.0
  0
LINE
  8
0
 62
     0
 10
29.3012
 20
2.15938
 30
0.0
 11
29.2819
 21
2.12356
 31
0.0
  0
LINE
  8
0
 62
     0
 10
29.2819
 20
2.12356
 30
0.0
 11
29.2626
 21
2.0643
 31
0.0
  0
LINE
  8
0
 62
     0
 10
29.2626
 20
2.0643
 30
0.0
 11
29.0559
 21
1.75011
 31
0.0
  0
LINE
  8
0
 62
     0
 10
29.0559
 20
1.75011
 30
0.0
 11
29.0339
 21
1.71566
 31
0.0
  0
LINE
  8
0
 62
     0
 10
29.0339
 20
1.71566
 30
0.0
 11
29.0022
 21
1.66054
 31
0.0
  0
LINE
  8
0
 62
     0
 10
29.0022
 20
1.66054
 30
0.0
 11
28.8782
 21
1.48277
 31
0.0
  0
LINE
  8
0
 62
     0
 10
28.8782
 20
1.48277
 30
0.0
 11
28.7638
 21
1.35186
 31
0.0
  0
LINE
  8
0
 62
     0
 10
28.7638
 20
1.35186
 30
0.0
 11
28.7362
 21
1.31878
 31
0.0
  0
LINE
  8
0
 62
     0
 10
28.7362
 20
1.31878
 30
0.0
 11
28.6949
 21
1.27055
 31
0.0
  0
LINE
  8
0
 62
     0
 10
28.6949
 20
1.27055
 30
0.0
 11
28.5516
 21
1.1231
 31
0.0
  0
LINE
  8
0
 62
     0
 10
28.5516
 20
1.1231
 30
0.0
 11
28.4331
 21
1.03491
 31
0.0
  0
LINE
  8
0
 62
     0
 10
28.4331
 20
1.03491
 30
0.0
 11
28.4055
 21
1.01562
 31
0.0
  0
LINE
  8
0
 62
     0
 10
28.4055
 20
1.01562
 30
0.0
 11
28.3641
 21
0.978408
 31
0.0
  0
LINE
  8
0
 62
     0
 10
28.3641
 20
0.978408
 30
0.0
 11
28.2126
 21
0.892969
 31
0.0
  0
LINE
  8
0
 62
     0
 10
28.2126
 20
0.892969
 30
0.0
 11
28.0968
 21
0.883324
 31
0.0
  0
LINE
  8
0
 62
     0
 10
28.0968
 20
0.883324
 30
0.0
 11
28.0693
 21
0.87781
 31
0.0
  0
LINE
  8
0
 62
     0
 10
28.0693
 20
0.87781
 30
0.0
 11
28.0252
 21
0.86403
 31
0.0
  0
LINE
  8
0
 62
     0
 10
28.0252
 20
0.86403
 30
0.0
 11
27.8832
 21
0.859896
 31
0.0
  0
LINE
  8
0
 62
     0
 10
27.8832
 20
0.859896
 30
0.0
 11
27.784
 21
0.902614
 31
0.0
  0
LINE
  8
0
 62
     0
 10
27.784
 20
0.902614
 30
0.0
 11
27.7606
 21
0.910883
 31
0.0
  0
LINE
  8
0
 62
     0
 10
27.7606
 20
0.910883
 30
0.0
 11
27.7192
 21
0.908128
 31
0.0
  0
LINE
  8
0
 62
     0
 10
27.7192
 20
0.908128
 30
0.0
 11
27.5924
 21
0.967384
 31
0.0
  0
LINE
  8
0
 62
     0
 10
27.5924
 20
0.967384
 30
0.0
 11
27.5208
 21
1.07349
 31
0.0
  0
LINE
  8
0
 62
     0
 10
27.5208
 20
1.07349
 30
0.0
 11
27.5015
 21
1.09279
 31
0.0
  0
LINE
  8
0
 62
     0
 10
27.5015
 20
1.09279
 30
0.0
 11
27.4698
 21
1.08865
 31
0.0
  0
LINE
  8
0
 62
     0
 10
27.4698
 20
1.08865
 30
0.0
 11
27.3568
 21
1.18787
 31
0.0
  0
LINE
  8
0
 62
     0
 10
27.3568
 20
1.18787
 30
0.0
 11
27.3389
 21
1.36288
 31
0.0
  0
LINE
  8
0
 62
     0
 10
27.3389
 20
1.36288
 30
0.0
 11
27.3306
 21
1.39044
 31
0.0
  0
LINE
  8
0
 62
     0
 10
27.3306
 20
1.39044
 30
0.0
 11
27.2962
 21
1.41938
 31
0.0
  0
LINE
  8
0
 62
     0
 10
27.2962
 20
1.41938
 30
0.0
 11
27.2094
 21
1.69361
 31
0.0
  0
LINE
  8
0
 62
     0
 10
27.2094
 20
1.69361
 30
0.0
 11
27.1818
 21
2.04914
 31
0.0
  0
LINE
  8
0
 62
     0
 10
27.1818
 20
2.04914
 30
0.0
 11
27.1763
 21
2.11805
 31
0.0
  0
LINE
  8
0
 62
     0
 10
27.1763
 20
2.11805
 30
0.0
 11
27.1694
 21
2.16214
 31
0.0
  0
LINE
  8
0
 62
     0
 10
27.1694
 20
2.16214
 30
0.0
 11
27.1584
 21
2.49701
 31
0.0
  0
LINE
  8
0
 62
     0
 10
27.1584
 20
2.49701
 30
0.0
 11
27.1666
 21
2.88975
 31
0.0
  0
LINE
  8
0
 62
     0
 10
27.1666
 20
2.88975
 30
0.0
 11
27.1708
 21
2.9614
 31
0.0
  0
LINE
  8
0
 62
     0
 10
27.1708
 20
2.9614
 30
0.0
 11
27.1735
 21
3.02617
 31
0.0
  0
LINE
  8
0
 62
     0
 10
27.1735
 20
3.02617
 30
0.0
 11
27.248
 21
3.72209
 31
0.0
  0
LINE
  8
0
 62
     0
 10
27.248
 20
3.72209
 30
0.0
 11
27.259
 21
3.78823
 31
0.0
  0
LINE
  8
0
 62
     0
 10
27.259
 20
3.78823
 30
0.0
 11
27.2603
 21
3.83783
 31
0.0
  0
LINE
  8
0
 62
     0
 10
27.2603
 20
3.83783
 30
0.0
 11
27.383
 21
4.44419
 31
0.0
  0
LINE
  8
0
 62
     0
 10
27.383
 20
4.44419
 30
0.0
 11
27.3968
 21
4.49379
 31
0.0
  0
LINE
  8
0
 62
     0
 10
27.3968
 20
4.49379
 30
0.0
 11
27.3926
 21
4.54752
 31
0.0
  0
LINE
  8
0
 62
     0
 10
27.3926
 20
4.54752
 30
0.0
 11
27.4671
 21
4.89066
 31
0.0
  0
LINE
  8
0
 62
     0
 10
27.4671
 20
4.89066
 30
0.0
 11
27.5911
 21
5.25999
 31
0.0
  0
LINE
  8
0
 62
     0
 10
27.5911
 20
5.25999
 30
0.0
 11
27.6117
 21
5.32613
 31
0.0
  0
LINE
  8
0
 62
     0
 10
27.6117
 20
5.32613
 30
0.0
 11
27.6242
 21
5.36607
 31
0.0
  0
LINE
  8
0
 62
     0
 10
27.6242
 20
5.36607
 30
0.0
 11
27.7289
 21
5.67891
 31
0.0
  0
LINE
  8
0
 62
     0
 10
27.7289
 20
5.67891
 30
0.0
 11
27.857
 21
6.03306
 31
0.0
  0
LINE
  8
0
 62
     0
 10
27.857
 20
6.03306
 30
0.0
 11
27.8819
 21
6.0923
 31
0.0
  0
LINE
  8
0
 62
     0
 10
27.8819
 20
6.0923
 30
0.0
 11
27.9053
 21
6.15569
 31
0.0
  0
LINE
  8
0
 62
     0
 10
27.9053
 20
6.15569
 30
0.0
 11
28.2015
 21
6.8392
 31
0.0
  0
LINE
  8
0
 62
     0
 10
28.2015
 20
6.8392
 30
0.0
 11
28.2346
 21
6.90809
 31
0.0
  0
LINE
  8
0
 62
     0
 10
28.2346
 20
6.90809
 30
0.0
 11
28.2663
 21
6.96461
 31
0.0
  0
LINE
  8
0
 62
     0
 10
28.2663
 20
6.96461
 30
0.0
 11
28.6536
 21
7.62469
 31
0.0
  0
LINE
  8
0
 62
     0
 10
28.6536
 20
7.62469
 30
0.0
 11
28.6977
 21
7.68533
 31
0.0
  0
LINE
  8
0
 62
     0
 10
28.6977
 20
7.68533
 30
0.0
 11
28.7307
 21
7.72806
 31
0.0
  0
LINE
  8
0
 62
     0
 10
28.7307
 20
7.72806
 30
0.0
 11
28.965
 21
8.00502
 31
0.0
  0
LINE
  8
0
 62
     0
 10
28.965
 20
8.00502
 30
0.0
 11
29.2461
 21
8.29441
 31
0.0
  0
LINE
  8
0
 62
     0
 10
29.2461
 20
8.29441
 30
0.0
 11
29.304
 21
8.34125
 31
0.0
  0
LINE
  8
0
 62
     0
 10
29.304
 20
8.34125
 30
0.0
 11
29.3577
 21
8.37434
 31
0.0
  0
LINE
  8
0
 62
     0
 10
29.3577
 20
8.37434
 30
0.0
 11
30.004
 21
8.75743
 31
0.0
  0
LINE
  8
0
 62
     0
 10
30.004
 20
8.75743
 30
0.0
 11
30.0757
 21
8.78223
 31
0.0
  0
LINE
  8
0
 62
     0
 10
30.0757
 20
8.78223
 30
0.0
 11
30.0977
 21
8.77122
 31
0.0
  0
LINE
  8
0
 62
     0
 10
30.0977
 20
8.77122
 30
0.0
 11
30.4037
 21
8.86217
 31
0.0
  0
LINE
  8
0
 62
     0
 10
30.4037
 20
8.86217
 30
0.0
 11
30.434
 21
8.86492
 31
0.0
  0
LINE
  8
0
 62
     0
 10
30.434
 20
8.86492
 30
0.0
 11
30.4546
 21
8.86905
 31
0.0
  0
LINE
  8
0
 62
     0
 10
30.4546
 20
8.86905
 30
0.0
 11
30.7248
 21
8.84149
 31
0.0
  0
LINE
  8
0
 62
     0
 10
30.7248
 20
8.84149
 30
0.0
 11
30.7482
 21
8.83186
 31
0.0
  0
LINE
  8
0
 62
     0
 10
30.7482
 20
8.83186
 30
0.0
 11
30.7661
 21
8.7974
 31
0.0
  0
LINE
  8
0
 62
     0
 10
30.7661
 20
8.7974
 30
0.0
 11
30.9604
 21
8.66786
 31
0.0
  0
LINE
  8
0
 62
     0
 10
30.9604
 20
8.66786
 30
0.0
 11
30.9742
 21
8.64443
 31
0.0
  0
LINE
  8
0
 62
     0
 10
30.9742
 20
8.64443
 30
0.0
 11
30.9645
 21
8.61138
 31
0.0
  0
LINE
  8
0
 62
     0
 10
30.9645
 20
8.61138
 30
0.0
 11
31.0031
 21
8.46942
 31
0.0
  0
LINE
  8
0
 62
     0
 10
31.0031
 20
8.46942
 30
0.0
 11
31.0624
 21
8.32474
 31
0.0
  0
LINE
  8
0
 62
     0
 10
31.0624
 20
8.32474
 30
0.0
 11
31.0624
 21
8.27511
 31
0.0
  0
LINE
  8
0
 62
     0
 10
31.0624
 20
8.27511
 30
0.0
 11
31.0596
 21
8.19933
 31
0.0
  0
LINE
  8
0
 62
     0
 10
31.0596
 20
8.19933
 30
0.0
 11
30.9728
 21
7.79004
 31
0.0
  0
LINE
  8
0
 62
     0
 10
30.9728
 20
7.79004
 30
0.0
 11
30.7854
 21
7.30772
 31
0.0
  0
LINE
  8
0
 62
     0
 10
30.7854
 20
7.30772
 30
0.0
 11
30.7316
 21
7.19473
 31
0.0
  0
LINE
  8
0
 62
     0
 10
30.7316
 20
7.19473
 30
0.0
 11
30.6737
 21
7.07485
 31
0.0
  0
LINE
  8
0
 62
     0
 10
30.6737
 20
7.07485
 30
0.0
 11
30.2879
 21
6.44095
 31
0.0
  0
LINE
  8
0
 62
     0
 10
30.2879
 20
6.44095
 30
0.0
 11
29.7629
 21
5.72851
 31
0.0
  0
LINE
  8
0
 62
     0
 10
29.7629
 20
5.72851
 30
0.0
 11
29.6347
 21
5.56867
 31
0.0
  0
LINE
  8
0
 62
     0
 10
29.6347
 20
5.56867
 30
0.0
 11
29.603
 21
5.51215
 31
0.0
  0
LINE
  8
0
 62
     0
 10
29.603
 20
5.51215
 30
0.0
 11
29.2626
 21
5.13595
 31
0.0
  0
LINE
  8
0
 62
     0
 10
29.2626
 20
5.13595
 30
0.0
 11
29.2268
 21
5.0946
 31
0.0
  0
LINE
  8
0
 62
     0
 10
29.2268
 20
5.0946
 30
0.0
 11
29.1648
 21
5.045
 31
0.0
  0
LINE
  8
0
 62
     0
 10
29.1648
 20
5.045
 30
0.0
 11
28.9636
 21
4.83552
 31
0.0
  0
LINE
  8
0
 62
     0
 10
28.9636
 20
4.83552
 30
0.0
 11
28.8079
 21
4.64951
 31
0.0
  0
LINE
  8
0
 62
     0
 10
28.8079
 20
4.64951
 30
0.0
 11
28.7693
 21
4.60954
 31
0.0
  0
LINE
  8
0
 62
     0
 10
28.7693
 20
4.60954
 30
0.0
 11
28.7128
 21
4.54339
 31
0.0
  0
LINE
  8
0
 62
     0
 10
28.7128
 20
4.54339
 30
0.0
 11
28.5034
 21
4.3367
 31
0.0
  0
LINE
  8
0
 62
     0
 10
28.5034
 20
4.3367
 30
0.0
 11
28.3256
 21
4.19336
 31
0.0
  0
LINE
  8
0
 62
     0
 10
28.3256
 20
4.19336
 30
0.0
 11
28.2842
 21
4.15756
 31
0.0
  0
LINE
  8
0
 62
     0
 10
28.2842
 20
4.15756
 30
0.0
 11
28.2374
 21
4.10379
 31
0.0
  0
LINE
  8
0
 62
     0
 10
28.2374
 20
4.10379
 30
0.0
 11
27.8295
 21
3.80615
 31
0.0
  0
LINE
  8
0
 62
     0
 10
27.8295
 20
3.80615
 30
0.0
 11
27.7881
 21
3.77719
 31
0.0
  0
LINE
  8
0
 62
     0
 10
27.7881
 20
3.77719
 30
0.0
 11
27.7606
 21
3.72622
 31
0.0
  0
LINE
  8
0
 62
     0
 10
27.7606
 20
3.72622
 30
0.0
 11
27.7247
 21
3.51537
 31
0.0
  0
LINE
  8
0
 62
     0
 10
27.7247
 20
3.51537
 30
0.0
 11
27.733
 21
3.30178
 31
0.0
  0
LINE
  8
0
 62
     0
 10
27.733
 20
3.30178
 30
0.0
 11
27.7275
 21
3.24804
 31
0.0
  0
LINE
  8
0
 62
     0
 10
27.7275
 20
3.24804
 30
0.0
 11
27.7041
 21
3.19429
 31
0.0
  0
LINE
  8
0
 62
     0
 10
27.7041
 20
3.19429
 30
0.0
 11
27.6889
 21
2.64032
 31
0.0
  0
LINE
  8
0
 62
     0
 10
27.6889
 20
2.64032
 30
0.0
 11
27.6889
 21
2.58107
 31
0.0
  0
LINE
  8
0
 62
     0
 10
27.6889
 20
2.58107
 30
0.0
 11
27.6724
 21
2.51768
 31
0.0
  0
LINE
  8
0
 62
     0
 10
27.6724
 20
2.51768
 30
0.0
 11
27.7013
 21
1.95268
 31
0.0
  0
LINE
  8
0
 62
     0
 10
27.7013
 20
1.95268
 30
0.0
 11
27.7055
 21
1.89756
 31
0.0
  0
LINE
  8
0
 62
     0
 10
27.7055
 20
1.89756
 30
0.0
 11
27.6931
 21
1.83555
 31
0.0
  0
LINE
  8
0
 62
     0
 10
27.6931
 20
1.83555
 30
0.0
 11
27.7206
 21
1.58474
 31
0.0
  0
LINE
  8
0
 62
     0
 10
27.7206
 20
1.58474
 30
0.0
 11
27.7964
 21
1.38768
 31
0.0
  0
LINE
  8
0
 62
     0
 10
27.7964
 20
1.38768
 30
0.0
 11
27.8102
 21
1.35186
 31
0.0
  0
LINE
  8
0
 62
     0
 10
27.8102
 20
1.35186
 30
0.0
 11
27.8005
 21
1.29673
 31
0.0
  0
LINE
  8
0
 62
     0
 10
27.8005
 20
1.29673
 30
0.0
 11
27.8694
 21
1.1107
 31
0.0
  0
LINE
  8
0
 62
     0
 10
27.8694
 20
1.1107
 30
0.0
 11
28.0114
 21
1.0542
 31
0.0
  0
LINE
  8
0
 62
     0
 10
28.0114
 20
1.0542
 30
0.0
 11
28.0362
 21
1.04869
 31
0.0
  0
LINE
  8
0
 62
     0
 10
28.0362
 20
1.04869
 30
0.0
 11
28.0403
 21
1.03215
 31
0.0
  0
LINE
  8
0
 62
     0
 10
28.0403
 20
1.03215
 30
0.0
 11
28.1616
 21
1.01562
 31
0.0
  0
LINE
  8
0
 62
     0
 10
28.1616
 20
1.01562
 30
0.0
 11
28.3118
 21
1.11208
 31
0.0
  0
LINE
  8
0
 62
     0
 10
28.3118
 20
1.11208
 30
0.0
 11
28.3393
 21
1.13137
 31
0.0
  0
LINE
  8
0
 62
     0
 10
28.3393
 20
1.13137
 30
0.0
 11
28.3559
 21
1.14928
 31
0.0
  0
LINE
  8
0
 62
     0
 10
28.3559
 20
1.14928
 30
0.0
 11
28.6425
 21
1.42214
 31
0.0
  0
LINE
  8
0
 62
     0
 10
28.6425
 20
1.42214
 30
0.0
 11
28.6701
 21
1.45659
 31
0.0
  0
LINE
  8
0
 62
     0
 10
28.6701
 20
1.45659
 30
0.0
 11
28.6894
 21
1.49242
 31
0.0
  0
LINE
  8
0
 62
     0
 10
28.6894
 20
1.49242
 30
0.0
 11
28.9595
 21
1.8507
 31
0.0
  0
LINE
  8
0
 62
     0
 10
28.9595
 20
1.8507
 30
0.0
 11
28.9843
 21
1.88654
 31
0.0
  0
LINE
  8
0
 62
     0
 10
28.9843
 20
1.88654
 30
0.0
 11
29.0036
 21
1.91823
 31
0.0
  0
LINE
  8
0
 62
     0
 10
29.0036
 20
1.91823
 30
0.0
 11
29.2199
 21
2.26963
 31
0.0
  0
LINE
  8
0
 62
     0
 10
29.2199
 20
2.26963
 30
0.0
 11
29.2378
 21
2.29995
 31
0.0
  0
LINE
  8
0
 62
     0
 10
29.2378
 20
2.29995
 30
0.0
 11
29.2282
 21
2.32062
 31
0.0
  0
LINE
  8
0
 62
     0
 10
29.2282
 20
2.32062
 30
0.0
 11
29.2861
 21
2.44464
 31
0.0
  0
LINE
  8
0
 62
     0
 10
29.2861
 20
2.44464
 30
0.0
 11
29.3743
 21
2.54799
 31
0.0
  0
LINE
  8
0
 62
     0
 10
29.3743
 20
2.54799
 30
0.0
 11
29.3812
 21
2.55902
 31
0.0
  0
LINE
  8
0
 62
     0
 10
27.8102
 20
3.94257
 30
0.0
 11
27.8626
 21
3.99905
 31
0.0
  0
LINE
  8
0
 62
     0
 10
27.8626
 20
3.99905
 30
0.0
 11
28.2333
 21
4.3119
 31
0.0
  0
LINE
  8
0
 62
     0
 10
28.2333
 20
4.3119
 30
0.0
 11
28.6536
 21
4.66605
 31
0.0
  0
LINE
  8
0
 62
     0
 10
28.6536
 20
4.66605
 30
0.0
 11
28.7307
 21
4.74183
 31
0.0
  0
LINE
  8
0
 62
     0
 10
28.7307
 20
4.74183
 30
0.0
 11
28.7927
 21
4.80935
 31
0.0
  0
LINE
  8
0
 62
     0
 10
28.7927
 20
4.80935
 30
0.0
 11
29.4914
 21
5.57142
 31
0.0
  0
LINE
  8
0
 62
     0
 10
29.4914
 20
5.57142
 30
0.0
 11
29.552
 21
5.64582
 31
0.0
  0
LINE
  8
0
 62
     0
 10
29.552
 20
5.64582
 30
0.0
 11
29.6554
 21
5.77536
 31
0.0
  0
LINE
  8
0
 62
     0
 10
29.6554
 20
5.77536
 30
0.0
 11
30.1653
 21
6.46987
 31
0.0
  0
LINE
  8
0
 62
     0
 10
30.1653
 20
6.46987
 30
0.0
 11
30.5745
 21
7.12445
 31
0.0
  0
LINE
  8
0
 62
     0
 10
30.5745
 20
7.12445
 30
0.0
 11
30.6269
 21
7.23332
 31
0.0
  0
LINE
  8
0
 62
     0
 10
30.6269
 20
7.23332
 30
0.0
 11
30.6544
 21
7.33256
 31
0.0
  0
LINE
  8
0
 62
     0
 10
30.6544
 20
7.33256
 30
0.0
 11
30.8253
 21
7.81071
 31
0.0
  0
LINE
  8
0
 62
     0
 10
30.8253
 20
7.81071
 30
0.0
 11
30.9411
 21
8.16762
 31
0.0
  0
LINE
  8
0
 62
     0
 10
30.9411
 20
8.16762
 30
0.0
 11
30.9411
 21
8.28615
 31
0.0
  0
LINE
  8
0
 62
     0
 10
30.9411
 20
8.28615
 30
0.0
 11
30.919
 21
8.33575
 31
0.0
  0
LINE
  8
0
 62
     0
 10
30.919
 20
8.33575
 30
0.0
 11
30.8571
 21
8.55624
 31
0.0
  0
LINE
  8
0
 62
     0
 10
30.8571
 20
8.55624
 30
0.0
 11
30.7702
 21
8.69957
 31
0.0
  0
LINE
  8
0
 62
     0
 10
30.7702
 20
8.69957
 30
0.0
 11
30.7371
 21
8.71058
 31
0.0
  0
LINE
  8
0
 62
     0
 10
30.7371
 20
8.71058
 30
0.0
 11
30.6985
 21
8.70645
 31
0.0
  0
LINE
  8
0
 62
     0
 10
30.6985
 20
8.70645
 30
0.0
 11
30.303
 21
8.66786
 31
0.0
  0
LINE
  8
0
 62
     0
 10
30.303
 20
8.66786
 30
0.0
 11
30.2576
 21
8.64443
 31
0.0
  0
LINE
  8
0
 62
     0
 10
30.2576
 20
8.64443
 30
0.0
 11
30.1653
 21
8.60309
 31
0.0
  0
LINE
  8
0
 62
     0
 10
30.1653
 20
8.60309
 30
0.0
 11
29.7849
 21
8.33025
 31
0.0
  0
LINE
  8
0
 62
     0
 10
29.7849
 20
8.33025
 30
0.0
 11
29.4211
 21
7.93337
 31
0.0
  0
LINE
  8
0
 62
     0
 10
29.4211
 20
7.93337
 30
0.0
 11
29.3371
 21
7.82863
 31
0.0
  0
LINE
  8
0
 62
     0
 10
29.3371
 20
7.82863
 30
0.0
 11
29.2475
 21
7.72252
 31
0.0
  0
LINE
  8
0
 62
     0
 10
29.2475
 20
7.72252
 30
0.0
 11
28.4854
 21
6.28661
 31
0.0
  0
LINE
  8
0
 62
     0
 10
28.4854
 20
6.28661
 30
0.0
 11
28.4165
 21
6.10334
 31
0.0
  0
LINE
  8
0
 62
     0
 10
28.4165
 20
6.10334
 30
0.0
 11
28.3683
 21
6.01102
 31
0.0
  0
LINE
  8
0
 62
     0
 10
28.3683
 20
6.01102
 30
0.0
 11
28.0913
 21
5.12491
 31
0.0
  0
LINE
  8
0
 62
     0
 10
28.0913
 20
5.12491
 30
0.0
 11
28.0638
 21
5.03396
 31
0.0
  0
LINE
  8
0
 62
     0
 10
28.0638
 20
5.03396
 30
0.0
 11
28.0197
 21
4.94026
 31
0.0
  0
LINE
  8
0
 62
     0
 10
28.0197
 20
4.94026
 30
0.0
 11
27.8253
 21
4.0349
 31
0.0
  0
LINE
  8
0
 62
     0
 10
27.8253
 20
4.0349
 30
0.0
 11
27.8102
 21
3.94257
 31
0.0
  0
LINE
  8
0
 62
     0
 10
33.9301
 20
2.90077
 30
0.0
 11
33.9108
 21
2.88148
 31
0.0
  0
LINE
  8
0
 62
     0
 10
33.9108
 20
2.88148
 30
0.0
 11
33.8391
 21
2.70509
 31
0.0
  0
LINE
  8
0
 62
     0
 10
33.8391
 20
2.70509
 30
0.0
 11
33.8308
 21
2.6858
 31
0.0
  0
LINE
  8
0
 62
     0
 10
33.8308
 20
2.6858
 30
0.0
 11
33.8184
 21
2.6541
 31
0.0
  0
LINE
  8
0
 62
     0
 10
33.8184
 20
2.6541
 30
0.0
 11
33.7399
 21
2.49425
 31
0.0
  0
LINE
  8
0
 62
     0
 10
33.7399
 20
2.49425
 30
0.0
 11
33.7316
 21
2.47633
 31
0.0
  0
LINE
  8
0
 62
     0
 10
33.7316
 20
2.47633
 30
0.0
 11
33.6903
 21
2.41846
 31
0.0
  0
LINE
  8
0
 62
     0
 10
33.6903
 20
2.41846
 30
0.0
 11
33.5814
 21
2.23242
 31
0.0
  0
LINE
  8
0
 62
     0
 10
33.5814
 20
2.23242
 30
0.0
 11
33.5111
 21
2.08635
 31
0.0
  0
LINE
  8
0
 62
     0
 10
33.5111
 20
2.08635
 30
0.0
 11
33.4891
 21
2.04639
 31
0.0
  0
LINE
  8
0
 62
     0
 10
33.4891
 20
2.04639
 30
0.0
 11
33.4615
 21
1.98851
 31
0.0
  0
LINE
  8
0
 62
     0
 10
33.4615
 20
1.98851
 30
0.0
 11
33.208
 21
1.62746
 31
0.0
  0
LINE
  8
0
 62
     0
 10
33.208
 20
1.62746
 30
0.0
 11
33.1804
 21
1.58888
 31
0.0
  0
LINE
  8
0
 62
     0
 10
33.1804
 20
1.58888
 30
0.0
 11
33.1446
 21
1.54202
 31
0.0
  0
LINE
  8
0
 62
     0
 10
33.1446
 20
1.54202
 30
0.0
 11
32.8579
 21
1.21267
 31
0.0
  0
LINE
  8
0
 62
     0
 10
32.8579
 20
1.21267
 30
0.0
 11
32.8276
 21
1.18098
 31
0.0
  0
LINE
  8
0
 62
     0
 10
32.8276
 20
1.18098
 30
0.0
 11
32.789
 21
1.14515
 31
0.0
  0
LINE
  8
0
 62
     0
 10
32.789
 20
1.14515
 30
0.0
 11
32.4845
 21
0.921907
 31
0.0
  0
LINE
  8
0
 62
     0
 10
32.4845
 20
0.921907
 30
0.0
 11
32.4528
 21
0.905372
 31
0.0
  0
LINE
  8
0
 62
     0
 10
32.4528
 20
0.905372
 30
0.0
 11
32.3935
 21
0.866786
 31
0.0
  0
LINE
  8
0
 62
     0
 10
32.3935
 20
0.866786
 30
0.0
 11
32.151
 21
0.79375
 31
0.0
  0
LINE
  8
0
 62
     0
 10
32.151
 20
0.79375
 30
0.0
 11
31.9498
 21
0.829578
 31
0.0
  0
LINE
  8
0
 62
     0
 10
31.9498
 20
0.829578
 30
0.0
 11
31.9126
 21
0.844737
 31
0.0
  0
LINE
  8
0
 62
     0
 10
31.9126
 20
0.844737
 30
0.0
 11
31.8561
 21
0.853006
 31
0.0
  0
LINE
  8
0
 62
     0
 10
31.8561
 20
0.853006
 30
0.0
 11
31.6797
 21
0.959115
 31
0.0
  0
LINE
  8
0
 62
     0
 10
31.6797
 20
0.959115
 30
0.0
 11
31.5681
 21
1.12723
 31
0.0
  0
LINE
  8
0
 62
     0
 10
31.5681
 20
1.12723
 30
0.0
 11
31.5433
 21
1.16444
 31
0.0
  0
LINE
  8
0
 62
     0
 10
31.5433
 20
1.16444
 30
0.0
 11
31.5006
 21
1.19889
 31
0.0
  0
LINE
  8
0
 62
     0
 10
31.5006
 20
1.19889
 30
0.0
 11
31.3352
 21
1.63987
 31
0.0
  0
LINE
  8
0
 62
     0
 10
31.3352
 20
1.63987
 30
0.0
 11
31.3228
 21
1.6881
 31
0.0
  0
LINE
  8
0
 62
     0
 10
31.3228
 20
1.6881
 30
0.0
 11
31.309
 21
1.71841
 31
0.0
  0
LINE
  8
0
 62
     0
 10
31.309
 20
1.71841
 30
0.0
 11
31.236
 21
2.17868
 31
0.0
  0
LINE
  8
0
 62
     0
 10
31.236
 20
2.17868
 30
0.0
 11
31.2346
 21
2.21726
 31
0.0
  0
LINE
  8
0
 62
     0
 10
31.2346
 20
2.21726
 30
0.0
 11
31.2346
 21
2.49287
 31
0.0
  0
LINE
  8
0
 62
     0
 10
31.2346
 20
2.49287
 30
0.0
 11
31.1947
 21
2.4474
 31
0.0
  0
LINE
  8
0
 62
     0
 10
31.1947
 20
2.4474
 30
0.0
 11
31.072
 21
2.30959
 31
0.0
  0
LINE
  8
0
 62
     0
 10
31.072
 20
2.30959
 30
0.0
 11
30.9893
 21
2.21864
 31
0.0
  0
LINE
  8
0
 62
     0
 10
30.9893
 20
2.21864
 30
0.0
 11
30.9645
 21
2.1897
 31
0.0
  0
LINE
  8
0
 62
     0
 10
30.9645
 20
2.1897
 30
0.0
 11
30.9108
 21
2.16076
 31
0.0
  0
LINE
  8
0
 62
     0
 10
30.9108
 20
2.16076
 30
0.0
 11
30.7633
 21
2.02985
 31
0.0
  0
LINE
  8
0
 62
     0
 10
30.7633
 20
2.02985
 30
0.0
 11
30.6641
 21
1.91409
 31
0.0
  0
LINE
  8
0
 62
     0
 10
30.6641
 20
1.91409
 30
0.0
 11
30.6338
 21
1.89205
 31
0.0
  0
LINE
  8
0
 62
     0
 10
30.6338
 20
1.89205
 30
0.0
 11
30.6021
 21
1.86311
 31
0.0
  0
LINE
  8
0
 62
     0
 10
30.6021
 20
1.86311
 30
0.0
 11
30.3141
 21
1.7322
 31
0.0
  0
LINE
  8
0
 62
     0
 10
30.3141
 20
1.7322
 30
0.0
 11
30.2865
 21
1.72668
 31
0.0
  0
LINE
  8
0
 62
     0
 10
30.2865
 20
1.72668
 30
0.0
 11
30.2562
 21
1.69912
 31
0.0
  0
LINE
  8
0
 62
     0
 10
30.2562
 20
1.69912
 30
0.0
 11
30.0054
 21
1.73082
 31
0.0
  0
LINE
  8
0
 62
     0
 10
30.0054
 20
1.73082
 30
0.0
 11
29.9834
 21
1.73771
 31
0.0
  0
LINE
  8
0
 62
     0
 10
29.9834
 20
1.73771
 30
0.0
 11
29.9586
 21
1.72531
 31
0.0
  0
LINE
  8
0
 62
     0
 10
29.9586
 20
1.72531
 30
0.0
 11
29.8442
 21
1.76802
 31
0.0
  0
LINE
  8
0
 62
     0
 10
29.8442
 20
1.76802
 30
0.0
 11
29.7574
 21
1.87965
 31
0.0
  0
LINE
  8
0
 62
     0
 10
29.7574
 20
1.87965
 30
0.0
 11
29.7408
 21
1.89756
 31
0.0
  0
LINE
  8
0
 62
     0
 10
29.7408
 20
1.89756
 30
0.0
 11
29.7077
 21
1.90858
 31
0.0
  0
LINE
  8
0
 62
     0
 10
29.7077
 20
1.90858
 30
0.0
 11
29.5851
 21
2.14147
 31
0.0
  0
LINE
  8
0
 62
     0
 10
29.5851
 20
2.14147
 30
0.0
 11
29.5754
 21
2.16765
 31
0.0
  0
LINE
  8
0
 62
     0
 10
29.5754
 20
2.16765
 30
0.0
 11
29.5617
 21
2.20211
 31
0.0
  0
LINE
  8
0
 62
     0
 10
29.5617
 20
2.20211
 30
0.0
 11
29.5176
 21
2.60312
 31
0.0
  0
LINE
  8
0
 62
     0
 10
29.5176
 20
2.60312
 30
0.0
 11
29.5203
 21
2.64721
 31
0.0
  0
LINE
  8
0
 62
     0
 10
29.5203
 20
2.64721
 30
0.0
 11
29.4955
 21
2.68304
 31
0.0
  0
LINE
  8
0
 62
     0
 10
29.4955
 20
2.68304
 30
0.0
 11
29.5162
 21
2.90077
 31
0.0
  0
LINE
  8
0
 62
     0
 10
29.5162
 20
2.90077
 30
0.0
 11
29.6223
 21
3.13504
 31
0.0
  0
LINE
  8
0
 62
     0
 10
29.6223
 20
3.13504
 30
0.0
 11
29.6416
 21
3.17638
 31
0.0
  0
LINE
  8
0
 62
     0
 10
29.6416
 20
3.17638
 30
0.0
 11
29.654
 21
3.19429
 31
0.0
  0
LINE
  8
0
 62
     0
 10
29.654
 20
3.19429
 30
0.0
 11
29.7739
 21
3.38446
 31
0.0
  0
LINE
  8
0
 62
     0
 10
29.7739
 20
3.38446
 30
0.0
 11
29.9448
 21
3.61047
 31
0.0
  0
LINE
  8
0
 62
     0
 10
29.9448
 20
3.61047
 30
0.0
 11
29.9834
 21
3.6449
 31
0.0
  0
LINE
  8
0
 62
     0
 10
29.9834
 20
3.6449
 30
0.0
 11
30.015
 21
3.67386
 31
0.0
  0
LINE
  8
0
 62
     0
 10
30.015
 20
3.67386
 30
0.0
 11
30.4932
 21
3.92878
 31
0.0
  0
LINE
  8
0
 62
     0
 10
30.4932
 20
3.92878
 30
0.0
 11
30.5511
 21
3.94257
 31
0.0
  0
LINE
  8
0
 62
     0
 10
30.5511
 20
3.94257
 30
0.0
 11
30.5552
 21
3.94945
 31
0.0
  0
LINE
  8
0
 62
     0
 10
30.5552
 20
3.94945
 30
0.0
 11
30.8874
 21
4.00043
 31
0.0
  0
LINE
  8
0
 62
     0
 10
30.8874
 20
4.00043
 30
0.0
 11
30.9204
 21
4.00322
 31
0.0
  0
LINE
  8
0
 62
     0
 10
30.9204
 20
4.00322
 30
0.0
 11
30.9273
 21
4.00043
 31
0.0
  0
LINE
  8
0
 62
     0
 10
30.9273
 20
4.00043
 30
0.0
 11
31.0927
 21
4.0101
 31
0.0
  0
LINE
  8
0
 62
     0
 10
31.0927
 20
4.0101
 30
0.0
 11
31.298
 21
4.02527
 31
0.0
  0
LINE
  8
0
 62
     0
 10
31.298
 20
4.02527
 30
0.0
 11
31.3669
 21
4.02527
 31
0.0
  0
LINE
  8
0
 62
     0
 10
31.3669
 20
4.02527
 30
0.0
 11
31.3683
 21
4.04453
 31
0.0
  0
LINE
  8
0
 62
     0
 10
31.3683
 20
4.04453
 30
0.0
 11
31.422
 21
4.31465
 31
0.0
  0
LINE
  8
0
 62
     0
 10
31.422
 20
4.31465
 30
0.0
 11
31.4275
 21
4.33945
 31
0.0
  0
LINE
  8
0
 62
     0
 10
31.4275
 20
4.33945
 30
0.0
 11
31.4234
 21
4.36012
 31
0.0
  0
LINE
  8
0
 62
     0
 10
31.4234
 20
4.36012
 30
0.0
 11
31.4965
 21
4.62746
 31
0.0
  0
LINE
  8
0
 62
     0
 10
31.4965
 20
4.62746
 30
0.0
 11
31.5047
 21
4.65363
 31
0.0
  0
LINE
  8
0
 62
     0
 10
31.5047
 20
4.65363
 30
0.0
 11
31.5171
 21
4.76938
 31
0.0
  0
LINE
  8
0
 62
     0
 10
31.5171
 20
4.76938
 30
0.0
 11
31.9002
 21
5.97517
 31
0.0
  0
LINE
  8
0
 62
     0
 10
31.9002
 20
5.97517
 30
0.0
 11
31.9457
 21
6.09783
 31
0.0
  0
LINE
  8
0
 62
     0
 10
31.9457
 20
6.09783
 30
0.0
 11
31.9677
 21
6.21633
 31
0.0
  0
LINE
  8
0
 62
     0
 10
31.9677
 20
6.21633
 30
0.0
 11
32.2061
 21
6.80201
 31
0.0
  0
LINE
  8
0
 62
     0
 10
32.2061
 20
6.80201
 30
0.0
 11
32.5231
 21
7.36011
 31
0.0
  0
LINE
  8
0
 62
     0
 10
32.5231
 20
7.36011
 30
0.0
 11
32.5851
 21
7.46485
 31
0.0
  0
LINE
  8
0
 62
     0
 10
32.5851
 20
7.46485
 30
0.0
 11
32.6306
 21
7.56955
 31
0.0
  0
LINE
  8
0
 62
     0
 10
32.6306
 20
7.56955
 30
0.0
 11
33.3458
 21
8.46116
 31
0.0
  0
LINE
  8
0
 62
     0
 10
33.3458
 20
8.46116
 30
0.0
 11
33.4229
 21
8.53419
 31
0.0
  0
LINE
  8
0
 62
     0
 10
33.4229
 20
8.53419
 30
0.0
 11
33.4712
 21
8.60721
 31
0.0
  0
LINE
  8
0
 62
     0
 10
33.4712
 20
8.60721
 30
0.0
 11
33.8625
 21
8.89663
 31
0.0
  0
LINE
  8
0
 62
     0
 10
33.8625
 20
8.89663
 30
0.0
 11
34.3352
 21
9.08265
 31
0.0
  0
LINE
  8
0
 62
     0
 10
34.3352
 20
9.08265
 30
0.0
 11
34.4261
 21
9.10195
 31
0.0
  0
LINE
  8
0
 62
     0
 10
34.4261
 20
9.10195
 30
0.0
 11
34.4827
 21
9.10057
 31
0.0
  0
LINE
  8
0
 62
     0
 10
34.4827
 20
9.10057
 30
0.0
 11
34.8065
 21
9.0992
 31
0.0
  0
LINE
  8
0
 62
     0
 10
34.8065
 20
9.0992
 30
0.0
 11
35.0848
 21
9.03305
 31
0.0
  0
LINE
  8
0
 62
     0
 10
35.0848
 20
9.03305
 30
0.0
 11
35.1207
 21
8.99721
 31
0.0
  0
LINE
  8
0
 62
     0
 10
35.1207
 20
8.99721
 30
0.0
 11
35.1331
 21
8.95174
 31
0.0
  0
LINE
  8
0
 62
     0
 10
35.1331
 20
8.95174
 30
0.0
 11
35.2241
 21
8.7092
 31
0.0
  0
LINE
  8
0
 62
     0
 10
35.2241
 20
8.7092
 30
0.0
 11
35.2654
 21
8.4074
 31
0.0
  0
LINE
  8
0
 62
     0
 10
35.2654
 20
8.4074
 30
0.0
 11
35.253
 21
8.33025
 31
0.0
  0
LINE
  8
0
 62
     0
 10
35.253
 20
8.33025
 30
0.0
 11
35.2378
 21
8.24618
 31
0.0
  0
LINE
  8
0
 62
     0
 10
35.2378
 20
8.24618
 30
0.0
 11
34.9057
 21
7.39733
 31
0.0
  0
LINE
  8
0
 62
     0
 10
34.9057
 20
7.39733
 30
0.0
 11
34.8506
 21
7.29396
 31
0.0
  0
LINE
  8
0
 62
     0
 10
34.8506
 20
7.29396
 30
0.0
 11
34.7941
 21
7.17543
 31
0.0
  0
LINE
  8
0
 62
     0
 10
34.7941
 20
7.17543
 30
0.0
 11
34.422
 21
6.59804
 31
0.0
  0
LINE
  8
0
 62
     0
 10
34.422
 20
6.59804
 30
0.0
 11
33.9301
 21
5.98343
 31
0.0
  0
LINE
  8
0
 62
     0
 10
33.9301
 20
5.98343
 30
0.0
 11
33.8143
 21
5.84426
 31
0.0
  0
LINE
  8
0
 62
     0
 10
33.8143
 20
5.84426
 30
0.0
 11
33.7812
 21
5.79466
 31
0.0
  0
LINE
  8
0
 62
     0
 10
33.7812
 20
5.79466
 30
0.0
 11
33.4339
 21
5.41154
 31
0.0
  0
LINE
  8
0
 62
     0
 10
33.4339
 20
5.41154
 30
0.0
 11
33.3954
 21
5.37023
 31
0.0
  0
LINE
  8
0
 62
     0
 10
33.3954
 20
5.37023
 30
0.0
 11
33.332
 21
5.32613
 31
0.0
  0
LINE
  8
0
 62
     0
 10
33.332
 20
5.32613
 30
0.0
 11
32.9668
 21
4.9251
 31
0.0
  0
LINE
  8
0
 62
     0
 10
32.9668
 20
4.9251
 30
0.0
 11
32.9268
 21
4.88516
 31
0.0
  0
LINE
  8
0
 62
     0
 10
32.9268
 20
4.88516
 30
0.0
 11
32.8704
 21
4.82589
 31
0.0
  0
LINE
  8
0
 62
     0
 10
32.8704
 20
4.82589
 30
0.0
 11
32.6567
 21
4.62608
 31
0.0
  0
LINE
  8
0
 62
     0
 10
32.6567
 20
4.62608
 30
0.0
 11
32.4721
 21
4.47449
 31
0.0
  0
LINE
  8
0
 62
     0
 10
32.4721
 20
4.47449
 30
0.0
 11
32.4308
 21
4.43865
 31
0.0
  0
LINE
  8
0
 62
     0
 10
32.4308
 20
4.43865
 30
0.0
 11
32.3839
 21
4.39043
 31
0.0
  0
LINE
  8
0
 62
     0
 10
32.3839
 20
4.39043
 30
0.0
 11
31.965
 21
4.08312
 31
0.0
  0
LINE
  8
0
 62
     0
 10
31.965
 20
4.08312
 30
0.0
 11
31.9236
 21
4.05282
 31
0.0
  0
LINE
  8
0
 62
     0
 10
31.9236
 20
4.05282
 30
0.0
 11
31.8919
 21
3.9963
 31
0.0
  0
LINE
  8
0
 62
     0
 10
31.8919
 20
3.9963
 30
0.0
 11
31.8341
 21
3.74276
 31
0.0
  0
LINE
  8
0
 62
     0
 10
31.8341
 20
3.74276
 30
0.0
 11
31.8217
 21
3.48368
 31
0.0
  0
LINE
  8
0
 62
     0
 10
31.8217
 20
3.48368
 30
0.0
 11
31.8134
 21
3.42442
 31
0.0
  0
LINE
  8
0
 62
     0
 10
31.8134
 20
3.42442
 30
0.0
 11
31.7941
 21
3.35001
 31
0.0
  0
LINE
  8
0
 62
     0
 10
31.7941
 20
3.35001
 30
0.0
 11
31.7555
 21
2.76986
 31
0.0
  0
LINE
  8
0
 62
     0
 10
31.7555
 20
2.76986
 30
0.0
 11
31.7528
 21
2.70784
 31
0.0
  0
LINE
  8
0
 62
     0
 10
31.7528
 20
2.70784
 30
0.0
 11
31.7445
 21
2.63067
 31
0.0
  0
LINE
  8
0
 62
     0
 10
31.7445
 20
2.63067
 30
0.0
 11
31.7693
 21
2.04914
 31
0.0
  0
LINE
  8
0
 62
     0
 10
31.7693
 20
2.04914
 30
0.0
 11
31.7748
 21
1.99126
 31
0.0
  0
LINE
  8
0
 62
     0
 10
31.7748
 20
1.99126
 30
0.0
 11
31.772
 21
1.91823
 31
0.0
  0
LINE
  8
0
 62
     0
 10
31.772
 20
1.91823
 30
0.0
 11
31.8947
 21
1.41525
 31
0.0
  0
LINE
  8
0
 62
     0
 10
31.8947
 20
1.41525
 30
0.0
 11
31.9126
 21
1.36839
 31
0.0
  0
LINE
  8
0
 62
     0
 10
31.9126
 20
1.36839
 30
0.0
 11
31.9098
 21
1.30776
 31
0.0
  0
LINE
  8
0
 62
     0
 10
31.9098
 20
1.30776
 30
0.0
 11
31.9939
 21
1.12034
 31
0.0
  0
LINE
  8
0
 62
     0
 10
31.9939
 20
1.12034
 30
0.0
 11
32.1276
 21
1.04869
 31
0.0
  0
LINE
  8
0
 62
     0
 10
32.1276
 20
1.04869
 30
0.0
 11
32.1496
 21
1.03766
 31
0.0
  0
LINE
  8
0
 62
     0
 10
32.1496
 20
1.03766
 30
0.0
 11
32.1565
 21
1.01424
 31
0.0
  0
LINE
  8
0
 62
     0
 10
32.1565
 20
1.01424
 30
0.0
 11
32.2654
 21
0.970139
 31
0.0
  0
LINE
  8
0
 62
     0
 10
32.2654
 20
0.970139
 30
0.0
 11
32.3922
 21
1.03215
 31
0.0
  0
LINE
  8
0
 62
     0
 10
32.3922
 20
1.03215
 30
0.0
 11
32.4142
 21
1.04317
 31
0.0
  0
LINE
  8
0
 62
     0
 10
32.4142
 20
1.04317
 30
0.0
 11
32.4404
 21
1.03077
 31
0.0
  0
LINE
  8
0
 62
     0
 10
32.4404
 20
1.03077
 30
0.0
 11
32.5837
 21
1.10657
 31
0.0
  0
LINE
  8
0
 62
     0
 10
32.5837
 20
1.10657
 30
0.0
 11
32.7326
 21
1.26642
 31
0.0
  0
LINE
  8
0
 62
     0
 10
32.7326
 20
1.26642
 30
0.0
 11
32.7615
 21
1.29673
 31
0.0
  0
LINE
  8
0
 62
     0
 10
32.7615
 20
1.29673
 30
0.0
 11
32.7877
 21
1.31189
 31
0.0
  0
LINE
  8
0
 62
     0
 10
32.7877
 20
1.31189
 30
0.0
 11
33.0702
 21
1.66329
 31
0.0
  0
LINE
  8
0
 62
     0
 10
33.0702
 20
1.66329
 30
0.0
 11
33.0977
 21
1.69912
 31
0.0
  0
LINE
  8
0
 62
     0
 10
33.0977
 20
1.69912
 30
0.0
 11
33.1239
 21
1.71566
 31
0.0
  0
LINE
  8
0
 62
     0
 10
33.1239
 20
1.71566
 30
0.0
 11
33.3775
 21
2.1084
 31
0.0
  0
LINE
  8
0
 62
     0
 10
33.3775
 20
2.1084
 30
0.0
 11
33.4009
 21
2.1456
 31
0.0
  0
LINE
  8
0
 62
     0
 10
33.4009
 20
2.1456
 30
0.0
 11
33.3968
 21
2.15663
 31
0.0
  0
LINE
  8
0
 62
     0
 10
33.3968
 20
2.15663
 30
0.0
 11
33.4863
 21
2.32062
 31
0.0
  0
LINE
  8
0
 62
     0
 10
33.4863
 20
2.32062
 30
0.0
 11
33.6117
 21
2.52043
 31
0.0
  0
LINE
  8
0
 62
     0
 10
33.6117
 20
2.52043
 30
0.0
 11
33.6269
 21
2.54799
 31
0.0
  0
LINE
  8
0
 62
     0
 10
33.6269
 20
2.54799
 30
0.0
 11
33.6241
 21
2.57142
 31
0.0
  0
LINE
  8
0
 62
     0
 10
33.6241
 20
2.57142
 30
0.0
 11
33.7923
 21
2.8677
 31
0.0
  0
LINE
  8
0
 62
     0
 10
33.7923
 20
2.8677
 30
0.0
 11
33.8088
 21
2.90077
 31
0.0
  0
LINE
  8
0
 62
     0
 10
33.8088
 20
2.90077
 30
0.0
 11
33.8088
 21
2.90077
 31
0.0
  0
LINE
  8
0
 62
     0
 10
33.8088
 20
2.90077
 30
0.0
 11
33.8226
 21
2.93109
 31
0.0
  0
LINE
  8
0
 62
     0
 10
33.8226
 20
2.93109
 30
0.0
 11
33.8253
 21
2.93384
 31
0.0
  0
LINE
  8
0
 62
     0
 10
33.8253
 20
2.93384
 30
0.0
 11
33.8253
 21
2.93384
 31
0.0
  0
LINE
  8
0
 62
     0
 10
33.8253
 20
2.93384
 30
0.0
 11
33.8887
 21
2.95313
 31
0.0
  0
LINE
  8
0
 62
     0
 10
33.8887
 20
2.95313
 30
0.0
 11
33.897
 21
2.95038
 31
0.0
  0
LINE
  8
0
 62
     0
 10
33.897
 20
2.95038
 30
0.0
 11
33.897
 21
2.94211
 31
0.0
  0
LINE
  8
0
 62
     0
 10
33.897
 20
2.94211
 30
0.0
 11
33.9314
 21
2.90491
 31
0.0
  0
LINE
  8
0
 62
     0
 10
33.9314
 20
2.90491
 30
0.0
 11
33.9301
 21
2.90077
 31
0.0
  0
LINE
  8
0
 62
     0
 10
32.6953
 20
6.61596
 30
0.0
 11
32.6251
 21
6.49471
 31
0.0
  0
LINE
  8
0
 62
     0
 10
32.6251
 20
6.49471
 30
0.0
 11
32.4156
 21
5.96967
 31
0.0
  0
LINE
  8
0
 62
     0
 10
32.4156
 20
5.96967
 30
0.0
 11
32.2847
 21
5.48047
 31
0.0
  0
LINE
  8
0
 62
     0
 10
32.2847
 20
5.48047
 30
0.0
 11
32.2544
 21
5.37573
 31
0.0
  0
LINE
  8
0
 62
     0
 10
32.2544
 20
5.37573
 30
0.0
 11
32.2048
 21
5.26962
 31
0.0
  0
LINE
  8
0
 62
     0
 10
32.2048
 20
5.26962
 30
0.0
 11
31.976
 21
4.3174
 31
0.0
  0
LINE
  8
0
 62
     0
 10
31.976
 20
4.3174
 30
0.0
 11
31.9567
 21
4.22921
 31
0.0
  0
LINE
  8
0
 62
     0
 10
31.9567
 20
4.22921
 30
0.0
 11
32.0146
 21
4.25951
 31
0.0
  0
LINE
  8
0
 62
     0
 10
32.0146
 20
4.25951
 30
0.0
 11
32.4018
 21
4.55581
 31
0.0
  0
LINE
  8
0
 62
     0
 10
32.4018
 20
4.55581
 30
0.0
 11
32.8235
 21
4.94577
 31
0.0
  0
LINE
  8
0
 62
     0
 10
32.8235
 20
4.94577
 30
0.0
 11
32.8993
 21
5.02296
 31
0.0
  0
LINE
  8
0
 62
     0
 10
32.8993
 20
5.02296
 30
0.0
 11
32.9599
 21
5.09736
 31
0.0
  0
LINE
  8
0
 62
     0
 10
32.9599
 20
5.09736
 30
0.0
 11
33.6682
 21
5.84976
 31
0.0
  0
LINE
  8
0
 62
     0
 10
33.6682
 20
5.84976
 30
0.0
 11
33.7316
 21
5.92145
 31
0.0
  0
LINE
  8
0
 62
     0
 10
33.7316
 20
5.92145
 30
0.0
 11
33.8212
 21
6.03719
 31
0.0
  0
LINE
  8
0
 62
     0
 10
33.8212
 20
6.03719
 30
0.0
 11
34.2897
 21
6.65318
 31
0.0
  0
LINE
  8
0
 62
     0
 10
34.2897
 20
6.65318
 30
0.0
 11
34.6907
 21
7.24158
 31
0.0
  0
LINE
  8
0
 62
     0
 10
34.6907
 20
7.24158
 30
0.0
 11
34.7459
 21
7.34356
 31
0.0
  0
LINE
  8
0
 62
     0
 10
34.7459
 20
7.34356
 30
0.0
 11
34.7803
 21
7.42625
 31
0.0
  0
LINE
  8
0
 62
     0
 10
34.7803
 20
7.42625
 30
0.0
 11
34.9801
 21
7.87686
 31
0.0
  0
LINE
  8
0
 62
     0
 10
34.9801
 20
7.87686
 30
0.0
 11
35.1359
 21
8.29716
 31
0.0
  0
LINE
  8
0
 62
     0
 10
35.1359
 20
8.29716
 30
0.0
 11
35.1482
 21
8.3633
 31
0.0
  0
LINE
  8
0
 62
     0
 10
35.1482
 20
8.3633
 30
0.0
 11
35.1289
 21
8.38398
 31
0.0
  0
LINE
  8
0
 62
     0
 10
35.1289
 20
8.38398
 30
0.0
 11
35.1276
 21
8.54523
 31
0.0
  0
LINE
  8
0
 62
     0
 10
35.1276
 20
8.54523
 30
0.0
 11
35.1496
 21
8.71333
 31
0.0
  0
LINE
  8
0
 62
     0
 10
35.1496
 20
8.71333
 30
0.0
 11
35.1427
 21
8.73813
 31
0.0
  0
LINE
  8
0
 62
     0
 10
35.1427
 20
8.73813
 30
0.0
 11
35.1152
 21
8.74367
 31
0.0
  0
LINE
  8
0
 62
     0
 10
35.1152
 20
8.74367
 30
0.0
 11
35.049
 21
8.83874
 31
0.0
  0
LINE
  8
0
 62
     0
 10
35.049
 20
8.83874
 30
0.0
 11
35.0118
 21
8.94211
 31
0.0
  0
LINE
  8
0
 62
     0
 10
35.0118
 20
8.94211
 30
0.0
 11
34.9939
 21
8.95311
 31
0.0
  0
LINE
  8
0
 62
     0
 10
34.9939
 20
8.95311
 30
0.0
 11
34.9636
 21
8.95724
 31
0.0
  0
LINE
  8
0
 62
     0
 10
34.9636
 20
8.95724
 30
0.0
 11
34.75
 21
8.99721
 31
0.0
  0
LINE
  8
0
 62
     0
 10
34.75
 20
8.99721
 30
0.0
 11
34.7238
 21
8.99171
 31
0.0
  0
LINE
  8
0
 62
     0
 10
34.7238
 20
8.99171
 30
0.0
 11
34.6783
 21
8.97791
 31
0.0
  0
LINE
  8
0
 62
     0
 10
34.6783
 20
8.97791
 30
0.0
 11
34.4083
 21
8.88284
 31
0.0
  0
LINE
  8
0
 62
     0
 10
34.4083
 20
8.88284
 30
0.0
 11
34.3765
 21
8.86492
 31
0.0
  0
LINE
  8
0
 62
     0
 10
34.3765
 20
8.86492
 30
0.0
 11
34.3076
 21
8.83874
 31
0.0
  0
LINE
  8
0
 62
     0
 10
34.3076
 20
8.83874
 30
0.0
 11
33.8777
 21
8.48459
 31
0.0
  0
LINE
  8
0
 62
     0
 10
33.8777
 20
8.48459
 30
0.0
 11
33.8364
 21
8.44049
 31
0.0
  0
LINE
  8
0
 62
     0
 10
33.8364
 20
8.44049
 30
0.0
 11
33.7909
 21
8.37434
 31
0.0
  0
LINE
  8
0
 62
     0
 10
33.7909
 20
8.37434
 30
0.0
 11
33.4133
 21
7.92508
 31
0.0
  0
LINE
  8
0
 62
     0
 10
33.4133
 20
7.92508
 30
0.0
 11
33.3788
 21
7.87273
 31
0.0
  0
LINE
  8
0
 62
     0
 10
33.3788
 20
7.87273
 30
0.0
 11
33.3196
 21
7.81763
 31
0.0
  0
LINE
  8
0
 62
     0
 10
33.3196
 20
7.81763
 30
0.0
 11
33.1418
 21
7.55442
 31
0.0
  0
LINE
  8
0
 62
     0
 10
33.1418
 20
7.55442
 30
0.0
 11
33.0261
 21
7.29396
 31
0.0
  0
LINE
  8
0
 62
     0
 10
33.0261
 20
7.29396
 30
0.0
 11
32.9985
 21
7.23882
 31
0.0
  0
LINE
  8
0
 62
     0
 10
32.9985
 20
7.23882
 30
0.0
 11
32.9475
 21
7.17405
 31
0.0
  0
LINE
  8
0
 62
     0
 10
32.9475
 20
7.17405
 30
0.0
 11
32.8028
 21
6.90397
 31
0.0
  0
LINE
  8
0
 62
     0
 10
32.8028
 20
6.90397
 30
0.0
 11
32.7174
 21
6.66556
 31
0.0
  0
LINE
  8
0
 62
     0
 10
32.7174
 20
6.66556
 30
0.0
 11
32.6953
 21
6.61596
 31
0.0
  0
LINE
  8
0
 62
     0
 10
31.3393
 20
3.91502
 30
0.0
 11
31.2897
 21
3.89297
 31
0.0
  0
LINE
  8
0
 62
     0
 10
31.2897
 20
3.89297
 30
0.0
 11
30.8598
 21
3.8475
 31
0.0
  0
LINE
  8
0
 62
     0
 10
30.8598
 20
3.8475
 30
0.0
 11
30.8212
 21
3.82683
 31
0.0
  0
LINE
  8
0
 62
     0
 10
30.8212
 20
3.82683
 30
0.0
 11
30.7661
 21
3.78548
 31
0.0
  0
LINE
  8
0
 62
     0
 10
30.7661
 20
3.78548
 30
0.0
 11
30.5842
 21
3.65044
 31
0.0
  0
LINE
  8
0
 62
     0
 10
30.5842
 20
3.65044
 30
0.0
 11
30.4574
 21
3.5264
 31
0.0
  0
LINE
  8
0
 62
     0
 10
30.4574
 20
3.5264
 30
0.0
 11
30.4298
 21
3.49057
 31
0.0
  0
LINE
  8
0
 62
     0
 10
30.4298
 20
3.49057
 30
0.0
 11
30.3885
 21
3.43269
 31
0.0
  0
LINE
  8
0
 62
     0
 10
30.3885
 20
3.43269
 30
0.0
 11
30.2603
 21
3.2315
 31
0.0
  0
LINE
  8
0
 62
     0
 10
30.2603
 20
3.2315
 30
0.0
 11
30.1818
 21
3.06062
 31
0.0
  0
LINE
  8
0
 62
     0
 10
30.1818
 20
3.06062
 30
0.0
 11
30.1653
 21
3.01653
 31
0.0
  0
LINE
  8
0
 62
     0
 10
30.1653
 20
3.01653
 30
0.0
 11
30.1267
 21
2.9614
 31
0.0
  0
LINE
  8
0
 62
     0
 10
30.1267
 20
2.9614
 30
0.0
 11
30.0523
 21
2.74781
 31
0.0
  0
LINE
  8
0
 62
     0
 10
30.0523
 20
2.74781
 30
0.0
 11
30.0468
 21
2.57004
 31
0.0
  0
LINE
  8
0
 62
     0
 10
30.0468
 20
2.57004
 30
0.0
 11
30.044
 21
2.53146
 31
0.0
  0
LINE
  8
0
 62
     0
 10
30.044
 20
2.53146
 30
0.0
 11
30.0302
 21
2.49287
 31
0.0
  0
LINE
  8
0
 62
     0
 10
30.0302
 20
2.49287
 30
0.0
 11
30.0867
 21
2.1773
 31
0.0
  0
LINE
  8
0
 62
     0
 10
30.0867
 20
2.1773
 30
0.0
 11
30.0991
 21
2.15112
 31
0.0
  0
LINE
  8
0
 62
     0
 10
30.0991
 20
2.15112
 30
0.0
 11
30.0964
 21
2.11391
 31
0.0
  0
LINE
  8
0
 62
     0
 10
30.0964
 20
2.11391
 30
0.0
 11
30.1708
 21
1.99126
 31
0.0
  0
LINE
  8
0
 62
     0
 10
30.1708
 20
1.99126
 30
0.0
 11
30.3127
 21
1.99264
 31
0.0
  0
LINE
  8
0
 62
     0
 10
30.3127
 20
1.99264
 30
0.0
 11
30.3416
 21
1.99126
 31
0.0
  0
LINE
  8
0
 62
     0
 10
30.3416
 20
1.99126
 30
0.0
 11
30.3582
 21
1.97473
 31
0.0
  0
LINE
  8
0
 62
     0
 10
30.3582
 20
1.97473
 30
0.0
 11
30.5897
 21
2.03536
 31
0.0
  0
LINE
  8
0
 62
     0
 10
30.5897
 20
2.03536
 30
0.0
 11
30.6117
 21
2.04639
 31
0.0
  0
LINE
  8
0
 62
     0
 10
30.6117
 20
2.04639
 30
0.0
 11
30.6117
 21
2.04639
 31
0.0
  0
LINE
  8
0
 62
     0
 10
30.6117
 20
2.04639
 30
0.0
 11
30.6903
 21
2.09324
 31
0.0
  0
LINE
  8
0
 62
     0
 10
30.6903
 20
2.09324
 30
0.0
 11
30.8295
 21
2.20486
 31
0.0
  0
LINE
  8
0
 62
     0
 10
30.8295
 20
2.20486
 30
0.0
 11
30.8488
 21
2.22278
 31
0.0
  0
LINE
  8
0
 62
     0
 10
30.8488
 20
2.22278
 30
0.0
 11
30.8474
 21
2.23655
 31
0.0
  0
LINE
  8
0
 62
     0
 10
30.8474
 20
2.23655
 30
0.0
 11
31.0362
 21
2.43499
 31
0.0
  0
LINE
  8
0
 62
     0
 10
31.0362
 20
2.43499
 30
0.0
 11
31.0527
 21
2.45429
 31
0.0
  0
LINE
  8
0
 62
     0
 10
31.0527
 20
2.45429
 30
0.0
 11
31.0624
 21
2.45153
 31
0.0
  0
LINE
  8
0
 62
     0
 10
31.0624
 20
2.45153
 30
0.0
 11
31.2112
 21
2.66926
 31
0.0
  0
LINE
  8
0
 62
     0
 10
31.2112
 20
2.66926
 30
0.0
 11
31.2236
 21
2.6858
 31
0.0
  0
LINE
  8
0
 62
     0
 10
31.2236
 20
2.6858
 30
0.0
 11
31.2043
 21
2.77261
 31
0.0
  0
LINE
  8
0
 62
     0
 10
31.2043
 20
2.77261
 30
0.0
 11
31.225
 21
3.2756
 31
0.0
  0
LINE
  8
0
 62
     0
 10
31.225
 20
3.2756
 30
0.0
 11
31.3214
 21
3.81166
 31
0.0
  0
LINE
  8
0
 62
     0
 10
31.3214
 20
3.81166
 30
0.0
 11
31.3393
 21
3.91502
 31
0.0
  0
ENDSEC
  0
EOF
