  0
SECTION
  2
HEADER
  9
$ACADVER
  1
AC1009
  9
$EXTMIN
 10
0.0
 20
0.0
 30
0.0
  9
$EXTMAX
 10
1000.0
 20
1000.0
 30
0.0
  9
$FILLMODE
 70
 0
  9
$SPLFRAME
 70
 1
  0
ENDSEC
  0
SECTION
  2
TABLES
  0
TABLE
  2
LAYER
 70
1
  0
LAYER
  2
0
 70
     0
 62
     7
  6
CONTINUOUS
  0
ENDTAB
  0
ENDSEC
  0
SECTION
  2
ENTITIES
  0
LINE
  8
0
 62
     0
 10
5.33439
 20
9.14742
 30
0.0
 11
5.12491
 21
9.20944
 31
0.0
  0
LINE
  8
0
 62
     0
 10
5.12491
 20
9.20944
 30
0.0
 11
4.37388
 21
8.97241
 31
0.0
  0
LINE
  8
0
 62
     0
 10
4.37388
 20
8.97241
 30
0.0
 11
3.35139
 21
8.06842
 31
0.0
  0
LINE
  8
0
 62
     0
 10
3.35139
 20
8.06842
 30
0.0
 11
2.34129
 21
6.66006
 31
0.0
  0
LINE
  8
0
 62
     0
 10
2.34129
 20
6.66006
 30
0.0
 11
1.42214
 21
4.97611
 31
0.0
  0
LINE
  8
0
 62
     0
 10
1.42214
 20
4.97611
 30
0.0
 11
0.672483
 21
3.24115
 31
0.0
  0
LINE
  8
0
 62
     0
 10
0.672483
 20
3.24115
 30
0.0
 11
0.170877
 21
1.68258
 31
0.0
  0
LINE
  8
0
 62
     0
 10
0.170877
 20
1.68258
 30
0.0
 11
-0.00689021
 21
0.526411
 31
0.0
  0
LINE
  8
0
 62
     0
 10
-0.00689021
 20
0.526411
 30
0.0
 11
0.129536
 21
0.0248047
 31
0.0
  0
LINE
  8
0
 62
     0
 10
0.129536
 20
0.0248047
 30
0.0
 11
0.219108
 21
-0.00275608
 31
0.0
  0
LINE
  8
0
 62
     0
 10
0.219108
 20
-0.00275608
 30
0.0
 11
0.303168
 21
0.246669
 31
0.0
  0
LINE
  8
0
 62
     0
 10
0.303168
 20
0.246669
 30
0.0
 11
0.677997
 21
0.953604
 31
0.0
  0
LINE
  8
0
 62
     0
 10
0.677997
 20
0.953604
 30
0.0
 11
1.36701
 21
1.96508
 31
0.0
  0
LINE
  8
0
 62
     0
 10
1.36701
 20
1.96508
 30
0.0
 11
2.11942
 21
2.80569
 31
0.0
  0
LINE
  8
0
 62
     0
 10
2.11942
 20
2.80569
 30
0.0
 11
2.59071
 21
3.19429
 31
0.0
  0
LINE
  8
0
 62
     0
 10
2.59071
 20
3.19429
 30
0.0
 11
2.77124
 21
3.24942
 31
0.0
  0
LINE
  8
0
 62
     0
 10
2.77124
 20
3.24942
 30
0.0
 11
2.81533
 21
3.26319
 31
0.0
  0
LINE
  8
0
 62
     0
 10
2.81533
 20
3.26319
 30
0.0
 11
2.97656
 21
3.21772
 31
0.0
  0
LINE
  8
0
 62
     0
 10
2.97656
 20
3.21772
 30
0.0
 11
2.96967
 21
2.95865
 31
0.0
  0
LINE
  8
0
 62
     0
 10
2.96967
 20
2.95865
 30
0.0
 11
2.8236
 21
2.53559
 31
0.0
  0
LINE
  8
0
 62
     0
 10
2.8236
 20
2.53559
 30
0.0
 11
2.6169
 21
2.01056
 31
0.0
  0
LINE
  8
0
 62
     0
 10
2.6169
 20
2.01056
 30
0.0
 11
2.42259
 21
1.4497
 31
0.0
  0
LINE
  8
0
 62
     0
 10
2.42259
 20
1.4497
 30
0.0
 11
2.32062
 21
0.915017
 31
0.0
  0
LINE
  8
0
 62
     0
 10
2.32062
 20
0.915017
 30
0.0
 11
2.38538
 21
0.469911
 31
0.0
  0
LINE
  8
0
 62
     0
 10
2.38538
 20
0.469911
 30
0.0
 11
2.60174
 21
0.21773
 31
0.0
  0
LINE
  8
0
 62
     0
 10
2.60174
 20
0.21773
 30
0.0
 11
2.69407
 21
0.179145
 31
0.0
  0
LINE
  8
0
 62
     0
 10
2.69407
 20
0.179145
 30
0.0
 11
2.80293
 21
0.13367
 31
0.0
  0
LINE
  8
0
 62
     0
 10
2.80293
 20
0.13367
 30
0.0
 11
3.20945
 21
0.172255
 31
0.0
  0
LINE
  8
0
 62
     0
 10
3.20945
 20
0.172255
 30
0.0
 11
3.75377
 21
0.549836
 31
0.0
  0
LINE
  8
0
 62
     0
 10
3.75377
 20
0.549836
 30
0.0
 11
4.3422
 21
1.2678
 31
0.0
  0
LINE
  8
0
 62
     0
 10
4.3422
 20
1.2678
 30
0.0
 11
4.83828
 21
2.02158
 31
0.0
  0
LINE
  8
0
 62
     0
 10
4.83828
 20
2.02158
 30
0.0
 11
4.99262
 21
2.27928
 31
0.0
  0
LINE
  8
0
 62
     0
 10
4.99262
 20
2.27928
 30
0.0
 11
4.78317
 21
2.27928
 31
0.0
  0
LINE
  8
0
 62
     0
 10
4.78317
 20
2.27928
 30
0.0
 11
4.65776
 21
2.07532
 31
0.0
  0
LINE
  8
0
 62
     0
 10
4.65776
 20
2.07532
 30
0.0
 11
4.2485
 21
1.48139
 31
0.0
  0
LINE
  8
0
 62
     0
 10
4.2485
 20
1.48139
 30
0.0
 11
3.73447
 21
0.873675
 31
0.0
  0
LINE
  8
0
 62
     0
 10
3.73447
 20
0.873675
 30
0.0
 11
3.28111
 21
0.540191
 31
0.0
  0
LINE
  8
0
 62
     0
 10
3.28111
 20
0.540191
 30
0.0
 11
2.98759
 21
0.515387
 31
0.0
  0
LINE
  8
0
 62
     0
 10
2.98759
 20
0.515387
 30
0.0
 11
2.93109
 21
0.559484
 31
0.0
  0
LINE
  8
0
 62
     0
 10
2.93109
 20
0.559484
 30
0.0
 11
2.88561
 21
0.596692
 31
0.0
  0
LINE
  8
0
 62
     0
 10
2.88561
 20
0.596692
 30
0.0
 11
2.89939
 21
0.890214
 31
0.0
  0
LINE
  8
0
 62
     0
 10
2.89939
 20
0.890214
 30
0.0
 11
3.05511
 21
1.46485
 31
0.0
  0
LINE
  8
0
 62
     0
 10
3.05511
 20
1.46485
 30
0.0
 11
3.27835
 21
2.07395
 31
0.0
  0
LINE
  8
0
 62
     0
 10
3.27835
 20
2.07395
 30
0.0
 11
3.41478
 21
2.41432
 31
0.0
  0
LINE
  8
0
 62
     0
 10
3.41478
 20
2.41432
 30
0.0
 11
3.44923
 21
2.50527
 31
0.0
  0
LINE
  8
0
 62
     0
 10
3.44923
 20
2.50527
 30
0.0
 11
3.49333
 21
2.62378
 31
0.0
  0
LINE
  8
0
 62
     0
 10
3.49333
 20
2.62378
 30
0.0
 11
3.59668
 21
2.99034
 31
0.0
  0
LINE
  8
0
 62
     0
 10
3.59668
 20
2.99034
 30
0.0
 11
3.63252
 21
3.40513
 31
0.0
  0
LINE
  8
0
 62
     0
 10
3.63252
 20
3.40513
 30
0.0
 11
3.50159
 21
3.67524
 31
0.0
  0
LINE
  8
0
 62
     0
 10
3.50159
 20
3.67524
 30
0.0
 11
3.23426
 21
3.74276
 31
0.0
  0
LINE
  8
0
 62
     0
 10
3.23426
 20
3.74276
 30
0.0
 11
3.15157
 21
3.72897
 31
0.0
  0
LINE
  8
0
 62
     0
 10
3.15157
 20
3.72897
 30
0.0
 11
2.99034
 21
3.70417
 31
0.0
  0
LINE
  8
0
 62
     0
 10
2.99034
 20
3.70417
 30
0.0
 11
2.53697
 21
3.44785
 31
0.0
  0
LINE
  8
0
 62
     0
 10
2.53697
 20
3.44785
 30
0.0
 11
1.84519
 21
2.87321
 31
0.0
  0
LINE
  8
0
 62
     0
 10
1.84519
 20
2.87321
 30
0.0
 11
1.18236
 21
2.1456
 31
0.0
  0
LINE
  8
0
 62
     0
 10
1.18236
 20
2.1456
 30
0.0
 11
0.775836
 21
1.60128
 31
0.0
  0
LINE
  8
0
 62
     0
 10
0.775836
 20
1.60128
 30
0.0
 11
0.660079
 21
1.40836
 31
0.0
  0
LINE
  8
0
 62
     0
 10
0.660079
 20
1.40836
 30
0.0
 11
0.691776
 21
1.51171
 31
0.0
  0
LINE
  8
0
 62
     0
 10
0.691776
 20
1.51171
 30
0.0
 11
0.898483
 21
2.19384
 31
0.0
  0
LINE
  8
0
 62
     0
 10
0.898483
 20
2.19384
 30
0.0
 11
1.15893
 21
2.89801
 31
0.0
  0
LINE
  8
0
 62
     0
 10
1.15893
 20
2.89801
 30
0.0
 11
1.21681
 21
3.01239
 31
0.0
  0
LINE
  8
0
 62
     0
 10
1.21681
 20
3.01239
 30
0.0
 11
1.46348
 21
3.19705
 31
0.0
  0
LINE
  8
0
 62
     0
 10
1.46348
 20
3.19705
 30
0.0
 11
2.18833
 21
3.77582
 31
0.0
  0
LINE
  8
0
 62
     0
 10
2.18833
 20
3.77582
 30
0.0
 11
3.2315
 21
4.70186
 31
0.0
  0
LINE
  8
0
 62
     0
 10
3.2315
 20
4.70186
 30
0.0
 11
4.24575
 21
5.76986
 31
0.0
  0
LINE
  8
0
 62
     0
 10
4.24575
 20
5.76986
 30
0.0
 11
4.93614
 21
6.64351
 31
0.0
  0
LINE
  8
0
 62
     0
 10
4.93614
 20
6.64351
 30
0.0
 11
5.13595
 21
6.95357
 31
0.0
  0
LINE
  8
0
 62
     0
 10
5.13595
 20
6.95357
 30
0.0
 11
5.22415
 21
7.0914
 31
0.0
  0
LINE
  8
0
 62
     0
 10
5.22415
 20
7.0914
 30
0.0
 11
5.45289
 21
7.52683
 31
0.0
  0
LINE
  8
0
 62
     0
 10
5.45289
 20
7.52683
 30
0.0
 11
5.69817
 21
8.1952
 31
0.0
  0
LINE
  8
0
 62
     0
 10
5.69817
 20
8.1952
 30
0.0
 11
5.71059
 21
8.79327
 31
0.0
  0
LINE
  8
0
 62
     0
 10
5.71059
 20
8.79327
 30
0.0
 11
5.44463
 21
9.11712
 31
0.0
  0
LINE
  8
0
 62
     0
 10
5.44463
 20
9.11712
 30
0.0
 11
5.33439
 21
9.14742
 31
0.0
  0
LINE
  8
0
 62
     0
 10
5.1635
 20
7.57647
 30
0.0
 11
4.99678
 21
7.24158
 31
0.0
  0
LINE
  8
0
 62
     0
 10
4.99678
 20
7.24158
 30
0.0
 11
4.35183
 21
6.30453
 31
0.0
  0
LINE
  8
0
 62
     0
 10
4.35183
 20
6.30453
 30
0.0
 11
3.33485
 21
5.14837
 31
0.0
  0
LINE
  8
0
 62
     0
 10
3.33485
 20
5.14837
 30
0.0
 11
2.29306
 21
4.18648
 31
0.0
  0
LINE
  8
0
 62
     0
 10
2.29306
 20
4.18648
 30
0.0
 11
1.63298
 21
3.65457
 31
0.0
  0
LINE
  8
0
 62
     0
 10
1.63298
 20
3.65457
 30
0.0
 11
1.40422
 21
3.49195
 31
0.0
  0
LINE
  8
0
 62
     0
 10
1.40422
 20
3.49195
 30
0.0
 11
1.52549
 21
3.79236
 31
0.0
  0
LINE
  8
0
 62
     0
 10
1.52549
 20
3.79236
 30
0.0
 11
2.15112
 21
5.14008
 31
0.0
  0
LINE
  8
0
 62
     0
 10
2.15112
 20
5.14008
 30
0.0
 11
2.90215
 21
6.43957
 31
0.0
  0
LINE
  8
0
 62
     0
 10
2.90215
 20
6.43957
 30
0.0
 11
3.08543
 21
6.71657
 31
0.0
  0
LINE
  8
0
 62
     0
 10
3.08543
 20
6.71657
 30
0.0
 11
3.26182
 21
6.98803
 31
0.0
  0
LINE
  8
0
 62
     0
 10
3.26182
 20
6.98803
 30
0.0
 11
4.12309
 21
8.05878
 31
0.0
  0
LINE
  8
0
 62
     0
 10
4.12309
 20
8.05878
 30
0.0
 11
4.90583
 21
8.61826
 31
0.0
  0
LINE
  8
0
 62
     0
 10
4.90583
 20
8.61826
 30
0.0
 11
5.04225
 21
8.6348
 31
0.0
  0
LINE
  8
0
 62
     0
 10
5.04225
 20
8.6348
 30
0.0
 11
5.09598
 21
8.64168
 31
0.0
  0
LINE
  8
0
 62
     0
 10
5.09598
 20
8.64168
 30
0.0
 11
5.26549
 21
8.59758
 31
0.0
  0
LINE
  8
0
 62
     0
 10
5.26549
 20
8.59758
 30
0.0
 11
5.38536
 21
8.41431
 31
0.0
  0
LINE
  8
0
 62
     0
 10
5.38536
 20
8.41431
 30
0.0
 11
5.36332
 21
8.07667
 31
0.0
  0
LINE
  8
0
 62
     0
 10
5.36332
 20
8.07667
 30
0.0
 11
5.22415
 21
7.69634
 31
0.0
  0
LINE
  8
0
 62
     0
 10
5.22415
 20
7.69634
 30
0.0
 11
5.1635
 21
7.57647
 31
0.0
  0
LINE
  8
0
 62
     0
 10
5.53007
 20
0.675238
 30
0.0
 11
5.44601
 21
0.717959
 31
0.0
  0
LINE
  8
0
 62
     0
 10
5.44601
 20
0.717959
 30
0.0
 11
5.22277
 21
1.16996
 31
0.0
  0
LINE
  8
0
 62
     0
 10
5.22277
 20
1.16996
 30
0.0
 11
5.28066
 21
1.84795
 31
0.0
  0
LINE
  8
0
 62
     0
 10
5.28066
 20
1.84795
 30
0.0
 11
5.33714
 21
2.00367
 31
0.0
  0
LINE
  8
0
 62
     0
 10
5.33714
 20
2.00367
 30
0.0
 11
5.60585
 21
2.0395
 31
0.0
  0
LINE
  8
0
 62
     0
 10
5.60585
 20
2.0395
 30
0.0
 11
6.3803
 21
2.41294
 31
0.0
  0
LINE
  8
0
 62
     0
 10
6.3803
 20
2.41294
 30
0.0
 11
6.91914
 21
3.0744
 31
0.0
  0
LINE
  8
0
 62
     0
 10
6.91914
 20
3.0744
 30
0.0
 11
6.90672
 21
3.65732
 31
0.0
  0
LINE
  8
0
 62
     0
 10
6.90672
 20
3.65732
 30
0.0
 11
6.44095
 21
3.84609
 31
0.0
  0
LINE
  8
0
 62
     0
 10
6.44095
 20
3.84609
 30
0.0
 11
6.30178
 21
3.82266
 31
0.0
  0
LINE
  8
0
 62
     0
 10
6.30178
 20
3.82266
 30
0.0
 11
6.15569
 21
3.79924
 31
0.0
  0
LINE
  8
0
 62
     0
 10
6.15569
 20
3.79924
 30
0.0
 11
5.4405
 21
3.30178
 31
0.0
  0
LINE
  8
0
 62
     0
 10
5.4405
 20
3.30178
 30
0.0
 11
4.8562
 21
2.46944
 31
0.0
  0
LINE
  8
0
 62
     0
 10
4.8562
 20
2.46944
 30
0.0
 11
4.77492
 21
2.27928
 31
0.0
  0
LINE
  8
0
 62
     0
 10
4.77492
 20
2.27928
 30
0.0
 11
4.70048
 21
2.1084
 31
0.0
  0
LINE
  8
0
 62
     0
 10
4.70048
 20
2.1084
 30
0.0
 11
4.58886
 21
1.5434
 31
0.0
  0
LINE
  8
0
 62
     0
 10
4.58886
 20
1.5434
 30
0.0
 11
4.66605
 21
0.912262
 31
0.0
  0
LINE
  8
0
 62
     0
 10
4.66605
 20
0.912262
 30
0.0
 11
4.95819
 21
0.447862
 31
0.0
  0
LINE
  8
0
 62
     0
 10
4.95819
 20
0.447862
 30
0.0
 11
5.3013
 21
0.23151
 31
0.0
  0
LINE
  8
0
 62
     0
 10
5.3013
 20
0.23151
 30
0.0
 11
5.42533
 21
0.206706
 31
0.0
  0
LINE
  8
0
 62
     0
 10
5.42533
 20
0.206706
 30
0.0
 11
5.60723
 21
0.172255
 31
0.0
  0
LINE
  8
0
 62
     0
 10
5.60723
 20
0.172255
 30
0.0
 11
6.19566
 21
0.278364
 31
0.0
  0
LINE
  8
0
 62
     0
 10
6.19566
 20
0.278364
 30
0.0
 11
6.88467
 21
0.726225
 31
0.0
  0
LINE
  8
0
 62
     0
 10
6.88467
 20
0.726225
 30
0.0
 11
7.49653
 21
1.43316
 31
0.0
  0
LINE
  8
0
 62
     0
 10
7.49653
 20
1.43316
 30
0.0
 11
7.91132
 21
2.06292
 31
0.0
  0
LINE
  8
0
 62
     0
 10
7.91132
 20
2.06292
 30
0.0
 11
8.03811
 21
2.27928
 31
0.0
  0
LINE
  8
0
 62
     0
 10
8.03811
 20
2.27928
 30
0.0
 11
7.82863
 21
2.27928
 31
0.0
  0
LINE
  8
0
 62
     0
 10
7.82863
 20
2.27928
 30
0.0
 11
7.71564
 21
2.09048
 31
0.0
  0
LINE
  8
0
 62
     0
 10
7.71564
 20
2.09048
 30
0.0
 11
7.32564
 21
1.55581
 31
0.0
  0
LINE
  8
0
 62
     0
 10
7.32564
 20
1.55581
 30
0.0
 11
6.74137
 21
0.959115
 31
0.0
  0
LINE
  8
0
 62
     0
 10
6.74137
 20
0.959115
 30
0.0
 11
6.12401
 21
0.621496
 31
0.0
  0
LINE
  8
0
 62
     0
 10
6.12401
 20
0.621496
 30
0.0
 11
5.65132
 21
0.611851
 31
0.0
  0
LINE
  8
0
 62
     0
 10
5.65132
 20
0.611851
 30
0.0
 11
5.53007
 21
0.675238
 31
0.0
  0
LINE
  8
0
 62
     0
 10
6.60495
 20
3.08956
 30
0.0
 11
6.61596
 21
3.04546
 31
0.0
  0
LINE
  8
0
 62
     0
 10
6.61596
 20
3.04546
 30
0.0
 11
6.53881
 21
2.88148
 31
0.0
  0
LINE
  8
0
 62
     0
 10
6.53881
 20
2.88148
 30
0.0
 11
6.29765
 21
2.61001
 31
0.0
  0
LINE
  8
0
 62
     0
 10
6.29765
 20
2.61001
 30
0.0
 11
5.92007
 21
2.36472
 31
0.0
  0
LINE
  8
0
 62
     0
 10
5.92007
 20
2.36472
 30
0.0
 11
5.57142
 21
2.24207
 31
0.0
  0
LINE
  8
0
 62
     0
 10
5.57142
 20
2.24207
 30
0.0
 11
5.45289
 21
2.22966
 31
0.0
  0
LINE
  8
0
 62
     0
 10
5.45289
 20
2.22966
 30
0.0
 11
5.52457
 21
2.37023
 31
0.0
  0
LINE
  8
0
 62
     0
 10
5.52457
 20
2.37023
 30
0.0
 11
5.80566
 21
2.76021
 31
0.0
  0
LINE
  8
0
 62
     0
 10
5.80566
 20
2.76021
 30
0.0
 11
6.16948
 21
3.08818
 31
0.0
  0
LINE
  8
0
 62
     0
 10
6.16948
 20
3.08818
 30
0.0
 11
6.46162
 21
3.20118
 31
0.0
  0
LINE
  8
0
 62
     0
 10
6.46162
 20
3.20118
 30
0.0
 11
6.59804
 21
3.12263
 31
0.0
  0
LINE
  8
0
 62
     0
 10
6.59804
 20
3.12263
 30
0.0
 11
6.60495
 21
3.08956
 31
0.0
  0
LINE
  8
0
 62
     0
 10
12.6669
 20
8.92694
 30
0.0
 11
12.6146
 21
8.98204
 31
0.0
  0
LINE
  8
0
 62
     0
 10
12.6146
 20
8.98204
 30
0.0
 11
12.2011
 21
9.13363
 31
0.0
  0
LINE
  8
0
 62
     0
 10
12.2011
 20
9.13363
 30
0.0
 11
11.6775
 21
9.04268
 31
0.0
  0
LINE
  8
0
 62
     0
 10
11.6775
 20
9.04268
 30
0.0
 11
11.57
 21
8.97654
 31
0.0
  0
LINE
  8
0
 62
     0
 10
11.57
 20
8.97654
 30
0.0
 11
11.4129
 21
8.88421
 31
0.0
  0
LINE
  8
0
 62
     0
 10
11.4129
 20
8.88421
 30
0.0
 11
11.0036
 21
8.49697
 31
0.0
  0
LINE
  8
0
 62
     0
 10
11.0036
 20
8.49697
 30
0.0
 11
10.4014
 21
7.74319
 31
0.0
  0
LINE
  8
0
 62
     0
 10
10.4014
 20
7.74319
 30
0.0
 11
9.78133
 21
6.78409
 31
0.0
  0
LINE
  8
0
 62
     0
 10
9.78133
 20
6.78409
 30
0.0
 11
9.31414
 21
5.96417
 31
0.0
  0
LINE
  8
0
 62
     0
 10
9.31414
 20
5.96417
 30
0.0
 11
9.16672
 21
5.68579
 31
0.0
  0
LINE
  8
0
 62
     0
 10
9.16672
 20
5.68579
 30
0.0
 11
8.99721
 21
5.36332
 31
0.0
  0
LINE
  8
0
 62
     0
 10
8.99721
 20
5.36332
 30
0.0
 11
8.31233
 21
3.83921
 31
0.0
  0
LINE
  8
0
 62
     0
 10
8.31233
 20
3.83921
 30
0.0
 11
7.8631
 21
2.48736
 31
0.0
  0
LINE
  8
0
 62
     0
 10
7.8631
 20
2.48736
 30
0.0
 11
7.81071
 21
2.25171
 31
0.0
  0
LINE
  8
0
 62
     0
 10
7.81071
 20
2.25171
 30
0.0
 11
7.77215
 21
2.08497
 31
0.0
  0
LINE
  8
0
 62
     0
 10
7.77215
 20
2.08497
 30
0.0
 11
7.71977
 21
1.56545
 31
0.0
  0
LINE
  8
0
 62
     0
 10
7.71977
 20
1.56545
 30
0.0
 11
7.78041
 21
0.932931
 31
0.0
  0
LINE
  8
0
 62
     0
 10
7.78041
 20
0.932931
 30
0.0
 11
8.01328
 21
0.451997
 31
0.0
  0
LINE
  8
0
 62
     0
 10
8.01328
 20
0.451997
 30
0.0
 11
8.33025
 21
0.234267
 31
0.0
  0
LINE
  8
0
 62
     0
 10
8.33025
 20
0.234267
 30
0.0
 11
8.44462
 21
0.21773
 31
0.0
  0
LINE
  8
0
 62
     0
 10
8.44462
 20
0.21773
 30
0.0
 11
8.58516
 21
0.199815
 31
0.0
  0
LINE
  8
0
 62
     0
 10
8.58516
 20
0.199815
 30
0.0
 11
9.03855
 21
0.350022
 31
0.0
  0
LINE
  8
0
 62
     0
 10
9.03855
 20
0.350022
 30
0.0
 11
9.5691
 21
0.829578
 31
0.0
  0
LINE
  8
0
 62
     0
 10
9.5691
 20
0.829578
 30
0.0
 11
10.0638
 21
1.5186
 31
0.0
  0
LINE
  8
0
 62
     0
 10
10.0638
 20
1.5186
 30
0.0
 11
10.4262
 21
2.09048
 31
0.0
  0
LINE
  8
0
 62
     0
 10
10.4262
 20
2.09048
 30
0.0
 11
10.5503
 21
2.27928
 31
0.0
  0
LINE
  8
0
 62
     0
 10
10.5503
 20
2.27928
 30
0.0
 11
10.3408
 21
2.27928
 31
0.0
  0
LINE
  8
0
 62
     0
 10
10.3408
 20
2.27928
 30
0.0
 11
10.2388
 21
2.12218
 31
0.0
  0
LINE
  8
0
 62
     0
 10
10.2388
 20
2.12218
 30
0.0
 11
9.93013
 21
1.65503
 31
0.0
  0
LINE
  8
0
 62
     0
 10
9.93013
 20
1.65503
 30
0.0
 11
9.50845
 21
1.10105
 31
0.0
  0
LINE
  8
0
 62
     0
 10
9.50845
 20
1.10105
 30
0.0
 11
9.08128
 21
0.72347
 31
0.0
  0
LINE
  8
0
 62
     0
 10
9.08128
 20
0.72347
 30
0.0
 11
8.75605
 21
0.607716
 31
0.0
  0
LINE
  8
0
 62
     0
 10
8.75605
 20
0.607716
 30
0.0
 11
8.6596
 21
0.62563
 31
0.0
  0
LINE
  8
0
 62
     0
 10
8.6596
 20
0.62563
 30
0.0
 11
8.57829
 21
0.642165
 31
0.0
  0
LINE
  8
0
 62
     0
 10
8.57829
 20
0.642165
 30
0.0
 11
8.37297
 21
0.86403
 31
0.0
  0
LINE
  8
0
 62
     0
 10
8.37297
 20
0.86403
 30
0.0
 11
8.24893
 21
1.32705
 31
0.0
  0
LINE
  8
0
 62
     0
 10
8.24893
 20
1.32705
 30
0.0
 11
8.25581
 21
1.87413
 31
0.0
  0
LINE
  8
0
 62
     0
 10
8.25581
 20
1.87413
 30
0.0
 11
8.32474
 21
2.2462
 31
0.0
  0
LINE
  8
0
 62
     0
 10
8.32474
 20
2.2462
 30
0.0
 11
8.36747
 21
2.36196
 31
0.0
  0
LINE
  8
0
 62
     0
 10
8.36747
 20
2.36196
 30
0.0
 11
8.85666
 21
2.65135
 31
0.0
  0
LINE
  8
0
 62
     0
 10
8.85666
 20
2.65135
 30
0.0
 11
10.1437
 21
3.82958
 31
0.0
  0
LINE
  8
0
 62
     0
 10
10.1437
 20
3.82958
 30
0.0
 11
11.7257
 21
5.79741
 31
0.0
  0
LINE
  8
0
 62
     0
 10
11.7257
 20
5.79741
 30
0.0
 11
12.7041
 21
7.68946
 31
0.0
  0
LINE
  8
0
 62
     0
 10
12.7041
 20
7.68946
 30
0.0
 11
12.8254
 21
8.76018
 31
0.0
  0
LINE
  8
0
 62
     0
 10
12.8254
 20
8.76018
 30
0.0
 11
12.6669
 21
8.92694
 31
0.0
  0
LINE
  8
0
 62
     0
 10
12.1708
 20
8.56865
 30
0.0
 11
12.2466
 21
8.58104
 31
0.0
  0
LINE
  8
0
 62
     0
 10
12.2466
 20
8.58104
 30
0.0
 11
12.5029
 21
8.44599
 31
0.0
  0
LINE
  8
0
 62
     0
 10
12.5029
 20
8.44599
 30
0.0
 11
12.5167
 21
7.97197
 31
0.0
  0
LINE
  8
0
 62
     0
 10
12.5167
 20
7.97197
 30
0.0
 11
12.259
 21
7.23607
 31
0.0
  0
LINE
  8
0
 62
     0
 10
12.259
 20
7.23607
 30
0.0
 11
11.7726
 21
6.3252
 31
0.0
  0
LINE
  8
0
 62
     0
 10
11.7726
 20
6.3252
 30
0.0
 11
11.1042
 21
5.32751
 31
0.0
  0
LINE
  8
0
 62
     0
 10
11.1042
 20
5.32751
 30
0.0
 11
10.2995
 21
4.32978
 31
0.0
  0
LINE
  8
0
 62
     0
 10
10.2995
 20
4.32978
 30
0.0
 11
9.40375
 21
3.42167
 31
0.0
  0
LINE
  8
0
 62
     0
 10
9.40375
 20
3.42167
 30
0.0
 11
8.71058
 21
2.84978
 31
0.0
  0
LINE
  8
0
 62
     0
 10
8.71058
 20
2.84978
 30
0.0
 11
8.46116
 21
2.68718
 31
0.0
  0
LINE
  8
0
 62
     0
 10
8.46116
 20
2.68718
 30
0.0
 11
8.61688
 21
3.16673
 31
0.0
  0
LINE
  8
0
 62
     0
 10
8.61688
 20
3.16673
 30
0.0
 11
9.21494
 21
4.56269
 31
0.0
  0
LINE
  8
0
 62
     0
 10
9.21494
 20
4.56269
 30
0.0
 11
10.2126
 21
6.43682
 31
0.0
  0
LINE
  8
0
 62
     0
 10
10.2126
 20
6.43682
 30
0.0
 11
11.26
 21
7.9072
 31
0.0
  0
LINE
  8
0
 62
     0
 10
11.26
 20
7.9072
 30
0.0
 11
11.9228
 21
8.53006
 31
0.0
  0
LINE
  8
0
 62
     0
 10
11.9228
 20
8.53006
 30
0.0
 11
12.1708
 21
8.56865
 31
0.0
  0
LINE
  8
0
 62
     0
 10
15.1805
 20
8.92694
 30
0.0
 11
15.1281
 21
8.98204
 31
0.0
  0
LINE
  8
0
 62
     0
 10
15.1281
 20
8.98204
 30
0.0
 11
14.7147
 21
9.13363
 31
0.0
  0
LINE
  8
0
 62
     0
 10
14.7147
 20
9.13363
 30
0.0
 11
14.1911
 21
9.04268
 31
0.0
  0
LINE
  8
0
 62
     0
 10
14.1911
 20
9.04268
 30
0.0
 11
14.0836
 21
8.97654
 31
0.0
  0
LINE
  8
0
 62
     0
 10
14.0836
 20
8.97654
 30
0.0
 11
13.9265
 21
8.88421
 31
0.0
  0
LINE
  8
0
 62
     0
 10
13.9265
 20
8.88421
 30
0.0
 11
13.5172
 21
8.49697
 31
0.0
  0
LINE
  8
0
 62
     0
 10
13.5172
 20
8.49697
 30
0.0
 11
12.915
 21
7.74319
 31
0.0
  0
LINE
  8
0
 62
     0
 10
12.915
 20
7.74319
 30
0.0
 11
12.2949
 21
6.78409
 31
0.0
  0
LINE
  8
0
 62
     0
 10
12.2949
 20
6.78409
 30
0.0
 11
11.8277
 21
5.96417
 31
0.0
  0
LINE
  8
0
 62
     0
 10
11.8277
 20
5.96417
 30
0.0
 11
11.6803
 21
5.68579
 31
0.0
  0
LINE
  8
0
 62
     0
 10
11.6803
 20
5.68579
 30
0.0
 11
11.5108
 21
5.36332
 31
0.0
  0
LINE
  8
0
 62
     0
 10
11.5108
 20
5.36332
 30
0.0
 11
10.8259
 21
3.83921
 31
0.0
  0
LINE
  8
0
 62
     0
 10
10.8259
 20
3.83921
 30
0.0
 11
10.3766
 21
2.48736
 31
0.0
  0
LINE
  8
0
 62
     0
 10
10.3766
 20
2.48736
 30
0.0
 11
10.3243
 21
2.25171
 31
0.0
  0
LINE
  8
0
 62
     0
 10
10.3243
 20
2.25171
 30
0.0
 11
10.2857
 21
2.08497
 31
0.0
  0
LINE
  8
0
 62
     0
 10
10.2857
 20
2.08497
 30
0.0
 11
10.2333
 21
1.56545
 31
0.0
  0
LINE
  8
0
 62
     0
 10
10.2333
 20
1.56545
 30
0.0
 11
10.294
 21
0.932931
 31
0.0
  0
LINE
  8
0
 62
     0
 10
10.294
 20
0.932931
 30
0.0
 11
10.5268
 21
0.451997
 31
0.0
  0
LINE
  8
0
 62
     0
 10
10.5268
 20
0.451997
 30
0.0
 11
10.8438
 21
0.234267
 31
0.0
  0
LINE
  8
0
 62
     0
 10
10.8438
 20
0.234267
 30
0.0
 11
10.9582
 21
0.21773
 31
0.0
  0
LINE
  8
0
 62
     0
 10
10.9582
 20
0.21773
 30
0.0
 11
11.0987
 21
0.199815
 31
0.0
  0
LINE
  8
0
 62
     0
 10
11.0987
 20
0.199815
 30
0.0
 11
11.5521
 21
0.350022
 31
0.0
  0
LINE
  8
0
 62
     0
 10
11.5521
 20
0.350022
 30
0.0
 11
12.0826
 21
0.829578
 31
0.0
  0
LINE
  8
0
 62
     0
 10
12.0826
 20
0.829578
 30
0.0
 11
12.5773
 21
1.5186
 31
0.0
  0
LINE
  8
0
 62
     0
 10
12.5773
 20
1.5186
 30
0.0
 11
12.9398
 21
2.09048
 31
0.0
  0
LINE
  8
0
 62
     0
 10
12.9398
 20
2.09048
 30
0.0
 11
13.0638
 21
2.27928
 31
0.0
  0
LINE
  8
0
 62
     0
 10
13.0638
 20
2.27928
 30
0.0
 11
12.8543
 21
2.27928
 31
0.0
  0
LINE
  8
0
 62
     0
 10
12.8543
 20
2.27928
 30
0.0
 11
12.7524
 21
2.12218
 31
0.0
  0
LINE
  8
0
 62
     0
 10
12.7524
 20
2.12218
 30
0.0
 11
12.4437
 21
1.65503
 31
0.0
  0
LINE
  8
0
 62
     0
 10
12.4437
 20
1.65503
 30
0.0
 11
12.022
 21
1.10105
 31
0.0
  0
LINE
  8
0
 62
     0
 10
12.022
 20
1.10105
 30
0.0
 11
11.5948
 21
0.72347
 31
0.0
  0
LINE
  8
0
 62
     0
 10
11.5948
 20
0.72347
 30
0.0
 11
11.2696
 21
0.607716
 31
0.0
  0
LINE
  8
0
 62
     0
 10
11.2696
 20
0.607716
 30
0.0
 11
11.1731
 21
0.62563
 31
0.0
  0
LINE
  8
0
 62
     0
 10
11.1731
 20
0.62563
 30
0.0
 11
11.0918
 21
0.642165
 31
0.0
  0
LINE
  8
0
 62
     0
 10
11.0918
 20
0.642165
 30
0.0
 11
10.8865
 21
0.86403
 31
0.0
  0
LINE
  8
0
 62
     0
 10
10.8865
 20
0.86403
 30
0.0
 11
10.7625
 21
1.32705
 31
0.0
  0
LINE
  8
0
 62
     0
 10
10.7625
 20
1.32705
 30
0.0
 11
10.7694
 21
1.87413
 31
0.0
  0
LINE
  8
0
 62
     0
 10
10.7694
 20
1.87413
 30
0.0
 11
10.8383
 21
2.2462
 31
0.0
  0
LINE
  8
0
 62
     0
 10
10.8383
 20
2.2462
 30
0.0
 11
10.881
 21
2.36196
 31
0.0
  0
LINE
  8
0
 62
     0
 10
10.881
 20
2.36196
 30
0.0
 11
11.3702
 21
2.65135
 31
0.0
  0
LINE
  8
0
 62
     0
 10
11.3702
 20
2.65135
 30
0.0
 11
12.6573
 21
3.82958
 31
0.0
  0
LINE
  8
0
 62
     0
 10
12.6573
 20
3.82958
 30
0.0
 11
14.2393
 21
5.79741
 31
0.0
  0
LINE
  8
0
 62
     0
 10
14.2393
 20
5.79741
 30
0.0
 11
15.2177
 21
7.68946
 31
0.0
  0
LINE
  8
0
 62
     0
 10
15.2177
 20
7.68946
 30
0.0
 11
15.339
 21
8.76018
 31
0.0
  0
LINE
  8
0
 62
     0
 10
15.339
 20
8.76018
 30
0.0
 11
15.1805
 21
8.92694
 31
0.0
  0
LINE
  8
0
 62
     0
 10
14.6844
 20
8.56865
 30
0.0
 11
14.7602
 21
8.58104
 31
0.0
  0
LINE
  8
0
 62
     0
 10
14.7602
 20
8.58104
 30
0.0
 11
15.0165
 21
8.44599
 31
0.0
  0
LINE
  8
0
 62
     0
 10
15.0165
 20
8.44599
 30
0.0
 11
15.0303
 21
7.97197
 31
0.0
  0
LINE
  8
0
 62
     0
 10
15.0303
 20
7.97197
 30
0.0
 11
14.7726
 21
7.23607
 31
0.0
  0
LINE
  8
0
 62
     0
 10
14.7726
 20
7.23607
 30
0.0
 11
14.2861
 21
6.3252
 31
0.0
  0
LINE
  8
0
 62
     0
 10
14.2861
 20
6.3252
 30
0.0
 11
13.6178
 21
5.32751
 31
0.0
  0
LINE
  8
0
 62
     0
 10
13.6178
 20
5.32751
 30
0.0
 11
12.813
 21
4.32978
 31
0.0
  0
LINE
  8
0
 62
     0
 10
12.813
 20
4.32978
 30
0.0
 11
11.9173
 21
3.42167
 31
0.0
  0
LINE
  8
0
 62
     0
 10
11.9173
 20
3.42167
 30
0.0
 11
11.2241
 21
2.84978
 31
0.0
  0
LINE
  8
0
 62
     0
 10
11.2241
 20
2.84978
 30
0.0
 11
10.9747
 21
2.68718
 31
0.0
  0
LINE
  8
0
 62
     0
 10
10.9747
 20
2.68718
 30
0.0
 11
11.1304
 21
3.16673
 31
0.0
  0
LINE
  8
0
 62
     0
 10
11.1304
 20
3.16673
 30
0.0
 11
11.7285
 21
4.56269
 31
0.0
  0
LINE
  8
0
 62
     0
 10
11.7285
 20
4.56269
 30
0.0
 11
12.7262
 21
6.43682
 31
0.0
  0
LINE
  8
0
 62
     0
 10
12.7262
 20
6.43682
 30
0.0
 11
13.7735
 21
7.9072
 31
0.0
  0
LINE
  8
0
 62
     0
 10
13.7735
 20
7.9072
 30
0.0
 11
14.4363
 21
8.53006
 31
0.0
  0
LINE
  8
0
 62
     0
 10
14.4363
 20
8.53006
 30
0.0
 11
14.6844
 21
8.56865
 31
0.0
  0
LINE
  8
0
 62
     0
 10
14.7836
 20
1.63987
 30
0.0
 11
14.8387
 21
1.78318
 31
0.0
  0
LINE
  8
0
 62
     0
 10
14.8387
 20
1.78318
 30
0.0
 11
14.9669
 21
2.22966
 31
0.0
  0
LINE
  8
0
 62
     0
 10
14.9669
 20
2.22966
 30
0.0
 11
15.0482
 21
2.84703
 31
0.0
  0
LINE
  8
0
 62
     0
 10
15.0482
 20
2.84703
 30
0.0
 11
14.9462
 21
3.37619
 31
0.0
  0
LINE
  8
0
 62
     0
 10
14.9462
 20
3.37619
 30
0.0
 11
14.6899
 21
3.6642
 31
0.0
  0
LINE
  8
0
 62
     0
 10
14.6899
 20
3.6642
 30
0.0
 11
14.5852
 21
3.70141
 31
0.0
  0
LINE
  8
0
 62
     0
 10
14.5852
 20
3.70141
 30
0.0
 11
14.4129
 21
3.76068
 31
0.0
  0
LINE
  8
0
 62
     0
 10
14.4129
 20
3.76068
 30
0.0
 11
13.6481
 21
3.51813
 31
0.0
  0
LINE
  8
0
 62
     0
 10
13.6481
 20
3.51813
 30
0.0
 11
13.0197
 21
2.69269
 31
0.0
  0
LINE
  8
0
 62
     0
 10
13.0197
 20
2.69269
 30
0.0
 11
12.915
 21
2.46118
 31
0.0
  0
LINE
  8
0
 62
     0
 10
12.915
 20
2.46118
 30
0.0
 11
12.8392
 21
2.29168
 31
0.0
  0
LINE
  8
0
 62
     0
 10
12.8392
 20
2.29168
 30
0.0
 11
12.6807
 21
1.75011
 31
0.0
  0
LINE
  8
0
 62
     0
 10
12.6807
 20
1.75011
 30
0.0
 11
12.6159
 21
1.079
 31
0.0
  0
LINE
  8
0
 62
     0
 10
12.6159
 20
1.079
 30
0.0
 11
12.7317
 21
0.544326
 31
0.0
  0
LINE
  8
0
 62
     0
 10
12.7317
 20
0.544326
 30
0.0
 11
12.948
 21
0.272852
 31
0.0
  0
LINE
  8
0
 62
     0
 10
12.948
 20
0.272852
 30
0.0
 11
13.0418
 21
0.234267
 31
0.0
  0
LINE
  8
0
 62
     0
 10
13.0418
 20
0.234267
 30
0.0
 11
13.1754
 21
0.177767
 31
0.0
  0
LINE
  8
0
 62
     0
 10
13.1754
 20
0.177767
 30
0.0
 11
13.8052
 21
0.327973
 31
0.0
  0
LINE
  8
0
 62
     0
 10
13.8052
 20
0.327973
 30
0.0
 11
14.3839
 21
0.915017
 31
0.0
  0
LINE
  8
0
 62
     0
 10
14.3839
 20
0.915017
 30
0.0
 11
14.4914
 21
1.07763
 31
0.0
  0
LINE
  8
0
 62
     0
 10
14.4914
 20
1.07763
 30
0.0
 11
14.5314
 21
1.01699
 31
0.0
  0
LINE
  8
0
 62
     0
 10
14.5314
 20
1.01699
 30
0.0
 11
14.7767
 21
0.826823
 31
0.0
  0
LINE
  8
0
 62
     0
 10
14.7767
 20
0.826823
 30
0.0
 11
14.9958
 21
0.757922
 31
0.0
  0
LINE
  8
0
 62
     0
 10
14.9958
 20
0.757922
 30
0.0
 11
15.0702
 21
0.757922
 31
0.0
  0
LINE
  8
0
 62
     0
 10
15.0702
 20
0.757922
 30
0.0
 11
15.1391
 21
0.757922
 31
0.0
  0
LINE
  8
0
 62
     0
 10
15.1391
 20
0.757922
 30
0.0
 11
15.3458
 21
0.825444
 31
0.0
  0
LINE
  8
0
 62
     0
 10
15.3458
 20
0.825444
 30
0.0
 11
15.6683
 21
1.06385
 31
0.0
  0
LINE
  8
0
 62
     0
 10
15.6683
 20
1.06385
 30
0.0
 11
16.0624
 21
1.531
 31
0.0
  0
LINE
  8
0
 62
     0
 10
16.0624
 20
1.531
 30
0.0
 11
16.4373
 21
2.08773
 31
0.0
  0
LINE
  8
0
 62
     0
 10
16.4373
 20
2.08773
 30
0.0
 11
16.553
 21
2.27928
 31
0.0
  0
LINE
  8
0
 62
     0
 10
16.553
 20
2.27928
 30
0.0
 11
16.3435
 21
2.27928
 31
0.0
  0
LINE
  8
0
 62
     0
 10
16.3435
 20
2.27928
 30
0.0
 11
16.1851
 21
2.01883
 31
0.0
  0
LINE
  8
0
 62
     0
 10
16.1851
 20
2.01883
 30
0.0
 11
15.5994
 21
1.30362
 31
0.0
  0
LINE
  8
0
 62
     0
 10
15.5994
 20
1.30362
 30
0.0
 11
15.0923
 21
1.0418
 31
0.0
  0
LINE
  8
0
 62
     0
 10
15.0923
 20
1.0418
 30
0.0
 11
14.8194
 21
1.24024
 31
0.0
  0
LINE
  8
0
 62
     0
 10
14.8194
 20
1.24024
 30
0.0
 11
14.7643
 21
1.54616
 31
0.0
  0
LINE
  8
0
 62
     0
 10
14.7643
 20
1.54616
 30
0.0
 11
14.7836
 21
1.63987
 31
0.0
  0
LINE
  8
0
 62
     0
 10
14.3481
 20
1.22645
 30
0.0
 11
14.2599
 21
1.0859
 31
0.0
  0
LINE
  8
0
 62
     0
 10
14.2599
 20
1.0859
 30
0.0
 11
13.8066
 21
0.635275
 31
0.0
  0
LINE
  8
0
 62
     0
 10
13.8066
 20
0.635275
 30
0.0
 11
13.4014
 21
0.603582
 31
0.0
  0
LINE
  8
0
 62
     0
 10
13.4014
 20
0.603582
 30
0.0
 11
13.3449
 21
0.664214
 31
0.0
  0
LINE
  8
0
 62
     0
 10
13.3449
 20
0.664214
 30
0.0
 11
13.2829
 21
0.731739
 31
0.0
  0
LINE
  8
0
 62
     0
 10
13.2829
 20
0.731739
 30
0.0
 11
13.2167
 21
1.39182
 31
0.0
  0
LINE
  8
0
 62
     0
 10
13.2167
 20
1.39182
 30
0.0
 11
13.4538
 21
2.25723
 31
0.0
  0
LINE
  8
0
 62
     0
 10
13.4538
 20
2.25723
 30
0.0
 11
13.5434
 21
2.4281
 31
0.0
  0
LINE
  8
0
 62
     0
 10
13.5434
 20
2.4281
 30
0.0
 11
13.6343
 21
2.60312
 31
0.0
  0
LINE
  8
0
 62
     0
 10
13.6343
 20
2.60312
 30
0.0
 11
14.1663
 21
3.15709
 31
0.0
  0
LINE
  8
0
 62
     0
 10
14.1663
 20
3.15709
 30
0.0
 11
14.6251
 21
3.24253
 31
0.0
  0
LINE
  8
0
 62
     0
 10
14.6251
 20
3.24253
 30
0.0
 11
14.6789
 21
3.18327
 31
0.0
  0
LINE
  8
0
 62
     0
 10
14.6789
 20
3.18327
 30
0.0
 11
14.7367
 21
3.12126
 31
0.0
  0
LINE
  8
0
 62
     0
 10
14.7367
 20
3.12126
 30
0.0
 11
14.8332
 21
2.67615
 31
0.0
  0
LINE
  8
0
 62
     0
 10
14.8332
 20
2.67615
 30
0.0
 11
14.7312
 21
2.08773
 31
0.0
  0
LINE
  8
0
 62
     0
 10
14.7312
 20
2.08773
 30
0.0
 11
14.6899
 21
1.95406
 31
0.0
  0
LINE
  8
0
 62
     0
 10
14.6899
 20
1.95406
 30
0.0
 11
14.6044
 21
1.9389
 31
0.0
  0
LINE
  8
0
 62
     0
 10
14.6044
 20
1.9389
 30
0.0
 11
14.3412
 21
1.67156
 31
0.0
  0
LINE
  8
0
 62
     0
 10
14.3412
 20
1.67156
 30
0.0
 11
14.3151
 21
1.29536
 31
0.0
  0
LINE
  8
0
 62
     0
 10
14.3151
 20
1.29536
 30
0.0
 11
14.3481
 21
1.22645
 31
0.0
  0
LINE
  8
0
 62
     0
 10
24.1804
 20
2.07532
 30
0.0
 11
24.2659
 21
2.25309
 31
0.0
  0
LINE
  8
0
 62
     0
 10
24.2659
 20
2.25309
 30
0.0
 11
24.4615
 21
2.81809
 31
0.0
  0
LINE
  8
0
 62
     0
 10
24.4615
 20
2.81809
 30
0.0
 11
24.4988
 21
3.31005
 31
0.0
  0
LINE
  8
0
 62
     0
 10
24.4988
 20
3.31005
 30
0.0
 11
24.3623
 21
3.59255
 31
0.0
  0
LINE
  8
0
 62
     0
 10
24.3623
 20
3.59255
 30
0.0
 11
24.1901
 21
3.69316
 31
0.0
  0
LINE
  8
0
 62
     0
 10
24.1901
 20
3.69316
 30
0.0
 11
24.1308
 21
3.70141
 31
0.0
  0
LINE
  8
0
 62
     0
 10
24.1308
 20
3.70141
 30
0.0
 11
24.055
 21
3.71105
 31
0.0
  0
LINE
  8
0
 62
     0
 10
24.055
 20
3.71105
 30
0.0
 11
23.8139
 21
3.62977
 31
0.0
  0
LINE
  8
0
 62
     0
 10
23.8139
 20
3.62977
 30
0.0
 11
23.5851
 21
3.34174
 31
0.0
  0
LINE
  8
0
 62
     0
 10
23.5851
 20
3.34174
 30
0.0
 11
23.5259
 21
2.85392
 31
0.0
  0
LINE
  8
0
 62
     0
 10
23.5259
 20
2.85392
 30
0.0
 11
23.6499
 21
2.33853
 31
0.0
  0
LINE
  8
0
 62
     0
 10
23.6499
 20
2.33853
 30
0.0
 11
23.7229
 21
2.18006
 31
0.0
  0
LINE
  8
0
 62
     0
 10
23.7229
 20
2.18006
 30
0.0
 11
23.672
 21
2.04639
 31
0.0
  0
LINE
  8
0
 62
     0
 10
23.672
 20
2.04639
 30
0.0
 11
23.4694
 21
1.64262
 31
0.0
  0
LINE
  8
0
 62
     0
 10
23.4694
 20
1.64262
 30
0.0
 11
23.0808
 21
0.996322
 31
0.0
  0
LINE
  8
0
 62
     0
 10
23.0808
 20
0.996322
 30
0.0
 11
22.6522
 21
0.498849
 31
0.0
  0
LINE
  8
0
 62
     0
 10
22.6522
 20
0.498849
 30
0.0
 11
22.3366
 21
0.365181
 31
0.0
  0
LINE
  8
0
 62
     0
 10
22.3366
 20
0.365181
 30
0.0
 11
22.2787
 21
0.39963
 31
0.0
  0
LINE
  8
0
 62
     0
 10
22.2787
 20
0.39963
 30
0.0
 11
22.2305
 21
0.428569
 31
0.0
  0
LINE
  8
0
 62
     0
 10
22.2305
 20
0.428569
 30
0.0
 11
22.2581
 21
0.80064
 31
0.0
  0
LINE
  8
0
 62
     0
 10
22.2581
 20
0.80064
 30
0.0
 11
22.4978
 21
1.53513
 31
0.0
  0
LINE
  8
0
 62
     0
 10
22.4978
 20
1.53513
 30
0.0
 11
22.8079
 21
2.28755
 31
0.0
  0
LINE
  8
0
 62
     0
 10
22.8079
 20
2.28755
 30
0.0
 11
22.9747
 21
2.67202
 31
0.0
  0
LINE
  8
0
 62
     0
 10
22.9747
 20
2.67202
 30
0.0
 11
22.9953
 21
2.73678
 31
0.0
  0
LINE
  8
0
 62
     0
 10
22.9953
 20
2.73678
 30
0.0
 11
23.0312
 21
2.84427
 31
0.0
  0
LINE
  8
0
 62
     0
 10
23.0312
 20
2.84427
 30
0.0
 11
22.9678
 21
3.37068
 31
0.0
  0
LINE
  8
0
 62
     0
 10
22.9678
 20
3.37068
 30
0.0
 11
22.6439
 21
3.70554
 31
0.0
  0
LINE
  8
0
 62
     0
 10
22.6439
 20
3.70554
 30
0.0
 11
22.5488
 21
3.71796
 31
0.0
  0
LINE
  8
0
 62
     0
 10
22.5488
 20
3.71796
 30
0.0
 11
22.5599
 21
3.6008
 31
0.0
  0
LINE
  8
0
 62
     0
 10
22.5599
 20
3.6008
 30
0.0
 11
22.5103
 21
3.23564
 31
0.0
  0
LINE
  8
0
 62
     0
 10
22.5103
 20
3.23564
 30
0.0
 11
22.3311
 21
2.6858
 31
0.0
  0
LINE
  8
0
 62
     0
 10
22.3311
 20
2.6858
 30
0.0
 11
22.0541
 21
2.11805
 31
0.0
  0
LINE
  8
0
 62
     0
 10
22.0541
 20
2.11805
 30
0.0
 11
21.7206
 21
1.57372
 31
0.0
  0
LINE
  8
0
 62
     0
 10
21.7206
 20
1.57372
 30
0.0
 11
21.372
 21
1.09968
 31
0.0
  0
LINE
  8
0
 62
     0
 10
21.372
 20
1.09968
 30
0.0
 11
21.0509
 21
0.741384
 31
0.0
  0
LINE
  8
0
 62
     0
 10
21.0509
 20
0.741384
 30
0.0
 11
20.7987
 21
0.542946
 31
0.0
  0
LINE
  8
0
 62
     0
 10
20.7987
 20
0.542946
 30
0.0
 11
20.6664
 21
0.533301
 31
0.0
  0
LINE
  8
0
 62
     0
 10
20.6664
 20
0.533301
 30
0.0
 11
20.6582
 21
0.54846
 31
0.0
  0
LINE
  8
0
 62
     0
 10
20.6582
 20
0.54846
 30
0.0
 11
20.6113
 21
0.624251
 31
0.0
  0
LINE
  8
0
 62
     0
 10
20.6113
 20
0.624251
 30
0.0
 11
20.6306
 21
0.94809
 31
0.0
  0
LINE
  8
0
 62
     0
 10
20.6306
 20
0.94809
 30
0.0
 11
20.8235
 21
1.50344
 31
0.0
  0
LINE
  8
0
 62
     0
 10
20.8235
 20
1.50344
 30
0.0
 11
21.1129
 21
2.12631
 31
0.0
  0
LINE
  8
0
 62
     0
 10
21.1129
 20
2.12631
 30
0.0
 11
21.3183
 21
2.5728
 31
0.0
  0
LINE
  8
0
 62
     0
 10
21.3183
 20
2.5728
 30
0.0
 11
21.3747
 21
2.72576
 31
0.0
  0
LINE
  8
0
 62
     0
 10
21.3747
 20
2.72576
 30
0.0
 11
21.4009
 21
2.79328
 31
0.0
  0
LINE
  8
0
 62
     0
 10
21.4009
 20
2.79328
 30
0.0
 11
21.4106
 21
3.02204
 31
0.0
  0
LINE
  8
0
 62
     0
 10
21.4106
 20
3.02204
 30
0.0
 11
21.3348
 21
3.34588
 31
0.0
  0
LINE
  8
0
 62
     0
 10
21.3348
 20
3.34588
 30
0.0
 11
21.1653
 21
3.61047
 31
0.0
  0
LINE
  8
0
 62
     0
 10
21.1653
 20
3.61047
 30
0.0
 11
20.9848
 21
3.72622
 31
0.0
  0
LINE
  8
0
 62
     0
 10
20.9848
 20
3.72622
 30
0.0
 11
20.9228
 21
3.72897
 31
0.0
  0
LINE
  8
0
 62
     0
 10
20.9228
 20
3.72897
 30
0.0
 11
20.9641
 21
3.67799
 31
0.0
  0
LINE
  8
0
 62
     0
 10
20.9641
 20
3.67799
 30
0.0
 11
20.909
 21
3.21083
 31
0.0
  0
LINE
  8
0
 62
     0
 10
20.909
 20
3.21083
 30
0.0
 11
20.6334
 21
2.5411
 31
0.0
  0
LINE
  8
0
 62
     0
 10
20.6334
 20
2.5411
 30
0.0
 11
20.5645
 21
2.38952
 31
0.0
  0
LINE
  8
0
 62
     0
 10
20.5645
 20
2.38952
 30
0.0
 11
20.5397
 21
2.33991
 31
0.0
  0
LINE
  8
0
 62
     0
 10
20.5397
 20
2.33991
 30
0.0
 11
20.3137
 21
1.83555
 31
0.0
  0
LINE
  8
0
 62
     0
 10
20.3137
 20
1.83555
 30
0.0
 11
20.2944
 21
1.78318
 31
0.0
  0
LINE
  8
0
 62
     0
 10
20.2944
 20
1.78318
 30
0.0
 11
20.2296
 21
1.62471
 31
0.0
  0
LINE
  8
0
 62
     0
 10
20.2296
 20
1.62471
 30
0.0
 11
20.0394
 21
0.887458
 31
0.0
  0
LINE
  8
0
 62
     0
 10
20.0394
 20
0.887458
 30
0.0
 11
20.1524
 21
0.300412
 31
0.0
  0
LINE
  8
0
 62
     0
 10
20.1524
 20
0.300412
 30
0.0
 11
20.2392
 21
0.21773
 31
0.0
  0
LINE
  8
0
 62
     0
 10
20.2392
 20
0.21773
 30
0.0
 11
20.2985
 21
0.16123
 31
0.0
  0
LINE
  8
0
 62
     0
 10
20.2985
 20
0.16123
 30
0.0
 11
20.6292
 21
0.146072
 31
0.0
  0
LINE
  8
0
 62
     0
 10
20.6292
 20
0.146072
 30
0.0
 11
21.0675
 21
0.447862
 31
0.0
  0
LINE
  8
0
 62
     0
 10
21.0675
 20
0.447862
 30
0.0
 11
21.4822
 21
0.912262
 31
0.0
  0
LINE
  8
0
 62
     0
 10
21.4822
 20
0.912262
 30
0.0
 11
21.7234
 21
1.2237
 31
0.0
  0
LINE
  8
0
 62
     0
 10
21.7234
 20
1.2237
 30
0.0
 11
21.8047
 21
1.32567
 31
0.0
  0
LINE
  8
0
 62
     0
 10
21.8047
 20
1.32567
 30
0.0
 11
21.7565
 21
1.19614
 31
0.0
  0
LINE
  8
0
 62
     0
 10
21.7565
 20
1.19614
 30
0.0
 11
21.6793
 21
0.580154
 31
0.0
  0
LINE
  8
0
 62
     0
 10
21.6793
 20
0.580154
 30
0.0
 11
21.9274
 21
0.152962
 31
0.0
  0
LINE
  8
0
 62
     0
 10
21.9274
 20
0.152962
 30
0.0
 11
22.0417
 21
0.118511
 31
0.0
  0
LINE
  8
0
 62
     0
 10
22.0417
 20
0.118511
 30
0.0
 11
22.1754
 21
0.0813043
 31
0.0
  0
LINE
  8
0
 62
     0
 10
22.1754
 20
0.0813043
 30
0.0
 11
22.6425
 21
0.195682
 31
0.0
  0
LINE
  8
0
 62
     0
 10
22.6425
 20
0.195682
 30
0.0
 11
23.2158
 21
0.633899
 31
0.0
  0
LINE
  8
0
 62
     0
 10
23.2158
 20
0.633899
 30
0.0
 11
23.7064
 21
1.24299
 31
0.0
  0
LINE
  8
0
 62
     0
 10
23.7064
 20
1.24299
 30
0.0
 11
23.9834
 21
1.67707
 31
0.0
  0
LINE
  8
0
 62
     0
 10
23.9834
 20
1.67707
 30
0.0
 11
24.0647
 21
1.82728
 31
0.0
  0
LINE
  8
0
 62
     0
 10
24.0647
 20
1.82728
 30
0.0
 11
24.1074
 21
1.77353
 31
0.0
  0
LINE
  8
0
 62
     0
 10
24.1074
 20
1.77353
 30
0.0
 11
24.3072
 21
1.65089
 31
0.0
  0
LINE
  8
0
 62
     0
 10
24.3072
 20
1.65089
 30
0.0
 11
24.722
 21
1.55305
 31
0.0
  0
LINE
  8
0
 62
     0
 10
24.722
 20
1.55305
 30
0.0
 11
25.2222
 21
1.70739
 31
0.0
  0
LINE
  8
0
 62
     0
 10
25.2222
 20
1.70739
 30
0.0
 11
25.6329
 21
2.11805
 31
0.0
  0
LINE
  8
0
 62
     0
 10
25.6329
 20
2.11805
 30
0.0
 11
25.7238
 21
2.27928
 31
0.0
  0
LINE
  8
0
 62
     0
 10
25.7238
 20
2.27928
 30
0.0
 11
25.5144
 21
2.27928
 31
0.0
  0
LINE
  8
0
 62
     0
 10
25.5144
 20
2.27928
 30
0.0
 11
25.4276
 21
2.15663
 31
0.0
  0
LINE
  8
0
 62
     0
 10
25.4276
 20
2.15663
 30
0.0
 11
25.0583
 21
1.86173
 31
0.0
  0
LINE
  8
0
 62
     0
 10
25.0583
 20
1.86173
 30
0.0
 11
24.649
 21
1.8011
 31
0.0
  0
LINE
  8
0
 62
     0
 10
24.649
 20
1.8011
 30
0.0
 11
24.3375
 21
1.92925
 31
0.0
  0
LINE
  8
0
 62
     0
 10
24.3375
 20
1.92925
 30
0.0
 11
24.2011
 21
2.04225
 31
0.0
  0
LINE
  8
0
 62
     0
 10
24.2011
 20
2.04225
 30
0.0
 11
24.1804
 21
2.07532
 31
0.0
  0
LINE
  8
0
 62
     0
 10
23.8718
 20
2.61001
 30
0.0
 11
23.8428
 21
2.70784
 31
0.0
  0
LINE
  8
0
 62
     0
 10
23.8428
 20
2.70784
 30
0.0
 11
23.8428
 21
3.02617
 31
0.0
  0
LINE
  8
0
 62
     0
 10
23.8428
 20
3.02617
 30
0.0
 11
23.9379
 21
3.23012
 31
0.0
  0
LINE
  8
0
 62
     0
 10
23.9379
 20
3.23012
 30
0.0
 11
23.9985
 21
3.12539
 31
0.0
  0
LINE
  8
0
 62
     0
 10
23.9985
 20
3.12539
 30
0.0
 11
23.9159
 21
2.73403
 31
0.0
  0
LINE
  8
0
 62
     0
 10
23.9159
 20
2.73403
 30
0.0
 11
23.8718
 21
2.61001
 31
0.0
  0
LINE
  8
0
 62
     0
 10
27.4395
 20
1.63987
 30
0.0
 11
27.4946
 21
1.78318
 31
0.0
  0
LINE
  8
0
 62
     0
 10
27.4946
 20
1.78318
 30
0.0
 11
27.6228
 21
2.22966
 31
0.0
  0
LINE
  8
0
 62
     0
 10
27.6228
 20
2.22966
 30
0.0
 11
27.7041
 21
2.84703
 31
0.0
  0
LINE
  8
0
 62
     0
 10
27.7041
 20
2.84703
 30
0.0
 11
27.6021
 21
3.37619
 31
0.0
  0
LINE
  8
0
 62
     0
 10
27.6021
 20
3.37619
 30
0.0
 11
27.3458
 21
3.6642
 31
0.0
  0
LINE
  8
0
 62
     0
 10
27.3458
 20
3.6642
 30
0.0
 11
27.2411
 21
3.70141
 31
0.0
  0
LINE
  8
0
 62
     0
 10
27.2411
 20
3.70141
 30
0.0
 11
27.0688
 21
3.76068
 31
0.0
  0
LINE
  8
0
 62
     0
 10
27.0688
 20
3.76068
 30
0.0
 11
26.304
 21
3.51813
 31
0.0
  0
LINE
  8
0
 62
     0
 10
26.304
 20
3.51813
 30
0.0
 11
25.6756
 21
2.69269
 31
0.0
  0
LINE
  8
0
 62
     0
 10
25.6756
 20
2.69269
 30
0.0
 11
25.5709
 21
2.46118
 31
0.0
  0
LINE
  8
0
 62
     0
 10
25.5709
 20
2.46118
 30
0.0
 11
25.4951
 21
2.29168
 31
0.0
  0
LINE
  8
0
 62
     0
 10
25.4951
 20
2.29168
 30
0.0
 11
25.3366
 21
1.75011
 31
0.0
  0
LINE
  8
0
 62
     0
 10
25.3366
 20
1.75011
 30
0.0
 11
25.2718
 21
1.079
 31
0.0
  0
LINE
  8
0
 62
     0
 10
25.2718
 20
1.079
 30
0.0
 11
25.3876
 21
0.544326
 31
0.0
  0
LINE
  8
0
 62
     0
 10
25.3876
 20
0.544326
 30
0.0
 11
25.6039
 21
0.272852
 31
0.0
  0
LINE
  8
0
 62
     0
 10
25.6039
 20
0.272852
 30
0.0
 11
25.6977
 21
0.234267
 31
0.0
  0
LINE
  8
0
 62
     0
 10
25.6977
 20
0.234267
 30
0.0
 11
25.8313
 21
0.177767
 31
0.0
  0
LINE
  8
0
 62
     0
 10
25.8313
 20
0.177767
 30
0.0
 11
26.4611
 21
0.327973
 31
0.0
  0
LINE
  8
0
 62
     0
 10
26.4611
 20
0.327973
 30
0.0
 11
27.0399
 21
0.915017
 31
0.0
  0
LINE
  8
0
 62
     0
 10
27.0399
 20
0.915017
 30
0.0
 11
27.1473
 21
1.07763
 31
0.0
  0
LINE
  8
0
 62
     0
 10
27.1473
 20
1.07763
 30
0.0
 11
27.1873
 21
1.01699
 31
0.0
  0
LINE
  8
0
 62
     0
 10
27.1873
 20
1.01699
 30
0.0
 11
27.4326
 21
0.826823
 31
0.0
  0
LINE
  8
0
 62
     0
 10
27.4326
 20
0.826823
 30
0.0
 11
27.6517
 21
0.757922
 31
0.0
  0
LINE
  8
0
 62
     0
 10
27.6517
 20
0.757922
 30
0.0
 11
27.7261
 21
0.757922
 31
0.0
  0
LINE
  8
0
 62
     0
 10
27.7261
 20
0.757922
 30
0.0
 11
27.795
 21
0.757922
 31
0.0
  0
LINE
  8
0
 62
     0
 10
27.795
 20
0.757922
 30
0.0
 11
28.0017
 21
0.825444
 31
0.0
  0
LINE
  8
0
 62
     0
 10
28.0017
 20
0.825444
 30
0.0
 11
28.3242
 21
1.06385
 31
0.0
  0
LINE
  8
0
 62
     0
 10
28.3242
 20
1.06385
 30
0.0
 11
28.7183
 21
1.531
 31
0.0
  0
LINE
  8
0
 62
     0
 10
28.7183
 20
1.531
 30
0.0
 11
29.0932
 21
2.08773
 31
0.0
  0
LINE
  8
0
 62
     0
 10
29.0932
 20
2.08773
 30
0.0
 11
29.2089
 21
2.27928
 31
0.0
  0
LINE
  8
0
 62
     0
 10
29.2089
 20
2.27928
 30
0.0
 11
28.9994
 21
2.27928
 31
0.0
  0
LINE
  8
0
 62
     0
 10
28.9994
 20
2.27928
 30
0.0
 11
28.841
 21
2.01883
 31
0.0
  0
LINE
  8
0
 62
     0
 10
28.841
 20
2.01883
 30
0.0
 11
28.2553
 21
1.30362
 31
0.0
  0
LINE
  8
0
 62
     0
 10
28.2553
 20
1.30362
 30
0.0
 11
27.7482
 21
1.0418
 31
0.0
  0
LINE
  8
0
 62
     0
 10
27.7482
 20
1.0418
 30
0.0
 11
27.4753
 21
1.24024
 31
0.0
  0
LINE
  8
0
 62
     0
 10
27.4753
 20
1.24024
 30
0.0
 11
27.4202
 21
1.54616
 31
0.0
  0
LINE
  8
0
 62
     0
 10
27.4202
 20
1.54616
 30
0.0
 11
27.4395
 21
1.63987
 31
0.0
  0
LINE
  8
0
 62
     0
 10
27.004
 20
1.22645
 30
0.0
 11
26.9159
 21
1.0859
 31
0.0
  0
LINE
  8
0
 62
     0
 10
26.9159
 20
1.0859
 30
0.0
 11
26.4625
 21
0.635275
 31
0.0
  0
LINE
  8
0
 62
     0
 10
26.4625
 20
0.635275
 30
0.0
 11
26.0573
 21
0.603582
 31
0.0
  0
LINE
  8
0
 62
     0
 10
26.0573
 20
0.603582
 30
0.0
 11
26.0008
 21
0.664214
 31
0.0
  0
LINE
  8
0
 62
     0
 10
26.0008
 20
0.664214
 30
0.0
 11
25.9388
 21
0.731739
 31
0.0
  0
LINE
  8
0
 62
     0
 10
25.9388
 20
0.731739
 30
0.0
 11
25.8727
 21
1.39182
 31
0.0
  0
LINE
  8
0
 62
     0
 10
25.8727
 20
1.39182
 30
0.0
 11
26.1097
 21
2.25723
 31
0.0
  0
LINE
  8
0
 62
     0
 10
26.1097
 20
2.25723
 30
0.0
 11
26.1993
 21
2.4281
 31
0.0
  0
LINE
  8
0
 62
     0
 10
26.1993
 20
2.4281
 30
0.0
 11
26.2902
 21
2.60312
 31
0.0
  0
LINE
  8
0
 62
     0
 10
26.2902
 20
2.60312
 30
0.0
 11
26.8222
 21
3.15709
 31
0.0
  0
LINE
  8
0
 62
     0
 10
26.8222
 20
3.15709
 30
0.0
 11
27.281
 21
3.24253
 31
0.0
  0
LINE
  8
0
 62
     0
 10
27.281
 20
3.24253
 30
0.0
 11
27.3348
 21
3.18327
 31
0.0
  0
LINE
  8
0
 62
     0
 10
27.3348
 20
3.18327
 30
0.0
 11
27.3926
 21
3.12126
 31
0.0
  0
LINE
  8
0
 62
     0
 10
27.3926
 20
3.12126
 30
0.0
 11
27.4891
 21
2.67615
 31
0.0
  0
LINE
  8
0
 62
     0
 10
27.4891
 20
2.67615
 30
0.0
 11
27.3871
 21
2.08773
 31
0.0
  0
LINE
  8
0
 62
     0
 10
27.3871
 20
2.08773
 30
0.0
 11
27.3458
 21
1.95406
 31
0.0
  0
LINE
  8
0
 62
     0
 10
27.3458
 20
1.95406
 30
0.0
 11
27.2603
 21
1.9389
 31
0.0
  0
LINE
  8
0
 62
     0
 10
27.2603
 20
1.9389
 30
0.0
 11
26.9971
 21
1.67156
 31
0.0
  0
LINE
  8
0
 62
     0
 10
26.9971
 20
1.67156
 30
0.0
 11
26.971
 21
1.29536
 31
0.0
  0
LINE
  8
0
 62
     0
 10
26.971
 20
1.29536
 30
0.0
 11
27.004
 21
1.22645
 31
0.0
  0
LINE
  8
0
 62
     0
 10
30.5552
 20
0.614606
 30
0.0
 11
30.5001
 21
0.654569
 31
0.0
  0
LINE
  8
0
 62
     0
 10
30.5001
 20
0.654569
 30
0.0
 11
30.4423
 21
0.921907
 31
0.0
  0
LINE
  8
0
 62
     0
 10
30.4423
 20
0.921907
 30
0.0
 11
30.5676
 21
1.40284
 31
0.0
  0
LINE
  8
0
 62
     0
 10
30.5676
 20
1.40284
 30
0.0
 11
30.7757
 21
2.00367
 31
0.0
  0
LINE
  8
0
 62
     0
 10
30.7757
 20
2.00367
 30
0.0
 11
30.9039
 21
2.50252
 31
0.0
  0
LINE
  8
0
 62
     0
 10
30.9039
 20
2.50252
 30
0.0
 11
30.919
 21
2.67064
 31
0.0
  0
LINE
  8
0
 62
     0
 10
30.919
 20
2.67064
 30
0.0
 11
30.9273
 21
2.77537
 31
0.0
  0
LINE
  8
0
 62
     0
 10
30.9273
 20
2.77537
 30
0.0
 11
30.8571
 21
3.09645
 31
0.0
  0
LINE
  8
0
 62
     0
 10
30.8571
 20
3.09645
 30
0.0
 11
30.6407
 21
3.41891
 31
0.0
  0
LINE
  8
0
 62
     0
 10
30.6407
 20
3.41891
 30
0.0
 11
30.3444
 21
3.65457
 31
0.0
  0
LINE
  8
0
 62
     0
 10
30.3444
 20
3.65457
 30
0.0
 11
30.1225
 21
3.78411
 31
0.0
  0
LINE
  8
0
 62
     0
 10
30.1225
 20
3.78411
 30
0.0
 11
30.0481
 21
3.82266
 31
0.0
  0
LINE
  8
0
 62
     0
 10
30.0481
 20
3.82266
 30
0.0
 11
30.1032
 21
3.9522
 31
0.0
  0
LINE
  8
0
 62
     0
 10
30.1032
 20
3.9522
 30
0.0
 11
30.2589
 21
4.55718
 31
0.0
  0
LINE
  8
0
 62
     0
 10
30.2589
 20
4.55718
 30
0.0
 11
30.1487
 21
5.00228
 31
0.0
  0
LINE
  8
0
 62
     0
 10
30.1487
 20
5.00228
 30
0.0
 11
30.0702
 21
5.05188
 31
0.0
  0
LINE
  8
0
 62
     0
 10
30.0702
 20
5.05188
 30
0.0
 11
29.9944
 21
5.09873
 31
0.0
  0
LINE
  8
0
 62
     0
 10
29.9944
 20
5.09873
 30
0.0
 11
29.6471
 21
5.04776
 31
0.0
  0
LINE
  8
0
 62
     0
 10
29.6471
 20
5.04776
 30
0.0
 11
29.3522
 21
4.644
 31
0.0
  0
LINE
  8
0
 62
     0
 10
29.3522
 20
4.644
 30
0.0
 11
29.3288
 21
4.07624
 31
0.0
  0
LINE
  8
0
 62
     0
 10
29.3288
 20
4.07624
 30
0.0
 11
29.5947
 21
3.65181
 31
0.0
  0
LINE
  8
0
 62
     0
 10
29.5947
 20
3.65181
 30
0.0
 11
29.7229
 21
3.57463
 31
0.0
  0
LINE
  8
0
 62
     0
 10
29.7229
 20
3.57463
 30
0.0
 11
29.6609
 21
3.45336
 31
0.0
  0
LINE
  8
0
 62
     0
 10
29.6609
 20
3.45336
 30
0.0
 11
29.0463
 21
2.37298
 31
0.0
  0
LINE
  8
0
 62
     0
 10
29.0463
 20
2.37298
 30
0.0
 11
28.9788
 21
2.26825
 31
0.0
  0
LINE
  8
0
 62
     0
 10
28.9788
 20
2.26825
 30
0.0
 11
28.9553
 21
2.23793
 31
0.0
  0
LINE
  8
0
 62
     0
 10
28.9553
 20
2.23793
 30
0.0
 11
28.9595
 21
2.08497
 31
0.0
  0
LINE
  8
0
 62
     0
 10
28.9595
 20
2.08497
 30
0.0
 11
29.151
 21
2.21037
 31
0.0
  0
LINE
  8
0
 62
     0
 10
29.151
 20
2.21037
 30
0.0
 11
29.1882
 21
2.26825
 31
0.0
  0
LINE
  8
0
 62
     0
 10
29.1882
 20
2.26825
 30
0.0
 11
29.2144
 21
2.31097
 31
0.0
  0
LINE
  8
0
 62
     0
 10
29.2144
 20
2.31097
 30
0.0
 11
29.5258
 21
2.82636
 31
0.0
  0
LINE
  8
0
 62
     0
 10
29.5258
 20
2.82636
 30
0.0
 11
29.8538
 21
3.39824
 31
0.0
  0
LINE
  8
0
 62
     0
 10
29.8538
 20
3.39824
 30
0.0
 11
29.8883
 21
3.4699
 31
0.0
  0
LINE
  8
0
 62
     0
 10
29.8883
 20
3.4699
 30
0.0
 11
29.9792
 21
3.41064
 31
0.0
  0
LINE
  8
0
 62
     0
 10
29.9792
 20
3.41064
 30
0.0
 11
30.2521
 21
3.16122
 31
0.0
  0
LINE
  8
0
 62
     0
 10
30.2521
 20
3.16122
 30
0.0
 11
30.3375
 21
2.88975
 31
0.0
  0
LINE
  8
0
 62
     0
 10
30.3375
 20
2.88975
 30
0.0
 11
30.3348
 21
2.81947
 31
0.0
  0
LINE
  8
0
 62
     0
 10
30.3348
 20
2.81947
 30
0.0
 11
30.332
 21
2.70509
 31
0.0
  0
LINE
  8
0
 62
     0
 10
30.332
 20
2.70509
 30
0.0
 11
30.1625
 21
2.12218
 31
0.0
  0
LINE
  8
0
 62
     0
 10
30.1625
 20
2.12218
 30
0.0
 11
29.8993
 21
1.41387
 31
0.0
  0
LINE
  8
0
 62
     0
 10
29.8993
 20
1.41387
 30
0.0
 11
29.8497
 21
1.23748
 31
0.0
  0
LINE
  8
0
 62
     0
 10
29.8497
 20
1.23748
 30
0.0
 11
29.8111
 21
1.09968
 31
0.0
  0
LINE
  8
0
 62
     0
 10
29.8111
 20
1.09968
 30
0.0
 11
29.8952
 21
0.512632
 31
0.0
  0
LINE
  8
0
 62
     0
 10
29.8952
 20
0.512632
 30
0.0
 11
30.2603
 21
0.168121
 31
0.0
  0
LINE
  8
0
 62
     0
 10
30.2603
 20
0.168121
 30
0.0
 11
30.3623
 21
0.151584
 31
0.0
  0
LINE
  8
0
 62
     0
 10
30.3623
 20
0.151584
 30
0.0
 11
30.4836
 21
0.128157
 31
0.0
  0
LINE
  8
0
 62
     0
 10
30.4836
 20
0.128157
 30
0.0
 11
30.8818
 21
0.223242
 31
0.0
  0
LINE
  8
0
 62
     0
 10
30.8818
 20
0.223242
 30
0.0
 11
31.4179
 21
0.622875
 31
0.0
  0
LINE
  8
0
 62
     0
 10
31.4179
 20
0.622875
 30
0.0
 11
32.0091
 21
1.31878
 31
0.0
  0
LINE
  8
0
 62
     0
 10
32.0091
 20
1.31878
 30
0.0
 11
32.5272
 21
2.03674
 31
0.0
  0
LINE
  8
0
 62
     0
 10
32.5272
 20
2.03674
 30
0.0
 11
32.694
 21
2.27928
 31
0.0
  0
LINE
  8
0
 62
     0
 10
32.694
 20
2.27928
 30
0.0
 11
32.4845
 21
2.27928
 31
0.0
  0
LINE
  8
0
 62
     0
 10
32.4845
 20
2.27928
 30
0.0
 11
32.3439
 21
2.0767
 31
0.0
  0
LINE
  8
0
 62
     0
 10
32.3439
 20
2.0767
 30
0.0
 11
31.9002
 21
1.48277
 31
0.0
  0
LINE
  8
0
 62
     0
 10
31.9002
 20
1.48277
 30
0.0
 11
31.371
 21
0.897103
 31
0.0
  0
LINE
  8
0
 62
     0
 10
31.371
 20
0.897103
 30
0.0
 11
30.9149
 21
0.587043
 31
0.0
  0
LINE
  8
0
 62
     0
 10
30.9149
 20
0.587043
 30
0.0
 11
30.6173
 21
0.570509
 31
0.0
  0
LINE
  8
0
 62
     0
 10
30.6173
 20
0.570509
 30
0.0
 11
30.5552
 21
0.614606
 31
0.0
  0
LINE
  8
0
 62
     0
 10
29.8883
 20
3.9274
 30
0.0
 11
29.807
 21
3.97838
 31
0.0
  0
LINE
  8
0
 62
     0
 10
29.807
 20
3.97838
 30
0.0
 11
29.6788
 21
4.34633
 31
0.0
  0
LINE
  8
0
 62
     0
 10
29.6788
 20
4.34633
 30
0.0
 11
29.7863
 21
4.65914
 31
0.0
  0
LINE
  8
0
 62
     0
 10
29.7863
 20
4.65914
 30
0.0
 11
29.8221
 21
4.68256
 31
0.0
  0
LINE
  8
0
 62
     0
 10
29.8221
 20
4.68256
 30
0.0
 11
29.8456
 21
4.69773
 31
0.0
  0
LINE
  8
0
 62
     0
 10
29.8456
 20
4.69773
 30
0.0
 11
30.0371
 21
4.55994
 31
0.0
  0
LINE
  8
0
 62
     0
 10
30.0371
 20
4.55994
 30
0.0
 11
29.9503
 21
4.05832
 31
0.0
  0
LINE
  8
0
 62
     0
 10
29.9503
 20
4.05832
 30
0.0
 11
29.8883
 21
3.9274
 31
0.0
  0
LINE
  8
0
 62
     0
 10
37.3489
 20
8.92694
 30
0.0
 11
37.2967
 21
8.98204
 31
0.0
  0
LINE
  8
0
 62
     0
 10
37.2967
 20
8.98204
 30
0.0
 11
36.8833
 21
9.13363
 31
0.0
  0
LINE
  8
0
 62
     0
 10
36.8833
 20
9.13363
 30
0.0
 11
36.3594
 21
9.04268
 31
0.0
  0
LINE
  8
0
 62
     0
 10
36.3594
 20
9.04268
 30
0.0
 11
36.2522
 21
8.97654
 31
0.0
  0
LINE
  8
0
 62
     0
 10
36.2522
 20
8.97654
 30
0.0
 11
36.0948
 21
8.88421
 31
0.0
  0
LINE
  8
0
 62
     0
 10
36.0948
 20
8.88421
 30
0.0
 11
35.6856
 21
8.49697
 31
0.0
  0
LINE
  8
0
 62
     0
 10
35.6856
 20
8.49697
 30
0.0
 11
35.0835
 21
7.74319
 31
0.0
  0
LINE
  8
0
 62
     0
 10
35.0835
 20
7.74319
 30
0.0
 11
34.4634
 21
6.78409
 31
0.0
  0
LINE
  8
0
 62
     0
 10
34.4634
 20
6.78409
 30
0.0
 11
33.9962
 21
5.96417
 31
0.0
  0
LINE
  8
0
 62
     0
 10
33.9962
 20
5.96417
 30
0.0
 11
33.8487
 21
5.68579
 31
0.0
  0
LINE
  8
0
 62
     0
 10
33.8487
 20
5.68579
 30
0.0
 11
33.6793
 21
5.36332
 31
0.0
  0
LINE
  8
0
 62
     0
 10
33.6793
 20
5.36332
 30
0.0
 11
32.9944
 21
3.83921
 31
0.0
  0
LINE
  8
0
 62
     0
 10
32.9944
 20
3.83921
 30
0.0
 11
32.5451
 21
2.48736
 31
0.0
  0
LINE
  8
0
 62
     0
 10
32.5451
 20
2.48736
 30
0.0
 11
32.4928
 21
2.25171
 31
0.0
  0
LINE
  8
0
 62
     0
 10
32.4928
 20
2.25171
 30
0.0
 11
32.4542
 21
2.08497
 31
0.0
  0
LINE
  8
0
 62
     0
 10
32.4542
 20
2.08497
 30
0.0
 11
32.4018
 21
1.56545
 31
0.0
  0
LINE
  8
0
 62
     0
 10
32.4018
 20
1.56545
 30
0.0
 11
32.4624
 21
0.932931
 31
0.0
  0
LINE
  8
0
 62
     0
 10
32.4624
 20
0.932931
 30
0.0
 11
32.6953
 21
0.451997
 31
0.0
  0
LINE
  8
0
 62
     0
 10
32.6953
 20
0.451997
 30
0.0
 11
33.0123
 21
0.234267
 31
0.0
  0
LINE
  8
0
 62
     0
 10
33.0123
 20
0.234267
 30
0.0
 11
33.1266
 21
0.21773
 31
0.0
  0
LINE
  8
0
 62
     0
 10
33.1266
 20
0.21773
 30
0.0
 11
33.2672
 21
0.199815
 31
0.0
  0
LINE
  8
0
 62
     0
 10
33.2672
 20
0.199815
 30
0.0
 11
33.7206
 21
0.350022
 31
0.0
  0
LINE
  8
0
 62
     0
 10
33.7206
 20
0.350022
 30
0.0
 11
34.2511
 21
0.829578
 31
0.0
  0
LINE
  8
0
 62
     0
 10
34.2511
 20
0.829578
 30
0.0
 11
34.7459
 21
1.5186
 31
0.0
  0
LINE
  8
0
 62
     0
 10
34.7459
 20
1.5186
 30
0.0
 11
35.1083
 21
2.09048
 31
0.0
  0
LINE
  8
0
 62
     0
 10
35.1083
 20
2.09048
 30
0.0
 11
35.2323
 21
2.27928
 31
0.0
  0
LINE
  8
0
 62
     0
 10
35.2323
 20
2.27928
 30
0.0
 11
35.0228
 21
2.27928
 31
0.0
  0
LINE
  8
0
 62
     0
 10
35.0228
 20
2.27928
 30
0.0
 11
34.9209
 21
2.12218
 31
0.0
  0
LINE
  8
0
 62
     0
 10
34.9209
 20
2.12218
 30
0.0
 11
34.6122
 21
1.65503
 31
0.0
  0
LINE
  8
0
 62
     0
 10
34.6122
 20
1.65503
 30
0.0
 11
34.1905
 21
1.10105
 31
0.0
  0
LINE
  8
0
 62
     0
 10
34.1905
 20
1.10105
 30
0.0
 11
33.7633
 21
0.72347
 31
0.0
  0
LINE
  8
0
 62
     0
 10
33.7633
 20
0.72347
 30
0.0
 11
33.4381
 21
0.607716
 31
0.0
  0
LINE
  8
0
 62
     0
 10
33.4381
 20
0.607716
 30
0.0
 11
33.3416
 21
0.62563
 31
0.0
  0
LINE
  8
0
 62
     0
 10
33.3416
 20
0.62563
 30
0.0
 11
33.2603
 21
0.642165
 31
0.0
  0
LINE
  8
0
 62
     0
 10
33.2603
 20
0.642165
 30
0.0
 11
33.055
 21
0.86403
 31
0.0
  0
LINE
  8
0
 62
     0
 10
33.055
 20
0.86403
 30
0.0
 11
32.931
 21
1.32705
 31
0.0
  0
LINE
  8
0
 62
     0
 10
32.931
 20
1.32705
 30
0.0
 11
32.9379
 21
1.87413
 31
0.0
  0
LINE
  8
0
 62
     0
 10
32.9379
 20
1.87413
 30
0.0
 11
33.0068
 21
2.2462
 31
0.0
  0
LINE
  8
0
 62
     0
 10
33.0068
 20
2.2462
 30
0.0
 11
33.0495
 21
2.36196
 31
0.0
  0
LINE
  8
0
 62
     0
 10
33.0495
 20
2.36196
 30
0.0
 11
33.5387
 21
2.65135
 31
0.0
  0
LINE
  8
0
 62
     0
 10
33.5387
 20
2.65135
 30
0.0
 11
34.8258
 21
3.82958
 31
0.0
  0
LINE
  8
0
 62
     0
 10
34.8258
 20
3.82958
 30
0.0
 11
36.4077
 21
5.79741
 31
0.0
  0
LINE
  8
0
 62
     0
 10
36.4077
 20
5.79741
 30
0.0
 11
37.3863
 21
7.68946
 31
0.0
  0
LINE
  8
0
 62
     0
 10
37.3863
 20
7.68946
 30
0.0
 11
37.5073
 21
8.76018
 31
0.0
  0
LINE
  8
0
 62
     0
 10
37.5073
 20
8.76018
 30
0.0
 11
37.3489
 21
8.92694
 31
0.0
  0
LINE
  8
0
 62
     0
 10
36.8529
 20
8.56865
 30
0.0
 11
36.9288
 21
8.58104
 31
0.0
  0
LINE
  8
0
 62
     0
 10
36.9288
 20
8.58104
 30
0.0
 11
37.1849
 21
8.44599
 31
0.0
  0
LINE
  8
0
 62
     0
 10
37.1849
 20
8.44599
 30
0.0
 11
37.1987
 21
7.97197
 31
0.0
  0
LINE
  8
0
 62
     0
 10
37.1987
 20
7.97197
 30
0.0
 11
36.9411
 21
7.23607
 31
0.0
  0
LINE
  8
0
 62
     0
 10
36.9411
 20
7.23607
 30
0.0
 11
36.4546
 21
6.3252
 31
0.0
  0
LINE
  8
0
 62
     0
 10
36.4546
 20
6.3252
 30
0.0
 11
35.7861
 21
5.32751
 31
0.0
  0
LINE
  8
0
 62
     0
 10
35.7861
 20
5.32751
 30
0.0
 11
34.9815
 21
4.32978
 31
0.0
  0
LINE
  8
0
 62
     0
 10
34.9815
 20
4.32978
 30
0.0
 11
34.0858
 21
3.42167
 31
0.0
  0
LINE
  8
0
 62
     0
 10
34.0858
 20
3.42167
 30
0.0
 11
33.3926
 21
2.84978
 31
0.0
  0
LINE
  8
0
 62
     0
 10
33.3926
 20
2.84978
 30
0.0
 11
33.1432
 21
2.68718
 31
0.0
  0
LINE
  8
0
 62
     0
 10
33.1432
 20
2.68718
 30
0.0
 11
33.2989
 21
3.16673
 31
0.0
  0
LINE
  8
0
 62
     0
 10
33.2989
 20
3.16673
 30
0.0
 11
33.897
 21
4.56269
 31
0.0
  0
LINE
  8
0
 62
     0
 10
33.897
 20
4.56269
 30
0.0
 11
34.8947
 21
6.43682
 31
0.0
  0
LINE
  8
0
 62
     0
 10
34.8947
 20
6.43682
 30
0.0
 11
35.9421
 21
7.9072
 31
0.0
  0
LINE
  8
0
 62
     0
 10
35.9421
 20
7.9072
 30
0.0
 11
36.6049
 21
8.53006
 31
0.0
  0
LINE
  8
0
 62
     0
 10
36.6049
 20
8.53006
 30
0.0
 11
36.8529
 21
8.56865
 31
0.0
  0
LINE
  8
0
 62
     0
 10
42.1005
 20
8.96553
 30
0.0
 11
42.0204
 21
9.03993
 31
0.0
  0
LINE
  8
0
 62
     0
 10
42.0204
 20
9.03993
 30
0.0
 11
41.432
 21
9.11296
 31
0.0
  0
LINE
  8
0
 62
     0
 10
41.432
 20
9.11296
 30
0.0
 11
40.6506
 21
8.71746
 31
0.0
  0
LINE
  8
0
 62
     0
 10
40.6506
 20
8.71746
 30
0.0
 11
40.4742
 21
8.55761
 31
0.0
  0
LINE
  8
0
 62
     0
 10
40.4742
 20
8.55761
 30
0.0
 11
40.2181
 21
8.3275
 31
0.0
  0
LINE
  8
0
 62
     0
 10
40.2181
 20
8.3275
 30
0.0
 11
39.5813
 21
7.48965
 31
0.0
  0
LINE
  8
0
 62
     0
 10
39.5813
 20
7.48965
 30
0.0
 11
38.7283
 21
6.05095
 31
0.0
  0
LINE
  8
0
 62
     0
 10
38.7283
 20
6.05095
 30
0.0
 11
38.0062
 21
4.51171
 31
0.0
  0
LINE
  8
0
 62
     0
 10
38.0062
 20
4.51171
 30
0.0
 11
37.6121
 21
3.48919
 31
0.0
  0
LINE
  8
0
 62
     0
 10
37.6121
 20
3.48919
 30
0.0
 11
37.5087
 21
3.13917
 31
0.0
  0
LINE
  8
0
 62
     0
 10
37.5087
 20
3.13917
 30
0.0
 11
37.4371
 21
3.24804
 31
0.0
  0
LINE
  8
0
 62
     0
 10
37.4371
 20
3.24804
 30
0.0
 11
36.926
 21
3.62977
 31
0.0
  0
LINE
  8
0
 62
     0
 10
36.926
 20
3.62977
 30
0.0
 11
36.2811
 21
3.68762
 31
0.0
  0
LINE
  8
0
 62
     0
 10
36.2811
 20
3.68762
 30
0.0
 11
36.1417
 21
3.63527
 31
0.0
  0
LINE
  8
0
 62
     0
 10
36.1417
 20
3.63527
 30
0.0
 11
36.0303
 21
3.59255
 31
0.0
  0
LINE
  8
0
 62
     0
 10
36.0303
 20
3.59255
 30
0.0
 11
35.7311
 21
3.36793
 31
0.0
  0
LINE
  8
0
 62
     0
 10
35.7311
 20
3.36793
 30
0.0
 11
35.3603
 21
2.92833
 31
0.0
  0
LINE
  8
0
 62
     0
 10
35.3603
 20
2.92833
 30
0.0
 11
35.0573
 21
2.37987
 31
0.0
  0
LINE
  8
0
 62
     0
 10
35.0573
 20
2.37987
 30
0.0
 11
34.8478
 21
1.78318
 31
0.0
  0
LINE
  8
0
 62
     0
 10
34.8478
 20
1.78318
 30
0.0
 11
34.7597
 21
1.20027
 31
0.0
  0
LINE
  8
0
 62
     0
 10
34.7597
 20
1.20027
 30
0.0
 11
34.8175
 21
0.694531
 31
0.0
  0
LINE
  8
0
 62
     0
 10
34.8175
 20
0.694531
 30
0.0
 11
35.0504
 21
0.326595
 31
0.0
  0
LINE
  8
0
 62
     0
 10
35.0504
 20
0.326595
 30
0.0
 11
35.3741
 21
0.166743
 31
0.0
  0
LINE
  8
0
 62
     0
 10
35.3741
 20
0.166743
 30
0.0
 11
35.4859
 21
0.157097
 31
0.0
  0
LINE
  8
0
 62
     0
 10
35.4859
 20
0.157097
 30
0.0
 11
35.6334
 21
0.146072
 31
0.0
  0
LINE
  8
0
 62
     0
 10
35.6334
 20
0.146072
 30
0.0
 11
36.3456
 21
0.604957
 31
0.0
  0
LINE
  8
0
 62
     0
 10
36.3456
 20
0.604957
 30
0.0
 11
37.0512
 21
1.66467
 31
0.0
  0
LINE
  8
0
 62
     0
 10
37.0512
 20
1.66467
 30
0.0
 11
37.1948
 21
1.95406
 31
0.0
  0
LINE
  8
0
 62
     0
 10
37.1948
 20
1.95406
 30
0.0
 11
37.174
 21
1.75838
 31
0.0
  0
LINE
  8
0
 62
     0
 10
37.174
 20
1.75838
 30
0.0
 11
37.174
 21
1.16169
 31
0.0
  0
LINE
  8
0
 62
     0
 10
37.174
 20
1.16169
 30
0.0
 11
37.2911
 21
0.622875
 31
0.0
  0
LINE
  8
0
 62
     0
 10
37.2911
 20
0.622875
 30
0.0
 11
37.5186
 21
0.305925
 31
0.0
  0
LINE
  8
0
 62
     0
 10
37.5186
 20
0.305925
 30
0.0
 11
37.7529
 21
0.188791
 31
0.0
  0
LINE
  8
0
 62
     0
 10
37.7529
 20
0.188791
 30
0.0
 11
37.834
 21
0.179145
 31
0.0
  0
LINE
  8
0
 62
     0
 10
37.834
 20
0.179145
 30
0.0
 11
37.9317
 21
0.168121
 31
0.0
  0
LINE
  8
0
 62
     0
 10
37.9317
 20
0.168121
 30
0.0
 11
38.2475
 21
0.26734
 31
0.0
  0
LINE
  8
0
 62
     0
 10
38.2475
 20
0.26734
 30
0.0
 11
38.7008
 21
0.63803
 31
0.0
  0
LINE
  8
0
 62
     0
 10
38.7008
 20
0.63803
 30
0.0
 11
39.2257
 21
1.305
 31
0.0
  0
LINE
  8
0
 62
     0
 10
39.2257
 20
1.305
 30
0.0
 11
39.7055
 21
2.03261
 31
0.0
  0
LINE
  8
0
 62
     0
 10
39.7055
 20
2.03261
 30
0.0
 11
39.8568
 21
2.27928
 31
0.0
  0
LINE
  8
0
 62
     0
 10
39.8568
 20
2.27928
 30
0.0
 11
39.6476
 21
2.27928
 31
0.0
  0
LINE
  8
0
 62
     0
 10
39.6476
 20
2.27928
 30
0.0
 11
39.5153
 21
2.07395
 31
0.0
  0
LINE
  8
0
 62
     0
 10
39.5153
 20
2.07395
 30
0.0
 11
39.0948
 21
1.46761
 31
0.0
  0
LINE
  8
0
 62
     0
 10
39.0948
 20
1.46761
 30
0.0
 11
38.6595
 21
0.932931
 31
0.0
  0
LINE
  8
0
 62
     0
 10
38.6595
 20
0.932931
 30
0.0
 11
38.3148
 21
0.646299
 31
0.0
  0
LINE
  8
0
 62
     0
 10
38.3148
 20
0.646299
 30
0.0
 11
38.1071
 21
0.571885
 31
0.0
  0
LINE
  8
0
 62
     0
 10
38.1071
 20
0.571885
 30
0.0
 11
38.0436
 21
0.581533
 31
0.0
  0
LINE
  8
0
 62
     0
 10
38.0436
 20
0.581533
 30
0.0
 11
37.9705
 21
0.592557
 31
0.0
  0
LINE
  8
0
 62
     0
 10
37.9705
 20
0.592557
 30
0.0
 11
37.7899
 21
0.883324
 31
0.0
  0
LINE
  8
0
 62
     0
 10
37.7899
 20
0.883324
 30
0.0
 11
37.743
 21
1.53651
 31
0.0
  0
LINE
  8
0
 62
     0
 10
37.743
 20
1.53651
 30
0.0
 11
37.852
 21
2.32475
 31
0.0
  0
LINE
  8
0
 62
     0
 10
37.852
 20
2.32475
 30
0.0
 11
37.998
 21
2.86081
 31
0.0
  0
LINE
  8
0
 62
     0
 10
37.998
 20
2.86081
 30
0.0
 11
38.0711
 21
3.02893
 31
0.0
  0
LINE
  8
0
 62
     0
 10
38.0711
 20
3.02893
 30
0.0
 11
38.5149
 21
3.27284
 31
0.0
  0
LINE
  8
0
 62
     0
 10
38.5149
 20
3.27284
 30
0.0
 11
39.6917
 21
4.28569
 31
0.0
  0
LINE
  8
0
 62
     0
 10
39.6917
 20
4.28569
 30
0.0
 11
41.2267
 21
6.04682
 31
0.0
  0
LINE
  8
0
 62
     0
 10
41.2267
 20
6.04682
 30
0.0
 11
42.1901
 21
7.78454
 31
0.0
  0
LINE
  8
0
 62
     0
 10
42.1901
 20
7.78454
 30
0.0
 11
42.2589
 21
8.81669
 31
0.0
  0
LINE
  8
0
 62
     0
 10
42.2589
 20
8.81669
 30
0.0
 11
42.1005
 21
8.96553
 31
0.0
  0
LINE
  8
0
 62
     0
 10
41.6486
 20
8.51902
 30
0.0
 11
41.7103
 21
8.52869
 31
0.0
  0
LINE
  8
0
 62
     0
 10
41.7103
 20
8.52869
 30
0.0
 11
41.9241
 21
8.40878
 31
0.0
  0
LINE
  8
0
 62
     0
 10
41.9241
 20
8.40878
 30
0.0
 11
41.9269
 21
7.99814
 31
0.0
  0
LINE
  8
0
 62
     0
 10
41.9269
 20
7.99814
 30
0.0
 11
41.6899
 21
7.36286
 31
0.0
  0
LINE
  8
0
 62
     0
 10
41.6899
 20
7.36286
 30
0.0
 11
41.2517
 21
6.57599
 31
0.0
  0
LINE
  8
0
 62
     0
 10
41.2517
 20
6.57599
 30
0.0
 11
40.6453
 21
5.71334
 31
0.0
  0
LINE
  8
0
 62
     0
 10
40.6453
 20
5.71334
 30
0.0
 11
39.9094
 21
4.85069
 31
0.0
  0
LINE
  8
0
 62
     0
 10
39.9094
 20
4.85069
 30
0.0
 11
39.0797
 21
4.06107
 31
0.0
  0
LINE
  8
0
 62
     0
 10
39.0797
 20
4.06107
 30
0.0
 11
38.4253
 21
3.56087
 31
0.0
  0
LINE
  8
0
 62
     0
 10
38.4253
 20
3.56087
 30
0.0
 11
38.1924
 21
3.42029
 31
0.0
  0
LINE
  8
0
 62
     0
 10
38.1924
 20
3.42029
 30
0.0
 11
38.3565
 21
3.86126
 31
0.0
  0
LINE
  8
0
 62
     0
 10
38.3565
 20
3.86126
 30
0.0
 11
38.9407
 21
5.15112
 31
0.0
  0
LINE
  8
0
 62
     0
 10
38.9407
 20
5.15112
 30
0.0
 11
39.8431
 21
6.76204
 31
0.0
  0
LINE
  8
0
 62
     0
 10
39.8431
 20
6.76204
 30
0.0
 11
40.7843
 21
7.97609
 31
0.0
  0
LINE
  8
0
 62
     0
 10
40.7843
 20
7.97609
 30
0.0
 11
41.4168
 21
8.48596
 31
0.0
  0
LINE
  8
0
 62
     0
 10
41.4168
 20
8.48596
 30
0.0
 11
41.6486
 21
8.51902
 31
0.0
  0
LINE
  8
0
 62
     0
 10
35.7117
 20
0.614606
 30
0.0
 11
35.6443
 21
0.620116
 31
0.0
  0
LINE
  8
0
 62
     0
 10
35.6443
 20
0.620116
 30
0.0
 11
35.4542
 21
0.799264
 31
0.0
  0
LINE
  8
0
 62
     0
 10
35.4542
 20
0.799264
 30
0.0
 11
35.403
 21
1.22232
 31
0.0
  0
LINE
  8
0
 62
     0
 10
35.403
 20
1.22232
 30
0.0
 11
35.523
 21
1.78043
 31
0.0
  0
LINE
  8
0
 62
     0
 10
35.523
 20
1.78043
 30
0.0
 11
35.7766
 21
2.36609
 31
0.0
  0
LINE
  8
0
 62
     0
 10
35.7766
 20
2.36609
 30
0.0
 11
36.1266
 21
2.87459
 31
0.0
  0
LINE
  8
0
 62
     0
 10
36.1266
 20
2.87459
 30
0.0
 11
36.5386
 21
3.1998
 31
0.0
  0
LINE
  8
0
 62
     0
 10
36.5386
 20
3.1998
 30
0.0
 11
36.9768
 21
3.23701
 31
0.0
  0
LINE
  8
0
 62
     0
 10
36.9768
 20
3.23701
 30
0.0
 11
37.3271
 21
2.99034
 31
0.0
  0
LINE
  8
0
 62
     0
 10
37.3271
 20
2.99034
 30
0.0
 11
37.404
 21
2.8801
 31
0.0
  0
LINE
  8
0
 62
     0
 10
37.404
 20
2.8801
 30
0.0
 11
37.3394
 21
2.70922
 31
0.0
  0
LINE
  8
0
 62
     0
 10
37.3394
 20
2.70922
 30
0.0
 11
37.1023
 21
2.209
 31
0.0
  0
LINE
  8
0
 62
     0
 10
37.1023
 20
2.209
 30
0.0
 11
36.667
 21
1.45383
 31
0.0
  0
LINE
  8
0
 62
     0
 10
36.667
 20
1.45383
 30
0.0
 11
36.1763
 21
0.846116
 31
0.0
  0
LINE
  8
0
 62
     0
 10
36.1763
 20
0.846116
 30
0.0
 11
35.8221
 21
0.606337
 31
0.0
  0
LINE
  8
0
 62
     0
 10
35.8221
 20
0.606337
 30
0.0
 11
35.7117
 21
0.614606
 31
0.0
  0
ENDSEC
  0
EOF
