  0
SECTION
  2
HEADER
  9
$ACADVER
  1
AC1009
  9
$EXTMIN
 10
0.0
 20
0.0
 30
0.0
  9
$EXTMAX
 10
1000.0
 20
1000.0
 30
0.0
  9
$FILLMODE
 70
 0
  9
$SPLFRAME
 70
 1
  0
ENDSEC
  0
SECTION
  2
TABLES
  0
TABLE
  2
LAYER
 70
1
  0
LAYER
  2
0
 70
     0
 62
     7
  6
CONTINUOUS
  0
ENDTAB
  0
ENDSEC
  0
SECTION
  2
ENTITIES
  0
LINE
  8
0
 62
     0
 10
4.15893
 20
2.42673
 30
0.0
 11
4.15756
 21
2.42535
 31
0.0
  0
LINE
  8
0
 62
     0
 10
4.15756
 20
2.42535
 30
0.0
 11
4.16031
 21
2.41432
 31
0.0
  0
LINE
  8
0
 62
     0
 10
4.16031
 20
2.41432
 30
0.0
 11
4.20853
 21
2.45153
 31
0.0
  0
LINE
  8
0
 62
     0
 10
4.20853
 20
2.45153
 30
0.0
 11
4.21404
 21
2.44878
 31
0.0
  0
LINE
  8
0
 62
     0
 10
4.21404
 20
2.44878
 30
0.0
 11
4.20578
 21
2.43499
 31
0.0
  0
LINE
  8
0
 62
     0
 10
4.20578
 20
2.43499
 30
0.0
 11
4.19199
 21
2.38814
 31
0.0
  0
LINE
  8
0
 62
     0
 10
4.19199
 20
2.38814
 30
0.0
 11
4.20303
 21
2.38814
 31
0.0
  0
LINE
  8
0
 62
     0
 10
4.20303
 20
2.38814
 30
0.0
 11
4.20303
 21
2.38814
 31
0.0
  0
LINE
  8
0
 62
     0
 10
4.20303
 20
2.38814
 30
0.0
 11
4.12722
 21
2.29443
 31
0.0
  0
LINE
  8
0
 62
     0
 10
4.12722
 20
2.29443
 30
0.0
 11
3.84471
 21
1.9389
 31
0.0
  0
LINE
  8
0
 62
     0
 10
3.84471
 20
1.9389
 30
0.0
 11
3.61047
 21
1.64676
 31
0.0
  0
LINE
  8
0
 62
     0
 10
3.61047
 20
1.64676
 30
0.0
 11
3.55808
 21
1.58337
 31
0.0
  0
LINE
  8
0
 62
     0
 10
3.55808
 20
1.58337
 30
0.0
 11
3.47955
 21
1.50757
 31
0.0
  0
LINE
  8
0
 62
     0
 10
3.47955
 20
1.50757
 30
0.0
 11
3.20807
 21
1.21543
 31
0.0
  0
LINE
  8
0
 62
     0
 10
3.20807
 20
1.21543
 30
0.0
 11
2.99034
 21
0.988053
 31
0.0
  0
LINE
  8
0
 62
     0
 10
2.99034
 20
0.988053
 30
0.0
 11
2.94073
 21
0.943956
 31
0.0
  0
LINE
  8
0
 62
     0
 10
2.94073
 20
0.943956
 30
0.0
 11
2.88699
 21
0.880565
 31
0.0
  0
LINE
  8
0
 62
     0
 10
2.88699
 20
0.880565
 30
0.0
 11
2.41294
 21
0.563619
 31
0.0
  0
LINE
  8
0
 62
     0
 10
2.41294
 20
0.563619
 30
0.0
 11
2.36747
 21
0.54157
 31
0.0
  0
LINE
  8
0
 62
     0
 10
2.36747
 20
0.54157
 30
0.0
 11
2.30821
 21
0.504363
 31
0.0
  0
LINE
  8
0
 62
     0
 10
2.30821
 20
0.504363
 30
0.0
 11
2.08359
 21
0.434082
 31
0.0
  0
LINE
  8
0
 62
     0
 10
2.08359
 20
0.434082
 30
0.0
 11
1.89894
 21
0.456131
 31
0.0
  0
LINE
  8
0
 62
     0
 10
1.89894
 20
0.456131
 30
0.0
 11
1.86035
 21
0.4644
 31
0.0
  0
LINE
  8
0
 62
     0
 10
1.86035
 20
0.4644
 30
0.0
 11
1.81763
 21
0.465776
 31
0.0
  0
LINE
  8
0
 62
     0
 10
1.81763
 20
0.465776
 30
0.0
 11
1.5434
 21
0.668348
 31
0.0
  0
LINE
  8
0
 62
     0
 10
1.5434
 20
0.668348
 30
0.0
 11
1.52962
 21
0.695911
 31
0.0
  0
LINE
  8
0
 62
     0
 10
1.52962
 20
0.695911
 30
0.0
 11
1.51309
 21
0.697286
 31
0.0
  0
LINE
  8
0
 62
     0
 10
1.51309
 20
0.697286
 30
0.0
 11
1.46761
 21
0.836468
 31
0.0
  0
LINE
  8
0
 62
     0
 10
1.46761
 20
0.836468
 30
0.0
 11
1.45659
 21
1.04593
 31
0.0
  0
LINE
  8
0
 62
     0
 10
1.45659
 20
1.04593
 30
0.0
 11
1.45796
 21
1.08176
 31
0.0
  0
LINE
  8
0
 62
     0
 10
1.45796
 20
1.08176
 30
0.0
 11
1.43316
 21
1.11759
 31
0.0
  0
LINE
  8
0
 62
     0
 10
1.43316
 20
1.11759
 30
0.0
 11
1.44005
 21
1.30362
 31
0.0
  0
LINE
  8
0
 62
     0
 10
1.44005
 20
1.30362
 30
0.0
 11
1.5186
 21
1.49517
 31
0.0
  0
LINE
  8
0
 62
     0
 10
1.5186
 20
1.49517
 30
0.0
 11
1.52962
 21
1.53376
 31
0.0
  0
LINE
  8
0
 62
     0
 10
1.52962
 20
1.53376
 30
0.0
 11
1.53651
 21
1.56407
 31
0.0
  0
LINE
  8
0
 62
     0
 10
1.53651
 20
1.56407
 30
0.0
 11
1.63711
 21
1.92236
 31
0.0
  0
LINE
  8
0
 62
     0
 10
1.63711
 20
1.92236
 30
0.0
 11
1.64538
 21
1.95268
 31
0.0
  0
LINE
  8
0
 62
     0
 10
1.64538
 20
1.95268
 30
0.0
 11
1.64124
 21
1.96922
 31
0.0
  0
LINE
  8
0
 62
     0
 10
1.64124
 20
1.96922
 30
0.0
 11
1.7005
 21
2.17179
 31
0.0
  0
LINE
  8
0
 62
     0
 10
1.7005
 20
2.17179
 30
0.0
 11
1.7005
 21
2.23931
 31
0.0
  0
LINE
  8
0
 62
     0
 10
1.7005
 20
2.23931
 30
0.0
 11
1.68258
 21
2.24758
 31
0.0
  0
LINE
  8
0
 62
     0
 10
1.68258
 20
2.24758
 30
0.0
 11
1.59301
 21
2.3027
 31
0.0
  0
LINE
  8
0
 62
     0
 10
1.59301
 20
2.3027
 30
0.0
 11
1.57372
 21
2.29443
 31
0.0
  0
LINE
  8
0
 62
     0
 10
1.57372
 20
2.29443
 30
0.0
 11
1.54892
 21
2.27239
 31
0.0
  0
LINE
  8
0
 62
     0
 10
1.54892
 20
2.27239
 30
0.0
 11
1.32154
 21
2.14009
 31
0.0
  0
LINE
  8
0
 62
     0
 10
1.32154
 20
2.14009
 30
0.0
 11
1.2926
 21
2.11805
 31
0.0
  0
LINE
  8
0
 62
     0
 10
1.2926
 20
2.11805
 30
0.0
 11
1.24988
 21
2.06981
 31
0.0
  0
LINE
  8
0
 62
     0
 10
1.24988
 20
2.06981
 30
0.0
 11
1.09279
 21
1.94303
 31
0.0
  0
LINE
  8
0
 62
     0
 10
1.09279
 20
1.94303
 30
0.0
 11
0.959115
 21
1.85897
 31
0.0
  0
LINE
  8
0
 62
     0
 10
0.959115
 20
1.85897
 30
0.0
 11
0.928797
 21
1.83141
 31
0.0
  0
LINE
  8
0
 62
     0
 10
0.928797
 20
1.83141
 30
0.0
 11
0.886079
 21
1.79972
 31
0.0
  0
LINE
  8
0
 62
     0
 10
0.886079
 20
1.79972
 30
0.0
 11
0.609092
 21
1.5062
 31
0.0
  0
LINE
  8
0
 62
     0
 10
0.609092
 20
1.5062
 30
0.0
 11
0.581533
 21
1.47312
 31
0.0
  0
LINE
  8
0
 62
     0
 10
0.581533
 20
1.47312
 30
0.0
 11
0.54157
 21
1.43729
 31
0.0
  0
LINE
  8
0
 62
     0
 10
0.54157
 20
1.43729
 30
0.0
 11
0.356912
 21
1.14377
 31
0.0
  0
LINE
  8
0
 62
     0
 10
0.356912
 20
1.14377
 30
0.0
 11
0.34451
 21
1.11483
 31
0.0
  0
LINE
  8
0
 62
     0
 10
0.34451
 20
1.11483
 30
0.0
 11
0.316949
 21
1.09692
 31
0.0
  0
LINE
  8
0
 62
     0
 10
0.316949
 20
1.09692
 30
0.0
 11
0.283876
 21
0.957735
 31
0.0
  0
LINE
  8
0
 62
     0
 10
0.283876
 20
0.957735
 30
0.0
 11
0.278364
 21
0.943956
 31
0.0
  0
LINE
  8
0
 62
     0
 10
0.278364
 20
0.943956
 30
0.0
 11
0.260449
 21
0.919152
 31
0.0
  0
LINE
  8
0
 62
     0
 10
0.260449
 20
0.919152
 30
0.0
 11
0.194303
 21
0.853006
 31
0.0
  0
LINE
  8
0
 62
     0
 10
0.194303
 20
0.853006
 30
0.0
 11
0.136426
 21
0.86541
 31
0.0
  0
LINE
  8
0
 62
     0
 10
0.136426
 20
0.86541
 30
0.0
 11
0.118511
 21
0.866786
 31
0.0
  0
LINE
  8
0
 62
     0
 10
0.118511
 20
0.866786
 30
0.0
 11
0.107487
 21
0.862651
 31
0.0
  0
LINE
  8
0
 62
     0
 10
0.107487
 20
0.862651
 30
0.0
 11
-0.00275608
 21
0.992188
 31
0.0
  0
LINE
  8
0
 62
     0
 10
-0.00275608
 20
0.992188
 30
0.0
 11
0.00275608
 21
1.01562
 31
0.0
  0
LINE
  8
0
 62
     0
 10
0.00275608
 20
1.01562
 30
0.0
 11
0.00275608
 21
1.01562
 31
0.0
  0
LINE
  8
0
 62
     0
 10
0.00275608
 20
1.01562
 30
0.0
 11
0.00689021
 21
1.14653
 31
0.0
  0
LINE
  8
0
 62
     0
 10
0.00689021
 20
1.14653
 30
0.0
 11
0.0978408
 21
1.38631
 31
0.0
  0
LINE
  8
0
 62
     0
 10
0.0978408
 20
1.38631
 30
0.0
 11
0.112999
 21
1.43454
 31
0.0
  0
LINE
  8
0
 62
     0
 10
0.112999
 20
1.43454
 30
0.0
 11
0.124024
 21
1.48277
 31
0.0
  0
LINE
  8
0
 62
     0
 10
0.124024
 20
1.48277
 30
0.0
 11
0.310059
 21
2.06843
 31
0.0
  0
LINE
  8
0
 62
     0
 10
0.310059
 20
2.06843
 30
0.0
 11
0.333485
 21
2.13458
 31
0.0
  0
LINE
  8
0
 62
     0
 10
0.333485
 20
2.13458
 30
0.0
 11
0.334863
 21
2.20211
 31
0.0
  0
LINE
  8
0
 62
     0
 10
0.334863
 20
2.20211
 30
0.0
 11
0.622875
 21
2.92833
 31
0.0
  0
LINE
  8
0
 62
     0
 10
0.622875
 20
2.92833
 30
0.0
 11
0.653189
 21
3.0055
 31
0.0
  0
LINE
  8
0
 62
     0
 10
0.653189
 20
3.0055
 30
0.0
 11
0.665593
 21
3.06889
 31
0.0
  0
LINE
  8
0
 62
     0
 10
0.665593
 20
3.06889
 30
0.0
 11
0.818554
 21
3.44923
 31
0.0
  0
LINE
  8
0
 62
     0
 10
0.818554
 20
3.44923
 30
0.0
 11
1.01975
 21
3.85576
 31
0.0
  0
LINE
  8
0
 62
     0
 10
1.01975
 20
3.85576
 30
0.0
 11
1.05558
 21
3.93153
 31
0.0
  0
LINE
  8
0
 62
     0
 10
1.05558
 20
3.93153
 30
0.0
 11
1.06798
 21
4.00459
 31
0.0
  0
LINE
  8
0
 62
     0
 10
1.06798
 20
4.00459
 30
0.0
 11
1.46348
 21
4.72944
 31
0.0
  0
LINE
  8
0
 62
     0
 10
1.46348
 20
4.72944
 30
0.0
 11
1.50206
 21
4.79697
 31
0.0
  0
LINE
  8
0
 62
     0
 10
1.50206
 20
4.79697
 30
0.0
 11
1.54065
 21
4.84932
 31
0.0
  0
LINE
  8
0
 62
     0
 10
1.54065
 20
4.84932
 30
0.0
 11
1.93614
 21
5.45013
 31
0.0
  0
LINE
  8
0
 62
     0
 10
1.93614
 20
5.45013
 30
0.0
 11
1.97611
 21
5.49698
 31
0.0
  0
LINE
  8
0
 62
     0
 10
1.97611
 20
5.49698
 30
0.0
 11
2.00367
 21
5.53007
 31
0.0
  0
LINE
  8
0
 62
     0
 10
2.00367
 20
5.53007
 30
0.0
 11
2.40605
 21
5.8994
 31
0.0
  0
LINE
  8
0
 62
     0
 10
2.40605
 20
5.8994
 30
0.0
 11
2.44464
 21
5.92145
 31
0.0
  0
LINE
  8
0
 62
     0
 10
2.44464
 20
5.92145
 30
0.0
 11
2.46255
 21
5.92145
 31
0.0
  0
LINE
  8
0
 62
     0
 10
2.46255
 20
5.92145
 30
0.0
 11
2.64308
 21
5.96
 31
0.0
  0
LINE
  8
0
 62
     0
 10
2.64308
 20
5.96
 30
0.0
 11
2.8553
 21
5.96692
 31
0.0
  0
LINE
  8
0
 62
     0
 10
2.8553
 20
5.96692
 30
0.0
 11
2.89112
 21
5.949
 31
0.0
  0
LINE
  8
0
 62
     0
 10
2.89112
 20
5.949
 30
0.0
 11
2.88286
 21
5.92282
 31
0.0
  0
LINE
  8
0
 62
     0
 10
2.88286
 20
5.92282
 30
0.0
 11
2.92558
 21
5.82358
 31
0.0
  0
LINE
  8
0
 62
     0
 10
2.92558
 20
5.82358
 30
0.0
 11
2.97794
 21
5.73264
 31
0.0
  0
LINE
  8
0
 62
     0
 10
2.97794
 20
5.73264
 30
0.0
 11
2.97381
 21
5.70646
 31
0.0
  0
LINE
  8
0
 62
     0
 10
2.97381
 20
5.70646
 30
0.0
 11
2.96278
 21
5.672
 31
0.0
  0
LINE
  8
0
 62
     0
 10
2.96278
 20
5.672
 30
0.0
 11
2.84427
 21
5.30408
 31
0.0
  0
LINE
  8
0
 62
     0
 10
2.84427
 20
5.30408
 30
0.0
 11
2.82498
 21
5.25999
 31
0.0
  0
LINE
  8
0
 62
     0
 10
2.82498
 20
5.25999
 30
0.0
 11
2.78226
 21
5.19105
 31
0.0
  0
LINE
  8
0
 62
     0
 10
2.78226
 20
5.19105
 30
0.0
 11
2.65272
 21
4.95268
 31
0.0
  0
LINE
  8
0
 62
     0
 10
2.65272
 20
4.95268
 30
0.0
 11
2.54386
 21
4.75287
 31
0.0
  0
LINE
  8
0
 62
     0
 10
2.54386
 20
4.75287
 30
0.0
 11
2.51079
 21
4.70323
 31
0.0
  0
LINE
  8
0
 62
     0
 10
2.51079
 20
4.70323
 30
0.0
 11
2.45153
 21
4.64538
 31
0.0
  0
LINE
  8
0
 62
     0
 10
2.45153
 20
4.64538
 30
0.0
 11
2.26963
 21
4.40147
 31
0.0
  0
LINE
  8
0
 62
     0
 10
2.26963
 20
4.40147
 30
0.0
 11
2.12907
 21
4.18236
 31
0.0
  0
LINE
  8
0
 62
     0
 10
2.12907
 20
4.18236
 30
0.0
 11
2.09186
 21
4.13551
 31
0.0
  0
LINE
  8
0
 62
     0
 10
2.09186
 20
4.13551
 30
0.0
 11
2.03399
 21
4.07074
 31
0.0
  0
LINE
  8
0
 62
     0
 10
2.03399
 20
4.07074
 30
0.0
 11
1.83968
 21
3.8475
 31
0.0
  0
LINE
  8
0
 62
     0
 10
1.83968
 20
3.8475
 30
0.0
 11
1.68672
 21
3.68212
 31
0.0
  0
LINE
  8
0
 62
     0
 10
1.68672
 20
3.68212
 30
0.0
 11
1.65089
 21
3.6449
 31
0.0
  0
LINE
  8
0
 62
     0
 10
1.65089
 20
3.6449
 30
0.0
 11
1.5999
 21
3.6008
 31
0.0
  0
LINE
  8
0
 62
     0
 10
1.5999
 20
3.6008
 30
0.0
 11
1.42076
 21
3.4451
 31
0.0
  0
LINE
  8
0
 62
     0
 10
1.42076
 20
3.4451
 30
0.0
 11
1.28295
 21
3.34725
 31
0.0
  0
LINE
  8
0
 62
     0
 10
1.28295
 20
3.34725
 30
0.0
 11
1.25402
 21
3.33072
 31
0.0
  0
LINE
  8
0
 62
     0
 10
1.25402
 20
3.33072
 30
0.0
 11
1.21405
 21
3.25355
 31
0.0
  0
LINE
  8
0
 62
     0
 10
1.21405
 20
3.25355
 30
0.0
 11
0.94258
 21
2.6417
 31
0.0
  0
LINE
  8
0
 62
     0
 10
0.94258
 20
2.6417
 30
0.0
 11
0.917773
 21
2.58107
 31
0.0
  0
LINE
  8
0
 62
     0
 10
0.917773
 20
2.58107
 30
0.0
 11
0.8847
 21
2.52181
 31
0.0
  0
LINE
  8
0
 62
     0
 10
0.8847
 20
2.52181
 30
0.0
 11
0.679372
 21
2.01056
 31
0.0
  0
LINE
  8
0
 62
     0
 10
0.679372
 20
2.01056
 30
0.0
 11
0.658703
 21
1.95819
 31
0.0
  0
LINE
  8
0
 62
     0
 10
0.658703
 20
1.95819
 30
0.0
 11
0.61874
 21
1.89067
 31
0.0
  0
LINE
  8
0
 62
     0
 10
0.61874
 20
1.89067
 30
0.0
 11
0.525032
 21
1.65916
 31
0.0
  0
LINE
  8
0
 62
     0
 10
0.525032
 20
1.65916
 30
0.0
 11
0.490583
 21
1.51171
 31
0.0
  0
LINE
  8
0
 62
     0
 10
0.490583
 20
1.51171
 30
0.0
 11
0.482314
 21
1.48415
 31
0.0
  0
LINE
  8
0
 62
     0
 10
0.482314
 20
1.48415
 30
0.0
 11
0.496094
 21
1.49793
 31
0.0
  0
LINE
  8
0
 62
     0
 10
0.496094
 20
1.49793
 30
0.0
 11
0.744142
 21
1.74322
 31
0.0
  0
LINE
  8
0
 62
     0
 10
0.744142
 20
1.74322
 30
0.0
 11
0.774457
 21
1.77078
 31
0.0
  0
LINE
  8
0
 62
     0
 10
0.774457
 20
1.77078
 30
0.0
 11
0.775836
 21
1.79972
 31
0.0
  0
LINE
  8
0
 62
     0
 10
0.775836
 20
1.79972
 30
0.0
 11
0.916397
 21
1.93752
 31
0.0
  0
LINE
  8
0
 62
     0
 10
0.916397
 20
1.93752
 30
0.0
 11
1.12172
 21
2.07119
 31
0.0
  0
LINE
  8
0
 62
     0
 10
1.12172
 20
2.07119
 30
0.0
 11
1.1548
 21
2.096
 31
0.0
  0
LINE
  8
0
 62
     0
 10
1.1548
 20
2.096
 30
0.0
 11
1.18649
 21
2.096
 31
0.0
  0
LINE
  8
0
 62
     0
 10
1.18649
 20
2.096
 30
0.0
 11
1.52411
 21
2.34404
 31
0.0
  0
LINE
  8
0
 62
     0
 10
1.52411
 20
2.34404
 30
0.0
 11
1.55718
 21
2.36058
 31
0.0
  0
LINE
  8
0
 62
     0
 10
1.55718
 20
2.36058
 30
0.0
 11
1.58474
 21
2.3592
 31
0.0
  0
LINE
  8
0
 62
     0
 10
1.58474
 20
2.3592
 30
0.0
 11
1.88378
 21
2.44326
 31
0.0
  0
LINE
  8
0
 62
     0
 10
1.88378
 20
2.44326
 30
0.0
 11
1.90996
 21
2.43775
 31
0.0
  0
LINE
  8
0
 62
     0
 10
1.90996
 20
2.43775
 30
0.0
 11
1.9265
 21
2.40743
 31
0.0
  0
LINE
  8
0
 62
     0
 10
1.9265
 20
2.40743
 30
0.0
 11
2.0643
 21
2.29168
 31
0.0
  0
LINE
  8
0
 62
     0
 10
2.0643
 20
2.29168
 30
0.0
 11
2.06981
 21
2.26687
 31
0.0
  0
LINE
  8
0
 62
     0
 10
2.06981
 20
2.26687
 30
0.0
 11
2.05466
 21
2.23104
 31
0.0
  0
LINE
  8
0
 62
     0
 10
2.05466
 20
2.23104
 30
0.0
 11
2.07395
 21
1.95406
 31
0.0
  0
LINE
  8
0
 62
     0
 10
2.07395
 20
1.95406
 30
0.0
 11
2.06981
 21
1.91961
 31
0.0
  0
LINE
  8
0
 62
     0
 10
2.06981
 20
1.91961
 30
0.0
 11
2.04639
 21
1.87413
 31
0.0
  0
LINE
  8
0
 62
     0
 10
2.04639
 20
1.87413
 30
0.0
 11
1.99126
 21
1.52824
 31
0.0
  0
LINE
  8
0
 62
     0
 10
1.99126
 20
1.52824
 30
0.0
 11
1.98162
 21
1.48966
 31
0.0
  0
LINE
  8
0
 62
     0
 10
1.98162
 20
1.48966
 30
0.0
 11
1.96095
 21
1.44556
 31
0.0
  0
LINE
  8
0
 62
     0
 10
1.96095
 20
1.44556
 30
0.0
 11
1.88929
 21
1.09279
 31
0.0
  0
LINE
  8
0
 62
     0
 10
1.88929
 20
1.09279
 30
0.0
 11
1.8824
 21
1.05971
 31
0.0
  0
LINE
  8
0
 62
     0
 10
1.8824
 20
1.05971
 30
0.0
 11
1.87275
 21
1.00183
 31
0.0
  0
LINE
  8
0
 62
     0
 10
1.87275
 20
1.00183
 30
0.0
 11
1.84657
 21
0.826823
 31
0.0
  0
LINE
  8
0
 62
     0
 10
1.84657
 20
0.826823
 30
0.0
 11
1.8383
 21
0.731739
 31
0.0
  0
LINE
  8
0
 62
     0
 10
1.8383
 20
0.731739
 30
0.0
 11
1.8383
 21
0.706935
 31
0.0
  0
LINE
  8
0
 62
     0
 10
1.8383
 20
0.706935
 30
0.0
 11
1.81901
 21
0.673862
 31
0.0
  0
LINE
  8
0
 62
     0
 10
1.81901
 20
0.673862
 30
0.0
 11
1.8135
 21
0.545705
 31
0.0
  0
LINE
  8
0
 62
     0
 10
1.8135
 20
0.545705
 30
0.0
 11
1.90996
 21
0.536056
 31
0.0
  0
LINE
  8
0
 62
     0
 10
1.90996
 20
0.536056
 30
0.0
 11
1.9265
 21
0.530546
 31
0.0
  0
LINE
  8
0
 62
     0
 10
1.9265
 20
0.530546
 30
0.0
 11
1.94717
 21
0.507118
 31
0.0
  0
LINE
  8
0
 62
     0
 10
1.94717
 20
0.507118
 30
0.0
 11
2.10426
 21
0.500228
 31
0.0
  0
LINE
  8
0
 62
     0
 10
2.10426
 20
0.500228
 30
0.0
 11
2.29857
 21
0.581533
 31
0.0
  0
LINE
  8
0
 62
     0
 10
2.29857
 20
0.581533
 30
0.0
 11
2.33991
 21
0.602202
 31
0.0
  0
LINE
  8
0
 62
     0
 10
2.33991
 20
0.602202
 30
0.0
 11
2.39916
 21
0.602202
 31
0.0
  0
LINE
  8
0
 62
     0
 10
2.39916
 20
0.602202
 30
0.0
 11
2.57693
 21
0.728984
 31
0.0
  0
LINE
  8
0
 62
     0
 10
2.57693
 20
0.728984
 30
0.0
 11
2.82222
 21
0.943956
 31
0.0
  0
LINE
  8
0
 62
     0
 10
2.82222
 20
0.943956
 30
0.0
 11
2.86907
 21
0.988053
 31
0.0
  0
LINE
  8
0
 62
     0
 10
2.86907
 20
0.988053
 30
0.0
 11
2.88975
 21
1.00873
 31
0.0
  0
LINE
  8
0
 62
     0
 10
2.88975
 20
1.00873
 30
0.0
 11
3.12401
 21
1.24024
 31
0.0
  0
LINE
  8
0
 62
     0
 10
3.12401
 20
1.24024
 30
0.0
 11
3.4258
 21
1.55581
 31
0.0
  0
LINE
  8
0
 62
     0
 10
3.4258
 20
1.55581
 30
0.0
 11
3.48093
 21
1.61644
 31
0.0
  0
LINE
  8
0
 62
     0
 10
3.48093
 20
1.61644
 30
0.0
 11
3.51675
 21
1.66329
 31
0.0
  0
LINE
  8
0
 62
     0
 10
3.51675
 20
1.66329
 30
0.0
 11
3.78686
 21
1.98162
 31
0.0
  0
LINE
  8
0
 62
     0
 10
3.78686
 20
1.98162
 30
0.0
 11
4.10104
 21
2.35507
 31
0.0
  0
LINE
  8
0
 62
     0
 10
4.10104
 20
2.35507
 30
0.0
 11
4.15893
 21
2.42673
 31
0.0
  0
LINE
  8
0
 62
     0
 10
2.77537
 20
5.84426
 30
0.0
 11
2.74919
 21
5.83046
 31
0.0
  0
LINE
  8
0
 62
     0
 10
2.74919
 20
5.83046
 30
0.0
 11
2.6734
 21
5.78086
 31
0.0
  0
LINE
  8
0
 62
     0
 10
2.6734
 20
5.78086
 30
0.0
 11
2.61276
 21
5.70921
 31
0.0
  0
LINE
  8
0
 62
     0
 10
2.61276
 20
5.70921
 30
0.0
 11
2.59347
 21
5.68441
 31
0.0
  0
LINE
  8
0
 62
     0
 10
2.59347
 20
5.68441
 30
0.0
 11
2.56866
 21
5.65686
 31
0.0
  0
LINE
  8
0
 62
     0
 10
2.56866
 20
5.65686
 30
0.0
 11
2.33853
 21
5.33301
 31
0.0
  0
LINE
  8
0
 62
     0
 10
2.33853
 20
5.33301
 30
0.0
 11
2.31235
 21
5.29304
 31
0.0
  0
LINE
  8
0
 62
     0
 10
2.31235
 20
5.29304
 30
0.0
 11
2.27652
 21
5.22552
 31
0.0
  0
LINE
  8
0
 62
     0
 10
2.27652
 20
5.22552
 30
0.0
 11
2.13872
 21
4.99953
 31
0.0
  0
LINE
  8
0
 62
     0
 10
2.13872
 20
4.99953
 30
0.0
 11
2.01469
 21
4.81348
 31
0.0
  0
LINE
  8
0
 62
     0
 10
2.01469
 20
4.81348
 30
0.0
 11
1.98713
 21
4.76388
 31
0.0
  0
LINE
  8
0
 62
     0
 10
1.98713
 20
4.76388
 30
0.0
 11
1.94717
 21
4.70186
 31
0.0
  0
LINE
  8
0
 62
     0
 10
1.94717
 20
4.70186
 30
0.0
 11
1.69774
 21
4.25263
 31
0.0
  0
LINE
  8
0
 62
     0
 10
1.69774
 20
4.25263
 30
0.0
 11
1.67294
 21
4.20716
 31
0.0
  0
LINE
  8
0
 62
     0
 10
1.67294
 20
4.20716
 30
0.0
 11
1.63298
 21
4.13688
 31
0.0
  0
LINE
  8
0
 62
     0
 10
1.63298
 20
4.13688
 30
0.0
 11
1.51584
 21
3.9164
 31
0.0
  0
LINE
  8
0
 62
     0
 10
1.51584
 20
3.9164
 30
0.0
 11
1.44143
 21
3.76894
 31
0.0
  0
LINE
  8
0
 62
     0
 10
1.44143
 20
3.76894
 30
0.0
 11
1.42489
 21
3.73309
 31
0.0
  0
LINE
  8
0
 62
     0
 10
1.42489
 20
3.73309
 30
0.0
 11
1.38768
 21
3.68762
 31
0.0
  0
LINE
  8
0
 62
     0
 10
1.38768
 20
3.68762
 30
0.0
 11
1.30225
 21
3.53191
 31
0.0
  0
LINE
  8
0
 62
     0
 10
1.30225
 20
3.53191
 30
0.0
 11
1.29673
 21
3.46025
 31
0.0
  0
LINE
  8
0
 62
     0
 10
1.29673
 20
3.46025
 30
0.0
 11
1.2926
 21
3.44647
 31
0.0
  0
LINE
  8
0
 62
     0
 10
1.2926
 20
3.44647
 30
0.0
 11
1.29673
 21
3.44096
 31
0.0
  0
LINE
  8
0
 62
     0
 10
1.29673
 20
3.44096
 30
0.0
 11
1.41938
 21
3.51262
 31
0.0
  0
LINE
  8
0
 62
     0
 10
1.41938
 20
3.51262
 30
0.0
 11
1.58474
 21
3.67799
 31
0.0
  0
LINE
  8
0
 62
     0
 10
1.58474
 20
3.67799
 30
0.0
 11
1.61782
 21
3.71105
 31
0.0
  0
LINE
  8
0
 62
     0
 10
1.61782
 20
3.71105
 30
0.0
 11
1.63987
 21
3.73034
 31
0.0
  0
LINE
  8
0
 62
     0
 10
1.63987
 20
3.73034
 30
0.0
 11
1.98989
 21
4.13551
 31
0.0
  0
LINE
  8
0
 62
     0
 10
1.98989
 20
4.13551
 30
0.0
 11
2.02572
 21
4.17961
 31
0.0
  0
LINE
  8
0
 62
     0
 10
2.02572
 20
4.17961
 30
0.0
 11
2.04501
 21
4.20028
 31
0.0
  0
LINE
  8
0
 62
     0
 10
2.04501
 20
4.20028
 30
0.0
 11
2.20762
 21
4.4166
 31
0.0
  0
LINE
  8
0
 62
     0
 10
2.20762
 20
4.4166
 30
0.0
 11
2.39503
 21
4.69223
 31
0.0
  0
LINE
  8
0
 62
     0
 10
2.39503
 20
4.69223
 30
0.0
 11
2.4281
 21
4.74183
 31
0.0
  0
LINE
  8
0
 62
     0
 10
2.4281
 20
4.74183
 30
0.0
 11
2.44051
 21
4.77905
 31
0.0
  0
LINE
  8
0
 62
     0
 10
2.44051
 20
4.77905
 30
0.0
 11
2.72162
 21
5.24207
 31
0.0
  0
LINE
  8
0
 62
     0
 10
2.72162
 20
5.24207
 30
0.0
 11
2.7423
 21
5.28204
 31
0.0
  0
LINE
  8
0
 62
     0
 10
2.7423
 20
5.28204
 30
0.0
 11
2.74643
 21
5.29442
 31
0.0
  0
LINE
  8
0
 62
     0
 10
2.74643
 20
5.29442
 30
0.0
 11
2.81395
 21
5.46255
 31
0.0
  0
LINE
  8
0
 62
     0
 10
2.81395
 20
5.46255
 30
0.0
 11
2.88148
 21
5.65824
 31
0.0
  0
LINE
  8
0
 62
     0
 10
2.88148
 20
5.65824
 30
0.0
 11
2.88561
 21
5.68441
 31
0.0
  0
LINE
  8
0
 62
     0
 10
2.88561
 20
5.68441
 30
0.0
 11
2.86356
 21
5.70646
 31
0.0
  0
LINE
  8
0
 62
     0
 10
2.86356
 20
5.70646
 30
0.0
 11
2.82636
 21
5.80016
 31
0.0
  0
LINE
  8
0
 62
     0
 10
2.82636
 20
5.80016
 30
0.0
 11
2.78777
 21
5.84426
 31
0.0
  0
LINE
  8
0
 62
     0
 10
2.78777
 20
5.84426
 30
0.0
 11
2.77537
 21
5.84426
 31
0.0
  0
LINE
  8
0
 62
     0
 10
4.48137
 20
1.06522
 30
0.0
 11
4.38217
 21
1.06522
 31
0.0
  0
LINE
  8
0
 62
     0
 10
4.38217
 20
1.06522
 30
0.0
 11
4.08862
 21
1.11897
 31
0.0
  0
LINE
  8
0
 62
     0
 10
4.08862
 20
1.11897
 30
0.0
 11
3.91365
 21
1.24437
 31
0.0
  0
LINE
  8
0
 62
     0
 10
3.91365
 20
1.24437
 30
0.0
 11
3.88056
 21
1.2802
 31
0.0
  0
LINE
  8
0
 62
     0
 10
3.88056
 20
1.2802
 30
0.0
 11
3.84059
 21
1.29949
 31
0.0
  0
LINE
  8
0
 62
     0
 10
3.84059
 20
1.29949
 30
0.0
 11
3.75514
 21
1.51997
 31
0.0
  0
LINE
  8
0
 62
     0
 10
3.75514
 20
1.51997
 30
0.0
 11
3.79236
 21
1.83692
 31
0.0
  0
LINE
  8
0
 62
     0
 10
3.79236
 20
1.83692
 30
0.0
 11
3.81441
 21
1.90307
 31
0.0
  0
LINE
  8
0
 62
     0
 10
3.81441
 20
1.90307
 30
0.0
 11
3.83646
 21
1.96508
 31
0.0
  0
LINE
  8
0
 62
     0
 10
3.83646
 20
1.96508
 30
0.0
 11
4.19199
 21
2.53146
 31
0.0
  0
LINE
  8
0
 62
     0
 10
4.19199
 20
2.53146
 30
0.0
 11
4.23884
 21
2.57004
 31
0.0
  0
LINE
  8
0
 62
     0
 10
4.23884
 20
2.57004
 30
0.0
 11
4.27881
 21
2.60174
 31
0.0
  0
LINE
  8
0
 62
     0
 10
4.27881
 20
2.60174
 30
0.0
 11
4.74458
 21
2.8677
 31
0.0
  0
LINE
  8
0
 62
     0
 10
4.74458
 20
2.8677
 30
0.0
 11
4.79005
 21
2.87872
 31
0.0
  0
LINE
  8
0
 62
     0
 10
4.79005
 20
2.87872
 30
0.0
 11
4.81072
 21
2.88699
 31
0.0
  0
LINE
  8
0
 62
     0
 10
4.81072
 20
2.88699
 30
0.0
 11
5.22965
 21
2.89526
 31
0.0
  0
LINE
  8
0
 62
     0
 10
5.22965
 20
2.89526
 30
0.0
 11
5.26411
 21
2.88423
 31
0.0
  0
LINE
  8
0
 62
     0
 10
5.26411
 20
2.88423
 30
0.0
 11
5.29304
 21
2.86907
 31
0.0
  0
LINE
  8
0
 62
     0
 10
5.29304
 20
2.86907
 30
0.0
 11
5.46806
 21
2.71611
 31
0.0
  0
LINE
  8
0
 62
     0
 10
5.46806
 20
2.71611
 30
0.0
 11
5.46806
 21
2.66375
 31
0.0
  0
LINE
  8
0
 62
     0
 10
5.46806
 20
2.66375
 30
0.0
 11
5.44601
 21
2.61965
 31
0.0
  0
LINE
  8
0
 62
     0
 10
5.44601
 20
2.61965
 30
0.0
 11
5.39778
 21
2.46944
 31
0.0
  0
LINE
  8
0
 62
     0
 10
5.39778
 20
2.46944
 30
0.0
 11
5.34402
 21
2.35093
 31
0.0
  0
LINE
  8
0
 62
     0
 10
5.34402
 20
2.35093
 30
0.0
 11
5.31922
 21
2.32199
 31
0.0
  0
LINE
  8
0
 62
     0
 10
5.31922
 20
2.32199
 30
0.0
 11
5.28616
 21
2.2779
 31
0.0
  0
LINE
  8
0
 62
     0
 10
5.28616
 20
2.2779
 30
0.0
 11
5.01054
 21
2.06017
 31
0.0
  0
LINE
  8
0
 62
     0
 10
5.01054
 20
2.06017
 30
0.0
 11
4.97748
 21
2.04088
 31
0.0
  0
LINE
  8
0
 62
     0
 10
4.97748
 20
2.04088
 30
0.0
 11
4.93476
 21
2.00091
 31
0.0
  0
LINE
  8
0
 62
     0
 10
4.93476
 20
2.00091
 30
0.0
 11
4.76663
 21
1.90996
 31
0.0
  0
LINE
  8
0
 62
     0
 10
4.76663
 20
1.90996
 30
0.0
 11
4.61366
 21
1.88102
 31
0.0
  0
LINE
  8
0
 62
     0
 10
4.61366
 20
1.88102
 30
0.0
 11
4.58061
 21
1.87
 31
0.0
  0
LINE
  8
0
 62
     0
 10
4.58061
 20
1.87
 30
0.0
 11
4.54064
 21
1.85346
 31
0.0
  0
LINE
  8
0
 62
     0
 10
4.54064
 20
1.85346
 30
0.0
 11
4.28018
 21
1.85622
 31
0.0
  0
LINE
  8
0
 62
     0
 10
4.28018
 20
1.85622
 30
0.0
 11
4.26089
 21
1.86449
 31
0.0
  0
LINE
  8
0
 62
     0
 10
4.26089
 20
1.86449
 30
0.0
 11
4.25125
 21
1.86035
 31
0.0
  0
LINE
  8
0
 62
     0
 10
4.25125
 20
1.86035
 30
0.0
 11
4.22508
 21
1.84795
 31
0.0
  0
LINE
  8
0
 62
     0
 10
4.22508
 20
1.84795
 30
0.0
 11
4.22233
 21
1.84244
 31
0.0
  0
LINE
  8
0
 62
     0
 10
4.22233
 20
1.84244
 30
0.0
 11
4.20303
 21
1.8011
 31
0.0
  0
LINE
  8
0
 62
     0
 10
4.20303
 20
1.8011
 30
0.0
 11
4.14514
 21
1.55581
 31
0.0
  0
LINE
  8
0
 62
     0
 10
4.14514
 20
1.55581
 30
0.0
 11
4.14514
 21
1.47312
 31
0.0
  0
LINE
  8
0
 62
     0
 10
4.14514
 20
1.47312
 30
0.0
 11
4.12309
 21
1.4497
 31
0.0
  0
LINE
  8
0
 62
     0
 10
4.12309
 20
1.4497
 30
0.0
 11
4.11346
 21
1.32705
 31
0.0
  0
LINE
  8
0
 62
     0
 10
4.11346
 20
1.32705
 30
0.0
 11
4.18098
 21
1.24161
 31
0.0
  0
LINE
  8
0
 62
     0
 10
4.18098
 20
1.24161
 30
0.0
 11
4.18924
 21
1.22508
 31
0.0
  0
LINE
  8
0
 62
     0
 10
4.18924
 20
1.22508
 30
0.0
 11
4.19336
 21
1.19751
 31
0.0
  0
LINE
  8
0
 62
     0
 10
4.19336
 20
1.19751
 30
0.0
 11
4.29673
 21
1.10519
 31
0.0
  0
LINE
  8
0
 62
     0
 10
4.29673
 20
1.10519
 30
0.0
 11
4.31052
 21
1.0983
 31
0.0
  0
LINE
  8
0
 62
     0
 10
4.31052
 20
1.0983
 30
0.0
 11
4.31052
 21
1.09003
 31
0.0
  0
LINE
  8
0
 62
     0
 10
4.31052
 20
1.09003
 30
0.0
 11
4.44281
 21
1.06522
 31
0.0
  0
LINE
  8
0
 62
     0
 10
4.44281
 20
1.06522
 30
0.0
 11
4.48691
 21
1.06522
 31
0.0
  0
LINE
  8
0
 62
     0
 10
4.48691
 20
1.06522
 30
0.0
 11
4.57232
 21
1.06522
 31
0.0
  0
LINE
  8
0
 62
     0
 10
4.57232
 20
1.06522
 30
0.0
 11
4.8314
 21
1.10243
 31
0.0
  0
LINE
  8
0
 62
     0
 10
4.8314
 20
1.10243
 30
0.0
 11
5.18968
 21
1.18925
 31
0.0
  0
LINE
  8
0
 62
     0
 10
5.18968
 20
1.18925
 30
0.0
 11
5.25307
 21
1.21405
 31
0.0
  0
LINE
  8
0
 62
     0
 10
5.25307
 20
1.21405
 30
0.0
 11
5.31234
 21
1.22783
 31
0.0
  0
LINE
  8
0
 62
     0
 10
5.31234
 20
1.22783
 30
0.0
 11
5.90903
 21
1.54754
 31
0.0
  0
LINE
  8
0
 62
     0
 10
5.90903
 20
1.54754
 30
0.0
 11
5.96417
 21
1.58337
 31
0.0
  0
LINE
  8
0
 62
     0
 10
5.96417
 20
1.58337
 30
0.0
 11
6.01652
 21
1.60679
 31
0.0
  0
LINE
  8
0
 62
     0
 10
6.01652
 20
1.60679
 30
0.0
 11
6.52501
 21
2.00642
 31
0.0
  0
LINE
  8
0
 62
     0
 10
6.52501
 20
2.00642
 30
0.0
 11
6.57049
 21
2.04639
 31
0.0
  0
LINE
  8
0
 62
     0
 10
6.57049
 20
2.04639
 30
0.0
 11
6.58978
 21
2.06568
 31
0.0
  0
LINE
  8
0
 62
     0
 10
6.58978
 20
2.06568
 30
0.0
 11
6.77997
 21
2.24482
 31
0.0
  0
LINE
  8
0
 62
     0
 10
6.77997
 20
2.24482
 30
0.0
 11
6.99216
 21
2.45153
 31
0.0
  0
LINE
  8
0
 62
     0
 10
6.99216
 20
2.45153
 30
0.0
 11
7.0225
 21
2.48185
 31
0.0
  0
LINE
  8
0
 62
     0
 10
7.0225
 20
2.48185
 30
0.0
 11
7.02938
 21
2.49011
 31
0.0
  0
LINE
  8
0
 62
     0
 10
7.02938
 20
2.49011
 30
0.0
 11
7.09828
 21
2.49287
 31
0.0
  0
LINE
  8
0
 62
     0
 10
7.09828
 20
2.49287
 30
0.0
 11
7.09965
 21
2.48736
 31
0.0
  0
LINE
  8
0
 62
     0
 10
7.09965
 20
2.48736
 30
0.0
 11
7.0914
 21
2.47909
 31
0.0
  0
LINE
  8
0
 62
     0
 10
7.0914
 20
2.47909
 30
0.0
 11
7.08311
 21
2.43499
 31
0.0
  0
LINE
  8
0
 62
     0
 10
7.08311
 20
2.43499
 30
0.0
 11
7.0776
 21
2.43224
 31
0.0
  0
LINE
  8
0
 62
     0
 10
7.0776
 20
2.43224
 30
0.0
 11
7.02525
 21
2.36472
 31
0.0
  0
LINE
  8
0
 62
     0
 10
7.02525
 20
2.36472
 30
0.0
 11
6.7896
 21
2.13872
 31
0.0
  0
LINE
  8
0
 62
     0
 10
6.7896
 20
2.13872
 30
0.0
 11
6.55948
 21
1.96371
 31
0.0
  0
LINE
  8
0
 62
     0
 10
6.55948
 20
1.96371
 30
0.0
 11
6.50984
 21
1.91961
 31
0.0
  0
LINE
  8
0
 62
     0
 10
6.50984
 20
1.91961
 30
0.0
 11
6.43957
 21
1.86449
 31
0.0
  0
LINE
  8
0
 62
     0
 10
6.43957
 20
1.86449
 30
0.0
 11
6.17499
 21
1.65503
 31
0.0
  0
LINE
  8
0
 62
     0
 10
6.17499
 20
1.65503
 30
0.0
 11
5.94071
 21
1.49104
 31
0.0
  0
LINE
  8
0
 62
     0
 10
5.94071
 20
1.49104
 30
0.0
 11
5.88698
 21
1.45659
 31
0.0
  0
LINE
  8
0
 62
     0
 10
5.88698
 20
1.45659
 30
0.0
 11
5.80704
 21
1.41938
 31
0.0
  0
LINE
  8
0
 62
     0
 10
5.80704
 20
1.41938
 30
0.0
 11
5.51766
 21
1.27606
 31
0.0
  0
LINE
  8
0
 62
     0
 10
5.51766
 20
1.27606
 30
0.0
 11
5.27237
 21
1.17547
 31
0.0
  0
LINE
  8
0
 62
     0
 10
5.27237
 20
1.17547
 30
0.0
 11
5.21451
 21
1.15893
 31
0.0
  0
LINE
  8
0
 62
     0
 10
5.21451
 20
1.15893
 30
0.0
 11
5.15525
 21
1.1355
 31
0.0
  0
LINE
  8
0
 62
     0
 10
5.15525
 20
1.1355
 30
0.0
 11
4.64951
 21
1.06522
 31
0.0
  0
LINE
  8
0
 62
     0
 10
4.64951
 20
1.06522
 30
0.0
 11
4.48137
 21
1.06522
 31
0.0
  0
LINE
  8
0
 62
     0
 10
4.35462
 20
1.77078
 30
0.0
 11
4.47312
 21
1.77078
 31
0.0
  0
LINE
  8
0
 62
     0
 10
4.47312
 20
1.77078
 30
0.0
 11
4.79418
 21
1.86311
 31
0.0
  0
LINE
  8
0
 62
     0
 10
4.79418
 20
1.86311
 30
0.0
 11
4.82865
 21
1.88102
 31
0.0
  0
LINE
  8
0
 62
     0
 10
4.82865
 20
1.88102
 30
0.0
 11
4.83552
 21
1.89067
 31
0.0
  0
LINE
  8
0
 62
     0
 10
4.83552
 20
1.89067
 30
0.0
 11
4.96782
 21
1.983
 31
0.0
  0
LINE
  8
0
 62
     0
 10
4.96782
 20
1.983
 30
0.0
 11
5.12353
 21
2.10151
 31
0.0
  0
LINE
  8
0
 62
     0
 10
5.12353
 20
2.10151
 30
0.0
 11
5.14283
 21
2.12356
 31
0.0
  0
LINE
  8
0
 62
     0
 10
5.14283
 20
2.12356
 30
0.0
 11
5.13733
 21
2.1456
 31
0.0
  0
LINE
  8
0
 62
     0
 10
5.13733
 20
2.1456
 30
0.0
 11
5.25307
 21
2.31097
 31
0.0
  0
LINE
  8
0
 62
     0
 10
5.25307
 20
2.31097
 30
0.0
 11
5.25307
 21
2.36609
 31
0.0
  0
LINE
  8
0
 62
     0
 10
5.25307
 20
2.36609
 30
0.0
 11
5.25032
 21
2.36472
 31
0.0
  0
LINE
  8
0
 62
     0
 10
5.25032
 20
2.36472
 30
0.0
 11
5.15662
 21
2.47633
 31
0.0
  0
LINE
  8
0
 62
     0
 10
5.15662
 20
2.47633
 30
0.0
 11
5.12632
 21
2.47633
 31
0.0
  0
LINE
  8
0
 62
     0
 10
5.12632
 20
2.47633
 30
0.0
 11
5.05876
 21
2.47633
 31
0.0
  0
LINE
  8
0
 62
     0
 10
5.05876
 20
2.47633
 30
0.0
 11
4.87825
 21
2.39916
 31
0.0
  0
LINE
  8
0
 62
     0
 10
4.87825
 20
2.39916
 30
0.0
 11
4.8562
 21
2.38263
 31
0.0
  0
LINE
  8
0
 62
     0
 10
4.8562
 20
2.38263
 30
0.0
 11
4.8121
 21
2.35231
 31
0.0
  0
LINE
  8
0
 62
     0
 10
4.8121
 20
2.35231
 30
0.0
 11
4.67981
 21
2.25723
 31
0.0
  0
LINE
  8
0
 62
     0
 10
4.67981
 20
2.25723
 30
0.0
 11
4.61366
 21
2.19797
 31
0.0
  0
LINE
  8
0
 62
     0
 10
4.61366
 20
2.19797
 30
0.0
 11
4.60266
 21
2.18419
 31
0.0
  0
LINE
  8
0
 62
     0
 10
4.60266
 20
2.18419
 30
0.0
 11
4.5751
 21
2.16076
 31
0.0
  0
LINE
  8
0
 62
     0
 10
4.5751
 20
2.16076
 30
0.0
 11
4.41798
 21
1.98713
 31
0.0
  0
LINE
  8
0
 62
     0
 10
4.41798
 20
1.98713
 30
0.0
 11
4.40422
 21
1.96922
 31
0.0
  0
LINE
  8
0
 62
     0
 10
4.40422
 20
1.96922
 30
0.0
 11
4.37804
 21
1.94441
 31
0.0
  0
LINE
  8
0
 62
     0
 10
4.37804
 20
1.94441
 30
0.0
 11
4.31052
 21
1.8576
 31
0.0
  0
LINE
  8
0
 62
     0
 10
4.31052
 20
1.8576
 30
0.0
 11
4.3119
 21
1.83692
 31
0.0
  0
LINE
  8
0
 62
     0
 10
4.3119
 20
1.83692
 30
0.0
 11
4.31052
 21
1.83141
 31
0.0
  0
LINE
  8
0
 62
     0
 10
4.31052
 20
1.83141
 30
0.0
 11
4.2981
 21
1.82315
 31
0.0
  0
LINE
  8
0
 62
     0
 10
4.2981
 20
1.82315
 30
0.0
 11
4.27605
 21
1.77216
 31
0.0
  0
LINE
  8
0
 62
     0
 10
4.27605
 20
1.77216
 30
0.0
 11
4.27743
 21
1.77078
 31
0.0
  0
LINE
  8
0
 62
     0
 10
4.27743
 20
1.77078
 30
0.0
 11
4.27743
 21
1.77078
 31
0.0
  0
LINE
  8
0
 62
     0
 10
4.27743
 20
1.77078
 30
0.0
 11
4.33532
 21
1.77078
 31
0.0
  0
LINE
  8
0
 62
     0
 10
4.33532
 20
1.77078
 30
0.0
 11
4.35462
 21
1.77078
 31
0.0
  0
LINE
  8
0
 62
     0
 10
9.5746
 20
2.43775
 30
0.0
 11
9.5746
 21
2.43775
 31
0.0
  0
LINE
  8
0
 62
     0
 10
9.5746
 20
2.43775
 30
0.0
 11
9.63387
 21
2.45291
 31
0.0
  0
LINE
  8
0
 62
     0
 10
9.63387
 20
2.45291
 30
0.0
 11
9.63524
 21
2.44878
 31
0.0
  0
LINE
  8
0
 62
     0
 10
9.63524
 20
2.44878
 30
0.0
 11
9.63112
 21
2.43499
 31
0.0
  0
LINE
  8
0
 62
     0
 10
9.63112
 20
2.43499
 30
0.0
 11
9.62283
 21
2.38814
 31
0.0
  0
LINE
  8
0
 62
     0
 10
9.62283
 20
2.38814
 30
0.0
 11
9.62974
 21
2.41019
 31
0.0
  0
LINE
  8
0
 62
     0
 10
9.62974
 20
2.41019
 30
0.0
 11
9.62974
 21
2.41019
 31
0.0
  0
LINE
  8
0
 62
     0
 10
9.62974
 20
2.41019
 30
0.0
 11
9.6187
 21
2.38952
 31
0.0
  0
LINE
  8
0
 62
     0
 10
9.6187
 20
2.38952
 30
0.0
 11
9.5746
 21
2.33026
 31
0.0
  0
LINE
  8
0
 62
     0
 10
9.5746
 20
2.33026
 30
0.0
 11
9.50158
 21
2.25998
 31
0.0
  0
LINE
  8
0
 62
     0
 10
9.50158
 20
2.25998
 30
0.0
 11
9.4809
 21
2.2338
 31
0.0
  0
LINE
  8
0
 62
     0
 10
9.4809
 20
2.2338
 30
0.0
 11
9.42855
 21
2.19522
 31
0.0
  0
LINE
  8
0
 62
     0
 10
9.42855
 20
2.19522
 30
0.0
 11
9.27283
 21
2.02296
 31
0.0
  0
LINE
  8
0
 62
     0
 10
9.27283
 20
2.02296
 30
0.0
 11
9.14467
 21
1.84244
 31
0.0
  0
LINE
  8
0
 62
     0
 10
9.14467
 20
1.84244
 30
0.0
 11
9.10608
 21
1.79834
 31
0.0
  0
LINE
  8
0
 62
     0
 10
9.10608
 20
1.79834
 30
0.0
 11
9.04131
 21
1.75286
 31
0.0
  0
LINE
  8
0
 62
     0
 10
9.04131
 20
1.75286
 30
0.0
 11
8.63618
 21
1.29673
 31
0.0
  0
LINE
  8
0
 62
     0
 10
8.63618
 20
1.29673
 30
0.0
 11
8.58795
 21
1.24713
 31
0.0
  0
LINE
  8
0
 62
     0
 10
8.58795
 20
1.24713
 30
0.0
 11
8.52731
 21
1.18511
 31
0.0
  0
LINE
  8
0
 62
     0
 10
8.52731
 20
1.18511
 30
0.0
 11
8.27927
 21
0.950846
 31
0.0
  0
LINE
  8
0
 62
     0
 10
8.27927
 20
0.950846
 30
0.0
 11
8.05737
 21
0.763432
 31
0.0
  0
LINE
  8
0
 62
     0
 10
8.05737
 20
0.763432
 30
0.0
 11
8.00915
 21
0.72347
 31
0.0
  0
LINE
  8
0
 62
     0
 10
8.00915
 20
0.72347
 30
0.0
 11
7.93612
 21
0.683507
 31
0.0
  0
LINE
  8
0
 62
     0
 10
7.93612
 20
0.683507
 30
0.0
 11
7.68809
 21
0.512632
 31
0.0
  0
LINE
  8
0
 62
     0
 10
7.68809
 20
0.512632
 30
0.0
 11
7.49653
 21
0.376206
 31
0.0
  0
LINE
  8
0
 62
     0
 10
7.49653
 20
0.376206
 30
0.0
 11
7.45243
 21
0.354157
 31
0.0
  0
LINE
  8
0
 62
     0
 10
7.45243
 20
0.354157
 30
0.0
 11
7.40558
 21
0.307303
 31
0.0
  0
LINE
  8
0
 62
     0
 10
7.40558
 20
0.307303
 30
0.0
 11
7.20302
 21
0.223242
 31
0.0
  0
LINE
  8
0
 62
     0
 10
7.20302
 20
0.223242
 30
0.0
 11
7.04176
 21
0.26734
 31
0.0
  0
LINE
  8
0
 62
     0
 10
7.04176
 20
0.26734
 30
0.0
 11
7.01146
 21
0.276986
 31
0.0
  0
LINE
  8
0
 62
     0
 10
7.01146
 20
0.276986
 30
0.0
 11
6.95773
 21
0.270095
 31
0.0
  0
LINE
  8
0
 62
     0
 10
6.95773
 20
0.270095
 30
0.0
 11
6.77718
 21
0.373447
 31
0.0
  0
LINE
  8
0
 62
     0
 10
6.77718
 20
0.373447
 30
0.0
 11
6.72758
 21
0.602202
 31
0.0
  0
LINE
  8
0
 62
     0
 10
6.72758
 20
0.602202
 30
0.0
 11
6.71932
 21
0.651813
 31
0.0
  0
LINE
  8
0
 62
     0
 10
6.71932
 20
0.651813
 30
0.0
 11
6.70415
 21
0.677997
 31
0.0
  0
LINE
  8
0
 62
     0
 10
6.70415
 20
0.677997
 30
0.0
 11
6.68486
 21
0.94809
 31
0.0
  0
LINE
  8
0
 62
     0
 10
6.68486
 20
0.94809
 30
0.0
 11
6.71795
 21
1.31327
 31
0.0
  0
LINE
  8
0
 62
     0
 10
6.71795
 20
1.31327
 30
0.0
 11
6.73033
 21
1.38493
 31
0.0
  0
LINE
  8
0
 62
     0
 10
6.73033
 20
1.38493
 30
0.0
 11
6.73724
 21
1.43178
 31
0.0
  0
LINE
  8
0
 62
     0
 10
6.73724
 20
1.43178
 30
0.0
 11
6.82265
 21
1.80248
 31
0.0
  0
LINE
  8
0
 62
     0
 10
6.82265
 20
1.80248
 30
0.0
 11
6.95773
 21
2.25723
 31
0.0
  0
LINE
  8
0
 62
     0
 10
6.95773
 20
2.25723
 30
0.0
 11
6.98941
 21
2.34404
 31
0.0
  0
LINE
  8
0
 62
     0
 10
6.98941
 20
2.34404
 30
0.0
 11
6.99354
 21
2.41294
 31
0.0
  0
LINE
  8
0
 62
     0
 10
6.99354
 20
2.41294
 30
0.0
 11
7.15063
 21
2.84014
 31
0.0
  0
LINE
  8
0
 62
     0
 10
7.15063
 20
2.84014
 30
0.0
 11
7.37803
 21
3.30454
 31
0.0
  0
LINE
  8
0
 62
     0
 10
7.37803
 20
3.30454
 30
0.0
 11
7.41938
 21
3.39135
 31
0.0
  0
LINE
  8
0
 62
     0
 10
7.41938
 20
3.39135
 30
0.0
 11
7.45518
 21
3.46163
 31
0.0
  0
LINE
  8
0
 62
     0
 10
7.45518
 20
3.46163
 30
0.0
 11
7.90028
 21
4.32015
 31
0.0
  0
LINE
  8
0
 62
     0
 10
7.90028
 20
4.32015
 30
0.0
 11
7.94854
 21
4.40009
 31
0.0
  0
LINE
  8
0
 62
     0
 10
7.94854
 20
4.40009
 30
0.0
 11
7.97885
 21
4.46761
 31
0.0
  0
LINE
  8
0
 62
     0
 10
7.97885
 20
4.46761
 30
0.0
 11
8.21034
 21
4.83415
 31
0.0
  0
LINE
  8
0
 62
     0
 10
8.21034
 20
4.83415
 30
0.0
 11
8.47908
 21
5.18418
 31
0.0
  0
LINE
  8
0
 62
     0
 10
8.47908
 20
5.18418
 30
0.0
 11
8.52731
 21
5.24344
 31
0.0
  0
LINE
  8
0
 62
     0
 10
8.52731
 20
5.24344
 30
0.0
 11
8.56728
 21
5.27925
 31
0.0
  0
LINE
  8
0
 62
     0
 10
8.56728
 20
5.27925
 30
0.0
 11
9.03443
 21
5.75331
 31
0.0
  0
LINE
  8
0
 62
     0
 10
9.03443
 20
5.75331
 30
0.0
 11
9.07852
 21
5.78362
 31
0.0
  0
LINE
  8
0
 62
     0
 10
9.07852
 20
5.78362
 30
0.0
 11
9.0992
 21
5.80429
 31
0.0
  0
LINE
  8
0
 62
     0
 10
9.0992
 20
5.80429
 30
0.0
 11
9.29072
 21
5.88836
 31
0.0
  0
LINE
  8
0
 62
     0
 10
9.29072
 20
5.88836
 30
0.0
 11
9.50433
 21
5.90765
 31
0.0
  0
LINE
  8
0
 62
     0
 10
9.50433
 20
5.90765
 30
0.0
 11
9.53604
 21
5.89386
 31
0.0
  0
LINE
  8
0
 62
     0
 10
9.53604
 20
5.89386
 30
0.0
 11
9.55393
 21
5.86631
 31
0.0
  0
LINE
  8
0
 62
     0
 10
9.55393
 20
5.86631
 30
0.0
 11
9.65454
 21
5.67475
 31
0.0
  0
LINE
  8
0
 62
     0
 10
9.65454
 20
5.67475
 30
0.0
 11
9.65179
 21
5.64032
 31
0.0
  0
LINE
  8
0
 62
     0
 10
9.65179
 20
5.64032
 30
0.0
 11
9.63662
 21
5.5783
 31
0.0
  0
LINE
  8
0
 62
     0
 10
9.63662
 20
5.5783
 30
0.0
 11
9.59115
 21
5.36885
 31
0.0
  0
LINE
  8
0
 62
     0
 10
9.59115
 20
5.36885
 30
0.0
 11
9.53463
 21
5.18418
 31
0.0
  0
LINE
  8
0
 62
     0
 10
9.53463
 20
5.18418
 30
0.0
 11
9.51399
 21
5.1332
 31
0.0
  0
LINE
  8
0
 62
     0
 10
9.51399
 20
5.1332
 30
0.0
 11
9.49194
 21
5.06843
 31
0.0
  0
LINE
  8
0
 62
     0
 10
9.49194
 20
5.06843
 30
0.0
 11
9.20806
 21
4.53789
 31
0.0
  0
LINE
  8
0
 62
     0
 10
9.20806
 20
4.53789
 30
0.0
 11
9.17222
 21
4.47724
 31
0.0
  0
LINE
  8
0
 62
     0
 10
9.17222
 20
4.47724
 30
0.0
 11
9.13363
 21
4.39872
 31
0.0
  0
LINE
  8
0
 62
     0
 10
9.13363
 20
4.39872
 30
0.0
 11
8.72712
 21
3.81716
 31
0.0
  0
LINE
  8
0
 62
     0
 10
8.72712
 20
3.81716
 30
0.0
 11
8.68165
 21
3.75514
 31
0.0
  0
LINE
  8
0
 62
     0
 10
8.68165
 20
3.75514
 30
0.0
 11
8.6155
 21
3.67661
 31
0.0
  0
LINE
  8
0
 62
     0
 10
8.6155
 20
3.67661
 30
0.0
 11
8.36884
 21
3.37068
 31
0.0
  0
LINE
  8
0
 62
     0
 10
8.36884
 20
3.37068
 30
0.0
 11
8.14973
 21
3.11161
 31
0.0
  0
LINE
  8
0
 62
     0
 10
8.14973
 20
3.11161
 30
0.0
 11
8.09734
 21
3.05511
 31
0.0
  0
LINE
  8
0
 62
     0
 10
8.09734
 20
3.05511
 30
0.0
 11
8.04362
 21
2.98208
 31
0.0
  0
LINE
  8
0
 62
     0
 10
8.04362
 20
2.98208
 30
0.0
 11
7.52133
 21
2.51768
 31
0.0
  0
LINE
  8
0
 62
     0
 10
7.52133
 20
2.51768
 30
0.0
 11
7.46898
 21
2.47633
 31
0.0
  0
LINE
  8
0
 62
     0
 10
7.46898
 20
2.47633
 30
0.0
 11
7.46069
 21
2.47496
 31
0.0
  0
LINE
  8
0
 62
     0
 10
7.46069
 20
2.47496
 30
0.0
 11
7.43176
 21
2.38263
 31
0.0
  0
LINE
  8
0
 62
     0
 10
7.43176
 20
2.38263
 30
0.0
 11
7.42488
 21
2.36609
 31
0.0
  0
LINE
  8
0
 62
     0
 10
7.42488
 20
2.36609
 30
0.0
 11
7.41384
 21
2.33026
 31
0.0
  0
LINE
  8
0
 62
     0
 10
7.41384
 20
2.33026
 30
0.0
 11
7.33531
 21
2.12907
 31
0.0
  0
LINE
  8
0
 62
     0
 10
7.33531
 20
2.12907
 30
0.0
 11
7.32564
 21
2.10151
 31
0.0
  0
LINE
  8
0
 62
     0
 10
7.32564
 20
2.10151
 30
0.0
 11
7.29396
 21
2.05328
 31
0.0
  0
LINE
  8
0
 62
     0
 10
7.29396
 20
2.05328
 30
0.0
 11
7.22919
 21
1.88929
 31
0.0
  0
LINE
  8
0
 62
     0
 10
7.22919
 20
1.88929
 30
0.0
 11
7.2154
 21
1.77216
 31
0.0
  0
LINE
  8
0
 62
     0
 10
7.2154
 20
1.77216
 30
0.0
 11
7.20439
 21
1.73771
 31
0.0
  0
LINE
  8
0
 62
     0
 10
7.20439
 20
1.73771
 30
0.0
 11
7.17822
 21
1.67845
 31
0.0
  0
LINE
  8
0
 62
     0
 10
7.17822
 20
1.67845
 30
0.0
 11
7.12308
 21
1.48966
 31
0.0
  0
LINE
  8
0
 62
     0
 10
7.12308
 20
1.48966
 30
0.0
 11
7.1024
 21
1.35048
 31
0.0
  0
LINE
  8
0
 62
     0
 10
7.1024
 20
1.35048
 30
0.0
 11
7.09415
 21
1.31327
 31
0.0
  0
LINE
  8
0
 62
     0
 10
7.09415
 20
1.31327
 30
0.0
 11
7.08036
 21
1.25677
 31
0.0
  0
LINE
  8
0
 62
     0
 10
7.08036
 20
1.25677
 30
0.0
 11
7.03626
 21
0.923286
 31
0.0
  0
LINE
  8
0
 62
     0
 10
7.03626
 20
0.923286
 30
0.0
 11
7.03351
 21
0.888834
 31
0.0
  0
LINE
  8
0
 62
     0
 10
7.03351
 20
0.888834
 30
0.0
 11
7.03076
 21
0.840602
 31
0.0
  0
LINE
  8
0
 62
     0
 10
7.03076
 20
0.840602
 30
0.0
 11
7.05418
 21
0.552595
 31
0.0
  0
LINE
  8
0
 62
     0
 10
7.05418
 20
0.552595
 30
0.0
 11
7.06106
 21
0.525032
 31
0.0
  0
LINE
  8
0
 62
     0
 10
7.06106
 20
0.525032
 30
0.0
 11
7.06106
 21
0.486449
 31
0.0
  0
LINE
  8
0
 62
     0
 10
7.06106
 20
0.486449
 30
0.0
 11
7.12033
 21
0.370692
 31
0.0
  0
LINE
  8
0
 62
     0
 10
7.12033
 20
0.370692
 30
0.0
 11
7.2347
 21
0.365181
 31
0.0
  0
LINE
  8
0
 62
     0
 10
7.2347
 20
0.365181
 30
0.0
 11
7.26503
 21
0.370692
 31
0.0
  0
LINE
  8
0
 62
     0
 10
7.26503
 20
0.370692
 30
0.0
 11
7.27329
 21
0.376206
 31
0.0
  0
LINE
  8
0
 62
     0
 10
7.27329
 20
0.376206
 30
0.0
 11
7.64261
 21
0.547081
 31
0.0
  0
LINE
  8
0
 62
     0
 10
7.64261
 20
0.547081
 30
0.0
 11
7.68396
 21
0.574643
 31
0.0
  0
LINE
  8
0
 62
     0
 10
7.68396
 20
0.574643
 30
0.0
 11
7.69772
 21
0.584288
 31
0.0
  0
LINE
  8
0
 62
     0
 10
7.69772
 20
0.584288
 30
0.0
 11
7.89891
 21
0.740008
 31
0.0
  0
LINE
  8
0
 62
     0
 10
7.89891
 20
0.740008
 30
0.0
 11
8.16903
 21
0.966004
 31
0.0
  0
LINE
  8
0
 62
     0
 10
8.16903
 20
0.966004
 30
0.0
 11
8.21863
 21
1.0101
 31
0.0
  0
LINE
  8
0
 62
     0
 10
8.21863
 20
1.0101
 30
0.0
 11
8.25581
 21
1.02939
 31
0.0
  0
LINE
  8
0
 62
     0
 10
8.25581
 20
1.02939
 30
0.0
 11
8.48734
 21
1.23886
 31
0.0
  0
LINE
  8
0
 62
     0
 10
8.48734
 20
1.23886
 30
0.0
 11
8.73538
 21
1.50068
 31
0.0
  0
LINE
  8
0
 62
     0
 10
8.73538
 20
1.50068
 30
0.0
 11
8.78085
 21
1.54478
 31
0.0
  0
LINE
  8
0
 62
     0
 10
8.78085
 20
1.54478
 30
0.0
 11
8.79602
 21
1.58061
 31
0.0
  0
LINE
  8
0
 62
     0
 10
8.79602
 20
1.58061
 30
0.0
 11
8.99308
 21
1.79558
 31
0.0
  0
LINE
  8
0
 62
     0
 10
8.99308
 20
1.79558
 30
0.0
 11
9.23011
 21
2.02296
 31
0.0
  0
LINE
  8
0
 62
     0
 10
9.23011
 20
2.02296
 30
0.0
 11
9.26592
 21
2.06292
 31
0.0
  0
LINE
  8
0
 62
     0
 10
9.26592
 20
2.06292
 30
0.0
 11
9.29072
 21
2.07946
 31
0.0
  0
LINE
  8
0
 62
     0
 10
9.29072
 20
2.07946
 30
0.0
 11
9.43405
 21
2.24207
 31
0.0
  0
LINE
  8
0
 62
     0
 10
9.43405
 20
2.24207
 30
0.0
 11
9.55809
 21
2.4157
 31
0.0
  0
LINE
  8
0
 62
     0
 10
9.55809
 20
2.4157
 30
0.0
 11
9.5746
 21
2.43775
 31
0.0
  0
LINE
  8
0
 62
     0
 10
9.4699
 20
5.78915
 30
0.0
 11
9.42026
 21
5.77811
 31
0.0
  0
LINE
  8
0
 62
     0
 10
9.42026
 20
5.77811
 30
0.0
 11
9.27971
 21
5.71197
 31
0.0
  0
LINE
  8
0
 62
     0
 10
9.27971
 20
5.71197
 30
0.0
 11
9.17222
 21
5.59209
 31
0.0
  0
LINE
  8
0
 62
     0
 10
9.17222
 20
5.59209
 30
0.0
 11
9.13917
 21
5.55212
 31
0.0
  0
LINE
  8
0
 62
     0
 10
9.13917
 20
5.55212
 30
0.0
 11
9.10608
 21
5.49286
 31
0.0
  0
LINE
  8
0
 62
     0
 10
9.10608
 20
5.49286
 30
0.0
 11
8.75743
 21
5.03121
 31
0.0
  0
LINE
  8
0
 62
     0
 10
8.75743
 20
5.03121
 30
0.0
 11
8.72024
 21
4.97336
 31
0.0
  0
LINE
  8
0
 62
     0
 10
8.72024
 20
4.97336
 30
0.0
 11
8.6596
 21
4.91409
 31
0.0
  0
LINE
  8
0
 62
     0
 10
8.6596
 20
4.91409
 30
0.0
 11
8.31508
 21
4.28706
 31
0.0
  0
LINE
  8
0
 62
     0
 10
8.31508
 20
4.28706
 30
0.0
 11
8.27927
 21
4.21816
 31
0.0
  0
LINE
  8
0
 62
     0
 10
8.27927
 20
4.21816
 30
0.0
 11
8.22551
 21
4.12309
 31
0.0
  0
LINE
  8
0
 62
     0
 10
8.22551
 20
4.12309
 30
0.0
 11
8.04499
 21
3.78135
 31
0.0
  0
LINE
  8
0
 62
     0
 10
8.04499
 20
3.78135
 30
0.0
 11
7.91545
 21
3.51262
 31
0.0
  0
LINE
  8
0
 62
     0
 10
7.91545
 20
3.51262
 30
0.0
 11
7.8879
 21
3.45199
 31
0.0
  0
LINE
  8
0
 62
     0
 10
7.8879
 20
3.45199
 30
0.0
 11
7.84518
 21
3.37068
 31
0.0
  0
LINE
  8
0
 62
     0
 10
7.84518
 20
3.37068
 30
0.0
 11
7.71151
 21
3.08956
 31
0.0
  0
LINE
  8
0
 62
     0
 10
7.71151
 20
3.08956
 30
0.0
 11
7.62469
 21
2.8925
 31
0.0
  0
LINE
  8
0
 62
     0
 10
7.62469
 20
2.8925
 30
0.0
 11
7.60677
 21
2.85116
 31
0.0
  0
LINE
  8
0
 62
     0
 10
7.60677
 20
2.85116
 30
0.0
 11
7.57093
 21
2.81258
 31
0.0
  0
LINE
  8
0
 62
     0
 10
7.57093
 20
2.81258
 30
0.0
 11
7.49653
 21
2.66375
 31
0.0
  0
LINE
  8
0
 62
     0
 10
7.49653
 20
2.66375
 30
0.0
 11
7.50478
 21
2.60036
 31
0.0
  0
LINE
  8
0
 62
     0
 10
7.50478
 20
2.60036
 30
0.0
 11
7.50757
 21
2.5976
 31
0.0
  0
LINE
  8
0
 62
     0
 10
7.50757
 20
2.5976
 30
0.0
 11
7.53512
 21
2.61552
 31
0.0
  0
LINE
  8
0
 62
     0
 10
7.53512
 20
2.61552
 30
0.0
 11
7.9678
 21
3.01101
 31
0.0
  0
LINE
  8
0
 62
     0
 10
7.9678
 20
3.01101
 30
0.0
 11
8.01469
 21
3.06062
 31
0.0
  0
LINE
  8
0
 62
     0
 10
8.01469
 20
3.06062
 30
0.0
 11
8.03674
 21
3.09094
 31
0.0
  0
LINE
  8
0
 62
     0
 10
8.03674
 20
3.09094
 30
0.0
 11
8.25168
 21
3.3445
 31
0.0
  0
LINE
  8
0
 62
     0
 10
8.25168
 20
3.3445
 30
0.0
 11
8.51076
 21
3.65732
 31
0.0
  0
LINE
  8
0
 62
     0
 10
8.51076
 20
3.65732
 30
0.0
 11
8.55486
 21
3.71658
 31
0.0
  0
LINE
  8
0
 62
     0
 10
8.55486
 20
3.71658
 30
0.0
 11
8.58933
 21
3.76206
 31
0.0
  0
LINE
  8
0
 62
     0
 10
8.58933
 20
3.76206
 30
0.0
 11
9.01238
 21
4.37804
 31
0.0
  0
LINE
  8
0
 62
     0
 10
9.01238
 20
4.37804
 30
0.0
 11
9.05097
 21
4.43865
 31
0.0
  0
LINE
  8
0
 62
     0
 10
9.05097
 20
4.43865
 30
0.0
 11
9.06748
 21
4.48412
 31
0.0
  0
LINE
  8
0
 62
     0
 10
9.06748
 20
4.48412
 30
0.0
 11
9.22457
 21
4.76525
 31
0.0
  0
LINE
  8
0
 62
     0
 10
9.22457
 20
4.76525
 30
0.0
 11
9.39684
 21
5.05601
 31
0.0
  0
LINE
  8
0
 62
     0
 10
9.39684
 20
5.05601
 30
0.0
 11
9.42026
 21
5.10565
 31
0.0
  0
LINE
  8
0
 62
     0
 10
9.42026
 20
5.10565
 30
0.0
 11
9.42026
 21
5.14283
 31
0.0
  0
LINE
  8
0
 62
     0
 10
9.42026
 20
5.14283
 30
0.0
 11
9.49745
 21
5.36056
 31
0.0
  0
LINE
  8
0
 62
     0
 10
9.49745
 20
5.36056
 30
0.0
 11
9.58152
 21
5.56588
 31
0.0
  0
LINE
  8
0
 62
     0
 10
9.58152
 20
5.56588
 30
0.0
 11
9.58564
 21
5.59622
 31
0.0
  0
LINE
  8
0
 62
     0
 10
9.58564
 20
5.59622
 30
0.0
 11
9.58152
 21
5.60447
 31
0.0
  0
LINE
  8
0
 62
     0
 10
9.58152
 20
5.60447
 30
0.0
 11
9.55809
 21
5.70371
 31
0.0
  0
LINE
  8
0
 62
     0
 10
9.55809
 20
5.70371
 30
0.0
 11
9.49194
 21
5.78915
 31
0.0
  0
LINE
  8
0
 62
     0
 10
9.49194
 20
5.78915
 30
0.0
 11
9.4699
 21
5.78915
 31
0.0
  0
LINE
  8
0
 62
     0
 10
12.1171
 20
2.43775
 30
0.0
 11
12.1171
 21
2.43775
 31
0.0
  0
LINE
  8
0
 62
     0
 10
12.1171
 20
2.43775
 30
0.0
 11
12.1763
 21
2.45291
 31
0.0
  0
LINE
  8
0
 62
     0
 10
12.1763
 20
2.45291
 30
0.0
 11
12.1777
 21
2.44878
 31
0.0
  0
LINE
  8
0
 62
     0
 10
12.1777
 20
2.44878
 30
0.0
 11
12.1736
 21
2.43499
 31
0.0
  0
LINE
  8
0
 62
     0
 10
12.1736
 20
2.43499
 30
0.0
 11
12.1653
 21
2.38814
 31
0.0
  0
LINE
  8
0
 62
     0
 10
12.1653
 20
2.38814
 30
0.0
 11
12.1722
 21
2.41019
 31
0.0
  0
LINE
  8
0
 62
     0
 10
12.1722
 20
2.41019
 30
0.0
 11
12.1722
 21
2.41019
 31
0.0
  0
LINE
  8
0
 62
     0
 10
12.1722
 20
2.41019
 30
0.0
 11
12.1612
 21
2.38952
 31
0.0
  0
LINE
  8
0
 62
     0
 10
12.1612
 20
2.38952
 30
0.0
 11
12.1171
 21
2.33026
 31
0.0
  0
LINE
  8
0
 62
     0
 10
12.1171
 20
2.33026
 30
0.0
 11
12.044
 21
2.25998
 31
0.0
  0
LINE
  8
0
 62
     0
 10
12.044
 20
2.25998
 30
0.0
 11
12.0234
 21
2.2338
 31
0.0
  0
LINE
  8
0
 62
     0
 10
12.0234
 20
2.2338
 30
0.0
 11
11.971
 21
2.19522
 31
0.0
  0
LINE
  8
0
 62
     0
 10
11.971
 20
2.19522
 30
0.0
 11
11.8153
 21
2.02296
 31
0.0
  0
LINE
  8
0
 62
     0
 10
11.8153
 20
2.02296
 30
0.0
 11
11.6871
 21
1.84244
 31
0.0
  0
LINE
  8
0
 62
     0
 10
11.6871
 20
1.84244
 30
0.0
 11
11.6485
 21
1.79834
 31
0.0
  0
LINE
  8
0
 62
     0
 10
11.6485
 20
1.79834
 30
0.0
 11
11.5838
 21
1.75286
 31
0.0
  0
LINE
  8
0
 62
     0
 10
11.5838
 20
1.75286
 30
0.0
 11
11.1786
 21
1.29673
 31
0.0
  0
LINE
  8
0
 62
     0
 10
11.1786
 20
1.29673
 30
0.0
 11
11.1304
 21
1.24713
 31
0.0
  0
LINE
  8
0
 62
     0
 10
11.1304
 20
1.24713
 30
0.0
 11
11.0698
 21
1.18511
 31
0.0
  0
LINE
  8
0
 62
     0
 10
11.0698
 20
1.18511
 30
0.0
 11
10.8217
 21
0.950846
 31
0.0
  0
LINE
  8
0
 62
     0
 10
10.8217
 20
0.950846
 30
0.0
 11
10.5999
 21
0.763432
 31
0.0
  0
LINE
  8
0
 62
     0
 10
10.5999
 20
0.763432
 30
0.0
 11
10.5517
 21
0.72347
 31
0.0
  0
LINE
  8
0
 62
     0
 10
10.5517
 20
0.72347
 30
0.0
 11
10.4786
 21
0.683507
 31
0.0
  0
LINE
  8
0
 62
     0
 10
10.4786
 20
0.683507
 30
0.0
 11
10.2306
 21
0.512632
 31
0.0
  0
LINE
  8
0
 62
     0
 10
10.2306
 20
0.512632
 30
0.0
 11
10.039
 21
0.376206
 31
0.0
  0
LINE
  8
0
 62
     0
 10
10.039
 20
0.376206
 30
0.0
 11
9.9949
 21
0.354157
 31
0.0
  0
LINE
  8
0
 62
     0
 10
9.9949
 20
0.354157
 30
0.0
 11
9.94805
 21
0.307303
 31
0.0
  0
LINE
  8
0
 62
     0
 10
9.94805
 20
0.307303
 30
0.0
 11
9.74549
 21
0.223242
 31
0.0
  0
LINE
  8
0
 62
     0
 10
9.74549
 20
0.223242
 30
0.0
 11
9.58427
 21
0.26734
 31
0.0
  0
LINE
  8
0
 62
     0
 10
9.58427
 20
0.26734
 30
0.0
 11
9.55393
 21
0.276986
 31
0.0
  0
LINE
  8
0
 62
     0
 10
9.55393
 20
0.276986
 30
0.0
 11
9.5002
 21
0.270095
 31
0.0
  0
LINE
  8
0
 62
     0
 10
9.5002
 20
0.270095
 30
0.0
 11
9.31968
 21
0.373447
 31
0.0
  0
LINE
  8
0
 62
     0
 10
9.31968
 20
0.373447
 30
0.0
 11
9.27005
 21
0.602202
 31
0.0
  0
LINE
  8
0
 62
     0
 10
9.27005
 20
0.602202
 30
0.0
 11
9.26179
 21
0.651813
 31
0.0
  0
LINE
  8
0
 62
     0
 10
9.26179
 20
0.651813
 30
0.0
 11
9.24662
 21
0.677997
 31
0.0
  0
LINE
  8
0
 62
     0
 10
9.24662
 20
0.677997
 30
0.0
 11
9.22736
 21
0.94809
 31
0.0
  0
LINE
  8
0
 62
     0
 10
9.22736
 20
0.94809
 30
0.0
 11
9.26042
 21
1.31327
 31
0.0
  0
LINE
  8
0
 62
     0
 10
9.26042
 20
1.31327
 30
0.0
 11
9.27283
 21
1.38493
 31
0.0
  0
LINE
  8
0
 62
     0
 10
9.27283
 20
1.38493
 30
0.0
 11
9.27971
 21
1.43178
 31
0.0
  0
LINE
  8
0
 62
     0
 10
9.27971
 20
1.43178
 30
0.0
 11
9.36516
 21
1.80248
 31
0.0
  0
LINE
  8
0
 62
     0
 10
9.36516
 20
1.80248
 30
0.0
 11
9.5002
 21
2.25723
 31
0.0
  0
LINE
  8
0
 62
     0
 10
9.5002
 20
2.25723
 30
0.0
 11
9.53188
 21
2.34404
 31
0.0
  0
LINE
  8
0
 62
     0
 10
9.53188
 20
2.34404
 30
0.0
 11
9.53604
 21
2.41294
 31
0.0
  0
LINE
  8
0
 62
     0
 10
9.53604
 20
2.41294
 30
0.0
 11
9.69313
 21
2.84014
 31
0.0
  0
LINE
  8
0
 62
     0
 10
9.69313
 20
2.84014
 30
0.0
 11
9.9205
 21
3.30454
 31
0.0
  0
LINE
  8
0
 62
     0
 10
9.9205
 20
3.30454
 30
0.0
 11
9.96184
 21
3.39135
 31
0.0
  0
LINE
  8
0
 62
     0
 10
9.96184
 20
3.39135
 30
0.0
 11
9.99765
 21
3.46163
 31
0.0
  0
LINE
  8
0
 62
     0
 10
9.99765
 20
3.46163
 30
0.0
 11
10.4428
 21
4.32015
 31
0.0
  0
LINE
  8
0
 62
     0
 10
10.4428
 20
4.32015
 30
0.0
 11
10.491
 21
4.40009
 31
0.0
  0
LINE
  8
0
 62
     0
 10
10.491
 20
4.40009
 30
0.0
 11
10.5213
 21
4.46761
 31
0.0
  0
LINE
  8
0
 62
     0
 10
10.5213
 20
4.46761
 30
0.0
 11
10.7528
 21
4.83415
 31
0.0
  0
LINE
  8
0
 62
     0
 10
10.7528
 20
4.83415
 30
0.0
 11
11.0216
 21
5.18418
 31
0.0
  0
LINE
  8
0
 62
     0
 10
11.0216
 20
5.18418
 30
0.0
 11
11.0698
 21
5.24344
 31
0.0
  0
LINE
  8
0
 62
     0
 10
11.0698
 20
5.24344
 30
0.0
 11
11.1097
 21
5.27925
 31
0.0
  0
LINE
  8
0
 62
     0
 10
11.1097
 20
5.27925
 30
0.0
 11
11.5769
 21
5.75331
 31
0.0
  0
LINE
  8
0
 62
     0
 10
11.5769
 20
5.75331
 30
0.0
 11
11.621
 21
5.78362
 31
0.0
  0
LINE
  8
0
 62
     0
 10
11.621
 20
5.78362
 30
0.0
 11
11.6417
 21
5.80429
 31
0.0
  0
LINE
  8
0
 62
     0
 10
11.6417
 20
5.80429
 30
0.0
 11
11.8332
 21
5.88836
 31
0.0
  0
LINE
  8
0
 62
     0
 10
11.8332
 20
5.88836
 30
0.0
 11
12.0468
 21
5.90765
 31
0.0
  0
LINE
  8
0
 62
     0
 10
12.0468
 20
5.90765
 30
0.0
 11
12.0785
 21
5.89386
 31
0.0
  0
LINE
  8
0
 62
     0
 10
12.0785
 20
5.89386
 30
0.0
 11
12.0964
 21
5.86631
 31
0.0
  0
LINE
  8
0
 62
     0
 10
12.0964
 20
5.86631
 30
0.0
 11
12.197
 21
5.67475
 31
0.0
  0
LINE
  8
0
 62
     0
 10
12.197
 20
5.67475
 30
0.0
 11
12.1943
 21
5.64032
 31
0.0
  0
LINE
  8
0
 62
     0
 10
12.1943
 20
5.64032
 30
0.0
 11
12.1791
 21
5.5783
 31
0.0
  0
LINE
  8
0
 62
     0
 10
12.1791
 20
5.5783
 30
0.0
 11
12.1336
 21
5.36885
 31
0.0
  0
LINE
  8
0
 62
     0
 10
12.1336
 20
5.36885
 30
0.0
 11
12.0771
 21
5.18418
 31
0.0
  0
LINE
  8
0
 62
     0
 10
12.0771
 20
5.18418
 30
0.0
 11
12.0565
 21
5.1332
 31
0.0
  0
LINE
  8
0
 62
     0
 10
12.0565
 20
5.1332
 30
0.0
 11
12.0344
 21
5.06843
 31
0.0
  0
LINE
  8
0
 62
     0
 10
12.0344
 20
5.06843
 30
0.0
 11
11.7505
 21
4.53789
 31
0.0
  0
LINE
  8
0
 62
     0
 10
11.7505
 20
4.53789
 30
0.0
 11
11.7147
 21
4.47724
 31
0.0
  0
LINE
  8
0
 62
     0
 10
11.7147
 20
4.47724
 30
0.0
 11
11.6761
 21
4.39872
 31
0.0
  0
LINE
  8
0
 62
     0
 10
11.6761
 20
4.39872
 30
0.0
 11
11.2696
 21
3.81716
 31
0.0
  0
LINE
  8
0
 62
     0
 10
11.2696
 20
3.81716
 30
0.0
 11
11.2241
 21
3.75514
 31
0.0
  0
LINE
  8
0
 62
     0
 10
11.2241
 20
3.75514
 30
0.0
 11
11.158
 21
3.67661
 31
0.0
  0
LINE
  8
0
 62
     0
 10
11.158
 20
3.67661
 30
0.0
 11
10.9113
 21
3.37068
 31
0.0
  0
LINE
  8
0
 62
     0
 10
10.9113
 20
3.37068
 30
0.0
 11
10.6922
 21
3.11161
 31
0.0
  0
LINE
  8
0
 62
     0
 10
10.6922
 20
3.11161
 30
0.0
 11
10.6398
 21
3.05511
 31
0.0
  0
LINE
  8
0
 62
     0
 10
10.6398
 20
3.05511
 30
0.0
 11
10.5861
 21
2.98208
 31
0.0
  0
LINE
  8
0
 62
     0
 10
10.5861
 20
2.98208
 30
0.0
 11
10.0638
 21
2.51768
 31
0.0
  0
LINE
  8
0
 62
     0
 10
10.0638
 20
2.51768
 30
0.0
 11
10.0114
 21
2.47633
 31
0.0
  0
LINE
  8
0
 62
     0
 10
10.0114
 20
2.47633
 30
0.0
 11
10.0032
 21
2.47496
 31
0.0
  0
LINE
  8
0
 62
     0
 10
10.0032
 20
2.47496
 30
0.0
 11
9.97423
 21
2.38263
 31
0.0
  0
LINE
  8
0
 62
     0
 10
9.97423
 20
2.38263
 30
0.0
 11
9.96735
 21
2.36609
 31
0.0
  0
LINE
  8
0
 62
     0
 10
9.96735
 20
2.36609
 30
0.0
 11
9.95634
 21
2.33026
 31
0.0
  0
LINE
  8
0
 62
     0
 10
9.95634
 20
2.33026
 30
0.0
 11
9.87778
 21
2.12907
 31
0.0
  0
LINE
  8
0
 62
     0
 10
9.87778
 20
2.12907
 30
0.0
 11
9.86815
 21
2.10151
 31
0.0
  0
LINE
  8
0
 62
     0
 10
9.86815
 20
2.10151
 30
0.0
 11
9.83643
 21
2.05328
 31
0.0
  0
LINE
  8
0
 62
     0
 10
9.83643
 20
2.05328
 30
0.0
 11
9.77166
 21
1.88929
 31
0.0
  0
LINE
  8
0
 62
     0
 10
9.77166
 20
1.88929
 30
0.0
 11
9.7579
 21
1.77216
 31
0.0
  0
LINE
  8
0
 62
     0
 10
9.7579
 20
1.77216
 30
0.0
 11
9.74686
 21
1.73771
 31
0.0
  0
LINE
  8
0
 62
     0
 10
9.74686
 20
1.73771
 30
0.0
 11
9.72069
 21
1.67845
 31
0.0
  0
LINE
  8
0
 62
     0
 10
9.72069
 20
1.67845
 30
0.0
 11
9.66555
 21
1.48966
 31
0.0
  0
LINE
  8
0
 62
     0
 10
9.66555
 20
1.48966
 30
0.0
 11
9.64487
 21
1.35048
 31
0.0
  0
LINE
  8
0
 62
     0
 10
9.64487
 20
1.35048
 30
0.0
 11
9.63662
 21
1.31327
 31
0.0
  0
LINE
  8
0
 62
     0
 10
9.63662
 20
1.31327
 30
0.0
 11
9.62283
 21
1.25677
 31
0.0
  0
LINE
  8
0
 62
     0
 10
9.62283
 20
1.25677
 30
0.0
 11
9.57873
 21
0.923286
 31
0.0
  0
LINE
  8
0
 62
     0
 10
9.57873
 20
0.923286
 30
0.0
 11
9.57598
 21
0.888834
 31
0.0
  0
LINE
  8
0
 62
     0
 10
9.57598
 20
0.888834
 30
0.0
 11
9.57322
 21
0.840602
 31
0.0
  0
LINE
  8
0
 62
     0
 10
9.57322
 20
0.840602
 30
0.0
 11
9.59665
 21
0.552595
 31
0.0
  0
LINE
  8
0
 62
     0
 10
9.59665
 20
0.552595
 30
0.0
 11
9.60356
 21
0.525032
 31
0.0
  0
LINE
  8
0
 62
     0
 10
9.60356
 20
0.525032
 30
0.0
 11
9.60356
 21
0.486449
 31
0.0
  0
LINE
  8
0
 62
     0
 10
9.60356
 20
0.486449
 30
0.0
 11
9.6628
 21
0.370692
 31
0.0
  0
LINE
  8
0
 62
     0
 10
9.6628
 20
0.370692
 30
0.0
 11
9.77717
 21
0.365181
 31
0.0
  0
LINE
  8
0
 62
     0
 10
9.77717
 20
0.365181
 30
0.0
 11
9.8075
 21
0.370692
 31
0.0
  0
LINE
  8
0
 62
     0
 10
9.8075
 20
0.370692
 30
0.0
 11
9.81576
 21
0.376206
 31
0.0
  0
LINE
  8
0
 62
     0
 10
9.81576
 20
0.376206
 30
0.0
 11
10.1851
 21
0.547081
 31
0.0
  0
LINE
  8
0
 62
     0
 10
10.1851
 20
0.547081
 30
0.0
 11
10.2264
 21
0.574643
 31
0.0
  0
LINE
  8
0
 62
     0
 10
10.2264
 20
0.574643
 30
0.0
 11
10.2402
 21
0.584288
 31
0.0
  0
LINE
  8
0
 62
     0
 10
10.2402
 20
0.584288
 30
0.0
 11
10.4414
 21
0.740008
 31
0.0
  0
LINE
  8
0
 62
     0
 10
10.4414
 20
0.740008
 30
0.0
 11
10.7115
 21
0.966004
 31
0.0
  0
LINE
  8
0
 62
     0
 10
10.7115
 20
0.966004
 30
0.0
 11
10.7611
 21
1.0101
 31
0.0
  0
LINE
  8
0
 62
     0
 10
10.7611
 20
1.0101
 30
0.0
 11
10.7983
 21
1.02939
 31
0.0
  0
LINE
  8
0
 62
     0
 10
10.7983
 20
1.02939
 30
0.0
 11
11.0298
 21
1.23886
 31
0.0
  0
LINE
  8
0
 62
     0
 10
11.0298
 20
1.23886
 30
0.0
 11
11.2779
 21
1.50068
 31
0.0
  0
LINE
  8
0
 62
     0
 10
11.2779
 20
1.50068
 30
0.0
 11
11.3234
 21
1.54478
 31
0.0
  0
LINE
  8
0
 62
     0
 10
11.3234
 20
1.54478
 30
0.0
 11
11.3385
 21
1.58061
 31
0.0
  0
LINE
  8
0
 62
     0
 10
11.3385
 20
1.58061
 30
0.0
 11
11.5356
 21
1.79558
 31
0.0
  0
LINE
  8
0
 62
     0
 10
11.5356
 20
1.79558
 30
0.0
 11
11.7726
 21
2.02296
 31
0.0
  0
LINE
  8
0
 62
     0
 10
11.7726
 20
2.02296
 30
0.0
 11
11.8084
 21
2.06292
 31
0.0
  0
LINE
  8
0
 62
     0
 10
11.8084
 20
2.06292
 30
0.0
 11
11.8332
 21
2.07946
 31
0.0
  0
LINE
  8
0
 62
     0
 10
11.8332
 20
2.07946
 30
0.0
 11
11.9765
 21
2.24207
 31
0.0
  0
LINE
  8
0
 62
     0
 10
11.9765
 20
2.24207
 30
0.0
 11
12.1006
 21
2.4157
 31
0.0
  0
LINE
  8
0
 62
     0
 10
12.1006
 20
2.4157
 30
0.0
 11
12.1171
 21
2.43775
 31
0.0
  0
LINE
  8
0
 62
     0
 10
12.0124
 20
5.78915
 30
0.0
 11
11.9628
 21
5.77811
 31
0.0
  0
LINE
  8
0
 62
     0
 10
11.9628
 20
5.77811
 30
0.0
 11
11.8222
 21
5.71197
 31
0.0
  0
LINE
  8
0
 62
     0
 10
11.8222
 20
5.71197
 30
0.0
 11
11.7147
 21
5.59209
 31
0.0
  0
LINE
  8
0
 62
     0
 10
11.7147
 20
5.59209
 30
0.0
 11
11.6816
 21
5.55212
 31
0.0
  0
LINE
  8
0
 62
     0
 10
11.6816
 20
5.55212
 30
0.0
 11
11.6485
 21
5.49286
 31
0.0
  0
LINE
  8
0
 62
     0
 10
11.6485
 20
5.49286
 30
0.0
 11
11.2999
 21
5.03121
 31
0.0
  0
LINE
  8
0
 62
     0
 10
11.2999
 20
5.03121
 30
0.0
 11
11.2627
 21
4.97336
 31
0.0
  0
LINE
  8
0
 62
     0
 10
11.2627
 20
4.97336
 30
0.0
 11
11.2021
 21
4.91409
 31
0.0
  0
LINE
  8
0
 62
     0
 10
11.2021
 20
4.91409
 30
0.0
 11
10.8575
 21
4.28706
 31
0.0
  0
LINE
  8
0
 62
     0
 10
10.8575
 20
4.28706
 30
0.0
 11
10.8217
 21
4.21816
 31
0.0
  0
LINE
  8
0
 62
     0
 10
10.8217
 20
4.21816
 30
0.0
 11
10.768
 21
4.12309
 31
0.0
  0
LINE
  8
0
 62
     0
 10
10.768
 20
4.12309
 30
0.0
 11
10.5875
 21
3.78135
 31
0.0
  0
LINE
  8
0
 62
     0
 10
10.5875
 20
3.78135
 30
0.0
 11
10.4579
 21
3.51262
 31
0.0
  0
LINE
  8
0
 62
     0
 10
10.4579
 20
3.51262
 30
0.0
 11
10.4304
 21
3.45199
 31
0.0
  0
LINE
  8
0
 62
     0
 10
10.4304
 20
3.45199
 30
0.0
 11
10.3876
 21
3.37068
 31
0.0
  0
LINE
  8
0
 62
     0
 10
10.3876
 20
3.37068
 30
0.0
 11
10.254
 21
3.08956
 31
0.0
  0
LINE
  8
0
 62
     0
 10
10.254
 20
3.08956
 30
0.0
 11
10.1672
 21
2.8925
 31
0.0
  0
LINE
  8
0
 62
     0
 10
10.1672
 20
2.8925
 30
0.0
 11
10.1492
 21
2.85116
 31
0.0
  0
LINE
  8
0
 62
     0
 10
10.1492
 20
2.85116
 30
0.0
 11
10.1134
 21
2.81258
 31
0.0
  0
LINE
  8
0
 62
     0
 10
10.1134
 20
2.81258
 30
0.0
 11
10.039
 21
2.66375
 31
0.0
  0
LINE
  8
0
 62
     0
 10
10.039
 20
2.66375
 30
0.0
 11
10.0473
 21
2.60036
 31
0.0
  0
LINE
  8
0
 62
     0
 10
10.0473
 20
2.60036
 30
0.0
 11
10.05
 21
2.5976
 31
0.0
  0
LINE
  8
0
 62
     0
 10
10.05
 20
2.5976
 30
0.0
 11
10.0776
 21
2.61552
 31
0.0
  0
LINE
  8
0
 62
     0
 10
10.0776
 20
2.61552
 30
0.0
 11
10.5103
 21
3.01101
 31
0.0
  0
LINE
  8
0
 62
     0
 10
10.5103
 20
3.01101
 30
0.0
 11
10.5572
 21
3.06062
 31
0.0
  0
LINE
  8
0
 62
     0
 10
10.5572
 20
3.06062
 30
0.0
 11
10.5792
 21
3.09094
 31
0.0
  0
LINE
  8
0
 62
     0
 10
10.5792
 20
3.09094
 30
0.0
 11
10.7942
 21
3.3445
 31
0.0
  0
LINE
  8
0
 62
     0
 10
10.7942
 20
3.3445
 30
0.0
 11
11.0532
 21
3.65732
 31
0.0
  0
LINE
  8
0
 62
     0
 10
11.0532
 20
3.65732
 30
0.0
 11
11.0973
 21
3.71658
 31
0.0
  0
LINE
  8
0
 62
     0
 10
11.0973
 20
3.71658
 30
0.0
 11
11.1318
 21
3.76206
 31
0.0
  0
LINE
  8
0
 62
     0
 10
11.1318
 20
3.76206
 30
0.0
 11
11.5548
 21
4.37804
 31
0.0
  0
LINE
  8
0
 62
     0
 10
11.5548
 20
4.37804
 30
0.0
 11
11.5934
 21
4.43865
 31
0.0
  0
LINE
  8
0
 62
     0
 10
11.5934
 20
4.43865
 30
0.0
 11
11.61
 21
4.48412
 31
0.0
  0
LINE
  8
0
 62
     0
 10
11.61
 20
4.48412
 30
0.0
 11
11.7671
 21
4.76525
 31
0.0
  0
LINE
  8
0
 62
     0
 10
11.7671
 20
4.76525
 30
0.0
 11
11.9393
 21
5.05601
 31
0.0
  0
LINE
  8
0
 62
     0
 10
11.9393
 20
5.05601
 30
0.0
 11
11.9628
 21
5.10565
 31
0.0
  0
LINE
  8
0
 62
     0
 10
11.9628
 20
5.10565
 30
0.0
 11
11.9628
 21
5.14283
 31
0.0
  0
LINE
  8
0
 62
     0
 10
11.9628
 20
5.14283
 30
0.0
 11
12.0399
 21
5.36056
 31
0.0
  0
LINE
  8
0
 62
     0
 10
12.0399
 20
5.36056
 30
0.0
 11
12.124
 21
5.56588
 31
0.0
  0
LINE
  8
0
 62
     0
 10
12.124
 20
5.56588
 30
0.0
 11
12.1281
 21
5.59622
 31
0.0
  0
LINE
  8
0
 62
     0
 10
12.1281
 20
5.59622
 30
0.0
 11
12.124
 21
5.60447
 31
0.0
  0
LINE
  8
0
 62
     0
 10
12.124
 20
5.60447
 30
0.0
 11
12.1006
 21
5.70371
 31
0.0
  0
LINE
  8
0
 62
     0
 10
12.1006
 20
5.70371
 30
0.0
 11
12.0344
 21
5.78915
 31
0.0
  0
LINE
  8
0
 62
     0
 10
12.0344
 20
5.78915
 30
0.0
 11
12.0124
 21
5.78915
 31
0.0
  0
LINE
  8
0
 62
     0
 10
14.9187
 20
2.58107
 30
0.0
 11
14.9076
 21
2.57693
 31
0.0
  0
LINE
  8
0
 62
     0
 10
14.9076
 20
2.57693
 30
0.0
 11
14.8801
 21
2.5535
 31
0.0
  0
LINE
  8
0
 62
     0
 10
14.8801
 20
2.5535
 30
0.0
 11
14.9242
 21
2.54524
 31
0.0
  0
LINE
  8
0
 62
     0
 10
14.9242
 20
2.54524
 30
0.0
 11
14.9242
 21
2.54248
 31
0.0
  0
LINE
  8
0
 62
     0
 10
14.9242
 20
2.54248
 30
0.0
 11
14.9117
 21
2.53972
 31
0.0
  0
LINE
  8
0
 62
     0
 10
14.9117
 20
2.53972
 30
0.0
 11
14.8787
 21
2.51906
 31
0.0
  0
LINE
  8
0
 62
     0
 10
14.8787
 20
2.51906
 30
0.0
 11
14.9187
 21
2.51492
 31
0.0
  0
LINE
  8
0
 62
     0
 10
14.9187
 20
2.51492
 30
0.0
 11
14.9187
 21
2.51492
 31
0.0
  0
LINE
  8
0
 62
     0
 10
14.9187
 20
2.51492
 30
0.0
 11
14.8594
 21
2.48047
 31
0.0
  0
LINE
  8
0
 62
     0
 10
14.8594
 20
2.48047
 30
0.0
 11
14.6789
 21
2.32613
 31
0.0
  0
LINE
  8
0
 62
     0
 10
14.6789
 20
2.32613
 30
0.0
 11
14.5383
 21
2.1897
 31
0.0
  0
LINE
  8
0
 62
     0
 10
14.5383
 20
2.1897
 30
0.0
 11
14.4997
 21
2.16214
 31
0.0
  0
LINE
  8
0
 62
     0
 10
14.4997
 20
2.16214
 30
0.0
 11
14.4363
 21
2.1332
 31
0.0
  0
LINE
  8
0
 62
     0
 10
14.4363
 20
2.1332
 30
0.0
 11
14.0367
 21
1.92098
 31
0.0
  0
LINE
  8
0
 62
     0
 10
14.0367
 20
1.92098
 30
0.0
 11
13.9926
 21
1.90307
 31
0.0
  0
LINE
  8
0
 62
     0
 10
13.9926
 20
1.90307
 30
0.0
 11
13.9375
 21
1.87551
 31
0.0
  0
LINE
  8
0
 62
     0
 10
13.9375
 20
1.87551
 30
0.0
 11
13.4979
 21
1.76664
 31
0.0
  0
LINE
  8
0
 62
     0
 10
13.4979
 20
1.76664
 30
0.0
 11
13.4524
 21
1.75975
 31
0.0
  0
LINE
  8
0
 62
     0
 10
13.4524
 20
1.75975
 30
0.0
 11
13.3835
 21
1.72668
 31
0.0
  0
LINE
  8
0
 62
     0
 10
13.3835
 20
1.72668
 30
0.0
 11
13.1437
 21
1.70326
 31
0.0
  0
LINE
  8
0
 62
     0
 10
13.1437
 20
1.70326
 30
0.0
 11
12.9605
 21
1.76389
 31
0.0
  0
LINE
  8
0
 62
     0
 10
12.9605
 20
1.76389
 30
0.0
 11
12.9177
 21
1.77078
 31
0.0
  0
LINE
  8
0
 62
     0
 10
12.9177
 20
1.77078
 30
0.0
 11
12.8585
 21
1.70188
 31
0.0
  0
LINE
  8
0
 62
     0
 10
12.8585
 20
1.70188
 30
0.0
 11
12.4272
 21
1.24161
 31
0.0
  0
LINE
  8
0
 62
     0
 10
12.4272
 20
1.24161
 30
0.0
 11
12.3886
 21
1.21956
 31
0.0
  0
LINE
  8
0
 62
     0
 10
12.3886
 20
1.21956
 30
0.0
 11
12.3279
 21
1.18649
 31
0.0
  0
LINE
  8
0
 62
     0
 10
12.3279
 20
1.18649
 30
0.0
 11
12.1405
 21
1.09554
 31
0.0
  0
LINE
  8
0
 62
     0
 10
12.1405
 20
1.09554
 30
0.0
 11
12.0275
 21
1.06936
 31
0.0
  0
LINE
  8
0
 62
     0
 10
12.0275
 20
1.06936
 30
0.0
 11
12.0027
 21
1.06522
 31
0.0
  0
LINE
  8
0
 62
     0
 10
12.0027
 20
1.06522
 30
0.0
 11
11.9641
 21
1.06522
 31
0.0
  0
LINE
  8
0
 62
     0
 10
11.9641
 20
1.06522
 30
0.0
 11
11.9297
 21
1.06522
 31
0.0
  0
LINE
  8
0
 62
     0
 10
11.9297
 20
1.06522
 30
0.0
 11
11.836
 21
1.079
 31
0.0
  0
LINE
  8
0
 62
     0
 10
11.836
 20
1.079
 30
0.0
 11
11.8263
 21
1.08176
 31
0.0
  0
LINE
  8
0
 62
     0
 10
11.8263
 20
1.08176
 30
0.0
 11
11.8098
 21
1.08452
 31
0.0
  0
LINE
  8
0
 62
     0
 10
11.8098
 20
1.08452
 30
0.0
 11
11.7326
 21
1.14515
 31
0.0
  0
LINE
  8
0
 62
     0
 10
11.7326
 20
1.14515
 30
0.0
 11
11.7271
 21
1.15342
 31
0.0
  0
LINE
  8
0
 62
     0
 10
11.7271
 20
1.15342
 30
0.0
 11
11.7009
 21
1.15617
 31
0.0
  0
LINE
  8
0
 62
     0
 10
11.7009
 20
1.15617
 30
0.0
 11
11.6307
 21
1.22094
 31
0.0
  0
LINE
  8
0
 62
     0
 10
11.6307
 20
1.22094
 30
0.0
 11
11.6417
 21
1.31603
 31
0.0
  0
LINE
  8
0
 62
     0
 10
11.6417
 20
1.31603
 30
0.0
 11
11.6389
 21
1.33532
 31
0.0
  0
LINE
  8
0
 62
     0
 10
11.6389
 20
1.33532
 30
0.0
 11
11.6292
 21
1.33532
 31
0.0
  0
LINE
  8
0
 62
     0
 10
11.6292
 20
1.33532
 30
0.0
 11
11.5921
 21
1.42765
 31
0.0
  0
LINE
  8
0
 62
     0
 10
11.5921
 20
1.42765
 30
0.0
 11
11.6251
 21
1.57234
 31
0.0
  0
LINE
  8
0
 62
     0
 10
11.6251
 20
1.57234
 30
0.0
 11
11.6279
 21
1.59439
 31
0.0
  0
LINE
  8
0
 62
     0
 10
11.6279
 20
1.59439
 30
0.0
 11
11.6141
 21
1.60128
 31
0.0
  0
LINE
  8
0
 62
     0
 10
11.6141
 20
1.60128
 30
0.0
 11
11.6196
 21
1.71152
 31
0.0
  0
LINE
  8
0
 62
     0
 10
11.6196
 20
1.71152
 30
0.0
 11
11.6803
 21
1.85208
 31
0.0
  0
LINE
  8
0
 62
     0
 10
11.6803
 20
1.85208
 30
0.0
 11
11.6885
 21
1.87551
 31
0.0
  0
LINE
  8
0
 62
     0
 10
11.6885
 20
1.87551
 30
0.0
 11
11.6748
 21
1.88791
 31
0.0
  0
LINE
  8
0
 62
     0
 10
11.6748
 20
1.88791
 30
0.0
 11
11.7064
 21
1.99678
 31
0.0
  0
LINE
  8
0
 62
     0
 10
11.7064
 20
1.99678
 30
0.0
 11
11.7933
 21
2.10702
 31
0.0
  0
LINE
  8
0
 62
     0
 10
11.7933
 20
2.10702
 30
0.0
 11
11.8043
 21
2.12356
 31
0.0
  0
LINE
  8
0
 62
     0
 10
11.8043
 20
2.12356
 30
0.0
 11
11.807
 21
2.13734
 31
0.0
  0
LINE
  8
0
 62
     0
 10
11.807
 20
2.13734
 30
0.0
 11
11.8897
 21
2.21037
 31
0.0
  0
LINE
  8
0
 62
     0
 10
11.8897
 20
2.21037
 30
0.0
 11
11.898
 21
2.21175
 31
0.0
  0
LINE
  8
0
 62
     0
 10
11.898
 20
2.21175
 30
0.0
 11
11.898
 21
2.21175
 31
0.0
  0
LINE
  8
0
 62
     0
 10
11.898
 20
2.21175
 30
0.0
 11
11.9641
 21
2.22829
 31
0.0
  0
LINE
  8
0
 62
     0
 10
11.9641
 20
2.22829
 30
0.0
 11
11.9862
 21
2.22829
 31
0.0
  0
LINE
  8
0
 62
     0
 10
11.9862
 20
2.22829
 30
0.0
 11
11.9862
 21
2.22829
 31
0.0
  0
LINE
  8
0
 62
     0
 10
11.9862
 20
2.22829
 30
0.0
 11
12.0303
 21
2.24896
 31
0.0
  0
LINE
  8
0
 62
     0
 10
12.0303
 20
2.24896
 30
0.0
 11
12.0303
 21
2.25585
 31
0.0
  0
LINE
  8
0
 62
     0
 10
12.0303
 20
2.25585
 30
0.0
 11
12.0082
 21
2.27514
 31
0.0
  0
LINE
  8
0
 62
     0
 10
12.0082
 20
2.27514
 30
0.0
 11
12.0303
 21
2.43224
 31
0.0
  0
LINE
  8
0
 62
     0
 10
12.0303
 20
2.43224
 30
0.0
 11
12.1281
 21
2.62654
 31
0.0
  0
LINE
  8
0
 62
     0
 10
12.1281
 20
2.62654
 30
0.0
 11
12.146
 21
2.66375
 31
0.0
  0
LINE
  8
0
 62
     0
 10
12.146
 20
2.66375
 30
0.0
 11
12.1598
 21
2.68718
 31
0.0
  0
LINE
  8
0
 62
     0
 10
12.1598
 20
2.68718
 30
0.0
 11
12.4024
 21
3.02479
 31
0.0
  0
LINE
  8
0
 62
     0
 10
12.4024
 20
3.02479
 30
0.0
 11
12.4327
 21
3.0496
 31
0.0
  0
LINE
  8
0
 62
     0
 10
12.4327
 20
3.0496
 30
0.0
 11
12.4409
 21
3.062
 31
0.0
  0
LINE
  8
0
 62
     0
 10
12.4409
 20
3.062
 30
0.0
 11
12.6077
 21
3.14606
 31
0.0
  0
LINE
  8
0
 62
     0
 10
12.6077
 20
3.14606
 30
0.0
 11
12.8309
 21
3.19016
 31
0.0
  0
LINE
  8
0
 62
     0
 10
12.8309
 20
3.19016
 30
0.0
 11
12.8681
 21
3.18189
 31
0.0
  0
LINE
  8
0
 62
     0
 10
12.8681
 20
3.18189
 30
0.0
 11
12.8957
 21
3.17776
 31
0.0
  0
LINE
  8
0
 62
     0
 10
12.8957
 20
3.17776
 30
0.0
 11
13.1244
 21
3.01653
 31
0.0
  0
LINE
  8
0
 62
     0
 10
13.1244
 20
3.01653
 30
0.0
 11
13.1382
 21
2.98897
 31
0.0
  0
LINE
  8
0
 62
     0
 10
13.1382
 20
2.98897
 30
0.0
 11
13.1217
 21
2.96554
 31
0.0
  0
LINE
  8
0
 62
     0
 10
13.1217
 20
2.96554
 30
0.0
 11
13.1313
 21
2.8553
 31
0.0
  0
LINE
  8
0
 62
     0
 10
13.1313
 20
2.8553
 30
0.0
 11
13.1864
 21
2.76986
 31
0.0
  0
LINE
  8
0
 62
     0
 10
13.1864
 20
2.76986
 30
0.0
 11
13.1878
 21
2.74643
 31
0.0
  0
LINE
  8
0
 62
     0
 10
13.1878
 20
2.74643
 30
0.0
 11
13.1864
 21
2.70095
 31
0.0
  0
LINE
  8
0
 62
     0
 10
13.1864
 20
2.70095
 30
0.0
 11
13.1699
 21
2.48047
 31
0.0
  0
LINE
  8
0
 62
     0
 10
13.1699
 20
2.48047
 30
0.0
 11
13.1658
 21
2.45429
 31
0.0
  0
LINE
  8
0
 62
     0
 10
13.1658
 20
2.45429
 30
0.0
 11
13.1603
 21
2.40192
 31
0.0
  0
LINE
  8
0
 62
     0
 10
13.1603
 20
2.40192
 30
0.0
 11
13.0872
 21
2.17317
 31
0.0
  0
LINE
  8
0
 62
     0
 10
13.0872
 20
2.17317
 30
0.0
 11
13.0776
 21
2.1456
 31
0.0
  0
LINE
  8
0
 62
     0
 10
13.0776
 20
2.1456
 30
0.0
 11
13.0459
 21
2.11805
 31
0.0
  0
LINE
  8
0
 62
     0
 10
13.0459
 20
2.11805
 30
0.0
 11
12.9673
 21
1.88102
 31
0.0
  0
LINE
  8
0
 62
     0
 10
12.9673
 20
1.88102
 30
0.0
 11
12.9563
 21
1.85897
 31
0.0
  0
LINE
  8
0
 62
     0
 10
12.9563
 20
1.85897
 30
0.0
 11
12.9853
 21
1.84519
 31
0.0
  0
LINE
  8
0
 62
     0
 10
12.9853
 20
1.84519
 30
0.0
 11
13.4249
 21
1.85346
 31
0.0
  0
LINE
  8
0
 62
     0
 10
13.4249
 20
1.85346
 30
0.0
 11
13.4689
 21
1.85897
 31
0.0
  0
LINE
  8
0
 62
     0
 10
13.4689
 20
1.85897
 30
0.0
 11
13.4869
 21
1.85897
 31
0.0
  0
LINE
  8
0
 62
     0
 10
13.4869
 20
1.85897
 30
0.0
 11
13.6922
 21
1.90169
 31
0.0
  0
LINE
  8
0
 62
     0
 10
13.6922
 20
1.90169
 30
0.0
 11
13.9444
 21
1.98024
 31
0.0
  0
LINE
  8
0
 62
     0
 10
13.9444
 20
1.98024
 30
0.0
 11
13.9871
 21
1.99678
 31
0.0
  0
LINE
  8
0
 62
     0
 10
13.9871
 20
1.99678
 30
0.0
 11
14.0188
 21
1.9954
 31
0.0
  0
LINE
  8
0
 62
     0
 10
14.0188
 20
1.9954
 30
0.0
 11
14.2172
 21
2.08084
 31
0.0
  0
LINE
  8
0
 62
     0
 10
14.2172
 20
2.08084
 30
0.0
 11
14.4239
 21
2.22002
 31
0.0
  0
LINE
  8
0
 62
     0
 10
14.4239
 20
2.22002
 30
0.0
 11
14.4611
 21
2.24482
 31
0.0
  0
LINE
  8
0
 62
     0
 10
14.4611
 20
2.24482
 30
0.0
 11
14.4791
 21
2.25998
 31
0.0
  0
LINE
  8
0
 62
     0
 10
14.4791
 20
2.25998
 30
0.0
 11
14.8291
 21
2.5411
 31
0.0
  0
LINE
  8
0
 62
     0
 10
14.8291
 20
2.5411
 30
0.0
 11
14.858
 21
2.57004
 31
0.0
  0
LINE
  8
0
 62
     0
 10
14.858
 20
2.57004
 30
0.0
 11
14.8539
 21
2.57004
 31
0.0
  0
LINE
  8
0
 62
     0
 10
14.8539
 20
2.57004
 30
0.0
 11
14.8415
 21
2.57555
 31
0.0
  0
LINE
  8
0
 62
     0
 10
14.8415
 20
2.57555
 30
0.0
 11
14.8787
 21
2.59209
 31
0.0
  0
LINE
  8
0
 62
     0
 10
14.8787
 20
2.59209
 30
0.0
 11
14.8911
 21
2.59209
 31
0.0
  0
LINE
  8
0
 62
     0
 10
14.8911
 20
2.59209
 30
0.0
 11
14.8814
 21
2.58933
 31
0.0
  0
LINE
  8
0
 62
     0
 10
14.8814
 20
2.58933
 30
0.0
 11
14.8566
 21
2.57693
 31
0.0
  0
LINE
  8
0
 62
     0
 10
14.8566
 20
2.57693
 30
0.0
 11
14.9007
 21
2.58796
 31
0.0
  0
LINE
  8
0
 62
     0
 10
14.9007
 20
2.58796
 30
0.0
 11
14.9021
 21
2.58658
 31
0.0
  0
LINE
  8
0
 62
     0
 10
14.9021
 20
2.58658
 30
0.0
 11
14.8924
 21
2.58382
 31
0.0
  0
LINE
  8
0
 62
     0
 10
14.8924
 20
2.58382
 30
0.0
 11
14.8676
 21
2.56866
 31
0.0
  0
LINE
  8
0
 62
     0
 10
14.8676
 20
2.56866
 30
0.0
 11
14.9049
 21
2.58107
 31
0.0
  0
LINE
  8
0
 62
     0
 10
14.9049
 20
2.58107
 30
0.0
 11
14.9187
 21
2.58107
 31
0.0
  0
LINE
  8
0
 62
     0
 10
11.9862
 20
1.0101
 30
0.0
 11
11.9848
 21
1.00459
 31
0.0
  0
LINE
  8
0
 62
     0
 10
11.9848
 20
1.00459
 30
0.0
 11
12.0482
 21
0.974273
 31
0.0
  0
LINE
  8
0
 62
     0
 10
12.0482
 20
0.974273
 30
0.0
 11
12.1653
 21
1.04317
 31
0.0
  0
LINE
  8
0
 62
     0
 10
12.1653
 20
1.04317
 30
0.0
 11
12.1846
 21
1.0542
 31
0.0
  0
LINE
  8
0
 62
     0
 10
12.1846
 20
1.0542
 30
0.0
 11
12.1888
 21
1.04731
 31
0.0
  0
LINE
  8
0
 62
     0
 10
12.1888
 20
1.04731
 30
0.0
 11
12.2893
 21
1.08314
 31
0.0
  0
LINE
  8
0
 62
     0
 10
12.2893
 20
1.08314
 30
0.0
 11
12.3968
 21
1.19751
 31
0.0
  0
LINE
  8
0
 62
     0
 10
12.3968
 20
1.19751
 30
0.0
 11
12.4161
 21
1.21405
 31
0.0
  0
LINE
  8
0
 62
     0
 10
12.4161
 20
1.21405
 30
0.0
 11
12.4161
 21
1.21405
 31
0.0
  0
LINE
  8
0
 62
     0
 10
12.4161
 20
1.21405
 30
0.0
 11
12.4933
 21
1.29811
 31
0.0
  0
LINE
  8
0
 62
     0
 10
12.4933
 20
1.29811
 30
0.0
 11
12.6242
 21
1.4056
 31
0.0
  0
LINE
  8
0
 62
     0
 10
12.6242
 20
1.4056
 30
0.0
 11
12.6421
 21
1.42351
 31
0.0
  0
LINE
  8
0
 62
     0
 10
12.6421
 20
1.42351
 30
0.0
 11
12.6435
 21
1.4428
 31
0.0
  0
LINE
  8
0
 62
     0
 10
12.6435
 20
1.4428
 30
0.0
 11
12.7923
 21
1.62195
 31
0.0
  0
LINE
  8
0
 62
     0
 10
12.7923
 20
1.62195
 30
0.0
 11
12.802
 21
1.63849
 31
0.0
  0
LINE
  8
0
 62
     0
 10
12.802
 20
1.63849
 30
0.0
 11
12.7593
 21
1.62333
 31
0.0
  0
LINE
  8
0
 62
     0
 10
12.7593
 20
1.62333
 30
0.0
 11
12.6146
 21
1.62746
 31
0.0
  0
LINE
  8
0
 62
     0
 10
12.6146
 20
1.62746
 30
0.0
 11
12.5057
 21
1.68534
 31
0.0
  0
LINE
  8
0
 62
     0
 10
12.5057
 20
1.68534
 30
0.0
 11
12.4713
 21
1.69361
 31
0.0
  0
LINE
  8
0
 62
     0
 10
12.4713
 20
1.69361
 30
0.0
 11
12.4354
 21
1.67983
 31
0.0
  0
LINE
  8
0
 62
     0
 10
12.4354
 20
1.67983
 30
0.0
 11
12.2769
 21
1.73909
 31
0.0
  0
LINE
  8
0
 62
     0
 10
12.2769
 20
1.73909
 30
0.0
 11
12.146
 21
1.87827
 31
0.0
  0
LINE
  8
0
 62
     0
 10
12.146
 20
1.87827
 30
0.0
 11
12.124
 21
1.90307
 31
0.0
  0
LINE
  8
0
 62
     0
 10
12.124
 20
1.90307
 30
0.0
 11
12.1185
 21
1.90307
 31
0.0
  0
LINE
  8
0
 62
     0
 10
12.1185
 20
1.90307
 30
0.0
 11
12.1185
 21
1.91409
 31
0.0
  0
LINE
  8
0
 62
     0
 10
12.1185
 20
1.91409
 30
0.0
 11
12.1185
 21
1.91134
 31
0.0
  0
LINE
  8
0
 62
     0
 10
12.1185
 20
1.91134
 30
0.0
 11
12.1102
 21
1.90307
 31
0.0
  0
LINE
  8
0
 62
     0
 10
12.1102
 20
1.90307
 30
0.0
 11
12.1074
 21
1.90307
 31
0.0
  0
LINE
  8
0
 62
     0
 10
12.1074
 20
1.90307
 30
0.0
 11
12.1047
 21
1.88791
 31
0.0
  0
LINE
  8
0
 62
     0
 10
12.1047
 20
1.88791
 30
0.0
 11
12.0496
 21
1.80661
 31
0.0
  0
LINE
  8
0
 62
     0
 10
12.0496
 20
1.80661
 30
0.0
 11
12.0413
 21
1.79283
 31
0.0
  0
LINE
  8
0
 62
     0
 10
12.0413
 20
1.79283
 30
0.0
 11
12.0082
 21
1.77905
 31
0.0
  0
LINE
  8
0
 62
     0
 10
12.0082
 20
1.77905
 30
0.0
 11
11.9545
 21
1.62471
 31
0.0
  0
LINE
  8
0
 62
     0
 10
11.9545
 20
1.62471
 30
0.0
 11
11.9476
 21
1.60541
 31
0.0
  0
LINE
  8
0
 62
     0
 10
11.9476
 20
1.60541
 30
0.0
 11
11.9255
 21
1.57648
 31
0.0
  0
LINE
  8
0
 62
     0
 10
11.9255
 20
1.57648
 30
0.0
 11
11.8801
 21
1.47312
 31
0.0
  0
LINE
  8
0
 62
     0
 10
11.8801
 20
1.47312
 30
0.0
 11
11.8787
 21
1.40009
 31
0.0
  0
LINE
  8
0
 62
     0
 10
11.8787
 20
1.40009
 30
0.0
 11
11.8759
 21
1.37942
 31
0.0
  0
LINE
  8
0
 62
     0
 10
11.8759
 20
1.37942
 30
0.0
 11
11.8635
 21
1.34221
 31
0.0
  0
LINE
  8
0
 62
     0
 10
11.8635
 20
1.34221
 30
0.0
 11
11.8456
 21
1.22094
 31
0.0
  0
LINE
  8
0
 62
     0
 10
11.8456
 20
1.22094
 30
0.0
 11
11.8663
 21
1.16169
 31
0.0
  0
LINE
  8
0
 62
     0
 10
11.8663
 20
1.16169
 30
0.0
 11
11.8704
 21
1.14239
 31
0.0
  0
LINE
  8
0
 62
     0
 10
11.8704
 20
1.14239
 30
0.0
 11
11.8649
 21
1.11759
 31
0.0
  0
LINE
  8
0
 62
     0
 10
11.8649
 20
1.11759
 30
0.0
 11
11.971
 21
1.01286
 31
0.0
  0
LINE
  8
0
 62
     0
 10
11.971
 20
1.01286
 30
0.0
 11
11.9862
 21
1.0101
 31
0.0
  0
LINE
  8
0
 62
     0
 10
12.8405
 20
1.72117
 30
0.0
 11
12.8405
 21
1.72117
 31
0.0
  0
LINE
  8
0
 62
     0
 10
12.8405
 20
1.72117
 30
0.0
 11
12.8902
 21
1.77629
 31
0.0
  0
LINE
  8
0
 62
     0
 10
12.8902
 20
1.77629
 30
0.0
 11
12.937
 21
1.91409
 31
0.0
  0
LINE
  8
0
 62
     0
 10
12.937
 20
1.91409
 30
0.0
 11
12.9453
 21
1.93614
 31
0.0
  0
LINE
  8
0
 62
     0
 10
12.9453
 20
1.93614
 30
0.0
 11
12.9425
 21
1.94579
 31
0.0
  0
LINE
  8
0
 62
     0
 10
12.9425
 20
1.94579
 30
0.0
 11
13.0321
 21
2.19384
 31
0.0
  0
LINE
  8
0
 62
     0
 10
13.0321
 20
2.19384
 30
0.0
 11
13.039
 21
2.21726
 31
0.0
  0
LINE
  8
0
 62
     0
 10
13.039
 20
2.21726
 30
0.0
 11
13.0349
 21
2.27101
 31
0.0
  0
LINE
  8
0
 62
     0
 10
13.0349
 20
2.27101
 30
0.0
 11
13.0487
 21
2.74781
 31
0.0
  0
LINE
  8
0
 62
     0
 10
13.0487
 20
2.74781
 30
0.0
 11
13.0335
 21
2.7795
 31
0.0
  0
LINE
  8
0
 62
     0
 10
13.0335
 20
2.7795
 30
0.0
 11
13.0004
 21
2.77813
 31
0.0
  0
LINE
  8
0
 62
     0
 10
13.0004
 20
2.77813
 30
0.0
 11
12.8957
 21
2.84978
 31
0.0
  0
LINE
  8
0
 62
     0
 10
12.8957
 20
2.84978
 30
0.0
 11
12.8047
 21
2.92282
 31
0.0
  0
LINE
  8
0
 62
     0
 10
12.8047
 20
2.92282
 30
0.0
 11
12.7744
 21
2.92282
 31
0.0
  0
LINE
  8
0
 62
     0
 10
12.7744
 20
2.92282
 30
0.0
 11
12.7413
 21
2.91731
 31
0.0
  0
LINE
  8
0
 62
     0
 10
12.7413
 20
2.91731
 30
0.0
 11
12.6463
 21
2.89801
 31
0.0
  0
LINE
  8
0
 62
     0
 10
12.6463
 20
2.89801
 30
0.0
 11
12.6091
 21
2.87596
 31
0.0
  0
LINE
  8
0
 62
     0
 10
12.6091
 20
2.87596
 30
0.0
 11
12.598
 21
2.8677
 31
0.0
  0
LINE
  8
0
 62
     0
 10
12.598
 20
2.8677
 30
0.0
 11
12.5718
 21
2.85667
 31
0.0
  0
LINE
  8
0
 62
     0
 10
12.5718
 20
2.85667
 30
0.0
 11
12.4547
 21
2.74505
 31
0.0
  0
LINE
  8
0
 62
     0
 10
12.4547
 20
2.74505
 30
0.0
 11
12.4437
 21
2.72989
 31
0.0
  0
LINE
  8
0
 62
     0
 10
12.4437
 20
2.72989
 30
0.0
 11
12.4134
 21
2.70371
 31
0.0
  0
LINE
  8
0
 62
     0
 10
12.4134
 20
2.70371
 30
0.0
 11
12.3348
 21
2.60725
 31
0.0
  0
LINE
  8
0
 62
     0
 10
12.3348
 20
2.60725
 30
0.0
 11
12.3293
 21
2.54937
 31
0.0
  0
LINE
  8
0
 62
     0
 10
12.3293
 20
2.54937
 30
0.0
 11
12.3224
 21
2.53146
 31
0.0
  0
LINE
  8
0
 62
     0
 10
12.3224
 20
2.53146
 30
0.0
 11
12.2962
 21
2.50803
 31
0.0
  0
LINE
  8
0
 62
     0
 10
12.2962
 20
2.50803
 30
0.0
 11
12.2687
 21
2.3151
 31
0.0
  0
LINE
  8
0
 62
     0
 10
12.2687
 20
2.3151
 30
0.0
 11
12.2673
 21
2.29443
 31
0.0
  0
LINE
  8
0
 62
     0
 10
12.2673
 20
2.29443
 30
0.0
 11
12.2494
 21
2.20073
 31
0.0
  0
LINE
  8
0
 62
     0
 10
12.2494
 20
2.20073
 30
0.0
 11
12.3762
 21
1.8824
 31
0.0
  0
LINE
  8
0
 62
     0
 10
12.3762
 20
1.8824
 30
0.0
 11
12.74
 21
1.73495
 31
0.0
  0
LINE
  8
0
 62
     0
 10
12.74
 20
1.73495
 30
0.0
 11
12.8405
 21
1.72117
 31
0.0
  0
LINE
  8
0
 62
     0
 10
22.2016
 20
2.42673
 30
0.0
 11
22.1974
 21
2.42259
 31
0.0
  0
LINE
  8
0
 62
     0
 10
22.1974
 20
2.42259
 30
0.0
 11
22.1905
 21
2.40468
 31
0.0
  0
LINE
  8
0
 62
     0
 10
22.1905
 20
2.40468
 30
0.0
 11
22.2457
 21
2.43637
 31
0.0
  0
LINE
  8
0
 62
     0
 10
22.2457
 20
2.43637
 30
0.0
 11
22.2512
 21
2.43224
 31
0.0
  0
LINE
  8
0
 62
     0
 10
22.2512
 20
2.43224
 30
0.0
 11
22.2415
 21
2.41984
 31
0.0
  0
LINE
  8
0
 62
     0
 10
22.2415
 20
2.41984
 30
0.0
 11
22.2278
 21
2.37023
 31
0.0
  0
LINE
  8
0
 62
     0
 10
22.2278
 20
2.37023
 30
0.0
 11
22.2622
 21
2.37161
 31
0.0
  0
LINE
  8
0
 62
     0
 10
22.2622
 20
2.37161
 30
0.0
 11
22.2622
 21
2.37161
 31
0.0
  0
LINE
  8
0
 62
     0
 10
22.2622
 20
2.37161
 30
0.0
 11
22.2071
 21
2.31235
 31
0.0
  0
LINE
  8
0
 62
     0
 10
22.2071
 20
2.31235
 30
0.0
 11
22.039
 21
2.12769
 31
0.0
  0
LINE
  8
0
 62
     0
 10
22.039
 20
2.12769
 30
0.0
 11
21.9039
 21
2.0078
 31
0.0
  0
LINE
  8
0
 62
     0
 10
21.9039
 20
2.0078
 30
0.0
 11
21.8653
 21
1.98024
 31
0.0
  0
LINE
  8
0
 62
     0
 10
21.8653
 20
1.98024
 30
0.0
 11
21.8033
 21
1.93752
 31
0.0
  0
LINE
  8
0
 62
     0
 10
21.8033
 20
1.93752
 30
0.0
 11
21.5883
 21
1.82452
 31
0.0
  0
LINE
  8
0
 62
     0
 10
21.5883
 20
1.82452
 30
0.0
 11
21.4051
 21
1.78043
 31
0.0
  0
LINE
  8
0
 62
     0
 10
21.4051
 20
1.78043
 30
0.0
 11
21.3582
 21
1.77078
 31
0.0
  0
LINE
  8
0
 62
     0
 10
21.3582
 20
1.77078
 30
0.0
 11
21.3003
 21
1.76251
 31
0.0
  0
LINE
  8
0
 62
     0
 10
21.3003
 20
1.76251
 30
0.0
 11
20.8015
 21
1.76251
 31
0.0
  0
LINE
  8
0
 62
     0
 10
20.8015
 20
1.76251
 30
0.0
 11
20.7464
 21
1.77078
 31
0.0
  0
LINE
  8
0
 62
     0
 10
20.7464
 20
1.77078
 30
0.0
 11
20.6733
 21
1.78043
 31
0.0
  0
LINE
  8
0
 62
     0
 10
20.6733
 20
1.78043
 30
0.0
 11
20.1263
 21
1.98713
 31
0.0
  0
LINE
  8
0
 62
     0
 10
20.1263
 20
1.98713
 30
0.0
 11
20.0684
 21
2.01883
 31
0.0
  0
LINE
  8
0
 62
     0
 10
20.0684
 20
2.01883
 30
0.0
 11
20.0532
 21
2.00504
 31
0.0
  0
LINE
  8
0
 62
     0
 10
20.0532
 20
2.00504
 30
0.0
 11
20.0119
 21
1.95406
 31
0.0
  0
LINE
  8
0
 62
     0
 10
20.0119
 20
1.95406
 30
0.0
 11
19.9857
 21
1.89756
 31
0.0
  0
LINE
  8
0
 62
     0
 10
19.9857
 20
1.89756
 30
0.0
 11
19.9747
 21
1.88102
 31
0.0
  0
LINE
  8
0
 62
     0
 10
19.9747
 20
1.88102
 30
0.0
 11
19.9457
 21
1.84933
 31
0.0
  0
LINE
  8
0
 62
     0
 10
19.9457
 20
1.84933
 30
0.0
 11
19.7804
 21
1.58337
 31
0.0
  0
LINE
  8
0
 62
     0
 10
19.7804
 20
1.58337
 30
0.0
 11
19.7597
 21
1.55029
 31
0.0
  0
LINE
  8
0
 62
     0
 10
19.7597
 20
1.55029
 30
0.0
 11
19.7128
 21
1.50895
 31
0.0
  0
LINE
  8
0
 62
     0
 10
19.7128
 20
1.50895
 30
0.0
 11
19.586
 21
1.34083
 31
0.0
  0
LINE
  8
0
 62
     0
 10
19.586
 20
1.34083
 30
0.0
 11
19.4992
 21
1.18925
 31
0.0
  0
LINE
  8
0
 62
     0
 10
19.4992
 20
1.18925
 30
0.0
 11
19.4731
 21
1.15342
 31
0.0
  0
LINE
  8
0
 62
     0
 10
19.4731
 20
1.15342
 30
0.0
 11
19.4455
 21
1.11208
 31
0.0
  0
LINE
  8
0
 62
     0
 10
19.4455
 20
1.11208
 30
0.0
 11
19.2085
 21
0.825444
 31
0.0
  0
LINE
  8
0
 62
     0
 10
19.2085
 20
0.825444
 30
0.0
 11
19.1864
 21
0.80064
 31
0.0
  0
LINE
  8
0
 62
     0
 10
19.1864
 20
0.80064
 30
0.0
 11
19.1258
 21
0.735873
 31
0.0
  0
LINE
  8
0
 62
     0
 10
19.1258
 20
0.735873
 30
0.0
 11
18.8805
 21
0.516763
 31
0.0
  0
LINE
  8
0
 62
     0
 10
18.8805
 20
0.516763
 30
0.0
 11
18.6821
 21
0.407899
 31
0.0
  0
LINE
  8
0
 62
     0
 10
18.6821
 20
0.407899
 30
0.0
 11
18.6462
 21
0.398254
 31
0.0
  0
LINE
  8
0
 62
     0
 10
18.6462
 20
0.398254
 30
0.0
 11
18.5939
 21
0.38723
 31
0.0
  0
LINE
  8
0
 62
     0
 10
18.5939
 20
0.38723
 30
0.0
 11
18.4285
 21
0.39412
 31
0.0
  0
LINE
  8
0
 62
     0
 10
18.4285
 20
0.39412
 30
0.0
 11
18.3486
 21
0.480935
 31
0.0
  0
LINE
  8
0
 62
     0
 10
18.3486
 20
0.480935
 30
0.0
 11
18.332
 21
0.508497
 31
0.0
  0
LINE
  8
0
 62
     0
 10
18.332
 20
0.508497
 30
0.0
 11
18.2921
 21
0.523656
 31
0.0
  0
LINE
  8
0
 62
     0
 10
18.2921
 20
0.523656
 30
0.0
 11
18.2246
 21
0.705556
 31
0.0
  0
LINE
  8
0
 62
     0
 10
18.2246
 20
0.705556
 30
0.0
 11
18.2411
 21
0.977029
 31
0.0
  0
LINE
  8
0
 62
     0
 10
18.2411
 20
0.977029
 30
0.0
 11
18.2438
 21
1.03766
 31
0.0
  0
LINE
  8
0
 62
     0
 10
18.2438
 20
1.03766
 30
0.0
 11
18.2301
 21
1.07074
 31
0.0
  0
LINE
  8
0
 62
     0
 10
18.2301
 20
1.07074
 30
0.0
 11
18.2673
 21
1.39182
 31
0.0
  0
LINE
  8
0
 62
     0
 10
18.2673
 20
1.39182
 30
0.0
 11
18.3789
 21
1.81901
 31
0.0
  0
LINE
  8
0
 62
     0
 10
18.3789
 20
1.81901
 30
0.0
 11
18.4037
 21
1.90307
 31
0.0
  0
LINE
  8
0
 62
     0
 10
18.4037
 20
1.90307
 30
0.0
 11
18.3665
 21
1.81626
 31
0.0
  0
LINE
  8
0
 62
     0
 10
18.3665
 20
1.81626
 30
0.0
 11
17.9903
 21
1.16169
 31
0.0
  0
LINE
  8
0
 62
     0
 10
17.9903
 20
1.16169
 30
0.0
 11
17.9517
 21
1.10381
 31
0.0
  0
LINE
  8
0
 62
     0
 10
17.9517
 20
1.10381
 30
0.0
 11
17.8925
 21
1.04455
 31
0.0
  0
LINE
  8
0
 62
     0
 10
17.8925
 20
1.04455
 30
0.0
 11
17.6775
 21
0.830957
 31
0.0
  0
LINE
  8
0
 62
     0
 10
17.6775
 20
0.830957
 30
0.0
 11
17.4859
 21
0.720714
 31
0.0
  0
LINE
  8
0
 62
     0
 10
17.4859
 20
0.720714
 30
0.0
 11
17.4391
 21
0.712445
 31
0.0
  0
LINE
  8
0
 62
     0
 10
17.4391
 20
0.712445
 30
0.0
 11
17.4019
 21
0.70969
 31
0.0
  0
LINE
  8
0
 62
     0
 10
17.4019
 20
0.70969
 30
0.0
 11
17.1993
 21
0.770322
 31
0.0
  0
LINE
  8
0
 62
     0
 10
17.1993
 20
0.770322
 30
0.0
 11
17.1855
 21
0.784105
 31
0.0
  0
LINE
  8
0
 62
     0
 10
17.1855
 20
0.784105
 30
0.0
 11
17.1538
 21
0.79375
 31
0.0
  0
LINE
  8
0
 62
     0
 10
17.1538
 20
0.79375
 30
0.0
 11
17.078
 21
1.01562
 31
0.0
  0
LINE
  8
0
 62
     0
 10
17.078
 20
1.01562
 30
0.0
 11
17.0753
 21
1.04317
 31
0.0
  0
LINE
  8
0
 62
     0
 10
17.0753
 20
1.04317
 30
0.0
 11
17.0684
 21
1.04317
 31
0.0
  0
LINE
  8
0
 62
     0
 10
17.0684
 20
1.04317
 30
0.0
 11
17.0505
 21
1.17685
 31
0.0
  0
LINE
  8
0
 62
     0
 10
17.0505
 20
1.17685
 30
0.0
 11
17.0698
 21
1.37942
 31
0.0
  0
LINE
  8
0
 62
     0
 10
17.0698
 20
1.37942
 30
0.0
 11
17.0753
 21
1.41249
 31
0.0
  0
LINE
  8
0
 62
     0
 10
17.0753
 20
1.41249
 30
0.0
 11
17.0711
 21
1.418
 31
0.0
  0
LINE
  8
0
 62
     0
 10
17.0711
 20
1.418
 30
0.0
 11
17.0946
 21
1.57372
 31
0.0
  0
LINE
  8
0
 62
     0
 10
17.0946
 20
1.57372
 30
0.0
 11
17.1428
 21
1.78732
 31
0.0
  0
LINE
  8
0
 62
     0
 10
17.1428
 20
1.78732
 30
0.0
 11
17.1524
 21
1.82039
 31
0.0
  0
LINE
  8
0
 62
     0
 10
17.1524
 20
1.82039
 30
0.0
 11
17.1469
 21
1.85208
 31
0.0
  0
LINE
  8
0
 62
     0
 10
17.1469
 20
1.85208
 30
0.0
 11
17.2572
 21
2.17317
 31
0.0
  0
LINE
  8
0
 62
     0
 10
17.2572
 20
2.17317
 30
0.0
 11
17.2682
 21
2.20073
 31
0.0
  0
LINE
  8
0
 62
     0
 10
17.2682
 20
2.20073
 30
0.0
 11
17.2544
 21
2.22415
 31
0.0
  0
LINE
  8
0
 62
     0
 10
17.2544
 20
2.22415
 30
0.0
 11
17.3647
 21
2.46531
 31
0.0
  0
LINE
  8
0
 62
     0
 10
17.3647
 20
2.46531
 30
0.0
 11
17.3729
 21
2.48185
 31
0.0
  0
LINE
  8
0
 62
     0
 10
17.3729
 20
2.48185
 30
0.0
 11
17.3798
 21
2.50114
 31
0.0
  0
LINE
  8
0
 62
     0
 10
17.3798
 20
2.50114
 30
0.0
 11
17.5204
 21
2.62516
 31
0.0
  0
LINE
  8
0
 62
     0
 10
17.5204
 20
2.62516
 30
0.0
 11
17.5383
 21
2.63067
 31
0.0
  0
LINE
  8
0
 62
     0
 10
17.5383
 20
2.63067
 30
0.0
 11
17.5383
 21
2.6293
 31
0.0
  0
LINE
  8
0
 62
     0
 10
17.5383
 20
2.6293
 30
0.0
 11
17.6706
 21
2.65961
 31
0.0
  0
LINE
  8
0
 62
     0
 10
17.6706
 20
2.65961
 30
0.0
 11
17.6761
 21
2.65824
 31
0.0
  0
LINE
  8
0
 62
     0
 10
17.6761
 20
2.65824
 30
0.0
 11
17.6734
 21
2.65686
 31
0.0
  0
LINE
  8
0
 62
     0
 10
17.6734
 20
2.65686
 30
0.0
 11
17.683
 21
2.63205
 31
0.0
  0
LINE
  8
0
 62
     0
 10
17.683
 20
2.63205
 30
0.0
 11
17.7505
 21
2.64445
 31
0.0
  0
LINE
  8
0
 62
     0
 10
17.7505
 20
2.64445
 30
0.0
 11
17.7533
 21
2.6417
 31
0.0
  0
LINE
  8
0
 62
     0
 10
17.7533
 20
2.6417
 30
0.0
 11
17.7519
 21
2.62654
 31
0.0
  0
LINE
  8
0
 62
     0
 10
17.7519
 20
2.62654
 30
0.0
 11
17.7615
 21
2.58382
 31
0.0
  0
LINE
  8
0
 62
     0
 10
17.7615
 20
2.58382
 30
0.0
 11
17.7588
 21
2.57555
 31
0.0
  0
LINE
  8
0
 62
     0
 10
17.7588
 20
2.57555
 30
0.0
 11
17.7519
 21
2.56039
 31
0.0
  0
LINE
  8
0
 62
     0
 10
17.7519
 20
2.56039
 30
0.0
 11
17.7147
 21
2.45842
 31
0.0
  0
LINE
  8
0
 62
     0
 10
17.7147
 20
2.45842
 30
0.0
 11
17.7092
 21
2.44326
 31
0.0
  0
LINE
  8
0
 62
     0
 10
17.7092
 20
2.44326
 30
0.0
 11
17.7023
 21
2.4033
 31
0.0
  0
LINE
  8
0
 62
     0
 10
17.7023
 20
2.4033
 30
0.0
 11
17.6485
 21
2.24207
 31
0.0
  0
LINE
  8
0
 62
     0
 10
17.6485
 20
2.24207
 30
0.0
 11
17.643
 21
2.21726
 31
0.0
  0
LINE
  8
0
 62
     0
 10
17.643
 20
2.21726
 30
0.0
 11
17.603
 21
2.16352
 31
0.0
  0
LINE
  8
0
 62
     0
 10
17.603
 20
2.16352
 30
0.0
 11
17.5231
 21
1.93477
 31
0.0
  0
LINE
  8
0
 62
     0
 10
17.5231
 20
1.93477
 30
0.0
 11
17.5038
 21
1.72668
 31
0.0
  0
LINE
  8
0
 62
     0
 10
17.5038
 20
1.72668
 30
0.0
 11
17.4942
 21
1.68258
 31
0.0
  0
LINE
  8
0
 62
     0
 10
17.4942
 20
1.68258
 30
0.0
 11
17.4721
 21
1.61919
 31
0.0
  0
LINE
  8
0
 62
     0
 10
17.4721
 20
1.61919
 30
0.0
 11
17.428
 21
1.40973
 31
0.0
  0
LINE
  8
0
 62
     0
 10
17.428
 20
1.40973
 30
0.0
 11
17.4198
 21
1.26366
 31
0.0
  0
LINE
  8
0
 62
     0
 10
17.4198
 20
1.26366
 30
0.0
 11
17.417
 21
1.23059
 31
0.0
  0
LINE
  8
0
 62
     0
 10
17.417
 20
1.23059
 30
0.0
 11
17.4074
 21
1.18511
 31
0.0
  0
LINE
  8
0
 62
     0
 10
17.4074
 20
1.18511
 30
0.0
 11
17.4143
 21
0.941201
 31
0.0
  0
LINE
  8
0
 62
     0
 10
17.4143
 20
0.941201
 30
0.0
 11
17.417
 21
0.921907
 31
0.0
  0
LINE
  8
0
 62
     0
 10
17.417
 20
0.921907
 30
0.0
 11
17.4157
 21
0.897103
 31
0.0
  0
LINE
  8
0
 62
     0
 10
17.4157
 20
0.897103
 30
0.0
 11
17.4391
 21
0.815799
 31
0.0
  0
LINE
  8
0
 62
     0
 10
17.4391
 20
0.815799
 30
0.0
 11
17.4887
 21
0.825444
 31
0.0
  0
LINE
  8
0
 62
     0
 10
17.4887
 20
0.825444
 30
0.0
 11
17.4997
 21
0.828202
 31
0.0
  0
LINE
  8
0
 62
     0
 10
17.4997
 20
0.828202
 30
0.0
 11
17.5066
 21
0.821313
 31
0.0
  0
LINE
  8
0
 62
     0
 10
17.5066
 20
0.821313
 30
0.0
 11
17.7312
 21
0.96876
 31
0.0
  0
LINE
  8
0
 62
     0
 10
17.7312
 20
0.96876
 30
0.0
 11
17.7533
 21
0.993567
 31
0.0
  0
LINE
  8
0
 62
     0
 10
17.7533
 20
0.993567
 30
0.0
 11
17.7698
 21
0.994943
 31
0.0
  0
LINE
  8
0
 62
     0
 10
17.7698
 20
0.994943
 30
0.0
 11
17.8773
 21
1.12448
 31
0.0
  0
LINE
  8
0
 62
     0
 10
17.8773
 20
1.12448
 30
0.0
 11
17.9958
 21
1.32154
 31
0.0
  0
LINE
  8
0
 62
     0
 10
17.9958
 20
1.32154
 30
0.0
 11
18.0178
 21
1.35737
 31
0.0
  0
LINE
  8
0
 62
     0
 10
18.0178
 20
1.35737
 30
0.0
 11
18.0137
 21
1.36977
 31
0.0
  0
LINE
  8
0
 62
     0
 10
18.0137
 20
1.36977
 30
0.0
 11
18.1102
 21
1.5434
 31
0.0
  0
LINE
  8
0
 62
     0
 10
18.1102
 20
1.5434
 30
0.0
 11
18.2563
 21
1.77491
 31
0.0
  0
LINE
  8
0
 62
     0
 10
18.2563
 20
1.77491
 30
0.0
 11
18.2769
 21
1.81488
 31
0.0
  0
LINE
  8
0
 62
     0
 10
18.2769
 20
1.81488
 30
0.0
 11
18.2783
 21
1.85346
 31
0.0
  0
LINE
  8
0
 62
     0
 10
18.2783
 20
1.85346
 30
0.0
 11
18.4947
 21
2.24207
 31
0.0
  0
LINE
  8
0
 62
     0
 10
18.4947
 20
2.24207
 30
0.0
 11
18.514
 21
2.2779
 31
0.0
  0
LINE
  8
0
 62
     0
 10
18.514
 20
2.2779
 30
0.0
 11
18.5222
 21
2.30132
 31
0.0
  0
LINE
  8
0
 62
     0
 10
18.5222
 20
2.30132
 30
0.0
 11
18.6931
 21
2.6169
 31
0.0
  0
LINE
  8
0
 62
     0
 10
18.6931
 20
2.6169
 30
0.0
 11
18.7069
 21
2.6417
 31
0.0
  0
LINE
  8
0
 62
     0
 10
18.7069
 20
2.6417
 30
0.0
 11
18.7
 21
2.64859
 31
0.0
  0
LINE
  8
0
 62
     0
 10
18.7
 20
2.64859
 30
0.0
 11
18.751
 21
2.73403
 31
0.0
  0
LINE
  8
0
 62
     0
 10
18.751
 20
2.73403
 30
0.0
 11
18.8502
 21
2.79604
 31
0.0
  0
LINE
  8
0
 62
     0
 10
18.8502
 20
2.79604
 30
0.0
 11
18.8612
 21
2.79604
 31
0.0
  0
LINE
  8
0
 62
     0
 10
18.8612
 20
2.79604
 30
0.0
 11
18.8681
 21
2.78088
 31
0.0
  0
LINE
  8
0
 62
     0
 10
18.8681
 20
2.78088
 30
0.0
 11
18.9466
 21
2.75883
 31
0.0
  0
LINE
  8
0
 62
     0
 10
18.9466
 20
2.75883
 30
0.0
 11
19.01
 21
2.78915
 31
0.0
  0
LINE
  8
0
 62
     0
 10
19.01
 20
2.78915
 30
0.0
 11
19.0155
 21
2.78501
 31
0.0
  0
LINE
  8
0
 62
     0
 10
19.0155
 20
2.78501
 30
0.0
 11
19.0059
 21
2.76848
 31
0.0
  0
LINE
  8
0
 62
     0
 10
19.0059
 20
2.76848
 30
0.0
 11
19.0018
 21
2.70647
 31
0.0
  0
LINE
  8
0
 62
     0
 10
19.0018
 20
2.70647
 30
0.0
 11
19.028
 21
2.67753
 31
0.0
  0
LINE
  8
0
 62
     0
 10
19.028
 20
2.67753
 30
0.0
 11
19.0266
 21
2.66926
 31
0.0
  0
LINE
  8
0
 62
     0
 10
19.0266
 20
2.66926
 30
0.0
 11
19.0032
 21
2.6417
 31
0.0
  0
LINE
  8
0
 62
     0
 10
19.0032
 20
2.6417
 30
0.0
 11
18.9604
 21
2.53559
 31
0.0
  0
LINE
  8
0
 62
     0
 10
18.9604
 20
2.53559
 30
0.0
 11
18.9536
 21
2.43499
 31
0.0
  0
LINE
  8
0
 62
     0
 10
18.9536
 20
2.43499
 30
0.0
 11
18.9439
 21
2.40468
 31
0.0
  0
LINE
  8
0
 62
     0
 10
18.9439
 20
2.40468
 30
0.0
 11
18.9191
 21
2.35231
 31
0.0
  0
LINE
  8
0
 62
     0
 10
18.9191
 20
2.35231
 30
0.0
 11
18.864
 21
2.1649
 31
0.0
  0
LINE
  8
0
 62
     0
 10
18.864
 20
2.1649
 30
0.0
 11
18.8419
 21
1.98989
 31
0.0
  0
LINE
  8
0
 62
     0
 10
18.8419
 20
1.98989
 30
0.0
 11
18.8336
 21
1.94166
 31
0.0
  0
LINE
  8
0
 62
     0
 10
18.8336
 20
1.94166
 30
0.0
 11
18.8226
 21
1.91685
 31
0.0
  0
LINE
  8
0
 62
     0
 10
18.8226
 20
1.91685
 30
0.0
 11
18.7882
 21
1.76113
 31
0.0
  0
LINE
  8
0
 62
     0
 10
18.7882
 20
1.76113
 30
0.0
 11
18.784
 21
1.73771
 31
0.0
  0
LINE
  8
0
 62
     0
 10
18.784
 20
1.73771
 30
0.0
 11
18.7772
 21
1.6881
 31
0.0
  0
LINE
  8
0
 62
     0
 10
18.7772
 20
1.6881
 30
0.0
 11
18.7234
 21
1.45796
 31
0.0
  0
LINE
  8
0
 62
     0
 10
18.7234
 20
1.45796
 30
0.0
 11
18.7179
 21
1.42903
 31
0.0
  0
LINE
  8
0
 62
     0
 10
18.7179
 20
1.42903
 30
0.0
 11
18.6848
 21
1.40009
 31
0.0
  0
LINE
  8
0
 62
     0
 10
18.6848
 20
1.40009
 30
0.0
 11
18.6517
 21
1.11208
 31
0.0
  0
LINE
  8
0
 62
     0
 10
18.6517
 20
1.11208
 30
0.0
 11
18.6462
 21
1.08176
 31
0.0
  0
LINE
  8
0
 62
     0
 10
18.6462
 20
1.08176
 30
0.0
 11
18.6201
 21
1.05144
 31
0.0
  0
LINE
  8
0
 62
     0
 10
18.6201
 20
1.05144
 30
0.0
 11
18.6035
 21
0.790995
 31
0.0
  0
LINE
  8
0
 62
     0
 10
18.6035
 20
0.790995
 30
0.0
 11
18.6021
 21
0.767567
 31
0.0
  0
LINE
  8
0
 62
     0
 10
18.6021
 20
0.767567
 30
0.0
 11
18.5829
 21
0.740008
 31
0.0
  0
LINE
  8
0
 62
     0
 10
18.5829
 20
0.740008
 30
0.0
 11
18.6049
 21
0.566374
 31
0.0
  0
LINE
  8
0
 62
     0
 10
18.6049
 20
0.566374
 30
0.0
 11
18.6077
 21
0.552595
 31
0.0
  0
LINE
  8
0
 62
     0
 10
18.6077
 20
0.552595
 30
0.0
 11
18.6008
 21
0.538812
 31
0.0
  0
LINE
  8
0
 62
     0
 10
18.6008
 20
0.538812
 30
0.0
 11
18.6145
 21
0.47818
 31
0.0
  0
LINE
  8
0
 62
     0
 10
18.6145
 20
0.47818
 30
0.0
 11
18.6848
 21
0.498849
 31
0.0
  0
LINE
  8
0
 62
     0
 10
18.6848
 20
0.498849
 30
0.0
 11
18.6958
 21
0.502984
 31
0.0
  0
LINE
  8
0
 62
     0
 10
18.6958
 20
0.502984
 30
0.0
 11
18.7013
 21
0.505739
 31
0.0
  0
LINE
  8
0
 62
     0
 10
18.7013
 20
0.505739
 30
0.0
 11
18.8516
 21
0.613227
 31
0.0
  0
LINE
  8
0
 62
     0
 10
18.8516
 20
0.613227
 30
0.0
 11
19.0652
 21
0.797885
 31
0.0
  0
LINE
  8
0
 62
     0
 10
19.0652
 20
0.797885
 30
0.0
 11
19.1037
 21
0.839227
 31
0.0
  0
LINE
  8
0
 62
     0
 10
19.1037
 20
0.839227
 30
0.0
 11
19.1134
 21
0.869541
 31
0.0
  0
LINE
  8
0
 62
     0
 10
19.1134
 20
0.869541
 30
0.0
 11
19.2815
 21
1.07625
 31
0.0
  0
LINE
  8
0
 62
     0
 10
19.2815
 20
1.07625
 30
0.0
 11
19.4951
 21
1.31603
 31
0.0
  0
LINE
  8
0
 62
     0
 10
19.4951
 20
1.31603
 30
0.0
 11
19.5282
 21
1.36288
 31
0.0
  0
LINE
  8
0
 62
     0
 10
19.5282
 20
1.36288
 30
0.0
 11
19.5599
 21
1.39044
 31
0.0
  0
LINE
  8
0
 62
     0
 10
19.5599
 20
1.39044
 30
0.0
 11
19.7459
 21
1.6564
 31
0.0
  0
LINE
  8
0
 62
     0
 10
19.7459
 20
1.6564
 30
0.0
 11
19.9471
 21
1.99402
 31
0.0
  0
LINE
  8
0
 62
     0
 10
19.9471
 20
1.99402
 30
0.0
 11
19.9857
 21
2.05741
 31
0.0
  0
LINE
  8
0
 62
     0
 10
19.9857
 20
2.05741
 30
0.0
 11
19.9595
 21
2.0519
 31
0.0
  0
LINE
  8
0
 62
     0
 10
19.9595
 20
2.0519
 30
0.0
 11
19.8603
 21
2.12907
 31
0.0
  0
LINE
  8
0
 62
     0
 10
19.8603
 20
2.12907
 30
0.0
 11
19.8313
 21
2.27514
 31
0.0
  0
LINE
  8
0
 62
     0
 10
19.8313
 20
2.27514
 30
0.0
 11
19.8258
 21
2.29995
 31
0.0
  0
LINE
  8
0
 62
     0
 10
19.8258
 20
2.29995
 30
0.0
 11
19.8189
 21
2.31097
 31
0.0
  0
LINE
  8
0
 62
     0
 10
19.8189
 20
2.31097
 30
0.0
 11
19.8203
 21
2.57831
 31
0.0
  0
LINE
  8
0
 62
     0
 10
19.8203
 20
2.57831
 30
0.0
 11
19.8258
 21
2.60312
 31
0.0
  0
LINE
  8
0
 62
     0
 10
19.8258
 20
2.60312
 30
0.0
 11
19.83
 21
2.61827
 31
0.0
  0
LINE
  8
0
 62
     0
 10
19.83
 20
2.61827
 30
0.0
 11
19.9319
 21
2.84427
 31
0.0
  0
LINE
  8
0
 62
     0
 10
19.9319
 20
2.84427
 30
0.0
 11
19.9471
 21
2.86219
 31
0.0
  0
LINE
  8
0
 62
     0
 10
19.9471
 20
2.86219
 30
0.0
 11
19.9512
 21
2.87872
 31
0.0
  0
LINE
  8
0
 62
     0
 10
19.9512
 20
2.87872
 30
0.0
 11
20.1414
 21
2.98621
 31
0.0
  0
LINE
  8
0
 62
     0
 10
20.1414
 20
2.98621
 30
0.0
 11
20.1621
 21
2.98897
 31
0.0
  0
LINE
  8
0
 62
     0
 10
20.1621
 20
2.98897
 30
0.0
 11
20.1621
 21
2.98897
 31
0.0
  0
LINE
  8
0
 62
     0
 10
20.1621
 20
2.98897
 30
0.0
 11
20.1772
 21
2.97105
 31
0.0
  0
LINE
  8
0
 62
     0
 10
20.1772
 20
2.97105
 30
0.0
 11
20.2682
 21
2.98208
 31
0.0
  0
LINE
  8
0
 62
     0
 10
20.2682
 20
2.98208
 30
0.0
 11
20.2778
 21
2.97794
 31
0.0
  0
LINE
  8
0
 62
     0
 10
20.2778
 20
2.97794
 30
0.0
 11
20.2778
 21
2.96278
 31
0.0
  0
LINE
  8
0
 62
     0
 10
20.2778
 20
2.96278
 30
0.0
 11
20.3522
 21
2.88837
 31
0.0
  0
LINE
  8
0
 62
     0
 10
20.3522
 20
2.88837
 30
0.0
 11
20.355
 21
2.87321
 31
0.0
  0
LINE
  8
0
 62
     0
 10
20.355
 20
2.87321
 30
0.0
 11
20.3426
 21
2.85667
 31
0.0
  0
LINE
  8
0
 62
     0
 10
20.3426
 20
2.85667
 30
0.0
 11
20.3261
 21
2.63067
 31
0.0
  0
LINE
  8
0
 62
     0
 10
20.3261
 20
2.63067
 30
0.0
 11
20.3164
 21
2.5976
 31
0.0
  0
LINE
  8
0
 62
     0
 10
20.3164
 20
2.5976
 30
0.0
 11
20.2944
 21
2.55626
 31
0.0
  0
LINE
  8
0
 62
     0
 10
20.2944
 20
2.55626
 30
0.0
 11
20.118
 21
2.13045
 31
0.0
  0
LINE
  8
0
 62
     0
 10
20.118
 20
2.13045
 30
0.0
 11
20.0904
 21
2.07395
 31
0.0
  0
LINE
  8
0
 62
     0
 10
20.0904
 20
2.07395
 30
0.0
 11
20.1152
 21
2.02434
 31
0.0
  0
LINE
  8
0
 62
     0
 10
20.1152
 20
2.02434
 30
0.0
 11
20.3412
 21
1.90583
 31
0.0
  0
LINE
  8
0
 62
     0
 10
20.3412
 20
1.90583
 30
0.0
 11
20.6155
 21
1.86586
 31
0.0
  0
LINE
  8
0
 62
     0
 10
20.6155
 20
1.86586
 30
0.0
 11
20.6637
 21
1.85346
 31
0.0
  0
LINE
  8
0
 62
     0
 10
20.6637
 20
1.85346
 30
0.0
 11
20.6995
 21
1.83555
 31
0.0
  0
LINE
  8
0
 62
     0
 10
20.6995
 20
1.83555
 30
0.0
 11
21.1846
 21
1.81488
 31
0.0
  0
LINE
  8
0
 62
     0
 10
21.1846
 20
1.81488
 30
0.0
 11
21.2314
 21
1.82039
 31
0.0
  0
LINE
  8
0
 62
     0
 10
21.2314
 20
1.82039
 30
0.0
 11
21.2769
 21
1.82177
 31
0.0
  0
LINE
  8
0
 62
     0
 10
21.2769
 20
1.82177
 30
0.0
 11
21.7138
 21
1.97749
 31
0.0
  0
LINE
  8
0
 62
     0
 10
21.7138
 20
1.97749
 30
0.0
 11
21.7551
 21
2.00229
 31
0.0
  0
LINE
  8
0
 62
     0
 10
21.7551
 20
2.00229
 30
0.0
 11
21.7813
 21
2.0078
 31
0.0
  0
LINE
  8
0
 62
     0
 10
21.7813
 20
2.0078
 30
0.0
 11
21.9673
 21
2.15387
 31
0.0
  0
LINE
  8
0
 62
     0
 10
21.9673
 20
2.15387
 30
0.0
 11
22.1685
 21
2.38125
 31
0.0
  0
LINE
  8
0
 62
     0
 10
22.1685
 20
2.38125
 30
0.0
 11
22.2016
 21
2.42673
 31
0.0
  0
LINE
  8
0
 62
     0
 10
20.0243
 20
2.11253
 30
0.0
 11
20.0243
 21
2.11253
 31
0.0
  0
LINE
  8
0
 62
     0
 10
20.0243
 20
2.11253
 30
0.0
 11
20.0243
 21
2.13458
 31
0.0
  0
LINE
  8
0
 62
     0
 10
20.0243
 20
2.13458
 30
0.0
 11
20.0904
 21
2.27101
 31
0.0
  0
LINE
  8
0
 62
     0
 10
20.0904
 20
2.27101
 30
0.0
 11
20.1015
 21
2.29443
 31
0.0
  0
LINE
  8
0
 62
     0
 10
20.1015
 20
2.29443
 30
0.0
 11
20.0904
 21
2.3027
 31
0.0
  0
LINE
  8
0
 62
     0
 10
20.0904
 20
2.3027
 30
0.0
 11
20.1235
 21
2.41708
 31
0.0
  0
LINE
  8
0
 62
     0
 10
20.1235
 20
2.41708
 30
0.0
 11
20.2034
 21
2.55764
 31
0.0
  0
LINE
  8
0
 62
     0
 10
20.2034
 20
2.55764
 30
0.0
 11
20.2117
 21
2.58107
 31
0.0
  0
LINE
  8
0
 62
     0
 10
20.2117
 20
2.58107
 30
0.0
 11
20.2172
 21
2.5976
 31
0.0
  0
LINE
  8
0
 62
     0
 10
20.2172
 20
2.5976
 30
0.0
 11
20.2709
 21
2.82636
 31
0.0
  0
LINE
  8
0
 62
     0
 10
20.2709
 20
2.82636
 30
0.0
 11
20.2723
 21
2.84565
 31
0.0
  0
LINE
  8
0
 62
     0
 10
20.2723
 20
2.84565
 30
0.0
 11
20.264
 21
2.86356
 31
0.0
  0
LINE
  8
0
 62
     0
 10
20.264
 20
2.86356
 30
0.0
 11
20.1993
 21
2.95313
 31
0.0
  0
LINE
  8
0
 62
     0
 10
20.1993
 20
2.95313
 30
0.0
 11
20.1841
 21
2.95038
 31
0.0
  0
LINE
  8
0
 62
     0
 10
20.1841
 20
2.95038
 30
0.0
 11
20.169
 21
2.93798
 31
0.0
  0
LINE
  8
0
 62
     0
 10
20.169
 20
2.93798
 30
0.0
 11
20.0463
 21
2.84703
 31
0.0
  0
LINE
  8
0
 62
     0
 10
20.0463
 20
2.84703
 30
0.0
 11
20.0353
 21
2.82911
 31
0.0
  0
LINE
  8
0
 62
     0
 10
20.0353
 20
2.82911
 30
0.0
 11
20.005
 21
2.81258
 31
0.0
  0
LINE
  8
0
 62
     0
 10
20.005
 20
2.81258
 30
0.0
 11
19.9306
 21
2.62516
 31
0.0
  0
LINE
  8
0
 62
     0
 10
19.9306
 20
2.62516
 30
0.0
 11
19.9251
 21
2.60312
 31
0.0
  0
LINE
  8
0
 62
     0
 10
19.9251
 20
2.60312
 30
0.0
 11
19.9085
 21
2.57142
 31
0.0
  0
LINE
  8
0
 62
     0
 10
19.9085
 20
2.57142
 30
0.0
 11
19.9003
 21
2.36196
 31
0.0
  0
LINE
  8
0
 62
     0
 10
19.9003
 20
2.36196
 30
0.0
 11
19.903
 21
2.33853
 31
0.0
  0
LINE
  8
0
 62
     0
 10
19.903
 20
2.33853
 30
0.0
 11
19.8989
 21
2.3027
 31
0.0
  0
LINE
  8
0
 62
     0
 10
19.8989
 20
2.3027
 30
0.0
 11
19.9292
 21
2.18695
 31
0.0
  0
LINE
  8
0
 62
     0
 10
19.9292
 20
2.18695
 30
0.0
 11
20.0063
 21
2.12769
 31
0.0
  0
LINE
  8
0
 62
     0
 10
20.0063
 20
2.12769
 30
0.0
 11
20.0243
 21
2.11253
 31
0.0
  0
LINE
  8
0
 62
     0
 10
25.0142
 20
2.58107
 30
0.0
 11
25.0031
 21
2.57693
 31
0.0
  0
LINE
  8
0
 62
     0
 10
25.0031
 20
2.57693
 30
0.0
 11
24.9756
 21
2.5535
 31
0.0
  0
LINE
  8
0
 62
     0
 10
24.9756
 20
2.5535
 30
0.0
 11
25.0197
 21
2.54524
 31
0.0
  0
LINE
  8
0
 62
     0
 10
25.0197
 20
2.54524
 30
0.0
 11
25.0197
 21
2.54248
 31
0.0
  0
LINE
  8
0
 62
     0
 10
25.0197
 20
2.54248
 30
0.0
 11
25.0073
 21
2.53972
 31
0.0
  0
LINE
  8
0
 62
     0
 10
25.0073
 20
2.53972
 30
0.0
 11
24.9742
 21
2.51906
 31
0.0
  0
LINE
  8
0
 62
     0
 10
24.9742
 20
2.51906
 30
0.0
 11
25.0142
 21
2.51492
 31
0.0
  0
LINE
  8
0
 62
     0
 10
25.0142
 20
2.51492
 30
0.0
 11
25.0142
 21
2.51492
 31
0.0
  0
LINE
  8
0
 62
     0
 10
25.0142
 20
2.51492
 30
0.0
 11
24.9549
 21
2.48047
 31
0.0
  0
LINE
  8
0
 62
     0
 10
24.9549
 20
2.48047
 30
0.0
 11
24.7744
 21
2.32613
 31
0.0
  0
LINE
  8
0
 62
     0
 10
24.7744
 20
2.32613
 30
0.0
 11
24.6338
 21
2.1897
 31
0.0
  0
LINE
  8
0
 62
     0
 10
24.6338
 20
2.1897
 30
0.0
 11
24.5952
 21
2.16214
 31
0.0
  0
LINE
  8
0
 62
     0
 10
24.5952
 20
2.16214
 30
0.0
 11
24.5318
 21
2.1332
 31
0.0
  0
LINE
  8
0
 62
     0
 10
24.5318
 20
2.1332
 30
0.0
 11
24.1322
 21
1.92098
 31
0.0
  0
LINE
  8
0
 62
     0
 10
24.1322
 20
1.92098
 30
0.0
 11
24.0881
 21
1.90307
 31
0.0
  0
LINE
  8
0
 62
     0
 10
24.0881
 20
1.90307
 30
0.0
 11
24.033
 21
1.87551
 31
0.0
  0
LINE
  8
0
 62
     0
 10
24.033
 20
1.87551
 30
0.0
 11
23.5934
 21
1.76664
 31
0.0
  0
LINE
  8
0
 62
     0
 10
23.5934
 20
1.76664
 30
0.0
 11
23.5479
 21
1.75975
 31
0.0
  0
LINE
  8
0
 62
     0
 10
23.5479
 20
1.75975
 30
0.0
 11
23.479
 21
1.72668
 31
0.0
  0
LINE
  8
0
 62
     0
 10
23.479
 20
1.72668
 30
0.0
 11
23.2392
 21
1.70326
 31
0.0
  0
LINE
  8
0
 62
     0
 10
23.2392
 20
1.70326
 30
0.0
 11
23.056
 21
1.76389
 31
0.0
  0
LINE
  8
0
 62
     0
 10
23.056
 20
1.76389
 30
0.0
 11
23.0132
 21
1.77078
 31
0.0
  0
LINE
  8
0
 62
     0
 10
23.0132
 20
1.77078
 30
0.0
 11
22.954
 21
1.70188
 31
0.0
  0
LINE
  8
0
 62
     0
 10
22.954
 20
1.70188
 30
0.0
 11
22.5227
 21
1.24161
 31
0.0
  0
LINE
  8
0
 62
     0
 10
22.5227
 20
1.24161
 30
0.0
 11
22.4841
 21
1.21956
 31
0.0
  0
LINE
  8
0
 62
     0
 10
22.4841
 20
1.21956
 30
0.0
 11
22.4234
 21
1.18649
 31
0.0
  0
LINE
  8
0
 62
     0
 10
22.4234
 20
1.18649
 30
0.0
 11
22.236
 21
1.09554
 31
0.0
  0
LINE
  8
0
 62
     0
 10
22.236
 20
1.09554
 30
0.0
 11
22.123
 21
1.06936
 31
0.0
  0
LINE
  8
0
 62
     0
 10
22.123
 20
1.06936
 30
0.0
 11
22.0982
 21
1.06522
 31
0.0
  0
LINE
  8
0
 62
     0
 10
22.0982
 20
1.06522
 30
0.0
 11
22.0597
 21
1.06522
 31
0.0
  0
LINE
  8
0
 62
     0
 10
22.0597
 20
1.06522
 30
0.0
 11
22.0252
 21
1.06522
 31
0.0
  0
LINE
  8
0
 62
     0
 10
22.0252
 20
1.06522
 30
0.0
 11
21.9315
 21
1.079
 31
0.0
  0
LINE
  8
0
 62
     0
 10
21.9315
 20
1.079
 30
0.0
 11
21.9218
 21
1.08176
 31
0.0
  0
LINE
  8
0
 62
     0
 10
21.9218
 20
1.08176
 30
0.0
 11
21.9053
 21
1.08452
 31
0.0
  0
LINE
  8
0
 62
     0
 10
21.9053
 20
1.08452
 30
0.0
 11
21.8281
 21
1.14515
 31
0.0
  0
LINE
  8
0
 62
     0
 10
21.8281
 20
1.14515
 30
0.0
 11
21.8226
 21
1.15342
 31
0.0
  0
LINE
  8
0
 62
     0
 10
21.8226
 20
1.15342
 30
0.0
 11
21.7964
 21
1.15617
 31
0.0
  0
LINE
  8
0
 62
     0
 10
21.7964
 20
1.15617
 30
0.0
 11
21.7261
 21
1.22094
 31
0.0
  0
LINE
  8
0
 62
     0
 10
21.7261
 20
1.22094
 30
0.0
 11
21.7372
 21
1.31603
 31
0.0
  0
LINE
  8
0
 62
     0
 10
21.7372
 20
1.31603
 30
0.0
 11
21.7344
 21
1.33532
 31
0.0
  0
LINE
  8
0
 62
     0
 10
21.7344
 20
1.33532
 30
0.0
 11
21.7248
 21
1.33532
 31
0.0
  0
LINE
  8
0
 62
     0
 10
21.7248
 20
1.33532
 30
0.0
 11
21.6876
 21
1.42765
 31
0.0
  0
LINE
  8
0
 62
     0
 10
21.6876
 20
1.42765
 30
0.0
 11
21.7206
 21
1.57234
 31
0.0
  0
LINE
  8
0
 62
     0
 10
21.7206
 20
1.57234
 30
0.0
 11
21.7234
 21
1.59439
 31
0.0
  0
LINE
  8
0
 62
     0
 10
21.7234
 20
1.59439
 30
0.0
 11
21.7096
 21
1.60128
 31
0.0
  0
LINE
  8
0
 62
     0
 10
21.7096
 20
1.60128
 30
0.0
 11
21.7151
 21
1.71152
 31
0.0
  0
LINE
  8
0
 62
     0
 10
21.7151
 20
1.71152
 30
0.0
 11
21.7758
 21
1.85208
 31
0.0
  0
LINE
  8
0
 62
     0
 10
21.7758
 20
1.85208
 30
0.0
 11
21.784
 21
1.87551
 31
0.0
  0
LINE
  8
0
 62
     0
 10
21.784
 20
1.87551
 30
0.0
 11
21.7702
 21
1.88791
 31
0.0
  0
LINE
  8
0
 62
     0
 10
21.7702
 20
1.88791
 30
0.0
 11
21.8019
 21
1.99678
 31
0.0
  0
LINE
  8
0
 62
     0
 10
21.8019
 20
1.99678
 30
0.0
 11
21.8888
 21
2.10702
 31
0.0
  0
LINE
  8
0
 62
     0
 10
21.8888
 20
2.10702
 30
0.0
 11
21.8998
 21
2.12356
 31
0.0
  0
LINE
  8
0
 62
     0
 10
21.8998
 20
2.12356
 30
0.0
 11
21.9025
 21
2.13734
 31
0.0
  0
LINE
  8
0
 62
     0
 10
21.9025
 20
2.13734
 30
0.0
 11
21.9852
 21
2.21037
 31
0.0
  0
LINE
  8
0
 62
     0
 10
21.9852
 20
2.21037
 30
0.0
 11
21.9935
 21
2.21175
 31
0.0
  0
LINE
  8
0
 62
     0
 10
21.9935
 20
2.21175
 30
0.0
 11
21.9935
 21
2.21175
 31
0.0
  0
LINE
  8
0
 62
     0
 10
21.9935
 20
2.21175
 30
0.0
 11
22.0597
 21
2.22829
 31
0.0
  0
LINE
  8
0
 62
     0
 10
22.0597
 20
2.22829
 30
0.0
 11
22.0817
 21
2.22829
 31
0.0
  0
LINE
  8
0
 62
     0
 10
22.0817
 20
2.22829
 30
0.0
 11
22.0817
 21
2.22829
 31
0.0
  0
LINE
  8
0
 62
     0
 10
22.0817
 20
2.22829
 30
0.0
 11
22.1258
 21
2.24896
 31
0.0
  0
LINE
  8
0
 62
     0
 10
22.1258
 20
2.24896
 30
0.0
 11
22.1258
 21
2.25585
 31
0.0
  0
LINE
  8
0
 62
     0
 10
22.1258
 20
2.25585
 30
0.0
 11
22.1038
 21
2.27514
 31
0.0
  0
LINE
  8
0
 62
     0
 10
22.1038
 20
2.27514
 30
0.0
 11
22.1258
 21
2.43224
 31
0.0
  0
LINE
  8
0
 62
     0
 10
22.1258
 20
2.43224
 30
0.0
 11
22.2236
 21
2.62654
 31
0.0
  0
LINE
  8
0
 62
     0
 10
22.2236
 20
2.62654
 30
0.0
 11
22.2415
 21
2.66375
 31
0.0
  0
LINE
  8
0
 62
     0
 10
22.2415
 20
2.66375
 30
0.0
 11
22.2553
 21
2.68718
 31
0.0
  0
LINE
  8
0
 62
     0
 10
22.2553
 20
2.68718
 30
0.0
 11
22.4978
 21
3.02479
 31
0.0
  0
LINE
  8
0
 62
     0
 10
22.4978
 20
3.02479
 30
0.0
 11
22.5282
 21
3.0496
 31
0.0
  0
LINE
  8
0
 62
     0
 10
22.5282
 20
3.0496
 30
0.0
 11
22.5364
 21
3.062
 31
0.0
  0
LINE
  8
0
 62
     0
 10
22.5364
 20
3.062
 30
0.0
 11
22.7032
 21
3.14606
 31
0.0
  0
LINE
  8
0
 62
     0
 10
22.7032
 20
3.14606
 30
0.0
 11
22.9264
 21
3.19016
 31
0.0
  0
LINE
  8
0
 62
     0
 10
22.9264
 20
3.19016
 30
0.0
 11
22.9636
 21
3.18189
 31
0.0
  0
LINE
  8
0
 62
     0
 10
22.9636
 20
3.18189
 30
0.0
 11
22.9912
 21
3.17776
 31
0.0
  0
LINE
  8
0
 62
     0
 10
22.9912
 20
3.17776
 30
0.0
 11
23.2199
 21
3.01653
 31
0.0
  0
LINE
  8
0
 62
     0
 10
23.2199
 20
3.01653
 30
0.0
 11
23.2337
 21
2.98897
 31
0.0
  0
LINE
  8
0
 62
     0
 10
23.2337
 20
2.98897
 30
0.0
 11
23.2172
 21
2.96554
 31
0.0
  0
LINE
  8
0
 62
     0
 10
23.2172
 20
2.96554
 30
0.0
 11
23.2268
 21
2.8553
 31
0.0
  0
LINE
  8
0
 62
     0
 10
23.2268
 20
2.8553
 30
0.0
 11
23.282
 21
2.76986
 31
0.0
  0
LINE
  8
0
 62
     0
 10
23.282
 20
2.76986
 30
0.0
 11
23.2833
 21
2.74643
 31
0.0
  0
LINE
  8
0
 62
     0
 10
23.2833
 20
2.74643
 30
0.0
 11
23.282
 21
2.70095
 31
0.0
  0
LINE
  8
0
 62
     0
 10
23.282
 20
2.70095
 30
0.0
 11
23.2654
 21
2.48047
 31
0.0
  0
LINE
  8
0
 62
     0
 10
23.2654
 20
2.48047
 30
0.0
 11
23.2613
 21
2.45429
 31
0.0
  0
LINE
  8
0
 62
     0
 10
23.2613
 20
2.45429
 30
0.0
 11
23.2558
 21
2.40192
 31
0.0
  0
LINE
  8
0
 62
     0
 10
23.2558
 20
2.40192
 30
0.0
 11
23.1827
 21
2.17317
 31
0.0
  0
LINE
  8
0
 62
     0
 10
23.1827
 20
2.17317
 30
0.0
 11
23.1731
 21
2.1456
 31
0.0
  0
LINE
  8
0
 62
     0
 10
23.1731
 20
2.1456
 30
0.0
 11
23.1414
 21
2.11805
 31
0.0
  0
LINE
  8
0
 62
     0
 10
23.1414
 20
2.11805
 30
0.0
 11
23.0628
 21
1.88102
 31
0.0
  0
LINE
  8
0
 62
     0
 10
23.0628
 20
1.88102
 30
0.0
 11
23.0518
 21
1.85897
 31
0.0
  0
LINE
  8
0
 62
     0
 10
23.0518
 20
1.85897
 30
0.0
 11
23.0808
 21
1.84519
 31
0.0
  0
LINE
  8
0
 62
     0
 10
23.0808
 20
1.84519
 30
0.0
 11
23.5204
 21
1.85346
 31
0.0
  0
LINE
  8
0
 62
     0
 10
23.5204
 20
1.85346
 30
0.0
 11
23.5645
 21
1.85897
 31
0.0
  0
LINE
  8
0
 62
     0
 10
23.5645
 20
1.85897
 30
0.0
 11
23.5824
 21
1.85897
 31
0.0
  0
LINE
  8
0
 62
     0
 10
23.5824
 20
1.85897
 30
0.0
 11
23.7877
 21
1.90169
 31
0.0
  0
LINE
  8
0
 62
     0
 10
23.7877
 20
1.90169
 30
0.0
 11
24.0399
 21
1.98024
 31
0.0
  0
LINE
  8
0
 62
     0
 10
24.0399
 20
1.98024
 30
0.0
 11
24.0826
 21
1.99678
 31
0.0
  0
LINE
  8
0
 62
     0
 10
24.0826
 20
1.99678
 30
0.0
 11
24.1143
 21
1.9954
 31
0.0
  0
LINE
  8
0
 62
     0
 10
24.1143
 20
1.9954
 30
0.0
 11
24.3127
 21
2.08084
 31
0.0
  0
LINE
  8
0
 62
     0
 10
24.3127
 20
2.08084
 30
0.0
 11
24.5194
 21
2.22002
 31
0.0
  0
LINE
  8
0
 62
     0
 10
24.5194
 20
2.22002
 30
0.0
 11
24.5566
 21
2.24482
 31
0.0
  0
LINE
  8
0
 62
     0
 10
24.5566
 20
2.24482
 30
0.0
 11
24.5746
 21
2.25998
 31
0.0
  0
LINE
  8
0
 62
     0
 10
24.5746
 20
2.25998
 30
0.0
 11
24.9246
 21
2.5411
 31
0.0
  0
LINE
  8
0
 62
     0
 10
24.9246
 20
2.5411
 30
0.0
 11
24.9535
 21
2.57004
 31
0.0
  0
LINE
  8
0
 62
     0
 10
24.9535
 20
2.57004
 30
0.0
 11
24.9494
 21
2.57004
 31
0.0
  0
LINE
  8
0
 62
     0
 10
24.9494
 20
2.57004
 30
0.0
 11
24.937
 21
2.57555
 31
0.0
  0
LINE
  8
0
 62
     0
 10
24.937
 20
2.57555
 30
0.0
 11
24.9742
 21
2.59209
 31
0.0
  0
LINE
  8
0
 62
     0
 10
24.9742
 20
2.59209
 30
0.0
 11
24.9866
 21
2.59209
 31
0.0
  0
LINE
  8
0
 62
     0
 10
24.9866
 20
2.59209
 30
0.0
 11
24.9769
 21
2.58933
 31
0.0
  0
LINE
  8
0
 62
     0
 10
24.9769
 20
2.58933
 30
0.0
 11
24.9521
 21
2.57693
 31
0.0
  0
LINE
  8
0
 62
     0
 10
24.9521
 20
2.57693
 30
0.0
 11
24.9962
 21
2.58796
 31
0.0
  0
LINE
  8
0
 62
     0
 10
24.9962
 20
2.58796
 30
0.0
 11
24.9976
 21
2.58658
 31
0.0
  0
LINE
  8
0
 62
     0
 10
24.9976
 20
2.58658
 30
0.0
 11
24.988
 21
2.58382
 31
0.0
  0
LINE
  8
0
 62
     0
 10
24.988
 20
2.58382
 30
0.0
 11
24.9632
 21
2.56866
 31
0.0
  0
LINE
  8
0
 62
     0
 10
24.9632
 20
2.56866
 30
0.0
 11
25.0004
 21
2.58107
 31
0.0
  0
LINE
  8
0
 62
     0
 10
25.0004
 20
2.58107
 30
0.0
 11
25.0142
 21
2.58107
 31
0.0
  0
LINE
  8
0
 62
     0
 10
22.0817
 20
1.0101
 30
0.0
 11
22.0803
 21
1.00459
 31
0.0
  0
LINE
  8
0
 62
     0
 10
22.0803
 20
1.00459
 30
0.0
 11
22.1437
 21
0.974273
 31
0.0
  0
LINE
  8
0
 62
     0
 10
22.1437
 20
0.974273
 30
0.0
 11
22.2608
 21
1.04317
 31
0.0
  0
LINE
  8
0
 62
     0
 10
22.2608
 20
1.04317
 30
0.0
 11
22.2801
 21
1.0542
 31
0.0
  0
LINE
  8
0
 62
     0
 10
22.2801
 20
1.0542
 30
0.0
 11
22.2843
 21
1.04731
 31
0.0
  0
LINE
  8
0
 62
     0
 10
22.2843
 20
1.04731
 30
0.0
 11
22.3848
 21
1.08314
 31
0.0
  0
LINE
  8
0
 62
     0
 10
22.3848
 20
1.08314
 30
0.0
 11
22.4923
 21
1.19751
 31
0.0
  0
LINE
  8
0
 62
     0
 10
22.4923
 20
1.19751
 30
0.0
 11
22.5116
 21
1.21405
 31
0.0
  0
LINE
  8
0
 62
     0
 10
22.5116
 20
1.21405
 30
0.0
 11
22.5116
 21
1.21405
 31
0.0
  0
LINE
  8
0
 62
     0
 10
22.5116
 20
1.21405
 30
0.0
 11
22.5888
 21
1.29811
 31
0.0
  0
LINE
  8
0
 62
     0
 10
22.5888
 20
1.29811
 30
0.0
 11
22.7197
 21
1.4056
 31
0.0
  0
LINE
  8
0
 62
     0
 10
22.7197
 20
1.4056
 30
0.0
 11
22.7376
 21
1.42351
 31
0.0
  0
LINE
  8
0
 62
     0
 10
22.7376
 20
1.42351
 30
0.0
 11
22.739
 21
1.4428
 31
0.0
  0
LINE
  8
0
 62
     0
 10
22.739
 20
1.4428
 30
0.0
 11
22.8878
 21
1.62195
 31
0.0
  0
LINE
  8
0
 62
     0
 10
22.8878
 20
1.62195
 30
0.0
 11
22.8975
 21
1.63849
 31
0.0
  0
LINE
  8
0
 62
     0
 10
22.8975
 20
1.63849
 30
0.0
 11
22.8548
 21
1.62333
 31
0.0
  0
LINE
  8
0
 62
     0
 10
22.8548
 20
1.62333
 30
0.0
 11
22.7101
 21
1.62746
 31
0.0
  0
LINE
  8
0
 62
     0
 10
22.7101
 20
1.62746
 30
0.0
 11
22.6012
 21
1.68534
 31
0.0
  0
LINE
  8
0
 62
     0
 10
22.6012
 20
1.68534
 30
0.0
 11
22.5668
 21
1.69361
 31
0.0
  0
LINE
  8
0
 62
     0
 10
22.5668
 20
1.69361
 30
0.0
 11
22.5309
 21
1.67983
 31
0.0
  0
LINE
  8
0
 62
     0
 10
22.5309
 20
1.67983
 30
0.0
 11
22.3725
 21
1.73909
 31
0.0
  0
LINE
  8
0
 62
     0
 10
22.3725
 20
1.73909
 30
0.0
 11
22.2415
 21
1.87827
 31
0.0
  0
LINE
  8
0
 62
     0
 10
22.2415
 20
1.87827
 30
0.0
 11
22.2195
 21
1.90307
 31
0.0
  0
LINE
  8
0
 62
     0
 10
22.2195
 20
1.90307
 30
0.0
 11
22.214
 21
1.90307
 31
0.0
  0
LINE
  8
0
 62
     0
 10
22.214
 20
1.90307
 30
0.0
 11
22.214
 21
1.91409
 31
0.0
  0
LINE
  8
0
 62
     0
 10
22.214
 20
1.91409
 30
0.0
 11
22.214
 21
1.91134
 31
0.0
  0
LINE
  8
0
 62
     0
 10
22.214
 20
1.91134
 30
0.0
 11
22.2057
 21
1.90307
 31
0.0
  0
LINE
  8
0
 62
     0
 10
22.2057
 20
1.90307
 30
0.0
 11
22.203
 21
1.90307
 31
0.0
  0
LINE
  8
0
 62
     0
 10
22.203
 20
1.90307
 30
0.0
 11
22.2002
 21
1.88791
 31
0.0
  0
LINE
  8
0
 62
     0
 10
22.2002
 20
1.88791
 30
0.0
 11
22.1451
 21
1.80661
 31
0.0
  0
LINE
  8
0
 62
     0
 10
22.1451
 20
1.80661
 30
0.0
 11
22.1368
 21
1.79283
 31
0.0
  0
LINE
  8
0
 62
     0
 10
22.1368
 20
1.79283
 30
0.0
 11
22.1038
 21
1.77905
 31
0.0
  0
LINE
  8
0
 62
     0
 10
22.1038
 20
1.77905
 30
0.0
 11
22.05
 21
1.62471
 31
0.0
  0
LINE
  8
0
 62
     0
 10
22.05
 20
1.62471
 30
0.0
 11
22.0431
 21
1.60541
 31
0.0
  0
LINE
  8
0
 62
     0
 10
22.0431
 20
1.60541
 30
0.0
 11
22.0211
 21
1.57648
 31
0.0
  0
LINE
  8
0
 62
     0
 10
22.0211
 20
1.57648
 30
0.0
 11
21.9756
 21
1.47312
 31
0.0
  0
LINE
  8
0
 62
     0
 10
21.9756
 20
1.47312
 30
0.0
 11
21.9742
 21
1.40009
 31
0.0
  0
LINE
  8
0
 62
     0
 10
21.9742
 20
1.40009
 30
0.0
 11
21.9715
 21
1.37942
 31
0.0
  0
LINE
  8
0
 62
     0
 10
21.9715
 20
1.37942
 30
0.0
 11
21.959
 21
1.34221
 31
0.0
  0
LINE
  8
0
 62
     0
 10
21.959
 20
1.34221
 30
0.0
 11
21.9411
 21
1.22094
 31
0.0
  0
LINE
  8
0
 62
     0
 10
21.9411
 20
1.22094
 30
0.0
 11
21.9618
 21
1.16169
 31
0.0
  0
LINE
  8
0
 62
     0
 10
21.9618
 20
1.16169
 30
0.0
 11
21.9659
 21
1.14239
 31
0.0
  0
LINE
  8
0
 62
     0
 10
21.9659
 20
1.14239
 30
0.0
 11
21.9604
 21
1.11759
 31
0.0
  0
LINE
  8
0
 62
     0
 10
21.9604
 20
1.11759
 30
0.0
 11
22.0665
 21
1.01286
 31
0.0
  0
LINE
  8
0
 62
     0
 10
22.0665
 20
1.01286
 30
0.0
 11
22.0817
 21
1.0101
 31
0.0
  0
LINE
  8
0
 62
     0
 10
22.9361
 20
1.72117
 30
0.0
 11
22.9361
 21
1.72117
 31
0.0
  0
LINE
  8
0
 62
     0
 10
22.9361
 20
1.72117
 30
0.0
 11
22.9857
 21
1.77629
 31
0.0
  0
LINE
  8
0
 62
     0
 10
22.9857
 20
1.77629
 30
0.0
 11
23.0325
 21
1.91409
 31
0.0
  0
LINE
  8
0
 62
     0
 10
23.0325
 20
1.91409
 30
0.0
 11
23.0408
 21
1.93614
 31
0.0
  0
LINE
  8
0
 62
     0
 10
23.0408
 20
1.93614
 30
0.0
 11
23.038
 21
1.94579
 31
0.0
  0
LINE
  8
0
 62
     0
 10
23.038
 20
1.94579
 30
0.0
 11
23.1276
 21
2.19384
 31
0.0
  0
LINE
  8
0
 62
     0
 10
23.1276
 20
2.19384
 30
0.0
 11
23.1345
 21
2.21726
 31
0.0
  0
LINE
  8
0
 62
     0
 10
23.1345
 20
2.21726
 30
0.0
 11
23.1304
 21
2.27101
 31
0.0
  0
LINE
  8
0
 62
     0
 10
23.1304
 20
2.27101
 30
0.0
 11
23.1442
 21
2.74781
 31
0.0
  0
LINE
  8
0
 62
     0
 10
23.1442
 20
2.74781
 30
0.0
 11
23.129
 21
2.7795
 31
0.0
  0
LINE
  8
0
 62
     0
 10
23.129
 20
2.7795
 30
0.0
 11
23.0959
 21
2.77813
 31
0.0
  0
LINE
  8
0
 62
     0
 10
23.0959
 20
2.77813
 30
0.0
 11
22.9912
 21
2.84978
 31
0.0
  0
LINE
  8
0
 62
     0
 10
22.9912
 20
2.84978
 30
0.0
 11
22.9003
 21
2.92282
 31
0.0
  0
LINE
  8
0
 62
     0
 10
22.9003
 20
2.92282
 30
0.0
 11
22.8699
 21
2.92282
 31
0.0
  0
LINE
  8
0
 62
     0
 10
22.8699
 20
2.92282
 30
0.0
 11
22.8369
 21
2.91731
 31
0.0
  0
LINE
  8
0
 62
     0
 10
22.8369
 20
2.91731
 30
0.0
 11
22.7417
 21
2.89801
 31
0.0
  0
LINE
  8
0
 62
     0
 10
22.7417
 20
2.89801
 30
0.0
 11
22.7046
 21
2.87596
 31
0.0
  0
LINE
  8
0
 62
     0
 10
22.7046
 20
2.87596
 30
0.0
 11
22.6935
 21
2.8677
 31
0.0
  0
LINE
  8
0
 62
     0
 10
22.6935
 20
2.8677
 30
0.0
 11
22.6673
 21
2.85667
 31
0.0
  0
LINE
  8
0
 62
     0
 10
22.6673
 20
2.85667
 30
0.0
 11
22.5502
 21
2.74505
 31
0.0
  0
LINE
  8
0
 62
     0
 10
22.5502
 20
2.74505
 30
0.0
 11
22.5392
 21
2.72989
 31
0.0
  0
LINE
  8
0
 62
     0
 10
22.5392
 20
2.72989
 30
0.0
 11
22.5089
 21
2.70371
 31
0.0
  0
LINE
  8
0
 62
     0
 10
22.5089
 20
2.70371
 30
0.0
 11
22.4303
 21
2.60725
 31
0.0
  0
LINE
  8
0
 62
     0
 10
22.4303
 20
2.60725
 30
0.0
 11
22.4248
 21
2.54937
 31
0.0
  0
LINE
  8
0
 62
     0
 10
22.4248
 20
2.54937
 30
0.0
 11
22.4179
 21
2.53146
 31
0.0
  0
LINE
  8
0
 62
     0
 10
22.4179
 20
2.53146
 30
0.0
 11
22.3918
 21
2.50803
 31
0.0
  0
LINE
  8
0
 62
     0
 10
22.3918
 20
2.50803
 30
0.0
 11
22.3642
 21
2.3151
 31
0.0
  0
LINE
  8
0
 62
     0
 10
22.3642
 20
2.3151
 30
0.0
 11
22.3628
 21
2.29443
 31
0.0
  0
LINE
  8
0
 62
     0
 10
22.3628
 20
2.29443
 30
0.0
 11
22.3449
 21
2.20073
 31
0.0
  0
LINE
  8
0
 62
     0
 10
22.3449
 20
2.20073
 30
0.0
 11
22.4717
 21
1.8824
 31
0.0
  0
LINE
  8
0
 62
     0
 10
22.4717
 20
1.8824
 30
0.0
 11
22.8355
 21
1.73495
 31
0.0
  0
LINE
  8
0
 62
     0
 10
22.8355
 20
1.73495
 30
0.0
 11
22.9361
 21
1.72117
 31
0.0
  0
LINE
  8
0
 62
     0
 10
25.4331
 20
0.712445
 30
0.0
 11
25.5488
 21
0.712445
 31
0.0
  0
LINE
  8
0
 62
     0
 10
25.5488
 20
0.712445
 30
0.0
 11
25.8437
 21
0.832337
 31
0.0
  0
LINE
  8
0
 62
     0
 10
25.8437
 20
0.832337
 30
0.0
 11
25.8961
 21
0.855761
 31
0.0
  0
LINE
  8
0
 62
     0
 10
25.8961
 20
0.855761
 30
0.0
 11
25.9292
 21
0.868165
 31
0.0
  0
LINE
  8
0
 62
     0
 10
25.9292
 20
0.868165
 30
0.0
 11
26.1965
 21
1.00597
 31
0.0
  0
LINE
  8
0
 62
     0
 10
26.1965
 20
1.00597
 30
0.0
 11
26.5217
 21
1.20165
 31
0.0
  0
LINE
  8
0
 62
     0
 10
26.5217
 20
1.20165
 30
0.0
 11
26.5851
 21
1.24161
 31
0.0
  0
LINE
  8
0
 62
     0
 10
26.5851
 20
1.24161
 30
0.0
 11
26.6306
 21
1.2678
 31
0.0
  0
LINE
  8
0
 62
     0
 10
26.6306
 20
1.2678
 30
0.0
 11
26.9365
 21
1.48277
 31
0.0
  0
LINE
  8
0
 62
     0
 10
26.9365
 20
1.48277
 30
0.0
 11
27.2769
 21
1.75562
 31
0.0
  0
LINE
  8
0
 62
     0
 10
27.2769
 20
1.75562
 30
0.0
 11
27.3403
 21
1.80937
 31
0.0
  0
LINE
  8
0
 62
     0
 10
27.3403
 20
1.80937
 30
0.0
 11
27.3802
 21
1.86035
 31
0.0
  0
LINE
  8
0
 62
     0
 10
27.3802
 20
1.86035
 30
0.0
 11
27.9494
 21
2.44326
 31
0.0
  0
LINE
  8
0
 62
     0
 10
27.9494
 20
2.44326
 30
0.0
 11
27.9962
 21
2.5039
 31
0.0
  0
LINE
  8
0
 62
     0
 10
27.9962
 20
2.5039
 30
0.0
 11
27.9962
 21
2.5039
 31
0.0
  0
LINE
  8
0
 62
     0
 10
27.9962
 20
2.5039
 30
0.0
 11
28.0265
 21
2.52732
 31
0.0
  0
LINE
  8
0
 62
     0
 10
28.0265
 20
2.52732
 30
0.0
 11
28.0293
 21
2.52595
 31
0.0
  0
LINE
  8
0
 62
     0
 10
28.0293
 20
2.52595
 30
0.0
 11
28.0293
 21
2.52595
 31
0.0
  0
LINE
  8
0
 62
     0
 10
28.0293
 20
2.52595
 30
0.0
 11
28.0417
 21
2.50803
 31
0.0
  0
LINE
  8
0
 62
     0
 10
28.0417
 20
2.50803
 30
0.0
 11
28.0403
 21
2.5039
 31
0.0
  0
LINE
  8
0
 62
     0
 10
28.0403
 20
2.5039
 30
0.0
 11
27.9852
 21
2.4474
 31
0.0
  0
LINE
  8
0
 62
     0
 10
27.9852
 20
2.4474
 30
0.0
 11
27.5332
 21
1.90307
 31
0.0
  0
LINE
  8
0
 62
     0
 10
27.5332
 20
1.90307
 30
0.0
 11
27.4726
 21
1.84795
 31
0.0
  0
LINE
  8
0
 62
     0
 10
27.4726
 20
1.84795
 30
0.0
 11
27.4078
 21
1.78732
 31
0.0
  0
LINE
  8
0
 62
     0
 10
27.4078
 20
1.78732
 30
0.0
 11
26.7822
 21
1.29811
 31
0.0
  0
LINE
  8
0
 62
     0
 10
26.7822
 20
1.29811
 30
0.0
 11
26.7174
 21
1.25264
 31
0.0
  0
LINE
  8
0
 62
     0
 10
26.7174
 20
1.25264
 30
0.0
 11
26.6237
 21
1.19338
 31
0.0
  0
LINE
  8
0
 62
     0
 10
26.6237
 20
1.19338
 30
0.0
 11
26.2902
 21
0.997701
 31
0.0
  0
LINE
  8
0
 62
     0
 10
26.2902
 20
0.997701
 30
0.0
 11
26.027
 21
0.873675
 31
0.0
  0
LINE
  8
0
 62
     0
 10
26.027
 20
0.873675
 30
0.0
 11
25.9678
 21
0.850251
 31
0.0
  0
LINE
  8
0
 62
     0
 10
25.9678
 20
0.850251
 30
0.0
 11
25.8837
 21
0.815799
 31
0.0
  0
LINE
  8
0
 62
     0
 10
25.8837
 20
0.815799
 30
0.0
 11
25.6164
 21
0.730359
 31
0.0
  0
LINE
  8
0
 62
     0
 10
25.6164
 20
0.730359
 30
0.0
 11
25.4703
 21
0.712445
 31
0.0
  0
LINE
  8
0
 62
     0
 10
25.4703
 20
0.712445
 30
0.0
 11
25.422
 21
0.712445
 31
0.0
  0
LINE
  8
0
 62
     0
 10
25.422
 20
0.712445
 30
0.0
 11
25.338
 21
0.712445
 31
0.0
  0
LINE
  8
0
 62
     0
 10
25.338
 20
0.712445
 30
0.0
 11
25.1024
 21
0.759298
 31
0.0
  0
LINE
  8
0
 62
     0
 10
25.1024
 20
0.759298
 30
0.0
 11
25.0858
 21
0.767567
 31
0.0
  0
LINE
  8
0
 62
     0
 10
25.0858
 20
0.767567
 30
0.0
 11
25.0596
 21
0.771701
 31
0.0
  0
LINE
  8
0
 62
     0
 10
25.0596
 20
0.771701
 30
0.0
 11
24.9921
 21
0.909507
 31
0.0
  0
LINE
  8
0
 62
     0
 10
24.9921
 20
0.909507
 30
0.0
 11
24.9921
 21
0.95498
 31
0.0
  0
LINE
  8
0
 62
     0
 10
24.9921
 20
0.95498
 30
0.0
 11
24.9893
 21
0.957735
 31
0.0
  0
LINE
  8
0
 62
     0
 10
24.9893
 20
0.957735
 30
0.0
 11
25.0472
 21
1.2361
 31
0.0
  0
LINE
  8
0
 62
     0
 10
25.0472
 20
1.2361
 30
0.0
 11
25.0583
 21
1.26366
 31
0.0
  0
LINE
  8
0
 62
     0
 10
25.0583
 20
1.26366
 30
0.0
 11
25.061
 21
1.27744
 31
0.0
  0
LINE
  8
0
 62
     0
 10
25.061
 20
1.27744
 30
0.0
 11
25.1933
 21
1.58337
 31
0.0
  0
LINE
  8
0
 62
     0
 10
25.1933
 20
1.58337
 30
0.0
 11
25.2071
 21
1.61093
 31
0.0
  0
LINE
  8
0
 62
     0
 10
25.2071
 20
1.61093
 30
0.0
 11
25.2002
 21
1.62333
 31
0.0
  0
LINE
  8
0
 62
     0
 10
25.2002
 20
1.62333
 30
0.0
 11
25.2539
 21
1.75424
 31
0.0
  0
LINE
  8
0
 62
     0
 10
25.2539
 20
1.75424
 30
0.0
 11
25.3449
 21
1.91134
 31
0.0
  0
LINE
  8
0
 62
     0
 10
25.3449
 20
1.91134
 30
0.0
 11
25.3559
 21
1.93614
 31
0.0
  0
LINE
  8
0
 62
     0
 10
25.3559
 20
1.93614
 30
0.0
 11
25.3628
 21
1.94992
 31
0.0
  0
LINE
  8
0
 62
     0
 10
25.3628
 20
1.94992
 30
0.0
 11
25.422
 21
2.14698
 31
0.0
  0
LINE
  8
0
 62
     0
 10
25.422
 20
2.14698
 30
0.0
 11
25.422
 21
2.21175
 31
0.0
  0
LINE
  8
0
 62
     0
 10
25.422
 20
2.21175
 30
0.0
 11
25.4124
 21
2.22278
 31
0.0
  0
LINE
  8
0
 62
     0
 10
25.4124
 20
2.22278
 30
0.0
 11
25.3063
 21
2.36885
 31
0.0
  0
LINE
  8
0
 62
     0
 10
25.3063
 20
2.36885
 30
0.0
 11
25.2843
 21
2.37712
 31
0.0
  0
LINE
  8
0
 62
     0
 10
25.2843
 20
2.37712
 30
0.0
 11
25.2415
 21
2.36885
 31
0.0
  0
LINE
  8
0
 62
     0
 10
25.2415
 20
2.36885
 30
0.0
 11
25.0996
 21
2.40605
 31
0.0
  0
LINE
  8
0
 62
     0
 10
25.0996
 20
2.40605
 30
0.0
 11
25.0128
 21
2.48874
 31
0.0
  0
LINE
  8
0
 62
     0
 10
25.0128
 20
2.48874
 30
0.0
 11
24.9866
 21
2.49838
 31
0.0
  0
LINE
  8
0
 62
     0
 10
24.9866
 20
2.49838
 30
0.0
 11
24.959
 21
2.50665
 31
0.0
  0
LINE
  8
0
 62
     0
 10
24.959
 20
2.50665
 30
0.0
 11
24.7358
 21
2.65135
 31
0.0
  0
LINE
  8
0
 62
     0
 10
24.7358
 20
2.65135
 30
0.0
 11
24.7165
 21
2.66926
 31
0.0
  0
LINE
  8
0
 62
     0
 10
24.7165
 20
2.66926
 30
0.0
 11
24.6931
 21
2.67202
 31
0.0
  0
LINE
  8
0
 62
     0
 10
24.6931
 20
2.67202
 30
0.0
 11
24.631
 21
2.78364
 31
0.0
  0
LINE
  8
0
 62
     0
 10
24.631
 20
2.78364
 30
0.0
 11
24.6503
 21
2.96416
 31
0.0
  0
LINE
  8
0
 62
     0
 10
24.6503
 20
2.96416
 30
0.0
 11
24.6614
 21
2.99999
 31
0.0
  0
LINE
  8
0
 62
     0
 10
24.6614
 20
2.99999
 30
0.0
 11
24.6628
 21
3.01239
 31
0.0
  0
LINE
  8
0
 62
     0
 10
24.6628
 20
3.01239
 30
0.0
 11
24.7592
 21
3.28938
 31
0.0
  0
LINE
  8
0
 62
     0
 10
24.7592
 20
3.28938
 30
0.0
 11
24.7716
 21
3.31418
 31
0.0
  0
LINE
  8
0
 62
     0
 10
24.7716
 20
3.31418
 30
0.0
 11
24.7702
 21
3.33072
 31
0.0
  0
LINE
  8
0
 62
     0
 10
24.7702
 20
3.33072
 30
0.0
 11
24.926
 21
3.56637
 31
0.0
  0
LINE
  8
0
 62
     0
 10
24.926
 20
3.56637
 30
0.0
 11
24.9425
 21
3.58429
 31
0.0
  0
LINE
  8
0
 62
     0
 10
24.9425
 20
3.58429
 30
0.0
 11
24.937
 21
3.59117
 31
0.0
  0
LINE
  8
0
 62
     0
 10
24.937
 20
3.59117
 30
0.0
 11
25.0059
 21
3.67249
 31
0.0
  0
LINE
  8
0
 62
     0
 10
25.0059
 20
3.67249
 30
0.0
 11
25.1465
 21
3.73172
 31
0.0
  0
LINE
  8
0
 62
     0
 10
25.1465
 20
3.73172
 30
0.0
 11
25.1685
 21
3.73863
 31
0.0
  0
LINE
  8
0
 62
     0
 10
25.1685
 20
3.73863
 30
0.0
 11
25.1726
 21
3.72897
 31
0.0
  0
LINE
  8
0
 62
     0
 10
25.1726
 20
3.72897
 30
0.0
 11
25.276
 21
3.73034
 31
0.0
  0
LINE
  8
0
 62
     0
 10
25.276
 20
3.73034
 30
0.0
 11
25.4234
 21
3.72759
 31
0.0
  0
LINE
  8
0
 62
     0
 10
25.4234
 20
3.72759
 30
0.0
 11
25.4496
 21
3.71658
 31
0.0
  0
LINE
  8
0
 62
     0
 10
25.4496
 20
3.71658
 30
0.0
 11
25.4551
 21
3.69316
 31
0.0
  0
LINE
  8
0
 62
     0
 10
25.4551
 20
3.69316
 30
0.0
 11
25.5309
 21
3.53466
 31
0.0
  0
LINE
  8
0
 62
     0
 10
25.5309
 20
3.53466
 30
0.0
 11
25.5268
 21
3.50711
 31
0.0
  0
LINE
  8
0
 62
     0
 10
25.5268
 20
3.50711
 30
0.0
 11
25.5061
 21
3.45888
 31
0.0
  0
LINE
  8
0
 62
     0
 10
25.5061
 20
3.45888
 30
0.0
 11
25.4634
 21
3.30316
 31
0.0
  0
LINE
  8
0
 62
     0
 10
25.4634
 20
3.30316
 30
0.0
 11
25.44
 21
3.19705
 31
0.0
  0
LINE
  8
0
 62
     0
 10
25.44
 20
3.19705
 30
0.0
 11
25.4276
 21
3.16536
 31
0.0
  0
LINE
  8
0
 62
     0
 10
25.4276
 20
3.16536
 30
0.0
 11
25.4069
 21
3.11023
 31
0.0
  0
LINE
  8
0
 62
     0
 10
25.4069
 20
3.11023
 30
0.0
 11
25.3339
 21
2.94349
 31
0.0
  0
LINE
  8
0
 62
     0
 10
25.3339
 20
2.94349
 30
0.0
 11
25.2732
 21
2.83738
 31
0.0
  0
LINE
  8
0
 62
     0
 10
25.2732
 20
2.83738
 30
0.0
 11
25.2567
 21
2.80706
 31
0.0
  0
LINE
  8
0
 62
     0
 10
25.2567
 20
2.80706
 30
0.0
 11
25.2236
 21
2.76159
 31
0.0
  0
LINE
  8
0
 62
     0
 10
25.2236
 20
2.76159
 30
0.0
 11
25.1327
 21
2.61827
 31
0.0
  0
LINE
  8
0
 62
     0
 10
25.1327
 20
2.61827
 30
0.0
 11
25.1161
 21
2.5728
 31
0.0
  0
LINE
  8
0
 62
     0
 10
25.1161
 20
2.5728
 30
0.0
 11
25.1079
 21
2.55902
 31
0.0
  0
LINE
  8
0
 62
     0
 10
25.1079
 20
2.55902
 30
0.0
 11
25.1079
 21
2.55902
 31
0.0
  0
LINE
  8
0
 62
     0
 10
25.1079
 20
2.55902
 30
0.0
 11
25.1919
 21
2.53146
 31
0.0
  0
LINE
  8
0
 62
     0
 10
25.1919
 20
2.53146
 30
0.0
 11
25.2016
 21
2.52595
 31
0.0
  0
LINE
  8
0
 62
     0
 10
25.2016
 20
2.52595
 30
0.0
 11
25.2002
 21
2.52457
 31
0.0
  0
LINE
  8
0
 62
     0
 10
25.2002
 20
2.52457
 30
0.0
 11
25.4413
 21
2.40054
 31
0.0
  0
LINE
  8
0
 62
     0
 10
25.4413
 20
2.40054
 30
0.0
 11
25.4717
 21
2.38263
 31
0.0
  0
LINE
  8
0
 62
     0
 10
25.4717
 20
2.38263
 30
0.0
 11
25.4896
 21
2.34267
 31
0.0
  0
LINE
  8
0
 62
     0
 10
25.4896
 20
2.34267
 30
0.0
 11
25.6012
 21
2.2214
 31
0.0
  0
LINE
  8
0
 62
     0
 10
25.6012
 20
2.2214
 30
0.0
 11
25.6908
 21
2.12494
 31
0.0
  0
LINE
  8
0
 62
     0
 10
25.6908
 20
2.12494
 30
0.0
 11
25.6977
 21
2.096
 31
0.0
  0
LINE
  8
0
 62
     0
 10
25.6977
 20
2.096
 30
0.0
 11
25.7004
 21
2.04225
 31
0.0
  0
LINE
  8
0
 62
     0
 10
25.7004
 20
2.04225
 30
0.0
 11
25.7101
 21
1.87965
 31
0.0
  0
LINE
  8
0
 62
     0
 10
25.7101
 20
1.87965
 30
0.0
 11
25.6949
 21
1.7694
 31
0.0
  0
LINE
  8
0
 62
     0
 10
25.6949
 20
1.7694
 30
0.0
 11
25.6866
 21
1.73771
 31
0.0
  0
LINE
  8
0
 62
     0
 10
25.6866
 20
1.73771
 30
0.0
 11
25.677
 21
1.68121
 31
0.0
  0
LINE
  8
0
 62
     0
 10
25.677
 20
1.68121
 30
0.0
 11
25.6274
 21
1.51171
 31
0.0
  0
LINE
  8
0
 62
     0
 10
25.6274
 20
1.51171
 30
0.0
 11
25.564
 21
1.39871
 31
0.0
  0
LINE
  8
0
 62
     0
 10
25.564
 20
1.39871
 30
0.0
 11
25.5488
 21
1.36839
 31
0.0
  0
LINE
  8
0
 62
     0
 10
25.5488
 20
1.36839
 30
0.0
 11
25.5171
 21
1.31878
 31
0.0
  0
LINE
  8
0
 62
     0
 10
25.5171
 20
1.31878
 30
0.0
 11
25.4345
 21
1.16169
 31
0.0
  0
LINE
  8
0
 62
     0
 10
25.4345
 20
1.16169
 30
0.0
 11
25.4
 21
1.06798
 31
0.0
  0
LINE
  8
0
 62
     0
 10
25.4
 20
1.06798
 30
0.0
 11
25.389
 21
1.04317
 31
0.0
  0
LINE
  8
0
 62
     0
 10
25.389
 20
1.04317
 30
0.0
 11
25.3738
 21
1.00046
 31
0.0
  0
LINE
  8
0
 62
     0
 10
25.3738
 20
1.00046
 30
0.0
 11
25.3228
 21
0.869541
 31
0.0
  0
LINE
  8
0
 62
     0
 10
25.3228
 20
0.869541
 30
0.0
 11
25.3077
 21
0.821313
 31
0.0
  0
LINE
  8
0
 62
     0
 10
25.3077
 20
0.821313
 30
0.0
 11
25.3063
 21
0.806154
 31
0.0
  0
LINE
  8
0
 62
     0
 10
25.3063
 20
0.806154
 30
0.0
 11
25.2939
 21
0.796505
 31
0.0
  0
LINE
  8
0
 62
     0
 10
25.2939
 20
0.796505
 30
0.0
 11
25.2884
 21
0.724849
 31
0.0
  0
LINE
  8
0
 62
     0
 10
25.2884
 20
0.724849
 30
0.0
 11
25.3959
 21
0.712445
 31
0.0
  0
LINE
  8
0
 62
     0
 10
25.3959
 20
0.712445
 30
0.0
 11
25.4331
 21
0.712445
 31
0.0
  0
LINE
  8
0
 62
     0
 10
25.0527
 20
2.52043
 30
0.0
 11
25.05
 21
2.5287
 31
0.0
  0
LINE
  8
0
 62
     0
 10
25.05
 20
2.5287
 30
0.0
 11
25.1685
 21
2.73403
 31
0.0
  0
LINE
  8
0
 62
     0
 10
25.1685
 20
2.73403
 30
0.0
 11
25.185
 21
2.76297
 31
0.0
  0
LINE
  8
0
 62
     0
 10
25.185
 20
2.76297
 30
0.0
 11
25.1836
 21
2.76848
 31
0.0
  0
LINE
  8
0
 62
     0
 10
25.1836
 20
2.76848
 30
0.0
 11
25.2525
 21
2.90491
 31
0.0
  0
LINE
  8
0
 62
     0
 10
25.2525
 20
2.90491
 30
0.0
 11
25.349
 21
3.09094
 31
0.0
  0
LINE
  8
0
 62
     0
 10
25.349
 20
3.09094
 30
0.0
 11
25.3614
 21
3.12126
 31
0.0
  0
LINE
  8
0
 62
     0
 10
25.3614
 20
3.12126
 30
0.0
 11
25.3697
 21
3.12815
 31
0.0
  0
LINE
  8
0
 62
     0
 10
25.3697
 20
3.12815
 30
0.0
 11
25.4606
 21
3.42305
 31
0.0
  0
LINE
  8
0
 62
     0
 10
25.4606
 20
3.42305
 30
0.0
 11
25.4661
 21
3.44647
 31
0.0
  0
LINE
  8
0
 62
     0
 10
25.4661
 20
3.44647
 30
0.0
 11
25.4593
 21
3.44923
 31
0.0
  0
LINE
  8
0
 62
     0
 10
25.4593
 20
3.44923
 30
0.0
 11
25.422
 21
3.5898
 31
0.0
  0
LINE
  8
0
 62
     0
 10
25.422
 20
3.5898
 30
0.0
 11
25.411
 21
3.5898
 31
0.0
  0
LINE
  8
0
 62
     0
 10
25.411
 20
3.5898
 30
0.0
 11
25.3959
 21
3.58567
 31
0.0
  0
LINE
  8
0
 62
     0
 10
25.3959
 20
3.58567
 30
0.0
 11
25.2608
 21
3.47128
 31
0.0
  0
LINE
  8
0
 62
     0
 10
25.2608
 20
3.47128
 30
0.0
 11
25.2402
 21
3.44647
 31
0.0
  0
LINE
  8
0
 62
     0
 10
25.2402
 20
3.44647
 30
0.0
 11
25.1988
 21
3.40376
 31
0.0
  0
LINE
  8
0
 62
     0
 10
25.1988
 20
3.40376
 30
0.0
 11
25.0899
 21
3.25906
 31
0.0
  0
LINE
  8
0
 62
     0
 10
25.0899
 20
3.25906
 30
0.0
 11
25.0403
 21
3.14744
 31
0.0
  0
LINE
  8
0
 62
     0
 10
25.0403
 20
3.14744
 30
0.0
 11
25.0252
 21
3.11574
 31
0.0
  0
LINE
  8
0
 62
     0
 10
25.0252
 20
3.11574
 30
0.0
 11
25.0059
 21
3.062
 31
0.0
  0
LINE
  8
0
 62
     0
 10
25.0059
 20
3.062
 30
0.0
 11
24.9466
 21
2.89939
 31
0.0
  0
LINE
  8
0
 62
     0
 10
24.9466
 20
2.89939
 30
0.0
 11
24.9232
 21
2.78777
 31
0.0
  0
LINE
  8
0
 62
     0
 10
24.9232
 20
2.78777
 30
0.0
 11
24.9204
 21
2.75746
 31
0.0
  0
LINE
  8
0
 62
     0
 10
24.9204
 20
2.75746
 30
0.0
 11
24.8998
 21
2.723
 31
0.0
  0
LINE
  8
0
 62
     0
 10
24.8998
 20
2.723
 30
0.0
 11
24.9039
 21
2.57831
 31
0.0
  0
LINE
  8
0
 62
     0
 10
24.9039
 20
2.57831
 30
0.0
 11
25.0265
 21
2.53146
 31
0.0
  0
LINE
  8
0
 62
     0
 10
25.0265
 20
2.53146
 30
0.0
 11
25.0527
 21
2.52043
 31
0.0
  0
LINE
  8
0
 62
     0
 10
30.536
 20
2.43775
 30
0.0
 11
30.536
 21
2.43775
 31
0.0
  0
LINE
  8
0
 62
     0
 10
30.536
 20
2.43775
 30
0.0
 11
30.5952
 21
2.45291
 31
0.0
  0
LINE
  8
0
 62
     0
 10
30.5952
 20
2.45291
 30
0.0
 11
30.5966
 21
2.44878
 31
0.0
  0
LINE
  8
0
 62
     0
 10
30.5966
 20
2.44878
 30
0.0
 11
30.5925
 21
2.43499
 31
0.0
  0
LINE
  8
0
 62
     0
 10
30.5925
 20
2.43499
 30
0.0
 11
30.5842
 21
2.38814
 31
0.0
  0
LINE
  8
0
 62
     0
 10
30.5842
 20
2.38814
 30
0.0
 11
30.5911
 21
2.41019
 31
0.0
  0
LINE
  8
0
 62
     0
 10
30.5911
 20
2.41019
 30
0.0
 11
30.5911
 21
2.41019
 31
0.0
  0
LINE
  8
0
 62
     0
 10
30.5911
 20
2.41019
 30
0.0
 11
30.58
 21
2.38952
 31
0.0
  0
LINE
  8
0
 62
     0
 10
30.58
 20
2.38952
 30
0.0
 11
30.536
 21
2.33026
 31
0.0
  0
LINE
  8
0
 62
     0
 10
30.536
 20
2.33026
 30
0.0
 11
30.4629
 21
2.25998
 31
0.0
  0
LINE
  8
0
 62
     0
 10
30.4629
 20
2.25998
 30
0.0
 11
30.4423
 21
2.2338
 31
0.0
  0
LINE
  8
0
 62
     0
 10
30.4423
 20
2.2338
 30
0.0
 11
30.3899
 21
2.19522
 31
0.0
  0
LINE
  8
0
 62
     0
 10
30.3899
 20
2.19522
 30
0.0
 11
30.2342
 21
2.02296
 31
0.0
  0
LINE
  8
0
 62
     0
 10
30.2342
 20
2.02296
 30
0.0
 11
30.106
 21
1.84244
 31
0.0
  0
LINE
  8
0
 62
     0
 10
30.106
 20
1.84244
 30
0.0
 11
30.0674
 21
1.79834
 31
0.0
  0
LINE
  8
0
 62
     0
 10
30.0674
 20
1.79834
 30
0.0
 11
30.0027
 21
1.75286
 31
0.0
  0
LINE
  8
0
 62
     0
 10
30.0027
 20
1.75286
 30
0.0
 11
29.5975
 21
1.29673
 31
0.0
  0
LINE
  8
0
 62
     0
 10
29.5975
 20
1.29673
 30
0.0
 11
29.5493
 21
1.24713
 31
0.0
  0
LINE
  8
0
 62
     0
 10
29.5493
 20
1.24713
 30
0.0
 11
29.4886
 21
1.18511
 31
0.0
  0
LINE
  8
0
 62
     0
 10
29.4886
 20
1.18511
 30
0.0
 11
29.2406
 21
0.950846
 31
0.0
  0
LINE
  8
0
 62
     0
 10
29.2406
 20
0.950846
 30
0.0
 11
29.0187
 21
0.763432
 31
0.0
  0
LINE
  8
0
 62
     0
 10
29.0187
 20
0.763432
 30
0.0
 11
28.9705
 21
0.72347
 31
0.0
  0
LINE
  8
0
 62
     0
 10
28.9705
 20
0.72347
 30
0.0
 11
28.8975
 21
0.683507
 31
0.0
  0
LINE
  8
0
 62
     0
 10
28.8975
 20
0.683507
 30
0.0
 11
28.6494
 21
0.512632
 31
0.0
  0
LINE
  8
0
 62
     0
 10
28.6494
 20
0.512632
 30
0.0
 11
28.4579
 21
0.376206
 31
0.0
  0
LINE
  8
0
 62
     0
 10
28.4579
 20
0.376206
 30
0.0
 11
28.4138
 21
0.354157
 31
0.0
  0
LINE
  8
0
 62
     0
 10
28.4138
 20
0.354157
 30
0.0
 11
28.3669
 21
0.307303
 31
0.0
  0
LINE
  8
0
 62
     0
 10
28.3669
 20
0.307303
 30
0.0
 11
28.1643
 21
0.223242
 31
0.0
  0
LINE
  8
0
 62
     0
 10
28.1643
 20
0.223242
 30
0.0
 11
28.0031
 21
0.26734
 31
0.0
  0
LINE
  8
0
 62
     0
 10
28.0031
 20
0.26734
 30
0.0
 11
27.9728
 21
0.276986
 31
0.0
  0
LINE
  8
0
 62
     0
 10
27.9728
 20
0.276986
 30
0.0
 11
27.919
 21
0.270095
 31
0.0
  0
LINE
  8
0
 62
     0
 10
27.919
 20
0.270095
 30
0.0
 11
27.7385
 21
0.373447
 31
0.0
  0
LINE
  8
0
 62
     0
 10
27.7385
 20
0.373447
 30
0.0
 11
27.6889
 21
0.602202
 31
0.0
  0
LINE
  8
0
 62
     0
 10
27.6889
 20
0.602202
 30
0.0
 11
27.6806
 21
0.651813
 31
0.0
  0
LINE
  8
0
 62
     0
 10
27.6806
 20
0.651813
 30
0.0
 11
27.6655
 21
0.677997
 31
0.0
  0
LINE
  8
0
 62
     0
 10
27.6655
 20
0.677997
 30
0.0
 11
27.6462
 21
0.94809
 31
0.0
  0
LINE
  8
0
 62
     0
 10
27.6462
 20
0.94809
 30
0.0
 11
27.6793
 21
1.31327
 31
0.0
  0
LINE
  8
0
 62
     0
 10
27.6793
 20
1.31327
 30
0.0
 11
27.6917
 21
1.38493
 31
0.0
  0
LINE
  8
0
 62
     0
 10
27.6917
 20
1.38493
 30
0.0
 11
27.6986
 21
1.43178
 31
0.0
  0
LINE
  8
0
 62
     0
 10
27.6986
 20
1.43178
 30
0.0
 11
27.784
 21
1.80248
 31
0.0
  0
LINE
  8
0
 62
     0
 10
27.784
 20
1.80248
 30
0.0
 11
27.919
 21
2.25723
 31
0.0
  0
LINE
  8
0
 62
     0
 10
27.919
 20
2.25723
 30
0.0
 11
27.9508
 21
2.34404
 31
0.0
  0
LINE
  8
0
 62
     0
 10
27.9508
 20
2.34404
 30
0.0
 11
27.9549
 21
2.41294
 31
0.0
  0
LINE
  8
0
 62
     0
 10
27.9549
 20
2.41294
 30
0.0
 11
28.112
 21
2.84014
 31
0.0
  0
LINE
  8
0
 62
     0
 10
28.112
 20
2.84014
 30
0.0
 11
28.3393
 21
3.30454
 31
0.0
  0
LINE
  8
0
 62
     0
 10
28.3393
 20
3.30454
 30
0.0
 11
28.3807
 21
3.39135
 31
0.0
  0
LINE
  8
0
 62
     0
 10
28.3807
 20
3.39135
 30
0.0
 11
28.4165
 21
3.46163
 31
0.0
  0
LINE
  8
0
 62
     0
 10
28.4165
 20
3.46163
 30
0.0
 11
28.8616
 21
4.32015
 31
0.0
  0
LINE
  8
0
 62
     0
 10
28.8616
 20
4.32015
 30
0.0
 11
28.9099
 21
4.40009
 31
0.0
  0
LINE
  8
0
 62
     0
 10
28.9099
 20
4.40009
 30
0.0
 11
28.9402
 21
4.46761
 31
0.0
  0
LINE
  8
0
 62
     0
 10
28.9402
 20
4.46761
 30
0.0
 11
29.1717
 21
4.83415
 31
0.0
  0
LINE
  8
0
 62
     0
 10
29.1717
 20
4.83415
 30
0.0
 11
29.4404
 21
5.18418
 31
0.0
  0
LINE
  8
0
 62
     0
 10
29.4404
 20
5.18418
 30
0.0
 11
29.4886
 21
5.24344
 31
0.0
  0
LINE
  8
0
 62
     0
 10
29.4886
 20
5.24344
 30
0.0
 11
29.5286
 21
5.27925
 31
0.0
  0
LINE
  8
0
 62
     0
 10
29.5286
 20
5.27925
 30
0.0
 11
29.9957
 21
5.75331
 31
0.0
  0
LINE
  8
0
 62
     0
 10
29.9957
 20
5.75331
 30
0.0
 11
30.0398
 21
5.78362
 31
0.0
  0
LINE
  8
0
 62
     0
 10
30.0398
 20
5.78362
 30
0.0
 11
30.0605
 21
5.80429
 31
0.0
  0
LINE
  8
0
 62
     0
 10
30.0605
 20
5.80429
 30
0.0
 11
30.2521
 21
5.88836
 31
0.0
  0
LINE
  8
0
 62
     0
 10
30.2521
 20
5.88836
 30
0.0
 11
30.4657
 21
5.90765
 31
0.0
  0
LINE
  8
0
 62
     0
 10
30.4657
 20
5.90765
 30
0.0
 11
30.4974
 21
5.89386
 31
0.0
  0
LINE
  8
0
 62
     0
 10
30.4974
 20
5.89386
 30
0.0
 11
30.5153
 21
5.86631
 31
0.0
  0
LINE
  8
0
 62
     0
 10
30.5153
 20
5.86631
 30
0.0
 11
30.6159
 21
5.67475
 31
0.0
  0
LINE
  8
0
 62
     0
 10
30.6159
 20
5.67475
 30
0.0
 11
30.6131
 21
5.64032
 31
0.0
  0
LINE
  8
0
 62
     0
 10
30.6131
 20
5.64032
 30
0.0
 11
30.598
 21
5.5783
 31
0.0
  0
LINE
  8
0
 62
     0
 10
30.598
 20
5.5783
 30
0.0
 11
30.5525
 21
5.36885
 31
0.0
  0
LINE
  8
0
 62
     0
 10
30.5525
 20
5.36885
 30
0.0
 11
30.496
 21
5.18418
 31
0.0
  0
LINE
  8
0
 62
     0
 10
30.496
 20
5.18418
 30
0.0
 11
30.4753
 21
5.1332
 31
0.0
  0
LINE
  8
0
 62
     0
 10
30.4753
 20
5.1332
 30
0.0
 11
30.4533
 21
5.06843
 31
0.0
  0
LINE
  8
0
 62
     0
 10
30.4533
 20
5.06843
 30
0.0
 11
30.1694
 21
4.53789
 31
0.0
  0
LINE
  8
0
 62
     0
 10
30.1694
 20
4.53789
 30
0.0
 11
30.1336
 21
4.47724
 31
0.0
  0
LINE
  8
0
 62
     0
 10
30.1336
 20
4.47724
 30
0.0
 11
30.095
 21
4.39872
 31
0.0
  0
LINE
  8
0
 62
     0
 10
30.095
 20
4.39872
 30
0.0
 11
29.6885
 21
3.81716
 31
0.0
  0
LINE
  8
0
 62
     0
 10
29.6885
 20
3.81716
 30
0.0
 11
29.643
 21
3.75514
 31
0.0
  0
LINE
  8
0
 62
     0
 10
29.643
 20
3.75514
 30
0.0
 11
29.5768
 21
3.67661
 31
0.0
  0
LINE
  8
0
 62
     0
 10
29.5768
 20
3.67661
 30
0.0
 11
29.3302
 21
3.37068
 31
0.0
  0
LINE
  8
0
 62
     0
 10
29.3302
 20
3.37068
 30
0.0
 11
29.111
 21
3.11161
 31
0.0
  0
LINE
  8
0
 62
     0
 10
29.111
 20
3.11161
 30
0.0
 11
29.0587
 21
3.05511
 31
0.0
  0
LINE
  8
0
 62
     0
 10
29.0587
 20
3.05511
 30
0.0
 11
29.005
 21
2.98208
 31
0.0
  0
LINE
  8
0
 62
     0
 10
29.005
 20
2.98208
 30
0.0
 11
28.4827
 21
2.51768
 31
0.0
  0
LINE
  8
0
 62
     0
 10
28.4827
 20
2.51768
 30
0.0
 11
28.4303
 21
2.47633
 31
0.0
  0
LINE
  8
0
 62
     0
 10
28.4303
 20
2.47633
 30
0.0
 11
28.422
 21
2.47496
 31
0.0
  0
LINE
  8
0
 62
     0
 10
28.422
 20
2.47496
 30
0.0
 11
28.3931
 21
2.38263
 31
0.0
  0
LINE
  8
0
 62
     0
 10
28.3931
 20
2.38263
 30
0.0
 11
28.3862
 21
2.36609
 31
0.0
  0
LINE
  8
0
 62
     0
 10
28.3862
 20
2.36609
 30
0.0
 11
28.3752
 21
2.33026
 31
0.0
  0
LINE
  8
0
 62
     0
 10
28.3752
 20
2.33026
 30
0.0
 11
28.2966
 21
2.12907
 31
0.0
  0
LINE
  8
0
 62
     0
 10
28.2966
 20
2.12907
 30
0.0
 11
28.287
 21
2.10151
 31
0.0
  0
LINE
  8
0
 62
     0
 10
28.287
 20
2.10151
 30
0.0
 11
28.2553
 21
2.05328
 31
0.0
  0
LINE
  8
0
 62
     0
 10
28.2553
 20
2.05328
 30
0.0
 11
28.1905
 21
1.88929
 31
0.0
  0
LINE
  8
0
 62
     0
 10
28.1905
 20
1.88929
 30
0.0
 11
28.1767
 21
1.77216
 31
0.0
  0
LINE
  8
0
 62
     0
 10
28.1767
 20
1.77216
 30
0.0
 11
28.1657
 21
1.73771
 31
0.0
  0
LINE
  8
0
 62
     0
 10
28.1657
 20
1.73771
 30
0.0
 11
28.1395
 21
1.67845
 31
0.0
  0
LINE
  8
0
 62
     0
 10
28.1395
 20
1.67845
 30
0.0
 11
28.0844
 21
1.48966
 31
0.0
  0
LINE
  8
0
 62
     0
 10
28.0844
 20
1.48966
 30
0.0
 11
28.0638
 21
1.35048
 31
0.0
  0
LINE
  8
0
 62
     0
 10
28.0638
 20
1.35048
 30
0.0
 11
28.0555
 21
1.31327
 31
0.0
  0
LINE
  8
0
 62
     0
 10
28.0555
 20
1.31327
 30
0.0
 11
28.0417
 21
1.25677
 31
0.0
  0
LINE
  8
0
 62
     0
 10
28.0417
 20
1.25677
 30
0.0
 11
27.9976
 21
0.923286
 31
0.0
  0
LINE
  8
0
 62
     0
 10
27.9976
 20
0.923286
 30
0.0
 11
27.9949
 21
0.888834
 31
0.0
  0
LINE
  8
0
 62
     0
 10
27.9949
 20
0.888834
 30
0.0
 11
27.9921
 21
0.840602
 31
0.0
  0
LINE
  8
0
 62
     0
 10
27.9921
 20
0.840602
 30
0.0
 11
28.0155
 21
0.552595
 31
0.0
  0
LINE
  8
0
 62
     0
 10
28.0155
 20
0.552595
 30
0.0
 11
28.0224
 21
0.525032
 31
0.0
  0
LINE
  8
0
 62
     0
 10
28.0224
 20
0.525032
 30
0.0
 11
28.0224
 21
0.486449
 31
0.0
  0
LINE
  8
0
 62
     0
 10
28.0224
 20
0.486449
 30
0.0
 11
28.0817
 21
0.370692
 31
0.0
  0
LINE
  8
0
 62
     0
 10
28.0817
 20
0.370692
 30
0.0
 11
28.196
 21
0.365181
 31
0.0
  0
LINE
  8
0
 62
     0
 10
28.196
 20
0.365181
 30
0.0
 11
28.2264
 21
0.370692
 31
0.0
  0
LINE
  8
0
 62
     0
 10
28.2264
 20
0.370692
 30
0.0
 11
28.2346
 21
0.376206
 31
0.0
  0
LINE
  8
0
 62
     0
 10
28.2346
 20
0.376206
 30
0.0
 11
28.6039
 21
0.547081
 31
0.0
  0
LINE
  8
0
 62
     0
 10
28.6039
 20
0.547081
 30
0.0
 11
28.6453
 21
0.574643
 31
0.0
  0
LINE
  8
0
 62
     0
 10
28.6453
 20
0.574643
 30
0.0
 11
28.6591
 21
0.584288
 31
0.0
  0
LINE
  8
0
 62
     0
 10
28.6591
 20
0.584288
 30
0.0
 11
28.8603
 21
0.740008
 31
0.0
  0
LINE
  8
0
 62
     0
 10
28.8603
 20
0.740008
 30
0.0
 11
29.1303
 21
0.966004
 31
0.0
  0
LINE
  8
0
 62
     0
 10
29.1303
 20
0.966004
 30
0.0
 11
29.1799
 21
1.0101
 31
0.0
  0
LINE
  8
0
 62
     0
 10
29.1799
 20
1.0101
 30
0.0
 11
29.2172
 21
1.02939
 31
0.0
  0
LINE
  8
0
 62
     0
 10
29.2172
 20
1.02939
 30
0.0
 11
29.4487
 21
1.23886
 31
0.0
  0
LINE
  8
0
 62
     0
 10
29.4487
 20
1.23886
 30
0.0
 11
29.6967
 21
1.50068
 31
0.0
  0
LINE
  8
0
 62
     0
 10
29.6967
 20
1.50068
 30
0.0
 11
29.7422
 21
1.54478
 31
0.0
  0
LINE
  8
0
 62
     0
 10
29.7422
 20
1.54478
 30
0.0
 11
29.7574
 21
1.58061
 31
0.0
  0
LINE
  8
0
 62
     0
 10
29.7574
 20
1.58061
 30
0.0
 11
29.9544
 21
1.79558
 31
0.0
  0
LINE
  8
0
 62
     0
 10
29.9544
 20
1.79558
 30
0.0
 11
30.1914
 21
2.02296
 31
0.0
  0
LINE
  8
0
 62
     0
 10
30.1914
 20
2.02296
 30
0.0
 11
30.2273
 21
2.06292
 31
0.0
  0
LINE
  8
0
 62
     0
 10
30.2273
 20
2.06292
 30
0.0
 11
30.2521
 21
2.07946
 31
0.0
  0
LINE
  8
0
 62
     0
 10
30.2521
 20
2.07946
 30
0.0
 11
30.3954
 21
2.24207
 31
0.0
  0
LINE
  8
0
 62
     0
 10
30.3954
 20
2.24207
 30
0.0
 11
30.5194
 21
2.4157
 31
0.0
  0
LINE
  8
0
 62
     0
 10
30.5194
 20
2.4157
 30
0.0
 11
30.536
 21
2.43775
 31
0.0
  0
LINE
  8
0
 62
     0
 10
30.4312
 20
5.78915
 30
0.0
 11
30.3816
 21
5.77811
 31
0.0
  0
LINE
  8
0
 62
     0
 10
30.3816
 20
5.77811
 30
0.0
 11
30.2411
 21
5.71197
 31
0.0
  0
LINE
  8
0
 62
     0
 10
30.2411
 20
5.71197
 30
0.0
 11
30.1336
 21
5.59209
 31
0.0
  0
LINE
  8
0
 62
     0
 10
30.1336
 20
5.59209
 30
0.0
 11
30.1005
 21
5.55212
 31
0.0
  0
LINE
  8
0
 62
     0
 10
30.1005
 20
5.55212
 30
0.0
 11
30.0674
 21
5.49286
 31
0.0
  0
LINE
  8
0
 62
     0
 10
30.0674
 20
5.49286
 30
0.0
 11
29.7188
 21
5.03121
 31
0.0
  0
LINE
  8
0
 62
     0
 10
29.7188
 20
5.03121
 30
0.0
 11
29.6816
 21
4.97336
 31
0.0
  0
LINE
  8
0
 62
     0
 10
29.6816
 20
4.97336
 30
0.0
 11
29.6209
 21
4.91409
 31
0.0
  0
LINE
  8
0
 62
     0
 10
29.6209
 20
4.91409
 30
0.0
 11
29.2764
 21
4.28706
 31
0.0
  0
LINE
  8
0
 62
     0
 10
29.2764
 20
4.28706
 30
0.0
 11
29.2406
 21
4.21816
 31
0.0
  0
LINE
  8
0
 62
     0
 10
29.2406
 20
4.21816
 30
0.0
 11
29.1869
 21
4.12309
 31
0.0
  0
LINE
  8
0
 62
     0
 10
29.1869
 20
4.12309
 30
0.0
 11
29.0063
 21
3.78135
 31
0.0
  0
LINE
  8
0
 62
     0
 10
29.0063
 20
3.78135
 30
0.0
 11
28.8768
 21
3.51262
 31
0.0
  0
LINE
  8
0
 62
     0
 10
28.8768
 20
3.51262
 30
0.0
 11
28.8492
 21
3.45199
 31
0.0
  0
LINE
  8
0
 62
     0
 10
28.8492
 20
3.45199
 30
0.0
 11
28.8065
 21
3.37068
 31
0.0
  0
LINE
  8
0
 62
     0
 10
28.8065
 20
3.37068
 30
0.0
 11
28.6728
 21
3.08956
 31
0.0
  0
LINE
  8
0
 62
     0
 10
28.6728
 20
3.08956
 30
0.0
 11
28.586
 21
2.8925
 31
0.0
  0
LINE
  8
0
 62
     0
 10
28.586
 20
2.8925
 30
0.0
 11
28.5681
 21
2.85116
 31
0.0
  0
LINE
  8
0
 62
     0
 10
28.5681
 20
2.85116
 30
0.0
 11
28.5323
 21
2.81258
 31
0.0
  0
LINE
  8
0
 62
     0
 10
28.5323
 20
2.81258
 30
0.0
 11
28.4579
 21
2.66375
 31
0.0
  0
LINE
  8
0
 62
     0
 10
28.4579
 20
2.66375
 30
0.0
 11
28.4661
 21
2.60036
 31
0.0
  0
LINE
  8
0
 62
     0
 10
28.4661
 20
2.60036
 30
0.0
 11
28.4689
 21
2.5976
 31
0.0
  0
LINE
  8
0
 62
     0
 10
28.4689
 20
2.5976
 30
0.0
 11
28.4964
 21
2.61552
 31
0.0
  0
LINE
  8
0
 62
     0
 10
28.4964
 20
2.61552
 30
0.0
 11
28.9292
 21
3.01101
 31
0.0
  0
LINE
  8
0
 62
     0
 10
28.9292
 20
3.01101
 30
0.0
 11
28.976
 21
3.06062
 31
0.0
  0
LINE
  8
0
 62
     0
 10
28.976
 20
3.06062
 30
0.0
 11
28.9981
 21
3.09094
 31
0.0
  0
LINE
  8
0
 62
     0
 10
28.9981
 20
3.09094
 30
0.0
 11
29.213
 21
3.3445
 31
0.0
  0
LINE
  8
0
 62
     0
 10
29.213
 20
3.3445
 30
0.0
 11
29.4721
 21
3.65732
 31
0.0
  0
LINE
  8
0
 62
     0
 10
29.4721
 20
3.65732
 30
0.0
 11
29.5162
 21
3.71658
 31
0.0
  0
LINE
  8
0
 62
     0
 10
29.5162
 20
3.71658
 30
0.0
 11
29.5506
 21
3.76206
 31
0.0
  0
LINE
  8
0
 62
     0
 10
29.5506
 20
3.76206
 30
0.0
 11
29.9737
 21
4.37804
 31
0.0
  0
LINE
  8
0
 62
     0
 10
29.9737
 20
4.37804
 30
0.0
 11
30.0123
 21
4.43865
 31
0.0
  0
LINE
  8
0
 62
     0
 10
30.0123
 20
4.43865
 30
0.0
 11
30.0288
 21
4.48412
 31
0.0
  0
LINE
  8
0
 62
     0
 10
30.0288
 20
4.48412
 30
0.0
 11
30.1859
 21
4.76525
 31
0.0
  0
LINE
  8
0
 62
     0
 10
30.1859
 20
4.76525
 30
0.0
 11
30.3582
 21
5.05601
 31
0.0
  0
LINE
  8
0
 62
     0
 10
30.3582
 20
5.05601
 30
0.0
 11
30.3816
 21
5.10565
 31
0.0
  0
LINE
  8
0
 62
     0
 10
30.3816
 20
5.10565
 30
0.0
 11
30.3816
 21
5.14283
 31
0.0
  0
LINE
  8
0
 62
     0
 10
30.3816
 20
5.14283
 30
0.0
 11
30.4588
 21
5.36056
 31
0.0
  0
LINE
  8
0
 62
     0
 10
30.4588
 20
5.36056
 30
0.0
 11
30.5428
 21
5.56588
 31
0.0
  0
LINE
  8
0
 62
     0
 10
30.5428
 20
5.56588
 30
0.0
 11
30.547
 21
5.59622
 31
0.0
  0
LINE
  8
0
 62
     0
 10
30.547
 20
5.59622
 30
0.0
 11
30.5428
 21
5.60447
 31
0.0
  0
LINE
  8
0
 62
     0
 10
30.5428
 20
5.60447
 30
0.0
 11
30.5194
 21
5.70371
 31
0.0
  0
LINE
  8
0
 62
     0
 10
30.5194
 20
5.70371
 30
0.0
 11
30.4533
 21
5.78915
 31
0.0
  0
LINE
  8
0
 62
     0
 10
30.4533
 20
5.78915
 30
0.0
 11
30.4312
 21
5.78915
 31
0.0
  0
LINE
  8
0
 62
     0
 10
34.5171
 20
2.22829
 30
0.0
 11
34.5171
 21
2.22829
 31
0.0
  0
LINE
  8
0
 62
     0
 10
34.5171
 20
2.22829
 30
0.0
 11
34.5764
 21
2.24345
 31
0.0
  0
LINE
  8
0
 62
     0
 10
34.5764
 20
2.24345
 30
0.0
 11
34.5777
 21
2.23931
 31
0.0
  0
LINE
  8
0
 62
     0
 10
34.5777
 20
2.23931
 30
0.0
 11
34.5722
 21
2.2338
 31
0.0
  0
LINE
  8
0
 62
     0
 10
34.5722
 20
2.2338
 30
0.0
 11
34.575
 21
2.20348
 31
0.0
  0
LINE
  8
0
 62
     0
 10
34.575
 20
2.20348
 30
0.0
 11
34.5722
 21
2.20073
 31
0.0
  0
LINE
  8
0
 62
     0
 10
34.5722
 20
2.20073
 30
0.0
 11
34.5584
 21
2.19522
 31
0.0
  0
LINE
  8
0
 62
     0
 10
34.5584
 20
2.19522
 30
0.0
 11
34.4523
 21
2.0767
 31
0.0
  0
LINE
  8
0
 62
     0
 10
34.4523
 20
2.0767
 30
0.0
 11
34.4289
 21
2.0519
 31
0.0
  0
LINE
  8
0
 62
     0
 10
34.4289
 20
2.0519
 30
0.0
 11
34.4041
 21
2.00367
 31
0.0
  0
LINE
  8
0
 62
     0
 10
34.4041
 20
2.00367
 30
0.0
 11
34.1065
 21
1.72393
 31
0.0
  0
LINE
  8
0
 62
     0
 10
34.1065
 20
1.72393
 30
0.0
 11
34.0706
 21
1.6881
 31
0.0
  0
LINE
  8
0
 62
     0
 10
34.0706
 20
1.6881
 30
0.0
 11
34.0321
 21
1.63022
 31
0.0
  0
LINE
  8
0
 62
     0
 10
34.0321
 20
1.63022
 30
0.0
 11
33.6159
 21
1.27193
 31
0.0
  0
LINE
  8
0
 62
     0
 10
33.6159
 20
1.27193
 30
0.0
 11
33.569
 21
1.23059
 31
0.0
  0
LINE
  8
0
 62
     0
 10
33.569
 20
1.23059
 30
0.0
 11
33.5029
 21
1.17685
 31
0.0
  0
LINE
  8
0
 62
     0
 10
33.5029
 20
1.17685
 30
0.0
 11
33.2589
 21
0.981163
 31
0.0
  0
LINE
  8
0
 62
     0
 10
33.2589
 20
0.981163
 30
0.0
 11
33.0536
 21
0.828202
 31
0.0
  0
LINE
  8
0
 62
     0
 10
33.0536
 20
0.828202
 30
0.0
 11
33.0068
 21
0.795129
 31
0.0
  0
LINE
  8
0
 62
     0
 10
33.0068
 20
0.795129
 30
0.0
 11
32.9585
 21
0.755167
 31
0.0
  0
LINE
  8
0
 62
     0
 10
32.9585
 20
0.755167
 30
0.0
 11
32.5093
 21
0.509873
 31
0.0
  0
LINE
  8
0
 62
     0
 10
32.5093
 20
0.509873
 30
0.0
 11
32.4666
 21
0.491959
 31
0.0
  0
LINE
  8
0
 62
     0
 10
32.4666
 20
0.491959
 30
0.0
 11
32.4087
 21
0.4644
 31
0.0
  0
LINE
  8
0
 62
     0
 10
32.4087
 20
0.4644
 30
0.0
 11
32.2075
 21
0.413413
 31
0.0
  0
LINE
  8
0
 62
     0
 10
32.2075
 20
0.413413
 30
0.0
 11
32.0614
 21
0.438217
 31
0.0
  0
LINE
  8
0
 62
     0
 10
32.0614
 20
0.438217
 30
0.0
 11
32.0311
 21
0.447862
 31
0.0
  0
LINE
  8
0
 62
     0
 10
32.0311
 20
0.447862
 30
0.0
 11
31.9967
 21
0.450617
 31
0.0
  0
LINE
  8
0
 62
     0
 10
31.9967
 20
0.450617
 30
0.0
 11
31.8065
 21
0.613227
 31
0.0
  0
LINE
  8
0
 62
     0
 10
31.8065
 20
0.613227
 30
0.0
 11
31.7941
 21
0.635275
 31
0.0
  0
LINE
  8
0
 62
     0
 10
31.7941
 20
0.635275
 30
0.0
 11
31.772
 21
0.635275
 31
0.0
  0
LINE
  8
0
 62
     0
 10
31.772
 20
0.635275
 30
0.0
 11
31.7032
 21
0.745518
 31
0.0
  0
LINE
  8
0
 62
     0
 10
31.7032
 20
0.745518
 30
0.0
 11
31.6976
 21
0.915017
 31
0.0
  0
LINE
  8
0
 62
     0
 10
31.6976
 20
0.915017
 30
0.0
 11
31.6949
 21
0.943956
 31
0.0
  0
LINE
  8
0
 62
     0
 10
31.6949
 20
0.943956
 30
0.0
 11
31.6825
 21
0.95498
 31
0.0
  0
LINE
  8
0
 62
     0
 10
31.6825
 20
0.95498
 30
0.0
 11
31.6714
 21
1.09554
 31
0.0
  0
LINE
  8
0
 62
     0
 10
31.6714
 20
1.09554
 30
0.0
 11
31.6921
 21
1.27744
 31
0.0
  0
LINE
  8
0
 62
     0
 10
31.6921
 20
1.27744
 30
0.0
 11
31.6949
 21
1.30776
 31
0.0
  0
LINE
  8
0
 62
     0
 10
31.6949
 20
1.30776
 30
0.0
 11
31.6894
 21
1.31878
 31
0.0
  0
LINE
  8
0
 62
     0
 10
31.6894
 20
1.31878
 30
0.0
 11
31.7445
 21
1.61919
 31
0.0
  0
LINE
  8
0
 62
     0
 10
31.7445
 20
1.61919
 30
0.0
 11
31.75
 21
1.644
 31
0.0
  0
LINE
  8
0
 62
     0
 10
31.75
 20
1.644
 30
0.0
 11
31.7417
 21
1.65089
 31
0.0
  0
LINE
  8
0
 62
     0
 10
31.7417
 20
1.65089
 30
0.0
 11
31.7583
 21
1.75838
 31
0.0
  0
LINE
  8
0
 62
     0
 10
31.7583
 20
1.75838
 30
0.0
 11
31.801
 21
1.88654
 31
0.0
  0
LINE
  8
0
 62
     0
 10
31.801
 20
1.88654
 30
0.0
 11
31.8051
 21
1.90307
 31
0.0
  0
LINE
  8
0
 62
     0
 10
31.8051
 20
1.90307
 30
0.0
 11
31.801
 21
1.90583
 31
0.0
  0
LINE
  8
0
 62
     0
 10
31.801
 20
1.90583
 30
0.0
 11
31.8327
 21
2.0078
 31
0.0
  0
LINE
  8
0
 62
     0
 10
31.8327
 20
2.0078
 30
0.0
 11
31.8327
 21
2.0078
 31
0.0
  0
LINE
  8
0
 62
     0
 10
31.8327
 20
2.0078
 30
0.0
 11
31.8203
 21
1.99953
 31
0.0
  0
LINE
  8
0
 62
     0
 10
31.8203
 20
1.99953
 30
0.0
 11
31.7803
 21
1.98162
 31
0.0
  0
LINE
  8
0
 62
     0
 10
31.7803
 20
1.98162
 30
0.0
 11
31.7941
 21
1.99678
 31
0.0
  0
LINE
  8
0
 62
     0
 10
31.7941
 20
1.99678
 30
0.0
 11
31.7941
 21
1.99678
 31
0.0
  0
LINE
  8
0
 62
     0
 10
31.7941
 20
1.99678
 30
0.0
 11
31.728
 21
1.92374
 31
0.0
  0
LINE
  8
0
 62
     0
 10
31.728
 20
1.92374
 30
0.0
 11
31.4978
 21
1.65916
 31
0.0
  0
LINE
  8
0
 62
     0
 10
31.4978
 20
1.65916
 30
0.0
 11
31.3283
 21
1.45934
 31
0.0
  0
LINE
  8
0
 62
     0
 10
31.3283
 20
1.45934
 30
0.0
 11
31.2925
 21
1.418
 31
0.0
  0
LINE
  8
0
 62
     0
 10
31.2925
 20
1.418
 30
0.0
 11
31.2511
 21
1.37666
 31
0.0
  0
LINE
  8
0
 62
     0
 10
31.2511
 20
1.37666
 30
0.0
 11
30.9301
 21
1.04593
 31
0.0
  0
LINE
  8
0
 62
     0
 10
30.9301
 20
1.04593
 30
0.0
 11
30.9011
 21
1.02113
 31
0.0
  0
LINE
  8
0
 62
     0
 10
30.9011
 20
1.02113
 30
0.0
 11
30.8708
 21
0.972894
 31
0.0
  0
LINE
  8
0
 62
     0
 10
30.8708
 20
0.972894
 30
0.0
 11
30.722
 21
0.859896
 31
0.0
  0
LINE
  8
0
 62
     0
 10
30.722
 20
0.859896
 30
0.0
 11
30.5814
 21
0.830957
 31
0.0
  0
LINE
  8
0
 62
     0
 10
30.5814
 20
0.830957
 30
0.0
 11
30.5539
 21
0.822688
 31
0.0
  0
LINE
  8
0
 62
     0
 10
30.5539
 20
0.822688
 30
0.0
 11
30.5222
 21
0.804774
 31
0.0
  0
LINE
  8
0
 62
     0
 10
30.5222
 20
0.804774
 30
0.0
 11
30.2176
 21
0.808909
 31
0.0
  0
LINE
  8
0
 62
     0
 10
30.2176
 20
0.808909
 30
0.0
 11
30.1845
 21
0.817178
 31
0.0
  0
LINE
  8
0
 62
     0
 10
30.1845
 20
0.817178
 30
0.0
 11
30.1542
 21
0.817178
 31
0.0
  0
LINE
  8
0
 62
     0
 10
30.1542
 20
0.817178
 30
0.0
 11
29.9723
 21
0.990808
 31
0.0
  0
LINE
  8
0
 62
     0
 10
29.9723
 20
0.990808
 30
0.0
 11
29.9641
 21
1.01562
 31
0.0
  0
LINE
  8
0
 62
     0
 10
29.9641
 20
1.01562
 30
0.0
 11
29.9531
 21
1.01562
 31
0.0
  0
LINE
  8
0
 62
     0
 10
29.9531
 20
1.01562
 30
0.0
 11
29.9158
 21
1.13275
 31
0.0
  0
LINE
  8
0
 62
     0
 10
29.9158
 20
1.13275
 30
0.0
 11
29.9448
 21
1.31603
 31
0.0
  0
LINE
  8
0
 62
     0
 10
29.9448
 20
1.31603
 30
0.0
 11
29.9531
 21
1.34634
 31
0.0
  0
LINE
  8
0
 62
     0
 10
29.9531
 20
1.34634
 30
0.0
 11
29.9475
 21
1.35599
 31
0.0
  0
LINE
  8
0
 62
     0
 10
29.9475
 20
1.35599
 30
0.0
 11
29.9985
 21
1.51033
 31
0.0
  0
LINE
  8
0
 62
     0
 10
29.9985
 20
1.51033
 30
0.0
 11
30.1019
 21
1.71841
 31
0.0
  0
LINE
  8
0
 62
     0
 10
30.1019
 20
1.71841
 30
0.0
 11
30.1239
 21
1.75424
 31
0.0
  0
LINE
  8
0
 62
     0
 10
30.1239
 20
1.75424
 30
0.0
 11
30.1198
 21
1.76251
 31
0.0
  0
LINE
  8
0
 62
     0
 10
30.1198
 20
1.76251
 30
0.0
 11
30.2273
 21
1.91685
 31
0.0
  0
LINE
  8
0
 62
     0
 10
30.2273
 20
1.91685
 30
0.0
 11
30.4064
 21
2.11667
 31
0.0
  0
LINE
  8
0
 62
     0
 10
30.4064
 20
2.11667
 30
0.0
 11
30.4381
 21
2.1456
 31
0.0
  0
LINE
  8
0
 62
     0
 10
30.4381
 20
2.1456
 30
0.0
 11
30.4464
 21
2.17317
 31
0.0
  0
LINE
  8
0
 62
     0
 10
30.4464
 20
2.17317
 30
0.0
 11
30.8074
 21
2.41846
 31
0.0
  0
LINE
  8
0
 62
     0
 10
30.8074
 20
2.41846
 30
0.0
 11
30.846
 21
2.43775
 31
0.0
  0
LINE
  8
0
 62
     0
 10
30.846
 20
2.43775
 30
0.0
 11
30.8571
 21
2.43086
 31
0.0
  0
LINE
  8
0
 62
     0
 10
30.8571
 20
2.43086
 30
0.0
 11
31.0403
 21
2.48598
 31
0.0
  0
LINE
  8
0
 62
     0
 10
31.0403
 20
2.48598
 30
0.0
 11
31.2539
 21
2.5535
 31
0.0
  0
LINE
  8
0
 62
     0
 10
31.2539
 20
2.5535
 30
0.0
 11
31.3256
 21
2.5535
 31
0.0
  0
LINE
  8
0
 62
     0
 10
31.3256
 20
2.5535
 30
0.0
 11
31.3449
 21
2.54799
 31
0.0
  0
LINE
  8
0
 62
     0
 10
31.3449
 20
2.54799
 30
0.0
 11
31.6232
 21
2.46255
 31
0.0
  0
LINE
  8
0
 62
     0
 10
31.6232
 20
2.46255
 30
0.0
 11
31.6508
 21
2.44326
 31
0.0
  0
LINE
  8
0
 62
     0
 10
31.6508
 20
2.44326
 30
0.0
 11
31.6701
 21
2.40054
 31
0.0
  0
LINE
  8
0
 62
     0
 10
31.6701
 20
2.40054
 30
0.0
 11
31.7734
 21
2.28755
 31
0.0
  0
LINE
  8
0
 62
     0
 10
31.7734
 20
2.28755
 30
0.0
 11
31.852
 21
2.22278
 31
0.0
  0
LINE
  8
0
 62
     0
 10
31.852
 20
2.22278
 30
0.0
 11
31.8602
 21
2.20073
 31
0.0
  0
LINE
  8
0
 62
     0
 10
31.8602
 20
2.20073
 30
0.0
 11
31.8464
 21
2.21175
 31
0.0
  0
LINE
  8
0
 62
     0
 10
31.8464
 20
2.21175
 30
0.0
 11
31.8892
 21
2.35093
 31
0.0
  0
LINE
  8
0
 62
     0
 10
31.8892
 20
2.35093
 30
0.0
 11
32.0008
 21
2.56866
 31
0.0
  0
LINE
  8
0
 62
     0
 10
32.0008
 20
2.56866
 30
0.0
 11
32.0201
 21
2.61965
 31
0.0
  0
LINE
  8
0
 62
     0
 10
32.0201
 20
2.61965
 30
0.0
 11
32.0325
 21
2.66099
 31
0.0
  0
LINE
  8
0
 62
     0
 10
32.0325
 20
2.66099
 30
0.0
 11
32.2819
 21
3.29765
 31
0.0
  0
LINE
  8
0
 62
     0
 10
32.2819
 20
3.29765
 30
0.0
 11
32.3123
 21
3.3693
 31
0.0
  0
LINE
  8
0
 62
     0
 10
32.3123
 20
3.3693
 30
0.0
 11
32.3398
 21
3.42718
 31
0.0
  0
LINE
  8
0
 62
     0
 10
32.3398
 20
3.42718
 30
0.0
 11
32.676
 21
4.19061
 31
0.0
  0
LINE
  8
0
 62
     0
 10
32.676
 20
4.19061
 30
0.0
 11
32.7146
 21
4.2678
 31
0.0
  0
LINE
  8
0
 62
     0
 10
32.7146
 20
4.2678
 30
0.0
 11
32.7463
 21
4.34358
 31
0.0
  0
LINE
  8
0
 62
     0
 10
32.7463
 20
4.34358
 30
0.0
 11
33.1749
 21
5.05876
 31
0.0
  0
LINE
  8
0
 62
     0
 10
33.1749
 20
5.05876
 30
0.0
 11
33.2218
 21
5.12216
 31
0.0
  0
LINE
  8
0
 62
     0
 10
33.2218
 20
5.12216
 30
0.0
 11
33.2479
 21
5.17179
 31
0.0
  0
LINE
  8
0
 62
     0
 10
33.2479
 20
5.17179
 30
0.0
 11
33.478
 21
5.45151
 31
0.0
  0
LINE
  8
0
 62
     0
 10
33.478
 20
5.45151
 30
0.0
 11
33.7592
 21
5.71472
 31
0.0
  0
LINE
  8
0
 62
     0
 10
33.7592
 20
5.71472
 30
0.0
 11
33.8116
 21
5.75606
 31
0.0
  0
LINE
  8
0
 62
     0
 10
33.8116
 20
5.75606
 30
0.0
 11
33.8542
 21
5.78915
 31
0.0
  0
LINE
  8
0
 62
     0
 10
33.8542
 20
5.78915
 30
0.0
 11
34.3214
 21
6.0041
 31
0.0
  0
LINE
  8
0
 62
     0
 10
34.3214
 20
6.0041
 30
0.0
 11
34.4785
 21
6.0041
 31
0.0
  0
LINE
  8
0
 62
     0
 10
34.4785
 20
6.0041
 30
0.0
 11
34.5185
 21
6.0041
 31
0.0
  0
LINE
  8
0
 62
     0
 10
34.5185
 20
6.0041
 30
0.0
 11
34.637
 21
5.87181
 31
0.0
  0
LINE
  8
0
 62
     0
 10
34.637
 20
5.87181
 30
0.0
 11
34.6384
 21
5.84426
 31
0.0
  0
LINE
  8
0
 62
     0
 10
34.6384
 20
5.84426
 30
0.0
 11
34.6204
 21
5.80154
 31
0.0
  0
LINE
  8
0
 62
     0
 10
34.6204
 20
5.80154
 30
0.0
 11
34.5612
 21
5.46943
 31
0.0
  0
LINE
  8
0
 62
     0
 10
34.5612
 20
5.46943
 30
0.0
 11
34.5447
 21
5.42533
 31
0.0
  0
LINE
  8
0
 62
     0
 10
34.5447
 20
5.42533
 30
0.0
 11
34.5157
 21
5.37161
 31
0.0
  0
LINE
  8
0
 62
     0
 10
34.5157
 20
5.37161
 30
0.0
 11
34.2746
 21
4.88237
 31
0.0
  0
LINE
  8
0
 62
     0
 10
34.2746
 20
4.88237
 30
0.0
 11
34.2415
 21
4.82452
 31
0.0
  0
LINE
  8
0
 62
     0
 10
34.2415
 20
4.82452
 30
0.0
 11
34.1933
 21
4.75008
 31
0.0
  0
LINE
  8
0
 62
     0
 10
34.1933
 20
4.75008
 30
0.0
 11
34.0058
 21
4.45657
 31
0.0
  0
LINE
  8
0
 62
     0
 10
34.0058
 20
4.45657
 30
0.0
 11
33.8281
 21
4.19887
 31
0.0
  0
LINE
  8
0
 62
     0
 10
33.8281
 20
4.19887
 30
0.0
 11
33.784
 21
4.14101
 31
0.0
  0
LINE
  8
0
 62
     0
 10
33.784
 20
4.14101
 30
0.0
 11
33.733
 21
4.06245
 31
0.0
  0
LINE
  8
0
 62
     0
 10
33.733
 20
4.06245
 30
0.0
 11
33.2714
 21
3.50435
 31
0.0
  0
LINE
  8
0
 62
     0
 10
33.2714
 20
3.50435
 30
0.0
 11
33.2218
 21
3.44647
 31
0.0
  0
LINE
  8
0
 62
     0
 10
33.2218
 20
3.44647
 30
0.0
 11
33.1515
 21
3.36793
 31
0.0
  0
LINE
  8
0
 62
     0
 10
33.1515
 20
3.36793
 30
0.0
 11
32.8869
 21
3.08818
 31
0.0
  0
LINE
  8
0
 62
     0
 10
32.8869
 20
3.08818
 30
0.0
 11
32.6567
 21
2.87596
 31
0.0
  0
LINE
  8
0
 62
     0
 10
32.6567
 20
2.87596
 30
0.0
 11
32.6044
 21
2.82911
 31
0.0
  0
LINE
  8
0
 62
     0
 10
32.6044
 20
2.82911
 30
0.0
 11
32.5892
 21
2.82911
 31
0.0
  0
LINE
  8
0
 62
     0
 10
32.5892
 20
2.82911
 30
0.0
 11
32.5438
 21
2.79879
 31
0.0
  0
LINE
  8
0
 62
     0
 10
32.5438
 20
2.79879
 30
0.0
 11
32.5506
 21
2.72714
 31
0.0
  0
LINE
  8
0
 62
     0
 10
32.5506
 20
2.72714
 30
0.0
 11
32.5438
 21
2.70784
 31
0.0
  0
LINE
  8
0
 62
     0
 10
32.5438
 20
2.70784
 30
0.0
 11
32.5162
 21
2.67202
 31
0.0
  0
LINE
  8
0
 62
     0
 10
32.5162
 20
2.67202
 30
0.0
 11
32.4597
 21
2.54248
 31
0.0
  0
LINE
  8
0
 62
     0
 10
32.4597
 20
2.54248
 30
0.0
 11
32.439
 21
2.43499
 31
0.0
  0
LINE
  8
0
 62
     0
 10
32.439
 20
2.43499
 30
0.0
 11
32.428
 21
2.40468
 31
0.0
  0
LINE
  8
0
 62
     0
 10
32.428
 20
2.40468
 30
0.0
 11
32.4046
 21
2.35231
 31
0.0
  0
LINE
  8
0
 62
     0
 10
32.4046
 20
2.35231
 30
0.0
 11
32.3371
 21
2.18006
 31
0.0
  0
LINE
  8
0
 62
     0
 10
32.3371
 20
2.18006
 30
0.0
 11
32.2916
 21
2.03536
 31
0.0
  0
LINE
  8
0
 62
     0
 10
32.2916
 20
2.03536
 30
0.0
 11
32.2792
 21
1.99678
 31
0.0
  0
LINE
  8
0
 62
     0
 10
32.2792
 20
1.99678
 30
0.0
 11
32.2378
 21
1.94166
 31
0.0
  0
LINE
  8
0
 62
     0
 10
32.2378
 20
1.94166
 30
0.0
 11
32.162
 21
1.73909
 31
0.0
  0
LINE
  8
0
 62
     0
 10
32.162
 20
1.73909
 30
0.0
 11
32.151
 21
1.56959
 31
0.0
  0
LINE
  8
0
 62
     0
 10
32.151
 20
1.56959
 30
0.0
 11
32.1414
 21
1.52824
 31
0.0
  0
LINE
  8
0
 62
     0
 10
32.1414
 20
1.52824
 30
0.0
 11
32.1152
 21
1.48001
 31
0.0
  0
LINE
  8
0
 62
     0
 10
32.1152
 20
1.48001
 30
0.0
 11
32.0669
 21
1.10794
 31
0.0
  0
LINE
  8
0
 62
     0
 10
32.0669
 20
1.10794
 30
0.0
 11
32.0642
 21
1.07074
 31
0.0
  0
LINE
  8
0
 62
     0
 10
32.0642
 20
1.07074
 30
0.0
 11
32.0491
 21
1.03491
 31
0.0
  0
LINE
  8
0
 62
     0
 10
32.0491
 20
1.03491
 30
0.0
 11
32.0738
 21
0.72347
 31
0.0
  0
LINE
  8
0
 62
     0
 10
32.0738
 20
0.72347
 30
0.0
 11
32.0807
 21
0.695911
 31
0.0
  0
LINE
  8
0
 62
     0
 10
32.0807
 20
0.695911
 30
0.0
 11
32.0766
 21
0.653189
 31
0.0
  0
LINE
  8
0
 62
     0
 10
32.0766
 20
0.653189
 30
0.0
 11
32.1303
 21
0.514008
 31
0.0
  0
LINE
  8
0
 62
     0
 10
32.1303
 20
0.514008
 30
0.0
 11
32.2516
 21
0.516763
 31
0.0
  0
LINE
  8
0
 62
     0
 10
32.2516
 20
0.516763
 30
0.0
 11
32.2792
 21
0.519522
 31
0.0
  0
LINE
  8
0
 62
     0
 10
32.2792
 20
0.519522
 30
0.0
 11
32.2792
 21
0.519522
 31
0.0
  0
LINE
  8
0
 62
     0
 10
32.2792
 20
0.519522
 30
0.0
 11
32.4142
 21
0.542946
 31
0.0
  0
LINE
  8
0
 62
     0
 10
32.4142
 20
0.542946
 30
0.0
 11
32.6361
 21
0.646299
 31
0.0
  0
LINE
  8
0
 62
     0
 10
32.6361
 20
0.646299
 30
0.0
 11
32.676
 21
0.668348
 31
0.0
  0
LINE
  8
0
 62
     0
 10
32.676
 20
0.668348
 30
0.0
 11
32.7133
 21
0.665593
 31
0.0
  0
LINE
  8
0
 62
     0
 10
32.7133
 20
0.665593
 30
0.0
 11
32.9213
 21
0.790995
 31
0.0
  0
LINE
  8
0
 62
     0
 10
32.9213
 20
0.790995
 30
0.0
 11
33.1473
 21
0.994943
 31
0.0
  0
LINE
  8
0
 62
     0
 10
33.1473
 20
0.994943
 30
0.0
 11
33.1942
 21
1.03215
 31
0.0
  0
LINE
  8
0
 62
     0
 10
33.1942
 20
1.03215
 30
0.0
 11
33.2231
 21
1.04317
 31
0.0
  0
LINE
  8
0
 62
     0
 10
33.2231
 20
1.04317
 30
0.0
 11
33.4395
 21
1.21956
 31
0.0
  0
LINE
  8
0
 62
     0
 10
33.4395
 20
1.21956
 30
0.0
 11
33.6848
 21
1.45107
 31
0.0
  0
LINE
  8
0
 62
     0
 10
33.6848
 20
1.45107
 30
0.0
 11
33.7289
 21
1.48966
 31
0.0
  0
LINE
  8
0
 62
     0
 10
33.7289
 20
1.48966
 30
0.0
 11
33.7702
 21
1.52273
 31
0.0
  0
LINE
  8
0
 62
     0
 10
33.7702
 20
1.52273
 30
0.0
 11
34.1671
 21
1.88654
 31
0.0
  0
LINE
  8
0
 62
     0
 10
34.1671
 20
1.88654
 30
0.0
 11
34.2029
 21
1.91961
 31
0.0
  0
LINE
  8
0
 62
     0
 10
34.2029
 20
1.91961
 30
0.0
 11
34.2249
 21
1.94166
 31
0.0
  0
LINE
  8
0
 62
     0
 10
34.2249
 20
1.94166
 30
0.0
 11
34.4992
 21
2.21175
 31
0.0
  0
LINE
  8
0
 62
     0
 10
34.4992
 20
2.21175
 30
0.0
 11
34.5171
 21
2.22829
 31
0.0
  0
LINE
  8
0
 62
     0
 10
34.4124
 20
5.59622
 30
0.0
 11
34.389
 21
5.57142
 31
0.0
  0
LINE
  8
0
 62
     0
 10
34.389
 20
5.57142
 30
0.0
 11
34.1285
 21
5.43638
 31
0.0
  0
LINE
  8
0
 62
     0
 10
34.1285
 20
5.43638
 30
0.0
 11
34.0982
 21
5.40329
 31
0.0
  0
LINE
  8
0
 62
     0
 10
34.0982
 20
5.40329
 30
0.0
 11
34.0637
 21
5.36332
 31
0.0
  0
LINE
  8
0
 62
     0
 10
34.0637
 20
5.36332
 30
0.0
 11
33.7509
 21
4.97748
 31
0.0
  0
LINE
  8
0
 62
     0
 10
33.7509
 20
4.97748
 30
0.0
 11
33.7178
 21
4.92926
 31
0.0
  0
LINE
  8
0
 62
     0
 10
33.7178
 20
4.92926
 30
0.0
 11
33.6834
 21
4.85345
 31
0.0
  0
LINE
  8
0
 62
     0
 10
33.6834
 20
4.85345
 30
0.0
 11
33.354
 21
4.36287
 31
0.0
  0
LINE
  8
0
 62
     0
 10
33.354
 20
4.36287
 30
0.0
 11
33.321
 21
4.30636
 31
0.0
  0
LINE
  8
0
 62
     0
 10
33.321
 20
4.30636
 30
0.0
 11
33.2617
 21
4.24575
 31
0.0
  0
LINE
  8
0
 62
     0
 10
33.2617
 20
4.24575
 30
0.0
 11
33.0963
 21
3.97288
 31
0.0
  0
LINE
  8
0
 62
     0
 10
33.0963
 20
3.97288
 30
0.0
 11
32.9985
 21
3.72759
 31
0.0
  0
LINE
  8
0
 62
     0
 10
32.9985
 20
3.72759
 30
0.0
 11
32.9737
 21
3.67799
 31
0.0
  0
LINE
  8
0
 62
     0
 10
32.9737
 20
3.67799
 30
0.0
 11
32.92
 21
3.61735
 31
0.0
  0
LINE
  8
0
 62
     0
 10
32.92
 20
3.61735
 30
0.0
 11
32.7918
 21
3.38998
 31
0.0
  0
LINE
  8
0
 62
     0
 10
32.7918
 20
3.38998
 30
0.0
 11
32.7408
 21
3.21634
 31
0.0
  0
LINE
  8
0
 62
     0
 10
32.7408
 20
3.21634
 30
0.0
 11
32.7256
 21
3.18189
 31
0.0
  0
LINE
  8
0
 62
     0
 10
32.7256
 20
3.18189
 30
0.0
 11
32.7022
 21
3.14882
 31
0.0
  0
LINE
  8
0
 62
     0
 10
32.7022
 20
3.14882
 30
0.0
 11
32.6402
 21
2.96967
 31
0.0
  0
LINE
  8
0
 62
     0
 10
32.6402
 20
2.96967
 30
0.0
 11
32.643
 21
2.96692
 31
0.0
  0
LINE
  8
0
 62
     0
 10
32.643
 20
2.96692
 30
0.0
 11
32.676
 21
2.98208
 31
0.0
  0
LINE
  8
0
 62
     0
 10
32.676
 20
2.98208
 30
0.0
 11
33.0481
 21
3.32796
 31
0.0
  0
LINE
  8
0
 62
     0
 10
33.0481
 20
3.32796
 30
0.0
 11
33.0895
 21
3.3693
 31
0.0
  0
LINE
  8
0
 62
     0
 10
33.0895
 20
3.3693
 30
0.0
 11
33.1225
 21
3.39687
 31
0.0
  0
LINE
  8
0
 62
     0
 10
33.1225
 20
3.39687
 30
0.0
 11
33.5442
 21
3.86676
 31
0.0
  0
LINE
  8
0
 62
     0
 10
33.5442
 20
3.86676
 30
0.0
 11
33.5855
 21
3.91502
 31
0.0
  0
LINE
  8
0
 62
     0
 10
33.5855
 20
3.91502
 30
0.0
 11
33.6062
 21
3.96187
 31
0.0
  0
LINE
  8
0
 62
     0
 10
33.6062
 20
3.96187
 30
0.0
 11
34.0072
 21
4.4552
 31
0.0
  0
LINE
  8
0
 62
     0
 10
34.0072
 20
4.4552
 30
0.0
 11
34.0431
 21
4.5048
 31
0.0
  0
LINE
  8
0
 62
     0
 10
34.0431
 20
4.5048
 30
0.0
 11
34.0499
 21
4.53376
 31
0.0
  0
LINE
  8
0
 62
     0
 10
34.0499
 20
4.53376
 30
0.0
 11
34.1919
 21
4.75975
 31
0.0
  0
LINE
  8
0
 62
     0
 10
34.1919
 20
4.75975
 30
0.0
 11
34.3628
 21
5.01054
 31
0.0
  0
LINE
  8
0
 62
     0
 10
34.3628
 20
5.01054
 30
0.0
 11
34.3848
 21
5.05051
 31
0.0
  0
LINE
  8
0
 62
     0
 10
34.3848
 20
5.05051
 30
0.0
 11
34.3793
 21
5.08222
 31
0.0
  0
LINE
  8
0
 62
     0
 10
34.3793
 20
5.08222
 30
0.0
 11
34.4468
 21
5.2572
 31
0.0
  0
LINE
  8
0
 62
     0
 10
34.4468
 20
5.2572
 30
0.0
 11
34.5309
 21
5.41708
 31
0.0
  0
LINE
  8
0
 62
     0
 10
34.5309
 20
5.41708
 30
0.0
 11
34.5336
 21
5.44188
 31
0.0
  0
LINE
  8
0
 62
     0
 10
34.5336
 20
5.44188
 30
0.0
 11
34.5267
 21
5.45564
 31
0.0
  0
LINE
  8
0
 62
     0
 10
34.5267
 20
5.45564
 30
0.0
 11
34.4399
 21
5.59622
 31
0.0
  0
LINE
  8
0
 62
     0
 10
34.4399
 20
5.59622
 30
0.0
 11
34.4124
 21
5.59622
 31
0.0
  0
LINE
  8
0
 62
     0
 10
31.5957
 20
2.12356
 30
0.0
 11
31.6122
 21
2.1456
 31
0.0
  0
LINE
  8
0
 62
     0
 10
31.6122
 20
2.1456
 30
0.0
 11
31.7224
 21
2.29306
 31
0.0
  0
LINE
  8
0
 62
     0
 10
31.7224
 20
2.29306
 30
0.0
 11
31.728
 21
2.29995
 31
0.0
  0
LINE
  8
0
 62
     0
 10
31.728
 20
2.29995
 30
0.0
 11
31.728
 21
2.29995
 31
0.0
  0
LINE
  8
0
 62
     0
 10
31.728
 20
2.29995
 30
0.0
 11
31.7224
 21
2.40054
 31
0.0
  0
LINE
  8
0
 62
     0
 10
31.7224
 20
2.40054
 30
0.0
 11
31.7169
 21
2.41019
 31
0.0
  0
LINE
  8
0
 62
     0
 10
31.7169
 20
2.41019
 30
0.0
 11
31.6811
 21
2.42948
 31
0.0
  0
LINE
  8
0
 62
     0
 10
31.6811
 20
2.42948
 30
0.0
 11
31.5461
 21
2.56591
 31
0.0
  0
LINE
  8
0
 62
     0
 10
31.5461
 20
2.56591
 30
0.0
 11
31.422
 21
2.66926
 31
0.0
  0
LINE
  8
0
 62
     0
 10
31.422
 20
2.66926
 30
0.0
 11
31.3917
 21
2.66926
 31
0.0
  0
LINE
  8
0
 62
     0
 10
31.3917
 20
2.66926
 30
0.0
 11
31.3476
 21
2.6541
 31
0.0
  0
LINE
  8
0
 62
     0
 10
31.3476
 20
2.6541
 30
0.0
 11
31.0665
 21
2.55075
 31
0.0
  0
LINE
  8
0
 62
     0
 10
31.0665
 20
2.55075
 30
0.0
 11
31.0389
 21
2.52595
 31
0.0
  0
LINE
  8
0
 62
     0
 10
31.0389
 20
2.52595
 30
0.0
 11
30.9962
 21
2.49701
 31
0.0
  0
LINE
  8
0
 62
     0
 10
30.9962
 20
2.49701
 30
0.0
 11
30.7385
 21
2.18006
 31
0.0
  0
LINE
  8
0
 62
     0
 10
30.7385
 20
2.18006
 30
0.0
 11
30.7137
 21
2.14009
 31
0.0
  0
LINE
  8
0
 62
     0
 10
30.7137
 20
2.14009
 30
0.0
 11
30.6724
 21
2.10013
 31
0.0
  0
LINE
  8
0
 62
     0
 10
30.6724
 20
2.10013
 30
0.0
 11
30.496
 21
1.71015
 31
0.0
  0
LINE
  8
0
 62
     0
 10
30.496
 20
1.71015
 30
0.0
 11
30.4822
 21
1.67156
 31
0.0
  0
LINE
  8
0
 62
     0
 10
30.4822
 20
1.67156
 30
0.0
 11
30.445
 21
1.61919
 31
0.0
  0
LINE
  8
0
 62
     0
 10
30.445
 20
1.61919
 30
0.0
 11
30.3775
 21
1.42903
 31
0.0
  0
LINE
  8
0
 62
     0
 10
30.3775
 20
1.42903
 30
0.0
 11
30.394
 21
1.31741
 31
0.0
  0
LINE
  8
0
 62
     0
 10
30.394
 20
1.31741
 30
0.0
 11
30.394
 21
1.2802
 31
0.0
  0
LINE
  8
0
 62
     0
 10
30.394
 20
1.2802
 30
0.0
 11
30.3802
 21
1.2485
 31
0.0
  0
LINE
  8
0
 62
     0
 10
30.3802
 20
1.2485
 30
0.0
 11
30.3968
 21
1.12999
 31
0.0
  0
LINE
  8
0
 62
     0
 10
30.3968
 20
1.12999
 30
0.0
 11
30.485
 21
1.11483
 31
0.0
  0
LINE
  8
0
 62
     0
 10
30.485
 20
1.11483
 30
0.0
 11
30.5153
 21
1.11483
 31
0.0
  0
LINE
  8
0
 62
     0
 10
30.5153
 20
1.11483
 30
0.0
 11
30.5153
 21
1.11483
 31
0.0
  0
LINE
  8
0
 62
     0
 10
30.5153
 20
1.11483
 30
0.0
 11
30.6241
 21
1.16858
 31
0.0
  0
LINE
  8
0
 62
     0
 10
30.6241
 20
1.16858
 30
0.0
 11
30.846
 21
1.30914
 31
0.0
  0
LINE
  8
0
 62
     0
 10
30.846
 20
1.30914
 30
0.0
 11
30.8901
 21
1.34634
 31
0.0
  0
LINE
  8
0
 62
     0
 10
30.8901
 20
1.34634
 30
0.0
 11
30.9328
 21
1.3615
 31
0.0
  0
LINE
  8
0
 62
     0
 10
30.9328
 20
1.3615
 30
0.0
 11
31.196
 21
1.61919
 31
0.0
  0
LINE
  8
0
 62
     0
 10
31.196
 20
1.61919
 30
0.0
 11
31.5213
 21
2.03261
 31
0.0
  0
LINE
  8
0
 62
     0
 10
31.5213
 20
2.03261
 30
0.0
 11
31.5957
 21
2.12356
 31
0.0
  0
ENDSEC
  0
EOF
